	gSetOffset
	gOffset .00
	gOffset .01
	gOffset .02
	gOffset .03
	gOffset .04
	gOffset .05
	gOffset .06
	gOffset .07
	gOffset .08
	gOffset .09
	gOffset .0A
	gOffset .0B
	gOffset .0C
	gOffset .0D
	gOffset .0E
	gOffset .0F
	gOffset .10
	gOffset .11
	gOffset .12
	gOffset .13
	gOffset .14
	gOffset .15
	gOffset .16
	gOffset .17
	gOffset .18
	gOffset .19
	gOffset .1A
	gOffset .1B
	gOffset .1C
	gOffset .1D
	gOffset .1E
	gOffset .1F
	gOffset .20
	gOffset .21
	gOffset .22
	gOffset .23
	gOffset .24
	gOffset .25
	gOffset .26
	gOffset .27
	gOffset .28
	gOffset .29
	gOffset .2A
	gOffset .2B
	gOffset .2C
	gOffset .2D
	gOffset .2E
	gOffset .2F
	gOffset .30
	gOffset .31
	gOffset .32
	gOffset .33
	gOffset .34
	gOffset .35
	gOffset .36
	gOffset .37
	gOffset .38
	gOffset .39
	gOffset .3A
	gOffset .3B
	gOffset .3C
	gOffset .3D
	gOffset .3E
	gOffset .3F
	gOffset .40
	gOffset .41
	gOffset .42
	gOffset .43
	gOffset .44
	gOffset .45
	gOffset .46
	gOffset .47
	gOffset .48
	gOffset .49
	gOffset .4A
	gOffset .4B
	gOffset .4C
	gOffset .4D
	gOffset .4E
	gOffset .4F
	gOffset .50
	gOffset .51
	gOffset .52
	gOffset .53
	gOffset .54
	gOffset .55
	gOffset .56
	gOffset .57
	gOffset .58
	gOffset .59
	gOffset .5A
	gOffset .5B
	gOffset .5C
	gOffset .5D
	gOffset .5E
	gOffset .5F
	gOffset .60
	gOffset .61
	gOffset .62
	gOffset .63
	gOffset .64
	gOffset .65
	gOffset .66
	gOffset .67
	gOffset .68
	gOffset .69
	gOffset .6A
	gOffset .6B
	gOffset .6C
	gOffset .6D
	gOffset .6E
	gOffset .6F
	gOffset .70
	gOffset .71

.00	dc.b $01
	gChannel .00_00

.01	dc.b $01
	gChannel .01_00

.02	dc.b $01
	gChannel .02_00

.03	dc.b $01
	gChannel .03_00

.04	dc.b $01
	gChannel .04_00

.05	dc.b $01
	gChannel .05_00

.06	dc.b $01
	gChannel .06_00

.07	dc.b $03
	gChannel .07_00
	gChannel .07_01
	gChannel .07_02

.08	dc.b $01
	gChannel .08_00

.09	dc.b $02
	gChannel .09_00
	gChannel .09_01

.0A	dc.b $06
	gChannel .0A_00
	gChannel .0A_01
	gChannel .0A_02
	gChannel .0A_03
	gChannel .0A_04
	gChannel .0A_05

.0B	dc.b $01
	gChannel .0B_00

.0C	dc.b $01
	gChannel .0C_00

.0D	dc.b $01
	gChannel .0D_00

.0E	dc.b $01
	gChannel .0E_00

.0F	dc.b $06
	gChannel .0F_00
	gChannel .0F_01
	gChannel .0F_02
	gChannel .0F_03
	gChannel .0F_04
	gChannel .0F_05

.10	dc.b $06
	gChannel .10_00
	gChannel .10_01
	gChannel .10_02
	gChannel .10_03
	gChannel .10_04
	gChannel .10_05

.11	dc.b $06
	gChannel .11_00
	gChannel .11_01
	gChannel .11_02
	gChannel .11_03
	gChannel .11_04
	gChannel .11_05

.12	dc.b $03
	gChannel .12_00
	gChannel .12_01
	gChannel .12_02

.13	dc.b $05
	gChannel .13_00
	gChannel .13_01
	gChannel .13_02
	gChannel .13_03
	gChannel .13_04

.14	dc.b $0A
	gChannel .14_00
	gChannel .14_01
	gChannel .14_02
	gChannel .14_03
	gChannel .14_04
	gChannel .14_05
	gChannel .14_06
	gChannel .14_07
	gChannel .14_08
	gChannel .14_09

.15	dc.b $0A
	gChannel .15_00
	gChannel .15_01
	gChannel .15_02
	gChannel .15_03
	gChannel .15_04
	gChannel .15_05
	gChannel .15_06
	gChannel .15_07
	gChannel .15_08
	gChannel .15_09

.16	dc.b $06
	gChannel .16_00
	gChannel .16_01
	gChannel .16_02
	gChannel .16_03
	gChannel .16_04
	gChannel .16_05

.17	dc.b $01
	gChannel .17_00

.18	dc.b $01
	gChannel .18_00

.19	dc.b $01
	gChannel .19_00

.1A	dc.b $08
	gChannel .1A_00
	gChannel .1A_01
	gChannel .1A_02
	gChannel .1A_03
	gChannel .1A_04
	gChannel .1A_05
	gChannel .1A_06
	gChannel .1A_07

.1B	dc.b $08
	gChannel .1B_00
	gChannel .1B_01
	gChannel .1B_02
	gChannel .1B_03
	gChannel .1B_04
	gChannel .1B_05
	gChannel .1B_06
	gChannel .1B_07

.1C	dc.b $08
	gChannel .1C_00
	gChannel .1C_01
	gChannel .1C_02
	gChannel .1C_03
	gChannel .1C_04
	gChannel .1C_05
	gChannel .1C_06
	gChannel .1C_07

.1D	dc.b $08
	gChannel .1D_00
	gChannel .1D_01
	gChannel .1D_02
	gChannel .1D_03
	gChannel .1D_04
	gChannel .1D_05
	gChannel .1D_06
	gChannel .1D_07

.1E	dc.b $08
	gChannel .1E_00
	gChannel .1E_01
	gChannel .1E_02
	gChannel .1E_03
	gChannel .1E_04
	gChannel .1E_05
	gChannel .1E_06
	gChannel .1E_07

.1F	dc.b $01
	gChannel .1F_00

.20	dc.b $01
	gChannel .20_00

.21	dc.b $01
	gChannel .21_00

.22	dc.b $01
	gChannel .22_00

.23	dc.b $08
	gChannel .23_00
	gChannel .23_01
	gChannel .23_02
	gChannel .23_03
	gChannel .23_04
	gChannel .23_05
	gChannel .23_06
	gChannel .23_07

.24	dc.b $08
	gChannel .24_00
	gChannel .24_01
	gChannel .24_02
	gChannel .24_03
	gChannel .24_04
	gChannel .24_05
	gChannel .24_06
	gChannel .24_07

.25	dc.b $08
	gChannel .25_00
	gChannel .25_01
	gChannel .25_02
	gChannel .25_03
	gChannel .25_04
	gChannel .25_05
	gChannel .25_06
	gChannel .25_07

.26	dc.b $09
	gChannel .26_00
	gChannel .26_01
	gChannel .26_02
	gChannel .26_03
	gChannel .26_04
	gChannel .26_05
	gChannel .26_06
	gChannel .26_07
	gChannel .26_08

.27	dc.b $01
	gChannel .27_00

.28	dc.b $00

.29	dc.b $01
	gChannel .29_00

.2A	dc.b $03
	gChannel .2A_00
	gChannel .2A_01
	gChannel .2A_02

.2B	dc.b $01
	gChannel .2B_00

.2C	dc.b $01
	gChannel .2C_00

.2D	dc.b $01
	gChannel .2D_00

.2E	dc.b $01
	gChannel .2E_00

.2F	dc.b $01
	gChannel .2F_00

.30	dc.b $00

.31	dc.b $01
	gChannel .31_00

.32	dc.b $07
	gChannel .32_00
	gChannel .32_01
	gChannel .32_02
	gChannel .32_03
	gChannel .32_04
	gChannel .32_05
	gChannel .32_06

.33	dc.b $07
	gChannel .33_00
	gChannel .33_01
	gChannel .33_02
	gChannel .33_03
	gChannel .33_04
	gChannel .33_05
	gChannel .33_06

.34	dc.b $07
	gChannel .34_00
	gChannel .34_01
	gChannel .34_02
	gChannel .34_03
	gChannel .34_04
	gChannel .34_05
	gChannel .34_06

.35	dc.b $07
	gChannel .35_00
	gChannel .35_01
	gChannel .35_02
	gChannel .35_03
	gChannel .35_04
	gChannel .35_05
	gChannel .35_06

.36	dc.b $07
	gChannel .36_00
	gChannel .36_01
	gChannel .36_02
	gChannel .36_03
	gChannel .36_04
	gChannel .36_05
	gChannel .36_06

.37	dc.b $02
	gChannel .37_00
	gChannel .37_01

.38	dc.b $01
	gChannel .38_00

.39	dc.b $01
	gChannel .39_00

.3A	dc.b $01
	gChannel .3A_00

.3B	dc.b $01
	gChannel .3B_00

.3C	dc.b $01
	gChannel .3C_00

.3D	dc.b $01
	gChannel .3D_00

.3E	dc.b $01
	gChannel .3E_00

.3F	dc.b $01
	gChannel .3F_00

.40	dc.b $01
	gChannel .40_00

.41	dc.b $01
	gChannel .41_00

.42	dc.b $01
	gChannel .42_00

.43	dc.b $01
	gChannel .43_00

.44	dc.b $01
	gChannel .44_00

.45	dc.b $01
	gChannel .45_00

.46	dc.b $01
	gChannel .46_00

.47	dc.b $01
	gChannel .47_00

.48	dc.b $02
	gChannel .48_00
	gChannel .48_01

.49	dc.b $07
	gChannel .49_00
	gChannel .49_01
	gChannel .49_02
	gChannel .49_03
	gChannel .49_04
	gChannel .49_05
	gChannel .49_06

.4A	dc.b $07
	gChannel .4A_00
	gChannel .4A_01
	gChannel .4A_02
	gChannel .4A_03
	gChannel .4A_04
	gChannel .4A_05
	gChannel .4A_06

.4B	dc.b $01
	gChannel .4B_00

.4C	dc.b $01
	gChannel .4C_00

.4D	dc.b $02
	gChannel .4D_00
	gChannel .4D_01

.4E	dc.b $01
	gChannel .4E_00

.4F	dc.b $01
	gChannel .4F_00

.50	dc.b $02
	gChannel .50_00
	gChannel .50_01

.51	dc.b $01
	gChannel .51_00

.52	dc.b $07
	gChannel .52_00
	gChannel .52_01
	gChannel .52_02
	gChannel .52_03
	gChannel .52_04
	gChannel .52_05
	gChannel .52_06

.53	dc.b $01
	gChannel .53_00

.54	dc.b $0A
	gChannel .54_00
	gChannel .54_01
	gChannel .54_02
	gChannel .54_03
	gChannel .54_04
	gChannel .54_05
	gChannel .54_06
	gChannel .54_07
	gChannel .54_08
	gChannel .54_09

.55	dc.b $05
	gChannel .55_00
	gChannel .55_01
	gChannel .55_02
	gChannel .55_03
	gChannel .55_04

.56	dc.b $05
	gChannel .56_00
	gChannel .56_01
	gChannel .56_02
	gChannel .56_03
	gChannel .56_04

.57	dc.b $00

.58	dc.b $00

.59	dc.b $00

.5A	dc.b $01
	gChannel .5A_00

.5B	dc.b $01
	gChannel .5B_00

.5C	dc.b $01
	gChannel .5C_00

.5D	dc.b $01
	gChannel .5D_00

.5E	dc.b $01
	gChannel .5E_00

.5F	dc.b $01
	gChannel .5F_00

.60	dc.b $01
	gChannel .60_00

.61	dc.b $01
	gChannel .61_00

.62	dc.b $01
	gChannel .62_00

.63	dc.b $01
	gChannel .63_00

.64	dc.b $01
	gChannel .64_00

.65	dc.b $01
	gChannel .65_00

.66	dc.b $01
	gChannel .66_00

.67	dc.b $01
	gChannel .67_00

.68	dc.b $01
	gChannel .68_00

.69	dc.b $01
	gChannel .69_00

.6A	dc.b $01
	gChannel .6A_00

.6B	dc.b $01
	gChannel .6B_00

.6C	dc.b $01
	gChannel .6C_00

.6D	dc.b $03
	gChannel .6D_00
	gChannel .6D_01
	gChannel .6D_02

.6E	dc.b $01
	gChannel .6E_00

.6F	dc.b $00

.70	dc.b $01
	gChannel .70_00

.71	dc.b $01
	gChannel .71_00

.00_00	dc.b $C0
	gsPrio		$4B
	gSFX
	gsPatch		$00
	dc.b $98, $D8, nB3
	gStop

.01_00	dc.b $C0
	gsPrio		$4B
	gSFX
	gsPatch		$00
	gsSampleRate	$06
	dc.b $98, $D8, nB3
	gStop

.02_00	dc.b $C0
	gSFX
	gStop

.03_00	dc.b $C0
	gsPrio		$4B
	gSFX
	gsPatch		$31
	dc.b $87, $C7, nB6
	gStop

.04_00	dc.b $C0
	gsPrio		$7E
	gSFX
	gsPatch		$32
	dc.b $87, $C7, nE5
	gStop

.05_00	dc.b $C0
	gsPrio		$73
	gSFX
	gsPatch		$00
	gsSampleRate	$06
	dc.b $98, $D8, nC4
	gStop

.06_00	dc.b $C0
	gsPrio		$7F
	gSFX
	gsPatch		$32
	dc.b $87, $C7, nB5
	gStop

.07_00	dc.b $C0
	gsPrio		$32
	gSFX
	gsPatch		$33
	dc.b $8C, $CC, nE1
	gStop

.07_01	dc.b $C0
	gsVolume	$0B
	gsPrio		$4B
	gSFX
	gsPatch		$03
	dc.b $8A, $CA, nB0
	gStop

.07_02	dc.b $C0
	gsPrio		$7E
	gSFX
	gsPatch		$00
	dc.b $98, $D8, nE6
	gStop

.08_00	dc.b $C0
	gsPrio		$32
	gSFX
	gsPatch		$33
	dc.b $8C, $CC, nAb1
	gStop

.09_00	dc.b $C0
	gsPrio		$4B
	gSFX
	gsPatch		$34
	dc.b $98, $D8, nB0
	gStop

.09_01	dc.b $C0
	gsPrio		$4B
	gSFX
	gsPatch		$62
	dc.b $88, $C8, nFs4
	gStop

.0A_00	dc.b $C0
	gsTempo		130
	dc.b $C1, $E0
	gsPatch		$0B
	dc.b $C0
	gPitBend	$0100
	dc.b $81, $B7, $C1, nA4
	gPitBend	$FF11
	gPitBend	$FF14
	gPitBend	$FF27
	dc.b $C0
	gPitBend	$FF63
	dc.b $C2
	gPitBend	$FF8F
	dc.b $C0
	gPitBend	$FFCF
	dc.b $C1, $EE
	gPitBend	$0000
	dc.b $C1
	gPitBend	$FF99
	dc.b $C0
	gPitBend	$FF68
	dc.b $C2
	gPitBend	$FF4C
	dc.b $C0
	gPitBend	$FF41
	dc.b $C1
	gPitBend	$0000
	dc.b $8B, $CC, nAb4, nA4, nBb4, nA4, nF4, nCs4
	dc.b $81, $9F, $C1, $DF, nD4
	gStop

.0A_01	dc.b $C1, $E0
	gNop
	dc.b $C0
	gsPatch		$25
	gPitBend	$0100
	dc.b $81, $B7, $C1, nA4
	gPitBend	$FF11
	gPitBend	$FF14
	gPitBend	$FF27
	dc.b $C0
	gPitBend	$FF63
	dc.b $C2
	gPitBend	$FF8F
	dc.b $C0
	gPitBend	$FFCF
	dc.b $C1, $EE
	gPitBend	$0000
	dc.b $C1
	gPitBend	$FF99
	dc.b $C0
	gPitBend	$FF68
	dc.b $C2
	gPitBend	$FF4C
	dc.b $C0
	gPitBend	$FF41
	dc.b $C1
	gPitBend	$0000
	dc.b $8B, $CC, nAb4, nA4, nBb4, nA4, nF4, nCs4
	dc.b $81, $9F, $C1, $DF, nD4
	gStop

.0A_02	dc.b $C1, $E0
	gNop
	dc.b $C0
	gsPatch		$30
	gPitBend	$0100
	dc.b $81, $B7, $C1, nA3
	gPitBend	$FF11
	gPitBend	$FF14
	gPitBend	$FF27
	dc.b $C0
	gPitBend	$FF63
	dc.b $C2
	gPitBend	$FF8F
	dc.b $C0
	gPitBend	$FFCF
	dc.b $C1, $EE
	gPitBend	$0000
	dc.b $C1
	gPitBend	$FF99
	dc.b $C0
	gPitBend	$FF68
	dc.b $C2
	gPitBend	$FF4C
	dc.b $C0
	gPitBend	$FF41
	dc.b $C1
	gPitBend	$0000
	dc.b $8B, $CC, nAb3, nA3, nBb3, nA3, nF3, nCs3
	dc.b $81, $9F, $C1, $DF, nD3
	gStop

.0A_03	dc.b $C0
	gsPatch		$22
	dc.b $90, $D8, nD2, $88, $CC, nA2, nA2, $90
	dc.b $D8, nA1, nA2, nD2, $88, $CC, nA2, nA2
	dc.b $90, $D8, nA1, nA2, nD2, $88, $CC, nA2
	dc.b nA2, $90, $D8, nA1, nA2, nD2, $88, $CC
	dc.b nA2, nA2, $90, $D8, nA1, nCs2, $D0, nD2
	gStop

.0A_04	dc.b $C0
	gsPatch		$22
	dc.b $90, $D8, nD3, $88, $CC, nA3, nA3, $90
	dc.b $D8, nA2, nA3, nD3, $88, $CC, nA3, nA3
	dc.b $90, $D8, nA2, nA3, nD3, $88, $CC, nA3
	dc.b nA3, $90, $D8, nA2, nA3, nD3, $88, $CC
	dc.b nA3, nA3, $90, $D8, nA2, nCs3, $D0, nD3
	gStop

.0A_05	dc.b $D8
	gNop
	dc.b $C0
	gsPatch		$35
	dc.b $84, $C1, nBb7, $EF, nBb7, $C1, nBb7, $EF
	dc.b nBb7, $C1, nBb7, $EF, nBb7, $C1, nBb7, $EF
	dc.b nBb7, $C1, nBb7, $EF, nBb7, $C1, nBb7, $EF
	dc.b nBb7, $C1, nBb7, $EF, nBb7, $C1, nBb7, $C4
	dc.b nBb7
	gStop

.0B_00	dc.b $C0
	gsPrio		$78
	gSFX
	gsPatch		$0E
	dc.b $83, nB6, $C4, nFs6, nB5, $86, $C0, nB6
	dc.b $C6, nFs6
	gStop

.0C_00	dc.b $C0
	gsPrio		$78
	gSFX
	gsPatch		$0E
	dc.b $83, nC7, $C4, nG6, nC6, $86, $C0, nC7
	dc.b $C6, nG6
	gStop

.0D_00	dc.b $C0
	gsPrio		$7A
	gSFX
	gsPatch		$0E
	dc.b $83, nCs7, $C4, nAb6, nCs6, $86, $C0, nCs7
	dc.b $C6, nAb6
	gStop

.0E_00	dc.b $C0
	gsPrio		$7D
	gSFX
	gsPatch		$00
	dc.b $98, $D8, nCs4
	gStop

.0F_00	dc.b $C0
	gsVolume	$09
	gsPrio		$12
	gsTempo		97
	gsPatch		$07
	dc.b $85, $C6, nAb5, nEb5, nAb5, $8B, $CC, nB5
	dc.b nBb5, $85, $C6, nFs5, nAb5, nEb5, nAb5, nB5
	dc.b nBb5, nAb5, nFs5, nAb5, nE5, nB4, nE5, $8B
	dc.b $CC, nB5, nBb5, $85, $C6, nFs5, nAb5, nB4
	dc.b nE5, nB5, nBb5, nAb5, nE5, nEb5, nCs5, nAb4
	dc.b nCs5, $8B, $CC, nE5, nEb5, $85, $C6, nCs5
	dc.b nEb5, nB4, nEb5, nBb4, nCs5, nAb4, nBb4, nB4
	dc.b nCs5, nAb4, nCs5, $8B, $CC, nE5, nEb5, $85
	dc.b $C6, nCs5, nEb5, nBb4, nEb5, nG5, nB5, nBb5
	dc.b $8B, $C6, $CC, nAb5, $85, $C6, nAb5, nEb5
	dc.b nAb5, $8B, $CC, nB5, nBb5, $85, $C6, nFs5
	dc.b nAb5, nEb5, nAb5, nB5, nBb5, nAb5, nFs5, nAb5
	dc.b nE5, nB4, nE5, $8B, $CC, nB5, nBb5, $85
	dc.b $C6, nFs5, nAb5, nB4, nE5, nB5, nBb5, nAb5
	dc.b nE5, nEb5, nCs5, nAb4, nCs5, $8B, $CC, nE5
	dc.b nEb5, $85, $C6, nCs5, nEb5, nB4, nEb5, nBb4
	dc.b nCs5, nAb4, nBb4, nB4, nCs5, nAb4, nCs5, $8B
	dc.b $CC, nE5, nEb5, $85, $C6, nCs5, nEb5, nBb4
	dc.b nEb5, nG5, nB5, nBb5, nAb5, nBb5, nAb5, nEb5
	dc.b nAb5, $8B, $CC, nB5, nBb5, $85, $C6, nFs5
	dc.b nAb5, nEb5, nAb5, nB5, nBb5, nAb5, nFs5, nAb5
	dc.b nE5, nB4, nE5, $8B, $CC, nB5, nBb5, $85
	dc.b $C6, nFs5, nAb5, nB4, nE5, nB5, nBb5, nAb5
	dc.b nE5, nEb5, nCs5, nAb4, nCs5, $8B, $CC, nE5
	dc.b nEb5, $85, $C6, nCs5, nEb5, nB4, nEb5, nBb4
	dc.b nCs5, nAb4, nBb4, nB4, nCs5, nAb4, nCs5, $8B
	dc.b $CC, nE5, nEb5, $85, $C6, nCs5, nEb5, nBb4
	dc.b nEb5, nG5, nB5, nBb5, nAb5, nBb5, $91, $C0
	dc.b nAb5, $D2, nE5, $85, $C0, nBb5, $C6, nFs5
	dc.b $91, $C0, nB5, $D2, nAb5, $97, $C0, nBb5
	dc.b $D8, nG5, $85, $C0, nAb5, $C6, nE5, $97
	dc.b $C0, nG5, $D8, nEb5, $C0, nEb5, $D8, nAb5
	dc.b $C0, nG5, $D8, nBb5, $C0, nAb5, $D8, nB5
	dc.b $91, $C0, nAb5, $97, $D2, nEb5, $85, $C6
	dc.b nFs5, $97, $C0, nCs5, $D8, nE5, $91, $C0
	dc.b nAb5, $D2, nE5, $9D, $C0, nG5, $DE, nEb5
	dc.b $8B, $C0, nF5, $CC, nAb5, $C0, nG5, $CC
	dc.b nBb5, $91, $C0, nB5, $D2, nAb5, $C0, nBb5
	dc.b $D2, nG5, $8B, $C0, nAb5, $85, $C6, nEb5
	dc.b nEb5, $8B, nB4, nEb5, nAb5, nB5, nEb6, nB5
	dc.b nAb5, $85, nEb5, nCs5, $C0, nE5, $C6, nCs5
	dc.b $C0, nFs5, $C6, nEb5, $8B, $C0, nAb5, $CC
	dc.b nE5, $85, $C0, nFs5, $C6, nEb5, $C0, nE5
	dc.b $C6, nCs5, $97, $C0, nBb4, $D8, nEb5, $85
	dc.b $C0, nBb4, $C6, nEb5, $8B, $C0, nF5, $CC
	dc.b nCs5, $C0, nG5, $CC, nEb5, $91, $C0, nAb5
	dc.b $D2, nB4, $C0, nBb5, $D2, nCs5, $9D, $C0
	dc.b nB5, $DE, nEb5, $85, $C0, nBb5, $C6, nCs5
	dc.b $C0, nAb5, $C6, nEb5, $C0, nFs5, $C6, nCs5
	dc.b $C0, nE5, $C6, nCs5, $C0, nEb5, $C6, nB4
	dc.b $C0, nD5, $C6, nB4, $C0, nEb5, $C6, nC5
	dc.b $C0, nF5, $C6, nD5, $8B, $C0, nAb5, $CC
	dc.b nF5, $85, $C0, nF5, $C6, nD5, $C0, nAb5
	dc.b $C6, nF5, $8B, $C0, nB5, $CC, nAb5, $85
	dc.b $C0, nAb5, $C6, nF5, $C0, nB5, $C6, nAb5
	dc.b $8B, $C0, nD6, $CC, nB5, $85, $C0, nB5
	dc.b $C6, nAb5, $C0, nAb5, $C6, nF5, $C0, nE5
	dc.b $C6, nCs5, $C0, nEb5, $C6, nBb4, $91, $C0
	dc.b nBb5, $85, $C6, nEb6, nCs6, nEb6, $91, $C0
	dc.b nG5, $85, $C6, nB5, nEb6, nB5, $9D, $C0
	dc.b nG5, $8B, $CC, nBb5, $85, $C6, nEb6, nB5
	dc.b nBb5, $8B, $C0, nE5, $CC, nAb5, $C0, nEb5
	dc.b $CB, nG5
	gStop

.0F_01	dc.b $C0
	gsVolume	$09
	gsPrio		$0A
	gsPatch		$09
	dc.b $85, $C6, nAb5, nEb6, nCs6, nEb6, nB5, nEb6
	dc.b nBb5, nEb6, nAb5, nEb6, nFs5, nEb6, nE5, nEb6
	dc.b nEb5, nEb6, nE5, nB5, nBb5, nB5, nAb5, nB5
	dc.b nFs5, nB5, nE5, nB5, nEb5, nB5, nCs5, nB5
	dc.b nB4, nB5, nCs5, nAb5, nFs5, nAb5, nE5, nAb5
	dc.b nEb5, nCs5, nEb5, nBb5, nAb5, nBb5, nFs5, nBb5
	dc.b nE5, nEb5, nE5, nB5, nBb5, nB5, nAb5, nB5
	dc.b nFs5, nE5, nEb5, nBb5, nAb5, nBb5, nG5, nBb5
	dc.b nE5, nEb5, nAb5, nEb6, nCs6, nEb6, nB5, nEb6
	dc.b nBb5, nEb6, nAb5, nEb6, nFs5, nEb6, nE5, nEb6
	dc.b nEb5, nEb6, nE5, nB5, nBb5, nB5, nAb5, nB5
	dc.b nFs5, nB5, nE5, nB5, nEb5, nB5, nCs5, nB5
	dc.b nB4, nB5, nCs5, nAb5, nFs5, nAb5, nE5, nAb5
	dc.b nEb5, nCs5, nEb5, nBb5, nAb5, nBb5, nFs5, nBb5
	dc.b nE5, nEb5, nE5, nB5, nBb5, nB5, nAb5, nB5
	dc.b nFs5, nE5, nEb5, nBb5, nAb5, nBb5, nG5, nBb5
	dc.b nE5, nEb5, nAb5, nEb6, nCs6, nEb6, nB5, nEb6
	dc.b nBb5, nEb6, nAb5, nEb6, nFs5, nEb6, nE5, nEb6
	dc.b nEb5, nEb6, nE5, nB5, nBb5, nB5, nAb5, nB5
	dc.b nFs5, nB5, nE5, nB5, nEb5, nB5, nCs5, nB5
	dc.b nB4, nB5, nCs5, nAb5, nFs5, nAb5, nE5, nAb5
	dc.b nEb5, nCs5, nEb5, nBb5, nAb5, nBb5, nFs5, nBb5
	dc.b nE5, nEb5, nE5, nB5, nBb5, nB5, nAb5, nB5
	dc.b nFs5, nE5, nEb5, nBb5, nAb5, nBb5, nG5, nBb5
	dc.b nE5, nEb5, nAb5, nEb6, nCs6, nEb6, nB5, nEb6
	dc.b nBb5, nEb6, nAb5, nEb6, nFs5, nEb6, nE5, nEb6
	dc.b nEb5, nEb6, nE5, nB5, nBb5, nB5, nAb5, nB5
	dc.b nFs5, nB5, nE5, nB5, nEb5, nB5, nCs5, nB5
	dc.b nB4, nB5, nCs5, nAb5, nFs5, nAb5, nE5, nAb5
	dc.b nEb5, nCs5, nEb5, nBb5, nAb5, nBb5, nFs5, nBb5
	dc.b nE5, nEb5, nE5, nB5, nBb5, nB5, nAb5, nB5
	dc.b nFs5, nE5, nEb5, nBb5, nAb5, nBb5, nG5, nBb5
	dc.b nE5, nEb5, nE5, nB5, nBb5, nB5, nAb5, nB5
	dc.b nFs5, nE5, nEb5, nBb5, nAb5, nBb5, nG5, nBb5
	dc.b nE5, nEb5, nAb5, nEb6, nCs6, nEb6, nBb5, nEb6
	dc.b nCs6, nEb6, nB5, nEb6, nCs6, nEb6, nB5, nEb6
	dc.b nBb5, nEb6, nCs5, nAb5, nFs5, nAb5, nE5, nAb5
	dc.b nEb5, nCs5, nEb5, nBb5, nG5, nBb5, nF5, nBb5
	dc.b nE5, nEb5, nAb5, nEb6, nCs6, nEb6, nBb5, nEb6
	dc.b nCs6, nEb6, nB5, nEb6, nBb5, nEb6, nAb5, nEb6
	dc.b nE5, nEb5, nCs5, nAb5, nFs5, nAb5, nE5, nAb5
	dc.b nEb5, nCs5, nEb5, nBb5, nG5, nBb5, nF5, nBb5
	dc.b nE5, nEb5, nB5, nEb6, nB5, nBb5, nEb6, nBb5
	dc.b nAb5, nB5, nEb6, nB5, nBb5, nB5, nAb5, nFs5
	dc.b nE5, nEb5, nD5, nF5, nAb5, nB5, nD6, nB5
	dc.b nAb5, nF5, nAb5, nB5, nD6, nF6, nAb6, nF6
	dc.b nD6, $CC, nB5, $C0, nEb5, $C6, nEb6, nCs6
	dc.b nEb6, nB5, nEb6, nBb5, nEb6, nAb5, nEb6, nFs5
	dc.b nEb6, nE5, nEb6, nEb5, nEb6, $C0
	gStartSeq	$10
	gStop

.0F_02	dc.b $C0
	gsVolume	$09
	gsPrio		$05
	gsPatch		$37
	dc.b $81, $87, $C1, $C8, nAb2, $97, $D8, nFs2
	dc.b $81, $87, $C1, $C8, nE2, $97, $D8, nEb2
	dc.b $AF, $F0, nCs2, nEb2, nE2, nEb2, $81, $87
	dc.b $C1, $C8, nAb2, $97, $D8, nFs2, $81, $87
	dc.b $C1, $C8, nE2, $97, $D8, nEb2, $AF, $F0
	dc.b nCs2, nEb2, nE2, nEb2, $81, $87, $C1, $C8
	dc.b nAb2, $97, $D8, nFs2, $81, $87, $C1, $C8
	dc.b nE2, $97, $D8, nEb2, $AF, $F0, nCs2, nEb2
	dc.b nE2, nEb2, $81, $87, $C1, $C8, nAb2, $97
	dc.b $D8, nFs2, $81, $87, $C1, $C8, nE2, $97
	dc.b $D8, nEb2, $AF, $F0, nCs2, nEb2, nE2, $EF
	dc.b nEb2
	gStop

.0F_03	dc.b $C6, $C0
	gNop
	dc.b $C0
	gsVolume	$09
	gsPrio		$14
	gsPatch		$36
	dc.b $85, $C6, nFs3, nAb3, nAb3, $CC, nAb3, $C6
	dc.b nAb3, nFs3, nEb3, nFs3, nAb3, $CC, nB3, $8B
	dc.b nAb3, $85, $C6, nFs3, nEb3, nE3, nFs3, nAb3
	dc.b $CC, nAb3, $C6, nAb3, nE3, nB2, nCs4, nE3
	dc.b nB3, nE3, nBb3, nAb3, nE3, nEb3, nB2, nCs3
	dc.b nCs3, $CC, nCs3, $C6, nCs3, nB2, nAb2, nB2
	dc.b nCs3, $CC, nEb3, $8B, nEb3, $85, $C6, nB2
	dc.b nCs3, nEb3, nE3, nE3, $CC, nE3, $C6, nE3
	dc.b nFs3, nE3, nCs3, nEb3, nB2, nCs3, nBb2, nB2
	dc.b nCs3, nEb3, nFs3, nAb3, nAb3, $CC, nAb3, $C6
	dc.b nAb3, nFs3, nEb3, nFs3, nAb3, $CC, nB3, $8B
	dc.b nAb3, $85, $C6, nFs3, nEb3, nE3, nFs3, nAb3
	dc.b $CC, nAb3, $C6, nAb3, nE3, nB2, nCs4, nE3
	dc.b nB3, nE3, nBb3, nAb3, nE3, nEb3, nB2, nCs3
	dc.b nCs3, $CC, nCs3, $C6, nCs3, nB2, nAb2, nB2
	dc.b nCs3, $CC, nEb3, $8B, nEb3, $85, $C6, nB2
	dc.b nCs3, nEb3, nE3, nE3, $CC, nE3, $C6, nE3
	dc.b nFs3, nE3, nCs3, nEb3, nB2, nCs3, nBb2, nB2
	dc.b nCs3, nEb3, nFs3, nAb3, nB3, $CC, nBb3, $C6
	dc.b nAb3, nFs3, nEb3, nFs3, nAb3, nB3, nEb4, $C0
	gPitBend	$0000
	dc.b $C2, nCs4
	gPitBend	$0200
	gPitBend	$0000
	dc.b $C6, nB3, nBb3, nFs3, nE3, nFs3, nAb3, $CC
	dc.b nB3, $C6, nCs4, nEb4, nFs4, nE4, nAb3, nEb4
	dc.b nFs3, nCs4, nE3, nB3, nEb3, nE3, nFs3, nAb3
	dc.b $CC, nAb3, $C6, nAb3, nE3, nB2, nEb3, nE3
	dc.b $CC, nFs3, $8B, nFs3, $85, $C6, nE3, nFs3
	dc.b nFs3, nAb3, nAb3, $CC, nAb3, $C6, nAb3, nBb3
	dc.b nB3, nCs4, nEb4, nB3, nCs4, nBb3, nB3, nAb3
	dc.b nFs3, nE3, nFs3, nAb3, nBb3, nB3, nCs4, nB3
	dc.b $97, $D8, nBb3, $85, $C6, nAb3, nG3, nAb3
	dc.b $8B, $CC, nBb3, $85, $C6, nB3, nBb3, nB3
	dc.b $8B, $CC, nCs4, $85, $C6, nB3, nCs4, $8B
	dc.b $CC, nEb4, $C0
	gPitBend	$0000
	dc.b $85, $C2, nCs4
	gPitBend	$0200
	gPitBend	$0000
	dc.b $C6, nB3, nBb3, nB3, nCs4, nEb4, nFs4, nE4
	dc.b nFs4, nAb4, nBb4, nB4, nCs5, nB4, $97, $D8
	dc.b nBb4, $C0
	gPitBend	$0000
	dc.b $85, $C2, nAb4
	gPitBend	$0200
	gPitBend	$0000
	dc.b $C6, nG4, nE4, nEb4, nCs4, nB3, nBb3, nAb3
	dc.b $C0
	gPitBend	$0000
	dc.b $C2, nBb3
	gPitBend	$0100
	gPitBend	$0000
	dc.b $C6, nAb3, nG3, $A3, $E4, nAb3, $85, $C6
	dc.b nB2, nCs3, nEb3, nFs3, $9D, $DE, nE3, $85
	dc.b $C6, nFs3, nE3, $97, $D8, nEb3, $C0
	gPitBend	$0000
	dc.b $85, $C2, nCs3
	gPitBend	$0200
	gPitBend	$0000
	dc.b $8B, $CC, nB2, nBb2, $85, $D2, nB2, nBb2
	dc.b $9D, $DE, nAb2, $85, $C6, nFs2, $8B, $CC
	dc.b nE2, nEb2, $81, $8D, $C1, $CE, nD2, $85
	dc.b $C6, nBb1, nD2, $91, $D2, nEb2, $8B, $CC
	dc.b nEb2, nEb2, nEb2, $85, $C6, nEb2, nEb2, nEb2
	dc.b nEb2, nEb2, nEb2, nEb2, $C5, nEb2
	gStop

.0F_04	dc.b $C6, $C0
	gNop
	dc.b $C0
	gsVolume	$09
	gsPrio		$07
	gsPatch		$13
	dc.b $85, $C6, nAb2, nAb2, nAb2, nAb2, nAb2, nAb2
	dc.b nAb2, nAb2, nAb2, nAb2, nAb2, nAb2, nFs2, nFs2
	dc.b nFs2, nFs2, nE2, nE2, nE2, nE2, nE2, nE2
	dc.b nE2, nE2, nE2, nE2, nE2, nE2, nEb2, nEb2
	dc.b nEb2, nEb2, nCs2, nCs2, nCs2, nCs2, nCs2, nCs2
	dc.b nCs2, nCs2, nEb2, nEb2, nEb2, nEb2, nEb2, nEb2
	dc.b nEb2, nEb2, nE2, nE2, nE2, nE2, nE2, nE2
	dc.b nE2, nE2, nEb2, nEb2, nEb2, nEb2, nEb2, nEb2
	dc.b nEb2, nEb2, nAb2, nAb2, nAb2, nAb2, nAb2, nAb2
	dc.b nAb2, nAb2, nAb2, nAb2, nAb2, nAb2, nFs2, nFs2
	dc.b nFs2, nFs2, nE2, nE2, nE2, nE2, nE2, nE2
	dc.b nE2, nE2, nE2, nE2, nE2, nE2, nEb2, nEb2
	dc.b nEb2, nEb2, nCs2, nCs2, nCs2, nCs2, nCs2, nCs2
	dc.b nCs2, nCs2, nEb2, nEb2, nEb2, nEb2, nEb2, nEb2
	dc.b nEb2, nEb2, nE2, nE2, nE2, nE2, nE2, nE2
	dc.b nE2, nE2, nEb2, nEb2, nEb2, nEb2, nEb2, nEb2
	dc.b nEb2, nEb2, nAb2, nAb2, nAb2, nAb2, nAb2, nAb2
	dc.b nAb2, nAb2, nAb2, nAb2, nAb2, nAb2, nFs2, nFs2
	dc.b nFs2, nFs2, nE2, nE2, nE2, nE2, nE2, nE2
	dc.b nE2, nE2, nE2, nE2, nE2, nE2, nEb2, nEb2
	dc.b nEb2, nEb2, nCs2, nCs2, nCs2, nCs2, nCs2, nCs2
	dc.b nCs2, nCs2, nEb2, nEb2, nEb2, nEb2, nEb2, nEb2
	dc.b nEb2, nEb2, nE2, nE2, nE2, nE2, nE2, nE2
	dc.b nE2, nE2, nEb2, nEb2, nEb2, nEb2, nEb2, nEb2
	dc.b nEb2, nEb2, $9D, $DE, nCs3, $85, $C6, nAb2
	dc.b nCs3, $9D, $DE, nEb3, $85, $C6, nEb3, nBb2
	dc.b $8B, $CC, nEb2, $97, $D8, nAb2, nBb2, nB2
	dc.b $91, $D2, nAb2, $85, $C6, nFs2, $91, $D2
	dc.b nE2, $85, $C6, nB2, $91, $D2, nE3, $85
	dc.b $C6, nE2, $91, $D2, nEb2, $85, $C6, nBb2
	dc.b $91, $D2, nEb3, $85, $C6, nEb2, nAb2, $8B
	dc.b $CC, nAb2, $85, $C6, nEb2, nBb2, $8B, $CC
	dc.b nBb2, $85, $C6, nEb2, nB2, $8B, $CC, nB2
	dc.b $85, $C6, nEb2, nEb3, $8B, $CC, nEb3, $85
	dc.b $C6, nAb2, $9D, $DE, nCs3, $85, $C6, nAb2
	dc.b nCs3, $9D, $DE, nEb3, $85, $C6, nEb3, nBb2
	dc.b $8B, $CC, nEb2, $91, $D2, nAb2, nBb2, $8B
	dc.b $CC, nB2, $91, $D2, nAb3, $85, $C6, nEb3
	dc.b nB2, nAb2, $8B, $CC, nEb2, $91, $D2, nD2
	dc.b $85, $C6, nF2, $91, $D2, nAb2, $85, $C6
	dc.b nB2, $91, $D2, nD3, $85, $C6, nB2, $91
	dc.b $D2, nAb2, $85, $C6, nD2, nEb2, nEb2, nEb2
	dc.b nEb2, nEb2, nEb2, nEb2, nEb2, nEb3, nCs3, nB2
	dc.b nBb2, nAb2, nFs2, nE2, $C5, nEb2
	gStop

.0F_05	dc.b $C6, $C0
	gNop
	dc.b $C0
	gsVolume	$09
	gsPrio		$00
	dc.b $CC
	gsPatch		$1E
	dc.b $85, $D8, nG3, nG3, nG3, nG3, nG3, nG3
	dc.b nG3, nG3, nG3, nG3, nG3, nG3, nG3, nG3
	dc.b $D2, nG3, $C6, nG3, nA3, nA3, $CC, nA3
	dc.b $C6, nG3, nA3, $CC, nA3, $C6, nG3, $CC
	dc.b nA3, $C6, nA3, nG3, nA3, $CC, nA3, $C6
	dc.b nG3, $82, $C3, nA3, nA3, $85, $CC, nA3
	dc.b $C6, nG3, nA3, $CC, nA3, $C6, nG3, $CC
	dc.b nA3, $C6, nA3, nG3, nA3, $CC, nA3, $C6
	dc.b nG3, $82, $C3, nA3, nA3, $85, $CC, nA3
	dc.b $C6, nG3, nA3, $CC, nA3, $C6, nG3, $CC
	dc.b nA3, $C6, nA3, nG3, nA3, $CC, nA3, $C6
	dc.b nG3, $82, $C3, nA3, nA3, $85, $CC, nA3
	dc.b $C6, nG3, nA3, $CC, nA3, $C6, nG3, $CC
	dc.b nA3, $C6, nA3, nG3, nA3, $CC, nA3, $C6
	dc.b nG3, $82, $C3, nA3, nA3, $85, $CC, nA3
	dc.b $C6, nG3, nA3, $CC, nA3, $C6, nG3, $CC
	dc.b nA3, $C6, nA3, nG3, nA3, $CC, nA3, $C6
	dc.b nG3, $82, $C3, nA3, nA3, $85, $CC, nA3
	dc.b $C6, nG3, nA3, $CC, nA3, $C6, nG3, $CC
	dc.b nA3, $C6, nA3, nG3, nA3, $CC, nA3, $C6
	dc.b nG3, $82, $C3, nA3, nA3, $85, $CC, nA3
	dc.b $C6, nG3, nA3, $CC, nA3, $C6, nG3, $CC
	dc.b nA3, $C6, nA3, nG3, nA3, $CC, nA3, $C6
	dc.b nG3, $82, $C3, nA3, nA3, $85, $CC, nA3
	dc.b $C6, nG3, nA3, $CC, nA3, $C6, nG3, $CC
	dc.b nA3, $C6, nA3, nG3, nA3, $CC, nA3, $C6
	dc.b nG3, $82, $C3, nA3, nA3, $85, $CC, nB2
	dc.b $C6, nG3, nE3, $CC, nCs3, $C6, nG3, nB2
	dc.b nB2, nB2, nG3, nE3, $CC, nCs3, $C6, nG3
	dc.b nG3, $CC, nB2, $C6, nG3, nE3, $CC, nCs3
	dc.b $C6, nG3, nB2, nB2, nB2, nG3, nE3, $CC
	dc.b nCs3, $C6, nG3, nG3, $CC, nB2, $C6, nG3
	dc.b nE3, $CC, nCs3, $C6, nG3, nB2, nB2, nB2
	dc.b nG3, nE3, $CC, nCs3, $C6, nG3, nG3, $CC
	dc.b nB2, $C6, nG3, nE3, $CC, nCs3, $C6, nG3
	dc.b nB2, nB2, nB2, nG3, nE3, $CC, nCs3, $C6
	dc.b nG3, nG3, $CC, nB2, $C6, nG3, nE3, $CC
	dc.b nCs3, $C6, nG3, nB2, nB2, nB2, nG3, nE3
	dc.b $CC, nCs3, $C6, nG3, nG3, $CC, nB2, $C6
	dc.b nG3, nE3, $CC, nCs3, $C6, nG3, nB2, nB2
	dc.b nB2, nG3, nE3, $CC, nCs3, $C6, nG3, nG3
	dc.b $CC, nB2, $C6, nG3, nE3, $CC, nCs3, $C6
	dc.b nG3, nB2, nB2, nB2, nG3, nE3, $CC, nCs3
	dc.b $C6, nG3, nG3, $CC, nB2, $C6, nG3, nE3
	dc.b $CC, nCs3, $C6, nG3, nB2, nB2, nB2, nG3
	dc.b nE3, $CC, nCs3, $C6, nG3, $C5, nG3
	gStop

.10_00	dc.b $C0
	gsVolume	$09
	gsPrio		$0F
	gsTempo		97
	dc.b $C6, $C0
	gsPatch		$07
	dc.b $85, $C6, nAb5, nEb5, nAb5, $8B, $CC, nB5
	dc.b nBb5, $85, $C6, nFs5, nAb5, nEb5, nAb5, nB5
	dc.b nBb5, nAb5, nFs5, nAb5, nE5, nB4, nE5, $8B
	dc.b $CC, nB5, nBb5, $85, $C6, nFs5, nAb5, nB4
	dc.b nE5, nB5, nBb5, nAb5, nE5, nEb5, nCs5, nAb4
	dc.b nCs5, $8B, $CC, nE5, nEb5, $85, $C6, nCs5
	dc.b nEb5, nB4, nEb5, nBb4, nCs5, nAb4, nBb4, nB4
	dc.b nCs5, nAb4, nCs5, $8B, $CC, nE5, nEb5, $85
	dc.b $C6, nCs5, nEb5, nBb4, nEb5, nG5, nB5, nBb5
	dc.b nAb5, nBb5, nAb5, nEb5, nAb5, $8B, $CC, nB5
	dc.b nBb5, $85, $C6, nFs5, nAb5, nEb5, nAb5, nB5
	dc.b nBb5, nAb5, nFs5, nAb5, nE5, nB4, nE5, $8B
	dc.b $CC, nB5, nBb5, $85, $C6, nFs5, nAb5, nB4
	dc.b nE5, nB5, nBb5, nAb5, nE5, nEb5, nCs5, nAb4
	dc.b nCs5, $8B, $CC, nE5, nEb5, $85, $C6, nCs5
	dc.b nEb5, nB4, nEb5, nBb4, nCs5, nAb4, nBb4, nB4
	dc.b nCs5, nAb4, nCs5, $8B, $CC, nE5, nEb5, $85
	dc.b $C6, nCs5, nEb5, nBb4, nEb5, nG5, nB5, nBb5
	dc.b nAb5, nBb5, $AF, $C0, nE4, nAb4, $F0, nB4
	dc.b $C0, nFs4, nBb4, $F0, nCs5, $C0, nEb5, nB4
	dc.b $F0, nAb4, $97, $C0, nFs4, nBb4, $D8, nCs5
	dc.b $8B, $C0, nB4, nAb4, $CC, nE4, $C0, nBb4
	dc.b nFs4, $CC, nEb4, $AF, $C0, nCs4, nE4, $F0
	dc.b nAb4, $C0, nEb4, nG4, $F0, nBb4, $97, $C0
	dc.b nAb4, nB4, $D8, nEb5, $C0, nE5, nCs5, $D8
	dc.b nBb4, $C0, nB4, nEb5, $D8, nAb5, $C0, nBb4
	dc.b nFs4, $D8, nEb4, $AF, $C0, nE4, nCs5, $F0
	dc.b nAb4, $C0, nEb5, nFs4, $F0, nBb4, $97, $C0
	dc.b nEb5, nB4, $D8, nAb4, $C0, nFs4, nBb4, $D8
	dc.b nCs5, $C0, nE4, nAb4, $D8, nB4, $C0, nEb4
	dc.b nFs4, $D8, nBb4, $AF, $C0, nB4, nAb4, $F0
	dc.b nE4, $C0, nG4, nBb4, $F0, nCs5, $A9, $C0
	dc.b nEb5, $AF, nB4, $EA, nAb4, $8B, $CC, nEb5
	dc.b $85, $C6, nEb5, $8B, $C0, nCs5, $CC, nBb4
	dc.b $C0, nB4, $CC, nAb4, $C0, nBb4, $CC, nFs4
	dc.b $AF, $C0, nE4, $85, $C6, nAb4, nBb4, nB4
	dc.b nE5, nEb5, nCs5, nB4, $97, nCs5, $AF, $C0
	dc.b nBb4, $D2, nFs4, $85, $C6, nE5, $8B, $CC
	dc.b nEb5, nCs5, $85, $C0, nB4, $AF, $C6, nAb4
	dc.b $85, nCs5, nEb5, $8B, $CC, nCs5, $85, $C6
	dc.b nEb5, nFs5, $8B, nEb5, $97, $C0, nBb4, $C6
	dc.b nFs4, $85, nAb5, nBb5, nB5, $C0, nBb5, $8B
	dc.b nE4, $C6, nAb4, $85, nAb5, $C0, nEb5, $8B
	dc.b nEb4, $C6, nFs4, $85, nB4, $C0, nCs5, $AF
	dc.b nAb4, $C6, nE4, $85, nE5, nAb5, nB5, nEb6
	dc.b nCs6, nB5, $8B, nBb5, $AF, $C0, nG4, $C6
	dc.b nEb4, $85, nE6, nEb6, nCs6, $8B, $CC, nB5
	dc.b nBb5, $85, $C0, nB5, $97, nB4, $C6, nAb4
	dc.b $85, nBb5, nB5, $8B, nCs6, $97, $C0, nBb4
	dc.b $C6, nCs5, $85, nB5, nCs6, $8B, nEb6, $97
	dc.b $C0, nEb5, $C6, nB4, $85, nEb6, $8B, $CC
	dc.b nCs6, $C0, nB5, $97, nEb4, $CC, nFs4, $8B
	dc.b nBb5, $85, $C0, nAb5, $AF, nAb4, $C6, nE4
	dc.b $85, nBb5, nB5, $8B, $CC, nE6, $85, $C6
	dc.b nEb6, nB5, $8B, nCs6, $AF, $C0, nBb4, nFs4
	dc.b $C6, nEb5, $85, nCs6, nB5, $8B, $CC, nBb5
	dc.b $85, $C6, nB5, nCs6, nEb6, $C0, nB5, $97
	dc.b nAb4, nB4, $C6, nEb5, $85, nBb5, nB5, $8B
	dc.b nCs6, $97, $C0, nCs5, nBb4, $C6, nFs4, $85
	dc.b nB5, nCs6, $8B, nEb6, $97, $C0, nB4, nAb4
	dc.b $C6, nE4, $85, nAb6, nBb6, $8B, nB6, $97
	dc.b $C0, nBb4, nFs4, $C6, nEb4, $85, nAb6, nEb6
	dc.b nB5, $C0, nAb5, $AF, nE4, $C6, nAb4, $85
	dc.b nBb5, nB5, nE6, nEb6, nCs6, nB5, $8B, nBb5
	dc.b $AF, $C0, nBb4, $C6, nG4, $85, nEb5, nEb6
	dc.b nEb5, nEb6, nCs6, nB5, nBb5, $C0, nFs5, $AF
	dc.b nB4, $A9, $C6, nEb5, $85, nAb5, nAb5, $8B
	dc.b $CC, nAb5, $85, $C6, nAb5, nFs5, nEb5, $C0
	dc.b nFs5, $C6, nEb5, $C0, nAb5, $C6, nEb5, $C0
	dc.b nB5, $8B, nBb4, $CC, nCs5, $85, $C0, nAb5
	dc.b $8B, nEb5, $C6, nB4, $85, nAb5, $8B, $C0
	dc.b nBb5, nG5, $CB, nEb5
	gStop

.10_01	dc.b $C0
	gsVolume	$09
	gsPrio		$0A
	gsPatch		$09
	dc.b $85, $C6, nAb5, nEb6, nCs6, nEb6, nB5, nEb6
	dc.b nBb5, nEb6, nAb5, nEb6, nFs5, nEb6, nE5, nEb6
	dc.b nEb5, nEb6, nE5, nB5, nBb5, nB5, nAb5, nB5
	dc.b nFs5, nB5, nE5, nB5, nEb5, nB5, nCs5, nB5
	dc.b nB4, nB5, nCs5, nAb5, nFs5, nAb5, nE5, nAb5
	dc.b nEb5, nCs5, nEb5, nBb5, nAb5, nBb5, nFs5, nBb5
	dc.b nE5, nEb5, nE5, nB5, nBb5, nB5, nAb5, nB5
	dc.b nFs5, nE5, nEb5, nBb5, nAb5, nBb5, nG5, nBb5
	dc.b nE5, nEb5, nAb5, nEb6, nCs6, nEb6, nB5, nEb6
	dc.b nBb5, nEb6, nAb5, nEb6, nFs5, nEb6, nE5, nEb6
	dc.b nEb5, nEb6, nE5, nB5, nBb5, nB5, nAb5, nB5
	dc.b nFs5, nB5, nE5, nB5, nEb5, nB5, nCs5, nB5
	dc.b nB4, nB5, nCs5, nAb5, nFs5, nAb5, nE5, nAb5
	dc.b nEb5, nCs5, nEb5, nBb5, nAb5, nBb5, nFs5, nBb5
	dc.b nE5, nEb5, nE5, nB5, nBb5, nB5, nAb5, nB5
	dc.b nFs5, nE5, nEb5, nBb5, nAb5, nBb5, nG5, nBb5
	dc.b nE5, nEb5, nAb5, nEb6, nCs6, nEb6, nB5, nEb6
	dc.b nBb5, nEb6, nAb5, nEb6, nFs5, nEb6, nE5, nEb6
	dc.b nEb5, nEb6, nE5, nB5, nBb5, nB5, nAb5, nB5
	dc.b nFs5, nB5, nE5, nB5, nEb5, nB5, nCs5, nB5
	dc.b nB4, nB5, nCs5, nAb5, nFs5, nAb5, nE5, nAb5
	dc.b nEb5, nCs5, nEb5, nBb5, nAb5, nBb5, nFs5, nBb5
	dc.b nE5, nEb5, nE5, nB5, nBb5, nB5, nAb5, nB5
	dc.b nFs5, nE5, nEb5, nBb5, nAb5, nBb5, nG5, nBb5
	dc.b nE5, nEb5, nE5, nB4, nE5, nB5, nBb5, nAb5
	dc.b nFs5, nAb5, nE5, nB4, nCs6, nB4, nB5, nCs5
	dc.b nBb5, nFs5, nAb5, nEb5, nAb5, nEb6, nCs6, nB5
	dc.b nBb5, nB5, nAb5, nEb5, nEb6, nEb5, nCs6, nE5
	dc.b nB5, nEb5, nCs5, nAb4, nCs5, nAb5, nFs5, nE5
	dc.b nEb5, nE5, nEb5, nBb4, nEb6, nBb4, nCs6, nBb4
	dc.b nB5, nBb5, nAb5, nEb5, nAb5, nB5, nBb5, nEb5
	dc.b nBb5, nCs6, nB5, nEb5, nEb6, nCs6, nB5, nBb5
	dc.b nAb5, nFs5, nE5, nB4, nE5, nB5, nBb5, nAb5
	dc.b nFs5, nAb5, nFs5, nCs5, nCs6, nCs5, nB5, nBb5
	dc.b nFs5, nBb5, nAb5, nEb6, nCs6, nEb6, nB5, nEb6
	dc.b nBb5, nEb6, nAb5, nEb6, nFs5, nEb6, nE5, nEb6
	dc.b nEb5, nEb6, nCs5, nCs6, nB4, nCs6, nBb4, nCs6
	dc.b nAb4, nCs6, nG4, nBb5, nEb4, nBb5, nF4, nBb5
	dc.b nG4, nBb5, nAb4, nEb5, nCs5, nEb5, nB4, nEb5
	dc.b nBb4, nEb5, nAb5, nEb6, nCs6, nEb6, nB5, nEb6
	dc.b nBb5, nEb6, nE5, nB4, nE5, nB5, nBb5, nAb5
	dc.b nFs5, nAb5, nE5, nB4, nCs6, nB4, nB5, nCs5
	dc.b nBb5, nFs5, nAb5, nEb5, nAb5, nEb6, nCs6, nB5
	dc.b nBb5, nB5, nAb5, nEb5, nEb6, nEb5, nCs6, nE5
	dc.b nB5, nEb5, nCs5, nAb4, nCs5, nAb5, nFs5, nE5
	dc.b nEb5, nE5, nEb5, nBb4, nEb6, nBb4, nCs6, nBb4
	dc.b nB5, nBb5, nAb5, nEb5, nAb5, nB5, nBb5, nEb5
	dc.b nBb5, nCs6, nB5, nEb5, nEb6, nCs6, nB5, nBb5
	dc.b nAb5, nFs5, nE5, nB4, nE5, nB5, nBb5, nAb5
	dc.b nFs5, nAb5, nFs5, nCs5, nCs6, nCs5, nB5, nBb5
	dc.b nFs5, nBb5, nAb5, nEb6, nCs6, nEb6, nB5, nEb6
	dc.b nBb5, nEb6, nAb5, nEb6, nFs5, nEb6, nE5, nEb6
	dc.b nEb5, nEb6, nCs5, nCs6, nB4, nCs6, nBb4, nCs6
	dc.b nAb4, nCs6, nG4, nBb5, nEb4, nBb5, nF4, nBb5
	dc.b nG4, $CC, nBb5, $C0, nAb4, $C6, nEb5, nCs5
	dc.b nEb5, nB4, nEb5, nBb4, nEb5, nAb5, nEb6, nCs6
	dc.b nEb6, nB5, nEb6, nBb5, nEb6, $C0
	gStartSeq	$0F
	gStop

.10_02	dc.b $C0
	gsVolume	$09
	gsPrio		$05
	gsPatch		$37
	dc.b $81, $87, $C1, $C8, nAb2, $97, $D8, nFs2
	dc.b $81, $87, $C1, $C8, nE2, $97, $D8, nEb2
	dc.b $AF, $F0, nCs2, nEb2, nE2, nEb2, $81, $87
	dc.b $C1, $C8, nAb2, $97, $D8, nFs2, $81, $87
	dc.b $C1, $C8, nE2, $97, $D8, nEb2, $AF, $F0
	dc.b nCs2, nEb2, nE2, nEb2, $81, $87, $C1, $C8
	dc.b nAb2, $97, $D8, nFs2, $81, $87, $C1, $C8
	dc.b nE2, $97, $D8, nEb2, $AF, $F0, nCs2, nEb2
	dc.b nE2, nEb2, $81, $87, $C1, $C8, nE2, $97
	dc.b $D8, nFs2, $81, $87, $C1, $C8, nAb2, $8B
	dc.b $CC, nE2, nEb2, $AF, $F0, nCs2, nEb2, $97
	dc.b $D8, nAb2, nBb2, nB2, nEb2, $81, $87, $C1
	dc.b $C8, nE2, $97, $D8, nFs2, nAb2, nFs2, nE2
	dc.b nEb2, $AF, $F0, nCs2, nEb2, $81, $9F, $C1
	dc.b $E0, nAb2, $81, $87, $C1, $C8, nE2, $97
	dc.b $D8, nFs2, $81, $87, $C1, $C8, nAb2, $8B
	dc.b $CC, nE2, nEb2, $AF, $F0, nCs2, nEb2, $97
	dc.b $D8, nAb2, nBb2, nB2, nEb2, $AF, $F0, nE2
	dc.b nFs2, $97, $D8, nAb2, nFs2, nE2, nEb2, $AF
	dc.b $F0, nCs2, nEb2, $81, $9F, $C1, $DF, nAb2
	gStop

.10_03	dc.b $C0
	gsVolume	$09
	gsPrio		$14
	gsPatch		$36
	dc.b $85, $C6, nFs3, nAb3, nAb3, $CC, nAb3, $C6
	dc.b nAb3, nFs3, nEb3, nFs3, nAb3, $CC, nB3, $8B
	dc.b nAb3, $85, $C6, nFs3, nEb3, nE3, nFs3, nAb3
	dc.b $CC, nAb3, $C6, nAb3, nE3, nB2, nCs4, nE3
	dc.b nB3, nE3, nBb3, nAb3, nE3, nEb3, nB2, nCs3
	dc.b nCs3, $CC, nCs3, $C6, nCs3, nB2, nAb2, nB2
	dc.b nCs3, $CC, nEb3, $8B, nEb3, $85, $C6, nB2
	dc.b nCs3, nEb3, nE3, nE3, $CC, nE3, $C6, nE3
	dc.b nFs3, nE3, nCs3, nEb3, nB2, nCs3, nBb2, nB2
	dc.b nCs3, nEb3, nFs3, nAb3, nAb3, $CC, nAb3, $C6
	dc.b nAb3, nFs3, nEb3, nFs3, nAb3, $CC, nB3, $8B
	dc.b nAb3, $85, $C6, nFs3, nEb3, nE3, nFs3, nAb3
	dc.b $CC, nAb3, $C6, nAb3, nE3, nB2, nCs4, nE3
	dc.b nB3, nE3, nBb3, nAb3, nE3, nEb3, nB2, nCs3
	dc.b nCs3, $CC, nCs3, $C6, nCs3, nB2, nAb2, nB2
	dc.b nCs3, $CC, nEb3, $8B, nEb3, $85, $C6, nB2
	dc.b nCs3, nEb3, nE3, nE3, $CC, nE3, $C6, nE3
	dc.b nFs3, nE3, nCs3, nEb3, nB2, nCs3, nBb2, nB2
	dc.b nCs3, nEb3, nFs3, nAb3, nB3, $CC, nBb3, $C6
	dc.b nAb3, nFs3, nEb3, nFs3, nAb3, nB3, nEb4, $C0
	gPitBend	$0000
	dc.b $C2, nCs4
	gPitBend	$0200
	gPitBend	$0000
	dc.b $C6, nB3, nBb3, nFs3, nE3, nFs3, nAb3, $CC
	dc.b nB3, $C6, nCs4, nEb4, nFs4, nE4, nAb3, nEb4
	dc.b nFs3, nCs4, nE3, nB3, nEb3, nE3, nFs3, nAb3
	dc.b $CC, nAb3, $C6, nAb3, nE3, nB2, nEb3, nE3
	dc.b $CC, nFs3, $8B, nFs3, $85, $C6, nE3, nFs3
	dc.b nFs3, nAb3, nAb3, $CC, nAb3, $C6, nBb3, nB3
	dc.b $8B, $CC, nEb4, $85, $C6, nEb4, $8B, $CC
	dc.b nCs4, nB3, $CB, nBb3
	gStop

.10_04	dc.b $C0
	gsVolume	$09
	gsPrio		$07
	gsPatch		$13
	dc.b $85, $C6, nAb2, nAb2, nAb2, nAb2, nAb2, nAb2
	dc.b nAb2, nAb2, nAb2, nAb2, nAb2, nAb2, nFs2, nFs2
	dc.b nFs2, nFs2, nE2, nE2, nE2, nE2, nE2, nE2
	dc.b nE2, nE2, nE2, nE2, nE2, nE2, nEb2, nEb2
	dc.b nEb2, nEb2, nCs2, nCs2, nCs2, nCs2, nCs2, nCs2
	dc.b nCs2, nCs2, nEb2, nEb2, nEb2, nEb2, nEb2, nEb2
	dc.b nEb2, nEb2, nE2, nE2, nE2, nE2, nE2, nE2
	dc.b nE2, nE2, nEb2, nEb2, nEb2, nEb2, nEb2, nEb2
	dc.b nEb2, nEb2, nAb2, nAb2, nAb2, nAb2, nAb2, nAb2
	dc.b nAb2, nAb2, nAb2, nAb2, nAb2, nAb2, nFs2, nFs2
	dc.b nFs2, nFs2, nE2, nE2, nE2, nE2, nE2, nE2
	dc.b nE2, nE2, nE2, nE2, nE2, nE2, nEb2, nEb2
	dc.b nEb2, nEb2, nCs2, nCs2, nCs2, nCs2, nCs2, nCs2
	dc.b nCs2, nCs2, nEb2, nEb2, nEb2, nEb2, nEb2, nEb2
	dc.b nEb2, nEb2, nE2, nE2, nE2, nE2, nE2, nE2
	dc.b nE2, nE2, nEb2, nEb2, nEb2, nEb2, nEb2, nEb2
	dc.b nEb2, nEb2, nAb2, nAb2, nAb2, nAb2, nAb2, nAb2
	dc.b nAb2, nAb2, nAb2, nAb2, nAb2, nAb2, nFs2, nFs2
	dc.b nFs2, nFs2, nE2, nE2, nE2, nE2, nE2, nE2
	dc.b nE2, nE2, nE2, nE2, nE2, nE2, nEb2, nEb2
	dc.b nEb2, nEb2, nCs2, nCs2, nCs2, nCs2, nCs2, nCs2
	dc.b nCs2, nCs2, nEb2, nEb2, nEb2, nEb2, nEb2, nEb2
	dc.b nEb2, nEb2, nE2, nE2, nE2, nE2, nE2, nE2
	dc.b nE2, nE2, nEb2, nEb2, nEb2, nEb2, nEb2, nEb2
	dc.b nEb2, nEb2, nE2, nAb2, nB2, $8B, $CC, nE3
	dc.b $85, $C6, nB2, nAb2, $86, nE2, $97, $D8
	dc.b nE2, nFs2, $85, $C6, nFs2, nAb2, nAb2, $CC
	dc.b nAb2, $C6, nAb2, nFs2, nEb2, nFs2, nAb2, $CC
	dc.b nB2, $C6, nAb2, nFs2, nE2, nEb2, nCs2, nE2
	dc.b nAb2, $8B, $CC, nB2, $85, $C6, nAb2, nE2
	dc.b nCs2, $97, $D8, nEb2, $85, $C6, nEb2, nF2
	dc.b $8B, $CC, nG2, $85, $C6, nAb2, $8B, $CC
	dc.b nAb2, $85, $C6, nAb2, nBb2, $8B, $CC, nBb2
	dc.b $85, $C6, nBb2, nB2, $8B, $CC, nB2, $85
	dc.b $C6, nB2, nEb3, nBb2, $8B, $CC, nEb2, $85
	dc.b $C6, nE2, nAb2, nB2, $8B, $CC, nE3, $85
	dc.b $C6, nB2, nAb2, nE2, $97, $D8, nE2, nFs2
	dc.b $85, $C6, nAb2, $8B, $CC, nAb2, $85, $C6
	dc.b nAb2, nFs2, $8B, $CC, nFs2, $85, $C6, nFs2
	dc.b nE2, $8B, $CC, nE2, $85, $C6, nE2, nEb2
	dc.b $8B, $CC, nEb2, $85, $C6, nEb2, nCs2, nE2
	dc.b nAb2, $8B, $CC, nCs3, $85, $C6, nAb2, nE2
	dc.b nCs2, nEb2, nG2, nBb2, $8B, $CC, nEb3, $85
	dc.b $C6, nCs3, nB2, nBb2, nAb2, nAb2, nAb2, $CC
	dc.b nAb2, $C6, nAb2, nFs2, nEb2, nFs2, nAb2, $CC
	dc.b nB2, $C6, nAb2, nAb2, nAb2, nFs2, nE2, nE2
	dc.b nE2, nE2, nE2, nE2, nE2, nE2, nE2, nE2
	dc.b nE2, nE2, nFs2, nFs2, nFs2, nFs2, nFs2, nAb2
	dc.b nAb2, $8B, $CC, nAb2, $85, $C6, nAb2, nFs2
	dc.b nEb2, nFs2, nAb2, $CC, nB2, $C6, nAb2, nFs2
	dc.b $8B, $CC, nEb2, $85, $C6, nCs2, nCs2, nCs2
	dc.b nCs2, nCs2, nCs2, nCs2, nCs2, nEb2, nEb2, nEb2
	dc.b nEb2, nEb2, nF2, $8B, $CC, nG2, $85, $C6
	dc.b nAb2, nAb2, nAb2, nAb2, nBb2, nBb2, nBb2, nBb2
	dc.b nB2, nB2, nB2, nB2, nEb3, nBb2, $8B, $CC
	dc.b nEb2, $85, $C6, nE2, nE2, nE2, nE2, nE2
	dc.b nE2, nE2, nE2, nE2, nE2, nE2, nE2, nFs2
	dc.b nFs2, nFs2, nFs2, nAb2, nAb2, nAb2, nAb2, nFs2
	dc.b nFs2, nFs2, nFs2, nE2, nE2, nE2, nE2, nEb2
	dc.b nEb2, nEb2, nEb2, nCs2, nCs2, nCs2, nCs2, nCs2
	dc.b nCs2, nCs2, nCs2, nEb2, nEb2, nEb2, nEb2, nEb2
	dc.b nEb2, nEb2, nEb2, nFs2, nAb2, nAb2, $8B, $CC
	dc.b nAb2, $85, $C6, nAb2, nFs2, nEb2, nFs2, nAb2
	dc.b $CC, nB2, $C6, nAb2, nAb2, $8B, $CB, nEb2
	gStop

.10_05	dc.b $C0
	gsVolume	$09
	gsPrio		$00
	dc.b $CC
	gsPatch		$1E
	dc.b $85, $D8, nG3, nG3, nG3, nG3, nG3, nG3
	dc.b nG3, nG3, nG3, nG3, nG3, nG3, nG3, nG3
	dc.b $D2, nG3, $C6, nG3, nA3, nA3, $CC, nA3
	dc.b $C6, nG3, nA3, $CC, nA3, $C6, nG3, $CC
	dc.b nA3, $C6, nA3, nG3, nA3, $CC, nA3, $C6
	dc.b nG3, $82, $C3, nA3, nA3, $85, $CC, nA3
	dc.b $C6, nG3, nA3, $CC, nA3, $C6, nG3, $CC
	dc.b nA3, $C6, nA3, nG3, nA3, $CC, nA3, $C6
	dc.b nG3, $82, $C3, nA3, nA3, $85, $CC, nA3
	dc.b $C6, nG3, nA3, $CC, nA3, $C6, nG3, $CC
	dc.b nA3, $C6, nA3, nG3, nA3, $CC, nA3, $C6
	dc.b nG3, $82, $C3, nA3, nA3, $85, $CC, nA3
	dc.b $C6, nG3, nA3, $CC, nA3, $C6, nG3, $CC
	dc.b nA3, $C6, nA3, nG3, nA3, $CC, nA3, $C6
	dc.b nG3, $82, $C3, nA3, nA3, $85, $CC, nA3
	dc.b $C6, nG3, nA3, $CC, nA3, $C6, nG3, $CC
	dc.b nA3, $C6, nA3, nG3, nA3, $CC, nA3, $C6
	dc.b nG3, $82, $C3, nA3, nA3, $85, $CC, nA3
	dc.b $C6, nG3, nA3, $CC, nA3, $C6, nG3, $CC
	dc.b nA3, $C6, nA3, nG3, nA3, $CC, nA3, $C6
	dc.b nG3, $82, $C3, nA3, nA3, $85, $CC, nA3
	dc.b $C6, nG3, nA3, $CC, nA3, $C6, nG3, $CC
	dc.b nA3, $C6, nA3, nG3, nA3, $CC, nA3, $C6
	dc.b nG3, $82, $C3, nA3, nA3, $85, $CC, nA3
	dc.b $C6, nG3, nA3, $CC, nA3, $C6, nG3, $CC
	dc.b nA3, $C6, nA3, nG3, nA3, $CC, nA3, $C6
	dc.b nG3, $82, $C3, nA3, $C2, nA3
	gStop

.11_00	dc.b $C0
	gsTempo		120
	gsPatch		$59
	dc.b $8B, $CC, nE4, nE4, $91, $D3, nE5, $88
	dc.b $CC, nD5, $85, $C5, nE5, $86, $CC, nD5
	dc.b $91, $D3, nC5, $88, $CC, nB4, $85, $C5
	dc.b nC5, $8B, $CC, nB4, nA4, $85, $C6, nEb4
	dc.b nE4, nF4, nFs4, nG4, nAb4, $87, $D8, nA4
	dc.b $8A, $CA, nA3
	gStop

.11_01	dc.b $C0
	gsPatch		$68
	dc.b $87, $C7, nE3, $85, $C5, nF3, $87, $C7
	dc.b nFs3, $85, $C5, nAb3, $8C, $D8, nA3, nE3
	dc.b nF3, nE3, nA3, nB3, nA3, $CC, nA2
	gStop

.11_02	dc.b $C0
	gsTempo		120
	gsPatch		$59
	dc.b $8B, $CC, nE5, nE5, $91, $D3, nE6, $88
	dc.b $CC, nD6, $85, $C5, nE6, $86, $CC, nD6
	dc.b $91, $D3, nC6, $88, $CC, nB5, $85, $C5
	dc.b nC6, $8B, $CC, nB5, nA5, $85, $C6, nEb5
	dc.b nE5, nF5, nFs5, nG5, nAb5, $87, $D8, nA5
	dc.b $8A, $CA, nA4
	gStop

.11_03	dc.b $C0
	gsTempo		120
	gsPatch		$59
	dc.b $8B, $CC, nE3, nE3, $91, $D3, nE4, $88
	dc.b $CC, nD4, $85, $C5, nE4, $86, $CC, nD4
	dc.b $91, $D3, nC4, $88, $CC, nB3, $85, $C5
	dc.b nC4, $8B, $CC, nB3, nA3, $85, $C6, nEb3
	dc.b nE3, nF3, nFs3, nG3, nAb3, $87, $D8, nA3
	dc.b $8A, $CA, nA2
	gStop

.11_04	dc.b $C0
	gsTempo		120
	gsPatch		$59
	dc.b $8B, $CC, nE2, nE2, $91, $D3, nE3, $88
	dc.b $CC, nD3, $85, $C5, nE3, $86, $CC, nD3
	dc.b $91, $D3, nC3, $88, $CC, nB2, $85, $C5
	dc.b nC3, $8B, $CC, nB2, nA2, $85, $C6, nEb2
	dc.b nE2, nF2, nFs2, nG2, nAb2, $87, $D8, nA2
	dc.b $8A, $CA, nA1
	gStop

.11_05	dc.b $C0
	gsPatch		$49
	dc.b $87, $C7, nE4, $85, $C5, nF4, $87, $C7
	dc.b nFs4, $85, $C5, nAb4, $8C, $D8, nA4, nE4
	dc.b nF4, nE4, nA4, nB4, nC5, $CC, nA4
	gStop

.12_00	dc.b $C0
	gsTempo		85
	gsPatch		$6E
	dc.b $E4
	gsPatch		$6E
	dc.b $83, $C0, nA4, $C8, nA3, $C0, nA4, $C4
	dc.b nA3, $C0, nB4, $C8, nB3, $C0, nB4, $C4
	dc.b nB3, $C0, nCs5, $C4, nCs4, $C0, nE5, $C4
	dc.b nE4, $C0, nCs5, $C4, nCs4, $84, $C0, nA4
	dc.b $CC, nA3, $C0, nFs5, $CC, nFs4, $C0, nB4
	dc.b $C8, nB3, $83, $C0, nD5, $C4, nD4, $87
	dc.b $C0, nCs5, $CC, nCs4, $84, $C0, nA4, $C4
	dc.b nA3
	gStop

.12_01	dc.b $C1, $D4
	gsPatch		$1C
	dc.b $83, $C3, nFs4
	gStop

.12_02	dc.b $C1, $D4
	gsPatch		$1C
	dc.b $83, $C3, nFs5
	gStop

.13_00	dc.b $C0
	gsVolume	$11
	gsPrio		$7D
	gSFX
	gsPatch		$43
	dc.b $98, $D8, nB3, $C0
	gsPatch		$41
	dc.b $B0, $F0, nFs7
	gStop

.13_01	dc.b $C0
	gsVolume	$11
	gsPrio		$7D
	dc.b $C4
	gSFX
	dc.b $D4
	gsPatch		$3F
	dc.b $B0, $F0, nG6
	gStop

.13_02	dc.b $C0
	gsVolume	$11
	gsPrio		$7D
	gSFX
	dc.b $D9
	gsPatch		$3E
	dc.b $B0, $F0, nFs7
	gStop

.13_03	dc.b $C0
	gsVolume	$11
	gSFX
	dc.b $C1
	gsPrio		$7D
	dc.b $D7
	gsPatch		$3C
	dc.b $B0, $F0, nB2
	gStop

.13_04	dc.b $C0
	gsPrio		$7F
	gSFX
	dc.b $D5
	gsPatch		$44
	dc.b $88, $C8, nBb7
	gStop

.14_00	dc.b $C0
	gsPrio		$14
	gsTempo		125
	dc.b $CB, $CA
	gsPatch		$45
	dc.b $85, $C6, nCs5, $8B, $CC, nFs5, nF5, nE5
	dc.b nEb5, $85, $C1, $D4, nD5, $8B, $CC, nEb4
	dc.b $85, $C1, $C8, nD4, $87, $C7, nBb4, $84
	dc.b $C5, nBb3, $8B, $D8, nBb3, $88, $CC, nBb4
	dc.b $8B, $D3, nEb4, $84, $C5, nBb3, $87, $C7
	dc.b nFs4, $84, $C5, nFs4, $87, $C7, nFs4, $86
	dc.b $CC, nFs4, $90, $DD, nF4, $88, $CC, nBb4
	dc.b $8B, $D3, nEb4, $84, $C5, nBb3, $87, $C7
	dc.b nFs4, $84, $C5, nFs4, $87, $C7, nFs4, $90
	dc.b $E9, nFs4, $88, $CC, nCs5, $8B, $D8, nFs4
	dc.b $87, $C7, nA4, $84, $C5, nA4, $87, $C7
	dc.b nA4, $84, $C5, nA4, $C0
	gPitBend	$FF00
	dc.b $8B, nA4, $C1
	gPitBend	$FF40
	gPitBend	$FF80
	dc.b $C0
	gPitBend	$FFC0
	dc.b $C4
	gPitBend	$0000
	dc.b $C6
	gPitBend	$0000
	dc.b $87, $C7, nAb4, $90, $E4, nFs4, $84, $C5
	dc.b nBb3, $87, $CC, nBb4, $C7, nBb4, $84, $C5
	dc.b nBb3, $8B, $F0, nBb3, $88, $CC, nBb4, $8B
	dc.b $D3, nEb4, $84, $C5, nBb3, $87, $C7, nFs4
	dc.b $84, $C5, nFs4, $87, $C7, nFs4, $84, $CC
	dc.b nFs4, $90, $DD, nF4, $88, $CC, nBb4, $8B
	dc.b $D3, nEb4, $84, $C5, nEb4, $87, $C7, nFs4
	dc.b $8C, $CC, nFs4, $90, $E9, nFs4, $88, $CC
	dc.b nCs5, $8B, $D8, nFs4, $87, $C7, nA4, $84
	dc.b $C5, nA4, $87, $C7, nA4, $84, $C5, nA4
	dc.b $87, $C7, nA4, $8C, $CC, nAb4, $9C, $C1
	dc.b nFs4, $C2
	gPitBend	$0000
	gPitBend	$0200
	dc.b $C4, $E0
	gPitBend	$0000
	dc.b $94, $D5, nEb4, $9A, $DB, nCs4, $94, $D5
	dc.b nBb4, $9A, $DB, nAb4, $94, $D5, nB4, $81
	dc.b $8A, $C4, $CB, nBb4, $87, $C7, nEb4, $84
	dc.b $C5, nEb4, $87, $C7, nEb4, $84, $C5, nF4
	dc.b $8A, $CC, nFs4, $87, $C7, nEb4, $84, $C5
	dc.b nEb4, $87, $C7, nEb4, $84, $C5, nF4, $8A
	dc.b $E4, nFs4, $87, $C7, nF4, $84, $C5, nF4
	dc.b $87, $C7, nF4, $84, $C5, nF4, $8B, $CC
	dc.b nG4, $88, $C9, nA4, $8E, $C5, $E5, nBb4
	dc.b $82, $C3, nBb3, nBb3, $C0
	gPitBend	$FD00
	dc.b $8B, $C1, nBb4, $D1
	gPitBend	$0000
	dc.b $82, $C3, nBb3, nBb3, $C0
	gPitBend	$FD00
	dc.b $8B, $C1, nBb4, $D1
	gPitBend	$0000
	dc.b $82, $C3, nBb3, nBb3, $C0
	gPitBend	$FD00
	dc.b $91, $C1, nBb4, $D0
	gPitBend	$0000
	gStop

.14_01	dc.b $C0
	gsPrio		$11
	dc.b $CE, $C4
	gsPatch		$12
	dc.b $8B, $CC, nFs4, $85, $D2, nF4, $C0
	gPitBend	$FC00
	dc.b $88, $C2, nBb5, $C1
	gPitBend	$FD00
	gPitBend	$FE00
	gPitBend	$FF00
	dc.b $C5, $C5
	gPitBend	$0000
	dc.b $87, $CC, nBb3, nB3, nCs4, nD4, nEb4, nE4
	dc.b $C3, $C0, nF4, $C0
	gPitBend	$FD00
	dc.b $C1, nFs5, $C0
	gPitBend	$FD80
	dc.b $C1
	gPitBend	$FE00
	dc.b $C0
	gPitBend	$FE80
	gPitBend	$FF00
	dc.b $C1
	gPitBend	$FF80
	dc.b $C3
	gPitBend	$0000
	dc.b $C1, $ED
	gPitBend	$0000
	dc.b $8C, $CC, nFs5, $84, $C5, nEb5, $83, $C4
	dc.b nCs5, nEb5, nCs5, $87, $C7, nB4, $84, $C5
	dc.b nA4, $87, $C7, nBb4, $84, $C5, nCs5, $87
	dc.b $C7, nBb4, $84, $C5, nA4, $87, $C7, nAb4
	dc.b $84, $C5, nFs4, $87, $C7, nEb4, $84, $F5
	dc.b nCs4, $8B, $D3, nEb6, $90, $C1, $CD, nCs6
	dc.b $8B, $D3, nEb6, $90, $C8, $FF, nCs6, $81
	dc.b $C2, nBb4, nD5, nF5, $8B, $D8, nBb5, $C0
	dc.b nBb4, $CC, nFs4, $C0, nFs4, $CC, nBb4, $C0
	dc.b nAb4, $CC, nC5, $C0, nA4, $CC, nD5, $C0
	dc.b nBb4, $CC, nEb5, $C0, nA4, $CC, nD5, $C0
	dc.b nFs4, $CC, nC5, $C0, nA4, $CC, nD5, $91
	dc.b $C0, nBb4, $D2, nFs4, $81, $8D, $C0, nBb4
	dc.b $C1, $CE, nFs4, $8B, $C0, nBb4, $CC, nFs4
	dc.b $C0, nBb4, $CC, nFs4, $C0, nC5, $CC, nAb4
	dc.b $C0, nD5, $CC, nA4, $C0, nEb5, $CC, nBb4
	dc.b $C0, nD5, $CC, nA4, $C0, nC5, $CC, nFs4
	dc.b $C0, nD5, $CC, nA4, $81, $9F, $C0, nFs4
	dc.b $C1, $DF, nBb4
	gStop

.14_02	dc.b $C0
	gsPrio		$0F
	dc.b $C3, $C0
	gsPatch		$10
	dc.b $8B, $CC, nBb3, $85, $C6, nB3, nBb3, $8B
	dc.b $CC, nB3, nD4, nEb4, nD4, nB3, nD4, $91
	dc.b $D2, nBb3, $C0
	gPitBend	$FD00
	dc.b $81, $8D, nBb3, $C1
	gPitBend	$FD80
	gPitBend	$FE00
	gPitBend	$FE80
	gPitBend	$FF00
	gPitBend	$FF80
	dc.b $C1, $C9
	gPitBend	$0000
	dc.b $8B, $CC, nBb3, $85, $C6, nB3, nBb3, $8B
	dc.b $CC, nB3, nD4, nEb4, nD4, nB3, nD4, $81
	dc.b $9F, $C1, $E0, nBb3, $8B, $CC, nCs4, $85
	dc.b $C6, nD4, nCs4, $8B, $CC, nD4, nF4, nFs4
	dc.b nF4, nD4, nF4, $91, $D2, nCs4, $C0
	gPitBend	$FD00
	dc.b $81, $8D, nCs4, $C1
	gPitBend	$FD80
	gPitBend	$FE00
	gPitBend	$FE80
	gPitBend	$FF00
	gPitBend	$FF80
	dc.b $C1, $C9
	gPitBend	$0000
	dc.b $85, $E4, nF4, $8B, $CC, nEb4, $85, $E4
	dc.b nD4, $8B, $CC, nB3, $85, $E4, nBb3, $8B
	dc.b $CC, nEb4, $85, $F0, nD4, $8B, $C0, nFs4
	dc.b nBb3, $F0, nEb4, $C0, nB3, nA3, $E4, nEb4
	dc.b $C0, nBb3, $CC, nD4, $C0, nEb4, nFs4, $F0
	dc.b nBb3, $C0, nC4, nAb3, $F0, nEb4, $C0, nFs4
	dc.b nCs4, $F0, nBb4, $C0, nFs4, nC4, $FC, nD4
	dc.b $87, $CC, nBb3, nB3, nCs4, nD4, nEb4, nE4
	dc.b nF4, $AF, $F0, nBb3, $A3, $E4, nA3, $8B
	dc.b $CC, nAb3, $AF, $F0, nBb3, nC4, nCs4, $A3
	dc.b $E4, nC4, $8B, $CC, nB3, $97, $D8, nBb3
	dc.b nB3, nC4, nCs4, $8B, $C0, nB3, nEb4, $D3
	dc.b nFs3, $90, $C0, nB3, nCs4, $DD, nF3, $8B
	dc.b $C0, nFs4, nEb4, nBb4, $D3, nB3, $90, $C0
	dc.b nCs4, nF4, nAb4, $DD, nB3, $8B, $C0, nBb3
	dc.b nEb4, $D3, nFs3, $90, $C0, nBb3, nCs4, $DD
	dc.b nFs3, $8B, $C0, nEb4, nAb4, $D3, nBb3, $90
	dc.b $C0, nCs4, nFs4, $C3, $DD, nBb3, $97, $D8
	dc.b nBb4, nAb4, nB4, nBb4, nAb4, nFs4, nF4, nFs4
	dc.b $85, $C0, nA3, nEb4, $E4, nFs3, $C0, nA3
	dc.b nEb4, $E4, nFs3, $C0, nFs4, nEb4, nA4, $D8
	dc.b nB3, $C0, nEb4, nF4, $F0, nA3, $8B, $C0
	dc.b nF4, nAb4, $C3, $C0, nD4, $C0
	gPitBend	$FD00
	dc.b $93, nA3, nEb3, $C1
	gPitBend	$FD80
	gPitBend	$FE00
	dc.b $C0
	gPitBend	$FE80
	gPitBend	$FF00
	dc.b $C1
	gPitBend	$FF80
	dc.b $C3
	gPitBend	$0000
	dc.b $CA
	gPitBend	$0000
	dc.b $C0
	gPitBend	$FE00
	dc.b $C1
	gPitBend	$FE80
	dc.b $C0
	gPitBend	$FF00
	dc.b $C1
	gPitBend	$FF80
	gPitBend	$0000
	dc.b $9D, $C0, nAb3, $C5, nD3, $C1, $F8
	gPitBend	$0000
	dc.b $97, $D8, nC4, nCs4, nD4, nEb4, $8B, $CC
	dc.b nAb4, nAb4, $85, $C6, nBb4, nBb4, $8B, $CC
	dc.b nC5, nCs5, nC5, nBb4, nC5, $91, $D2, nAb4
	dc.b $81, $8D, $C1, $CD, nAb4
	gStop

.14_03	dc.b $C0
	gsPrio		$0C
	gsPatch		$46
	dc.b $88, $CC, nEb3, $85, $C6, nBb3, nBb3, $88
	dc.b $CC, nEb3, $85, $C6, nBb3, nBb3, $88, $CC
	dc.b nEb3, $8B, nBb3, nB3, nBb3, $88, nEb3, $85
	dc.b $C6, nBb3, nBb3, $88, $CC, nEb3, $85, $C6
	dc.b nBb3, nBb3, $88, $CC, nEb3, $8B, nBb3, nB3
	dc.b nBb3, $88, nEb3, $85, $C6, nBb3, nBb3, $88
	dc.b $CC, nEb3, $85, $C6, nBb3, nBb3, $88, $CC
	dc.b nEb3, $8B, nBb3, nB3, nBb3, $88, nEb3, $85
	dc.b $C6, nBb3, nBb3, $88, $CC, nEb3, $85, $C6
	dc.b nBb3, nBb3, nFs5, nF5, nE5, nEb5, nD5, nCs5
	dc.b nC5, nB4, $CC, nBb4, $C6, nBb3, nBb3, $88
	dc.b $CC, nEb3, $85, $C6, nBb3, nBb3, $88, $CC
	dc.b nEb3, $8B, nBb3, nB3, nBb3, $85, $C6, nFs5
	dc.b nF5, nE5, nEb5, nD5, nCs5, nC5, nB4, nBb4
	dc.b nA4, nAb4, nG4, nFs4, nF4, nEb4, nD4, $88
	dc.b $CC, nCs4, $85, $C6, nCs4, nCs4, $88, $CC
	dc.b nFs3, $85, $C6, nCs4, nCs4, $88, $CC, nFs3
	dc.b $8B, nCs4, nD4, nCs4, $88, nFs3, $85, $C6
	dc.b nCs4, nCs4, $88, $CC, nFs3, $85, $C6, nCs4
	dc.b nCs4, $88, $CC, nFs3, $8B, nCs4, nD4, $C2
	dc.b $D0, nCs4, $CC, nFs5, $85, $F0, nF5, $8B
	dc.b $CC, nEb4, $88, nBb5, $8B, $D8, nEb5, $F0
	dc.b nB3, $CC, nEb4, $88, nBb5, $8B, $D8, nEb5
	dc.b $F0, nC4, nCs4, $FC, nD4, $87, $CC, nBb3
	dc.b nB3, nCs4, nD4, nEb4, nE4, $C9, $CC, nF4
	dc.b $C0
	gPitBend	$0000
	dc.b $97, nEb4, $D8, nB3, $C0, nCs4, $D8, nB3
	dc.b $C0, nFs4, $D8, nEb4, $C0, nF4, $D8, nCs4
	dc.b $AF, $C0, nAb4, $F0, nCs4, $C0, nFs4, $F0
	dc.b nCs4, $97, $C0, nF4, nBb4, nEb4, $D8, nBb3
	dc.b $C0, nF4, nAb4, nAb3, $D8, nEb4, $C0, nAb4
	dc.b nB4, nBb3, $D8, nD4, $C0, nAb4, nBb4, nBb3
	dc.b $D8, nD4, $C0, nF4, nBb3, $D8, nAb4, $C0
	dc.b nEb4, nBb3, $D8, nFs4, $C0, nD4, nBb3, $D8
	dc.b nF4, $C0, nEb4, nBb3, $D8, nFs4, $85, $E4
	dc.b nEb4, nEb4, $D8, nA4, $F0, nF4, $8B, $C6
	dc.b $F0, nBb4, $CC, nAb3, nAb3, $85, $C6, nBb3
	dc.b nBb3, $8B, $CC, nC4, nCs4, nC4, nBb3, nC4
	dc.b $91, $D2, nAb3, $81, $8D, $C1, $CD, nAb3
	gStop

.14_04	dc.b $C0
	gsPrio		$0A
	dc.b $D5, $C0
	gsPatch		$47
	dc.b $97, $D8, nEb4, nBb3, nB3, nBb3, nEb4, nBb3
	dc.b nAb3, nAb3, nCs3, nCs3, nD3, nCs3, nFs3, nAb3
	dc.b nA3, nBb3, $93, $D3, nCs4, $9C, $DD, nCs4
	dc.b $93, $D3, nCs4, $9C, $DD, nCs4, $93, $D3
	dc.b nCs4, $9C, $DD, nCs4, $93, $D3, nCs4, $9C
	dc.b $DD, nCs4, $AF, $F0, nCs3, nCs3, $81, $9F
	dc.b $C1, $E0, nFs3, $AF, $F0, nF3, nBb2, nEb3
	dc.b nCs3, $8B, $E4, nB3, nB2, $D8, nB3, $F0
	dc.b nF3, nBb2, $97, $D8, nEb4, nBb3, nEb4, nBb3
	dc.b nEb4, nBb3, $91, $D2, nB3, $9D, $DE, nBb3
	dc.b $97, $D8, nEb4, nBb3, nEb4, nBb3, nEb4, nBb3
	dc.b nAb3, nBb3, nB3, nC4, $C0, nCs3, $D8, nCs4
	dc.b nAb3, $C0, nCs3, $D8, nCs4, nAb3, $C0, nCs4
	dc.b $D8, nCs3, $D7, nAb3
	gStop

.14_05	dc.b $C0
	gsPrio		$07
	gsPatch		$0F
	dc.b $88, $CC, nEb2, $85, $C6, nBb2, nBb2, $88
	dc.b $CC, nEb2, $85, $C6, nBb2, nBb2, $88, $CC
	dc.b nEb2, $8B, nBb2, nB2, nBb2, $88, nEb2, $85
	dc.b $C6, nBb2, nBb2, $88, $CC, nEb2, $85, $C6
	dc.b nBb2, nBb2, $88, $CC, nEb2, $8B, nBb2, nB2
	dc.b nBb2, $88, nEb2, $85, $C6, nBb2, nBb2, $88
	dc.b $CC, nEb2, $85, $C6, nBb2, nBb2, $88, $CC
	dc.b nEb2, $8B, nBb2, nB2, nBb2, $88, nEb2, $85
	dc.b $C6, nBb2, nBb2, $88, $CC, nEb2, $85, $C6
	dc.b nBb2, nBb2, $88, $CC, nEb2, $8B, nBb2, nB2
	dc.b nBb2, $88, nEb2, $85, $C6, nBb2, nBb2, $88
	dc.b $CC, nEb2, $85, $C6, nBb2, nBb2, $88, $CC
	dc.b nEb2, $8B, nBb2, nB2, nBb2, $88, nEb2, $85
	dc.b $C6, nBb2, nBb2, $88, $CC, nEb2, $85, $C6
	dc.b nBb2, nBb2, $88, $CC, nEb2, $8B, nBb2, nB2
	dc.b nBb2, $88, nFs2, $85, $C6, nCs3, nCs3, $88
	dc.b $CC, nFs2, $85, $C6, nCs3, nCs3, $88, $CC
	dc.b nFs2, $8B, nCs3, nD3, nCs3, $88, nFs2, $85
	dc.b $C6, nCs3, nCs3, $88, $CC, nFs2, $85, $C6
	dc.b nCs3, nCs3, $88, $CC, nFs2, $8B, nCs3, nD3
	dc.b nCs3, $88, $E4, nBb2, $8B, $CC, nB2, $88
	dc.b $E4, nBb2, $8B, $CC, nB2, $88, $E4, nBb2
	dc.b $8B, $CC, nB2, $88, $C8, nBb2
	gStop

.14_06	dc.b $C0
	gsPrio		$00
	gsPatch		$09
	gStop

.14_07	dc.b $C0
	gsPrio		$08
	dc.b $C5, $D0
	gsPatch		$17
	dc.b $85, $C6, nFs5, nF5, nE5, nEb5, nD5, nCs5
	dc.b nC5, nB4, $C1, $E0, nBb4, $C6, nFs5, nF5
	dc.b nE5, nEb5, nD5, nCs5, nC5, nB4, nBb4, nA4
	dc.b nAb4, nG4, nFs4, nF4, nEb4, nD4, $C4, $D4
	dc.b nCs4, $8B, $CC, nB4, $85, $C1, $E0, nBb4
	dc.b $8B, $F0, nEb4, $E4, nB3, $CC, nBb3, $F0
	dc.b nEb4, nC4, nCs4, $C8, $D0, nD4, $D3, nEb5
	dc.b $90, $C1, $CD, nCs5, $8B, $D3, nEb5, $90
	dc.b $D1, $F9, nCs5, $87, $C0, nE4, $C7, nAb4
	dc.b $84, $C0, nE4, $D1, nAb4, $8B, $C0, nE4
	dc.b $D8, nAb4, $87, $C0, nE4, $C7, nAb4, $84
	dc.b $C0, nE4, $D1, nAb4, $8B, $C0, nE4, $CC
	dc.b nAb4, $C0
	gStartSeq	$15
	gStop

.14_08	dc.b $C0
	gsPrio		$08
	gsVolume	$0D
	gsPatch		$48
	dc.b $8B, $CC, nEb3, $85, $C6, nBb2, nBb2, $8B
	dc.b $CC, nEb3, $85, $C6, nBb2, nBb2, $8B, $CC
	dc.b nEb3, nBb2, nEb3, nBb2, nEb3, $85, $C6, nBb2
	dc.b nBb2, $8B, $CC, nEb3, $85, $C6, nBb2, nBb2
	dc.b $8B, $CC, nEb3, nBb2, nEb3, nBb2, nEb3, $85
	dc.b $C6, nBb2, nBb2, $8B, $CC, nEb3, $85, $C6
	dc.b nBb2, nBb2, $8B, $CC, nEb3, nBb2, nEb3, nBb2
	dc.b nEb3, $85, $C6, nBb2, nBb2, $8B, $CC, nEb3
	dc.b $85, $C6, nBb2, nBb2, $8B, $CC, nEb3, nBb2
	dc.b nEb3, nBb2, nEb3, $85, $C6, nBb2, nBb2, $8B
	dc.b $CC, nEb3, $85, $C6, nBb2, nBb2, $8B, $CC
	dc.b nEb3, nBb2, nEb3, nBb2, nEb3, $85, $C6, nBb2
	dc.b nBb2, $8B, $CC, nEb3, $85, $C6, nBb2, nBb2
	dc.b $8B, $CC, nEb3, nBb2, nEb3, nBb2, nEb3, $85
	dc.b $C6, nBb2, nBb2, $8B, $CC, nEb3, $85, $C6
	dc.b nBb2, nBb2, $8B, $CC, nEb3, nBb2, nEb3, nBb2
	dc.b nEb3, $85, $C6, nBb2, nBb2, $8B, $CC, nEb3
	dc.b $85, $C6, nBb2, nBb2, $8B, $CC, nEb3, nBb2
	dc.b nEb3, $CB, nBb2
	gStop

.14_09	dc.b $C0
	gsPrio		$00
	dc.b $E7, $C0
	gsPatch		$23
	dc.b $8B, $E4, nCs5, $CC, nCs5, $E4, nCs5, $CC
	dc.b nCs5, $D3, nCs5, $84, $C5, nCs5, $8B, $CC
	dc.b nCs5, nCs5, $D3, nCs5, $8A, $DD, nCs5, $8B
	dc.b $E4, nCs5, $CC, nCs5, $E4, nCs5, $CC, nCs5
	dc.b $CB, nCs5
	gStop

.15_00	dc.b $C0
	gsPrio		$14
	gsTempo		125
	gsPatch		$45
	dc.b $87, $C7, nA4, $84, $C5, nA4, $87, $C7
	dc.b nA4, $84, $C5, nA4, $8A, $CC, nA4, $87
	dc.b $C7, nA4, $84, $C5, nA4, $87, $C7, nA4
	dc.b $84, $C5, nA4, $8B, $CC, nA4, $87, $C7
	dc.b nA4, $84, $C5, nA4, $87, $C7, nA4, $84
	dc.b $C5, nA4, $87, $C7, nBb4, $84, $C5, nBb4
	dc.b $87, $C7, nBb4, $84, $C5, nBb4, $8B, $CC
	dc.b nBb4, $88, nBb4, $AF, $FC, nB4, $88, $CC
	dc.b nB4, $8B, $D3, nE4, $84, $C5, nB3, $87
	dc.b $C7, nG4, $84, $C5, nG4, $87, $C7, nG4
	dc.b $CC, nG4, $90, $DD, nFs4, $88, $CC, nB4
	dc.b $8B, $D3, nE4, $84, $C5, nE4, $87, $C7
	dc.b nG4, $84, $C5, nG4, $87, $C7, nG4, $90
	dc.b $E9, nG4, $88, $CC, nD5, $8B, $D8, nG4
	dc.b $87, $C7, nBb4, $84, $C5, nBb4, $87, $C7
	dc.b nBb4, $84, $C5, nBb4, $8B, $CC, nBb4, $87
	dc.b $C7, nA4, $90, $C1, $F1, nG4, $88, $CC
	dc.b nB4, $8B, $D3, nE4, $84, $C5, nE4, $87
	dc.b $C7, nG4, $84, $C5, nG4, $87, $C7, nG4
	dc.b $CC, nG4, $90, $DD, nFs4, $88, $CC, nB4
	dc.b $8B, $D3, nE4, $84, $C5, nE4, $87, $C7
	dc.b nG4, $84, $C5, nG4, $87, $C7, nG4, $E9
	dc.b nG4, $88, $CC, nD5, $8B, $D3, nG4, $84
	dc.b $C5, nG4, $87, $C7, nBb4, $84, $C5, nBb4
	dc.b $87, $C6, nBb4, $C1
	gPitBend	$FD00
	dc.b $92, $C5, nBb4, $C0
	gPitBend	$FD00
	dc.b $C1
	gPitBend	$FD80
	gPitBend	$FE00
	gPitBend	$FE80
	gPitBend	$FF00
	gPitBend	$FF80
	dc.b $C9
	gPitBend	$0000
	dc.b $86, $CA, nA4, $C0
	gPitBend	$0000
	dc.b $A3, $C4, $E0, nG4, $97, $D8, nE4, nD4
	dc.b nB4, nA4, nC5, $AF, $C4, $C8, nB4, $87
	dc.b $C7, nE4, $84, $C5, nE4, $87, $C7, nE4
	dc.b $84, $C5, nFs4, $8B, $CC, nG4, $87, $C7
	dc.b nE4, $84, $C5, nE4, $87, $C7, nE4, $84
	dc.b $C5, nFs4, $8B, $E4, nG4, $87, $C7, nFs4
	dc.b $84, $C5, nFs4, $87, $C7, nFs4, $84, $C5
	dc.b nFs4, $8B, $CC, nAb4, $88, $C9, nBb4, $8E
	dc.b $C6, $F3, nB4, $C1, $E0
	gPitBend	$0000
	dc.b $85, $D2, nB4, $DE, nB4, $8B, $CC, nFs5
	dc.b nF5, nE5, nEb5, $81, $A0, $C0, nF4, $C1
	dc.b $EC, nA3, $85, $C6, nC5, nCs5, nEb5, nE5
	dc.b nEb5, nCs5, nC5, nAb4, nG4, nF4, nE4, nCs4
	dc.b nC4, nBb3, $AF, $C3, $CC, nC4, $85, $C0
	dc.b nC4, $C6, nC5, $C0, nC4, $C6, nC5, $8B
	dc.b $C0, nCs4, $CC, nCs5, $85, $C0, nC4, $D8
	dc.b nC5, $C0, nG4, $C6, nG5, $C0, nG4, $C6
	dc.b nG5, $8B, $C0, nAb4, $CC, nAb5, $85, $C0
	dc.b nG4, $D8, nG5, $C0, nC5, $C6, nC6, $C0
	dc.b nC5, $C6, nC6, $8B, $C0, nCs5, $CC, nCs6
	dc.b $85, $C0, nC5, $D8, nC6, $87, $C0, nG5
	dc.b $F0, nG6, $88, $CC, nD5, $8B, $D3, nG4
	dc.b $84, $C5, nG4, $87, $C7, nBb4, $84, $C5
	dc.b nBb4, $87, $C7, nBb4, $8C, $CC, nBb4, $90
	dc.b $DD, nA4, $88, $CC, nD5, $8B, $D3, nG4
	dc.b $84, $C5, nG4, $87, $C7, nBb4, $84, $C5
	dc.b nBb4, $87, $C7, nBb4, $90, $E9, nBb4, $88
	dc.b $CC, nF5, $8B, $D3, nBb4, $84, $C5, nBb4
	dc.b $87, $C7, nCs5, $84, $C5, nCs5, $87, $C7
	dc.b nCs5, $8C, $CC, nCs5, $90, $DD, nC5, $88
	dc.b $CC, nF5, $8B, $D3, nBb4, $84, $C5, nBb4
	dc.b $8B, $CC, nCs5, nCs5, $87, $C7, nCs5, $90
	dc.b $DD, nC5, $88, $CC, nF5, $8B, $D8, nBb4
	dc.b $87, $C7, nBb4, $84, $C5, nC5, $87, $C7
	dc.b nBb4, $84, $C5, nC5, $87, $C7, nCs5, $8C
	dc.b $CC, nC5, nBb4, $84, $C5, nC5, $87, $C7
	dc.b nBb4, $84, $C5, nC5, $87, $C7, nCs5, $8C
	dc.b $CC, nC5, nBb4, $84, $C5, nC5, $87, $C7
	dc.b nBb4, $84, $C5, nC5, $8B, $CC, nCs5, nC5
	dc.b $C0
	gPitBend	$0000
	dc.b $97, $C8, nF5, $C5
	gPitBend	$FF80
	dc.b $C4
	gPitBend	$FF00
	dc.b $C3
	gPitBend	$FE80
	dc.b $C2
	gPitBend	$FE00
	dc.b $C3
	gPitBend	$FD80
	dc.b $C2
	gPitBend	$FD00
	gPitBend	$FC80
	dc.b $C7
	gPitBend	$FC00
	dc.b $C0
	gPitBend	$0000
	gStop

.15_01	dc.b $C0
	gsPrio		$11
	dc.b $C3, $CC
	gsPatch		$12
	dc.b $83, $C0, nB4, $C4, nG5, $C0, nBb4, $C4
	dc.b nFs5, $C0, nA4, $C4, nF5, $85, $C0, nG4
	dc.b $C1, $D4, nE5, $83, $C0, nG5, $C4, nB4
	dc.b $C0, nFs5, $C4, nBb4, $C0, nF5, $C4, nA4
	dc.b $85, $C0, nE5, $CA, $F8, nG4, $8B, $D3
	dc.b nE6, $90, $C1, $CD, nD6, $8B, $D3, nE6
	dc.b $90, $C3, $DD, nD6, $C0
	gPitBend	$0000
	dc.b $97, $D8, nB4, nA4, nC5, nB4, nA4, nG4
	dc.b nFs4, $C3, $C0, nG4, $8B, $D8, nE4, $87
	dc.b $C0, nAb5, $C7, nF5, $84, $C0, nG5, $C5
	dc.b nE5, $87, $C0, nAb5, $CC, nF5, $C0, nAb5
	dc.b $C7, nF5, $84, $C0, nG5, $C5, nE5, $87
	dc.b $C0, nAb5, $CC, nF5, $C0, nF5, $C7, nC5
	dc.b $84, $C0, nE5, $C5, nB4, $87, $C0, nF5
	dc.b $C7, nC5, $8C, $C0, nC5, $CC, nAb4, $84
	dc.b $C0, nB4, $C5, nG4, $87, $C0, nC5, $CC
	dc.b nAb4, $C0
	gPitBend	$FC00
	dc.b $AF, $C6, nA4
	gPitBend	$FD00
	gPitBend	$FE00
	gPitBend	$FF00
	gPitBend	$0000
	gPitBend	$0100
	gPitBend	$0200
	gPitBend	$0300
	dc.b $C0
	gPitBend	$FC00
	dc.b $C6, nF5
	gPitBend	$FD00
	gPitBend	$FE00
	gPitBend	$FF00
	gPitBend	$0000
	gPitBend	$0100
	gPitBend	$0200
	gPitBend	$0300
	dc.b $C0
	gPitBend	$0000
	dc.b $87, nAb5, $C7, nF5, $84, $C0, nG5, $C5
	dc.b nE5, $87, $C0, nAb5, $CC, nF5, $C0, nF5
	dc.b $C7, nAb5, $84, $C0, nE5, $C5, nG5, $87
	dc.b $C0, nF5, $CC, nAb5, $C0, nC5, $C7, nF5
	dc.b $84, $C0, nB4, $C5, nE5, $87, $C0, nC5
	dc.b $C7, nF5, $8C, $C0, nAb4, $CC, nC5, $84
	dc.b $C0, nG4, $C5, nB4, $87, $C0, nAb4, $CC
	dc.b nC5, $C0
	gPitBend	$0300
	dc.b $AF, $C6, nF5
	gPitBend	$0200
	gPitBend	$0100
	gPitBend	$0000
	gPitBend	$FF00
	gPitBend	$FE00
	gPitBend	$FD00
	gPitBend	$FC00
	dc.b $C0
	gPitBend	$0300
	dc.b $C6, nA4
	gPitBend	$0200
	gPitBend	$0100
	gPitBend	$0000
	gPitBend	$FF00
	gPitBend	$FE00
	gPitBend	$FD00
	gPitBend	$FC00
	dc.b $C0
	gPitBend	$0000
	dc.b $87, nBb5, $C7, nFs5, $84, $C0, nA5, $C5
	dc.b nF5, $87, $C0, nBb5, $CC, nFs5, $C0, nFs5
	dc.b $C7, nEb5, $84, $C0, nF5, $C5, nD5, $87
	dc.b $C0, nFs5, $CC, nEb5, $C0, nEb5, $C7, nBb4
	dc.b $84, $C0, nD5, $C5, nA4, $87, $C0, nEb5
	dc.b $C7, nBb4, $8C, $C0, nBb4, $CC, nFs4, $84
	dc.b $C0, nA4, $C5, nF4, $87, $C0, nBb4, $CC
	dc.b nFs4, $C0
	gPitBend	$0300
	dc.b $AF, $C6, nC5
	gPitBend	$0200
	gPitBend	$0100
	gPitBend	$0000
	gPitBend	$FF00
	gPitBend	$FE00
	gPitBend	$FD00
	gPitBend	$FC00
	dc.b $C0
	gPitBend	$0300
	dc.b $C6, nE4
	gPitBend	$0200
	gPitBend	$0100
	gPitBend	$0000
	gPitBend	$FF00
	gPitBend	$FE00
	gPitBend	$FD00
	gPitBend	$FC00
	dc.b $F0
	gPitBend	$0000
	gPitBend	$0000
	gPitBend	$0000
	dc.b $CF, $F0
	gPitBend	$0000
	dc.b $85, $C6, nF6, nE6, nEb6, nD6, nCs6, nC6
	dc.b nB5, nBb5, nA5, nAb5, nG5, nFs5, nF5, nE5
	dc.b nEb5, $C1, $E6, nD5, $C6, nEb4, nD4, nCs4
	dc.b nC4, nB3, nBb3, nA3, nAb3, nG3, nFs3, nF3
	dc.b nE3, nEb3, nD3, nCs3, $F6, nC3, $8B, $F0
	dc.b nBb2, $C0
	gStartSeq	$14
	gStop

.15_02	dc.b $C0
	gsPrio		$0F
	gsPatch		$10
	dc.b $85, nEb4, nF4, $E4, nC4, $C0, nEb4, nF4
	dc.b $E4, nC4, $C0, nEb4, nF4, $D8, nC4, $C0
	dc.b nF4, nBb4, $E4, nD4, $8B, $C0, nF4, nBb4
	dc.b $CC, nD4, $C0, nA4, nB4, $C1, $E0, nEb4
	dc.b $85, $C0, nG5, $D3, nE5, $84, $C0, nG5
	dc.b $CC, nE5, $90, $C0, nFs5, $C1, $E0, nEb5
	dc.b $C0, nE5, nB5, $D1, nG5, $85, $C0, nB5
	dc.b nD6, $C2, $D0, nG5, $87, $C0, nEb5, $CC
	dc.b nB4, $C0, nE5, $CC, nCs5, $C0, nF5, $CC
	dc.b nD5, $C0, nFs5, $CC, nEb5, $AF, $F0, nB3
	dc.b $A3, $E4, nBb3, $8B, $CC, nA3, $AF, $F0
	dc.b nB3, $E4, nCs4, $85, $C0, nE5, nG5, $CC
	dc.b nCs5, $AF, $F0, nD4, $A3, $E4, nCs4, $8B
	dc.b $CC, nC4, $97, $D8, nB3, nC4, nCs4, nD4
	dc.b $8B, $C0, nC4, nE4, $D3, nG3, $90, $C0
	dc.b nC4, nD4, $DD, nFs3, $8B, $C0, nG4, nB4
	dc.b $D3, nE4, $90, $C0, nFs4, nA4, $DD, nC4
	dc.b $8B, $C0, nB3, nE4, $D3, nG3, $90, $C0
	dc.b nB3, nD4, $DD, nG3, $8B, $C0, nE4, nA4
	dc.b $D3, nB3, $90, $C0, nD4, nG4, $C1, $FD
	dc.b nB3, $8B, $CC, nG2, nD3, nG3, nFs3, nA3
	dc.b nG3, nFs3, nG3, $C0
	gPitBend	$0000
	dc.b $97, nE4, nB4, $C3, nC4
	gPitBend	$0000
	dc.b $C1
	gPitBend	$0000
	dc.b $C2
	gPitBend	$0065
	dc.b $C1
	gPitBend	$0000
	dc.b $C2
	gPitBend	$0065
	dc.b $C1
	gPitBend	$0000
	dc.b $C2
	gPitBend	$0065
	dc.b $C1
	gPitBend	$0000
	dc.b $C2
	gPitBend	$0065
	dc.b $C1
	gPitBend	$0000
	dc.b $C5
	gPitBend	$0000
	dc.b $C0
	gPitBend	$0000
	dc.b nE4, nA4, $C3, nC4
	gPitBend	$0000
	dc.b $C1
	gPitBend	$0000
	dc.b $C2
	gPitBend	$0065
	dc.b $C1
	gPitBend	$0000
	dc.b $C2
	gPitBend	$0065
	dc.b $C1
	gPitBend	$0000
	dc.b $C2
	gPitBend	$0065
	dc.b $C1
	gPitBend	$0000
	dc.b $C2
	gPitBend	$0065
	dc.b $C1
	gPitBend	$0000
	dc.b $C5
	gPitBend	$0000
	dc.b $C0
	gPitBend	$0000
	dc.b nA4, nC5, $C3, nE4
	gPitBend	$0000
	dc.b $C1
	gPitBend	$0000
	dc.b $C2
	gPitBend	$0065
	dc.b $C1
	gPitBend	$0000
	dc.b $C2
	gPitBend	$0065
	dc.b $C1
	gPitBend	$0000
	dc.b $C2
	gPitBend	$0065
	dc.b $C1
	gPitBend	$0000
	dc.b $C2
	gPitBend	$0065
	dc.b $C1
	gPitBend	$0000
	dc.b $C2
	gPitBend	$0065
	dc.b $C1
	gPitBend	$0000
	dc.b $C2
	gPitBend	$0000
	dc.b $C0
	gPitBend	$0000
	dc.b nA4, nB4, $C3, nEb4
	gPitBend	$0000
	dc.b $C1
	gPitBend	$0000
	dc.b $C2
	gPitBend	$0065
	dc.b $C1
	gPitBend	$0000
	dc.b $C2
	gPitBend	$0065
	dc.b $C1
	gPitBend	$0000
	dc.b $C2
	gPitBend	$0065
	dc.b $C1
	gPitBend	$0000
	dc.b $C2
	gPitBend	$0065
	dc.b $C1
	gPitBend	$0000
	dc.b $C5
	gPitBend	$0000
	dc.b $C0
	gPitBend	$0000
	dc.b nFs4, nA4, $C3, nB3
	gPitBend	$0000
	dc.b $C1
	gPitBend	$0000
	dc.b $C2
	gPitBend	$0065
	dc.b $C1
	gPitBend	$0000
	dc.b $C2
	gPitBend	$0065
	dc.b $C1
	gPitBend	$0000
	dc.b $C2
	gPitBend	$0065
	dc.b $C1
	gPitBend	$0000
	dc.b $C2
	gPitBend	$0065
	dc.b $C1
	gPitBend	$0000
	dc.b $C5
	gPitBend	$0000
	dc.b $C0
	gPitBend	$0000
	dc.b nE4, nG4, $C3, nB3
	gPitBend	$0000
	dc.b $C1
	gPitBend	$0000
	dc.b $C2
	gPitBend	$0065
	dc.b $C1
	gPitBend	$0000
	dc.b $C2
	gPitBend	$0065
	dc.b $C1
	gPitBend	$0000
	dc.b $C2
	gPitBend	$0065
	dc.b $C1
	gPitBend	$0000
	dc.b $C2
	gPitBend	$0065
	dc.b $C1
	gPitBend	$0000
	dc.b $C5
	gPitBend	$0000
	dc.b $C0
	gPitBend	$0000
	dc.b nE4, nFs4, $C3, nBb3
	gPitBend	$0000
	dc.b $C1
	gPitBend	$0000
	dc.b $C2
	gPitBend	$0065
	dc.b $C1
	gPitBend	$0000
	dc.b $C2
	gPitBend	$0065
	dc.b $C1
	gPitBend	$0000
	dc.b $C2
	gPitBend	$0065
	dc.b $C1
	gPitBend	$0000
	dc.b $C2
	gPitBend	$0065
	dc.b $C1
	gPitBend	$0000
	dc.b $C5
	gPitBend	$0000
	dc.b $C0
	gPitBend	$0000
	dc.b nE4, nG4, $C3, nB3
	gPitBend	$0000
	dc.b $C1
	gPitBend	$0000
	dc.b $C2
	gPitBend	$0065
	dc.b $C1
	gPitBend	$0000
	dc.b $C2
	gPitBend	$0065
	dc.b $C1
	gPitBend	$0000
	dc.b $C2
	gPitBend	$0065
	dc.b $C1
	gPitBend	$0000
	dc.b $C2
	gPitBend	$0065
	dc.b $C1
	gPitBend	$0000
	dc.b $E9
	gPitBend	$0000
	dc.b $85, $E4, nE5, $C0
	gPitBend	$0000
	dc.b $97, $C6, nE4
	gPitBend	$0100
	gPitBend	$0200
	gPitBend	$0300
	dc.b $C0
	gPitBend	$0000
	dc.b $85, $F0, nFs4, $D8, nB4, $8B, $C0, nG3
	dc.b $D8, nBb3, $87, $C7, nAb4, $84, $C5, nG4
	dc.b $87, $CC, nAb4, $C7, nF4, $84, $C5, nE4
	dc.b $87, $CC, nF4, $C7, nC4, $84, $C5, nB3
	dc.b $87, $C7, nC4, $8C, $CC, nAb3, $84, $C5
	dc.b nG3, $87, $CC, nAb3, $85, $D3, nF3, $DD
	dc.b nF3, $D3, nAb3, $D1, nAb3, $8B, $CC, nC3
	dc.b $87, $C7, nAb4, $84, $C5, nG4, $87, $CC
	dc.b nAb4, $C7, nF4, $84, $C5, nE4, $87, $CC
	dc.b nF4, $C7, nC4, $84, $C5, nB3, $87, $C7
	dc.b nC4, $8C, $CC, nAb3, $84, $C5, nG3, $87
	dc.b $CC, nAb3, $85, nCs3, nF3, nEb3, nG3, nF3
	dc.b nAb3, nG3, nBb3, $C0
	gPitBend	$0000
	dc.b $87, $C7, nFs4, $84, $C5, nF4, $87, $CC
	dc.b nFs4, $C7, nEb4, $84, $C5, nD4, $87, $CC
	dc.b nEb4, $C7, nBb3, $84, $C5, nA3, $87, $C7
	dc.b nBb3, $8C, $CC, nFs3, $84, $C5, nF3, $87
	dc.b $CC, nFs3, $C0
	gPitBend	$0300
	dc.b $AF, $C6, nC4
	gPitBend	$0200
	gPitBend	$0100
	gPitBend	$0000
	gPitBend	$FF00
	gPitBend	$FE00
	gPitBend	$FD00
	gPitBend	$FC00
	dc.b $C0
	gPitBend	$0300
	dc.b $C6, nE3
	gPitBend	$0200
	gPitBend	$0100
	gPitBend	$0000
	gPitBend	$FF00
	gPitBend	$FE00
	gPitBend	$FD00
	gPitBend	$FC00
	dc.b $C0
	gPitBend	$0000
	dc.b $88, $CC, nF3, $85, $C6, nC3, nC3, $88
	dc.b $CC, nF3, $85, $C6, nC3, nC3, $C0
	gPitBend	$0000
	dc.b $88, $CC, nF3, $85, $C6, nC3, nC3, $88
	dc.b $CC, nF3, $85, $C6, nC3, nC3, $C0
	gPitBend	$0000
	dc.b $81, $9F, nFs4, nBb3, $88, $CC, nF3, $85
	dc.b $C6, nC3, nC3, $88, $CC, nF3, $85, $C6
	dc.b nC3, nC3, $C0
	gPitBend	$0000
	dc.b $88, $CC, nF3, $85, $C6, nC3, nC3, $88
	dc.b $CC, nF3, $85, $C6, nC3, nC3, $CC
	gPitBend	$0000
	dc.b $C6, nC3, nC3, $8B, $CC, nCs3, $85, $D8
	dc.b nC3, $C6, nF3, nF3, $8B, $CC, nFs3, $85
	dc.b $D8, nF3, $C6, nC4, nC4, $8B, $CC, nCs4
	dc.b $85, $D8, nC4, $C6, nF4, nF4, $8B, $CC
	dc.b nFs4, $85, $D8, nF4, $C0, nC4, $C6, nC5
	dc.b $C0, nC4, $C6, nC5, $8B, $C0, nCs4, $CC
	dc.b nCs5, $85, $C0, nC4, $D8, nC5, $C0, nG4
	dc.b $C6, nG5, $C0, nG4, $C6, nG5, $8B, $C0
	dc.b nAb4, $CC, nAb5, $85, $C0, nG4, $D8, nG5
	dc.b $C0, nC5, $C6, nC6, $C0, nC5, $C6, nC6
	dc.b $8B, $C0, nCs5, $CC, nCs6, $85, $C0, nC5
	dc.b $D8, nC6, $87, $C0, nG5, $C1, $E6, nG6
	dc.b $91, $C0, nD4, nEb4, $D2, nG4, $8B, $C0
	dc.b nFs4, $C1, $CE, nC4, $91, $C0, nE4, $D2
	dc.b nG4, $8B, $C0, nG4, nE4, $F0, nC4, $85
	dc.b $C0, nCs5, nF5, $DE, nBb4, $91, $C0, nE4
	dc.b $D2, nBb4, $8B, $C0, nA4, $C1, $CE, nEb4
	dc.b $91, $C0, nA4, $D2, nF4, $8B, $C0, nD4
	dc.b nF4, $C4, $EC, nG4, $85, $C6, nCs5, nC5
	dc.b nB4, nBb4, nA4, nAb4, nG4, nFs4, nF4, nE4
	dc.b nEb4, nD4, nCs4, nC4, nB3, nBb3, nEb4, nD4
	dc.b nCs4, nC4, nB3, nBb3, nA3, nAb3, nG3, nFs3
	dc.b nF3, nE3, nEb3, nD3, nCs3, nC3, $8B, $F0
	dc.b nBb2, $CB, nBb1
	gStop

.15_03	dc.b $C0
	gsPrio		$0C
	dc.b $C9, $C0
	gsPatch		$46
	dc.b $AF, $F0, nB3, $A3, $E4, nBb3, $8B, $CC
	dc.b nA3, $AF, $F0, nB3, nCs4, nD4, $A3, $E4
	dc.b nCs4, $8B, $CC, nC4, $97, $D8, nB3, nC4
	dc.b nCs4, $C3, $D8, nD4, $C0
	gPitBend	$0000
	dc.b nE4, nC4, $D8, nE5, $C0, nD4, nC4, $D8
	dc.b nD5, $C0, nG4, nE4, $D8, nB5, $C0, nA5
	dc.b nD4, $D8, nFs4, $C0, nC6, $AF, nD4, $D8
	dc.b nA4, $97, nB5, $C0, nA5, $AF, nD4, $D8
	dc.b nG4, $97, nB5, $81, $9F, $C1, $E0, nB3
	dc.b $C2, $C4, nG4, $85, $E4, nE5, $C0
	gPitBend	$0000
	dc.b $97, $C6, nE4
	gPitBend	$0100
	gPitBend	$0200
	gPitBend	$0300
	dc.b $C0
	gPitBend	$0000
	dc.b $85, $F0, nFs4, $C2, $D0, nB4, $C0
	gPitBend	$FC00
	dc.b $AF, $C6, nA4
	gPitBend	$FD00
	gPitBend	$FE00
	gPitBend	$FF00
	gPitBend	$0000
	gPitBend	$0100
	gPitBend	$0200
	gPitBend	$0300
	dc.b $C0
	gPitBend	$FC00
	dc.b $C6, nF5
	gPitBend	$FD00
	gPitBend	$FE00
	gPitBend	$FF00
	gPitBend	$0000
	gPitBend	$0100
	gPitBend	$0200
	gPitBend	$0300
	dc.b $C1, $E0
	gPitBend	$0000
	dc.b $C0
	gPitBend	$0300
	dc.b $C6, nF5
	gPitBend	$0200
	gPitBend	$0100
	gPitBend	$0000
	gPitBend	$FF00
	gPitBend	$FE00
	gPitBend	$FD00
	gPitBend	$FC00
	dc.b $C0
	gPitBend	$0300
	dc.b $C6, nA4
	gPitBend	$0200
	gPitBend	$0100
	gPitBend	$0000
	gPitBend	$FF00
	gPitBend	$FE00
	gPitBend	$FD00
	gPitBend	$FC00
	dc.b $C1, $E0
	gPitBend	$0000
	dc.b $C0
	gPitBend	$0300
	dc.b $C6, nC5
	gPitBend	$0200
	gPitBend	$0100
	gPitBend	$0000
	gPitBend	$FF00
	gPitBend	$FE00
	gPitBend	$FD00
	gPitBend	$FC00
	dc.b $C0
	gPitBend	$0300
	dc.b $C6, nE4
	gPitBend	$0200
	gPitBend	$0100
	gPitBend	$0000
	gPitBend	$FF00
	gPitBend	$FE00
	gPitBend	$FD00
	gPitBend	$FC00
	dc.b $85, nA5, nBb5, nC6, nCs6, nEb6, nE6, nEb6
	dc.b nCs6, nC6, nAb5, nG5, nF5, nE5, nCs5, nC5
	dc.b nBb4, $AF, $C1, $E0, nC5, $C0
	gPitBend	$0000
	dc.b $8B, $CC, nF2, $85, $C6, nC3, nC3, $8B
	dc.b $CC, nCs3, $85, nC3, $8B, nF2, $85, $C6
	dc.b nF3, nF3, $8B, $CC, nFs3, $85, nF3, $8B
	dc.b nF2, $85, $C6, nC4, nC4, $8B, $CC, nCs4
	dc.b $85, nC4, $8B, nF2, $85, $C6, nF4, nF4
	dc.b $8B, $CC, nFs4, $85, nF4, $8B, nC3, $85
	dc.b $C6, nC4, nC4, $8B, $CC, nCs4, $85, nC4
	dc.b $8B, nC3, $85, $C6, nG4, nG4, $8B, $CC
	dc.b nAb4, $85, nG4, $8B, nC3, $85, $C6, nC5
	dc.b nC5, $8B, $CC, nCs5, $85, nC5, $8B, nC3
	dc.b $87, nG5, $82, $C3, nG3, nA3, nBb3, nC4
	dc.b nD4, nEb4, nE4, nFs4, $81, $81, $C1, $C2
	dc.b nG4, $91, $D2, nEb5, $8B, $C0, nA4, $CC
	dc.b nD5, $81, $81, $C1, $C2, nG4, $91, $D2
	dc.b nA4, $8B, $CC, nG4, $A4, $E4, nF4, $85
	dc.b $DE, nF4, $91, $D2, nFs4, $8B, $CC, nF4
	dc.b $81, $81, $C1, $C2, nF4, $91, $D2, nA4
	dc.b $8B, $CC, nG4, $C0
	gPitBend	$0000
	dc.b $A9, $E4, nF4, $C6
	gPitBend	$0000
	dc.b $C0
	gPitBend	$FE00
	dc.b $AF, nG4, $C3, nEb4
	gPitBend	$FF00
	dc.b $E4
	gPitBend	$0000
	dc.b $C6
	gPitBend	$0000
	dc.b $C0
	gPitBend	$FE00
	dc.b nG4, nBb4, $C3, nEb4
	gPitBend	$FF00
	dc.b $EA
	gPitBend	$0000
	dc.b $C0
	gPitBend	$FE00
	dc.b $B5, nG4, nBb4, nEb4, $C3, nEb5
	gPitBend	$FF00
	dc.b $F0
	gPitBend	$0000
	dc.b $85, $C6, nF6, nE6, nEb6, nD6, nCs6, nC6
	dc.b nB5, nBb5, nA5, nAb5, nG5, nFs5, nF5, nE5
	dc.b nEb5, nD5, nCs5, nC5, nB4, nBb4, nA4, nAb4
	dc.b nG4, nFs4, nF4, nE4, nEb4, nD4, nCs4, nC4
	dc.b nB3, nBb3, nEb4, nD4, nCs4, nC4, nB3, nBb3
	dc.b nA3, nAb3, nG3, nFs3, nF3, nE3, nEb3, nD3
	dc.b nCs3, nC3, $8B, $C0, nBb2, $F0, nBb5, $CB
	dc.b nBb2
	gStop

.15_04	dc.b $C0
	gsPrio		$0A
	gsPatch		$47
	dc.b $8B, nF3, $E4, nF4, $C0, nF3, $E4, nF4
	dc.b $C0, nF3, $D8, nF4, $E4, nBb3, $CC, nBb2
	dc.b $DE, nB2, $85, $C6, nBb2, $8B, $CC, nB2
	dc.b $97, $D8, nE3, nB2, nC3, nB2, nE3, nB2
	dc.b nA2, nA3, nD3, nD3, nEb3, nD3, $8B, $CC
	dc.b nG2, nA2, nBb2, nB2, nB2, nCs3, nD3, nEb3
	dc.b $97, $D8, nE3, nB2, nC3, nB2, nE3, nB2
	dc.b nA2, nA3, nD3, nD3, nEb3, nD3, nG3, nA3
	dc.b nBb3, nB3, $A3, $E4, nD4, $AF, $F0, nD4
	dc.b nD4, $BB, $FC, nD4, $81, $9F, $C1, $E0
	dc.b nD3, nG3, $AF, $F0, nFs3, nB3, nE3, nD3
	dc.b $8B, $C1, $C8, nC3, $D8, nC3, $F0, nFs3
	dc.b $D8, nB2, nC3, $97, nF3, nC3, nF3, nC3
	dc.b nCs3, nAb2, nC3, nC3, nF3, nC3, nF3, nC3
	dc.b $8B, $CC, nCs3, nF3, nEb3, nG3, nF3, nAb3
	dc.b nG3, nBb3, $97, $D8, nEb3, nBb2, nEb3, nBb2
	dc.b $85, $D2, nB2, $C1, $CE, nB2, $F0
	gPitBend	$0000
	gPitBend	$0000
	gPitBend	$0000
	gPitBend	$0000
	gPitBend	$0000
	gPitBend	$0000
	gPitBend	$0000
	dc.b $C3, $F0
	gPitBend	$0000
	dc.b $97, $C0, nG3, $D8, nD4, nD3, $91, $D2
	dc.b nEb3, $85, $CC, nEb3, $C6, nCs3, $8B, $CC
	dc.b nD3, $97, $D8, nG3, nD3, $91, $D2, nC3
	dc.b $85, $CC, nG3, $C6, nB3, $8B, $CC, nC4
	dc.b $97, $D8, nF3, nF4, nFs3, nF3, nD3, nD3
	dc.b nG3, nG3, nC3, nC3, $8B, $CC, nF3, nF4
	dc.b nF4, nF4, nF4, nF4, nF4, nF4, nF4, nF4
	dc.b nF4, $CB, nF4
	gStop

.15_05	dc.b $C0
	gsPrio		$07
	dc.b $DA, $D0
	gsPatch		$0F
	dc.b $8B, $D8, nB1, $C9, $D8, nC2, $C0
	gPitBend	$0000
	dc.b $8A, $CC, nF2, $85, $C6, nC2, nC2, $8A
	dc.b $CC, nF2, $85, $C6, nC2, nC2, $C0
	gPitBend	$0000
	dc.b $8A, $CC, nF2, $85, $C6, nC2, nC2, $8A
	dc.b $CC, nF2, $85, $C6, nC2, nC2, $C0
	gPitBend	$0000
	dc.b $8A, $CC, nF2, $85, $C6, nC2, nC2, $8A
	dc.b $CC, nF2, $85, $C6, nC2, nC2, $C0
	gPitBend	$0000
	dc.b $8A, $CC, nF2, $85, $C6, nC2, nC2, $8A
	dc.b $CC, nF2, $85, $C6, nC2, nC2, $AF, $F0
	dc.b nF2, nF2, nF2, nF2, nC3, nC3, nC3, $EF
	dc.b nC3
	gStop

.15_06	dc.b $C0
	gsPrio		$03
	gsVolume	$07
	dc.b $CE, $E8
	gsPatch		$09
	dc.b $83, $C1, $C8, nG5, $8B, $D3, nE6, $90
	dc.b $C1, $CD, nD6, $8B, $D3, nE6, $90, $E4
	dc.b $DD, nD6, $85, $C6, nF6, nE6, nEb6, nD6
	dc.b nCs6, nC6, nB5, nBb5, nA5, nAb5, nG5, nFs5
	dc.b nF5, nE5, nEb5, $C1, $E6, nD5, $C6, nEb4
	dc.b nD4, nCs4, nC4, nB3, nBb3, nA3, nAb3, nG3
	dc.b nFs3, nF3, nE3, nEb3, nD3, nCs3, nC3, $8B
	dc.b $F0, nBb2, $CB, nBb2
	gStop

.15_07	dc.b $C0
	gsPrio		$08
	dc.b $C7, $E0
	gsPatch		$17
	dc.b $83, $CC, nE5, $C4, nE5, nE5, nE5, $CC
	dc.b nEb5, $C4, nD5, nCs5, nC5, $CC, nB4, nA4
	dc.b nG4, $C4, $EC, nFs4, $CC, nG4, $C4, nG4
	dc.b nAb4, nA4, $CC, nB4, $C4, nB4, nC5, nCs5
	dc.b $CC, nD5, $C4, nD5, nE5, nFs5, $C4, $C8
	dc.b nG5, $97, $C0, nB4, $D8, nG4, $C0, nA4
	dc.b $C5, $DC, nFs4, $85, $FC, nE5, $F0, nFs4
	dc.b $C8, $D0, nB4, $C0, nB4, $D2, nFs4, $C0
	dc.b nB4, $C9, $DE, nFs4, $82, $C3, nG3, nA3
	dc.b nBb3, nC4, nD4, nEb4, nE4, nFs4, nG4, nA4
	dc.b nBb4, nC5, nD5, nEb5, nE5, nFs5, $85, $CA
	dc.b $E0, nG5, $C6, nCs5, nC5, nB4, nBb4, nA4
	dc.b nAb4, nG4, nFs4, nF4, nE4, nEb4, nD4, nCs4
	dc.b nC4, nB3, $C5, nBb3
	gStop

.15_08	dc.b $C0
	gsPrio		$08
	gsVolume	$0D
	dc.b $E7, $C0
	gsPatch		$48
	dc.b $8B, $CC, nF2, nF2, nF2, nF2, nF2, nF2
	dc.b nF2, nF2, nF2, nF2, nF2, nF2, nF2, nF2
	dc.b nF2, nF2, nC3, nC3, nC3, nC3, nC3, nC3
	dc.b nC3, nC3, nC3, nC3, nC3, nC3, nC3, $CB
	dc.b nC3
	gStop

.15_09	dc.b $C0
	gsPrio		$00
	dc.b $FA, $E0
	gsPatch		$23
	dc.b $8B, $CB, nCs5
	gStop

.16_00	dc.b $C0
	gsVolume	$07
	gsPrio		$0F
	gsTempo		98
	dc.b $C6, $C0
	gsPatch		$49
	gLoopStart
	dc.b $C7
	gNop
	dc.b $84, $C5, nEb6, $83, $C7, nD6, $84, $C5
	dc.b nEb6, $83, $C7, nD6, $84, $C5, nEb6, $83
	dc.b $C7, nD6, $84, $C5, nEb6, $C0
	gPitBend	$0000
	dc.b $8B, $C7, nB5, $C2
	gPitBend	$0200
	dc.b $C3
	gPitBend	$0000
	dc.b $87, $C7, nBb5, $84, $E5, nAb5, $81, $C1
	dc.b nAb6, nEb6, $82, $C2, nB5, $83, $C7, nAb5
	dc.b $84, $C5, nAb5, $83, $C7, nB5, $84, $C5
	dc.b nB5, $87, $C6, nCs6, $C1
	gPitBend	$0000
	dc.b $90, $CE, nD6, $C1
	gPitBend	$0200
	dc.b $C2
	gPitBend	$0000
	dc.b $87, $C7, nCs6, $84, $C5, nB5, $87, $C7
	dc.b nCs6, $84, $D1, nB5, $83, $C7, nCs6, $85
	dc.b $C5, nB5, $83, $C7, nAb5, $85, $C5, nB5
	dc.b $83, $C7, nCs6, $85, $C5, nEb6, $87, $C7
	dc.b nE6, $9C, $DD, nEb6, $87, $C7, nD6, $84
	dc.b $C5, nCs6, $87, $C7, nB5, $84, $E4, nAb5
	dc.b $C5, nBb5, $87, $C7, nB5, $8C, $CC, nCs6
	dc.b $84, $C5, nEb5, $C0
	gPitBend	$0000
	dc.b $87, $C6, nB5, $C1
	gPitBend	$FE00
	dc.b $9C, $C6, nBb5, $C2
	gPitBend	$FE00
	dc.b $C1
	gPitBend	$FE20
	gPitBend	$FE40
	dc.b $C0
	gPitBend	$FE60
	dc.b $C1
	gPitBend	$FE80
	gPitBend	$FEA0
	dc.b $C0
	gPitBend	$FEC0
	dc.b $C1
	gPitBend	$FEE0
	dc.b $C0
	gPitBend	$FF00
	dc.b $C1
	gPitBend	$FF20
	dc.b $C0
	gPitBend	$FF40
	dc.b $C1
	gPitBend	$FF60
	dc.b $C0
	gPitBend	$FF80
	dc.b $C1
	gPitBend	$FFA0
	dc.b $C0
	gPitBend	$FFC0
	dc.b $C1
	gPitBend	$FFE0
	dc.b $D3
	gPitBend	$0000
	dc.b $84, $C0, nEb6, $C5, nAb6, $83, $C0, nD6
	dc.b $C7, nG6, $84, $C0, nEb6, $C5, nAb6, $83
	dc.b $C0, nD6, $C7, nG6, $84, $C0, nEb6, $C5
	dc.b nAb6, $83, $C0, nD6, $C7, nG6, $84, $C0
	dc.b nEb6, $C5, nAb6, $C0
	gPitBend	$0000
	dc.b $8B, nB5, $C7, nE6, $C2
	gPitBend	$0200
	dc.b $C3
	gPitBend	$0000
	dc.b $87, $C0, nBb5, $C7, nEb6, $84, $C0, nAb5
	dc.b $E5, nB5, $81, $C0, nAb6, $C1, nB6, $C0
	dc.b nEb6, $C1, nAb6, $82, $C0, nB5, $C2, nE6
	dc.b $83, $C0, nAb5, $C7, nB5, $84, $C0, nAb5
	dc.b $C5, nB5, $83, $C0, nB5, $C7, nE6, $84
	dc.b $C0, nB5, $C5, nE6, $87, $C0, nCs6, $C6
	dc.b nFs6, $C1
	gPitBend	$0000
	dc.b $90, $C0, nD6, $CE, nG6, $C1
	gPitBend	$0200
	dc.b $C2
	gPitBend	$0000
	dc.b $87, $C0, nCs6, $C7, nFs6, $84, $C0, nB5
	dc.b $C5, nE6, $87, $C0, nCs6, $C7, nFs6, $84
	dc.b $C0, nB5, $D1, nE6, $83, $C0, nCs6, $C7
	dc.b nE6, $85, $C0, nB5, $C5, nEb6, $83, $C0
	dc.b nAb5, $C7, nB5, $85, $C0, nB5, $C5, nEb6
	dc.b $83, $C0, nCs6, $C7, nE6, $85, $C0, nEb6
	dc.b $C5, nFs6, $87, $C0, nE6, $C7, nAb6, $9C
	dc.b $C0, nEb6, $DD, nG6, $87, $C0, nD6, $C7
	dc.b nG6, $84, $C0, nCs6, $C5, nAb6, $87, $C0
	dc.b nB5, $C7, nB6, $84, $C0, nAb5, $E4, nEb7
	dc.b $C0, nBb5, $C5, nE7, $87, $C0, nB5, $C7
	dc.b nEb7, $8C, $C0, nCs6, $CC, nE7, $84, $C0
	dc.b nEb5, $C5, nBb6, $C0
	gPitBend	$0000
	dc.b $87, nB5, $C6, nAb6, $C1
	gPitBend	$FE00
	dc.b $9C, $C0, nBb5, $C6, nG6, $C2
	gPitBend	$FE00
	dc.b $C1
	gPitBend	$FE20
	gPitBend	$FE40
	dc.b $C0
	gPitBend	$FE60
	dc.b $C1
	gPitBend	$FE80
	gPitBend	$FEA0
	dc.b $C0
	gPitBend	$FEC0
	dc.b $C1
	gPitBend	$FEE0
	dc.b $C0
	gPitBend	$FF00
	dc.b $C1
	gPitBend	$FF20
	dc.b $C0
	gPitBend	$FF40
	dc.b $C1
	gPitBend	$FF60
	dc.b $C0
	gPitBend	$FF80
	dc.b $C1
	gPitBend	$FFA0
	dc.b $C0
	gPitBend	$FFC0
	dc.b $C1
	gPitBend	$FFE0
	dc.b $CD, $C3
	gPitBend	$0000
	dc.b $84, $C5, nEb6, $83, $C7, nD6, $84, $C5
	dc.b nEb6, $83, $C7, nD6, $84, $C5, nEb6, $83
	dc.b $C7, nD6, $84, $C5, nEb6, $C0
	gPitBend	$0000
	dc.b $8B, $C7, nB5, $C2
	gPitBend	$0200
	dc.b $C3
	gPitBend	$0000
	dc.b $87, $C7, nBb5, $84, $E5, nAb5, $81, $C1
	dc.b nAb6, nEb6, $82, $C2, nB5, $83, $C7, nAb5
	dc.b $84, $C5, nAb5, $83, $C7, nB5, $84, $C5
	dc.b nB5, $87, $C6, nCs6, $C1
	gPitBend	$0000
	dc.b $90, $CE, nD6, $C1
	gPitBend	$0200
	dc.b $C2
	gPitBend	$0000
	dc.b $87, $C7, nCs6, $84, $C5, nB5, $87, $C7
	dc.b nCs6, $84, $D1, nB5, $83, $C7, nCs6, $85
	dc.b $C5, nB5, $83, $C7, nAb5, $85, $C5, nB5
	dc.b $83, $C7, nCs6, $85, $C5, nEb6, $87, $C7
	dc.b nE6, $9C, $DD, nEb6, $87, $C7, nD6, $84
	dc.b $C5, nCs6, $87, $C7, nB5, $84, $E4, nAb5
	dc.b $C5, nBb5, $87, $C7, nB5, $8C, $CC, nCs6
	dc.b $84, $C5, nEb5, $C0
	gPitBend	$0000
	dc.b $87, $C6, nB5, $C1
	gPitBend	$FE00
	dc.b $9C, $C6, nBb5, $C2
	gPitBend	$FE00
	dc.b $C1
	gPitBend	$FE20
	gPitBend	$FE40
	dc.b $C0
	gPitBend	$FE60
	dc.b $C1
	gPitBend	$FE80
	gPitBend	$FEA0
	dc.b $C0
	gPitBend	$FEC0
	dc.b $C1
	gPitBend	$FEE0
	dc.b $C0
	gPitBend	$FF00
	dc.b $C1
	gPitBend	$FF20
	dc.b $C0
	gPitBend	$FF40
	dc.b $C1
	gPitBend	$FF60
	dc.b $C0
	gPitBend	$FF80
	dc.b $C1
	gPitBend	$FFA0
	dc.b $C0
	gPitBend	$FFC0
	dc.b $C1
	gPitBend	$FFE0
	dc.b $D3
	gPitBend	$0000
	dc.b $84, $C0, nAb6, $C5, nEb6, $83, $C0, nG6
	dc.b $C7, nD6, $84, $C0, nAb6, $C5, nEb6, $83
	dc.b $C0, nG6, $C7, nD6, $84, $C0, nAb6, $C5
	dc.b nEb6, $83, $C0, nG6, $C7, nD6, $84, $C0
	dc.b nAb6, $C5, nEb6, $C0
	gPitBend	$0000
	dc.b $8B, nE6, $C7, nB5, $C2
	gPitBend	$0200
	dc.b $C3
	gPitBend	$0000
	dc.b $87, $C0, nEb6, $C7, nBb5, $84, $C0, nB5
	dc.b $E5, nAb5, $81, $C0, nB6, $C1, nAb6, $C0
	dc.b nAb6, $C1, nEb6, $82, $C0, nE6, $C2, nB5
	dc.b $83, $C0, nB5, $C7, nAb5, $84, $C0, nB5
	dc.b $C5, nAb5, $83, $C0, nE6, $C7, nB5, $84
	dc.b $C0, nE6, $C5, nB5, $87, $C0, nFs6, $C6
	dc.b nCs6, $C1
	gPitBend	$0000
	dc.b $90, $C0, nG6, $CE, nD6, $C1
	gPitBend	$0200
	dc.b $C2
	gPitBend	$0000
	dc.b $87, $C0, nFs6, $C7, nCs6, $84, $C0, nE6
	dc.b $C5, nB5, $87, $C0, nFs6, $C7, nCs6, $84
	dc.b $C0, nE6, $D1, nB5, $83, $C0, nE6, $C7
	dc.b nCs6, $85, $C0, nEb6, $C5, nB5, $83, $C0
	dc.b nB5, $C7, nAb5, $85, $C0, nEb6, $C5, nB5
	dc.b $83, $C0, nE6, $C7, nCs6, $85, $C0, nFs6
	dc.b $C5, nEb6, $87, $C0, nAb6, $C7, nE6, $9C
	dc.b $C0, nG6, $DD, nEb6, $87, $C0, nG6, $C7
	dc.b nD6, $84, $C0, nAb6, $C5, nCs6, $87, $C0
	dc.b nB6, $C7, nB5, $84, $C0, nEb7, $E4, nAb5
	dc.b $C0, nE7, $C5, nBb5, $87, $C0, nEb7, $C7
	dc.b nB5, $8C, $C0, nE7, $CC, nCs6, $84, $C0
	dc.b nBb6, $C5, nEb5, $C0
	gPitBend	$0000
	dc.b $87, nAb6, $C6, nB5, $C1
	gPitBend	$FE00
	dc.b $9C, $C0, nG6, $C6, nBb5, $C2
	gPitBend	$FE00
	dc.b $C1
	gPitBend	$FE20
	gPitBend	$FE40
	dc.b $C0
	gPitBend	$FE60
	dc.b $C1
	gPitBend	$FE80
	gPitBend	$FEA0
	dc.b $C0
	gPitBend	$FEC0
	dc.b $C1
	gPitBend	$FEE0
	dc.b $C0
	gPitBend	$FF00
	dc.b $C1
	gPitBend	$FF20
	dc.b $C0
	gPitBend	$FF40
	dc.b $C1
	gPitBend	$FF60
	dc.b $C0
	gPitBend	$FF80
	dc.b $C1
	gPitBend	$FFA0
	dc.b $C0
	gPitBend	$FFC0
	dc.b $C1
	gPitBend	$FFE0
	dc.b $D8, $CC
	gPitBend	$0000
	dc.b $C0
	gLoopEnd
	; Unused
	dc.b $60

.16_01	dc.b $C0
	gsVolume	$07
	gsPrio		$07
	dc.b $C6, $C0
	gsPatch		$27
	gLoopStart
	dc.b $CC, $C0
	gNop
	dc.b $AF, $F0, nB3, nG3, $97, $D8, nB3, nG3
	dc.b $AF, $F0, nAb3, $C0, nAb3, $F0, nE3, $C0
	dc.b nG3, $F0, nBb3, $97, $C0, nB3, $D8, nEb4
	dc.b $C0, nCs4, $D8, nE4, $AF, $C0, nEb4, $F0
	dc.b nB3, $C0, nAb3, $F0, nCs4, $C0, nEb4, $F0
	dc.b nG3, $97, $C0, nB3, $D8, nEb4, $C0, nBb3
	dc.b $D8, nCs4, $C0, nAb3, $D8, nB3, $C0, nC4
	dc.b $D8, nAb3, $AF, $C0, nAb3, $F0, nCs4, $C0
	dc.b nB3, $F0, nAb3, $C0, nD4, $F0, nB3, $C0
	dc.b nEb4, $F0, nBb3, $C0, nBb3, $CC, $FC, nEb4
	dc.b $8B, $CC, nEb4, $87, nAb4, nEb5, $97, $D8
	dc.b nD5, nCs5, $93, $D3, nB4, $81, $8C, $C1
	dc.b $D9, nAb4, $8B, $CC, nE4, $87, nAb4, nCs5
	dc.b $97, $D8, nB4, nBb4, $93, $D3, nAb4, $81
	dc.b $8C, $C1, $CD, nEb4, $87, $C7, nE4, $84
	dc.b $C5, nE4, $87, $C7, nFs4, $8C, $CC, nAb4
	dc.b $84, $C5, nFs4, $87, $C7, nE4, $84, $CB
	dc.b nEb4, $85, $C6, nEb5, $83, $C7, nCs5, $84
	dc.b $C5, nCs5, $83, $C7, nB4, $84, $C5, nB4
	dc.b $83, $C7, nBb4, $84, $C5, nBb4, $87, $C7
	dc.b nAb4, $84, $C5, nAb4, $87, $C7, nBb4, $8C
	dc.b $CC, nB4, $84, $C5, nCs5, $87, $C7, nEb5
	dc.b $84, $CC, nE5, $C5, nE5, $83, $C7, nEb5
	dc.b $84, $C5, nEb5, $83, $C7, nCs5, $84, $C5
	dc.b nCs5, $83, $C7, nB4, $84, $C5, nB4, $87
	dc.b $C7, nD5, $84, $C5, nB4, $87, $C7, nAb4
	dc.b $8C, $CC, nE4, $84, $C5, nAb4, $87, $C7
	dc.b nB4, $8C, $CC, nD5, $84, $C5, nB4, $87
	dc.b $C7, nAb4, $8C, $CC, nE4, $84, $C5, nFs4
	dc.b $87, $C7, nAb4, $8C, $CC, nG4, $84, $C5
	dc.b nEb4, $87, $C7, nG4, $8C, $CC, nBb4, $84
	dc.b $C5, nG4, $87, $C7, nBb4, $84, $CB, nEb5
	dc.b $85, $C6, nEb5, $83, $C7, nE5, $84, $C5
	dc.b nE5, $83, $C7, nF5, $84, $C5, nF5, $83
	dc.b $C7, nG5, $84, $C5, nG5, $93, $C0, nEb5
	dc.b nAb5, $D3, nB4, $9C, $C0, nB4, nEb5, $C2
	dc.b $ED, nAb4, $93, $C0, nE5, nAb5, $D3, nB4
	dc.b $9C, $C0, nB4, nE5, $C2, $ED, nAb4, $93
	dc.b $C0, nG5, nEb5, $D3, nBb4, $9C, $C0, nBb4
	dc.b nEb5, $C2, $ED, nG4, $93, $C0, nAb4, nE5
	dc.b $D3, nB4, $9C, $C0, nE4, nB4, $C2, $ED
	dc.b nAb4, $C0
	gLoopEnd
	; Unused
	dc.b $60

.16_02	dc.b $C0
	gsVolume	$07
	gsPrio		$0A
	dc.b $C6, $C0
	gsPatch		$45
	gLoopStart
	dc.b $CC, $C0
	gNop
	dc.b $87, $C7, nAb4, $84, $C5, nBb4, $87, $C7
	dc.b nB4, $84, $C5, nE5, $87, $C7, nEb5, $84
	dc.b $C5, nCs5, $87, $C7, nB4, $8C, $CC, nBb4
	dc.b $84, $C5, nBb4, $87, $C7, nB4, $8C, $CC
	dc.b nCs5, $84, $C5, nB4, $87, $C7, nCs5, $98
	dc.b $D8, nEb5, $81, $8C, $C1, $CD, nEb5, $87
	dc.b $C7, nCs5, $84, $C5, nEb5, $87, $C7, nE5
	dc.b $84, $C5, nFs5, $87, $C7, nAb5, $84, $C5
	dc.b nFs5, $87, $C7, nE5, $8C, $CC, nEb5, $84
	dc.b $C5, nCs5, $87, $C7, nB4, $8C, $CC, nBb4
	dc.b $84, $C5, nB4, $87, $C7, nCs5, $98, $D8
	dc.b nB4, $81, $8C, $C1, $CD, nAb4, $87, $C7
	dc.b nAb4, $84, $C5, nBb4, $87, $C7, nB4, $84
	dc.b $C5, nE5, $87, $C7, nEb5, $84, $C5, nCs5
	dc.b $87, $C7, nB4, $8C, $CC, nBb4, $84, $C5
	dc.b nBb4, $87, $C7, nB4, $8C, $CC, nCs5, $84
	dc.b $C5, nB4, $87, $C7, nBb4, $8C, $CC, nB4
	dc.b $84, $C5, nBb4, $87, $C7, nAb4, $8C, $CC
	dc.b nBb4, $84, $C5, nAb4, $87, $C7, nFs4, $8C
	dc.b $CC, nAb4, $84, $C5, nFs4, $87, $C7, nE4
	dc.b $8C, $CC, nFs4, $84, $C5, nE4, $87, $C7
	dc.b nEb4, $98, $D8, nE4, $9C, $DD, nE4, $93
	dc.b $D3, nAb4, $8C, $CC, nAb4, $84, $C5, nA4
	dc.b $87, $C7, nBb4, $8C, $CC, nB4, $84, $C5
	dc.b nAb4, $87, $C7, nB4, $8C, $CC, nD5, $84
	dc.b $C5, nB4, $87, $C7, nD5, $84, $CC, nEb5
	dc.b $C5, nEb5, $83, $C7, nCs5, $84, $C5, nCs5
	dc.b $83, $C7, nB4, $84, $C5, nB4, $83, $C7
	dc.b nBb4, $84, $C5, nBb4, $83, $C7, nAb4, $84
	dc.b $C5, nAb4, $83, $C7, nFs4, $84, $C5, nFs4
	dc.b $83, $C7, nE4, $84, $C5, nE4, $83, $C7
	dc.b nEb4, $84, $CB, $ED, nEb4, $87, $C7, nEb4
	dc.b $84, $C5, nE4, $87, $C7, nF4, $84, $C5
	dc.b nG4, $87, $C0, nB3, nAb3, nAb4, $E4, nEb3
	dc.b $C0, nEb3, nAb3, $CC, nB2, $97, $C0, nAb3
	dc.b nB3, $D8, nE3, $93, $C0, nBb3, $D3, nEb3
	dc.b $84, $C0, nEb3, nAb3, $E9, nB2, $87, $CC
	dc.b nEb4, $C7, nB3, $84, $C5, nCs4, $87, $C7
	dc.b nD4, $8C, $CC, nEb4, $84, $C5, nE4, $87
	dc.b $C7, nEb4, $84, $C0, nAb3, nCs4, $E9, nE3
	dc.b $87, $C0, nAb3, $CC, nE3, $97, $C0, nAb3
	dc.b $D8, nE3, $93, $C0, nG3, $D3, nEb3, $84
	dc.b $C0, nEb3, $E9, nB2, $87, $CC, nB3, $C7
	dc.b nAb3, $84, $C5, nA3, $87, $C7, nBb3, $8C
	dc.b $CC, nB3, $84, $C5, nBb3, $87, $C7, nB3
	dc.b $84, $C0, nAb3, nCs4, $F0, nE3, $C0, nBb3
	dc.b nEb4, $DD, nG3, $87, $C0, nBb3, nEb4, $C7
	dc.b nG3, $84, $C0, nB3, nF4, $C5, nAb3, $87
	dc.b $C0, nCs4, nG4, $C7, nBb3, $A8, $C0, nEb4
	dc.b nAb4, $E9, nB3, $87, $C0, nEb4, nFs4, $C7
	dc.b nBb3, $84, $C0, nB3, nE4, $FC, nAb3, $C0
	dc.b nCs4, $D1, nAb3, $97, $C0, nCs4, $DF, nAb3
	dc.b $84, $C0, nCs4, nE4, $D1, nAb3, $97, $C0
	dc.b nCs4, nE4, $DF, nAb3, $90, $D1, nEb4, $87
	dc.b $C7, nCs4, $84, $C5, nB3, $87, $C7, nCs4
	dc.b $84, $CC, nEb4, $C5, nEb4, $83, $C7, nE4
	dc.b $84, $C5, nE4, $83, $C7, nF4, $84, $C5
	dc.b nF4, $83, $C7, nG4, $84, $C5, nG4, $93
	dc.b $D3, nAb4, $90, $D1, nEb4, $87, $C0, nAb3
	dc.b $CC, nEb3, $97, $C0, nB3, $D8, nAb3, $C0
	dc.b nBb3, $D8, nG3, $93, $C0, nAb3, $D3, nEb3
	dc.b $82, $C0, nFs3, $C2, nD3, $C0, nE3, $C3
	dc.b nCs3, $81, $87, $C0, nEb3, $C1, $C8, nB2
	dc.b $93, $D3, nAb4, $90, $D1, nE4, $87, $C0
	dc.b nE3, $CC, nAb3, $97, $C0, nAb3, $D8, nB3
	dc.b $C0, nG3, $D8, nBb3, $93, $C0, nEb3, $D3
	dc.b nAb3, $82, $C0, nD3, $C2, nFs3, $C0, nCs3
	dc.b $C3, nE3, $81, $87, $C0, nB2, $C1, $C8
	dc.b nEb3, $93, $D3, nG4, $90, $D1, nEb4, $87
	dc.b $C0, nEb3, $CC, nAb3, $97, $C0, nAb3, $D8
	dc.b nB3, $C0, nG3, $D8, nBb3, $93, $C0, nEb3
	dc.b $D3, nAb3, $82, $C0, nD3, $C2, nFs3, $C0
	dc.b nCs3, $C3, nE3, $81, $87, $C0, nB2, $C1
	dc.b $C8, nEb3, $93, $D3, nE4, $90, $D1, nB3
	dc.b $87, $C0, nE3, $CC, nB2, $97, $C0, nAb3
	dc.b $D8, nE3, $C0, nE3, $D8, nAb3, $93, $C0
	dc.b nEb3, $D3, nG3, $82, $C0, nCs3, $C2, nF3
	dc.b $C0, nB2, $C3, nE3, $81, $87, $C0, nBb2
	dc.b $C1, $C8, nEb3, $C0
	gLoopEnd
	; Unused
	dc.b $60

.16_03	dc.b $C0
	gsVolume	$07
	gsPrio		$09
	dc.b $C6, $C0
	gsPatch		$10
	gLoopStart
	dc.b $C0
	gNop
	dc.b $81, $87, $C1, $C8, nB4, $97, $D8, nBb4
	dc.b $81, $87, $C1, $C8, nAb4, $97, $D8, nB4
	dc.b $9F, $DF, nBb4, $84, $C5, nA4, $87, $C7
	dc.b nAb4, $A4, $E4, nG4, $84, $C5, nAb4, $87
	dc.b $C7, nBb4, $9C, $DD, nAb4, $97, $D8, nE4
	dc.b $93, $D3, nEb4, $84, $C5, nF4, $87, $C7
	dc.b nG4, $84, $C5, nAb4, $87, $C7, nBb4, $81
	dc.b $8C, $C0, nB4, $C1, $CD, nAb4, $97, $C0
	dc.b nBb4, $D8, nFs4, $81, $87, $C0, nAb4, $C1
	dc.b $C8, nE4, $97, $C0, nB4, $D8, nAb4, $9F
	dc.b $C0, nBb4, $DF, nE4, $84, $C0, nA4, $C5
	dc.b nFs4, $87, $C0, nAb4, $C7, nE4, $A4, $C0
	dc.b nG4, $E4, nEb4, $84, $C0, nAb4, $C5, nF4
	dc.b $87, $C0, nBb4, $C7, nG4, $9C, $C0, nAb4
	dc.b $DD, nEb4, $97, $C0, nE4, $D8, nB3, $C0
	dc.b nAb4, $D8, nE4, $87, $C7, nB4, $84, $C5
	dc.b nBb4, $87, $C7, nAb4, $84, $C5, nFs4, $97
	dc.b $D8, nE4, $87, $C7, nAb4, $84, $C5, nFs4
	dc.b $87, $C7, nE4, $9C, $DD, nEb4, $87, $C7
	dc.b nEb4, $84, $C5, nF4, $87, $C7, nG4, $8C
	dc.b $CC, nAb4, $84, $C5, nG4, $87, $C7, nAb4
	dc.b $8C, $CC, nBb4, $84, $C5, nAb4, $87, $C7
	dc.b nBb4, $8C, $CC, nB4, $84, $C5, nB4, $87
	dc.b $CC, nBb4, $C7, nAb4, $84, $C5, nFs4, $87
	dc.b $C7, nE4, $84, $C5, nEb4, $97, $D8, nCs4
	dc.b $87, $C7, nB3, $84, $C5, nBb3, $87, $C7
	dc.b nAb3, $9C, $DD, nG3, $87, $C7, nG3, $84
	dc.b $C5, nAb3, $87, $C7, nBb3, $8C, $CC, nAb3
	dc.b $84, $C5, nG3, $87, $C7, nAb3, $8C, $CC
	dc.b nBb3, $84, $C5, nAb3, $87, $C7, nBb3, $84
	dc.b $C5, nCs4, $87, $C7, nB3, $84, $C5, nEb4
	dc.b $87, $C7, nAb4, $84, $C5, nBb4, $87, $C7
	dc.b nB4, $84, $C5, nBb4, $87, $C7, nAb4, $84
	dc.b $C5, nFs4, $97, $D8, nE4, $87, $C7, nAb4
	dc.b $84, $C5, nFs4, $87, $C7, nE4, $9C, $DD
	dc.b nEb4, $87, $C7, nEb4, $84, $C5, nF4, $87
	dc.b $C7, nG4, $8C, $CC, nAb4, $84, $C5, nFs4
	dc.b $87, $C7, nAb4, $8C, $CC, nBb4, $84, $C5
	dc.b nAb4, $87, $C7, nBb4, $8C, $CC, nB4, $84
	dc.b $C5, nBb4, $87, $C7, nB4, $8C, $CC, nC5
	dc.b $84, $C5, nB4, $87, $C7, nC5, $8C, $CC
	dc.b nCs5, $84, $C5, nAb4, $87, $C7, nE4, $8C
	dc.b $CC, nCs4, $84, $C5, nE4, $87, $C7, nAb4
	dc.b $8C, $CC, nB4, $84, $C5, nAb4, $87, $C7
	dc.b nB4, $8C, $CC, nD5, $84, $C5, nB4, $87
	dc.b $C7, nD5, $8C, $CC, nB4, $84, $C5, nAb4
	dc.b $87, $C7, nB4, $8C, $CC, nAb4, $84, $C5
	dc.b nFs4, $87, $C7, nE4, $8C, $CC, nEb4, $84
	dc.b $C5, nE4, $83, $C7, nF4, $84, $C5, nFs4
	dc.b $83, $C7, nG4, $84, $C5, nEb4, $83, $C7
	dc.b nG4, $84, $C5, nBb4, $83, $C7, nB4, $84
	dc.b $C5, nB4, $83, $C7, nBb4, $84, $C5, nBb4
	dc.b $83, $C7, nAb4, $84, $C5, nAb4, $83, $C7
	dc.b nG4, $84, $C5, nG4, $81, $87, $C1, $C8
	dc.b nB4, $97, $D8, nBb4, $81, $87, $C1, $C8
	dc.b nAb4, $97, $D8, nB4, $9F, $DF, nBb4, $84
	dc.b $C5, nA4, $87, $C7, nAb4, $A4, $E4, nG4
	dc.b $84, $C5, nAb4, $87, $C7, nBb4, $9C, $DD
	dc.b nAb4, $97, $D8, nE4, $93, $D3, nEb4, $84
	dc.b $C5, nF4, $87, $C7, nG4, $84, $C5, nAb4
	dc.b $87, $C7, nBb4, $81, $8C, $C0, nAb4, $C1
	dc.b $CD, nB4, $97, $C0, nFs4, $D8, nBb4, $81
	dc.b $87, $C0, nE4, $C1, $C8, nAb4, $97, $C0
	dc.b nAb4, $D8, nB4, $9F, $C0, nE4, $DF, nBb4
	dc.b $84, $C0, nFs4, $C5, nA4, $87, $C0, nE4
	dc.b $C7, nAb4, $A4, $C0, nEb4, $E4, nG4, $84
	dc.b $C0, nF4, $C5, nAb4, $87, $C0, nG4, $C7
	dc.b nBb4, $9C, $C0, nEb4, $DD, nAb4, $97, $C0
	dc.b nB3, $D8, nE4, $C0, nAb4, $D8, nE4, $C0
	dc.b nEb4, $CC, $FC, nG4, $87, $CC, nB3, $97
	dc.b $D8, nD4, nCs4, $C0
	gPitBend	$0300
	dc.b $81, $9F, $D2, nAb3, $C0
	gPitBend	$0300
	dc.b $C1
	gPitBend	$0280
	gPitBend	$0200
	gPitBend	$0180
	gPitBend	$0100
	gPitBend	$0080
	dc.b $C7
	gPitBend	$0000
	dc.b $C1, $E6
	gPitBend	$0000
	dc.b $87, $CC, nB3, $97, $D8, nD4, nCs4, $C0
	gPitBend	$0300
	dc.b $81, $9F, $D2, nAb3, $C0
	gPitBend	$0300
	dc.b $C1
	gPitBend	$0280
	gPitBend	$0200
	gPitBend	$0180
	gPitBend	$0100
	gPitBend	$0080
	dc.b $C7
	gPitBend	$0000
	dc.b $C1, $E6
	gPitBend	$0000
	dc.b $87, $CC, nB3, $97, $D8, nD4, nCs4, $C0
	gPitBend	$0300
	dc.b $81, $9F, $D2, nAb3, $C0
	gPitBend	$0300
	dc.b $C1
	gPitBend	$0280
	gPitBend	$0200
	gPitBend	$0180
	gPitBend	$0100
	gPitBend	$0080
	dc.b $C7
	gPitBend	$0000
	dc.b $C1, $E6
	gPitBend	$0000
	dc.b $87, $CC, nAb3, $97, $D8, nCs4, nB3, $C0
	gPitBend	$0300
	dc.b $81, $9F, $D2, nG3, $C0
	gPitBend	$0300
	dc.b $C1
	gPitBend	$0280
	gPitBend	$0200
	gPitBend	$0180
	gPitBend	$0100
	gPitBend	$0080
	dc.b $C7
	gPitBend	$0000
	dc.b $C1, $C2
	gPitBend	$0000
	dc.b $C0
	gLoopEnd
	; Unused
	dc.b $60

.16_04	dc.b $C0
	gsVolume	$07
	gsPrio		$14
	gsPatch		$4A
	dc.b $8B, $CC, nAb3, nEb3, nAb3, $87, $C7, nEb3
	dc.b $8C, $CC, nAb3, $84, $C5, nAb3, $8B, $CC
	dc.b nEb3, nAb3, nFs3, nE3, nB2, nE3, $87, $C7
	dc.b nB2, $8C, $CC, nE3, $84, $C5, nE3, $8B
	dc.b $CC, nB2, nE3, nEb3, nCs3, nAb2, $87, $C7
	dc.b nCs3, $84, $C5, nEb3, $87, $C7, nE3, $90
	dc.b $D1, nEb3, $8B, $CC, nBb2, $87, $C7, nEb3
	dc.b $84, $C5, nF3, $87, $C7, nG3, $84, $CC
	dc.b nAb3, $C5, nAb3, $8B, $CC, nFs3, nE3, nEb3
	dc.b nCs3, nE3, $83, $C7, nEb3, $84, $C5, nF3
	dc.b $8B, $CC, nG3
	gLoopStart
	dc.b $C0
	gNop
	dc.b $8B, $CC, nAb3, nEb3, nAb3, $87, $C7, nEb3
	dc.b $8C, $CC, nAb3, $84, $C5, nAb3, $8B, $CC
	dc.b nEb3, nAb3, nFs3, nE3, nB2, nE3, $87, $C7
	dc.b nB2, $8C, $CC, nE3, $84, $C5, nE3, $8B
	dc.b $CC, nB2, nE3, nEb3, nCs3, nAb2, $87, $C7
	dc.b nCs3, $84, $C5, nEb3, $87, $C7, nE3, $90
	dc.b $D1, nEb3, $8B, $CC, nBb2, $87, $C7, nEb3
	dc.b $84, $C5, nF3, $87, $C7, nG3, $84, $CC
	dc.b nAb3, $C5, nAb3, $8B, $CC, nFs3, nE3, nEb3
	dc.b nCs3, nE3, $83, $C7, nEb3, $84, $C5, nF3
	dc.b $8B, $CC, nG3, nAb3, nEb3, nAb3, $87, $C7
	dc.b nEb3, $8C, $CC, nAb3, $84, $C5, nAb3, $8B
	dc.b $CC, nEb3, nAb3, nFs3, nE3, nB2, nE3, $87
	dc.b $C7, nB2, $8C, $CC, nE3, $84, $C5, nE3
	dc.b $8B, $CC, nB2, nE3, nEb3, nCs3, nAb2, $87
	dc.b $C7, nCs3, $84, $C5, nEb3, $87, $C7, nE3
	dc.b $90, $D1, nEb3, $8B, $CC, nBb2, $87, $C7
	dc.b nEb3, $84, $C5, nF3, $87, $C7, nG3, $84
	dc.b $CC, nAb3, $C5, nAb3, $8B, $CC, nFs3, nE3
	dc.b nEb3, nCs3, nE3, $83, $C7, nEb3, $84, $C5
	dc.b nF3, $8B, $CC, nG3, nE4, nEb4, nCs4, nE4
	dc.b $87, $C7, nEb4, $84, $C5, nEb4, $8B, $CC
	dc.b nEb3, nF3, nG3, nAb3, nAb3, nBb3, nBb3, nB3
	dc.b nCs4, $83, $C4, nEb4, nB3, nAb3, $8B, $CC
	dc.b nEb3, nCs3, nEb3, nE3, nCs3, nEb3, nF3, nG3
	dc.b nEb3, nAb3, nAb3, nBb3, nBb3, $87, $C7, nB3
	dc.b $84, $C5, nB3, $8B, $CC, nAb3, nEb3, nB2
	dc.b nCs3, nEb3, nE3, nCs3, nEb3, nE3, nF3, nG3
	dc.b nAb3, nAb3, nFs3, nFs3, nE3, nE3, nEb3, nEb3
	dc.b nCs3, nAb2, nCs3, nAb2, nE3, nB2, nE3, nB2
	dc.b $87, $C7, nAb3, $84, $C5, nAb3, $8B, $CC
	dc.b nB3, nD4, $83, $C4, nB3, nBb3, nG3, $8B
	dc.b $CC, nEb3, nEb4, nEb3, nEb4, nEb3, nEb4, nEb3
	dc.b nEb4, nAb3, nEb3, nAb3, $87, $C7, nEb3, $8C
	dc.b $CC, nAb3, $84, $C5, nAb3, $8B, $CC, nEb3
	dc.b nAb3, nFs3, nE3, nB2, nE3, $87, $C7, nB2
	dc.b $8C, $CC, nE3, $84, $C5, nE3, $8B, $CC
	dc.b nB2, nE3, nEb3, nCs3, nAb2, $87, $C7, nCs3
	dc.b $84, $C5, nEb3, $87, $C7, nE3, $90, $D1
	dc.b nEb3, $8B, $CC, nBb2, $87, $C7, nEb3, $84
	dc.b $C5, nF3, $87, $C7, nG3, $84, $CC, nAb3
	dc.b $C5, nAb3, $8B, $CC, nFs3, nE3, nEb3, nCs3
	dc.b nE3, $83, $C7, nEb3, $84, $C5, nF3, $8B
	dc.b $CC, nG3, nAb3, nEb3, nAb3, $87, $C7, nEb3
	dc.b $8C, $CC, nAb3, $84, $C5, nAb3, $8B, $CC
	dc.b nEb3, nAb3, nFs3, nE3, nB2, nE3, $87, $C7
	dc.b nB2, $8C, $CC, nE3, $84, $C5, nE3, $8B
	dc.b $CC, nB2, nE3, nEb3, nCs3, nAb2, $87, $C7
	dc.b nCs3, $84, $C5, nEb3, $87, $C7, nE3, $90
	dc.b $D1, nEb3, $8B, $CC, nBb2, $87, $C7, nEb3
	dc.b $84, $C5, nF3, $87, $C7, nG3, $84, $CC
	dc.b nAb3, $C5, nAb3, $8B, $CC, nFs3, nE3, nEb3
	dc.b nCs3, nE3, $83, $C7, nEb3, $84, $C5, nF3
	dc.b $8B, $CC, nG3, nAb3, nBb3, nB3, nAb3, nE3
	dc.b nE3, nEb3, nEb3, nAb3, nBb3, nB3, nBb3, $87
	dc.b $C7, nAb3, $84, $C5, nAb3, $8B, $CC, nFs3
	dc.b nE3, nEb3, nCs3, nEb3, nE3, nAb3, nCs3, nCs3
	dc.b nEb3, nEb3, nAb2, nBb2, nB2, nEb3, $87, $C7
	dc.b nAb3, $84, $C5, nAb3, $8B, $CC, nEb3, nB2
	dc.b nAb2, nCs3, nAb3, nCs3, nAb3, nEb3, nBb3, nEb3
	dc.b nBb3, nAb3, nEb4, nAb3, nEb4, nE3, nB3, nE3
	dc.b nB3, nE3, nE3, nE3, nE3, nE3, nE3, nE3
	dc.b nE3, nEb3, nEb3, nEb3, nEb3, nEb4, nCs4, nB3
	dc.b nBb3, nAb3, nEb3, nAb3, nEb3, nE3, nE3, nEb3
	dc.b nEb3, nAb3, nEb3, nAb3, $87, $C7, nEb3, $8C
	dc.b $CC, nAb3, $84, $C5, nAb3, $8B, $CC, nFs3
	dc.b nE3, nEb3, nE3, nB2, nE3, nB2, nE3, nE3
	dc.b nEb3, nEb3, nAb3, nEb3, nAb3, $87, $C7, nEb3
	dc.b $8C, $CC, nB3, $84, $C5, nB3, $8B, $CC
	dc.b nBb3, nAb3, nE3, nEb3, nBb2, nEb3, nBb2, nE3
	dc.b nE3, nEb3, nEb3, nAb3, nEb3, nAb3, $87, $C7
	dc.b nEb3, $8C, $CC, nAb3, $84, $C5, nAb3, $8B
	dc.b $CC, nFs3, nE3, nEb3, nE3, nB2, nE3, nEb3
	dc.b nCs3, nAb2, nCs3, nAb2, nEb3, nEb4, nEb3, $87
	dc.b $C7, nEb4, $8C, $CC, nEb3, $84, $C5, nEb3
	dc.b $8B, $CC, nE3, nF3, nG3, $C0
	gLoopEnd
	; Unused
	dc.b $60

.16_05	dc.b $C0
	gsVolume	$0A
	gsPrio		$00
	gsPatch		$2A
	dc.b $8B, $CC, nE3, $82, $C7, nD3, $84, $C5
	dc.b nE3, $8B, $CC, nE3, $82, $C7, nD3, $84
	dc.b $C5, nE3, $8B, $CC, nE3, $82, $C7, nD3
	dc.b $84, $C5, nE3, $8B, $CC, nE3, $82, $C7
	dc.b nD3, $84, $C5, nE3, $8B, $CC, nE3, $82
	dc.b $C7, nD3, $84, $C5, nE3, $8B, $CC, nE3
	dc.b $82, $C7, nD3, $84, $C5, nE3, $8B, $CC
	dc.b nE3, $82, $C7, nD3, $84, $C5, nE3, $8B
	dc.b $CC, nE3, $82, $C7, nD3, $84, $C5, nE3
	dc.b $8B, $CC, nE3, $82, $C7, nD3, $84, $C5
	dc.b nE3, $8B, $CC, nE3, $82, $C7, nD3, $84
	dc.b $C5, nE3, $8B, $CC, nE3, $82, $C7, nD3
	dc.b $84, $C5, nE3, $8B, $CC, nE3, $82, $C7
	dc.b nD3, $84, $C5, nE3, $8B, $CC, nE3, $82
	dc.b $C7, nD3, $84, $C5, nE3, $8B, $CC, nE3
	dc.b $82, $C7, nD3, $84, $C5, nE3, $8B, $CC
	dc.b nE3, $82, $C7, nD3, $84, $C5, nE3, $8B
	dc.b $CC, nE3, $82, $C7, nD3, $84, $C5, nE3
	gLoopStart
	dc.b $C0
	gNop
	dc.b $8B, $CC, nE3, $82, $C7, nD3, $84, $C5
	dc.b nE3, $8B, $CC, nE3, $82, $C7, nD3, $84
	dc.b $C5, nE3, $8B, $CC, nE3, $82, $C7, nD3
	dc.b $84, $C5, nE3, $8B, $CC, nE3, $82, $C7
	dc.b nD3, $84, $C5, nE3, $8B, $CC, nE3, $82
	dc.b $C7, nD3, $84, $C5, nE3, $8B, $CC, nE3
	dc.b $82, $C7, nD3, $84, $C5, nE3, $8B, $CC
	dc.b nE3, $82, $C7, nD3, $84, $C5, nE3, $8B
	dc.b $CC, nE3, $82, $C7, nD3, $84, $C5, nE3
	dc.b $8B, $CC, nE3, $82, $C7, nD3, $84, $C5
	dc.b nE3, $8B, $CC, nE3, $82, $C7, nD3, $84
	dc.b $C5, nE3, $8B, $CC, nE3, $82, $C7, nD3
	dc.b $84, $C5, nE3, $8B, $CC, nE3, $82, $C7
	dc.b nD3, $84, $C5, nE3, $8B, $CC, nE3, $82
	dc.b $C7, nD3, $84, $C5, nE3, $8B, $CC, nE3
	dc.b $82, $C7, nD3, $84, $C5, nE3, $8B, $CC
	dc.b nE3, $82, $C7, nD3, $84, $C5, nE3, $8B
	dc.b $CC, nE3, $82, $C7, nD3, $84, $C5, nE3
	dc.b $8B, $CC, nE3, $82, $C7, nD3, $84, $C5
	dc.b nE3, $8B, $CC, nE3, $82, $C7, nD3, $84
	dc.b $C5, nE3, $8B, $CC, nE3, $82, $C7, nD3
	dc.b $84, $C5, nE3, $8B, $CC, nE3, $82, $C7
	dc.b nD3, $84, $C5, nE3, $8B, $CC, nE3, $82
	dc.b $C7, nD3, $84, $C5, nE3, $8B, $CC, nE3
	dc.b $82, $C7, nD3, $84, $C5, nE3, $8B, $CC
	dc.b nE3, $82, $C7, nD3, $84, $C5, nE3, $8B
	dc.b $CC, nE3, $82, $C7, nD3, $84, $C5, nE3
	dc.b $8B, $CC, nE3, $82, $C7, nD3, $84, $C5
	dc.b nE3, $8B, $CC, nE3, $82, $C7, nD3, $84
	dc.b $C5, nE3, $8B, $CC, nE3, $82, $C7, nD3
	dc.b $84, $C5, nE3, $8B, $CC, nE3, $82, $C7
	dc.b nD3, $84, $C5, nE3, $8B, $CC, nE3, $82
	dc.b $C7, nD3, $84, $C5, nE3, $8B, $CC, nE3
	dc.b $82, $C7, nD3, $84, $C5, nE3, $8B, $CC
	dc.b nE3, $82, $C7, nD3, $84, $C5, nE3, $8B
	dc.b $CC, nE3, $82, $C7, nD3, $84, $C5, nE3
	dc.b $8B, $CC, nE3, $82, $C7, nD3, $84, $C5
	dc.b nE3, $8B, $CC, nE3, $82, $C7, nD3, $84
	dc.b $C5, nE3, $8B, $CC, nE3, $82, $C7, nD3
	dc.b $84, $C5, nE3, $8B, $CC, nE3, $82, $C7
	dc.b nD3, $84, $C5, nE3, $8B, $CC, nE3, $82
	dc.b $C7, nD3, $84, $C5, nE3, $8B, $CC, nE3
	dc.b $82, $C7, nD3, $84, $C5, nE3, $8B, $CC
	dc.b nE3, $82, $C7, nD3, $84, $C5, nE3, $8B
	dc.b $CC, nE3, $82, $C7, nD3, $84, $C5, nE3
	dc.b $8B, $CC, nE3, $82, $C7, nD3, $84, $C5
	dc.b nE3, $8B, $CC, nE3, $82, $C7, nD3, $84
	dc.b $C5, nE3, $8B, $CC, nE3, $82, $C7, nD3
	dc.b $84, $C5, nE3, $8B, $CC, nE3, $82, $C7
	dc.b nD3, $84, $C5, nE3, $8B, $CC, nE3, $82
	dc.b $C7, nD3, $84, $C5, nE3, $8B, $CC, nE3
	dc.b $82, $C7, nD3, $84, $C5, nE3, $8B, $CC
	dc.b nE3, $82, $C7, nD3, $84, $C5, nE3, $8B
	dc.b $CC, nE3, $82, $C7, nD3, $84, $C5, nE3
	dc.b $8B, $CC, nE3, $82, $C7, nD3, $84, $C5
	dc.b nE3, $8B, $CC, nE3, $82, $C7, nD3, $84
	dc.b $C5, nE3, $8B, $CC, nE3, $82, $C7, nD3
	dc.b $84, $C5, nE3, $8B, $CC, nE3, $82, $C7
	dc.b nD3, $84, $C5, nE3, $8B, $CC, nE3, $82
	dc.b $C7, nD3, $84, $C5, nE3, $8B, $CC, nE3
	dc.b $82, $C7, nD3, $84, $C5, nE3, $8B, $CC
	dc.b nE3, $82, $C7, nD3, $84, $C5, nE3, $8B
	dc.b $CC, nE3, $82, $C7, nD3, $84, $C5, nE3
	dc.b $8B, $CC, nE3, $82, $C7, nD3, $84, $C5
	dc.b nE3, $8B, $CC, nE3, $82, $C7, nD3, $84
	dc.b $C5, nE3, $8B, $CC, nE3, $82, $C7, nD3
	dc.b $84, $C5, nE3, $8B, $CC, nE3, $82, $C7
	dc.b nD3, $84, $C5, nE3, $8B, $CC, nE3, $82
	dc.b $C7, nD3, $84, $C5, nE3, $8B, $CC, nE3
	dc.b $82, $C7, nD3, $84, $C5, nE3, $8B, $CC
	dc.b nE3, $82, $C7, nD3, $84, $C5, nE3, $8B
	dc.b $CC, nE3, $82, $C7, nD3, $84, $C5, nE3
	dc.b $8B, $CC, nE3, $82, $C7, nD3, $84, $C5
	dc.b nE3, $8B, $CC, nE3, $82, $C7, nD3, $84
	dc.b $C5, nE3, $8B, $CC, nE3, $82, $C7, nD3
	dc.b $84, $C5, nE3, $8B, $CC, nE3, $82, $C7
	dc.b nD3, $84, $C5, nE3, $8B, $CC, nE3, $82
	dc.b $C7, nD3, $84, $C5, nE3, $8B, $CC, nE3
	dc.b $82, $C7, nD3, $84, $C5, nE3, $8B, $CC
	dc.b nE3, $82, $C7, nD3, $84, $C5, nE3, $8B
	dc.b $CC, nE3, $82, $C7, nD3, $84, $C5, nE3
	dc.b $8B, $CC, nE3, $82, $C7, nD3, $84, $C5
	dc.b nE3, $8B, $CC, nE3, $82, $C7, nD3, $84
	dc.b $C5, nE3, $8B, $CC, nE3, $82, $C7, nD3
	dc.b $84, $C5, nE3, $8B, $CC, nE3, $82, $C7
	dc.b nD3, $84, $C5, nE3, $8B, $CC, nE3, $82
	dc.b $C7, nD3, $84, $C5, nE3, $8B, $CC, nE3
	dc.b $82, $C7, nD3, $84, $C5, nE3, $8B, $CC
	dc.b nE3, $82, $C7, nD3, $84, $C5, nE3, $8B
	dc.b $CC, nE3, $82, $C7, nD3, $84, $C5, nE3
	dc.b $8B, $CC, nE3, $82, $C7, nD3, $84, $C5
	dc.b nE3, $8B, $CC, nE3, $82, $C7, nD3, $84
	dc.b $C5, nE3, $8B, $CC, nE3, $82, $C7, nD3
	dc.b $84, $C5, nE3, $8B, $CC, nE3, $82, $C7
	dc.b nD3, $84, $C5, nE3, $8B, $CC, nE3, $82
	dc.b $C7, nD3, $84, $C5, nE3, $8B, $CC, nE3
	dc.b $82, $C7, nD3, $84, $C5, nE3, $8B, $CC
	dc.b nE3, $82, $C7, nD3, $84, $C5, nE3, $8B
	dc.b $CC, nE3, $82, $C7, nD3, $84, $C5, nE3
	dc.b $8B, $CC, nE3, $82, $C7, nD3, $84, $C5
	dc.b nE3, $8B, $CC, nE3, $82, $C7, nD3, $84
	dc.b $C5, nE3, $8B, $CC, nE3, $82, $C7, nD3
	dc.b $84, $C5, nE3, $8B, $CC, nE3, $82, $C7
	dc.b nD3, $84, $C5, nE3, $8B, $CC, nE3, $82
	dc.b $C7, nD3, $84, $C5, nE3, $8B, $CC, nE3
	dc.b $82, $C7, nD3, $84, $C5, nE3, $8B, $CC
	dc.b nE3, $82, $C7, nD3, $84, $C5, nE3, $8B
	dc.b $CC, nE3, $82, $C7, nD3, $84, $C5, nE3
	dc.b $8B, $CC, nE3, $82, $C7, nD3, $84, $C5
	dc.b nE3, $8B, $CC, nE3, $82, $C7, nD3, $84
	dc.b $C5, nE3, $8B, $CC, nE3, $82, $C7, nD3
	dc.b $84, $C5, nE3, $8B, $CC, nE3, $82, $C7
	dc.b nD3, $84, $C5, nE3, $8B, $CC, nE3, $82
	dc.b $C7, nD3, $84, $C5, nE3, $8B, $CC, nE3
	dc.b $82, $C7, nD3, $84, $C5, nE3, $8B, $CC
	dc.b nE3, $82, $C7, nD3, $84, $C5, nE3, $8B
	dc.b $CC, nE3, $82, $C7, nD3, $84, $C5, nE3
	dc.b $8B, $CC, nE3, $82, $C7, nD3, $84, $C5
	dc.b nE3, $8B, $CC, nE3, $82, $C7, nD3, $84
	dc.b $C5, nE3, $8B, $CC, nE3, $82, $C7, nD3
	dc.b $84, $C5, nE3, $8B, $CC, nE3, $82, $C7
	dc.b nD3, $84, $C5, nE3, $8B, $CC, nE3, $82
	dc.b $C7, nD3, $84, $C5, nE3, $8B, $CC, nE3
	dc.b $82, $C7, nD3, $84, $C5, nE3, $8B, $CC
	dc.b nE3, $82, $C7, nD3, $84, $C5, nE3, $8B
	dc.b $CC, nE3, $82, $C7, nD3, $84, $C5, nE3
	dc.b $8B, $CC, nE3, $82, $C7, nD3, $84, $C5
	dc.b nE3, $8B, $CC, nE3, $82, $C7, nD3, $84
	dc.b $C5, nE3, $8B, $CC, nE3, $82, $C7, nD3
	dc.b $84, $C5, nE3, $8B, $CC, nE3, $82, $C7
	dc.b nD3, $84, $C5, nE3, $8B, $CC, nE3, $82
	dc.b $C7, nD3, $84, $C5, nE3, $8B, $CC, nE3
	dc.b $82, $C7, nD3, $84, $C5, nE3, $8B, $CC
	dc.b nE3, $82, $C7, nD3, $84, $C5, nE3, $8B
	dc.b $CC, nE3, $82, $C7, nD3, $84, $C5, nE3
	dc.b $8B, $CC, nE3, $82, $C7, nD3, $84, $C5
	dc.b nE3, $8B, $CC, nE3, $82, $C7, nD3, $84
	dc.b $C5, nE3, $8B, $CC, nE3, $82, $C7, nD3
	dc.b $84, $C5, nE3, $8B, $CC, nE3, $82, $C7
	dc.b nD3, $84, $C5, nE3, $8B, $CC, nE3, $82
	dc.b $C7, nD3, $84, $C5, nE3, $8B, $CC, nE3
	dc.b $82, $C7, nD3, $84, $C5, nE3, $8B, $CC
	dc.b nE3, $82, $C7, nD3, $84, $C5, nE3, $8B
	dc.b $CC, nE3, $82, $C7, nD3, $84, $C5, nE3
	dc.b $8B, $CC, nE3, $82, $C7, nD3, $84, $C5
	dc.b nE3, $8B, $CC, nE3, $82, $C7, nD3, $84
	dc.b $C5, nE3, $8B, $CC, nE3, $82, $C7, nD3
	dc.b $84, $C5, nE3, $8B, $CC, nE3, $82, $C7
	dc.b nD3, $84, $C5, nE3, $8B, $CC, nE3, $82
	dc.b $C7, nD3, $84, $C5, nE3, $8B, $CC, nE3
	dc.b $82, $C7, nD3, $84, $C5, nE3, $8B, $CC
	dc.b nE3, $82, $C7, nD3, $84, $C5, nE3, $8B
	dc.b $CC, nE3, $82, $C7, nD3, $84, $C5, nE3
	dc.b $8B, $CC, nE3, $82, $C7, nD3, $84, $C5
	dc.b nE3, $8B, $CC, nE3, $82, $C7, nD3, $84
	dc.b $C5, nE3, $8B, $CC, nE3, $82, $C7, nD3
	dc.b $84, $C5, nE3, $8B, $CC, nE3, $82, $C7
	dc.b nD3, $84, $C5, nE3, $8B, $CC, nE3, $82
	dc.b $C7, nD3, $84, $C5, nE3, $8B, $CC, nE3
	dc.b $82, $C7, nD3, $84, $C5, nE3, $8B, $CC
	dc.b nE3, $82, $C7, nD3, $84, $C5, nE3, $8B
	dc.b $CC, nE3, $82, $C7, nD3, $84, $C5, nE3
	dc.b $8B, $CC, nE3, $82, $C7, nD3, $84, $C5
	dc.b nE3, $8B, $CC, nE3, $82, $C7, nD3, $84
	dc.b $C5, nE3, $8B, $CC, nE3, $82, $C7, nD3
	dc.b $84, $C5, nE3, $8B, $CC, nE3, $82, $C7
	dc.b nD3, $84, $C5, nE3, $8B, $CC, nE3, $82
	dc.b $C7, nD3, $84, $C5, nE3, $8B, $CC, nE3
	dc.b $82, $C7, nD3, $84, $C5, nE3, $8B, $CC
	dc.b nE3, $82, $C7, nD3, $84, $C5, nE3, $8B
	dc.b $CC, nE3, $82, $C7, nD3, $84, $C5, nE3
	dc.b $8B, $CC, nE3, $82, $C7, nD3, $84, $C5
	dc.b nE3, $8B, $CC, nE3, $82, $C7, nD3, $84
	dc.b $C5, nE3, $8B, $CC, nE3, $82, $C7, nD3
	dc.b $84, $C5, nE3, $8B, $CC, nE3, $82, $C7
	dc.b nD3, $84, $C5, nE3, $8B, $CC, nE3, $82
	dc.b $C7, nD3, $84, $C5, nE3, $8B, $CC, nE3
	dc.b $82, $C7, nD3, $84, $C5, nE3, $8B, $CC
	dc.b nE3, $82, $C7, nD3, $84, $C5, nE3, $8B
	dc.b $CC, nE3, $82, $C7, nD3, $84, $C5, nE3
	dc.b $8B, $CC, nE3, $82, $C7, nD3, $84, $C5
	dc.b nE3, $8B, $CC, nE3, $82, $C7, nD3, $84
	dc.b $C5, nE3, $C0
	gLoopEnd
	; Unused
	dc.b $60

.17_00	dc.b $CC
	gsVolumeAll	$07
	gsVolumeAll	$11
	gsVolumeAll	$1B
	gsVolumeAll	$25
	gsVolumeAll	$34
	gsVolumeAll	$4D
	dc.b $C0
	gsVolumeAll	$7F
	gStop

.18_00	dc.b $C0
	gsVolumeAll	$00
	gStop

.19_00	dc.b $D8
	gsVolumeAll	$7F
	gsVolumeAll	$4D
	gsVolumeAll	$1B
	gsVolumeAll	$11
	gsVolumeAll	$0C
	gsVolumeAll	$07
	dc.b $C0
	gsVolumeAll	$00
	gStop

.1A_00	dc.b $C0
	gsPrio		$0C
	gsTempo		135
	dc.b $C2, $C4
	gsPatch		$4B
	dc.b $8B, $CC, nAb3, nF4, nFs3, nEb4, nF3, $81
	dc.b $9F, $E6, $C4, nCs4, $8B, $CC, nF3, $97
	dc.b $D8, nFs3, nBb3, $82, $83, $C2, $C4, nAb3
	dc.b $8B, $CC, nF3, $97, $D8, nFs3, nBb3, nAb3
	dc.b $8B, $CC, nEb3, $97, $D8, nFs3, $8B, $CC
	dc.b nF3, $81, $87, $C1, $C8, nF3, $8F, $D0
	dc.b nF3, nFs3, nAb3, $97, $D8, nC4, $8B, $CC
	dc.b nBb3, $AF, $F0, nAb3, $8B, $CC, nCs3, nC4
	dc.b $97, $D8, nCs4, $AF, $F0, nAb3, $8B, $CC
	dc.b nCs3, $97, $D8, nF3, nEb3, nCs3, nEb3, nFs3
	dc.b nF3, nCs3, nC3, $82, $9B, $C3, $C0, nCs3
	dc.b $97, $D8, nAb3, $8B, $CC, nFs3, $97, $D8
	dc.b nA3, $8B, $CC, nAb3, $97, $D8, nE3, $81
	dc.b $87, $C1, $E0, nB2, $97, $D8, nAb3, $8B
	dc.b $CC, nFs3, $97, $D8, nA3, $8B, $CC, nAb3
	dc.b $97, $D8, nE3, $AF, $F0, nAb3, nFs3, $97
	dc.b $D8, nFs3, $8B, $CC, nF3, $97, $D8, nAb3
	dc.b nFs3, $8B, $CC, nEb3, $97, $D8, nFs3, nE3
	dc.b nEb3, nE3, $8B, $CC, nCs3, $97, $D8, nEb3
	dc.b nFs3, nE3, $AF, $F0, nAb3, $8B, $CC, nAb3
	dc.b nA3, $97, $D8, nCs4, $8B, $CC, nB3, $82
	dc.b $83, $C2, $C4, nB3, $8B, $CC, nAb3, $97
	dc.b $D8, nA3, nCs4, nB3, $8B, $CC, nFs3, $AF
	dc.b $F0, nA3, $8B, $CC, nAb3, $AF, $F0, nAb3
	dc.b $8F, $D0, nAb3, nA3, nB3, $97, $D8, nEb4
	dc.b $8B, $CC, nCs4, $AF, $F0, nB3, $8B, $CC
	dc.b nE3, $97, $D8, nEb4, $8B, $CC, nCs4, $AF
	dc.b $F0, nB3, $8B, $CC, nE3, $97, $D8, nAb3
	dc.b nFs3, nE3, nFs3, nA3, nAb3, nE3, nCs3, nFs3
	dc.b $8B, $CC, nAb3, nAb3, $8F, $D0, nAb3, nFs3
	dc.b nE3, $81, $9F, $C1, $F0, nB2, $8F, $D0
	dc.b nAb3, nAb3, nAb3, nFs3, nE3, $8B, $CC, nFs3
	dc.b nE3, $90, $D8, nE3, $8F, $D0, nAb3, nA3
	dc.b nB3, $97, $D8, nEb4, $8B, $CC, nCs4, $AF
	dc.b $F0, nB3, $8B, $CC, nE3, $97, $D8, nEb4
	dc.b $8B, $CC, nE4, $BB, $FC, nB3, $97, $D8
	dc.b nAb3, nFs3, nE3, nFs3, nA3, nAb3, nE3, $8B
	dc.b $CC, nEb3, nEb3, $81, $B7, $C3, $E4, nE3
	dc.b $8B, $CC, nAb3, $97, $D8, nA3, $8B, $CC
	dc.b nCs4, nB3, $82, $83, $C2, $C4, nB3, $8B
	dc.b $CC, nAb3, $97, $D8, nA3, nCs4, $81, $9F
	dc.b $C2, $C4, nB3, $8B, $CC, nAb3, $97, $D8
	dc.b nA3, nCs4, $E4, nB3, $8B, $CC, nB2, $97
	dc.b $D8, nAb3, $8B, $CC, nFs3, nE3, $84, $9F
	dc.b $C4, $DF, nE3
	gStop

.1A_01	dc.b $C0
	gsPrio		$14
	dc.b $C6, $C0
	gsPatch		$4C
	dc.b $97, $D8, nF4, $8B, $CC, nEb4, $97, $D8
	dc.b nFs4, $8B, $CC, nF4, $97, $D8, nCs4, $81
	dc.b $9F, $C1, $E0, nAb3, $97, $D8, nF4, $8B
	dc.b $CC, nEb4, $97, $D8, nFs4, $8B, $CC, nF4
	dc.b $97, $D8, nCs4, $AF, $F0, nF4, nEb4, $97
	dc.b $D8, nEb4, $8B, $CC, nD4, $97, $D8, nF4
	dc.b nEb4, $8B, $CC, nC4, $97, $D8, nEb4, nCs4
	dc.b nC4, nCs4, $8B, $CC, nBb3, $97, $D8, nC4
	dc.b $AF, $F0, nEb4, $8B, $CC, nCs4, $81, $9F
	dc.b $C1, $E0, nAb3, $97, $D8, nF4, $8B, $CC
	dc.b nEb4, $97, $D8, nFs4, $8B, $CC, nF4, $97
	dc.b $D8, nCs4, $81, $9F, $C1, $E0, nAb3, $97
	dc.b $D8, nF4, $8B, $CC, nEb4, $97, $D8, nFs4
	dc.b $8B, $CC, nF4, $97, $D8, nCs4, $AF, $F0
	dc.b nF4, nEb4, $97, $D8, nEb4, $8B, $CC, nD4
	dc.b $97, $D8, nF4, nEb4, $8B, $CC, nC4, $97
	dc.b $D8, nEb4, nCs4, nC4, nCs4, $8B, $CC, nBb3
	dc.b $97, $D8, nC4, nEb4, nCs4, $AF, $F0, nF4
	dc.b $8B, $CC, nF4, $97, $D8, nFs4, nBb4, $82
	dc.b $83, $C2, $C4, nAb4, $8B, $CC, nF4, $97
	dc.b $D8, nFs4, nBb4, $8B, $CC, nAb4, $97, $D8
	dc.b nEb4, nFs4, nF4, $BB, $FC, nF4, $8F, $D0
	dc.b nF4, nFs4, nAb4, $97, $D8, nC5, nBb4, $A3
	dc.b $E4, nAb4, $8B, $CC, nCs4, $97, $D8, nC5
	dc.b $8B, $CC, nCs5, $AF, $F0, nAb4, $8B, $CC
	dc.b nCs4, $97, $D8, nF4, $8B, $CC, nEb4, $97
	dc.b $D8, nCs4, nBb3, $95, $D6, nCs4, $99, $CD
	dc.b $D6, nEb4, $8B, $CC, nCs4, $97, $D8, nEb4
	dc.b nFs4, nF4, nBb4, nAb4, nEb5, $9B, $DC, nCs5
	dc.b $81, $A7, $CC, $E0, nB4, $8B, $CC, nAb4
	dc.b nAb4, $8F, $D0, nAb4, nFs4, nE4, $81, $9F
	dc.b $C1, $F8, nB3, $8B, $CC, nAb4, nAb4, $8F
	dc.b $D0, nAb4, nFs4, nE4, $8B, $CC, nFs4, $A3
	dc.b $C6, $D8, nE4, $8B, $CC, nAb4, $97, $D8
	dc.b nA4, nCs5, $82, $83, $C2, $C4, nB4, $8B
	dc.b $CC, nAb4, nA4, $97, $D8, nCs5, $8B, $CC
	dc.b nB4, $8F, $D0, nB4, $9F, $E0, nFs4, nA4
	dc.b $8F, $D0, nAb4, $AF, $F0, nAb4, $8F, $D0
	dc.b nE4, nFs4, nAb4, $97, $D8, nB4, $8B, $CC
	dc.b nA4, $AF, $F0, nAb4, $8B, $CC, nE4, $97
	dc.b $D8, nB4, $8B, $CC, nCs5, $BB, $FC, nAb4
	dc.b $97, $D8, nB4, nB4, nBb4, nBb4, nD5, $8B
	dc.b $CC, nD5, nB4, $97, $D8, nB4, nA4, $81
	dc.b $B7, $C2, $C4, nAb4, $8B, $CC, nAb4, $97
	dc.b $D8, nA4, nCs5, $82, $83, $C2, $C4, nB4
	dc.b $8B, $CC, nAb4, $97, $D8, nA4, nCs5, $82
	dc.b $83, $C2, $C4, nB4, $8B, $CC, nAb4, $97
	dc.b $D8, nA4, nCs5, $A3, $C2, $C4, nB4, $8B
	dc.b $CC, nB3, $97, $D8, nAb4, nFs4, $84, $9F
	dc.b $C4, $DF, nAb4
	gStop

.1A_02	dc.b $C0
	gsPrio		$19
	gsPatch		$07
	dc.b $81, $9F, $CC, nCs3, $8B, nAb3, nEb4, $BB
	dc.b $FC, nF4, $81, $9F, $CC, nCs3, $8B, nAb3
	dc.b nEb4, $BB, $FC, nF4, $81, $9F, $CC, nCs3
	dc.b $8B, nAb3, nEb4, $BB, $FC, nF4, $81, $9F
	dc.b $CC, nCs3, $8B, nAb3, nEb4, $BB, $FC, nF4
	dc.b $97, $C0, nF5, nAb4, $81, $9F, $CC, nCs3
	dc.b $8B, nAb3, $C0, nEb5, nFs4, $81, $87, $CC
	dc.b nCs4, $97, $C0, nFs5, $D8, nBb4, $8B, $C0
	dc.b nF5, $CC, nAb4, $97, $C0, nCs5, $D8, nFs4
	dc.b $81, $9F, $C0, nAb4, $A4, nF4, $81, $9F
	dc.b $CC, nCs3, $8B, nAb3, nEb4, $BB, $FC, nF4
	dc.b $97, $C0, nF5, nAb4, $81, $9F, $CC, nCs3
	dc.b $8B, nAb3, $C0, nEb5, nFs4, $81, $87, $CC
	dc.b nCs4, $97, $C0, nFs5, $D8, nBb4, $8B, $C0
	dc.b nF5, $CC, nAb4, $97, $C0, nCs5, $D8, nFs4
	dc.b $AF, $C0, nCs5, nF5, nAb4, $F0, nBb3, $C0
	dc.b nEb5, nAb4, $F0, nC4, $A3, $C0, nBb4, $97
	dc.b nEb5, $A3, $D8, nFs3, $8B, $CC, nD5, $BB
	dc.b $C0, nA4, $97, nF5, $A3, $D8, nF3, $8B
	dc.b $CC, nEb5, $97, $C0, nC5, $D8, nA3, $C0
	dc.b nEb5, nC5, $AF, $D8, nBb3, $97, $C0, nCs5
	dc.b $D8, nBb4, $C0, nC5, nAb4, $AF, $D8, nAb3
	dc.b $97, $C0, nCs5, $D8, nBb4, $81, $9F, $C0
	dc.b nFs3, $8B, nBb4, $98, $CC, nFs4, $97, $C0
	dc.b nC5, $8B, $CC, nCs4, nFs4, $97, $C0, nEb5
	dc.b $B0, $CC, nAb4, $8B, nBb4, $97, nCs5, nFs5
	dc.b $8B, nAb4, $A3, $C0, nEb5, $81, $87, nCs3
	dc.b $E4, nF4, $8B, $CC, nAb4, $97, $D8, nCs5
	dc.b $C0, nC5, nEb5, nAb4, $D8, nAb3, $81, $9F
	dc.b $C0, nCs3, $97, nAb4, $CC, nF5, $8B, nAb3
	dc.b $81, $87, $C0, nCs4, $8B, nFs4, $CC, nEb5
	dc.b $97, $C0, nBb4, $D8, nFs5, $8B, $C0, nAb4
	dc.b $CC, nF5, $97, $C0, nFs4, $D8, nCs5, $81
	dc.b $9F, $C0, nCs3, $A4, nF4, $81, $9F, $CC
	dc.b nAb4, $8B, nAb3, nEb4, $BB, $FC, nF4, $81
	dc.b $9F, $C0, nCs3, $97, nAb4, $CC, nF5, $8B
	dc.b nAb3, $81, $87, $C0, nCs4, $8B, nFs4, $CC
	dc.b nEb5, $97, $C0, nBb4, $D8, nFs5, $8B, $C0
	dc.b nAb4, $CC, nF5, $97, $C0, nFs4, $D8, nCs5
	dc.b $AF, $C0, nBb3, nAb4, nF5, $F0, nCs5, $C0
	dc.b nC4, nAb4, $F0, nEb5, $A3, $C0, nFs3, $97
	dc.b nEb5, $A3, $D8, nBb4, $8B, $CC, nD5, $A3
	dc.b $C0, nF3, $97, nF5, $BB, $D8, nA4, $8B
	dc.b $CC, nEb5, $97, $C0, nA3, $D8, nC5, $81
	dc.b $9F, $C0, nF4, $AF, nBb3, $97, $D8, nEb5
	dc.b nCs5, $AF, $C0, nAb3, $97, $D8, nC5, nCs5
	dc.b $8B, $C0, nBb4, $81, $9F, $CC, nFs3, $97
	dc.b $C0, nC5, $8B, $CC, nCs4, $81, $87, nFs4
	dc.b $BB, $C0, nBb4, $97, $D8, nEb5, nCs5, $AF
	dc.b $C0, nF5, $CC, nCs5, $81, $9F, nCs3, $8B
	dc.b nAb3, $81, $87, nCs4, $8B, $C0, nF5, $CC
	dc.b nCs5, $97, $C0, nFs5, $D8, nEb5, $C0, nBb5
	dc.b $D8, nFs5, $8B, $C0, nC5, $A3, $CC, nAb3
	dc.b $8B, nAb4, nC5, $C0, nCs5, $CC, nBb3, $97
	dc.b $C0, nEb5, $D8, nC4, $C0, nAb4, $D8, nAb3
	dc.b $A3, $C0, nCs5, $81, $9F, $CC, nCs3, $8B
	dc.b nAb3, $81, $87, nCs4, $8B, nCs5, $97, $D8
	dc.b nEb5, nFs5, $A3, $C0, nC5, nAb4, $E4, nAb3
	dc.b $BB, $C0, nC5, nAb4, $A3, $E4, nC4, $97
	dc.b $D8, nAb3, $C0, nEb5, $81, $9F, $D8, nCs4
	dc.b $97, nAb4, $8F, $C0, nF5, $D0, nCs5, nFs5
	dc.b nAb5, $97, $C0, nAb5, $8B, $CC, nFs3, nCs4
	dc.b $97, $C0, nFs5, $D8, nFs4, $C0, nEb5, $AF
	dc.b $D8, nF4, $97, nCs5, $C0, nAb5, $8B, $CC
	dc.b nFs3, nCs4, $97, $C0, nFs5, $D8, nFs4, $C0
	dc.b nEb5, $AF, $D8, nF4, $97, nCs5, $8B, $C0
	dc.b nF5, $A4, nCs5, $AF, nAb4, $CC, nBb3, $97
	dc.b $D8, nEb5, $8B, $CC, nCs5, $97, $C0, nAb4
	dc.b $AF, $D8, nEb4, $97, $C0, nBb4, nG4, $D8
	dc.b nCs5, $C0, nFs4, nBb4, $A3, nEb5, $81, $9F
	dc.b $D8, nAb3, $81, $87, $CC, nFs4, $8B, $C0
	dc.b nF5, $CC, nCs5, $97, $C0, nEb5, $D8, nFs5
	dc.b $C0, nFs5, $D8, nBb5, $8B, $C0, nC5, $A3
	dc.b $CC, nAb3, $8B, nAb4, nC5, $C0, nCs5, $CC
	dc.b nBb3, $97, $C0, nEb5, $D8, nC4, $C0, nAb4
	dc.b $D8, nAb3, $A3, $C0, nCs5, $81, $9F, $CC
	dc.b nCs3, $8B, nAb3, $81, $87, nCs4, $8B, nCs5
	dc.b $97, $D8, nEb5, nFs5, $8B, $C0, nEb5, nAb5
	dc.b nC5, $A3, $CC, nAb3, $97, $D8, nEb5, $C0
	dc.b nEb5, nFs5, nC5, $A3, $D8, nA3, $8B, $CC
	dc.b nF5, $97, nA3, $8C, $C0, nEb5, nC5, $BB
	dc.b $CC, nF5, $AF, $C0, nCs5, nBb4, $F0, nBb3
	dc.b $8F, $C0, nF5, $AF, nB4, nCs4, $D0, nCs3
	dc.b $8F, nFs5, nAb5, $97, $C0, nAb5, nC6, $8B
	dc.b $CC, nFs3, nCs4, $97, $C0, nFs5, nBb5, $D8
	dc.b nFs4, $C0, nEb5, $A3, nAb5, $AF, $D8, nF4
	dc.b $8B, $CC, nCs5, nCs5, $97, $C0, nC6, nAb5
	dc.b $8B, $CC, nFs3, nCs4, $97, $C0, nCs6, nBb5
	dc.b $D8, nFs4, $C0, nEb5, $A3, nAb5, $AF, $D8
	dc.b nF4, $8B, $CC, nCs5, nCs5, $97, $C0, nF5
	dc.b nCs5, $AF, nBb3, $D8, nF4, $97, $C0, nEb5
	dc.b $D8, nAb4, $C0, nCs5, nAb4, $AF, $D8, nEb3
	dc.b $97, $C0, nG4, $D8, nEb5, $C0, nFs5, nEb5
	dc.b $AF, $D8, nB3, $97, nF5, $AF, $C0, nAb3
	dc.b $97, nCs5, $AF, $D8, nFs4, $97, nC5, $8B
	dc.b $C0, nCs5, $81, $9F, $CC, nCs3, $97, $C0
	dc.b nEb5, $8B, $CC, nAb3, nEb4, $97, $C0, nFs5
	dc.b $BB, $D8, nF4, $97, nF5, $CC, nBb5, $81
	dc.b $9F, nCs3, $97, $C0, nAb5, $8B, $CC, nAb3
	dc.b nEb4, $A3, $C0, nEb6, $BB, $E4, nF4, $97
	dc.b $D8, nCs6, $C0, nB4, $81, $9F, $CC, nE3
	dc.b $8B, nB3, $C0, nA4, $81, $87, $CC, nE4
	dc.b $97, $D8, nCs5, $8B, $CC, nB4, $97, $D8
	dc.b nA4, $81, $87, $C0, nAb4, $81, $9F, $CC
	dc.b nE3, $8B, nB3, nE4, $BB, $FC, nFs4, $97
	dc.b $C0, nB4, $81, $9F, $CC, nE3, $8B, nB3
	dc.b $C0, nA4, $81, $87, $CC, nE4, $97, $D8
	dc.b nCs5, $8B, $CC, nB4, $97, $D8, nAb4, $AF
	dc.b $C0, nB4, $F0, nCs4, $C0, nB4, $F0, nEb4
	dc.b $C0, nCs5, $F0, nA3, $97, $C0, nCs5, $AF
	dc.b $D8, nAb3, $97, nC5, $C0, nEb5, $AF, $D8
	dc.b nCs4, $97, nCs5, $AF, $C0, nAb4, $F0, nB3
	dc.b $81, $9F, $C0, nCs5, $CC, nA3, $8B, nE4
	dc.b $81, $87, $C1, $C8, nA4, $A3, $C0, nB4
	dc.b $81, $9F, $CC, nE3, $8B, nB3, $81, $87
	dc.b nE4, $8B, nB4, $97, $D8, nFs5, nA5, $81
	dc.b $9F, $C0, nEb5, $A3, $E4, nB3, $8B, $CC
	dc.b nCs4, $97, $D8, nEb4, nB3, $A3, $C0, nAb4
	dc.b $81, $9F, $CC, nE3, $8B, nB3, $81, $87
	dc.b nE4, $8B, nE5, $97, $D8, nFs5, nA5, $81
	dc.b $9F, $C0, nEb5, $A3, $E4, nB3, nEb4, $97
	dc.b $D8, nB3, $81, $87, $F0, nE4, $AF, $D8
	dc.b nE5, $97, nE4, $C0, nB5, $8B, $CC, nA3
	dc.b nE4, $97, $C0, nA5, $D8, nA4, $C0, nFs5
	dc.b $AF, $D8, nAb4, $97, nE5, $C0, nB5, $8B
	dc.b $CC, nA3, nE4, $97, $C0, nA5, $D8, nA4
	dc.b $C0, nFs5, $AF, $D8, nAb4, $97, nE5, $AF
	dc.b $C0, nB4, $F0, nCs4, $97, $C0, nB4, $AF
	dc.b $D8, nFs3, $97, nBb4, $81, $9F, $C0, nCs5
	dc.b $CC, nB3, $8B, nE4, $81, $87, $C1, $C8
	dc.b nA4, $81, $9F, $C0, nEb5, $A3, $E4, nB3
	dc.b $8B, $CC, nCs4, $97, $D8, nEb4, nB3, $A3
	dc.b $C0, nB4, $81, $9F, $CC, nE3, $8B, nB3
	dc.b $81, $87, nE4, $8B, nE5, $97, $D8, nFs5
	dc.b nA5, $AF, $C0, nEb5, $F0, nB3, $C0, nEb5
	dc.b nA4, $F0, nC4, $C0, nCs5, nCs4, $F0, nAb4
	dc.b $C0, nD5, nE5, $F0, nB3, $97, $C0, nB5
	dc.b $8B, $CC, nA3, nE4, $97, $C0, nA5, $D8
	dc.b nA4, $C0, nFs5, $AF, $D8, nAb4, $97, nE5
	dc.b $C0, nB5, $8B, $CC, nA3, nE4, $97, $C0
	dc.b nCs6, $D8, nA4, $C0, nFs5, $AF, $D8, nAb4
	dc.b $97, nE5, $81, $87, $C0, nB4, nAb4, $AF
	dc.b $F0, nCs4, $D8, nFs3, $97, nBb4, $AF, $C0
	dc.b nD5, nFs5, $8B, $CC, nD3, nA3, $97, $D8
	dc.b nD4, $C0, nCs5, nA4, $8B, $CC, nB2, nFs3
	dc.b $97, $C0, nEb5, nA4, $D8, nB3, $8B, $C0
	dc.b nCs5, $8C, nAb4, $A3, $CC, nCs3, $8B, nAb4
	dc.b nCs5, $C0, nEb5, $CC, nAb3, $C0, nE5, $97
	dc.b $CC, nCs4, $8B, nEb5, $C0, nCs5, $97, $CC
	dc.b nE4, $8B, nAb4, $C0, nE4, $8C, nB3, $81
	dc.b $9F, $CC, nB2, $8B, nB3, nE4, $C0, nFs4
	dc.b $CC, nE5, $C0, nAb4, $97, $CC, nFs5, $8B
	dc.b nB4, $C0, nE5, $97, $CC, nA5, $8B, nFs5
	dc.b $81, $9F, $C0, nCs5, nE5, $CC, nA3, $8B
	dc.b nCs4, nE4, $97, $D8, nA4, $8B, $CC, nAb4
	dc.b nE4, nB3, $81, $9F, $C0, nB4, nE5, $CC
	dc.b nAb3, $8B, nB3, nE4, $97, $D8, nAb4, $8B
	dc.b $CC, nFs4, nE4, nB3, $81, $9F, $C0, nB4
	dc.b nE5, $CC, nFs3, $8B, nA3, nCs4, nE4, nA4
	dc.b nAb4, nE4, nFs4, $C0, nE4, $81, $9F, nB4
	dc.b nE5, $CC, nAb3, $8B, nB3, nE4, $97, $D8
	dc.b nAb4, $8B, $CC, nFs4, nE4, nB3, $81, $9F
	dc.b nA3, $8B, nCs4, nE4, nA4, $A3, $E4, nB4
	dc.b $8B, $CC, nFs4, $A3, $C0, nB4, nCs5, nE5
	dc.b $81, $9F, $E4, nB3, $8B, $CC, nB4, $97
	dc.b $D8, nE5, nEb5, $C0, nAb6, nB5, $81, $87
	dc.b $D8, nE3, $8B, $C0, nFs6, $CC, nA5, $97
	dc.b $C0, nA6, $D8, nCs6, $8B, $C0, nAb6, $CC
	dc.b nB5, $97, $C0, nE6, nA5, $D8, nB3, $C0
	dc.b nAb5, $81, $9F, nB5, $D8, nE3, $8B, $CC
	dc.b nFs5, $97, $D8, nA5, $8B, $CC, nAb5, $97
	dc.b $D8, nE5, $C0, nAb4, $81, $9F, nB4, $81
	dc.b $87, $D8, nE3, $8B, $CC, nFs4, $97, $D8
	dc.b nA4, $8B, $CC, nAb4, $97, $C0, nE4, $D8
	dc.b nB3, $81, $AB, $CC, nE3, $A3, nB3, nE4
	dc.b nFs4, nAb4, nB4, $97, nE5, $8B, nFs5, $81
	dc.b $9F, $C1, nAb5, $81, $9E, $C5, nB5, $81
	dc.b $99, $C1, $F2, nE6, $C0
	gStartSeq	$1A
	gStop

.1A_03	dc.b $C0
	gsPrio		$07
	dc.b $C2, $C4
	gsPatch		$02
	dc.b $8B, $CC, nAb4, nF5, nFs4, nEb5, nF4, $81
	dc.b $9F, $C1, $E0, nCs5, $8B, $CC, nCs4, nF4
	dc.b nAb4, $A3, $E4, nCs5, $97, $D3, $C8, nF5
	dc.b $82, $C3, nBb3, nC4, nCs4, nF4, nBb4, nC5
	dc.b nCs5, nF5, nBb4, nC5, nCs5, nF5, nC5, nCs5
	dc.b $C6, nF5, $8B, $CB, nBb5
	gStop

.1A_04	dc.b $C0
	gsPrio		$0C
	dc.b $CA, $E0
	gsPatch		$4B
	dc.b $AF, $C0, nCs4, $F0, nF4, $C0, nC4, $C8
	dc.b $D0, nEb4, $97, $D8, nF4, $8B, $CC, nEb4
	dc.b $97, $D8, nFs4, $8B, $CC, nF4, $97, $D8
	dc.b nCs4, $81, $9F, $C9, $D8, nAb3, $8B, $CC
	dc.b nAb3, nBb3, $97, $D8, nC4, nAb3, $81, $9F
	dc.b $DE, $C0, nF4, $86, $CC, nAb4, nB3, nE4
	dc.b nAb4, nFs4, nEb4, nFs4, nB4, $85, $C6, nFs4
	dc.b nF4, nFs4, nG4, nAb4, nFs4, nE4, nEb4, nFs4
	dc.b nE4, nEb4, nCs4, nC4, nCs4, nEb4, nE4, nFs4
	dc.b nAb4, nFs4, nEb4, nE4, nFs4, nE4, nCs4, nEb4
	dc.b nC4, nCs4, nEb4, nE4, nEb4, nCs4, nB3, nCs4
	dc.b nC4, nCs4, nEb4, nE4, nEb4, nE4, nF4, nFs4
	dc.b nE4, nEb4, nCs4, nB3, nA3, nAb3, nFs3, $A3
	dc.b $E3, nE3
	gStop

.1A_05	dc.b $C0
	gsPrio		$07
	dc.b $C2, $C4
	gsPatch		$02
	dc.b $8B, $CC, nAb4, $D8, nF5, nEb5, $81, $9F
	dc.b $C4, $D4, nCs5, $82, $C3, nF6, nAb6, nBb6
	dc.b nC7, $97, $C9, $F0, nCs7, $85, $C6, nCs6
	dc.b nEb6, nF6, nFs6, nAb6, nA6, nBb6, nC7, $97
	dc.b $C6, $C0, nCs7, $82, $C3, nF7, nE7, nEb7
	dc.b nD7, nCs7, nC7, nB6, nBb6, nA6, nAb6, nG6
	dc.b nFs6, nF6, nE6, nEb6, $E7, nD6, $C3, nBb4
	dc.b nB4, nC5, nCs5, nD5, nEb5, nE5, nF5, nFs5
	dc.b nG5, nAb5, nA5, nBb5, nB5, nC6, nCs6, nD6
	dc.b nEb6, nE6, nF6, nFs6, nG6, nAb6, nA6, nBb6
	dc.b nB6, nC7, nCs7, nD7, nEb7, nE7, nF7, nFs7
	dc.b nG7, nAb7, nA7, $C2, $D0, nBb7, $C3, nF6
	dc.b nF6, nFs6, nG6, nAb6, nA6, nBb6, nB6, nC7
	dc.b nCs7, nD7, nEb7, nE7, nF7, nFs7, nG7, $97
	dc.b $DB, $C0, nAb7, $8B, $CC, nAb5, nE5, nFs5
	dc.b nA5, nAb5, nE5, nB4, nFs5, nAb5, nE5, nFs5
	dc.b nA5, nAb5, nE5, nB4, nFs5, nAb5, nE5, nFs5
	dc.b nA5, nAb5, nE5, nB4, nFs5, nAb5, nB4, nE5
	dc.b nAb5, nFs5, nB4, nEb5, nFs5, $97, $E4, nFs5
	dc.b $FC, nAb5, $F0, nCs6, nAb5, $8B, $C1, $E0
	dc.b nA5, $8C, $CC, nE5
	gStop

.1A_06	dc.b $C0
	gsPrio		$00
	dc.b $C4, $E0
	gsPatch		$39
	dc.b $AF, $F0, nAb4, $97, $D8, nFs4, nF4, $81
	dc.b $9F, $CD, $E0, nCs4, $97, $D8, nF4, $8B
	dc.b $CC, nEb4, $97, $D8, nFs4, $8B, $CC, nF4
	dc.b $97, $D8, nCs4, $81, $9F, $C1, $DF, nAb3
	gStop

.1A_07	dc.b $C0
	gsPrio		$0E
	dc.b $D1, $C4
	gsPatch		$46
	dc.b $8B, $CC, nAb3, $97, $D8, nF4, nEb4, $81
	dc.b $9F, $CC, $D8, nAb4, $8B, $CC, nC5, nCs5
	dc.b $97, $D8, nEb5, nAb4, $81, $9F, $C1, $E0
	dc.b nAb5, $A3, $E4, nAb5, $BB, $FC, nFs5, $81
	dc.b $9F, $C1, $E0, nF5, $97, $D8, nAb5, nFs5
	dc.b $AF, $F0, nF5, $97, $D8, nAb5, nFs5, $AF
	dc.b $C2, $D0, nF5, $85, $C6, nBb4, nFs4, nAb4
	dc.b nBb4, nC5, nAb4, nBb4, nC5, nCs5, nBb4, nC5
	dc.b nCs5, nEb5, nF5, nFs5, nG5, $82, $8F, $C2
	dc.b $D0, nAb5, $97, $D8, nFs5, nBb5, $A3, $E4
	dc.b nAb5, $BB, $FC, nC6, $AF, $F0, nCs6, nCs5
	dc.b $97, $D8, nAb5, nFs5, $AF, $F0, nF5, $97
	dc.b $D8, nAb5, nFs5, $AF, $F0, nF5, $81, $87
	dc.b $C1, $C8, nAb3, $97, $D8, nG3, $81, $9F
	dc.b $C1, $E0, nFs3, $C3, $C0, nF3, $82, $BF
	dc.b nE5, $81, $9F, $C1, $E0, nE5, $AF, $F0
	dc.b nE5, nEb5, nE5, nEb5, $8B, $CC, nCs5, nE5
	dc.b nEb5, nE5, nB4, nE5, nEb5, nE5, $81, $9F
	dc.b $C1, $E0, nCs5, nB4, $81, $A0, nEb5, $A3
	dc.b $E4, nE5, $8B, $CC, nAb5, $97, $D8, nA5
	dc.b nCs6, $81, $9F, $C1, $E0, nB5, $AF, $F0
	dc.b nAb5, $8F, $D0, nE5, nFs5, nAb5, $98, $D8
	dc.b nB5, nA5, $AF, $F0, nAb5, $98, $D8, nB5
	dc.b nA5, $AF, $F0, nAb5, $97, $D8, nAb5, $AF
	dc.b $F0, nB5, $97, $D8, nBb5, $81, $9F, $C1
	dc.b $E0, nA5, $82, $83, $C2, $C4, nB5, $8B
	dc.b $CC, nAb5, $97, $D8, nA5, nCs6, $AF, $F0
	dc.b nB5, $8F, $D0, nC6, nFs5, nE5, $AF, $C1
	dc.b $C8, nCs6, $86, $C6, nAb5, nA5, nB5, nCs6
	dc.b $97, $D8, nEb6, $8B, $CC, nCs6, $BB, $FC
	dc.b nB5, $97, $D8, nEb6, $8B, $CC, nE6, $BB
	dc.b $FC, nB5, $98, $D8, nAb5, nFs5, nE5, nFs5
	dc.b nA5, nAb5, nE5, nEb5, $81, $B7, $C1, $F7
	dc.b nE5
	gStop

.1B_00	dc.b $C0
	gsPrio		$14
	gsTempo		110
	gsPatch		$45
	dc.b $87, nE5, nAb5, nCs5
	gPitBend	$FF40
	dc.b $C1
	gPitBend	$FF80
	dc.b $C0
	gPitBend	$FFC0
	dc.b $C2
	gPitBend	$0000
	dc.b $C4
	gPitBend	$0000
	dc.b $C0, nCs5, nE5, $CC, nAb4, $9C, $C0, nAb4
	dc.b nCs5, $C1, $CD, nE4, $C0
	gPitBend	$FF00
	dc.b $87, nCs5, nAb5, nE5
	gPitBend	$FF40
	dc.b $C1
	gPitBend	$FF80
	dc.b $C0
	gPitBend	$FFC0
	dc.b $C2
	gPitBend	$0000
	dc.b $C4
	gPitBend	$0000
	dc.b $C0, nAb4, nE5, $CC, nCs5, $9C, $C0, nE4
	dc.b nCs5, $C1, $CD, nAb4, $C0
	gPitBend	$FF00
	dc.b $87, nCs5, nAb5, nE5
	gPitBend	$FF40
	dc.b $C1
	gPitBend	$FF80
	dc.b $C0
	gPitBend	$FFC0
	dc.b $C2
	gPitBend	$0000
	dc.b $C4
	gPitBend	$0000
	dc.b $C0, nAb4, nE5, $CC, nCs5, $9C, $C0, nE4
	dc.b nCs5, $C2, $DC, nAb4, $84, $C5, nE3, $87
	dc.b $C7, nFs3, $84, $C5, nG3, $88, $CC, nAb3
	dc.b nA3, nBb3, nC4, $87, $C7, nCs4, $CC, nE4
	dc.b $84, nAb3, $C5, nE3, $87, $C7, nFs3, $84
	dc.b $C5, nG3, $87, $C7, nAb3, $84, $C5, nAb3
	dc.b $87, $C7, nA3, $84, $C5, nA3, $87, $C7
	dc.b nBb3, $CC, nC4, $9C, $E4, nCs4, $84, $C5
	dc.b nE3, $87, $C7, nFs3, $84, $C5, nG3, $87
	dc.b $C7, nAb3, $90, $D1, nA3, $88, $CC, nBb3
	dc.b nC4, $87, $C7, nCs4, $CC, nEb4, nE4, $84
	dc.b $C5, nCs4, $87, $C7, nC4, $84, $C5, nCs4
	dc.b $87, $C7, nEb4, $84, $C5, nD4, $87, $C7
	dc.b nEb4, $84, $C5, nEb4, $87, $C7, nEb4, $CC
	dc.b nEb4, $9C, $E4, nE4, $84, $C5, nE3, $87
	dc.b $C7, nFs3, $84, $C5, nG3, $88, $CC, nAb3
	dc.b nA3, nBb3, nC4, $87, $C7, nCs4, $CC, nE4
	dc.b $84, nAb3, $C5, nE3, $87, $C7, nFs3, $84
	dc.b $C5, nG3, $87, $C7, nAb3, $84, $C5, nAb3
	dc.b $87, $C7, nA3, $84, $C5, nA3, $87, $C7
	dc.b nBb3, $CC, nC4, $98, $D8, nCs4, $8C, $C0
	dc.b nAb5, nCs6, $CC, nE5, $84, $C5, nE3, $87
	dc.b $C7, nFs3, $84, $C5, nG3, $88, $D3, nAb3
	dc.b $84, $C5, nA3, $89, $CC, nBb3, nC4, $87
	dc.b $C7, nCs4, $88, $CC, nEb4, $8C, nE4, $84
	dc.b $C5, nCs4, $87, $C7, nCs4, $84, $C5, nD4
	dc.b $87, $C7, nEb4, $84, $C5, nD4, $87, $C7
	dc.b nEb4, $84, $C5, nEb4, $87, $C7, nEb4, $CC
	dc.b nEb4, $D1, nE4, $C7, nAb4, $CC, nFs4, $90
	dc.b $DD, nE4, $88, $CC, nCs4, $C8, nE4, $82
	dc.b $C2, nEb4, nD4, $8B, $CC, nCs4, $87, $C7
	dc.b nG4, $CC, nE4, nFs4, $90, $D1, nE4, $88
	dc.b $CC, nCs4, nE4, $87, $C7, nG4, $CC, nE4
	dc.b $9C, $E4, nFs4, $84, $C5, nE4, $8B, $CC
	dc.b nE4, $88, nB4, $8B, nAb4, $87, $C7, nFs4
	dc.b $90, $D1, nE4, $87, $C7, nFs4, $CC, nE4
	dc.b $8C, nFs4, $84, $C5, nE4, $88, $CC, nFs4
	dc.b $87, $C7, nAb4, $84, $C5, nB4, $87, $C7
	dc.b nAb4, $84, $C5, nE4, $87, $C7, nFs4, $90
	dc.b $D1, nE4, $87, $CC, nCs4, $C0, nE5, nG5
	dc.b $C7, nG4, $C0, nFs5, nCs5, $CC, nFs4, $90
	dc.b $C0, nE5, nC5, $DD, nE4, $87, $C8, nCs4
	dc.b $81, $C2, nD4, nEb4, $87, $C8, nE4, $81
	dc.b $C2, nEb4, nD4, $88, $CC, nCs4, nG4, $87
	dc.b $C7, nE4, $98, $D8, nFs4, $84, $C5, nE4
	dc.b $8B, $C0, nCs5, nAb4, $CC, nCs4, $C0, nE5
	dc.b nCs5, $CC, nE4, $87, $C0, nG5, nE5, $C7
	dc.b nG4, $C0, nE5, nCs5, $CC, nE4, $9C, $C0
	dc.b nFs5, nCs5, $E4, nFs4, $84, $C5, nE4, $8B
	dc.b $CC, nE4, nB4, nAb4, $87, $C7, nFs4, $CC
	dc.b nE4, $90, $D1, nFs4, $87, $C7, nE4, $84
	dc.b $CC, nFs4, $C5, nE4, $88, $CC, nFs4, $87
	dc.b $C7, nAb4, $84, $C5, nB4, $87, $C7, nAb4
	dc.b $84, $C5, nE4, $87, $C7, nFs4, $CC, nE4
	dc.b $84, $D1, nCs4, $8B, $CC, nAb4, nFs4, nE4
	dc.b nG4, nE4, nFs4, nE4, $89, $C9, nFs4, $8E
	dc.b $DB, nE4, $87, $C7, nFs4, $84, $C5, nE4
	dc.b $8B, $D3, nAb4, $84, $C5, nE4, $8B, $CC
	dc.b nFs4, $87, $C7, nE4, $9C, $E9, nAb4, $8B
	dc.b $CC, nG4, $87, $C7, nFs4, $CC, nE4, nFs4
	dc.b $90, $D1, nE4, $8B, $CC, nFs4, $87, $C7
	dc.b nE4, $8C, $CC, nFs4, $84, $C5, nE4, $87
	dc.b $C7, nFs4, $84, $C5, nE4, $87, $C7, nFs4
	dc.b $84, $C5, nE4, $88, $CC, nFs4, $C0
	gPitBend	$0000
	dc.b $CC, nFs4, $87, $C7, nE4, $A8, $C5, nFs4
	dc.b $C1
	gPitBend	$0000
	dc.b $C3
	gPitBend	$0040
	dc.b $C2
	gPitBend	$0080
	dc.b $C3
	gPitBend	$00C0
	gPitBend	$0100
	dc.b $C2
	gPitBend	$0140
	dc.b $C3
	gPitBend	$0180
	dc.b $C2
	gPitBend	$01C0
	dc.b $D7
	gPitBend	$0200
	dc.b $C6
	gPitBend	$0000
	dc.b $CC
	gPitBend	$0000
	dc.b $88, nCs4, $87, $C8, nE4, $81, $C2, nEb4
	dc.b nD4, $88, $CC, nCs4, $87, $C7, nG4, $CC
	dc.b nE4, nFs4, $90, $D1, nE4, $88, $CC, nCs4
	dc.b nE4, $87, $C7, nG4, $CC, nE4, $9C, $E4
	dc.b nFs4, $90, $D1, nE4, $8B, $CC, nB4, $87
	dc.b $C7, nAb4, $CC, nFs4, $90, $D1, nE4, $8B
	dc.b $CC, nFs4, $87, $C7, nE4, $84, $CC, nFs4
	dc.b $C5, nE4, $88, $CC, nFs4, $87, $C7, nAb4
	dc.b $84, $C5, nB4, $87, $C7, nAb4, $84, $C5
	dc.b nE4, $87, $C7, nFs4, $CC, nE4, $84, $F5
	dc.b nCs4, $87, $C0, nE5, nAb5, $C7, nCs5, $85
	dc.b $C0, nCs5, nE5, $CC, nAb4, $9C, $C0, nAb4
	dc.b nCs5, $D7, nE4, $C6
	gPitBend	$0000
	dc.b $C0
	gPitBend	$FE00
	dc.b $93, nE4, $C1
	gPitBend	$FE80
	gPitBend	$FF00
	dc.b $C0
	gPitBend	$FF80
	dc.b $C4
	gPitBend	$0000
	dc.b $CD
	gPitBend	$0000
	dc.b $C0
	gPitBend	$FE00
	dc.b $9C, nEb4, $C1
	gPitBend	$FE80
	dc.b $C0
	gPitBend	$FF00
	gPitBend	$FF80
	dc.b $C4
	gPitBend	$0000
	dc.b $D8
	gPitBend	$0000
	dc.b $87, $C0, nE5, nAb5, $C7, nCs5, $85, $C0
	dc.b nCs5, nE5, $CC, nAb4, $9C, $C0, nAb4, nCs5
	dc.b $D7, nE4, $C6
	gPitBend	$0000
	dc.b $C0
	gPitBend	$FE00
	dc.b $93, nE4, $C1
	gPitBend	$FE80
	gPitBend	$FF00
	dc.b $C0
	gPitBend	$FF80
	dc.b $C4
	gPitBend	$0000
	dc.b $CD
	gPitBend	$0000
	dc.b $C0
	gPitBend	$FE00
	dc.b $9C, nEb4, $C1
	gPitBend	$FE80
	dc.b $C0
	gPitBend	$FF00
	gPitBend	$FF80
	dc.b $C4
	gPitBend	$0000
	dc.b $D8
	gPitBend	$0000
	dc.b $87, $C0, nE5, nAb5, $C7, nCs5, $85, $C0
	dc.b nCs5, nE5, $CC, nAb4, $9C, $C0, nAb4, nCs5
	dc.b $D7, nE4, $C6
	gPitBend	$0000
	dc.b $C0
	gPitBend	$FE00
	dc.b $87, nE4, $C1
	gPitBend	$FE80
	gPitBend	$FF00
	dc.b $C0
	gPitBend	$FF80
	dc.b $C4
	gPitBend	$0000
	dc.b $C1
	gPitBend	$0000
	dc.b $8C, $CC, nE4, $C0
	gPitBend	$FE00
	dc.b $9C, nEb4, $C1
	gPitBend	$FE80
	dc.b $C0
	gPitBend	$FF00
	gPitBend	$FF80
	dc.b $C4
	gPitBend	$0000
	dc.b $D8
	gPitBend	$0000
	dc.b $87, $C7, nE3, $84, $C5, nG3, $87, $C7
	dc.b nA3, $84, $C5, nCs4, $87, $C7, nE4, $90
	dc.b $D1, nEb4, $85, $C7, nCs4, $84, $C5, nAb3
	dc.b $8B, $CC, nAb3, nB3, nC4, $C0
	gStartSeq	$1C
	gStop

.1B_01	dc.b $C0
	gsPrio		$0F
	dc.b $C4, $E7
	gsPatch		$12
	dc.b $84, $C5, nA3, $87, $C7, nCs4, $84, $C5
	dc.b nE4, $87, $C7, nAb3, $90, $D1, nEb4, $87
	dc.b $CC, $FC, nCs4, $88, $CC, nCs4, $C8, nE4
	dc.b $82, $C2, nEb4, nD4, $8B, $CC, nCs4, $87
	dc.b $C7, nG4, $CC, nE4, nFs4, $90, $D1, nE4
	dc.b $88, $CC, nCs4, nE4, $87, $C7, nG4, $CC
	dc.b nE4, $9C, $C2, $D5, nFs4, $87, $C0, nAb4
	dc.b $C7, nE4, $84, $C0, nB4, $C5, nAb4, $87
	dc.b $C0, nAb4, $C7, nE4, $84, $C0, nE4, $C5
	dc.b nCs4, $87, $C0, nFs4, $C7, nEb4, $90, $C0
	dc.b nE4, $D1, nC4, $87, $C0, nCs4, $C1, $E0
	dc.b nAb3, $93, $C0, nCs4, $D3, nE4, $9C, $C0
	dc.b nC4, $C4, $D9, nEb4, $8B, $CC, nAb4, nG4
	dc.b nAb4, $AF, $F0, nA4, $97, $D8, nE4, nA4
	dc.b $C3, $C0, nAb4, $87, $C7, nFs5, $84, $C5
	dc.b nFs5, $87, $C7, nAb5, $84, $C5, nAb5, $87
	dc.b $C7, nFs5, $84, $C5, nE5, $87, $C7, nEb5
	dc.b $84, $C5, nCs5, $8B, $CC, nC5, nCs5, nD5
	dc.b $CA, $EC, nEb5, $87, $C0, nCs4, nG3, $C7
	dc.b nE4, $84, $C5, nA3, $87, $C7, nCs4, $84
	dc.b $C5, nE4, $87, $C7, nG3, $90, $C0, nC4
	dc.b nEb4, $D1, nFs3, $85, $C0, nAb3, nCs4, $C5
	dc.b nE3
	gStop

.1B_02	dc.b $C0
	gsPrio		$0A
	dc.b $C8, $D7
	gsPatch		$2C
	dc.b $84, $C5, nAb4, $CC, nFs4, $C1, $F8, nE4
	dc.b $86, $C0, nG4, nEb5, $C7, nCs5, $83, $C0
	dc.b nG4, nEb5, $C5, nCs5, $86, $C0, nG4, nEb5
	dc.b $C7, nCs5, $83, $C0, nG4, nEb5, $C5, nCs5
	dc.b $86, $C0, nG4, nEb5, $C7, nCs5, $83, $C0
	dc.b nG4, nEb5, $CC, nCs5, $85, $C0, nAb4, nE5
	dc.b $C5, $D5, nC5, $86, $C0, nG4, nEb5, $C7
	dc.b nCs5, $83, $C0, nG4, nEb5, $C5, nCs5, $86
	dc.b $C0, nG4, nEb5, $C7, nCs5, $83, $C0, nG4
	dc.b nEb5, $C5, nCs5, $86, $C0, nG4, nEb5, $C7
	dc.b nCs5, $C0, nG4, nEb5, $CC, nCs5, $83, $C0
	dc.b nAb4, nE5, $CD, $EC, nC5, $84, $C5, nE5
	dc.b $83, $CC, nEb5, nCs5, nEb5, $87, $C7, nE5
	dc.b $84, $C5, nE5, $8B, $CC, nEb5, $83, nCs5
	dc.b $87, $C7, nA4, $9C, $F5, nAb4, $87, $C7
	dc.b nFs4, $84, $CC, nE4, $85, $DD, nFs4, $87
	dc.b $CC, nFs4, $C7, nE4, $85, $C3, $C0, nFs4
	dc.b $84, $C0, nC5, $C1, $E0, nEb5, $C0, nEb5
	dc.b $C4, nC5
	gStop

.1B_03	dc.b $C0
	gsPrio		$09
	dc.b $F0
	gsPatch		$10
	dc.b $C0
	gPitBend	$FF00
	dc.b $93, nCs5, nE5, nG4
	gPitBend	$FF40
	dc.b $C1
	gPitBend	$FF80
	dc.b $C0
	gPitBend	$FFC0
	dc.b $C3
	gPitBend	$0000
	dc.b $CF
	gPitBend	$0000
	dc.b $9C, $C0, nC5, nEb5, $DD, nFs4, $F0
	gPitBend	$0000
	dc.b $C0
	gPitBend	$FF00
	dc.b $93, nG4, nE5, nCs5
	gPitBend	$FF40
	dc.b $C1
	gPitBend	$FF80
	dc.b $C0
	gPitBend	$FFC0
	dc.b $C3
	gPitBend	$0000
	dc.b $CF
	gPitBend	$0000
	dc.b $9C, $C0, nFs4, nEb5, $DD, nC5, $F0
	gPitBend	$0000
	dc.b $C0
	gPitBend	$FF00
	dc.b $93, nG4, nE5, nCs5
	gPitBend	$FF40
	dc.b $C1
	gPitBend	$FF80
	dc.b $C0
	gPitBend	$FFC0
	dc.b $C3
	gPitBend	$0000
	dc.b $CF
	gPitBend	$0000
	dc.b $9C, $C0, nFs4, nEb5, $DD, nC5, $87, $C0
	dc.b nG4, nCs5, $DF, nE5, $90, $C0, nFs4, nC5
	dc.b $D1, nEb5, $87, $C0, nCs5, nAb4, $C6, $F0
	dc.b nE4, $86, $C0, nEb4, nAb4, $CC, nC4, $C0
	dc.b nA4, $CC, nE4, $C0, nBb4, $CC, nFs4, $C0
	dc.b nC5, $CC, nA4, $87, $C0, nAb4, nCs5, $C7
	dc.b nE4, $85, $C0, nCs5, nE5, $CC, nAb4, $84
	dc.b $C0, nAb4, $CC, nE4, $C5, nE4, $87, $C7
	dc.b nFs4, $84, $C5, nG4, $87, $C0, nAb4, $C7
	dc.b nEb4, $84, $C0, nAb4, $C5, nEb4, $87, $C0
	dc.b nA4, $C7, nE4, $84, $C0, nA4, $C5, nE4
	dc.b $87, $C0, nBb4, $C7, nFs4, $85, $C0, nC5
	dc.b $CC, nAb4, $C0, nAb4, nCs5, $E4, nE4, $84
	dc.b $C5, nE4, $87, $C7, nFs4, $84, $C5, nG4
	dc.b $86, $D3, nAb4, $84, $C5, nA4, $86, $CC
	dc.b nBb4, nC5, $87, $C7, nCs5, $85, $CC, nEb5
	dc.b $D1, nE5, $87, $C1, $C8, nCs5, $A3, $E4
	dc.b nAb3, $AF, $F0, nAb3, $93, $D3, nA3, $84
	dc.b $CC, nAb3, $C5, nE3, $88, $CC, nFs3, $AF
	dc.b $F0, nAb3, $93, $D3, nA3, $84, $DD, nAb3
	dc.b $94, $D8, nE3, nD3, $8E, $D3, nCs3, $89
	dc.b $C3, $DD, nC3, $87, $CC, nCs4, nC4, $C7
	dc.b nB3, $86, $CC, nBb3, $9C, $C9, $F5, nA3
	dc.b $AF, $C0, nAb4, $F0, nE4, $93, $C0, nG4
	dc.b $D3, nE4, $84, $D1, nFs4, $8B, $CC, nE4
	dc.b $AF, $C0, nAb4, $F0, nE4, $93, $C0, nG4
	dc.b $D3, nE4, $84, $D1, nFs4, $8B, $C3, $CC
	dc.b nE4, $F0
	gPitBend	$0000
	dc.b $C0
	gPitBend	$FF00
	dc.b $93, nG4, nE5, nCs5
	gPitBend	$FF40
	dc.b $C1
	gPitBend	$FF80
	dc.b $C0
	gPitBend	$FFC0
	dc.b $C3
	gPitBend	$0000
	dc.b $CF
	gPitBend	$0000
	dc.b $9C, $C0, nFs4, nEb5, $DD, nC5, $F0
	gPitBend	$0000
	dc.b $C0
	gPitBend	$FF00
	dc.b $93, nCs5, nE5, nG4
	gPitBend	$FF40
	dc.b $C1
	gPitBend	$FF80
	dc.b $C0
	gPitBend	$FFC0
	dc.b $C3
	gPitBend	$0000
	dc.b $CF
	gPitBend	$0000
	dc.b $9C, $C0, nC5, nEb5, $C1, $CD, nFs4, $87
	dc.b $C0, nCs5, nE5, $C7, nG4, $C0, nCs5, nE5
	dc.b $CC, nG4, $9C, $C0, nC5, nEb5, $DC, nFs4
	gStop

.1B_04	dc.b $C0
	gsPrio		$00
	dc.b $CF, $CC
	gsPatch		$4E
	dc.b $87, $C0, nC4, $D8, nAb3, $C0, nEb4, $D8
	dc.b nC4, $C0, nE4, $D8, nCs4, $C0, nAb4, $D8
	dc.b nE4, nBb3, $CC, nBb3, $C7, nAb3
	gStop

.1B_05	dc.b $C0
	gsPrio		$19
	gsPatch		$4A
	dc.b $8B, $D8, nCs3, nAb2, $93, $D3, nA2, $84
	dc.b $CC, nAb2, $C5, nAb2, $8B, $CC, nC3, $C0
	gPitBend	$0000
	dc.b $D8, nCs3, nAb2, $93, $D3, nA2, $84, $CC
	dc.b nAb2, $C5, nAb2, $8B, $CC, nC3, $C0
	gPitBend	$0000
	dc.b $D8, nCs3, nAb2, $93, $D3, nA2, $84, $CC
	dc.b nAb2, $C5, nAb3, $8B, $CC, nAb2, $DF, nA2
	dc.b $90, $D1, nAb2, $8B, $E4, nCs3, $CC, nA2
	dc.b $D8, nAb2, nC3, nCs3, $CC, nE3, nCs3, $D8
	dc.b nAb3, nC3, nCs3, $CC, nAb3, nCs3, $D8, nAb2
	dc.b nC3, nCs3, nAb3, nEb3, nBb2, $CC, nAb2, nBb2
	dc.b nB2, nC3, $D8, nAb2, nC3, nCs3, $CC, nE3
	dc.b nCs3, $D8, nAb3, nC3, nCs3, $CC, nAb3, nCs3
	dc.b $D8, nAb2, nC3, nCs3, nAb3, nEb3, nBb2, $DF
	dc.b nAb2, $84, $C5, nAb2, $8B, $CC, nC3, $D8
	dc.b nCs3, nAb3, $93, $D3, nA3, $84, $CC, nAb3
	dc.b $C5, nAb3, $8B, $CC, nC4, $D8, nCs4, nAb3
	dc.b $93, $D3, nA3, $84, $CC, nAb3, $C5, nAb2
	dc.b $8B, $CC, nAb3, $D8, nE3, nD3, $93, $D3
	dc.b nCs3, $84, $CC, nC3, $C5, nG2, $8B, $CC
	dc.b nC3, $DF, nB2, $90, $D1, nAb2, $8B, $D3
	dc.b nCs3, $90, $D1, nA3, $8B, $CC, nAb3, $D8
	dc.b nCs3, nAb3, $93, $D3, nA3, $84, $CC, nAb3
	dc.b $C5, nAb3, $8B, $CC, nC3, nCs3, nC3, nB2
	dc.b $87, $C7, nBb2, $9C, $DD, nA2, $8B, $D8
	dc.b nA2, nE3, nD3, nCs3, nC3, $DF, nB2, $90
	dc.b $D1, nAb2, $8B, $F0, nCs3, $D8, nA3, nE3
	dc.b nA3, nE3, nCs3, nAb3, nCs3, nAb3, nA3, nE3
	dc.b nA3, nE3, nFs3, nFs3, $CC, nAb2, nBb2, nB2
	dc.b nC3, $D8, nCs3, nAb3, $93, $D3, nA3, $84
	dc.b $CC, nAb3, $C5, nAb3, $8B, $CC, nC4, $D8
	dc.b nCs4, nAb3, $93, $D3, nA3, $84, $CC, nAb3
	dc.b $C5, nAb2, $8B, $CC, nAb3, $D8, nE3, nD3
	dc.b $93, $D3, nCs3, $84, $CC, nC3, $C5, nG2
	dc.b $8B, $CC, nC3, $D8, nB2, nAb2, $D3, nCs3
	dc.b $90, $D1, nA3, $8B, $CC, nAb3, $D8, nCs3
	dc.b nAb2, $93, $D3, nA2, $84, $CC, nAb2, $C5
	dc.b nAb2, $8B, $CC, nC3, $D8, nCs3, nAb2, $93
	dc.b $D3, nA2, $84, $CC, nAb2, $C5, nAb2, $8B
	dc.b $CC, nC3, $D8, nCs3, nAb2, $93, $D3, nA2
	dc.b $84, $CC, nAb2, $C5, nAb2, $8B, $CC, nC3
	dc.b $DF, nA3, $90, $D1, nAb3, $87, $C7, nCs4
	dc.b $90, $D1, nAb3, $8B, $CC, nB3, $CB, nC4
	gStop

.1B_06	dc.b $C0
	gsPrio		$0F
	dc.b $C6, $C0
	gsPatch		$46
	dc.b $88, $CC, nAb3, nA3, nBb3, nC4, $87, $C7
	dc.b nCs4, $CC, nE4, $84, $DD, nAb3, $87, $C7
	dc.b nAb3, $84, $C5, nAb3, $87, $C7, nA3, $84
	dc.b $C5, nA3, $87, $C7, nBb3, $CC, nC4, $85
	dc.b $F5, nCs4, $AF, $F0, nAb4, $CB, $C4, nCs5
	dc.b $82, $C3, nE5, nFs5, nAb5, nA5, $8B, $CC
	dc.b nB5, nAb5, nFs5, nE5, $87, $C7, nFs5, $8C
	dc.b $CC, nE5, $D0, $F1, nFs5, $8B, $CC, nE5
	dc.b nB5, nAb5, nFs5, nE5, $93, $D3, nCs5, $84
	dc.b $DD, nC5, $87, $C7, nAb4, $84, $C5, nB4
	dc.b $87, $C7, nAb4, $84, $C5, nE4, $87, $C7
	dc.b nFs4, $CC, nE4, $84, $C4, nCs4
	gStop

.1B_07	dc.b $C0
	gsVolume	$03
	gsPrio		$05
	dc.b $C8, $D7
	gsPatch		$4B
	dc.b $84, $C0, nAb4, $C5, nAb5, $C0, nFs4, $CC
	dc.b nFs5, $C0, nE4, $D2, $D8, nE5, $8B, $CC
	dc.b nB3, nAb3, $87, $C7, nFs3, $CC, nE3, $90
	dc.b $D1, nFs3, $87, $C7, nE3, $84, $CC, nFs3
	dc.b $C5, nE3, $88, $CC, nFs3, $87, $C7, nAb3
	dc.b $84, $C5, nB3, $87, $C7, nAb3, $84, $C5
	dc.b nE3, $87, $C7, nFs3, $CC, nE3, $84, $C2
	dc.b $D5, nCs3, $97, $D8, nE3, $C3, nFs3, $82
	dc.b nAb3, $83, nA3, nB3, nCs4, nEb4, nE4, nFs4
	dc.b $97, $C0, nAb3, $C6, $E4, nAb4, $82, $C3
	dc.b nE5, nFs5, nAb5, nA5, $81, $C2, nB5, nBb5
	dc.b nA5, nAb5, nG5, nFs5, nF5, nE5, nEb5, nD5
	dc.b nCs5, nC5, nB4, nBb4, nA4, nAb4, nG4, nFs4
	dc.b nF4, nE4, nEb4, nD4, $97, $D8, nCs4, $83
	dc.b $C1, $DF, nC4, $90, $C0, nB5, $D1, nAb5
	dc.b $87, $C0, nBb5, $C7, nFs5
	gStop

.1C_00	dc.b $C0
	gsPrio		$14
	gsTempo		110
	gsPatch		$45
	dc.b $88, $F7, nCs4, $84, $C5, nAb3, $8B, $CC
	dc.b nAb3, nB3, nC4, $88, $F7, nCs4, $84, $C5
	dc.b nCs4, $8B, $CC, nCs4, nD4, nEb4, $83, $C0
	dc.b nD5, $8B, $C4, nE4, $83, nCs5, nC5, nB4
	dc.b nC5, nCs5, nD5, nCs5, nC5, nB4, nC5, nCs5
	dc.b $87, $C7, nD5, $CC, nE4, $84, $C5, nE4
	dc.b $87, $C7, nFs4, $88, $C5, nG4, $C7
	gPitBend	$0000
	dc.b $C0
	gPitBend	$FE00
	dc.b $BC, $C1, nAb4, $C2
	gPitBend	$FE40
	gPitBend	$FE80
	gPitBend	$FEC0
	gPitBend	$FF00
	gPitBend	$FF40
	dc.b $C3
	gPitBend	$FF80
	dc.b $C2
	gPitBend	$FFC0
	dc.b $C1
	gPitBend	$0000
	dc.b $C0
	gPitBend	$0000
	dc.b $84, nAb5, $CC, nEb5, $C0, nAb5, $CC, nEb5
	dc.b $C0, nAb5, $CC, nEb5, $C0
	gPitBend	$0000
	dc.b nAb5, $C7, nEb5, $C5, nAb4, $87, $C0, nAb5
	dc.b nEb5, $C7, nAb4, $84, $C0, nAb5, nEb5, $87
	dc.b $CC, nB4, $90, $D1, nC5, $87, $FC, nAb5
	dc.b $8B, $CC, nE5, $87, $C7, nCs5, $CC, nB4
	dc.b $90, $FC, nE4, $84, $C5, nE4, $8B, $CC
	dc.b nE4, nFs4, nG4, $87, $C7, nAb4, $84, $C5
	dc.b nG4, $8A, $CC, nAb4, nFs4, nE4, $87, $C7
	dc.b nFs4, $CC, nE4, $84, $C0, nAb5, nEb5, nC5
	dc.b $CC, nFs4, $C5, nE4, $88, $CC, nFs4, $87
	dc.b $C0, nC5, $C7, nAb4, $84, $C5, nAb4, $87
	dc.b $C0, nCs5, $C7, nAb4, $84, $C5, nAb4, $87
	dc.b $C0, nD5, $C7, nAb4, $84, $C0, nEb5, $8C
	dc.b $CC, nAb4, $C0, nF5, $9C, $CC, nCs5, $84
	dc.b $C5, nF5, $87, $CC, nFs5, $C7, nG5, $84
	dc.b $C0, nAb5, $C5, nCs4, $87, $C7, nCs4, $84
	dc.b $C5, nCs4, $88, $C7, nCs4, $84, $C0, nCs6
	dc.b $C5, nAb5, $88, $CC, nD4, $87, $C0, nCs6
	dc.b nAb5, $88, $CC, nEb4, nF4, $87, $C7, nFs4
	dc.b $CC, nA4, $84, nCs4, $C5, nA3, $87, $C7
	dc.b nB3, $84, $C5, nC4, $87, $C7, nCs4, $84
	dc.b $C0, nAb5, nCs6, $C5, nCs4, $87, $C7, nD4
	dc.b $84, $C5, nD4, $87, $C0, nAb5, nCs6, $C7
	dc.b nEb4, $CC, nF4, $9C, nFs4, $82, $C2, nA5
	dc.b $C3, nAb5, $87, $C7, nA5, $84, $C5, nB5
	dc.b $87, $C7, nC6, $84, $C0, nCs6, $C5, nA3
	dc.b $87, $C7, nB3, $84, $CC, nC4, $C0, nCs6
	dc.b nAb5, $87, $CC, nCs4, $84, $C5, nD4, $87
	dc.b $C0, nCs6, nAb5, $88, $CC, nEb4, nF4, $87
	dc.b $C7, nFs4, $84, $C0, nA5, nFs5, $87, $C5
	dc.b nAb4, $C0, nCs6, $C7, nA5, $84, $C0, nFs6
	dc.b nCs6, $87, $CC, nA4, $84, $C5, nFs4, $87
	dc.b $C7, nFs4, $84, $C5, nG4, $87, $C7, nAb4
	dc.b $84, $C5, nAb4, $87, $C7, nAb4, $84, $C5
	dc.b nAb4, $88, $CC, nAb4, $87, $C7, nAb4, $9C
	dc.b $E4, nA4, $84, $C5, nC5, $87, $C7, nC5
	dc.b $84, $C5, nC5, $87, $C7, nCs5, $84, $C5
	dc.b nCs5, $88, $CC, nCs4, nEb4, $84, $C0, nF5
	dc.b nCs5, $88, $CC, nF4, $87, $C7, nFs4, $CC
	dc.b nA4, $84, nCs4, $C5, nA3, $C0, nFs5, nCs5
	dc.b $87, $C7, nB3, $84, $C5, nC4, $87, $C7
	dc.b nCs4, $84, $C5, nCs4, $87, $C7, nD4, $84
	dc.b $C5, nD4, $87, $C7, nEb4, $C5, nF4, $84
	dc.b $C0, nF5, $C7, nCs5, $9C, $D1, nFs4, $87
	dc.b $C7, nFs5, $8C, $CC, nA5, $84, $C0, nA3
	dc.b $82, $C2, nAb5, $C3, nG5, $84, $C0, nFs5
	dc.b $87, $C7, nB3, $84, $C5, nC4, $88, $CC
	dc.b nCs4, nD4, $87, $C7, nEb4, $CC, nF4, $90
	dc.b $D1, nFs4, $87, $C7, nAb4, $84, $CC, nA4
	dc.b $C5, nFs4, $87, $C7, nF4, $84, $C5, nFs4
	dc.b $87, $C0, nF5, nAb5, nCs5, $C7, nAb4, $84
	dc.b $C0, nF5, nAb5, nCs5, $C5, nAb4, $87, $C0
	dc.b nF5, nAb5, nCs5, $C7, nAb4, $84, $C0, nF5
	dc.b nAb5, nCs5, $C5, nAb4, $C0, nF5, nAb5, $88
	dc.b nAb4, $84, $CC, nCs5, $C0, nF5, nAb5, $88
	dc.b nAb4, $84, $CC, nCs5, $8B, $C0, nF5, nCs5
	dc.b nA5, $CC, nA4, $87, $C7, nCs5, $8C, $CC
	dc.b nB4, $84, $C5, nA4, $8B, $D8, nFs4, $88
	dc.b $CC, nFs4, $87, $C8, nA4, $81, $C2, nAb4
	dc.b nG4, $88, $CC, nFs4, $87, $C7, nC5, $CC
	dc.b nA4, $89, nB4, nA4, $84, $C5, nA4, $88
	dc.b $CC, nFs4, nA4, $87, $C7, nC5, $CC, nA4
	dc.b $9C, $E4, nB4, $90, $D1, nE5, $87, $C7
	dc.b nE5, $CC, nCs5, $90, $D1, nB4, $88, $CC
	dc.b nA4, nB4, $87, $C7, nA4, $CC, nB4, $84
	dc.b $C5, nA4, $88, $CC, nB4, $85, $C0, nE5
	dc.b $87, $C7, nCs5, $84, $C5, nA4, $87, $C7
	dc.b nA4, $84, $C5, nFs4, $88, $CC, nA4, $85
	dc.b $C0, nE5, $87, $C7, nCs5, $84, $C5, nA4
	dc.b $87, $C7, nA4, $84, $C5, nFs4, $88, $CC
	dc.b nA4, $87, $C0, nE5, $C7, nFs4, $90, $C0
	dc.b nE5, $D1, nA4, $87, $C0, nC5, $85, $C7
	dc.b nF5, $84, $C5, nA4, $87, $C7, nA4, $84
	dc.b $C5, nF4, $88, $CC, nA4, $87, $C0, nC5
	dc.b $85, $C7, nF5, $84, $C5, nA4, $87, $C7
	dc.b nA4, $84, $C5, nF4, $88, $CC, nA4, $87
	dc.b $C0, nF4, $C7, nF5, $90, $C0, nA4, $D1
	dc.b nF5, $AF, $C0, nD4, $87, $C7, nC5, $A8
	dc.b $E9, nAb4, $AF, $C0, nD4, $87, $C7, nC5
	dc.b $A8, $E9, nAb4, $AF, $C0, nAb4, $F0, nCs5
	dc.b $C0, nB4, $F0, nF5, $87, $C0, nA4, nCs5
	dc.b nFs4, $81, $9F, $C7, nFs5, $87, $C0, nFs4
	dc.b nA4, $CC, nCs4, $9C, $C0, nCs4, nFs4, $C1
	dc.b $CD, nA3, $87, $C0, nA5, nCs6, $C7, nFs5
	dc.b $C0, nFs5, nA5, $CC, nCs5, $9C, $C0, nCs5
	dc.b nFs5, $C1, $CD, nA4, $87, $C7, nCs6, $CC
	dc.b nA5, $9C, $FC, nFs5, $84, $C5, nFs4, $88
	dc.b $CC, nAb4, $87, $C7, nA4, $84, $C5, nFs4
	dc.b $87, $C7, nAb4, $84, $C5, nFs4, $87, $C7
	dc.b nA4, $90, $D1, nAb4, $97, $D8, nFs4, $8B
	dc.b nFs3, $C0
	gStartSeq	$1B
	gStop

.1C_01	dc.b $C0
	gsPrio		$0A
	dc.b $C7, $E7
	gsPatch		$12
	dc.b $84, $C0, nE4, $C5, nB3, $87, $C0, nB4
	dc.b $C7, nAb4, $84, $C0, nCs5, $C5, nA4, $87
	dc.b $C0, nB4, $C7, nAb4, $84, $C0, nE4, $C5
	dc.b nB3, $87, $C0, nG4, $C7, nBb3, $84, $C0
	dc.b nFs4, $C5, nA3, $87, $C0, nE4, $C3, $F0
	dc.b nAb3, $8B, $CC, nCs4, nC4, nB3, $87, $C7
	dc.b nA3, $84, $C5, nAb3, $87, $C7, nA3, $84
	dc.b $C5, nAb3, $87, $C7, nG3, $8C, $CC, nFs3
	dc.b $84, $C5, nA3, $87, $C7, nB3, $84, $C5
	dc.b nC4, $8B, $CC, nCs4, nD4, $87, $C7, nB3
	dc.b $84, $C5, nB3, $87, $C7, nBb3, $A4, $E4
	dc.b nA3, $84, $C5, nA3, $87, $C7, nB3, $84
	dc.b $C5, nC4, $8B, $CC, nCs4, nC4, $87, $C7
	dc.b nB3, $84, $C5, nBb3, $87, $C7, nA3, $84
	dc.b $C5, nAb3, $87, $C7, nFs3, $84, $C5, nG3
	dc.b $87, $C7, nAb3, $8C, $C1, $FD, nA3, $8B
	dc.b $CC, nCs4, nC4, nB3, $87, $C7, nA3, $84
	dc.b $C5, nAb3, $87, $C7, nA3, $84, $C5, nAb3
	dc.b $87, $C7, nG3, $8C, $CC, nFs3, $84, nA3
	dc.b $C5, nC4, $8B, $CC, nCs4, nD4, $87, $C7
	dc.b nB3, $84, $CC, nBb3, $A4, $E4, nA3, $84
	dc.b $C5, nA3, $87, $C7, nB3, $84, $C5, nC4
	dc.b $8B, $CC, nCs4, nC4, $87, $C7, nB3, $84
	dc.b $C5, nBb3, $87, $C7, nA3, $84, $C5, nAb3
	dc.b $87, $C7, nFs3, $84, $C5, nG3, $87, $C6
	dc.b nAb3, $8D, $CE, nA3, $81, $C2, nAb3, nG3
	dc.b $87, $C9, $CC, nFs3, $AF, $F0, nFs4, nFs4
	dc.b nB4, $C2, $D0, nCs5, $87, $C7, nCs5, $8A
	dc.b $CC, nA4, $9C, $C1, $CD, nFs4, $87, $C7
	dc.b nCs5, $8A, $CC, nA4, $9C, $DC, nFs4
	gStop

.1C_02	dc.b $C0
	gsPrio		$09
	dc.b $C6, $C0
	gsPatch		$2C
	dc.b $BE, $FE, nE5
	gStop

.1C_03	dc.b $C0
	gsPrio		$0C
	gsPatch		$10
	dc.b $88, nCs4, $CC, nCs5, $87, $C0, nAb3, $C7
	dc.b nAb4, $84, $C0, nAb3, $C5, nAb4, $88, $C0
	dc.b nCs4, $CC, nCs5, $87, $C0, nAb3, $C7, nAb4
	dc.b $84, $C0, nAb3, $C5, nAb4, $87, $C0, nCs4
	dc.b $C7, nCs5, $84, $C0, nAb3, $C5, nAb4, $8B
	dc.b $C0, nAb3, $CC, nAb4, $C0, nB3, $CC, nB4
	dc.b $C0, nC4, $CC, nC5, $88, $C0, nCs4, $CC
	dc.b nCs5, $87, $C0, nAb3, $C7, nAb4, $84, $C0
	dc.b nAb3, $C5, nAb4, $88, $C0, nCs4, $CC, nCs5
	dc.b $87, $C0, nAb3, $C7, nAb4, $84, $C0, nAb3
	dc.b $C5, nAb4, $87, $C0, nCs4, $C7, nCs5, $84
	dc.b $C0, nCs4, $C5, nCs5, $8B, $C0, nCs4, $CC
	dc.b nCs5, $C0, nD4, $CC, nD5, $C0, nEb4, $CC
	dc.b nEb5, $88, nE4, $87, $C7, nB3, $84, $C5
	dc.b nB3, $88, $CC, nE4, $87, $C7, nB3, $84
	dc.b $C5, nB3, $87, $C7, nE5, $90, $D1, nE5
	dc.b $87, $CC, nFs5, nG5, $C0
	gPitBend	$0000
	dc.b $97, $D8, nC5, nCs5, $93, $D3, nD5, $84
	dc.b $C1, $D4, nEb5, $90, $D1, nCs4, $86, $CC
	dc.b nD4, nEb4, $85, $C6, nE4, $C0
	gPitBend	$FC00
	dc.b $B1, nC4, $C2
	gPitBend	$FC40
	dc.b $C1
	gPitBend	$FC80
	gPitBend	$FCC0
	dc.b $C2
	gPitBend	$FD00
	dc.b $C1
	gPitBend	$FD40
	gPitBend	$FD80
	dc.b $C2
	gPitBend	$FDC0
	dc.b $C1
	gPitBend	$FE00
	gPitBend	$FE40
	gPitBend	$FE80
	dc.b $C2
	gPitBend	$FEC0
	dc.b $C1
	gPitBend	$FF00
	gPitBend	$FF40
	dc.b $C2
	gPitBend	$FF80
	dc.b $C1
	gPitBend	$FFC0
	gPitBend	$0000
	dc.b $C2
	gPitBend	$0040
	dc.b $C1
	gPitBend	$0080
	gPitBend	$00C0
	dc.b $C2
	gPitBend	$0100
	dc.b $C1
	gPitBend	$0140
	gPitBend	$0180
	dc.b $C2
	gPitBend	$01C0
	dc.b $C1
	gPitBend	$0200
	gPitBend	$0240
	gPitBend	$0280
	dc.b $C2
	gPitBend	$02C0
	dc.b $C1
	gPitBend	$0300
	gPitBend	$0340
	dc.b $C2
	gPitBend	$0380
	dc.b $C1
	gPitBend	$03C0
	dc.b $C7
	gPitBend	$03FF
	dc.b $EA
	gPitBend	$0000
	dc.b $97, $D8, nAb3, nBb3, nB3, nC4, $8B, $CC
	dc.b nAb3, nBb3, $87, $C7, nB3, $8C, $CC, nC4
	dc.b $90, $D1, nCs4, $8B, $CC, nEb4, $87, $C7
	dc.b nE4, $90, $CC, $D1, nF4, $88, $D8, nFs4
	dc.b nCs4, $D3, nD4, $8C, $CC, nCs4, $84, $C5
	dc.b nEb4, $88, $CC, nF4, $D8, nFs4, nCs4, $D3
	dc.b nD4, $8C, $CC, nCs4, $84, $C5, nEb4, $88
	dc.b $CC, nF4, $97, $D8, nA3, $F7, nG3, $84
	dc.b $C5, nA4, $88, $CC, nB4, $87, $C7, nCs5
	dc.b $84, $C5, nA4, $87, $C7, nA4, $84, $C5
	dc.b nFs4, $88, $CC, nA4, $87, $C7, nCs5, $84
	dc.b $C5, nA4, $87, $C7, nA4, $84, $C5, nFs4
	dc.b $88, $CC, nA4, $87, $C7, nFs4, $90, $D1
	dc.b nA4, $87, $C7, nC5, $84, $C5, nA4, $87
	dc.b $C7, nA4, $84, $C5, nF4, $88, $CC, nA4
	dc.b $87, $C7, nC5, $84, $C5, nA4, $87, $C7
	dc.b nA4, $84, $C5, nF4, $88, $CC, nA4, $87
	dc.b $C7, nF4, $90, $D1, nA4, $97, $D8, nD4
	dc.b nD4, nD4, nD4, $AF, $F0, nFs4, $C1, $E0
	dc.b nAb4, $93, $C0, nFs4, nA4, $D3, nC4, $9C
	dc.b $C0, nF4, nAb4, $C1, $CD, nB3, $93, $C0
	dc.b nC5, nA5, $D3, nFs5, $9C, $C0, nB4, nAb5
	dc.b $C1, $CD, nF5, $93, $C0, nFs4, nA4, $D3
	dc.b nC4, $8C, $C0, nF4, nAb4, $CC, nB3
	gStop

.1C_04	dc.b $C0
	gsPrio		$00
	gsPatch		$4E
	gStop

.1C_05	dc.b $C0
	gsPrio		$19
	gsPatch		$4A
	dc.b $8B, $CC, nCs4, $87, $C7, nAb3, $84, $C5
	dc.b nAb3, $8B, $CC, nCs4, $87, $C7, nAb3, $84
	dc.b $C5, nAb3, $87, $C7, nCs4, $90, $D1, nAb3
	dc.b $8B, $CC, nB3, nC4, nCs4, $87, $C7, nAb3
	dc.b $84, $C5, nAb3, $8B, $CC, nCs4, $87, $C7
	dc.b nAb3, $84, $C5, nAb3, $87, $C7, nCs4, $90
	dc.b $D1, nCs3, $8B, $CC, nD3, nEb3, nE3, $87
	dc.b $C7, nB2, $84, $C5, nB2, $8B, $CC, nE3
	dc.b $87, $C7, nB2, $84, $C5, nB2, $87, $C7
	dc.b nE3, $90, $D1, nE3, $8B, $CC, nFs3, nG3
	dc.b $97, $D8, nAb3, nA3, $93, $D3, nB3, $84
	dc.b $DD, nC4, $8B, $F7, nCs4, $90, $D1, nCs3
	dc.b $8B, $CC, nD3, nEb3, $FC, nE3, $CC, nE3
	dc.b nFs3, nG3, $97, $D8, nAb3, nBb3, nB3, nC4
	dc.b $8B, $CC, nAb2, nBb2, nB2, nC3, nCs3, nEb3
	dc.b nE3, nF3, $D8, nCs3, nF3, nFs3, $CC, nA3
	dc.b nFs3, $D8, nCs3, nF3, $CC, nFs3, nAb3, nA3
	dc.b nFs3, $D8, nCs3, nF3, nFs3, $CC, nA3, nFs3
	dc.b $D8, nAb3, nAb3, $CC, nCs3, nEb3, nE3, nF3
	dc.b $D8, nCs3, nF3, nFs3, $CC, nA3, nFs3, $D8
	dc.b nCs3, nF3, nFs3, $CC, nA3, nFs3, $D8, nCs3
	dc.b nF3, nFs3, $CC, nA3, nFs3, $D8, nAb3, nAb3
	dc.b $DF, nCs3, $84, $C5, nCs3, $8B, $CC, nF3
	dc.b $D8, nFs3, nCs3, $93, $D3, nD3, $84, $CC
	dc.b nCs3, $C5, nCs3, $8B, $CC, nF3, $D8, nFs3
	dc.b nCs3, $93, $D3, nD3, $84, $D1, nCs3, $8B
	dc.b $CC, nCs3, $D8, nA3, nG3, nFs3, nF3, $E4
	dc.b nE3, nE3, $87, $C7, nE3, $90, $D1, nE3
	dc.b $8B, $E4, nF3, nF3, $87, $C7, nF3, $90
	dc.b $D1, nF3, $97, $D8, nD3, nD3, nD3, nD3
	dc.b nCs3, nCs3, $8B, $CC, nCs3, nB2, nA2, nAb2
	dc.b $D8, nFs3, nCs3, $93, $D3, nD3, $84, $CC
	dc.b nCs3, $C5, nCs3, $8B, $CC, nCs3, $D8, nFs3
	dc.b nCs3, $93, $D3, nD3, $84, $CC, nCs3, $C5
	dc.b nCs3, $8B, $CC, nCs3, $D8, nFs3, nCs3, $93
	dc.b $D3, nD3, $84, $CC, nCs3, $C5, nCs3, $8B
	dc.b $CC, nCs3, $DF, nD3, $90, $D1, nCs3, $97
	dc.b $D8, nFs3, $8B, $CB, nFs2
	gStop

.1C_06	dc.b $C0
	gsPrio		$0E
	dc.b $D0, $CF
	gsPatch		$46
	dc.b $84, $C5, nF4, $87, $C7, nFs4, $84, $C5
	dc.b nG4, $87, $C7, nAb4, $84, $C5, nAb4, $87
	dc.b $C7, nAb4, $84, $C5, nAb4, $88, $CC, nAb4
	dc.b $87, $C7, nAb4, $85, $E4, nA4, $84, $C5
	dc.b nC5, $87, $C7, nC5, $84, $C5, nC5, $87
	dc.b $C7, nCs5, $84, $C5, nCs5, $88, $CC, nCs4
	dc.b nEb4, nF4, $87, $C7, nFs4, $CC, nA4, $84
	dc.b nCs4, $C5, nA3, $87, $C7, nB3, $84, $C5
	dc.b nC4, $87, $C7, nCs4, $84, $C5, nCs4, $87
	dc.b $C7, nD4, $84, $C5, nD4, $87, $C7, nEb4
	dc.b $CC, nF4, $9C, $E4, nFs4, $84, $C5, nA3
	dc.b $87, $C7, nB3, $84, $C5, nC4, $88, $CC
	dc.b nCs4, nD4, $87, $C7, nEb4, $CC, nF4, $90
	dc.b $D1, nFs4, $87, $C7, nAb4, $84, $C2, $C9
	dc.b nA4, $88, $CC, nFs5, $87, $C8, nA5, $81
	dc.b $C2, nAb5, nG5, $88, $CC, nFs5, $87, $C7
	dc.b nC6, $CC, nA5, $89, nB5, nA5, $84, $C5
	dc.b nA5, $88, $CC, nFs4, nA4, $87, $C7, nC5
	dc.b $CC, nA4, $9C, $E4, nB4, $90, $D1, nE5
	dc.b $87, $C7, nE5, $CC, nCs5, $90, $D1, nB4
	dc.b $88, $C8, nA4
	gStop

.1C_07	dc.b $C0
	gsVolume	$03
	gsPrio		$0D
	dc.b $C6, $C0
	gsPatch		$4B
	dc.b $B2, $CA, $E0, nE4, $87, $CC, nAb5, nFs4
	dc.b nFs5, nFs4, nF5, nFs5, $C7, nG5, $90, $C9
	dc.b $F5, nAb5, $88, $C0, nA4, $CC, nA5, $C0
	dc.b nB4, $CC, nB5, $87, $C0, nA4, $C7, nA5
	dc.b $C0, nB4, $C8, $ED, nB5, $93, $D3, nA4
	dc.b $9C, $C1, $CD, nAb4, $93, $D3, nA4, $8C
	dc.b $CC, nAb4
	gStop

.1D_00	dc.b $C0
	gsPrio		$0F
	gsTempo		85
	gsPatch		$4B
	gStop

.1D_01	dc.b $C0
	gsPrio		$0F
	dc.b $C6, $C0
	gsPatch		$4C
	dc.b $82, $C3, nAb4, nG4, nAb4, nBb4, nB4, nBb4
	dc.b nB4, nCs5, nEb5, nCs5, nEb5, nE5, nEb5, nCs5
	dc.b nB4, nBb4, nAb4, nBb4, nB4, nBb4, nAb4, nFs4
	dc.b nE4, nFs4, nAb4, nG4, nAb4, nBb4, nB4, nBb4
	dc.b nB4, nCs5, nEb5, nF5, nG5, nF5, nEb5, nCs5
	dc.b nB4, nBb4, nB4, nCs5, nEb5, nCs5, nB4, nBb4
	dc.b nAb4, nB4, nBb4, nB4, nCs5, nB4, nBb4, nAb4
	dc.b nG4, nE4, nEb4, nF4, nG4, nAb4, nBb4, nE5
	dc.b nEb5, nCs5, $C0
	gStartSeq	$1E
	gStop

.1D_02	dc.b $C0
	gsPrio		$0A
	gsPatch		$4F
	gStop

.1D_03	dc.b $C0
	gsPrio		$0A
	dc.b $C1, $E0
	gsPatch		$45
	dc.b $91, $D2, nEb4, $82, $C3, nEb4, nEb4, $91
	dc.b $D2, nE4, $82, $C3, nE4, nE4, $91, $D2
	dc.b nF4, $82, $C3, nF4, nF4, $91, $C0, nG4
	dc.b $D2, nEb4, $82, $C0, nG4, $C3, nEb4, $C0
	dc.b nG4, $C3, nEb4, $91, $C0, nEb4, nAb4, $D2
	dc.b nB3, $82, $C0, nEb4, nAb4, $C3, nB3, $C0
	dc.b nEb4, nAb4, $C3, nB3, $91, $C0, nFs4, nBb4
	dc.b $D2, nEb4, $82, $C0, nFs4, nBb4, $C3, nEb4
	dc.b $C0, nFs4, nBb4, $C3, nEb4, $91, $C0, nAb4
	dc.b nB4, $D2, nE4, $82, $C0, nAb4, nB4, $C3
	dc.b nE4, $C0, nAb4, nB4, $C3, nE4, $91, $C0
	dc.b nAb4, nCs5, $D2, nE4, $82, $C0, nAb4, nCs5
	dc.b $C3, nE4, $C0, nAb4, nCs5, $C3, nE4, $C0
	dc.b nBb4, nG4, $C6, nEb5, $C0, nG4, nBb4, $C3
	dc.b nEb5, $C0, nG4, nBb4, $C3, nEb5, $C0, nG4
	dc.b nBb4, $C6, nEb5, $C0, nG4, nBb4, $C3, nEb5
	dc.b $C0, nG4, nBb4, $C3, nEb5, $C0, nBb4, nEb5
	dc.b $C6, nG4, $C0, nBb4, nEb5, $C3, nG4, $C0
	dc.b nBb4, nEb5, $C3, nG4, $C0, nBb4, nEb5, $C6
	dc.b nG4, $C0, nBb4, nEb5, $C3, nG4, $C0, nBb4
	dc.b nEb5, $C3, nG4, $C0, nB4, nEb5, $C6, nAb4
	dc.b $C0, nB4, nEb5, $C3, nAb4, $C0, nB4, nEb5
	dc.b $C3, nAb4, $C0, nCs5, nE5, $C6, nA4, $C0
	dc.b nCs5, nE5, $C3, nA4, $C0, nCs5, nE5, $C3
	dc.b nA4, $C0, nCs5, nF5, $C6, nBb4, $C0, nCs5
	dc.b nF5, $C3, nBb4, $C0, nCs5, nF5, $C3, nBb4
	dc.b $C0, nEb5, nG5, $C6, nBb4, $C0, nEb5, nG5
	dc.b $C3, nBb4, $C0, nEb5, nG5, $C3, nBb4, $81
	dc.b $99, $C0, nAb5, $C1, $DA, nB4, $82, $C0
	dc.b nB4, $C3, nAb5, $C0, nB4, $C3, nAb5, $81
	dc.b $99, $C0, nEb5, $C1, $DA, nBb5, $82, $C3
	dc.b nEb5, $C2, nEb5
	gStop

.1D_04	dc.b $C0
	gsPrio		$00
	gsPatch		$4E
	gStop

.1D_05	dc.b $C0
	gsPrio		$11
	gsPatch		$50
	gStop

.1D_06	dc.b $C0
	gsPrio		$0A
	gsPatch		$10
	dc.b $91, nEb4, nAb4, $D2, nB3, $82, $C0, nEb4
	dc.b nAb4, $C3, nB3, $C0, nEb4, nAb4, $C3, nB3
	dc.b $91, $C0, nG4, nBb4, $D2, nEb4, $82, $C0
	dc.b nG4, nBb4, $C3, nEb4, $C0, nG4, nBb4, $C3
	dc.b nEb4, $91, $C0, nAb4, nB4, $D2, nEb4, $82
	dc.b $C0, nAb4, nB4, $C3, nEb4, $C0, nAb4, nB4
	dc.b $C3, nEb4, $91, $C0, nAb4, nCs5, $D2, nE4
	dc.b $82, $C0, nAb4, nCs5, $C3, nE4, $C0, nAb4
	dc.b nCs5, $C3, nE4, $91, $C0, nBb4, nEb5, $D2
	dc.b nG4, $82, $C0, nBb4, nEb5, $C3, nG4, $C0
	dc.b nBb4, nEb5, $C3, nG4, $91, $C0, nCs5, $D2
	dc.b nAb4, $85, $C0, nCs5, $C6, nAb4, $91, $C0
	dc.b nB4, $D2, nAb4, $85, $C0, nB4, $C6, nAb4
	dc.b $91, $D2, nBb4, $85, $C6, nBb4, $91, $D2
	dc.b nAb4, $85, $C6, nAb4, $91, $D2, nFs4, $85
	dc.b $C6, nFs4, $91, $D2, nE4, $85, $C6, nE4
	dc.b $91, $D2, nFs4, $85, $C6, nFs4, $97, $D8
	dc.b nEb4, nCs4, nB3, nBb3, $81, $87, $C1, $C8
	dc.b nAb3, $97, $D8, nAb3, $81, $99, $C1, $DA
	dc.b nG3, $82, $C0, nBb3, $C3, nG3, $C0, nBb3
	dc.b $C2, nG3
	gStop

.1D_07	dc.b $C0
	gsPrio		$14
	gsPatch		$51
	dc.b $8B, $CC, nAb3, nAb3, nBb3, nBb3, nB3, nB3
	dc.b nCs4, nCs4, nEb4, nEb4, nCs4, nCs4, nB3, nB3
	dc.b nBb3, nBb3, nAb3, nAb3, nFs3, nFs3, nE3, nE3
	dc.b nFs3, nFs3, nEb3, nEb3, nCs3, nCs3, nB2, nB2
	dc.b nBb2, nBb2, $85, nAb2, nAb2, nAb2, nAb2, nAb2
	dc.b nAb2, nAb2, nAb2, nEb2, nEb2, nEb2, nEb2, nEb2
	dc.b nEb2, nEb2, $C5, nEb2
	gStop

.1E_00	gLoopStart
	dc.b $C0
	gNop
	gsTempo		86
	gsPatch		$4B
	dc.b $82, $C3, nAb4, nG4, nAb4, nBb4, nB4, nBb4
	dc.b nB4, nCs5, $D8, nEb5, $C3, nAb4, nBb4, nB4
	dc.b nCs5, $CC, nD5, $C3, nG4, nAb4, nBb4, nB4
	dc.b $CC, nCs5, $C3, nAb4, nBb4, nB4, nCs5, nEb5
	dc.b nE5, nEb5, nCs5, nB4, nBb4, nAb4, nB4, nBb4
	dc.b nAb4, nG4, nBb4, nAb4, nBb4, nB4, nCs5, nB4
	dc.b nBb4, nAb4, nG4, nAb4, nG4, nAb4, nBb4, nB4
	dc.b nBb4, nB4, nCs5, $C4, $E0, nCs5, $85, $C6
	dc.b nAb4, nEb5, nE5, nEb5, nFs4, nEb5, nE5, nEb5
	dc.b nE4, nEb5, nE5, nEb5, nEb4, nEb5, nE5, $D7
	dc.b $D6, nEb5, $82, $C3, nEb6, nE6, nEb6, nD6
	dc.b nEb6, nE6, nEb6, nD6, $C6, nEb6, nBb5, nEb5
	dc.b nBb4, $C3, nEb4, nE4, nEb4, nD4, nEb4, nE4
	dc.b nEb4, nD4, nEb4, nE4, nEb4, nD4, nEb4, nE4
	dc.b nEb4, nD4, nEb4, nE4, nF4, nG4, $C6, nAb4
	dc.b nB4, nEb5, nB4, nAb4, nE4, $C3, nEb4, nE4
	dc.b nEb4, nD4, nEb4, nE4, nEb4, nD4, nEb4, nE4
	dc.b nEb4, nD4, nEb4, nE4, nEb4, nD4, nEb4, nE4
	dc.b nF4, nG4, nAb4, nBb4, nB4, nCs5, nEb5, nCs5
	dc.b nB4, nBb4, nAb4, nBb4, nB4, nCs5, nEb5, nE5
	dc.b nEb5, nD5, nEb5, nE5, nEb5, nD5, nEb5, nE5
	dc.b nEb5, nD5, nEb5, nE5, nEb5, nD5, nEb5, nE5
	dc.b nF5, nG5, $C6, nAb5, nB5, nEb6, nB5, nAb5
	dc.b nE5, $C3, nEb5, nE5, nEb5, nD5, nEb5, nE5
	dc.b nEb5, nD5, nEb5, nE5, nEb5, nD5, nEb5, nE5
	dc.b nEb5, nD5, nEb5, nE5, nF5, nG5, nAb5, nBb5
	dc.b nB5, nCs6, nEb6, nE6, nEb6, nD6, nEb6, nE6
	dc.b nF6, nG6, $C3, $C0, nAb6, $C0
	gLoopEnd
	; Unused
	dc.b $60

.1E_01	gLoopStart
	dc.b $C0
	gNop
	dc.b $C3, $F0
	gsPatch		$4C
	dc.b $82, $C3, nA4, nAb4, nBb4, nB4, nCs5, nEb5
	dc.b nE5, nFs5, nE5, nEb5, nCs5, nB4, nBb4, nAb4
	dc.b nG4, nAb4, $85, $C6, nAb4, $82, nAb4, nAb4
	dc.b nAb4, $85, nBb4, $82, nBb4, nBb4, nBb4, nB4
	dc.b nB4, nBb4, nBb4, nAb4, nAb4, nFs4, nFs4, $E1
	dc.b $C0, nE4, $C3, nAb4, nG4, nAb4, nBb4, nB4
	dc.b nBb4, nB4, nCs5, nEb5, nCs5, nEb5, nE5, nEb5
	dc.b nCs5, nB4, nBb4, nAb4, nBb4, nB4, nBb4, nAb4
	dc.b nFs4, nE4, nFs4, nAb4, nG4, nAb4, nBb4, nB4
	dc.b nBb4, nB4, nCs5, nEb5, nF5, nG5, nF5, nEb5
	dc.b nCs5, nB4, nBb4, nB4, nCs5, nEb5, nCs5, nB4
	dc.b nBb4, nAb4, nB4, nBb4, nB4, nCs5, nB4, nBb4
	dc.b nAb4, nG4, nE4, nEb4, nF4, nG4, nAb4, nBb4
	dc.b nE5, nEb5, nCs5, $C0
	gLoopEnd
	; Unused
	dc.b $60

.1E_02	gLoopStart
	dc.b $C0
	gNop
	gsPatch		$4F
	dc.b $8B, $CC, nAb3, nBb3, nB3, nEb4, $97, $D8
	dc.b nD4, nCs4, nB3, nBb3, $A3, $E4, nAb3, $85
	dc.b $C6, nBb3, nB3, $8B, $CC, nCs4, nEb4, nE4
	dc.b nAb4, $97, $D8, nG4, nBb4, $81, $87, $C1
	dc.b $C8, nEb4, $8B, $CC, nCs4, nEb4, $97, $D8
	dc.b nE4, nAb4, nG4, nBb4, nEb4, nCs4, nB3, nEb4
	dc.b $8B, $CC, nD4, nCs4, nB3, nBb3, nAb3, nB3
	dc.b $91, $D2, nE4, $86, $C6, nEb4, $81, $9F
	dc.b $CE, $D0, nBb3, $82, $C3, nAb3, nBb3, nB3
	dc.b nCs4, nEb4, nE4, nF4, nG4, nAb4, nBb4, nB4
	dc.b nCs5, nB4, nBb4, nAb4, $F3, nG4, $C3, nAb3
	dc.b nBb3, nB3, nCs4, nEb4, nE4, nF4, nG4, $C6
	dc.b nAb4, nFs4, nE4, $F6, nEb4, $C3, nCs3, nC3
	dc.b nCs3, nEb3, nE3, nFs3, nAb3, nBb3, nB3, nBb3
	dc.b nAb3, nFs3, nE3, nEb3, nCs3, nEb3, $F0, nE3
	dc.b $C3, nE4, nFs4, nE4, nEb4, nCs4, nB3, nBb3
	dc.b nB3, $C6, nAb3, nFs3, nE3, $F6, nAb3, $C3
	dc.b nEb4, nCs4, nB3, nBb3, nCs4, nB3, nBb3, nAb3
	dc.b nB3, nBb3, nAb3, nG3, nBb3, nAb3, nG3, nE3
	dc.b $D8, nEb3, $C3, nEb4, nE4, nEb4, nD4, nEb4
	dc.b nE4, nEb4, nD4, nEb4, nE4, nEb4, nD4, nEb4
	dc.b nE4, nF4, nFs4, nG4, nFs4, nF4, nE4, nEb4
	dc.b nCs4, nB3, $C9, $C3, nBb3, $C0
	gLoopEnd
	; Unused
	dc.b $60

.1E_03	gLoopStart
	dc.b $C0
	gNop
	gsPatch		$45
	dc.b $82, nAb5, $CC, $F6, nEb5, $C0, nEb4, $C3
	dc.b nBb3, $C0, nEb4, $C3, nBb3, $C0, nG4, $C6
	dc.b nEb4, $C0, nBb4, $C6, nG4, $C0, nEb5, $C6
	dc.b nBb4, $C0, nBb4, $C6, nG4, $C0, nG4, $C6
	dc.b nEb4, $C0, nBb4, $C6, nG4, $C0, nAb4, $F6
	dc.b nEb4, $C0, nE4, $C3, nB3, $C0, nE4, $C3
	dc.b nB3, $C0, nAb4, $C6, nE4, $C0, nB4, $C6
	dc.b nAb4, $C0, nE5, $C6, nB4, $C0, nB4, $C6
	dc.b nAb4, $C0, nAb4, $C6, nE4, $C0, nBb4, $C3
	dc.b nFs4, $C0, nB4, $C3, nAb4, $C0, nCs5, $DE
	dc.b nAb4, $C0, nAb4, $C3, nE4, $C0, nAb4, $C3
	dc.b nE4, $C0, nCs5, $C6, nAb4, $C0, nE5, $C6
	dc.b nCs5, $C0, nEb5, $DE, nBb4, $C0, nBb4, $C3
	dc.b nG4, $C0, nBb4, $C3, nG4, $C0, nEb5, $C6
	dc.b nBb4, $C0, nG5, $C6, nEb5, $C0, nAb5, $D2
	dc.b nEb5, $C0, nG5, $C3, nBb5, $C0, nAb5, $C3
	dc.b nB5, $C0, nG5, $D2, nBb5, $C0, nAb5, $C3
	dc.b nB5, $C0, nBb5, $C3, nCs6, $C0, nAb5, $C6
	dc.b nB5, $C0, nG5, $C3, nBb5, $C0, nAb5, $C3
	dc.b nB5, $C0, nBb5, $C6, nCs6, $C0, nAb5, $C3
	dc.b nB5, $C0, nBb5, $C3, nCs6, $C0, nB5, $C6
	dc.b $D8, nEb6, $C3, nAb4, nBb4, nB4, nCs5, nEb5
	dc.b nE5, nF5, nG5, nAb5, nG5, nFs5, nE5, nEb5
	dc.b nCs5, nB4, $F3, nBb4, $C3, nAb5, nBb5, nB5
	dc.b nCs6, nB5, nBb5, nAb5, nG5, nAb5, nFs5, nE5
	dc.b nEb5, nCs5, nB4, nBb4, nA4, $F0, nAb4, $C3
	dc.b nCs5, nEb5, nE5, nFs5, nAb5, nFs5, nE5, nEb5
	dc.b nCs5, nB4, nBb4, nB4, nAb4, nFs4, nE4, nEb4
	dc.b $F0, nCs4, $C3, nE4, nEb4, nE4, nFs4, nAb4
	dc.b nBb4, nB4, nEb5, nCs5, nC5, nCs5, nEb5, nE5
	dc.b nEb5, nE5, nFs5, $F0, nE5, $C3, nG4, nAb4
	dc.b nBb4, nB4, nCs5, nEb5, nE5, nFs5, nAb5, nBb5
	dc.b nB5, nCs6, nB5, nBb5, nAb5, nE5, $F0, nEb5
	dc.b $C3, nEb4, nE4, nEb4, nD4, nEb4, nE4, nEb4
	dc.b nD4, nEb4, nE4, nEb4, nD4, nEb4, nE4, nEb4
	dc.b nD4, nEb4, nE4, nEb4, nD4, nEb4, nE4, nF4
	dc.b nFs4, nG4, nFs4, nF4, nE4, nEb4, nE4, nF4
	dc.b $C1, $E3, nG4, $91, $D2, nEb4, $82, $C3
	dc.b nEb4, nEb4, $91, $D2, nE4, $82, $C3, nE4
	dc.b nE4, $91, $D2, nF4, $82, $C3, nF4, nF4
	dc.b $91, $C0, nEb4, $D2, nG4, $82, $C0, nEb4
	dc.b $C3, nG4, $C0, nEb4, $C3, nG4, $91, $C0
	dc.b nB3, nAb4, $D2, nEb4, $82, $C0, nB3, nAb4
	dc.b $C3, nEb4, $C0, nB3, nAb4, $C3, nEb4, $91
	dc.b $C0, nEb4, nBb4, $D2, nFs4, $82, $C0, nEb4
	dc.b nBb4, $C3, nFs4, $C0, nEb4, nBb4, $C3, nFs4
	dc.b $91, $C0, nE4, nB4, $D2, nAb4, $82, $C0
	dc.b nE4, nB4, $C3, nAb4, $C0, nE4, nB4, $C3
	dc.b nAb4, $91, $C0, nE4, nCs5, $D2, nAb4, $82
	dc.b $C0, nE4, nCs5, $C3, nAb4, $C0, nE4, nCs5
	dc.b $C3, nAb4, $C0, nEb5, nG4, $C6, nBb4, $C0
	dc.b nEb5, nBb4, $C3, nG4, $C0, nEb5, nBb4, $C3
	dc.b nG4, $C0, nEb5, nBb4, $C6, nG4, $C0, nEb5
	dc.b nBb4, $C3, nG4, $C0, nEb5, nBb4, $C3, nG4
	dc.b $C0, nG4, nEb5, $C6, nBb4, $C0, nG4, nEb5
	dc.b $C3, nBb4, $C0, nG4, nEb5, $C3, nBb4, $C0
	dc.b nG4, nEb5, $C6, nBb4, $C0, nG4, nEb5, $C3
	dc.b nBb4, $C0, nG4, nEb5, $C3, nBb4, $C0, nAb4
	dc.b nEb5, $C6, nB4, $C0, nAb4, nEb5, $C3, nB4
	dc.b $C0, nAb4, nEb5, $C3, nB4, $C0, nA4, nE5
	dc.b $C6, nCs5, $C0, nA4, nE5, $C3, nCs5, $C0
	dc.b nA4, nE5, $C3, nCs5, $C0, nBb4, nF5, $C6
	dc.b nCs5, $C0, nBb4, nF5, $C3, nCs5, $C0, nBb4
	dc.b nF5, $C3, nCs5, $C0, nBb4, nG5, $C6, nEb5
	dc.b $C0, nBb4, nG5, $C3, nEb5, $C0, nBb4, nG5
	dc.b $C3, nEb5, $81, $99, $C0, nB4, $C1, $DA
	dc.b nAb5, $82, $C0, nAb5, $C3, nB4, $C0, nAb5
	dc.b $C3, nB4, $81, $99, $C0, nBb5, $C1, $DA
	dc.b nEb5, $82, $C3, nEb5, nEb5, $C0
	gLoopEnd
	; Unused
	dc.b $60

.1E_04	gLoopStart
	dc.b $C0
	gNop
	dc.b $DE
	gsPatch		$4E
	dc.b $85, $C6, nAb4, nB4, $CC, nEb5, $C6, nAb4
	dc.b nB4, $CC, nD5, $C6, nG4, nBb4, $CC, nCs5
	dc.b $C6, nEb4, nAb4, $CC, nB4, $C6, nEb4, nG4
	dc.b $CC, nBb4, $C6, nEb4, nAb4, nBb4, nB4, nBb4
	dc.b nAb4, nEb4, $C6, $C0, nCs4, $C6, nD4, nD5
	dc.b nCs4, nCs5, nB3, nB4, nBb3, nBb4, nAb4, nAb5
	dc.b nFs4, nFs5, nE4, nE5, nEb4, nEb5, $C7, $E6
	dc.b nEb4, $82, $C6, nE4, nAb4, nB4, $DE, nE5
	dc.b $C6, nEb4, nG4, nBb4, $DE, nEb5, $C6, nAb5
	dc.b $D2, nB5, $C6, nG5, $D2, nBb5, $C6, nD5
	dc.b nAb5, nB5, nD6, nB5, nAb5, nEb5, nD4, nE4
	dc.b nAb4, nB4, $D8, nEb5, $C6, nE4, nAb4, nB4
	dc.b nE5, $D8, nEb5, $C0, nEb6, $C6, nBb5, $C0
	dc.b nE6, $C6, nB5, $C0, nEb6, $C6, nBb5, $C0
	dc.b nE6, $C6, nB5, $C0, nEb6, $C6, nBb5, $C0
	dc.b nE6, $C6, nB5, $C0, nEb6, $C6, nBb5, $C0
	dc.b nE6, $C6, nB5, $C0, nEb6, $C6, nBb5, $C0
	dc.b nE6, $C6, nB5, $C0, nEb6, $C6, nBb5, $C0
	dc.b nE6, $C6, nB5, $C0, nEb6, $C6, nBb5, $C0
	dc.b nCs6, $C6, nAb5, $C0, nB5, $C6, nE5, $C0
	dc.b nBb5, $D2, $C6, nEb5, $C0
	gLoopEnd
	; Unused
	dc.b $60

.1E_05	gLoopStart
	dc.b $C0
	gNop
	dc.b $C3, $C0
	gsPatch		$50
	dc.b $82, $C3, nCs5, nC5, nCs5, nEb5, nE5, nEb5
	dc.b nE5, nFs5, nAb5, nFs5, nE5, nEb5, nCs5, nB4
	dc.b nBb4, nAb4, $8B, $CC, nG4, nE4, nEb4, nCs4
	dc.b $85, $C6, nB3, nEb4, nAb4, nB4, nBb4, nCs5
	dc.b nB4, nBb4, $8B, $CC, nAb4, nFs4, nE4, nEb4
	dc.b $8E, $CF, nCs4, $82, $C3, nEb4, nE4, nFs4
	dc.b $97, $D8, nAb4, $8E, $CF, nEb4, $82, $C3
	dc.b nF4, nG4, nAb4, $97, $D8, nBb4, $8E, $CF
	dc.b nB4, $82, $C3, nC5, nCs5, nD5, $97, $D8
	dc.b nEb5, nE5, nEb5, $82, $C1, $D4, nD5, $C3
	dc.b nAb3, nBb3, nB3, nCs4, $85, $C6, nEb4, nEb5
	dc.b nE5, nEb5, nCs4, nEb5, nE5, nEb5, nB3, nEb5
	dc.b nE5, nEb5, nBb3, nEb5, nE5, nEb5, $82, $C3
	dc.b nCs5, nC5, nCs5, nEb5, nE5, nEb5, nE5, nFs5
	dc.b $91, $D2, nAb5, $82, $C3, nFs5, nE5, $F0
	dc.b nEb5, $C3, nAb4, nG4, nAb4, nBb4, nB4, nBb4
	dc.b nB4, nCs5, nEb5, nE5, nEb5, nCs5, nB4, nBb4
	dc.b nAb4, nFs4, $F0, nE4, $C3, nCs5, nEb5, nCs5
	dc.b nEb5, nCs5, nEb5, nCs5, nEb5, nCs5, nEb5, nCs5
	dc.b nEb5, nCs5, nEb5, nCs5, nEb5, nEb5, nE5, nEb5
	dc.b nE5, nEb5, nE5, nEb5, nE5, nEb5, nE5, nEb5
	dc.b nCs5, nB4, nCs5, nB4, nBb4, nAb4, nBb4, nAb4
	dc.b nG4, nAb4, nBb4, nAb4, nG4, nAb4, nBb4, nAb4
	dc.b nG4, nAb4, nBb4, nAb4, nG4, nAb4, nB4, nAb4
	dc.b nB4, nBb4, nCs5, nBb4, nCs5, nB4, nEb5, nB4
	dc.b nEb5, nAb5, nFs5, nE5, nEb5, $9D, $DE, nE5
	dc.b $85, $C6, nEb5, nD5, nE5, $9D, $DE, nEb5
	dc.b $85, $C6, nD5, nB4, nBb4, $CC, nB4, nB4
	dc.b nEb5, nEb5, nD5, nB4, nAb4, nEb4, $97, $D8
	dc.b nD4, $85, $C6, nEb4, nG4, nBb4, nEb5, $97
	dc.b $D8, nD5, $85, $C6, nEb5, nB4, nAb4, nE4
	dc.b $82, $D2, nEb4, $81, $C1, nEb4, $82, $C2
	dc.b nF4, $81, $C1, nG4, $82, $C2, nAb4, $D2
	dc.b nBb4, $81, $C1, nBb4, $82, $C2, nB4, $81
	dc.b $C1, nCs5, $82, $C2, nD5, $D2, nEb5, $81
	dc.b $C1, nEb5, $82, $C2, nF5, $81, $C1, nG5
	dc.b $82, $C2, nBb5, $D2, $D8, nEb6, $C0
	gLoopEnd
	; Unused
	dc.b $60

.1E_06	gLoopStart
	dc.b $C0
	gNop
	gsPatch		$10
	dc.b $82, $D2, $C6, nB3, $C0, nB4, nE5, $C6
	dc.b nAb4, $C0, nB4, nE5, $C6, nAb4, $C0, nB4
	dc.b nE5, $C6, nAb4, $C0, nB4, nE5, $DE, nAb4
	dc.b $C0, nBb4, nEb5, $C6, nG4, $C0, nBb4, nEb5
	dc.b $C6, nG4, $C0, nBb4, nEb5, $C6, nG4, $C0
	dc.b nBb4, nEb5, $DE, nG4, $C0, nEb4, nAb4, $C6
	dc.b nB3, $C0, nAb4, nB4, $D2, nEb4, $C0, nEb4
	dc.b nG4, $C6, nBb3, $C0, nG4, nBb4, $D2, nEb4
	dc.b $C0, nB3, nD4, $C6, nAb3, $C0, nD4, nAb4
	dc.b $C6, nB3, $C0, nAb4, nB4, $C6, nD4, $C0
	dc.b nFs4, nD5, $D8, nB4, $97, $C0, nE4, $D8
	dc.b nAb4, $82, $C0, nEb4, $D8, nG4, $97, $C0
	dc.b nB4, $D8, nAb4, $82, $C0, nBb4, $C1, $F8
	dc.b nG4, $A9, $C0, nEb5, $EA, nB4, $82, $C0
	dc.b nEb5, $C3, nB4, $C0, nEb5, $C3, nB4, $97
	dc.b $C0, nEb5, $D8, nB4, $C0, nEb5, $D8, nB4
	dc.b $A9, $C0, nB4, $EA, nEb5, $82, $C0, nB4
	dc.b $C3, nEb5, $C0, nB4, $C3, nEb5, $97, $C0
	dc.b nB4, $D8, nEb5, $C0, nB4, $D8, nEb5, $A9
	dc.b $C0, nAb4, $EA, nE5, $82, $C0, nE5, $C3
	dc.b nAb4, $C0, nAb4, $C3, nE5, $97, $C0, nAb4
	dc.b $D8, nE5, $C0, nAb4, $D8, nE5, $A9, $C0
	dc.b nE5, $EA, nAb4, $82, $C0, nAb4, $C3, nE5
	dc.b $C0, nE5, $C3, nAb4, $97, $C0, nE5, $D8
	dc.b nAb4, $C0, nE5, $D8, nAb4, $A9, $C0, nG5
	dc.b $EA, nBb4, $82, $C0, nBb4, $C3, nG5, $C0
	dc.b nG5, $C3, nBb4, $97, $C0, nG5, $D8, nBb4
	dc.b $C0, nG5, $D8, nBb4, $A9, $C0, nBb4, $EA
	dc.b nG5, $82, $C0, nG5, $C3, nBb4, $C0, nBb4
	dc.b $C3, nG5, $97, $C0, nBb4, $D8, nG5, $C0
	dc.b nBb4, $D8, nG5, $91, $C0, nB3, nAb4, $D2
	dc.b nEb4, $82, $C0, nB3, nAb4, $C3, nEb4, $C0
	dc.b nB3, nAb4, $C3, nEb4, $91, $C0, nEb4, nBb4
	dc.b $D2, nG4, $82, $C0, nEb4, nBb4, $C3, nG4
	dc.b $C0, nEb4, nBb4, $C3, nG4, $91, $C0, nEb4
	dc.b nB4, $D2, nAb4, $82, $C0, nEb4, nB4, $C3
	dc.b nAb4, $C0, nEb4, nB4, $C3, nAb4, $91, $C0
	dc.b nE4, nCs5, $D2, nAb4, $82, $C0, nE4, nCs5
	dc.b $C3, nAb4, $C0, nE4, nCs5, $C3, nAb4, $91
	dc.b $C0, nG4, nEb5, $D2, nBb4, $82, $C0, nG4
	dc.b nEb5, $C3, nBb4, $C0, nG4, nEb5, $C3, nBb4
	dc.b $91, $C0, nAb4, $D2, nCs5, $85, $C0, nAb4
	dc.b $C6, nCs5, $91, $C0, nAb4, $D2, nB4, $85
	dc.b $C0, nAb4, $C6, nB4, $91, $D2, nBb4, $85
	dc.b $C6, nBb4, $91, $D2, nAb4, $85, $C6, nAb4
	dc.b $91, $D2, nFs4, $85, $C6, nFs4, $91, $D2
	dc.b nE4, $85, $C6, nE4, $91, $D2, nFs4, $85
	dc.b $C6, nFs4, $97, $D8, nEb4, nCs4, nB3, nBb3
	dc.b $81, $87, $C1, $C8, nAb3, $97, $D8, nAb3
	dc.b $81, $99, $C1, $DA, nG3, $82, $C0, nG3
	dc.b $C3, nBb3, $C0, nG3, $C3, nBb3, $C0
	gLoopEnd
	; Unused
	dc.b $60

.1E_07	gLoopStart
	dc.b $C0
	gNop
	gsPatch		$51
	dc.b $85, $CC, nAb2, nAb2, nAb2, nAb2, nAb2, nAb2
	dc.b nAb2, nAb2, nAb2, nAb2, nAb2, nAb2, nAb2, nAb2
	dc.b nAb2, nAb2, nCs3, nCs3, nCs3, nCs3, nEb3, nEb3
	dc.b nEb3, nEb3, nAb2, nAb2, nBb2, nBb2, nB2, nB2
	dc.b nAb2, nAb2, nCs3, nCs3, nCs3, nCs3, nEb3, nEb3
	dc.b nEb3, nEb3, nAb3, nAb3, nFs3, nFs3, nE3, nE3
	dc.b nEb3, nEb3, nE3, nE3, nEb3, nEb3, nCs3, nCs3
	dc.b nE3, nE3, nEb3, nEb3, nEb3, nEb3, nEb3, nCs3
	dc.b nB2, nBb2, nCs3, nCs3, nCs3, nCs3, nEb3, nEb3
	dc.b nEb3, nEb3, nAb2, nBb2, nB2, nEb3, nE3, nEb3
	dc.b nCs3, nB2, nCs3, nCs3, nCs3, nCs3, nEb3, nEb3
	dc.b nEb3, nEb3, nAb2, nAb2, nAb2, nAb2, nAb2, nBb2
	dc.b nB2, nEb3, nE3, nE3, nE3, nE3, nEb3, nEb3
	dc.b nCs3, nCs3, nB2, nB2, nBb2, nBb2, nAb2, nAb2
	dc.b nFs2, nFs2, nE3, nE3, nEb3, nEb3, nE3, nE3
	dc.b nEb3, nEb3, nEb3, nEb3, nEb3, nEb3, nEb3, nEb3
	dc.b nEb3, nEb3, $A9, $EA, nAb4, $82, $C3, nAb4
	dc.b nAb4, $97, $D8, nAb4, nAb4, $A9, $EA, nAb4
	dc.b $82, $C3, nAb4, nAb4, $97, $D8, nAb4, nAb4
	dc.b $A9, $EA, nCs4, $82, $C3, nCs4, nCs4, $97
	dc.b $D8, nCs4, nCs4, $A9, $EA, nCs4, $82, $C3
	dc.b nCs4, nCs4, $97, $D8, nCs4, nCs4, $A9, $EA
	dc.b nEb4, $82, $C3, nEb4, nEb4, $97, $D8, nEb4
	dc.b nEb4, $A9, $EA, nEb4, $82, $C3, nEb4, nEb4
	dc.b $97, $D8, nEb4, nEb4, $8B, $CC, nAb3, nAb3
	dc.b nBb3, nBb3, nB3, nB3, nCs4, nCs4, nEb4, nEb4
	dc.b nCs4, nCs4, nB3, nB3, nBb3, nBb3, nAb3, nAb3
	dc.b nFs3, nFs3, nE3, nE3, nFs3, nFs3, nEb3, nEb3
	dc.b nCs3, nCs3, nB2, nB2, nBb2, nBb2, $85, nAb2
	dc.b nAb2, nAb2, nAb2, nAb2, nAb2, nAb2, nAb2, nEb2
	dc.b nEb2, nEb2, nEb2, nEb2, nEb2, nEb2, nEb2, $C0
	gLoopEnd
	; Unused
	dc.b $60

.1F_00	dc.b $C0
	gsPrio		$7D
	gSFX
	gsPatch		$00
	dc.b $98, $D8, nC5
	gStop

.20_00	dc.b $C0
	gsPrio		$64
	gSFX
	gsPatch		$53
	dc.b $89, $C9, nB3
	gStop

.21_00	dc.b $C0
	gsPrio		$64
	gSFX
	gsPatch		$56
	dc.b $8A, $CA, nBb3
	gStop

.22_00	dc.b $C0
	gsVolume	$0D
	gsPrio		$69
	gSFX
	gsPatch		$57
	dc.b $89, $C9, nCs1
	gStop

.23_00	dc.b $C0
	gsPrio		$00
	gsTempo		105
	gsPatch		$4B
	gStop

.23_01	dc.b $C0
	gsPrio		$0F
	dc.b $CC
	gsPatch		$4C
	dc.b $85, $C0, nB3, nAb3, $C6, nEb4, $C0, nAb3
	dc.b nB3, $C6, nEb4, $C0, nAb3, nB3, $CC, nEb4
	dc.b $C0, nAb3, nB3, $D8, nEb4, $C0, nEb4, nAb3
	dc.b $D8, nB3, $C0, nEb4, nB3, $D8, nAb3, $C0
	dc.b nD4, nAb3, $C6, nB3, $C0, nD4, nB3, $C6
	dc.b nAb3, $C0, nD4, nB3, $CC, nAb3, $C0, nD4
	dc.b nB3, $D8, nAb3, $C0, nB3, nAb3, $D8, nD4
	dc.b $C0, nAb3, nB3, $D8, nD4, $C0, nEb4, nAb3
	dc.b $C6, nB3, $C0, nEb4, nB3, $C6, nAb3, $C0
	dc.b nEb4, nB3, $CC, nAb3, $C0, nEb4, nB3, $D8
	dc.b nAb3, $C0, nB3, nAb3, $D8, nEb4, $C0, nAb3
	dc.b nB3, $D8, nEb4, $C0, nB3, nAb3, $C6, nE4
	dc.b $C0, nAb3, nB3, $C6, nE4, $C0, nAb3, nB3
	dc.b $CC, nE4, $C0, nAb3, nB3, $CC, nE4, $C0
	dc.b nBb3, nG3, $C5, nEb4
	gStop

.23_02	dc.b $C0
	gsPrio		$14
	dc.b $C5, $F4
	gsPatch		$4F
	dc.b $8B, $CC, nEb4, $C0
	gStartSeq	$24
	gStop

.23_03	dc.b $C0
	gsPrio		$00
	gsPatch		$45
	gStop

.23_04	dc.b $C0
	gsPrio		$00
	gsPatch		$4E
	gStop

.23_05	dc.b $C0
	gsPrio		$0D
	gsPatch		$50
	dc.b $82, $8F, $C2, $D0, nB3, $97, $D8, nAb3
	dc.b nBb3, $82, $8F, $C2, $D0, nB3, $85, $C5
	dc.b nBb3
	gStop

.23_06	dc.b $C0
	gsPrio		$00
	gsPatch		$24
	gStop

.23_07	dc.b $C0
	gsPrio		$14
	gsPatch		$58
	dc.b $8B, $D8, nAb3, nEb3, nAb3, nEb3, nE3, nB2
	dc.b nE3, nB2, nAb3, nEb3, nAb3, nEb3, nE3, nB2
	dc.b $88, $CC, nEb3, nEb3, nF3, $C8, nG3
	gStop

.24_00	dc.b $C0
	gsPrio		$0A
	gsTempo		105
	dc.b $E4, $CC
	gsPatch		$4B
	dc.b $85, $C0, nBb3, nEb4, $C6, nG3, $C0, nBb3
	dc.b nEb4, $C6, nG3, $C0, nBb3, nEb4, $C6, nG3
	dc.b $C0, nG3, $81, nBb3, $85, nBb3, $C6, nEb4
	dc.b $C0, nBb3, nEb4, $C6, nG3, $C0, nG3, nBb3
	dc.b $C6, nEb4, $C0, nG3, nBb3, $CC, nEb4, $C0
	dc.b nG3, nEb4, $D8, nBb3, $C0, nG3, nEb4, $D8
	dc.b nBb3, $C0, nB3, nEb4, $C6, nAb3, $C0, nB3
	dc.b nEb4, $C6, nAb3, $C0, nAb3, nB3, $CC, nEb4
	dc.b $C0, nB3, nEb4, $C6, nAb3, $C0, nB3, nEb4
	dc.b $C6, nAb3, $C0, nB3, nEb4, $FC, nAb3, $C0
	dc.b nG3, nEb4, $C6, nBb3, $C0, nG3, nEb4, $C6
	dc.b nBb3, $C0, nG3, nEb4, $C6, nBb3, $C0, nEb4
	dc.b $81, nBb3, $85, nBb3, $C6, nG3, $C0, nG3
	dc.b nEb4, $C6, nBb3, $C0, nEb4, nBb3, $C6, nG3
	dc.b $C0, nEb4, nBb3, $CC, nG3, $C0, nBb3, nEb4
	dc.b $D8, nG3, $C0, nBb3, nEb4, $D8, nG3, $C0
	dc.b nAb3, nEb4, $C6, nB3, $C0, nAb3, nEb4, $C6
	dc.b nB3, $C0, nEb4, nB3, $CC, nAb3, $C0, nAb3
	dc.b nEb4, $C6, nB3, $C0, nAb3, nEb4, $C6, nB3
	dc.b $C0, nAb3, nEb4, $FC, nB3, $8B, $CC, nE3
	dc.b nAb3, nB3, $85, $C6, nBb3, nB3, nBb3, nAb3
	dc.b nG3, nE3, nEb3, nCs3, $8B, $CC, nB2, nAb2
	dc.b nBb2, nB2, nD3, nEb3, nBb3, nB3, $97, $D8
	dc.b nD4, nEb4, nE4, $93, $D3, nFs4, $82, $C2
	dc.b nF4, $C3, nE4, $B5, $F5, nEb4
	gStop

.24_01	dc.b $C0
	gsPrio		$09
	dc.b $CC
	gsPatch		$4C
	dc.b $85, $C0, nEb4, nAb3, $C6, nB3, $C0, nEb4
	dc.b nB3, $C6, nAb3, $C0, nEb4, nB3, $CC, nAb3
	dc.b $C0, nEb4, nB3, $D8, nAb3, $C0, nB3, nAb3
	dc.b $D8, nEb4, $C0, nAb3, nB3, $D8, nEb4, $C0
	dc.b nB3, nAb3, $C6, nD4, $C0, nAb3, nB3, $C6
	dc.b nD4, $C0, nAb3, nB3, $CC, nD4, $C0, nAb3
	dc.b nB3, $D8, nD4, $C0, nD4, nAb3, $D8, nB3
	dc.b $C0, nD4, nB3, $D8, nAb3, $C0, nB3, nAb3
	dc.b $C6, nEb4, $C0, nAb3, nB3, $C6, nEb4, $C0
	dc.b nAb3, nB3, $CC, nEb4, $C0, nAb3, nB3, $D8
	dc.b nEb4, $C0, nEb4, nAb3, $D8, nB3, $C0, nEb4
	dc.b nB3, $D8, nAb3, $C0, nE4, nAb3, $C6, nB3
	dc.b $C0, nE4, nB3, $C6, nAb3, $C0, nE4, nB3
	dc.b $CC, nAb3, $C0, nE4, nB3, $CC, nAb3, $C0
	dc.b nEb4, nBb3, $FC, nG3, $C0, nB3, nAb3, $C6
	dc.b nEb4, $C0, nAb3, nB3, $C6, nEb4, $C0, nAb3
	dc.b nB3, $CC, nEb4, $C0, nAb3, nB3, $D8, nEb4
	dc.b $C0, nEb4, nAb3, $D8, nB3, $C0, nEb4, nB3
	dc.b $D8, nAb3, $C0, nD4, nAb3, $C6, nB3, $C0
	dc.b nD4, nB3, $C6, nAb3, $C0, nD4, nB3, $CC
	dc.b nAb3, $C0, nD4, nB3, $D8, nAb3, $C0, nB3
	dc.b nAb3, $D8, nD4, $C0, nAb3, nB3, $D8, nD4
	dc.b $C0, nEb4, nAb3, $C6, nB3, $C0, nEb4, nB3
	dc.b $C6, nAb3, $C0, nEb4, nB3, $CC, nAb3, $C0
	dc.b nEb4, nB3, $D8, nAb3, $C0, nB3, nAb3, $D8
	dc.b nE4, $C0, nG3, nBb3, $D8, nEb4, $C0, nB3
	dc.b nAb3, $C6, nEb4, $C0, nAb3, nB3, $C6, nEb4
	dc.b $C0, nAb3, nB3, $CC, nEb4, $C0, nAb3, nB3
	dc.b $CC, nEb4, $C0, nAb3, nB3, $CC, $FC, nEb4
	dc.b $C0, nB3, nAb3, $C6, nEb4, $C0, nAb3, nB3
	dc.b $C6, nEb4, $C0, nAb3, nB3, $CC, nEb4, $C0
	dc.b nAb3, nB3, $D8, nEb4, $C0, nEb4, nAb3, $D8
	dc.b nB3, $C0, nEb4, nB3, $D8, nAb3, $C0, nD4
	dc.b nAb3, $C6, nB3, $C0, nD4, nB3, $C6, nAb3
	dc.b $C0, nD4, nB3, $CC, nAb3, $C0, nD4, nB3
	dc.b $D8, nAb3, $C0, nB3, nAb3, $D8, nD4, $C0
	dc.b nAb3, nB3, $D8, nD4, $C0, nEb4, nAb3, $C6
	dc.b nB3, $C0, nEb4, nB3, $C6, nAb3, $C0, nEb4
	dc.b nB3, $CC, nAb3, $C0, nEb4, nB3, $D8, nAb3
	dc.b $C0, nB3, nAb3, $D8, nEb4, $C0, nAb3, nB3
	dc.b $D8, nEb4, $C0, nB3, nAb3, $C6, nE4, $C0
	dc.b nAb3, nB3, $C6, nE4, $C0, nAb3, nB3, $CC
	dc.b nE4, $C0, nAb3, nB3, $CC, nE4, $C0, nG3
	dc.b nBb3, $FC, nEb4, $C0, nEb4, nAb3, $C6, nB3
	dc.b $C0, nEb4, nB3, $C6, nAb3, $C0, nEb4, nB3
	dc.b $CC, nAb3, $C0, nEb4, nB3, $D8, nAb3, $C0
	dc.b nB3, nAb3, $D8, nEb4, $C0, nAb3, nB3, $D8
	dc.b nEb4, $C0, nB3, nAb3, $C6, nD4, $C0, nAb3
	dc.b nB3, $C6, nD4, $C0, nAb3, nB3, $CC, nD4
	dc.b $C0, nAb3, nB3, $D8, nD4, $C0, nD4, nAb3
	dc.b $D8, nB3, $C0, nD4, nB3, $D8, nAb3, $C0
	dc.b nB3, nAb3, $C6, nEb4, $C0, nAb3, nB3, $C6
	dc.b nEb4, $C0, nAb3, nB3, $CC, nEb4, $C0, nAb3
	dc.b nB3, $D8, nEb4, $C0, nE4, nAb3, $D8, nB3
	dc.b $C0, nEb4, nBb3, $D8, nG3, $C0, nEb4, nAb3
	dc.b $C6, nB3, $C0, nEb4, nB3, $C6, nAb3, $C0
	dc.b nEb4, nB3, $CC, nAb3, $C0, nEb4, nB3, $CC
	dc.b nAb3, $C0, nEb4, nB3, $D8, nAb3, $97, $C0
	dc.b nE3, $D8, nE4, $A3, $C0, nEb2, $97, $D8
	dc.b nEb4, $8E, $CC, nCs4, $8B, $C6, nF2, $85
	dc.b nB3, $8B, $C0, nG2, $97, $CC, nBb3, $8B
	dc.b nEb2, $C0, nF2, $CC, nB3, $C0, nG2, $CC
	dc.b nCs4, $C0, nAb2, $8E, $D2, nB3, $85, $C6
	dc.b nBb3, $8B, $C0, nEb2, $AF, $D8, nAb3, $8B
	dc.b nAb2, $91, $C0, nD4, $97, $D2, nE2, $85
	dc.b $C6, nE4, $A3, $C0, nEb2, $97, $D8, nEb4
	dc.b $8E, $CC, nCs4, $8B, $C6, nF2, $85, nB3
	dc.b $8B, $C0, nG2, $CC, nBb3, $C0, nEb2, $CC
	dc.b nEb3, $C0, nF2, $CC, nD4, $C0, nG2, $CC
	dc.b nCs4, $C0, nAb2, $CC, nB3, $85, $C6, nCs4
	dc.b nB3, $8B, $C0, nEb2, $CC, nBb3, $85, $C6
	dc.b nB3, nBb3, $8B, $C0, nAb2, $85, $CC, nAb3
	dc.b $8B, nEb4, $97, $C0, nB2, $8B, $CC, nD4
	dc.b nEb4, $9D, $C0, nE4, $AF, $DE, nAb2, $85
	dc.b $C6, nEb4, nCs4, nB3, $AF, $C0, nG2, $A3
	dc.b $E4, nBb3, $85, $C6, nB3, nCs4, $97, $C0
	dc.b nB2, $D8, nEb4, $C0, nBb2, $D8, nCs4, $C0
	dc.b nAb2, $85, $C6, nB3, nCs4, nB3, nBb3, $97
	dc.b $C0, nFs2, $85, $C6, nAb3, nBb3, nB3, nCs4
	dc.b $8C, $C0, nE2, $81, $93, $D2, nD4, $85
	dc.b $C6, nFs2, $8C, $D2, nAb2, $85, $C6, nBb2
	dc.b $8C, $D2, nB2, $85, $C6, nCs3, $88, $CC
	dc.b nD3, $85, $C0, nCs3, $C6, nCs4, $C0, nB2
	dc.b $C6, nD4, $8C, $C0, nBb2, $A3, $D2, nEb4
	dc.b $85, $C6, nAb2, $8C, $CC, nG2, $85, $C6
	dc.b nEb4, $C0, nE2, $C6, nEb4, $C0, nEb2, $C5
	dc.b nEb4
	gStop

.24_02	dc.b $C0
	gsPrio		$0F
	gsPatch		$4F
	dc.b $A3, $E4, nD4, $8B, $CC, nEb4, $A3, $E4
	dc.b nB3, $8B, $CC, nEb4, $A3, $E4, nD4, $85
	dc.b $C6, nB3, nAb3, $A3, $E4, nE3, $85, $C6
	dc.b nAb3, nBb3, $A3, $E4, nB3, $8B, $CC, nEb4
	dc.b $A3, $E4, nBb4, $8B, $CC, nAb4, $B5, $C1
	dc.b $D4, nEb4, $8B, $CC, nEb4, $A3, $E4, nD4
	dc.b $8B, $CC, nEb4, $A3, $E4, nB3, $8B, $CC
	dc.b nEb4, $A3, $E4, nE4, $85, $C6, nD4, nB3
	dc.b $A3, $E4, nAb4, $8B, $CC, nBb4, $A3, $E4
	dc.b nB4, $85, $C6, nAb4, nEb4, $A3, $E4, nBb4
	dc.b $85, $C6, nG4, nBb4, $B5, $C7, $EC, nAb4
	dc.b $8B, $CC, nE3, nAb3, nB3, $85, $C6, nBb3
	dc.b nB3, nBb3, nAb3, nG3, nE3, nEb3, nCs3, $8B
	dc.b $CC, nB2, nAb2, nBb2, nB2, nD3, nEb3, nBb3
	dc.b nB3, $97, $D8, nD4, nEb4, nE4, $93, $D3
	dc.b nFs4, $82, $C2, nF4, $C3, nE4, $B5, $F5
	dc.b nEb4
	gStop

.24_03	dc.b $C0
	gsVolume	$05
	gsPrio		$0C
	dc.b $CC, $CC
	gsPatch		$45
	dc.b $85, $C0, nBb4, nEb5, $C6, nG4, $C0, nBb4
	dc.b nEb5, $C6, nG4, $C0, nBb4, nEb5, $C6, nG4
	dc.b $C0, nG4, $81, nBb4, $85, nBb4, $C6, nEb5
	dc.b $C0, nBb4, nEb5, $C6, nG4, $C0, nG4, nBb4
	dc.b $C6, nEb5, $C0, nG4, nBb4, $CC, nEb5, $C0
	dc.b nG4, nEb5, $D8, nBb4, $C0, nG4, nEb5, $D8
	dc.b nBb4, $C0, nB4, nEb5, $C6, nAb4, $C0, nB4
	dc.b nEb5, $C6, nAb4, $C0, nAb4, nB4, $CC, nEb5
	dc.b $C0, nB4, nEb5, $C6, nAb4, $C0, nB4, nEb5
	dc.b $C6, nAb4, $C0, nB4, nEb5, $FC, nAb4, $C0
	dc.b nG4, nEb5, $C6, nBb4, $C0, nG4, nEb5, $C6
	dc.b nBb4, $C0, nG4, nEb5, $C6, nBb4, $C0, nEb5
	dc.b $81, nBb4, $85, nBb4, $C6, nG4, $C0, nG4
	dc.b nEb5, $C6, nBb4, $C0, nEb5, nBb4, $C6, nG4
	dc.b $C0, nEb5, nBb4, $CC, nG4, $C0, nBb4, nEb5
	dc.b $D8, nG4, $C0, nBb4, nEb5, $D8, nG4, $C0
	dc.b nAb4, nEb5, $C6, nB4, $C0, nAb4, nEb5, $C6
	dc.b nB4, $C0, nEb5, nB4, $CC, nAb4, $C0, nAb4
	dc.b nEb5, $C6, nB4, $C0, nAb4, nEb5, $C6, nB4
	dc.b $C0, nAb4, nEb5, $C5, nB4
	gStop

.24_04	dc.b $C0
	gsPrio		$00
	gsPatch		$4E
	gStop

.24_05	dc.b $C0
	gsPrio		$0F
	dc.b $D7, $F4
	gsPatch		$50
	dc.b $8B, $CC, nEb5, $A3, $E4, nD5, $8B, $CC
	dc.b nEb5, $A3, $E4, nB4, $8B, $CC, nEb5, $A3
	dc.b $E4, nD5, $85, $C6, nB4, nAb4, $A3, $E4
	dc.b nE4, $85, $C6, nAb4, nBb4, $A3, $E4, nB4
	dc.b $8B, $CC, nEb5, $A3, $E4, nBb5, $8B, $CC
	dc.b nAb5, $B5, $C1, $D4, nEb5, $8B, $CC, nEb5
	dc.b $A3, $E4, nD5, $8B, $CC, nEb5, $A3, $E4
	dc.b nB4, $8B, $CC, nEb5, $A3, $E4, nE5, $85
	dc.b $C6, nD5, nB4, $A3, $E4, nAb5, $8B, $CC
	dc.b nBb5, $A3, $E4, nB5, $85, $C6, nAb5, nEb5
	dc.b $A3, $E4, nBb5, $85, $C6, nG5, nBb5, $B5
	dc.b $F5, nAb5
	gStop

.24_06	dc.b $C0
	gsPrio		$08
	dc.b $CB, $E8
	gsPatch		$24
	dc.b $97, $C0, nE4, $D8, nE5, $A3, $C0, nEb3
	dc.b $97, $D8, nEb5, $8E, $CC, nCs5, $8B, $C6
	dc.b nF3, $85, nB4, $8B, $C0, nG3, $97, $CC
	dc.b nBb4, $8B, nEb3, $C0, nF3, $CC, nB4, $C0
	dc.b nG3, $CC, nCs5, $C0, nAb3, $8E, $D2, nB4
	dc.b $85, $C6, nBb4, $8B, $C0, nEb3, $AF, $D8
	dc.b nAb4, $8B, nAb3, $91, $C0, nD5, $97, $D2
	dc.b nE3, $85, $C6, nE5, $A3, $C0, nEb3, $97
	dc.b $D8, nEb5, $8E, $CC, nCs5, $8B, $C6, nF3
	dc.b $85, nB4, $8B, $C0, nG3, $CC, nBb4, $C0
	dc.b nEb3, $CC, nEb4, $C0, nF3, $CC, nD5, $C0
	dc.b nG3, $CC, nCs5, $C0, nAb3, $CC, nB4, $85
	dc.b $C6, nCs5, nB4, $8B, $C0, nEb3, $CC, nBb4
	dc.b $85, $C6, nB4, nBb4, $8B, $C0, nAb3, $85
	dc.b $CC, nAb4, $8B, nEb5, $97, $C0, nB3, $8B
	dc.b $CC, nD5, nEb5, $9D, $C0, nE5, $AF, $DE
	dc.b nAb3, $85, $C6, nEb5, nCs5, nB4, $AF, $C0
	dc.b nG3, $A3, $E4, nBb4, $85, $C6, nB4, nCs5
	dc.b $97, $C0, nB3, $D8, nEb5, $C0, nBb3, $D8
	dc.b nCs5, $C0, nAb3, $85, $C6, nB4, nCs5, nB4
	dc.b nBb4, $97, $C0, nFs3, $85, $C6, nAb4, nBb4
	dc.b nB4, nCs5, $8C, $C0, nE3, $81, $93, $D2
	dc.b nD5, $85, $C6, nFs3, $8C, $D2, nAb3, $85
	dc.b $C6, nBb3, $8C, $D2, nB3, $85, $C6, nCs4
	dc.b $88, $CC, nD4, $85, $C0, nCs4, $C6, nCs5
	dc.b $C0, nB3, $C6, nD5, $8C, $C0, nBb3, $A3
	dc.b $D2, nEb5, $85, $C6, nAb3, $8C, $CC, nG3
	dc.b $85, $C6, nEb5, $C0, nE3, $C6, nEb5, $C0
	dc.b nEb3, $C5, nEb5
	gStop

.24_07	dc.b $C0
	gsPrio		$14
	gsPatch		$58
	dc.b $8B, $D8, nAb3, nEb3, nAb3, nEb3, nE3, nB2
	dc.b nE3, nB2, nAb3, nEb3, nAb3, nEb3, nE3, nB2
	dc.b $88, $CC, nEb3, nEb3, nF3, nG3, $8B, $D8
	dc.b nAb3, nEb3, nAb3, nEb3, nE3, nB2, nE3, nB2
	dc.b nAb3, nEb3, nE3, nEb3, nAb3, nEb3, $88, nAb3
	dc.b $97, nE3, $8B, nEb3, nBb2, nEb3, nBb2, nAb3
	dc.b nEb3, nAb2, $97, nE3, $8B, nEb3, nBb2, nEb3
	dc.b nBb2, nAb3, nEb3, nAb3, $97, nEb3, $8B, nE3
	dc.b nB2, nEb3, nBb2, nAb3, nFs3, nE3, nEb3, nE3
	dc.b nB2, nE3, nB2, nEb3, nBb2, $86, $CC, nEb3
	dc.b nEb3, nF3, nG3, $8B, $D8, nAb3, nEb3, nAb3
	dc.b nEb3, nE3, nB2, nE3, nB2, nAb3, nEb3, nAb3
	dc.b nEb3, nE3, nB2, $88, $CC, nEb3, nEb3, nF3
	dc.b nG3, $8B, $D8, nAb3, nEb3, nAb3, nEb3, nE3
	dc.b nB2, nE3, nB2, nAb3, nEb3, nE3, nEb3, nAb3
	dc.b nEb3, $88, nAb3, $97, nE3, $8B, nEb3, nBb2
	dc.b nEb3, nBb2, nAb3, nEb3, nAb2, $97, nE3, $8B
	dc.b nEb3, nBb2, nEb3, nBb2, nAb3, nEb3, nAb3, $97
	dc.b nEb3, $8B, nE3, nB2, nEb3, nBb2, nAb3, nFs3
	dc.b nE3, nEb3, nE3, nB2, nE3, nB2, nEb3, nBb2
	dc.b $86, $CC, nEb3, nEb3, nF3, nG3, $C0
	gStartSeq	$25
	gStop

.25_00	dc.b $C0
	gsPrio		$0A
	gsTempo		105
	gsPatch		$4B
	dc.b $85, $C6, nEb3, nE3, nF3, nFs3, nG3, nEb3
	dc.b nF3, nG3, $CC, nAb3, $83, $C4, nBb3, nB3
	dc.b nC4, $85, $CC, nCs4, $83, $C4, nB3, nC4
	dc.b nCs4, $85, $C3, $CC, nBb3, $C0, nEb4, $C6
	dc.b nBb3, $C0, nA3, $C6, nD4, $C0, nBb3, $C6
	dc.b nEb4, $C0, nA3, $C6, nD4, $C0, nBb3, $C6
	dc.b nEb4, $C0, nA3, $C6, nD4, $C0, nBb3, $FC
	dc.b nEb4, $C0, nE4, $C6, nCs4, $C0, nE4, $C6
	dc.b nCs4, $C0, nE4, $CC, nCs4, $C0, nE4, $C6
	dc.b nCs4, $C0, nE4, $C6, nCs4, $C0, nE4, $FC
	dc.b nCs4, $C0, nEb4, $C6, nBb3, $C0, nE4, $C6
	dc.b nB3, $C0, nEb4, $C6, nBb3, $C0, nE4, $C6
	dc.b nB3, $C0, nEb4, $C6, nBb3, $C0, nE4, $C6
	dc.b nB3, $C0, nEb4, $CE, $D0, nBb3, $C6, nEb4
	dc.b nE4, nG4, nAb4, nBb4, nB4, nCs5, nB4, nBb4
	dc.b nB4, nBb4, nAb4, nG4, nEb4, nF4, nG4, nAb4
	dc.b nB4, nBb4, nB4, nBb4, nCs5, nC5, nCs5, nB4
	dc.b nEb5, nD5, nEb5, nCs5, nE5, nEb5, nE5, nEb5
	dc.b nE5, nEb5, nC5, nCs5, nEb5, nE5, nFs5, nEb5
	dc.b nB4, nBb4, nAb4, nG4, nEb4, nB3, nBb3, $A3
	dc.b $E4, nAb3, $8B, $CC, nBb3, $97, $D8, nB3
	dc.b nEb4, $A3, $E4, nD4, $8B, $CC, nB3, nAb3
	dc.b nB3, nG3, nBb3, $A3, $E4, nAb3, $8B, $CC
	dc.b nBb3, $97, $D8, nB3, nEb4, $A3, $E4, nD4
	dc.b $85, $C6, nEb4, nE4, $C5, nEb4
	gStop

.25_01	dc.b $C0
	gsPrio		$09
	dc.b $C3, $C0
	gsPatch		$4C
	dc.b $85, $C0, nEb4, $C6, nB3, $C0, nE4, $C6
	dc.b nC4, $C0, nF4, $C6, nCs4, $C0, nFs4, $C6
	dc.b nD4, $C0, nG4, $C6, nEb4, $C0, nEb4, $C6
	dc.b nBb3, $C0, nF4, $C6, nB3, $C0, nG4, $C6
	dc.b nCs4, $C0, nAb4, $CC, nEb4, $83, $C0, nE4
	dc.b $C4, nBb4, $C0, nEb4, $C4, nB4, $C0, nD4
	dc.b $C4, nC5, $85, $C0, nCs4, $CC, nCs5, $83
	dc.b $C0, nD4, $C4, nB4, $C0, nEb4, $C4, nC5
	dc.b $C0, nE4, $C4, nCs5, $85, $C0, nEb4, $CD
	dc.b $E0, nBb4, $C6, nEb4, nE4, nEb4, nE4, nEb4
	dc.b nE4, nEb4, nE4, nEb4, nE4, nEb4, nE4, nEb4
	dc.b nE4, nEb4, nE4, nCs4, nEb4, nE4, nFs4, nAb4
	dc.b nB4, nBb4, nG4, nAb4, nE4, nEb4, nC4, nCs4
	dc.b nEb4, nE4, nG4, nAb4, nBb4, nB4, nCs5, nB4
	dc.b nBb4, nAb4, nG4, nAb4, nBb4, nB4, nEb5, nG5
	dc.b nAb5, nBb5, nB5, $8E, $D3, nBb5, $84, $C5
	dc.b nAb5, $8E, $D3, nG5, $84, $C5, nE5, $8E
	dc.b $D3, nEb5, $84, $C5, nCs5, $8E, $D3, nB4
	dc.b $84, $C3, $D1, nBb4, $85, $C0, nEb4, nAb3
	dc.b $C6, nB3, $C0, nEb4, nB3, $C6, nAb3, $C0
	dc.b nEb4, nB3, $CC, nAb3, $C0, nEb4, nB3, $D8
	dc.b nAb3, $C0, nB3, nAb3, $D8, nEb4, $C0, nAb3
	dc.b nB3, $D8, nEb4, $C0, nB3, nAb3, $C6, nD4
	dc.b $C0, nAb3, nB3, $C6, nD4, $C0, nAb3, nB3
	dc.b $CC, nD4, $C0, nAb3, nB3, $D8, nD4, $C0
	dc.b nD4, nAb3, $D8, nB3, $C0, nD4, nB3, $D8
	dc.b nAb3, $C0, nB3, nAb3, $C6, nEb4, $C0, nAb3
	dc.b nB3, $C6, nEb4, $C0, nAb3, nB3, $CC, nEb4
	dc.b $C0, nAb3, nB3, $D8, nEb4, $C0, nEb4, nAb3
	dc.b $D8, nB3, $C0, nEb4, nB3, $D8, nAb3, $C0
	dc.b nE4, nAb3, $C6, nB3, $C0, nE4, nB3, $C6
	dc.b nAb3, $C0, nE4, nB3, $CC, nAb3, $C0, nE4
	dc.b nB3, $CC, nAb3, $C0, nEb4, nG3, $C5, nBb3
	gStop

.25_02	dc.b $C0
	gsPrio		$0C
	dc.b $C1, $EC
	gsPatch		$4F
	dc.b $85, $C6, nEb3, nD3, nEb3, nD3, nEb3, nD3
	dc.b $C6, $FC, nEb3, $C0, nCs4, $C6, nE4, $C0
	dc.b nCs4, $C6, nE4, $C0, nCs4, $CC, nE4, $C0
	dc.b nCs4, $C6, nE4, $C0, nCs4, $C6, nE4, $C0
	dc.b nCs4, $FC, nE4, $C0, nBb3, $C6, nEb4, $C0
	dc.b nB3, $C6, nE4, $C0, nBb3, $C6, nEb4, $C0
	dc.b nB3, $C6, nE4, $C0, nBb3, $C6, nEb4, $C0
	dc.b nB3, $C6, nE4, $C0, nBb3, $F0, nEb4, $C6
	dc.b nAb3, nG3, nAb3, nBb3, nB3, nBb3, nB3, nCs4
	dc.b nEb4, nB3, nBb3, nAb3, nFs3, nF3, nE3, nFs3
	dc.b nEb3, nD3, nEb3, nF3, nG3, nF3, nG3, nAb3
	dc.b nBb3, nAb3, nBb3, nB3, nCs4, nBb3, nB3, nCs4
	dc.b nB3, nBb3, nAb3, nBb3, nB3, nBb3, nB3, nCs4
	dc.b nEb4, nCs4, nB3, nBb3, nB3, nCs4, nEb4, nFs4
	dc.b nE4, nFs4, nE4, nEb4, nCs4, nEb4, nE4, nEb4
	dc.b nCs4, nB3, nBb3, nAb3, nFs3, nE3, nEb3, $CE
	dc.b $FA, nCs3, $8B, $CC, nEb4, $C0
	gStartSeq	$24
	gStop

.25_03	dc.b $C0
	gsVolume	$05
	gsPrio		$07
	dc.b $C5, $DC
	gsPatch		$45
	dc.b $8B, $CC, nAb3, nBb3, nB3, nCs4, nEb4, nE4
	dc.b nFs4, nAb4, nE4, nEb4, nCs4, $85, $D2, nEb4
	dc.b $C6, nBb3, $A3, $E4, nBb3, $8B, $CC, nAb3
	dc.b nBb3, nB3, nCs4, nEb4, nE4, nFs4, nAb4, nBb4
	dc.b nB4, nE5, $85, $C6, nEb5, nE5, nEb5, nE5
	dc.b nEb5, nE5, nEb5, nE5, $CC, $F0, nEb5, $C0
	dc.b nEb4, nB3, $CC, nAb4, $C0, nEb4, nAb4, $C6
	dc.b nB3, $C0, nEb4, nAb4, $C6, nB3, $C0, nFs4
	dc.b nEb4, $CC, nBb4, $C0, nFs4, nBb4, $C6, nEb4
	dc.b $C0, nFs4, nBb4, $C6, nEb4, $C0, nAb4, nE4
	dc.b $CC, nB4, $C0, nAb4, nB4, $C6, nE4, $C0
	dc.b nAb4, nB4, $C6, nE4, $C0, nAb4, nE4, $CC
	dc.b nCs5, $C0, nE4, nCs5, $C6, nAb4, $C0, nE4
	dc.b nCs5, $C6, nAb4, $C0, nBb4, nEb5, $CC, nG4
	dc.b $C0, nBb4, nEb5, $C6, nG4, $C0, nBb4, nEb5
	dc.b $C6, nG4, $C0, nCs5, nE5, $C6, nAb4, $C0
	dc.b nCs5, nE5, $C6, nAb4, $C0, nCs5, nE5, $C6
	dc.b nAb4, $C0, nCs5, nE5, $C6, nAb4, $C0, nBb4
	dc.b nEb5, $C5, nG4
	gStop

.25_04	dc.b $C0
	gsPrio		$05
	dc.b $C1, $EC
	gsPatch		$4E
	dc.b $85, $CC, nEb4, nG4, nBb4, $C2, $DC, nEb5
	dc.b $CC, nEb5, nG5, nBb5, $C2, $DC, nEb6, $CC
	dc.b nEb3, nG3, nBb3, $C2, $D0, nEb4, $CC, nBb4
	dc.b nEb5, nG5, nBb5, $C5, nEb6
	gStop

.25_05	dc.b $C0
	gsPrio		$00
	gsPatch		$50
	gStop

.25_06	dc.b $C0
	gsPrio		$08
	gsPatch		$24
	dc.b $88, $E4, nAb4, $CC, nBb4, $D8, nB4, nCs5
	dc.b $FC, nBb4, $86, $CC, nEb4, nF4, nG4, $88
	dc.b $E4, nAb4, $CC, nBb4, $D8, nB4, nCs5, $FC
	dc.b nBb4, $CC, nEb4, nE4, nEb4, $E4, nCs4, $CC
	dc.b nEb4, $D8, nE4, nAb4, $FC, nEb4, $CC, nAb3
	dc.b nBb3, nB3, $E4, nCs4, $CC, nEb4, $D8, nE4
	dc.b nAb4, $8B, $CC, nEb4, nE4, nF4, nFs4, $87
	dc.b nG4, nEb4, nF4, nG4, $B5, $C0, nEb4, nAb4
	dc.b $C1, $C8, nB3, $85, $C0, nEb4, nAb4, $CC
	dc.b nB3, $C0, nEb4, nAb4, $C6, nB3, $C0, nEb4
	dc.b nAb4, $C6, nB3, $B5, $C0, nG4, nBb4, $C1
	dc.b $C8, nEb4, $85, $C0, nG4, nBb4, $CC, nEb4
	dc.b $C0, nG4, nBb4, $C6, nEb4, $C0, nG4, nBb4
	dc.b $C6, nEb4, $B5, $C0, nAb4, nB4, $C1, $C8
	dc.b nEb4, $85, $C0, nAb4, nB4, $CC, nEb4, $C0
	dc.b nAb4, nB4, $C6, nEb4, $C0, nAb4, nB4, $C6
	dc.b nEb4, $B5, $C0, nCs5, nAb4, nB4, $C1, $C8
	dc.b nE4, $85, $C0, nCs5, nAb4, nB4, $CC, nE4
	dc.b $C0, nCs5, nAb4, nB4, $C6, nE4, $C0, nCs5
	dc.b nAb4, nB4, $C6, nE4, $B5, $C0, nB4, nEb5
	dc.b $C1, $C8, nAb4, $85, $C0, nB4, nEb5, $CC
	dc.b nAb4, $C0, nB4, nEb5, $C6, nAb4, $C0, nB4
	dc.b nEb5, $C6, nAb4, $B5, $C0, nE5, nB4, nCs5
	dc.b $C1, $C8, nAb4, $85, $C0, nB4, nCs5, nE5
	dc.b $CC, nAb4, $C0, nB4, nCs5, nE5, $C6, nAb4
	dc.b $C0, nCs5, nB4, nE5, $C6, nAb4, $B5, $C0
	dc.b nD5, nF5, $C1, $C8, nBb4, $85, $C0, nD5
	dc.b nF5, $CC, nBb4, $C0, nD5, nF5, $C6, nBb4
	dc.b $C0, nD5, nF5, $C6, nBb4, $BB, $C0, nG5
	dc.b $B5, nEb5, $C1, $C8, nBb4, $85, $C0, nEb5
	dc.b nG5, $CC, nBb4, $C0, nEb5, nG5, $C6, nBb4
	dc.b $C0, nEb5, nG5, $C6, nBb4, $88, $CC, nAb4
	dc.b $85, $C6, nAb4, nAb4, $88, $CC, nBb4, $85
	dc.b $C6, nBb4, nBb4, $88, $CC, nB4, $85, $C6
	dc.b nB4, nB4, $88, $CC, nCs5, $85, $C6, nCs5
	dc.b nCs5, $CC, nEb5, $C6, nEb5, nEb5, nE5, nE5
	dc.b nE5, nE5, $C5, nEb5
	gStop

.25_07	dc.b $C0
	gsPrio		$14
	gsPatch		$58
	dc.b $88, $E4, nAb3, $CC, nBb3, $D8, nB3, nCs4
	dc.b $FC, nBb3, $86, $CC, nEb3, nF3, nG3, $88
	dc.b $E4, nAb3, $CC, nBb3, $D8, nB3, nCs4, $FC
	dc.b nBb3, $CC, nEb3, nE3, nEb3, $E4, nCs3, $CC
	dc.b nEb3, $D8, nE3, nAb3, $FC, nEb3, $CC, nAb2
	dc.b nBb2, nB2, $E4, nCs3, $CC, nEb3, $D8, nE3
	dc.b nAb3, $8B, $CC, nEb3, nE3, nF3, nFs3, $87
	dc.b nG3, nEb3, nF3, nG3, $8B, $D8, nAb3, nEb3
	dc.b nAb3, nEb3, nEb4, nBb3, nEb4, nBb3, nAb3, nEb3
	dc.b nAb3, nEb3, nCs3, nAb2, nCs3, nAb2, nAb3, nEb3
	dc.b nAb3, nEb3, nCs3, nAb2, nCs3, nAb2, nD3, nBb2
	dc.b nD3, nBb2, nEb3, nBb2, nEb3, nBb2, nAb3, nFs3
	dc.b nE3, nCs3, nEb3, nBb2, $87, $CC, nEb3, nEb3
	dc.b nF3, nG3, $8B, $D8, nAb3, nEb3, nAb3, nEb3
	dc.b nE3, nB2, nE3, nB2, nAb3, nEb3, nAb3, nEb3
	dc.b nE3, nB2, $88, $CC, nEb3, nEb3, nF3, $C8
	dc.b nG3
	gStop

.26_00	dc.b $C0
	gsPrio		$14
	gLoopStart
	dc.b $C0
	gNop
	gsTempo		100
	dc.b $C7
	gsPatch		$4F
	dc.b $84, $C5, nAb3, $87, $C7, nBb3, $84, $C5
	dc.b nB3, $87, $C7, nD4, $84, $C5, nEb4, $87
	dc.b $C7, nAb4, $9C, $FC, nG4, $84, $C5, nD4
	dc.b $87, $C7, nB3, $84, $C5, nAb3, $C0
	gPitBend	$0000
	dc.b $8B, $C7, nCs4, $C2
	gPitBend	$0100
	dc.b $C3
	gPitBend	$0000
	dc.b $87, $C7, nB3, $9C, $FC, nAb3, $84, $C5
	dc.b nAb3, $87, $C7, nBb3, $84, $C5, nB3, $87
	dc.b $C7, nEb4, $84, $C5, nFs4, $87, $C7, nF4
	dc.b $8C, $CC, nE4, $84, $C5, nE4, $87, $C7
	dc.b nEb4, $84, $CC, nCs4, $C5, nCs4, $87, $C7
	dc.b nB3, $8C, $CC, nBb3, $84, $C5, nA3, $87
	dc.b $C7, nAb3, $84, $CC, nG3, $C5, nAb3, $87
	dc.b $C7, nBb3, $8C, $CC, nB3, $84, $C5, nBb3
	dc.b $87, $C7, nB3, $8C, $CC, nCs4, $84, $C5
	dc.b nB3, $87, $C7, nCs4, $84, $CC, nEb4, $C5
	dc.b nAb3, $87, $C7, nBb3, $84, $C5, nB3, $87
	dc.b $C7, nEb4, $84, $C5, nFs4, $87, $C7, nF4
	dc.b $98, $D8, nE4, $84, $C5, nEb4, $87, $C7
	dc.b nCs4, $84, $CC, nB3, $CB, nBb3, $C1
	gPitBend	$0000
	dc.b $90, $C5, nFs3, $C6
	gPitBend	$FF00
	gPitBend	$0000
	dc.b $C0
	gPitBend	$0000
	dc.b $8B, $C7, nFs4, $C2
	gPitBend	$0200
	dc.b $C3
	gPitBend	$0000
	dc.b $87, $C7, nE4, $98, $D8, nEb4, $84, $C5
	dc.b nCs4, $87, $C7, nB3, $84, $CC, nBb3, $CB
	dc.b nAb3, $C1
	gPitBend	$0000
	dc.b $90, $C5, nE3, $C6
	gPitBend	$FF00
	gPitBend	$0000
	dc.b $8B, $C4, nE4, $C3
	gPitBend	$0000
	dc.b $C2
	gPitBend	$0200
	dc.b $C3
	gPitBend	$0000
	dc.b $87, $C7, nEb4, $98, $D8, nD4, $84, $C5
	dc.b nB3, $87, $C7, nAb3, $84, $CC, nB3, $CB
	dc.b nBb3, $C1
	gPitBend	$0000
	dc.b $90, $C5, nEb3, $C6
	gPitBend	$FF00
	gPitBend	$0000
	dc.b $87, $C7, nD4, $84, $C5, nCs4, $87, $C6
	dc.b nB3, $C1
	gPitBend	$0000
	dc.b $B0, $E1, nAb3, $C3
	gPitBend	$0000
	dc.b $C2
	gPitBend	$0200
	dc.b $C3
	gPitBend	$0000
	dc.b $C7
	gPitBend	$FE00
	dc.b $C0
	gPitBend	$0000
	dc.b $84, $C5, nAb3, $C7
	gPitBend	$0000
	dc.b $C5, nAb3, $87, $C7, nBb3, $84, $C5, nB3
	dc.b $87, $C7, nD4, $84, $C5, nEb4, $87, $C7
	dc.b nAb4, $9C, $FC, nG4, $84, $C5, nD4, $87
	dc.b $C7, nB3, $84, $C5, nAb3, $C0
	gPitBend	$0000
	dc.b $8B, $C7, nCs4, $C2
	gPitBend	$0100
	dc.b $C3
	gPitBend	$0000
	dc.b $87, $C7, nB3, $9C, $FC, nAb3, $84, $C5
	dc.b nAb3, $87, $C7, nBb3, $84, $C5, nB3, $87
	dc.b $C7, nEb4, $84, $C5, nFs4, $87, $C7, nF4
	dc.b $8C, $CC, nE4, $84, $C5, nE4, $87, $C7
	dc.b nEb4, $84, $CC, nCs4, $C5, nCs4, $87, $C7
	dc.b nB3, $8C, $CC, nBb3, $84, $C5, nA3, $87
	dc.b $C7, nAb3, $84, $CC, nG3, $C5, nAb3, $87
	dc.b $C7, nBb3, $8C, $CC, nB3, $84, $C5, nBb3
	dc.b $87, $C7, nB3, $8C, $CC, nCs4, $84, $C5
	dc.b nB3, $87, $C7, nCs4, $84, $CC, nEb4, $C5
	dc.b nAb3, $87, $C7, nBb3, $84, $C5, nB3, $87
	dc.b $C7, nEb4, $84, $C5, nFs4, $87, $C7, nF4
	dc.b $98, $C0, nE4, $D8, nCs4, $84, $C0, nEb4
	dc.b $C5, nB3, $87, $C0, nCs4, $C7, nBb3, $84
	dc.b $C0, nB3, $CC, nAb3, $C0, nBb3, $CB, nFs3
	dc.b $C1
	gPitBend	$0000
	dc.b $90, $C0, nFs3, $C5, nCs3, $C6
	gPitBend	$FF00
	gPitBend	$0000
	dc.b $C0
	gPitBend	$0000
	dc.b $8B, nFs4, $C7, nCs4, $C2
	gPitBend	$0200
	dc.b $C3
	gPitBend	$0000
	dc.b $87, $C0, nE4, $C7, nBb3, $98, $C0, nEb4
	dc.b $D8, nB3, $84, $C0, nCs4, $C5, nBb3, $87
	dc.b $C0, nB3, $C7, nAb3, $84, $C0, nBb3, $CC
	dc.b nFs3, $C0, nAb3, $CB, nE3, $C1
	gPitBend	$0000
	dc.b $90, $C0, nE3, $C5, nB2, $C6
	gPitBend	$FF00
	gPitBend	$0000
	dc.b $8B, $C0, nE4, $C4, nCs4, $C3
	gPitBend	$0000
	dc.b $C2
	gPitBend	$0200
	dc.b $C3
	gPitBend	$0000
	dc.b $87, $C0, nEb4, $C7, nB3, $98, $C0, nD4
	dc.b $D8, nB3, $84, $C0, nB3, $C5, nAb3, $87
	dc.b $C0, nAb3, $C7, nE3, $84, $C0, nB3, $CC
	dc.b nAb3, $C0, nBb3, $CB, nG3, $C1
	gPitBend	$0000
	dc.b $90, $C0, nEb3, $C5, nBb2, $C6
	gPitBend	$FF00
	gPitBend	$0000
	dc.b $87, $C0, nD4, $C7, nB3, $84, $C0, nCs4
	dc.b $C5, nBb3, $87, $C0, nB3, $C6, nG3, $C1
	gPitBend	$0000
	dc.b $B0, $C0, nAb3, $E1, nEb3, $C3
	gPitBend	$0000
	dc.b $C2
	gPitBend	$0200
	dc.b $C3
	gPitBend	$0000
	dc.b $C7
	gPitBend	$FE00
	dc.b $C0
	gPitBend	$0000
	dc.b $84, nAb3, $C7, $EB, nEb3, $81, $C2, nEb4
	dc.b nE4, nEb4, $85, $C6, nD4, nEb4, nB3, nAb3
	dc.b nG3, nBb3, nAb3, nBb3, nB3, nD4, nEb4, nG4
	dc.b nAb4, $CC, nE4, $C6, nD4, nB3, nAb3, nE3
	dc.b nB2, nAb2, nE2, nD2, $8B, $CC, nF2, nAb2
	dc.b nB2, nD3, nF3, nAb3, nB3, $85, $C6, nD4
	dc.b nEb4, nE4, nCs4, nEb4, nB3, nCs4, nBb3, $C7
	dc.b $EC, nB3, $81, $C2, nEb4, nE4, nEb4, $85
	dc.b $C6, nD4, nEb4, nB3, nAb3, nG3, nBb3, nAb3
	dc.b nBb3, nB3, nD4, nEb4, nG4, nAb4, $CC, nE4
	dc.b $C6, nD4, nB3, nAb3, nE3, nB2, nAb2, nE2
	dc.b nD2, $8B, $CC, nF2, nAb2, nB2, nD3, nF3
	dc.b nAb3, nB3, $85, $C6, nD4, nEb4, nE4, nCs4
	dc.b nEb4, nB3, nCs4, nBb3, nB3, nAb3, nBb3, nG3
	dc.b nAb3, nE3, nG3, $82, $C3, nEb3, nE3, nF3
	dc.b nG3, $85, $C6, nAb3, nBb3, nB3, $8B, $CC
	dc.b nBb3, $85, $C6, nB3, nCs4, $8B, $CC, nB3
	dc.b $85, $C6, nCs4, nEb4, $8B, $CC, nCs4, $85
	dc.b $C6, nEb4, nE4, $81, $89, $C1, $CA, nEb4
	dc.b $81, $C2, nE4, nEb4, $85, $C6, nD4, nB3
	dc.b nAb3, nE3, $81, $8D, $C1, $CE, nEb3, $85
	dc.b $C6, nAb3, nG3, nE3, $81, $8D, $C1, $CE
	dc.b nEb3, $85, $C6, nB3, nBb3, nG3, $87, $C7
	dc.b nEb3, $84, $C6, nE3, nG3, $C5, nBb3, $87
	dc.b $C7, nB3, $84, $C5, nBb3, $87, $C7, nAb3
	dc.b $84, $C5, nBb3, $C0
	gLoopEnd
	; Unused
	dc.b $60

.26_01	dc.b $C0
	gsPrio		$0C
	gLoopStart
	dc.b $C0
	gNop
	dc.b $C1, $C8
	gsPatch		$49
	dc.b $87, $C7, nE6, $84, $C5, nFs6, $87, $C7
	dc.b nE6, $84, $C1, $CD, nEb6, $87, $C7, nB5
	dc.b $84, $C5, nAb5, $87, $C7, nFs5, $B0, $F0
	dc.b nF5, nE5, $A4, $E4, nEb5, $84, $C5, nF5
	dc.b $87, $C7, nG5, $9C, $DD, nAb5, $87, $C7
	dc.b nBb5, $84, $C5, nAb5, $87, $C7, nBb5, $84
	dc.b $C6, $C5, nB5, $C1, $C8
	gPitBend	$0000
	dc.b $87, $C7, nE6, $84, $C5, nFs6, $87, $C7
	dc.b nE6, $84, $C1, $CD, nEb6, $87, $C7, nB5
	dc.b $84, $C5, nAb5, $87, $C7, nFs5, $B0, $F0
	dc.b nF5, nE5, $A4, $E4, nEb5, $84, $C5, nF5
	dc.b $87, $C7, nG5, $9C, $DD, nAb5, $87, $C7
	dc.b nBb5, $84, $C5, nAb5, $87, $C7, nBb5, $84
	dc.b $E5, $E5, nB5, $C0
	gLoopEnd
	; Unused
	dc.b $60

.26_02	dc.b $C0
	gsPrio		$0B
	gLoopStart
	dc.b $C0
	gNop
	dc.b $C1, $C8
	gsPatch		$49
	dc.b $93, $D3, nB5, $84, $C1, $CD, nBb5, $93
	dc.b $D3, nFs5, $B0, $F0, nD5, nCs5, $A4, $E4
	dc.b nBb4, $84, $C5, nB4, $87, $C7, nCs5, $9C
	dc.b $DD, nEb5, $93, $D3, nG5, $84, $C6, $C5
	dc.b nAb5, $C1, $C8
	gPitBend	$0000
	dc.b $93, $D3, nB5, $84, $C1, $CD, nBb5, $93
	dc.b $D3, nFs5, $B0, $F0, nD5, nCs5, $A4, $E4
	dc.b nBb4, $84, $C5, nB4, $87, $C7, nCs5, $9C
	dc.b $DD, nEb5, $93, $D3, nG5, $84, $E5, $E5
	dc.b nAb5, $C0
	gLoopEnd
	; Unused
	dc.b $60

.26_03	dc.b $C0
	gsPrio		$0E
	gLoopStart
	dc.b $C0
	gNop
	dc.b $C1, $C8
	gsPatch		$49
	dc.b $93, $D3, nAb5, $84, $C1, $E0, nG5, $B0
	dc.b $F0, nB4, nB4, $A4, $E4, nG4, $84, $C5
	dc.b nAb4, $87, $C7, nBb4, $9C, $DD, nB4, $93
	dc.b $D3, nEb5, $84, $C6, $C5, nEb5, $C1, $C8
	gPitBend	$0000
	dc.b $93, $D3, nAb5, $84, $C1, $E0, nG5, $B0
	dc.b $F0, nB4, nB4, $A4, $E4, nG4, $84, $C5
	dc.b nAb4, $87, $C7, nBb4, $9C, $DD, nB4, $93
	dc.b $D3, nEb5, $84, $D2, $C5, nEb5, $85, $C6
	dc.b nAb5, nBb5, nG5, nAb5, nE5, nG5, $82, $C3
	dc.b nEb5, nCs5, nB4, nBb4, $AF, $F0, nAb4, nBb4
	dc.b $97, $D8, nB4, nCs5, nEb5, nB4, $9D, $DE
	dc.b nCs5, $85, $C6, nC5, nB4, $B5, $F6, nBb4
	dc.b $97, $D8, nB4, nBb4, nAb4, nFs4, $9D, $DE
	dc.b nE4, $85, $C6, nFs4, nAb4, $A3, $E4, nG4
	dc.b $85, $C6, nAb4, nBb4, $A3, $E4, nAb4, $85
	dc.b $C6, nBb4, nB4, $A3, $E4, nD5, $85, $C6
	dc.b nB4, nEb5, $8B, $CC, nD5, nD5, nD5, nD5
	dc.b nD5, nD5, nD5, nD5, $85, $C6, nD5, nEb5
	dc.b nE5, nCs5, nEb5, nB4, nCs5, nBb4, nB4, nAb4
	dc.b nBb4, nG4, nAb4, nE4, nG4, $8B, $C6, $FC
	dc.b nEb4, $C0
	gLoopEnd
	; Unused
	dc.b $60

.26_04	dc.b $C0
	gsPrio		$10
	gLoopStart
	dc.b $C0
	gNop
	dc.b $C1, $C8
	gsPatch		$59
	dc.b $93, $D3, nE2, $84, $C1, $CD, nEb2, $93
	dc.b $D3, nEb2, $A4, $E4, nAb2, $84, $C5, nEb2
	dc.b $87, $C7, nAb1, $A4, $E4, nCs2, $84, $C5
	dc.b nCs2, $87, $C7, nD2, $A4, $E4, nEb2, $84
	dc.b $C5, nF2, $87, $C7, nG2, $9C, $DD, nAb2
	dc.b $87, $C7, nEb2, $84, $C5, nF2, $87, $C7
	dc.b nG2, $84, $F5, nAb2, $87, $C7, nCs2, $84
	dc.b $C5, nCs2, $87, $C7, nEb2, $84, $C5, nEb2
	dc.b $87, $C7, nE2, $84, $C5, nE2, $87, $C7
	dc.b nF2, $84, $C5, nF2, $83, $C4, nFs2, nCs2
	dc.b nBb1, $87, $C7, nFs1, $84, $C5, nG1, $87
	dc.b $C7, nAb1, $84, $C5, nA1, $87, $C7, nBb1
	dc.b $8C, $CC, nB1, $84, $C5, nB1, $87, $C7
	dc.b nCs2, $84, $C5, nCs2, $87, $C7, nD2, $84
	dc.b $C5, nD2, $87, $C7, nEb2, $8C, $CC, nE2
	dc.b $84, $C5, nE2, $87, $C7, nEb2, $84, $C5
	dc.b nEb2, $87, $C7, nD2, $84, $C5, nD2, $87
	dc.b $C7, nB1, $8C, $CC, nAb1, $84, $C5, nAb1
	dc.b $87, $C7, nBb1, $84, $C5, nBb1, $87, $C7
	dc.b nB1, $84, $C5, nB1, $87, $C7, nCs2, $8C
	dc.b $CC, nEb2, $84, $C5, nEb2, $87, $C7, nE2
	dc.b $84, $C5, nE2, $87, $C7, nF2, $84, $C5
	dc.b nF2, $87, $C7, nG2, $8C, $CC, nAb2, $84
	dc.b $C5, nAb2, $87, $C7, nE2, $84, $C5, nE2
	dc.b $87, $C7, nEb2, $84, $C5, nCs2, $87, $C7
	dc.b nB1, $84, $C5, nAb1, $C1, $C8
	gPitBend	$0000
	dc.b $93, $D3, nE2, $84, $C1, $CD, nEb2, $93
	dc.b $D3, nEb2, $A4, $E4, nAb2, $84, $C5, nEb2
	dc.b $87, $C7, nAb1, $A4, $E4, nCs2, $84, $C5
	dc.b nCs2, $87, $C7, nD2, $A4, $E4, nEb2, $84
	dc.b $C5, nF2, $87, $C7, nG2, $9C, $DD, nAb2
	dc.b $87, $C7, nEb2, $84, $C5, nF2, $87, $C7
	dc.b nG2, $84, $F5, nAb2, $87, $C7, nCs2, $84
	dc.b $C5, nCs2, $87, $C7, nEb2, $84, $C5, nEb2
	dc.b $87, $C7, nE2, $84, $C5, nE2, $87, $C7
	dc.b nF2, $84, $C5, nF2, $83, $C4, nFs2, nCs2
	dc.b nBb1, $87, $C7, nFs1, $84, $C5, nG1, $87
	dc.b $C7, nAb1, $84, $C5, nA1, $87, $C7, nBb1
	dc.b $8C, $CC, nB1, $84, $C5, nB1, $87, $C7
	dc.b nCs2, $84, $C5, nCs2, $87, $C7, nD2, $84
	dc.b $C5, nD2, $87, $C7, nEb2, $8C, $CC, nE2
	dc.b $84, $C5, nE2, $87, $C7, nEb2, $84, $C5
	dc.b nEb2, $87, $C7, nD2, $84, $C5, nD2, $87
	dc.b $C7, nB1, $8C, $CC, nAb1, $84, $C5, nAb1
	dc.b $87, $C7, nBb1, $84, $C5, nBb1, $87, $C7
	dc.b nB1, $84, $C5, nB1, $87, $C7, nCs2, $8C
	dc.b $CC, nEb2, $84, $C5, nEb2, $87, $C7, nE2
	dc.b $84, $C5, nE2, $87, $C7, nF2, $84, $C5
	dc.b nF2, $87, $C7, nG2, $8C, $CC, nAb2, $84
	dc.b $C5, nAb2, $87, $C7, nE2, $84, $C5, nE2
	dc.b $87, $C7, nEb2, $84, $C5, nCs2, $87, $C7
	dc.b nB1, $84, $DF, $E5, nAb1, $C0
	gLoopEnd
	; Unused
	dc.b $60

.26_05	dc.b $C0
	gsPrio		$19
	gLoopStart
	dc.b $C0
	gNop
	dc.b $D8, $C6
	gsPatch		$47
	dc.b $85, $C6, nEb3, nAb3, nBb3, nB3, nBb3, nAb3
	dc.b nEb3, $91, $D2, nCs3, $85, $C6, nCs3, $83
	dc.b nAb3, $8B, $CC, nAb3, $85, $C6, nAb3, $91
	dc.b $D2, nEb3, $85, $C6, nEb3, $83, nBb3, $8B
	dc.b $CC, nBb3, $85, $C6, nEb3, $91, $D2, nAb2
	dc.b $85, $C6, nAb2, $91, $D2, nBb2, $85, $C6
	dc.b nBb2, $91, $D2, nB2, $85, $C6, nB2, $91
	dc.b $D2, nAb2, $85, $C6, nAb2, $91, $D2, nCs3
	dc.b $85, $C6, nCs3, $83, nAb3, $8B, $CC, nAb3
	dc.b $85, $C6, nAb3, $91, $D2, nEb3, $85, $C6
	dc.b nEb3, $83, nBb3, $8B, $CC, nBb3, $85, $C6
	dc.b nEb3, $91, $D2, nAb2, $85, $C6, nAb2, $91
	dc.b $D2, nEb3, $85, $C6, nEb3, $91, $D2, nAb3
	dc.b $85, $C6, nAb3, $91, $D2, nAb2, $85, $C6
	dc.b nAb2, $91, $D2, nCs3, $85, $C6, nCs3, $91
	dc.b $D2, nAb2, $85, $C6, nAb2, $91, $D2, nEb3
	dc.b $85, $C6, nEb3, $91, $D2, nBb2, $85, $C6
	dc.b nBb2, $91, $D2, nAb2, $85, $C6, nAb2, $91
	dc.b $D2, nEb3, $85, $C6, nEb3, $91, $D2, nE3
	dc.b $85, $C6, nE3, $91, $D2, nB2, $85, $C6
	dc.b nB2, $91, $D2, nD3, $85, $C6, nD3, $91
	dc.b $D2, nB2, $85, $C6, nB2, $91, $D2, nD3
	dc.b $85, $C6, nD3, $91, $D2, nB2, $85, $C6
	dc.b nB2, $91, $D2, nEb3, $85, $C6, nEb3, $91
	dc.b $D2, nBb2, $85, $C6, nBb2, $91, $D2, nEb3
	dc.b $85, $C6, nEb3, $91, $D2, nBb3, $85, $C6
	dc.b nBb3, $91, $D2, nCs3, $85, $C6, nCs3, $83
	dc.b nAb3, $8B, $CC, nAb3, $85, $C6, nAb3, $91
	dc.b $D2, nEb3, $85, $C6, nEb3, $83, nBb3, $8B
	dc.b $CC, nBb3, $85, $C6, nEb3, $91, $D2, nAb2
	dc.b $85, $C6, nAb2, $91, $D2, nBb2, $85, $C6
	dc.b nBb2, $91, $D2, nB2, $85, $C6, nB2, $91
	dc.b $D2, nAb2, $85, $C6, nAb2, $91, $D2, nCs3
	dc.b $85, $C6, nCs3, $83, nAb3, $8B, $CC, nAb3
	dc.b $85, $C6, nAb3, $91, $D2, nEb3, $85, $C6
	dc.b nEb3, $83, nBb3, $8B, $CC, nBb3, $85, $C6
	dc.b nEb3, $91, $D2, nAb2, $85, $C6, nAb2, $91
	dc.b $D2, nEb3, $85, $C6, nEb3, $91, $D2, nAb3
	dc.b $85, $C6, nAb3, $91, $D2, nAb2, $85, $C6
	dc.b nAb2, $91, $D2, nCs3, $85, $C6, nCs3, $91
	dc.b $D2, nAb2, $85, $C6, nAb2, $91, $D2, nEb3
	dc.b $85, $C6, nEb3, $91, $D2, nBb2, $85, $C6
	dc.b nBb2, $91, $D2, nAb2, $85, $C6, nAb2, $91
	dc.b $D2, nEb3, $85, $C6, nEb3, $91, $D2, nE3
	dc.b $85, $C6, nE3, $91, $D2, nB2, $85, $C6
	dc.b nB2, $91, $D2, nD3, $85, $C6, nD3, $91
	dc.b $D2, nB2, $85, $C6, nB2, $91, $D2, nD3
	dc.b $85, $C6, nD3, $91, $D2, nB2, $85, $C6
	dc.b nB2, $91, $D2, nEb3, $85, $C6, nEb3, $91
	dc.b $D2, nBb2, $85, $C6, nBb2, $91, $D2, nEb3
	dc.b $85, $C6, nEb3, $91, $D2, nBb2, $85, $C6
	dc.b nBb2, $91, $D2, nAb2, $85, $C6, nAb2, $91
	dc.b $D2, nBb2, $85, $C6, nBb2, $91, $D2, nB2
	dc.b $85, $C6, nB2, $91, $D2, nCs3, $85, $C6
	dc.b nCs3, $91, $D2, nEb3, $85, $C6, nEb3, $91
	dc.b $D2, nEb3, $85, $C6, nEb3, $91, $D2, nEb3
	dc.b $85, $C6, nEb3, $91, $D2, nEb3, $85, $C6
	dc.b nEb3, $91, $D2, nEb3, $85, $C6, nEb3, $91
	dc.b $D2, nEb3, $85, $C6, nEb3, $91, $D2, nEb3
	dc.b $85, $C6, nEb3, $91, $D2, nEb3, $85, $C6
	dc.b nEb3, $91, $D2, nEb3, $85, $C6, nEb3, $91
	dc.b $D2, nBb2, $85, $C6, nBb2, $91, $D2, nEb3
	dc.b $85, $C6, nEb3, $91, $D2, nBb2, $85, $C6
	dc.b nBb2, $88, $CC, nEb3, nEb3, $93, $D3, nBb2
	dc.b $84, $C5, nEb3, $C0
	gLoopEnd
	; Unused
	dc.b $60

.26_06	dc.b $C0
	gsPrio		$11
	gLoopStart
	dc.b $C0
	gNop
	dc.b $D8, $F6
	gsPatch		$45
	dc.b $85, $C6, nAb4, nCs5, nEb5, nE5, nEb5, nCs5
	dc.b $8B, $CC, nBb4, $85, $C6, nEb4, nBb4, nB4
	dc.b nCs5, nE5, nEb5, nCs5, $8B, $CC, nB4, $85
	dc.b $C6, nBb4, $C1, $D4, nAb4, $C6, nAb4, nCs5
	dc.b nEb5, nE5, nEb5, nCs5, $8B, $CC, nBb4, $85
	dc.b $C6, nEb4, nBb4, nB4, nCs5, nE5, nEb5, nCs5
	dc.b $8B, $CC, nB4, $85, $C6, nCs5, $FC, nEb5
	dc.b $C6, nB4, nEb5, nFs5, $9D, $DE, nE5, $85
	dc.b $C6, nE5, nAb5, $E4, nG5, $C6, nG5, nBb5
	dc.b nCs6, $9D, $DE, nB5, $85, $C6, nEb6, nFs6
	dc.b $C3, $FC, nE6, $C6, nAb4, nCs5, nEb5, nE5
	dc.b nEb5, nCs5, $8B, $CC, nBb4, $85, $C6, nEb4
	dc.b nBb4, nB4, nCs5, nE5, nEb5, nCs5, $8B, $CC
	dc.b nB4, $85, $C6, nBb4, $C1, $D4, nAb4, $C6
	dc.b nAb4, nCs5, nEb5, nE5, nEb5, nCs5, $8B, $CC
	dc.b nBb4, $85, $C6, nEb4, nBb4, nB4, nCs5, nE5
	dc.b nEb5, nCs5, $8B, $CC, nB4, $85, $C6, nCs5
	dc.b $FC, nEb5, $C6, nB4, nEb5, nFs5, $9D, $DE
	dc.b nE5, $85, $C6, nE5, nAb5, $E4, nG5, $C6
	dc.b nG5, nBb5, nCs6, $9D, $DE, nB5, $85, $C6
	dc.b nEb6, nFs6, $CA, $E6, nE6, $C0
	gLoopEnd
	; Unused
	dc.b $60

.26_07	dc.b $C0
	gsPrio		$10
	gLoopStart
	dc.b $C0
	gNop
	dc.b $DA, $EE
	gsPatch		$10
	dc.b $85, $C6, nEb5, nAb5, nBb5, $8B, $CC, nB5
	dc.b $85, $C6, nBb5, $CC, nAb5, $C6, nEb5, nB4
	dc.b $97, $D8, nCs5, $85, $C6, nCs5, nCs5, $CC
	dc.b nCs5, $97, $D8, nEb5, $85, $C6, nEb5, nEb5
	dc.b $CC, nEb5, $E4, nAb5, $C6, nEb5, nAb5, nBb5
	dc.b $8B, $CC, nB5, $85, $C6, nCs6, $C3, $CC
	dc.b nEb6, $C0, nB5, nE5, $C6, nAb5, $C0, nEb6
	dc.b nAb5, $C6, nB5, $91, $C0, nD6, nAb5, $D2
	dc.b nB5, $85, $C0, nAb5, nD6, $C6, nB5, $C0
	dc.b nAb5, nD6, $C6, nB5, $C0, nAb5, nD6, $C6
	dc.b nB5, $C0, nAb5, nD6, $CC, nB5, $91, $C0
	dc.b nAb5, nD6, $D2, nB5, $85, $C0, nAb5, nD6
	dc.b $C6, nB5, $C0, nAb5, nD6, $C6, nB5, $C0
	dc.b nAb5, nD6, $C6, nB5, $C0, nAb5, nD6, $CC
	dc.b nB5, $91, $C0, nG5, nEb6, $D2, nBb5, $85
	dc.b $C0, nG5, nEb6, $C6, nBb5, $C0, nG5, nEb6
	dc.b $C6, nBb5, $C0, nAb5, nE6, $C6, nB5, $C0
	dc.b nG5, nEb6, $C6, nBb5, $C0, nF5, nCs6, $C6
	dc.b nAb5, $C0, nG5, nEb6, $C2, $F4, nBb5, $C6
	dc.b nEb5, nAb5, nBb5, $8B, $CC, nB5, $85, $C6
	dc.b nBb5, $CC, nAb5, $C6, nEb5, nB4, $97, $D8
	dc.b nCs5, $85, $C6, nCs5, nCs5, $CC, nCs5, $97
	dc.b $D8, nEb5, $85, $C6, nEb5, nEb5, $CC, nEb5
	dc.b $E4, nAb5, $C6, nEb5, nAb5, nBb5, $8B, $CC
	dc.b nB5, $85, $C6, nCs6, $C3, $CC, nEb6, $C0
	dc.b nAb5, $C6, nE5, $C0, nB5, $C6, nAb5, $91
	dc.b $C0, nB5, $D2, nAb5, $85, $C0, nB5, $C6
	dc.b nAb5, $C0, nB5, $C6, nAb5, $C0, nB5, $C6
	dc.b nAb5, $C0, nB5, $CC, nAb5, $91, $C0, nB5
	dc.b $D2, nAb5, $85, $C0, nB5, $C6, nAb5, $C0
	dc.b nB5, $C6, nAb5, $C0, nB5, $C6, nAb5, $C0
	dc.b nB5, $CC, nAb5, $91, $C0, nBb5, $D2, nG5
	dc.b $85, $C0, nBb5, $C6, nG5, $C0, nBb5, $C6
	dc.b nG5, $C0, nB5, $C6, nAb5, $C0, nBb5, $C6
	dc.b nG5, $C0, nAb5, $C6, nF5, $C0, nBb5, $F6
	dc.b nG5, $91, $C0, nEb5, nAb5, $D2, nB4, $85
	dc.b $C0, nEb5, nAb5, $C6, nB4, $C0, nCs5, nFs5
	dc.b $C6, nBb4, $C0, nCs5, nFs5, $CC, nBb4, $97
	dc.b $C0, nB4, nE5, $D8, nAb4, $85, $C0, nB4
	dc.b nEb5, $C6, nAb4, $C0, nB4, nCs5, $C6, nAb4
	dc.b $C0, nCs5, nEb5, $C6, nBb4, $C0, nE5, nB4
	dc.b $C6, nAb4, $97, $C0, nBb4, nEb5, $D8, nG4
	dc.b $85, $C0, nBb4, nEb5, $C6, nG4, $C0, nBb4
	dc.b nEb5, $C6, nG4, $C0, nBb4, nEb5, $CC, nG4
	dc.b $C0, nBb4, nEb5, $CC, nG4, $C0, nBb4, nEb5
	dc.b $CC, nG4, $C0, nB4, nE5, $C6, nAb4, $C0
	dc.b nBb4, nEb5, $C6, nG4, $C0, nAb4, nCs5, $C6
	dc.b nF4, $C0, nBb4, nEb5, $C6, nG4, $C0, nB4
	dc.b nE5, $C6, nAb4, $91, $C0, nBb4, nEb5, $D2
	dc.b nG5, $85, $C0, nG5, nEb5, $C6, nBb4, $C0
	dc.b nG5, nEb5, $C6, nBb4, $C0, nG5, nEb5, $CC
	dc.b nBb4, $C0, nG5, nEb5, $CC, nBb4, $C0, nG5
	dc.b nEb5, $CC, nBb4, $C0, nAb5, nE5, $C6, nB4
	dc.b $C0, nG5, nEb5, $C6, nBb4, $C0, nF5, nCs5
	dc.b $C6, nAb4, $C0, nG5, nEb5, $C6, nBb4, $C0
	dc.b nAb5, nE5, $C6, nB4, $91, $C0, nG5, nEb5
	dc.b $D2, nBb5, $85, $C0, nBb5, nEb5, $C6, nG5
	dc.b $C0, nBb5, nEb5, $C6, nG5, $C0, nBb5, nEb5
	dc.b $CC, nG5, $C0, nBb5, nEb5, $CC, nG5, $C0
	dc.b nBb5, nEb5, $CC, nG5, $C0, nB5, nE5, $C6
	dc.b nAb5, $C0, nBb5, nEb5, $C6, nG5, $C0, nAb5
	dc.b nCs5, $C6, nF5, $C0, nBb5, nEb5, $C6, nG5
	dc.b $C0, nB5, nE5, $C6, nAb5, $88, $C0, nBb5
	dc.b nEb6, $CC, nG5, $C0, nBb5, nEb6, $CC, nG5
	dc.b $87, $C0, nAb5, nCs6, $C7, nE5, $84, $C0
	dc.b nBb5, nEb6, $C5, nG5, $87, $C0, nB5, nE6
	dc.b $C7, nAb5, $84, $C0, nBb5, nEb6, $C5, nG5
	dc.b $C0
	gLoopEnd
	; Unused
	dc.b $60

.26_08	dc.b $C0
	gsPrio		$00
	gLoopStart
	dc.b $C0
	gNop
	gsPatch		$2A
	dc.b $8B, $CC, nAb2, $81, $C7, nFs2, $84, $C5
	dc.b nAb2, $8B, $CC, nAb2, $81, $C7, nFs2, $84
	dc.b $C5, nAb2, $8B, $CC, nAb2, $81, $C7, nFs2
	dc.b $84, $C5, nAb2, $8B, $CC, nAb2, $81, $C7
	dc.b nFs2, $84, $C5, nAb2, $8B, $CC, nAb2, $81
	dc.b $C7, nFs2, $84, $C5, nAb2, $8B, $CC, nAb2
	dc.b $81, $C7, nFs2, $84, $C5, nAb2, $8B, $CC
	dc.b nAb2, $81, $C7, nFs2, $84, $C5, nAb2, $8B
	dc.b $CC, nAb2, $81, $C7, nFs2, $84, $C5, nAb2
	dc.b $8B, $CC, nAb2, $81, $C7, nFs2, $84, $C5
	dc.b nAb2, $8B, $CC, nAb2, $81, $C7, nFs2, $84
	dc.b $C5, nAb2, $8B, $CC, nAb2, $81, $C7, nFs2
	dc.b $84, $C5, nAb2, $8B, $CC, nAb2, $81, $C7
	dc.b nFs2, $84, $C5, nAb2, $8B, $CC, nAb2, $81
	dc.b $C7, nFs2, $84, $C5, nAb2, $8B, $CC, nAb2
	dc.b $81, $C7, nFs2, $84, $C5, nAb2, $8B, $CC
	dc.b nAb2, $81, $C7, nFs2, $84, $C5, nAb2, $8B
	dc.b $CC, nAb2, $81, $C7, nFs2, $84, $C5, nAb2
	dc.b $8B, $CC, nAb2, $81, $C7, nFs2, $84, $C5
	dc.b nAb2, $8B, $CC, nAb2, $81, $C7, nFs2, $84
	dc.b $C5, nAb2, $8B, $CC, nAb2, $81, $C7, nFs2
	dc.b $84, $C5, nAb2, $8B, $CC, nAb2, $81, $C7
	dc.b nFs2, $84, $C5, nAb2, $8B, $CC, nAb2, $81
	dc.b $C7, nFs2, $84, $C5, nAb2, $8B, $CC, nAb2
	dc.b $81, $C7, nFs2, $84, $C5, nAb2, $8B, $CC
	dc.b nAb2, $81, $C7, nFs2, $84, $C5, nAb2, $8B
	dc.b $CC, nAb2, $81, $C7, nFs2, $84, $C5, nAb2
	dc.b $8B, $CC, nAb2, $81, $C7, nFs2, $84, $C5
	dc.b nAb2, $8B, $CC, nAb2, $81, $C7, nFs2, $84
	dc.b $C5, nAb2, $8B, $CC, nAb2, $81, $C7, nFs2
	dc.b $84, $C5, nAb2, $8B, $CC, nAb2, $81, $C7
	dc.b nFs2, $84, $C5, nAb2, $8B, $CC, nAb2, $81
	dc.b $C7, nFs2, $84, $C5, nAb2, $8B, $CC, nAb2
	dc.b $81, $C7, nFs2, $84, $C5, nAb2, $8B, $CC
	dc.b nAb2, $81, $C7, nFs2, $84, $C5, nAb2, $8B
	dc.b $CC, nAb2, $81, $C7, nFs2, $84, $C5, nAb2
	dc.b $8B, $CC, nAb2, $81, $C7, nFs2, $84, $C5
	dc.b nAb2, $8B, $CC, nAb2, $81, $C7, nFs2, $84
	dc.b $C5, nAb2, $8B, $CC, nAb2, $81, $C7, nFs2
	dc.b $84, $C5, nAb2, $8B, $CC, nAb2, $81, $C7
	dc.b nFs2, $84, $C5, nAb2, $8B, $CC, nAb2, $81
	dc.b $C7, nFs2, $84, $C5, nAb2, $8B, $CC, nAb2
	dc.b $81, $C7, nFs2, $84, $C5, nAb2, $8B, $CC
	dc.b nAb2, $81, $C7, nFs2, $84, $C5, nAb2, $8B
	dc.b $CC, nAb2, $81, $C7, nFs2, $84, $C5, nAb2
	dc.b $8B, $CC, nAb2, $81, $C7, nFs2, $84, $C5
	dc.b nAb2, $8B, $CC, nAb2, $81, $C7, nFs2, $84
	dc.b $C5, nAb2, $8B, $CC, nAb2, $81, $C7, nFs2
	dc.b $84, $C5, nAb2, $8B, $CC, nAb2, $81, $C7
	dc.b nFs2, $84, $C5, nAb2, $8B, $CC, nAb2, $81
	dc.b $C7, nFs2, $84, $C5, nAb2, $8B, $CC, nAb2
	dc.b $81, $C7, nFs2, $84, $C5, nAb2, $8B, $CC
	dc.b nAb2, $81, $C7, nFs2, $84, $C5, nAb2, $8B
	dc.b $CC, nAb2, $81, $C7, nFs2, $84, $C5, nAb2
	dc.b $8B, $CC, nAb2, $81, $C7, nFs2, $84, $C5
	dc.b nAb2, $8B, $CC, nAb2, $81, $C7, nFs2, $84
	dc.b $C5, nAb2, $8B, $CC, nAb2, $81, $C7, nFs2
	dc.b $84, $C5, nAb2, $8B, $CC, nAb2, $81, $C7
	dc.b nFs2, $84, $C5, nAb2, $8B, $CC, nAb2, $81
	dc.b $C7, nFs2, $84, $C5, nAb2, $8B, $CC, nAb2
	dc.b $81, $C7, nFs2, $84, $C5, nAb2, $8B, $CC
	dc.b nAb2, $81, $C7, nFs2, $84, $C5, nAb2, $8B
	dc.b $CC, nAb2, $81, $C7, nFs2, $84, $C5, nAb2
	dc.b $8B, $CC, nAb2, $81, $C7, nFs2, $84, $C5
	dc.b nAb2, $8B, $CC, nAb2, $81, $C7, nFs2, $84
	dc.b $C5, nAb2, $8B, $CC, nAb2, $81, $C7, nFs2
	dc.b $84, $C5, nAb2, $8B, $CC, nAb2, $81, $C7
	dc.b nFs2, $84, $C5, nAb2, $8B, $CC, nAb2, $81
	dc.b $C7, nFs2, $84, $C5, nAb2, $8B, $CC, nAb2
	dc.b $81, $C7, nFs2, $84, $C5, nAb2, $8B, $CC
	dc.b nAb2, $81, $C7, nFs2, $84, $C5, nAb2, $8B
	dc.b $CC, nAb2, $81, $C7, nFs2, $84, $C5, nAb2
	dc.b $81, $C6, nFs2, nFs2, nFs2, $85, nAb2, $81
	dc.b nFs2, nFs2, nFs2, $85, nAb2, $81, nFs2, nFs2
	dc.b $85, nAb2, $81, nFs2, nFs2, $85, nAb2, $81
	dc.b nFs2, nFs2, nFs2, nFs2, $85, nAb2, $81, nFs2
	dc.b nFs2, $85, nAb2, $81, nFs2, nFs2, nFs2, nFs2
	dc.b $85, nAb2, $81, nFs2, nFs2, $85, nAb2, $81
	dc.b nFs2, nFs2, $85, nAb2, $81, nFs2, nFs2, $85
	dc.b nAb2, $81, nFs2, nFs2, $85, nAb2, $81, nFs2
	dc.b nFs2, nFs2, $85, nAb2, $81, nFs2, nFs2, $85
	dc.b nAb2, $81, nFs2, nFs2, nFs2, nFs2, $85, nAb2
	dc.b $81, nFs2, nFs2, $85, nAb2, $81, nFs2, nFs2
	dc.b nFs2, nFs2, $85, nAb2, $81, nFs2, nFs2, $85
	dc.b nAb2, $81, nFs2, nFs2, $85, nAb2, $81, nFs2
	dc.b nFs2, $85, nAb2, $81, nFs2, nFs2, $85, nAb2
	dc.b $81, nFs2, nFs2, nFs2, $85, nAb2, $81, nFs2
	dc.b nFs2, $85, nAb2, $81, nFs2, nFs2, nFs2, nFs2
	dc.b $85, nAb2, $81, nFs2, nFs2, $85, nAb2, $81
	dc.b nFs2, nFs2, nFs2, nFs2, $85, nAb2, $81, nFs2
	dc.b nFs2, $85, nAb2, $81, nFs2, nFs2, $85, nAb2
	dc.b $81, nFs2, nFs2, $85, nAb2, $81, nFs2, nFs2
	dc.b $85, nAb2, $81, nFs2, nFs2, nFs2, $85, nAb2
	dc.b $81, nFs2, nFs2, $85, nAb2, $81, nFs2, nFs2
	dc.b nFs2, nFs2, $85, nAb2, $81, nFs2, nFs2, $85
	dc.b nAb2, $81, nFs2, nFs2, nFs2, nFs2, $85, nAb2
	dc.b $81, nFs2, nFs2, $85, nAb2, $81, nFs2, nFs2
	dc.b $85, nAb2, $81, nFs2, nFs2, $85, nAb2, $81
	dc.b nFs2, nFs2, $85, nAb2, $81, nFs2, nFs2, nFs2
	dc.b $85, nAb2, $81, nFs2, nFs2, $85, nAb2, $81
	dc.b nFs2, nFs2, nFs2, nFs2, $85, nAb2, $81, nFs2
	dc.b nFs2, $85, nAb2, $81, nFs2, nFs2, nFs2, nFs2
	dc.b $85, nAb2, $81, nFs2, nFs2, $85, nAb2, $81
	dc.b nFs2, nFs2, $85, nAb2, $81, nFs2, nFs2, $85
	dc.b nAb2, $81, nFs2, nFs2, $85, nAb2, $81, nFs2
	dc.b nFs2, nFs2, $85, nAb2, $81, nFs2, nFs2, $85
	dc.b nAb2, $81, nFs2, nFs2, nFs2, nFs2, $85, nAb2
	dc.b $81, nFs2, nFs2, $85, nAb2, $81, nFs2, nFs2
	dc.b nFs2, nFs2, $85, nAb2, $81, nFs2, nFs2, $85
	dc.b nAb2, $81, nFs2, nFs2, $85, nAb2, $81, nFs2
	dc.b nFs2, $85, nAb2, $81, nFs2, nFs2, $85, nAb2
	dc.b $81, nFs2, nFs2, nFs2, $85, nAb2, $81, nFs2
	dc.b nFs2, $85, nAb2, $81, nFs2, nFs2, nFs2, nFs2
	dc.b $85, nAb2, $81, nFs2, nFs2, $85, nAb2, $81
	dc.b nFs2, nFs2, nFs2, nFs2, $85, nAb2, $81, nFs2
	dc.b nFs2, $85, nAb2, $81, nFs2, nFs2, $85, nAb2
	dc.b $81, nFs2, nFs2, $85, nAb2, $81, nFs2, nFs2
	dc.b $85, nAb2, $81, nFs2, nFs2, nFs2, $85, nAb2
	dc.b $81, nFs2, nFs2, $85, nAb2, $81, nFs2, nFs2
	dc.b nFs2, nFs2, $85, nAb2, $81, nFs2, nFs2, $85
	dc.b nAb2, $81, nFs2, nFs2, nFs2, nFs2, $85, nAb2
	dc.b $81, nFs2, nFs2, $85, nAb2, $81, nFs2, nFs2
	dc.b $85, nAb2, $81, nFs2, nFs2, $85, nAb2, $81
	dc.b nFs2, nFs2, $85, nAb2, $81, nFs2, nFs2, nFs2
	dc.b $85, nAb2, $81, nFs2, nFs2, $85, nAb2, $81
	dc.b nFs2, nFs2, nFs2, nFs2, $85, nAb2, $81, nFs2
	dc.b nFs2, $85, nAb2, $81, nFs2, nFs2, nFs2, nFs2
	dc.b $85, nAb2, $81, nFs2, nFs2, $85, nAb2, $81
	dc.b nFs2, nFs2, $85, nAb2, $81, nFs2, nFs2, $85
	dc.b nAb2, $81, nFs2, nFs2, $85, nAb2, $81, nFs2
	dc.b nFs2, nFs2, $85, nAb2, $81, nFs2, nFs2, $85
	dc.b nAb2, $81, nFs2, nFs2, nFs2, nFs2, $85, nAb2
	dc.b $81, nFs2, nFs2, $85, nAb2, $81, nFs2, nFs2
	dc.b nFs2, nFs2, $85, nAb2, $81, nFs2, nFs2, $85
	dc.b nAb2, $81, nFs2, nFs2, $85, nAb2, $81, nFs2
	dc.b nFs2, $85, nAb2, $81, nFs2, nFs2, $85, nAb2
	dc.b $81, nFs2, $CC, nFs2, nFs2, $93, $D3, nAb2
	dc.b $81, $C5, nFs2, $C0
	gLoopEnd
	; Unused
	dc.b $60

.27_00	dc.b $C0
	gsPrio		$64
	gSFX
	gsPatch		$25
	gsEnv		$00
	dc.b $81, $B8, $C1, $F8, nB5
	gStop

.29_00	dc.b $C0
	gsPrio		$73
	gSFX
	gsPatch		$5B
	dc.b $82, $A8, $C2, $E8, nBb7
	gStop

.2A_00	dc.b $C0
	gsPrio		$7D
	gSFX
	gsPatch		$34
	dc.b $8F, $CF, nB0
	gStop

.2A_01	dc.b $C0
	gsVolume	$07
	gsPrio		$7D
	gSFX
	gsPatch		$5C
	dc.b $81, $88, $C1, $C8, nEb3
	gStop

.2A_02	dc.b $C0
	gsVolume	$05
	gsPrio		$7D
	gSFX
	gsPatch		$5D
	dc.b $B0, $F0, nB3
	gStop

.2B_00	dc.b $C0
	gsPrio		$7D
	gSFX
	gsPatch		$00
	dc.b $98, $D8, nEb4
	gStop

.2C_00	dc.b $C0
	gsPrio		$64
	gSFX
	gsPatch		$00
	dc.b $98, $D8, nD4
	gStop

.2D_00	dc.b $C0
	gsPrio		$78
	gSFX
	gsPatch		$00
	dc.b $98, $D8, nE4
	gStop

.2E_00	dc.b $C0
	gsPrio		$6E
	gSFX
	gsPatch		$00
	dc.b $98, $D8, nFs4
	gStop

.2F_00	dc.b $C0
	gsPrio		$73
	gSFX
	gsPatch		$00
	dc.b $98, $D8, nF4
	gStop

.31_00	dc.b $C0
	gsPrio		$69
	gSFX
	gsPatch		$00
	dc.b $98, $D8, nAb4
	gStop

.32_00	dc.b $C0
	gsPrio		$0F
	gsTempo		78
	gsPatch		$50
	dc.b $82, $C6, nFs2, $C3, nFs2, nFs2, $C6, nFs2
	dc.b $C3, nFs2, nFs2, $C6, nFs2, $C3, nFs2, nFs2
	dc.b $C6, nFs2, $C3, nFs2, nFs2, $C6, nFs2, $C3
	dc.b nFs2, nFs2, $C6, nFs2, $C3, nFs2, nFs2, $C6
	dc.b nFs2, $C3, nFs2, nFs2, $83, $C6, nA2, $84
	dc.b nG2, $82, nFs2, $C3, nFs2, nFs2, $C6, nFs2
	dc.b $C3, nFs2, nFs2, $C6, nFs2, $C3, nFs2, nFs2
	dc.b $C6, nFs2, $C3, nFs2, nFs2, $C6, nFs2, $C3
	dc.b nFs2, nFs2, $C6, nFs2, $C3, nFs2, nFs2, $C6
	dc.b nFs2, $C3, nFs2, nFs2, $83, $C6, nA2, $84
	dc.b nG2, $83, nFs2, $84, $CC, nFs2, $83, $C6
	dc.b nG2, $84, $CC, nG2, $83, $C6, nFs2, $CC
	dc.b nFs2, $C6, nG2, $CC, nG2, $87, nB2, nG2
	dc.b $83, $C6, nFs2, $CC, nFs2, $C6, nG2, $CC
	dc.b nG2, $C6, nFs2, $84, $CC, nFs2, $83, $C6
	dc.b nG2, $84, $CC, nG2, $88, nE2, $87, nG2
	dc.b $83, $C6, nFs2, nFs2, nFs2, nG2, nG2, nG2
	dc.b nFs2, nFs2, nFs2, nG2, nG2, nG2, $88, $CC
	dc.b nB2, nG2, $83, $C6, nFs2, nFs2, nG2, nG2
	dc.b nAb2, nAb2, nA2, nA2, nBb2, nB2, $82, nC3
	dc.b $83, nCs3, nD3, nEb3, nE3, nF3, $82, nFs2
	dc.b $C3, nFs2, nFs2, $C6, nFs2, $C3, nFs2, nFs2
	dc.b $C6, nFs2, $C3, nFs2, nFs2, $C6, nFs2, $C3
	dc.b nFs2, nFs2, $C6, nFs2, $C3, nFs2, nFs2, $C6
	dc.b nFs2, $C3, nFs2, nFs2, $C6, nFs2, $C3, nFs2
	dc.b nFs2, $83, $C6, nA2, $84, nG2, $82, nFs2
	dc.b $C3, nFs2, nFs2, $C6, nFs2, $C3, nFs2, nFs2
	dc.b $C6, nFs2, $C3, nFs2, nFs2, $C6, nFs2, $C3
	dc.b nFs2, nFs2, $C6, nFs2, $C3, nFs2, nFs2, $C6
	dc.b nFs2, $C3, nFs2, nFs2, $C6, nFs2, $C3, nFs2
	dc.b nFs2, $83, $C6, nA2, $84, nG2, $87, $CC
	dc.b nFs2, $88, nE2, nFs2, nG2, nFs2, $89, nE2
	dc.b $88, nFs2, nG2, $84, $C6, nFs2, $83, nE2
	dc.b nFs2, nG2, nFs2, $82, nE2, $83, nFs2, nG2
	dc.b nFs2, nE2, nFs2, nG2, nFs2, nE2, nFs2, nG2
	dc.b $AA, $EA, nB2, $85, $C6, nB2, $AF, $F0
	dc.b nB1, $C0
	gStartSeq	$33
	gStop

.32_01	dc.b $C0
	gsPrio		$19
	gsPatch		$51
	dc.b $82, nCs5, $81, $C6, nFs4, $C0, nFs4, $C3
	dc.b nCs5, $C0, nFs4, $C3, nCs5, $8E, $C0, nCs5
	dc.b $D2, nFs4, $82, $C0, nFs4, $C6, nCs5, $C0
	dc.b nFs4, $81, $C6, nCs5, $82, $C0, nFs4, $C6
	dc.b nCs5, $AC, $C0, nG4, $AB, $F0, nD5, $82
	dc.b $C0, nFs4, $C6, nCs5, $81, $C0, nFs4, $C3
	dc.b nCs5, $C0, nFs4, $C3, nCs5, $8E, $C0, nFs4
	dc.b $8F, $D2, nCs5, $82, $C0, nFs4, $C6, nCs5
	dc.b $C0, nFs4, $C6, nCs5, $C0, nFs4, $C6, nCs5
	dc.b $AE, $C0, nD5, $F0, nG4, $82, $C0, nFs4
	dc.b $83, $C6, nCs5, $C0, nFs4, $C6, nCs5, $84
	dc.b $C0, nFs3, $C6, nFs2, $82, $C0, nG4, $83
	dc.b $C6, nD5, $C0, nG4, $C6, nD5, $84, $C0
	dc.b nG3, $C6, nG2, $83, $C0, nFs4, $C6, nCs5
	dc.b $C0, nFs4, $84, $C6, nCs5, $C0, nFs3, $C6
	dc.b nFs2, $83, $C0, nG4, $C6, nD5, $C0, nG4
	dc.b $C6, nD5, $C0, nG2, $C6, nG3, $87, $C0
	dc.b nFs5, $CC, nB4, $C0, nG4, $CC, nD5, $83
	dc.b $C0, nCs5, $82, $C6, nFs4, $84, $C0, nCs5
	dc.b $C6, nFs4, $83, $C0, nFs3, $C6, nFs2, $C0
	dc.b nG4, $C6, nD5, $C0, nG4, $C6, nD5, $C0
	dc.b nG3, $84, $C6, nG2, $83, $C0, nCs5, $C6
	dc.b nFs4, $C0, nFs4, $84, $C6, nCs5, $C0, nFs3
	dc.b $C6, nFs2, $83, $C0, nG4, $C6, nD5, $C0
	dc.b nG4, $C6, nD5, $84, $C0, nG2, $C6, nG3
	dc.b $87, $C0, nE4, $CC, nB4, $C0, nG4, $CC
	dc.b nD5, $82, $C0, nFs4, $83, $C6, nCs5, $C0
	dc.b nFs4, $C6, nCs5, $84, $C0, nFs3, $C6, nFs2
	dc.b $83, $C0, nD5, $C6, nG4, $C0, nD5, $C6
	dc.b nG4, $C0, nG3, $C6, nG2, $82, $C0, nFs4
	dc.b $C6, nCs5, $83, $C0, nFs4, $84, $C6, nCs5
	dc.b $C0, nFs3, $83, $C6, nFs2, $82, $C0, nG4
	dc.b $C6, nD5, $84, $C0, nG4, $83, $C6, nD5
	dc.b $84, $C0, nG2, $83, $C6, nG3, $87, $C0
	dc.b nFs5, $CC, nB4, $C0, nG4, $CC, nD5, $82
	dc.b $C0, nCs5, $C6, nFs4, $83, $C0, nCs5, $C6
	dc.b nFs4, $82, $C0, nG4, $83, $C6, nD5, $82
	dc.b $C0, nD5, $83, $C6, nG4, $C0, nEb5, $82
	dc.b $C6, nAb4, $C0, nEb5, $83, $C6, nAb4, $82
	dc.b $C0, nE5, $83, $C6, nA4, $82, $C0, nE5
	dc.b $83, $C6, nA4, $82, $C0, nF5, $83, $C6
	dc.b nBb4, $C0, nFs5, $C6, nB4, $82, $C0, nG5
	dc.b $83, $C6, nC5, $C0, nAb5, $C6, nCs5, $C0
	dc.b nA5, $C6, nD5, $C0, nBb5, $82, $C6, nEb5
	dc.b $83, $C0, nB5, $84, $C6, nE5, $83, $C0
	dc.b nC6, $82, $C6, nF5, $C0, nCs5, $81, $C6
	dc.b nFs4, $C0, nFs4, $C3, nCs5, $C0, nFs4, $C3
	dc.b nCs5, $8E, $C0, nCs5, $D2, nFs4, $82, $C0
	dc.b nFs4, $C6, nCs5, $C0, nFs4, $81, $C6, nCs5
	dc.b $82, $C0, nFs4, $C6, nCs5, $AC, $C0, nG4
	dc.b $AB, $F0, nD5, $82, $C0, nFs4, $C6, nCs5
	dc.b $81, $C0, nFs4, $C3, nCs5, $C0, nFs4, $C3
	dc.b nCs5, $8E, $C0, nFs4, $8F, $D2, nCs5, $82
	dc.b $C0, nFs4, $C6, nCs5, $C0, nFs4, $C6, nCs5
	dc.b $C0, nFs4, $C6, nCs5, $AE, $C0, nD5, $F0
	dc.b nG4, $87, $C0, nFs4, $CC, nCs5, $88, $C0
	dc.b nE4, $CC, nB4, $C0, nCs5, $CC, nFs4, $89
	dc.b $C0, nG4, $CC, nD5, $C0, nCs5, $CC, nFs4
	dc.b $88, $C0, nE4, $CC, nB4, $C0, nFs4, $89
	dc.b $CC, nCs5, $88, $C0, nD5, $CC, nG4, $83
	dc.b $C0, nFs4, $C6, nCs5, $82, $C0, nE4, $C6
	dc.b nB4, $83, $C0, nFs4, $84, $C6, nCs5, $83
	dc.b $C0, nG4, $C6, nD5, $C0, nFs4, $C6, nCs5
	dc.b $C0, nB4, $82, $C6, nE4, $83, $C0, nFs4
	dc.b $C6, nCs5, $C0, nG4, $C6, nD5, $88, $C0
	dc.b nCs5, $CC, nFs4, $C0, nB4, $CC, nE4, $87
	dc.b $C0, nFs4, $88, $CC, nCs5, $C0, nG4, $89
	dc.b $CC, nD5, $81, $9F, $C0, nB4, $81, $9E
	dc.b $C1, $DF, nFs5
	gStop

.32_02	dc.b $C0
	gsPrio		$0C
	gsPatch		$50
	dc.b $82, $C6, nFs3, $C3, nFs3, nFs3, $C6, nFs3
	dc.b $C3, nFs3, nFs3, $C6, nFs3, $C3, nFs3, nFs3
	dc.b $C6, nFs3, $C3, nFs3, nFs3, $F0, nFs3, $C6
	dc.b nFs3, $C3, nFs3, nFs3, $C6, nFs3, $C3, nFs3
	dc.b nFs3, $C6, nFs3, $C3, nFs3, nFs3, $C6, nFs3
	dc.b $C3, nFs3, nFs3, $F0, nFs3, $83, $C6, nFs3
	dc.b $84, $CC, nFs3, $83, $C6, nG3, $84, $CC
	dc.b nG3, $83, $C6, nFs3, $CC, nFs3, $C6, nG3
	dc.b $84, $CC, nG3, $88, nB3, $87, nG3, $83
	dc.b $C6, nFs3, $CC, nFs3, $C6, nG3, $CC, nG3
	dc.b $C6, nFs3, $CC, nFs3, $C6, nG3, $84, $CC
	dc.b nG3, $87, nE3, nG3, $83, $C6, nFs3, nFs3
	dc.b nFs3, $82, nG3, $83, nG3, nG3, nFs3, nFs3
	dc.b nFs3, nG3, nG3, nG3, $88, $CC, nB3, nG3
	dc.b $83, $C6, nFs3, nFs3, nG3, nG3, nAb3, nAb3
	dc.b nA3, nA3, nBb3, nB3, nC4, nCs4, nD4, nEb4
	dc.b nE4, nF4, $82, nFs3, $C3, nFs3, nFs3, $C6
	dc.b nFs3, $C3, nFs3, nFs3, $C6, nFs3, $C3, nFs3
	dc.b nFs3, $C6, nFs3, $C3, nFs3, nFs3, $F0, nFs3
	dc.b $C6, nFs3, $C3, nFs3, nFs3, $C6, nFs3, $C3
	dc.b nFs3, nFs3, $C6, nFs3, $C3, nFs3, nFs3, $C6
	dc.b nFs3, $C3, nFs3, nFs3, $F0, nFs3, $87, $CC
	dc.b nFs3, $88, nE3, nFs3, nG3, nFs3, $89, nE3
	dc.b $88, nFs3, nG3, $84, $C6, nFs3, $83, nE3
	dc.b nFs3, nG3, nFs3, $82, nE3, $83, nFs3, nG3
	dc.b nFs3, nE3, nFs3, nG3, nFs3, nE3, nFs3, nG3
	dc.b $AA, $EA, nB3, $85, $C6, nB3, $AF, $EF
	dc.b nB2
	gStop

.32_03	dc.b $C0
	gsPrio		$11
	dc.b $F6
	gsPatch		$5F
	dc.b $82, $C3, nCs5, nD5, nEb5, nE5, nF5, nFs5
	dc.b nG5, nAb5, nA5, nBb5, nB5, nC6, nCs6, $83
	dc.b nD6, nCs6, nC6, nCs6, nC6, nCs6, nC6, nCs6
	dc.b nC6, nCs6, nC6, nCs6, nC6, nCs6, nC6, nCs6
	dc.b nC6, $86, $C6, nCs6, $82, $C3, nCs5, nD5
	dc.b nEb5, nE5, nF5, nFs5, nG5, nAb5, nA5, nBb5
	dc.b nB5, nC6, nCs6, nD6, $8C, $C3, $C0, nCs6
	dc.b $82, $C3, nD6, nCs6, nC6, nB5, nD6, nCs6
	dc.b nC6, nB5, nD6, nCs6, nC6, nB5, nD6, nCs6
	dc.b nC6, nB5, nD6, nCs6, nC6, nB5, nD6, nCs6
	dc.b nC6, nB5, nD6, nCs6, nC6, nB5, nD6, nCs6
	dc.b nC6, nB5, nC6, nB5, nC6, nCs6, nC6, nCs6
	dc.b nC6, nCs6, nD6, nCs6, nD6, nCs6, nEb6, nD6
	dc.b nEb6, nD6, nFs6, nF6, nE6, nEb6, nD6, nCs6
	dc.b nC6, nB5, nBb5, nA5, nAb5, nG5, nFs5, nF5
	dc.b nE5, $F9, nEb5, $C3, nCs5, nD5, nEb5, nE5
	dc.b nF5, nFs5, nG5, nAb5, nA5, nBb5, nB5, nC6
	dc.b nCs6, $83, nD6, nCs6, nC6, nCs6, nC6, nCs6
	dc.b nC6, nCs6, nC6, nCs6, nC6, nCs6, nC6, nCs6
	dc.b nC6, nCs6, nC6, $86, $C6, nCs6, $82, $C3
	dc.b nCs5, nD5, nEb5, nE5, nF5, nFs5, nG5, nAb5
	dc.b nA5, nBb5, nB5, nC6, nCs6, nD6, $8C, $C2
	dc.b $D0, nCs6, $82, $C3, nG4, nAb4, nA4, nBb4
	dc.b $83, nB4, $82, nC5, nCs5, nD5, $81, nEb5
	dc.b $83, nE5, $82, nF5, nFs5, nG5, nAb5, nA5
	dc.b $81, nBb5, $81, $9D, $C1, $DD, nB5
	gStop

.32_04	dc.b $C0
	gsPrio		$0F
	dc.b $C8, $FA
	gsPatch		$5E
	dc.b $83, $C3, nCs6, nE6, $81, $99, $C1, $DA
	dc.b nFs6, $83, $C3, nCs6, $82, nE6, $81, $9F
	dc.b $C1, $EC, nFs6, $88, $CC, nB5, nCs6, nD6
	dc.b $87, nCs6, $88, nB5, $87, nCs6, $88, nD6
	dc.b $83, $C6, nCs6, nB5, nCs6, nD6, nCs6, nB5
	dc.b nCs6, $82, nD6, $89, $CC, nFs6, $8A, nD6
	dc.b nCs6, $89, nA5, $81, $9D, $C1, $DD, nB5
	gStop

.32_05	dc.b $C0
	gsPrio		$10
	dc.b $F6
	gsPatch		$60
	dc.b $82, $C3, nE3, nF3, nFs3, nG3, nAb3, nA3
	dc.b nBb3, $83, nB3, $82, nC4, nCs4, nD4, nEb4
	dc.b $83, nE4, $82, nF4, $A5, $F6, nFs4, $82
	dc.b $C3, nE3, nF3, nFs3, nG3, nAb3, nA3, nBb3
	dc.b $83, nB3, $82, nC4, nCs4, nD4, nEb4, $83
	dc.b nE4, $82, nF4, $8C, $C4, $E0, nFs4, $83
	dc.b $C3, nD5, nCs5, $82, nC5, nB4, nD5, $83
	dc.b nCs5, $82, nC5, nB4, nD5, nCs5, nC5, nB4
	dc.b nD5, $83, nCs5, nC5, $82, nB4, nC5, nB4
	dc.b nC5, nCs5, nD5, nEb5, $83, nE5, $82, nF5
	dc.b nFs5, nG5, nAb5, nA5, $85, nBb5, $83, nB5
	dc.b nC6, $81, $F9, nCs6, $82, $C3, nE3, nF3
	dc.b nFs3, nG3, nAb3, nA3, nBb3, $83, nB3, $82
	dc.b nC4, nCs4, nD4, nEb4, $83, nE4, $82, nF4
	dc.b $A5, $F6, nFs4, $82, $C3, nE3, nF3, nFs3
	dc.b nG3, nAb3, nA3, nBb3, $83, nB3, $82, nC4
	dc.b nCs4, nD4, nEb4, $83, nE4, $82, nF4, $8C
	dc.b $C2, $E8, nFs4, $82, $C3, nG4, nAb4, nA4
	dc.b nBb4, $83, nB4, $82, nC5, nCs5, nD5, $81
	dc.b $9D, $C1, $DD, nB5
	gStop

.32_06	dc.b $C0
	gsPrio		$05
	dc.b $C3, $C0
	gsPatch		$46
	dc.b $83, $C6, nFs5, $84, $CC, nFs5, $83, $C6
	dc.b nG5, $CC, nG5, $C6, nFs5, $84, $CC, nFs5
	dc.b $83, $C6, nG5, $CC, nG5, $88, nB5, $87
	dc.b nG5, $83, $C6, nFs5, $84, $CC, nFs5, $82
	dc.b $C6, nG5, $83, $CC, nG5, $C6, nFs5, $CC
	dc.b nFs5, $C6, nG5, $CC, nG5, $86, nE5, $87
	dc.b nG5, $82, $C6, nFs5, $83, $CC, nFs5, $82
	dc.b $C6, nG5, $83, $CC, nG5, $C6, nFs5, $CC
	dc.b nFs5, $82, $C6, nG5, $83, $CC, nG5, $87
	dc.b nB5, $C4, $EC, nG5, $88, $CC, nFs5, nE5
	dc.b nFs5, nG5, nFs5, nE5, nFs5, $87, nG5, $84
	dc.b $C6, nFs5, $83, nE5, $84, nFs5, $83, nG5
	dc.b nFs5, nE5, $84, nFs5, $83, $F6, nG5, $81
	dc.b $9D, $C1, $DD, nB5
	gStop

.33_00	dc.b $C0
	gsPrio		$0F
	gsTempo		80
	gsPatch		$50
	dc.b $82, $C6, nG2, $C3, nG2, nG2, $C6, nG2
	dc.b $C3, nG2, nG2, $C6, nG2, $C3, nG2, nG2
	dc.b $C6, nG2, $C3, nG2, nG2, $C6, nG2, $C3
	dc.b nG2, nG2, $C6, nG2, $C3, nG2, nG2, $C6
	dc.b nG2, $C3, nG2, nG2, $83, $C6, nBb2, $84
	dc.b nAb2, $82, nG2, $C3, nG2, nG2, $C6, nG2
	dc.b $C3, nG2, nG2, $C6, nG2, $C3, nG2, nG2
	dc.b $C6, nG2, $C3, nG2, nG2, $C6, nG2, $C3
	dc.b nG2, nG2, $C6, nG2, $C3, nG2, nG2, $C6
	dc.b nG2, $C3, nG2, nG2, $83, $C6, nBb2, $84
	dc.b nAb2, $83, nG2, $84, $CC, nG2, $83, $C6
	dc.b nAb2, $84, $CC, nAb2, $83, $C6, nG2, $CC
	dc.b nG2, $C6, nAb2, $CC, nAb2, $87, nC3, nAb2
	dc.b $83, $C6, nG2, $CC, nG2, $C6, nAb2, $CC
	dc.b nAb2, $C6, nG2, $84, $CC, nG2, $83, $C6
	dc.b nAb2, $84, $CC, nAb2, $88, nF2, $87, nAb2
	dc.b $83, $C6, nG2, nG2, nG2, nAb2, nAb2, nAb2
	dc.b nG2, nG2, nG2, nAb2, nAb2, nAb2, $88, $CC
	dc.b nC3, nAb2, $83, $C6, nG2, nG2, nAb2, nAb2
	dc.b nA2, nA2, nBb2, nBb2, nB2, nC3, $82, nCs3
	dc.b $83, nD3, nEb3, nE3, nF3, nFs3, $82, nG2
	dc.b $C3, nG2, nG2, $C6, nG2, $C3, nG2, nG2
	dc.b $C6, nG2, $C3, nG2, nG2, $C6, nG2, $C3
	dc.b nG2, nG2, $C6, nG2, $C3, nG2, nG2, $C6
	dc.b nG2, $C3, nG2, nG2, $C6, nG2, $C3, nG2
	dc.b nG2, $83, $C6, nBb2, $84, nAb2, $82, nG2
	dc.b $C3, nG2, nG2, $C6, nG2, $C3, nG2, nG2
	dc.b $C6, nG2, $C3, nG2, nG2, $C6, nG2, $C3
	dc.b nG2, nG2, $C6, nG2, $C3, nG2, nG2, $C6
	dc.b nG2, $C3, nG2, nG2, $C6, nG2, $C3, nG2
	dc.b nG2, $83, $C6, nBb2, $84, nAb2, $87, $CC
	dc.b nG2, $88, nF2, nG2, nAb2, nG2, $89, nF2
	dc.b $88, nG2, nAb2, $84, $C6, nG2, $83, nF2
	dc.b nG2, nAb2, nG2, $82, nF2, $83, nG2, nAb2
	dc.b nG2, nF2, nG2, nAb2, nG2, nF2, nG2, nAb2
	dc.b $AA, $EA, nC3, $85, $C6, nC3, $AF, $F0
	dc.b nC2, $C0
	gStartSeq	$34
	gStop

.33_01	dc.b $C0
	gsPrio		$19
	gsPatch		$51
	dc.b $82, nD5, $81, $C6, nG4, $C0, nG4, $C3
	dc.b nD5, $C0, nG4, $C3, nD5, $8E, $C0, nD5
	dc.b $D2, nG4, $82, $C0, nG4, $C6, nD5, $C0
	dc.b nG4, $81, $C6, nD5, $82, $C0, nG4, $C6
	dc.b nD5, $AC, $C0, nAb4, $AB, $F0, nEb5, $82
	dc.b $C0, nG4, $C6, nD5, $81, $C0, nG4, $C3
	dc.b nD5, $C0, nG4, $C3, nD5, $8E, $C0, nG4
	dc.b $8F, $D2, nD5, $82, $C0, nG4, $C6, nD5
	dc.b $C0, nG4, $C6, nD5, $C0, nG4, $C6, nD5
	dc.b $AE, $C0, nEb5, $F0, nAb4, $82, $C0, nG4
	dc.b $83, $C6, nD5, $C0, nG4, $C6, nD5, $84
	dc.b $C0, nG3, $C6, nG2, $82, $C0, nAb4, $83
	dc.b $C6, nEb5, $C0, nAb4, $C6, nEb5, $84, $C0
	dc.b nAb3, $C6, nAb2, $83, $C0, nG4, $C6, nD5
	dc.b $C0, nG4, $84, $C6, nD5, $C0, nG3, $C6
	dc.b nG2, $83, $C0, nAb4, $C6, nEb5, $C0, nAb4
	dc.b $C6, nEb5, $C0, nAb2, $C6, nAb3, $87, $C0
	dc.b nG5, $CC, nC5, $C0, nAb4, $CC, nEb5, $83
	dc.b $C0, nD5, $82, $C6, nG4, $84, $C0, nD5
	dc.b $C6, nG4, $83, $C0, nG3, $C6, nG2, $C0
	dc.b nAb4, $C6, nEb5, $C0, nAb4, $C6, nEb5, $C0
	dc.b nAb3, $84, $C6, nAb2, $83, $C0, nD5, $C6
	dc.b nG4, $C0, nG4, $84, $C6, nD5, $C0, nG3
	dc.b $C6, nG2, $83, $C0, nAb4, $C6, nEb5, $C0
	dc.b nAb4, $C6, nEb5, $84, $C0, nAb2, $C6, nAb3
	dc.b $87, $C0, nF4, $CC, nC5, $C0, nAb4, $CC
	dc.b nEb5, $82, $C0, nG4, $83, $C6, nD5, $C0
	dc.b nG4, $C6, nD5, $84, $C0, nG3, $C6, nG2
	dc.b $83, $C0, nEb5, $C6, nAb4, $C0, nEb5, $C6
	dc.b nAb4, $C0, nAb3, $C6, nAb2, $82, $C0, nG4
	dc.b $C6, nD5, $83, $C0, nG4, $84, $C6, nD5
	dc.b $C0, nG3, $83, $C6, nG2, $82, $C0, nAb4
	dc.b $C6, nEb5, $84, $C0, nAb4, $83, $C6, nEb5
	dc.b $84, $C0, nAb2, $83, $C6, nAb3, $87, $C0
	dc.b nG5, $CC, nC5, $C0, nAb4, $CC, nEb5, $82
	dc.b $C0, nD5, $C6, nG4, $83, $C0, nD5, $C6
	dc.b nG4, $82, $C0, nAb4, $83, $C6, nEb5, $82
	dc.b $C0, nEb5, $83, $C6, nAb4, $C0, nE5, $82
	dc.b $C6, nA4, $C0, nE5, $83, $C6, nA4, $82
	dc.b $C0, nF5, $83, $C6, nBb4, $82, $C0, nF5
	dc.b $83, $C6, nBb4, $82, $C0, nFs5, $83, $C6
	dc.b nB4, $C0, nG5, $C6, nC5, $82, $C0, nAb5
	dc.b $83, $C6, nCs5, $C0, nA5, $C6, nD5, $C0
	dc.b nBb5, $C6, nEb5, $C0, nB5, $82, $C6, nE5
	dc.b $83, $C0, nC6, $84, $C6, nF5, $83, $C0
	dc.b nCs6, $82, $C6, nFs5, $C0, nD5, $81, $C6
	dc.b nG4, $C0, nG4, $C3, nD5, $C0, nG4, $C3
	dc.b nD5, $8E, $C0, nD5, $D2, nG4, $82, $C0
	dc.b nG4, $C6, nD5, $C0, nG4, $81, $C6, nD5
	dc.b $82, $C0, nG4, $C6, nD5, $AC, $C0, nAb4
	dc.b $AB, $F0, nEb5, $82, $C0, nG4, $C6, nD5
	dc.b $81, $C0, nG4, $C3, nD5, $C0, nG4, $C3
	dc.b nD5, $8E, $C0, nG4, $8F, $D2, nD5, $82
	dc.b $C0, nG4, $C6, nD5, $C0, nG4, $C6, nD5
	dc.b $C0, nG4, $C6, nD5, $AE, $C0, nEb5, $F0
	dc.b nAb4, $87, $C0, nG4, $CC, nD5, $88, $C0
	dc.b nF4, $CC, nC5, $C0, nD5, $CC, nG4, $89
	dc.b $C0, nAb4, $CC, nEb5, $C0, nD5, $CC, nG4
	dc.b $88, $C0, nF4, $CC, nC5, $C0, nG4, $89
	dc.b $CC, nD5, $88, $C0, nEb5, $CC, nAb4, $83
	dc.b $C0, nG4, $C6, nD5, $82, $C0, nF4, $C6
	dc.b nC5, $83, $C0, nG4, $84, $C6, nD5, $83
	dc.b $C0, nAb4, $C6, nEb5, $C0, nG4, $C6, nD5
	dc.b $C0, nC5, $82, $C6, nF4, $83, $C0, nG4
	dc.b $C6, nD5, $C0, nAb4, $C6, nEb5, $88, $C0
	dc.b nD5, $CC, nG4, $C0, nC5, $CC, nF4, $87
	dc.b $C0, nG4, $88, $CC, nD5, $C0, nAb4, $89
	dc.b $CC, nEb5, $81, $9F, $C0, nC5, $81, $9E
	dc.b $C1, $DF, nG5
	gStop

.33_02	dc.b $C0
	gsPrio		$0C
	gsPatch		$50
	dc.b $82, $C6, nG3, $C3, nG3, nG3, $C6, nG3
	dc.b $C3, nG3, nG3, $C6, nG3, $C3, nG3, nG3
	dc.b $C6, nG3, $C3, nG3, nG3, $F0, nG3, $C6
	dc.b nG3, $C3, nG3, nG3, $C6, nG3, $C3, nG3
	dc.b nG3, $C6, nG3, $C3, nG3, nG3, $C6, nG3
	dc.b $C3, nG3, nG3, $F0, nG3, $83, $C6, nG3
	dc.b $84, $CC, nG3, $83, $C6, nAb3, $84, $CC
	dc.b nAb3, $83, $C6, nG3, $CC, nG3, $C6, nAb3
	dc.b $84, $CC, nAb3, $88, nC4, $87, nAb3, $83
	dc.b $C6, nG3, $CC, nG3, $C6, nAb3, $CC, nAb3
	dc.b $C6, nG3, $CC, nG3, $C6, nAb3, $84, $CC
	dc.b nAb3, $87, nF3, nAb3, $83, $C6, nG3, nG3
	dc.b nG3, $82, nAb3, $83, nAb3, nAb3, nG3, nG3
	dc.b nG3, nAb3, nAb3, nAb3, $88, $CC, nC4, nAb3
	dc.b $83, $C6, nG3, nG3, nAb3, nAb3, nA3, nA3
	dc.b nBb3, nBb3, nB3, nC4, nCs4, nD4, nEb4, nE4
	dc.b nF4, nFs4, $82, nG3, $C3, nG3, nG3, $C6
	dc.b nG3, $C3, nG3, nG3, $C6, nG3, $C3, nG3
	dc.b nG3, $C6, nG3, $C3, nG3, nG3, $F0, nG3
	dc.b $C6, nG3, $C3, nG3, nG3, $C6, nG3, $C3
	dc.b nG3, nG3, $C6, nG3, $C3, nG3, nG3, $C6
	dc.b nG3, $C3, nG3, nG3, $F0, nG3, $87, $CC
	dc.b nG3, $88, nF3, nG3, nAb3, nG3, $89, nF3
	dc.b $88, nG3, nAb3, $84, $C6, nG3, $83, nF3
	dc.b nG3, nAb3, nG3, $82, nF3, $83, nG3, nAb3
	dc.b nG3, nF3, nG3, nAb3, nG3, nF3, nG3, nAb3
	dc.b $AA, $EA, nC4, $85, $C6, nC4, $AF, $EF
	dc.b nC3
	gStop

.33_03	dc.b $C0
	gsPrio		$11
	dc.b $F6
	gsPatch		$5F
	dc.b $82, $C3, nD5, nEb5, nE5, nF5, nFs5, nG5
	dc.b nAb5, nA5, nBb5, nB5, nC6, nCs6, nD6, $83
	dc.b nEb6, nD6, nCs6, nD6, nCs6, nD6, nCs6, nD6
	dc.b nCs6, nD6, nCs6, nD6, nCs6, nD6, nCs6, nD6
	dc.b nCs6, $86, $C6, nD6, $82, $C3, nD5, nEb5
	dc.b nE5, nF5, nFs5, nG5, nAb5, nA5, nBb5, nB5
	dc.b nC6, nCs6, nD6, nEb6, $8C, $C3, $C0, nD6
	dc.b $82, $C3, nEb6, nD6, nCs6, nC6, nEb6, nD6
	dc.b nCs6, nC6, nEb6, nD6, nCs6, nC6, nEb6, nD6
	dc.b nCs6, nC6, nEb6, nD6, nCs6, nC6, nEb6, nD6
	dc.b nCs6, nC6, nEb6, nD6, nCs6, nC6, nEb6, nD6
	dc.b nCs6, nC6, nCs6, nC6, nCs6, nD6, nCs6, nD6
	dc.b nCs6, nD6, nEb6, nD6, nEb6, nD6, nE6, nEb6
	dc.b nE6, nEb6, nG6, nFs6, nF6, nE6, nEb6, nD6
	dc.b nCs6, nC6, nB5, nBb5, nA5, nAb5, nG5, nFs5
	dc.b nF5, $F9, nE5, $C3, nD5, nEb5, nE5, nF5
	dc.b nFs5, nG5, nAb5, nA5, nBb5, nB5, nC6, nCs6
	dc.b nD6, $83, nEb6, nD6, nCs6, nD6, nCs6, nD6
	dc.b nCs6, nD6, nCs6, nD6, nCs6, nD6, nCs6, nD6
	dc.b nCs6, nD6, nCs6, $86, $C6, nD6, $82, $C3
	dc.b nD5, nEb5, nE5, nF5, nFs5, nG5, nAb5, nA5
	dc.b nBb5, nB5, nC6, nCs6, nD6, nEb6, $8C, $C2
	dc.b $D0, nD6, $82, $C3, nAb4, nA4, nBb4, nB4
	dc.b $83, nC5, $82, nCs5, nD5, nEb5, $81, nE5
	dc.b $83, nF5, $82, nFs5, nG5, nAb5, nA5, nBb5
	dc.b $81, nB5, $81, $9D, $C1, $DD, nC6
	gStop

.33_04	dc.b $C0
	gsPrio		$0F
	dc.b $C8, $FA
	gsPatch		$5E
	dc.b $83, $C3, nD6, nF6, $81, $99, $C1, $DA
	dc.b nG6, $83, $C3, nD6, $82, nF6, $81, $9F
	dc.b $C1, $EC, nG6, $88, $CC, nC6, nD6, nEb6
	dc.b $87, nD6, $88, nC6, $87, nD6, $88, nEb6
	dc.b $83, $C6, nD6, nC6, nD6, nEb6, nD6, nC6
	dc.b nD6, $82, nEb6, $89, $CC, nG6, $8A, nEb6
	dc.b nD6, $89, nBb5, $81, $9D, $C1, $DD, nC6
	gStop

.33_05	dc.b $C0
	gsPrio		$10
	dc.b $F6
	gsPatch		$60
	dc.b $82, $C3, nF3, nFs3, nG3, nAb3, nA3, nBb3
	dc.b nB3, $83, nC4, $82, nCs4, nD4, nEb4, nE4
	dc.b $83, nF4, $82, nFs4, $A5, $F6, nG4, $82
	dc.b $C3, nF3, nFs3, nG3, nAb3, nA3, nBb3, nB3
	dc.b $83, nC4, $82, nCs4, nD4, nEb4, nE4, $83
	dc.b nF4, $82, nFs4, $8C, $C4, $E0, nG4, $83
	dc.b $C3, nEb5, nD5, $82, nCs5, nC5, nEb5, $83
	dc.b nD5, $82, nCs5, nC5, nEb5, nD5, nCs5, nC5
	dc.b nEb5, $83, nD5, nCs5, $82, nC5, nCs5, nC5
	dc.b nCs5, nD5, nEb5, nE5, $83, nF5, $82, nFs5
	dc.b nG5, nAb5, nA5, nBb5, $85, nB5, $83, nC6
	dc.b nCs6, $81, $F9, nD6, $82, $C3, nF3, nFs3
	dc.b nG3, nAb3, nA3, nBb3, nB3, $83, nC4, $82
	dc.b nCs4, nD4, nEb4, nE4, $83, nF4, $82, nFs4
	dc.b $A5, $F6, nG4, $82, $C3, nF3, nFs3, nG3
	dc.b nAb3, nA3, nBb3, nB3, $83, nC4, $82, nCs4
	dc.b nD4, nEb4, nE4, $83, nF4, $82, nFs4, $8C
	dc.b $C2, $E8, nG4, $82, $C3, nAb4, nA4, nBb4
	dc.b nB4, $83, nC5, $82, nCs5, nD5, nEb5, $81
	dc.b $9D, $C1, $DD, nC6
	gStop

.33_06	dc.b $C0
	gsPrio		$05
	dc.b $C3, $C0
	gsPatch		$46
	dc.b $83, $C6, nG5, $84, $CC, nG5, $83, $C6
	dc.b nAb5, $CC, nAb5, $C6, nG5, $84, $CC, nG5
	dc.b $83, $C6, nAb5, $CC, nAb5, $88, nC6, $87
	dc.b nAb5, $83, $C6, nG5, $84, $CC, nG5, $82
	dc.b $C6, nAb5, $83, $CC, nAb5, $C6, nG5, $CC
	dc.b nG5, $C6, nAb5, $CC, nAb5, $86, nF5, $87
	dc.b nAb5, $82, $C6, nG5, $83, $CC, nG5, $82
	dc.b $C6, nAb5, $83, $CC, nAb5, $C6, nG5, $CC
	dc.b nG5, $82, $C6, nAb5, $83, $CC, nAb5, $87
	dc.b nC6, $C4, $EC, nAb5, $88, $CC, nG5, nF5
	dc.b nG5, nAb5, nG5, nF5, nG5, $87, nAb5, $84
	dc.b $C6, nG5, $83, nF5, $84, nG5, $83, nAb5
	dc.b nG5, nF5, $84, nG5, $83, $F6, nAb5, $81
	dc.b $9D, $C1, $DD, nC6
	gStop

.34_00	dc.b $C0
	gsPrio		$0F
	gsTempo		82
	gsPatch		$50
	dc.b $82, $C6, nAb2, $C3, nAb2, nAb2, $C6, nAb2
	dc.b $C3, nAb2, nAb2, $C6, nAb2, $C3, nAb2, nAb2
	dc.b $C6, nAb2, $C3, nAb2, nAb2, $C6, nAb2, $C3
	dc.b nAb2, nAb2, $C6, nAb2, $C3, nAb2, nAb2, $C6
	dc.b nAb2, $C3, nAb2, nAb2, $83, $C6, nB2, $84
	dc.b nA2, $82, nAb2, $C3, nAb2, nAb2, $C6, nAb2
	dc.b $C3, nAb2, nAb2, $C6, nAb2, $C3, nAb2, nAb2
	dc.b $C6, nAb2, $C3, nAb2, nAb2, $C6, nAb2, $C3
	dc.b nAb2, nAb2, $C6, nAb2, $C3, nAb2, nAb2, $C6
	dc.b nAb2, $C3, nAb2, nAb2, $83, $C6, nB2, $84
	dc.b nA2, $83, nAb2, $84, $CC, nAb2, $83, $C6
	dc.b nA2, $84, $CC, nA2, $83, $C6, nAb2, $CC
	dc.b nAb2, $C6, nA2, $CC, nA2, $87, nCs3, nA2
	dc.b $83, $C6, nAb2, $CC, nAb2, $C6, nA2, $CC
	dc.b nA2, $C6, nAb2, $84, $CC, nAb2, $83, $C6
	dc.b nA2, $84, $CC, nA2, $88, nFs2, $87, nA2
	dc.b $83, $C6, nAb2, nAb2, nAb2, nA2, nA2, nA2
	dc.b nAb2, nAb2, nAb2, nA2, nA2, nA2, $88, $CC
	dc.b nCs3, nA2, $83, $C6, nAb2, nAb2, nA2, nA2
	dc.b nBb2, nBb2, nB2, nB2, nC3, nCs3, $82, nD3
	dc.b $83, nEb3, nE3, nF3, nFs3, nG3, $82, nAb2
	dc.b $C3, nAb2, nAb2, $C6, nAb2, $C3, nAb2, nAb2
	dc.b $C6, nAb2, $C3, nAb2, nAb2, $C6, nAb2, $C3
	dc.b nAb2, nAb2, $C6, nAb2, $C3, nAb2, nAb2, $C6
	dc.b nAb2, $C3, nAb2, nAb2, $C6, nAb2, $C3, nAb2
	dc.b nAb2, $83, $C6, nB2, $84, nA2, $82, nAb2
	dc.b $C3, nAb2, nAb2, $C6, nAb2, $C3, nAb2, nAb2
	dc.b $C6, nAb2, $C3, nAb2, nAb2, $C6, nAb2, $C3
	dc.b nAb2, nAb2, $C6, nAb2, $C3, nAb2, nAb2, $C6
	dc.b nAb2, $C3, nAb2, nAb2, $C6, nAb2, $C3, nAb2
	dc.b nAb2, $83, $C6, nB2, $84, nA2, $87, $CC
	dc.b nAb2, $88, nFs2, nAb2, nA2, nAb2, $89, nFs2
	dc.b $88, nAb2, nA2, $84, $C6, nAb2, $83, nFs2
	dc.b nAb2, nA2, nAb2, $82, nFs2, $83, nAb2, nA2
	dc.b nAb2, nFs2, nAb2, nA2, nAb2, nFs2, nAb2, nA2
	dc.b $AA, $EA, nCs3, $85, $C6, nCs3, $AF, $F0
	dc.b nCs2, $C0
	gStartSeq	$35
	gStop

.34_01	dc.b $C0
	gsPrio		$19
	gsPatch		$51
	dc.b $82, nEb5, $81, $C6, nAb4, $C0, nAb4, $C3
	dc.b nEb5, $C0, nAb4, $C3, nEb5, $8E, $C0, nEb5
	dc.b $D2, nAb4, $82, $C0, nAb4, $C6, nEb5, $C0
	dc.b nAb4, $81, $C6, nEb5, $82, $C0, nAb4, $C6
	dc.b nEb5, $AC, $C0, nA4, $AB, $F0, nE5, $82
	dc.b $C0, nAb4, $C6, nEb5, $81, $C0, nAb4, $C3
	dc.b nEb5, $C0, nAb4, $C3, nEb5, $8E, $C0, nAb4
	dc.b $8F, $D2, nEb5, $82, $C0, nAb4, $C6, nEb5
	dc.b $C0, nAb4, $C6, nEb5, $C0, nAb4, $C6, nEb5
	dc.b $AE, $C0, nE5, $F0, nA4, $82, $C0, nAb4
	dc.b $83, $C6, nEb5, $C0, nAb4, $C6, nEb5, $84
	dc.b $C0, nAb3, $C6, nAb2, $82, $C0, nA4, $83
	dc.b $C6, nE5, $C0, nA4, $C6, nE5, $84, $C0
	dc.b nA3, $C6, nA2, $83, $C0, nAb4, $C6, nEb5
	dc.b $C0, nAb4, $84, $C6, nEb5, $C0, nAb3, $C6
	dc.b nAb2, $83, $C0, nA4, $C6, nE5, $C0, nA4
	dc.b $C6, nE5, $C0, nA2, $C6, nA3, $87, $C0
	dc.b nAb5, $CC, nCs5, $C0, nA4, $CC, nE5, $83
	dc.b $C0, nEb5, $82, $C6, nAb4, $84, $C0, nEb5
	dc.b $C6, nAb4, $83, $C0, nAb3, $C6, nAb2, $C0
	dc.b nA4, $C6, nE5, $C0, nA4, $C6, nE5, $C0
	dc.b nA3, $84, $C6, nA2, $83, $C0, nEb5, $C6
	dc.b nAb4, $C0, nAb4, $84, $C6, nEb5, $C0, nAb3
	dc.b $C6, nAb2, $83, $C0, nA4, $C6, nE5, $C0
	dc.b nA4, $C6, nE5, $84, $C0, nA2, $C6, nA3
	dc.b $87, $C0, nFs4, $CC, nCs5, $C0, nA4, $CC
	dc.b nE5, $82, $C0, nAb4, $83, $C6, nEb5, $C0
	dc.b nAb4, $C6, nEb5, $84, $C0, nAb3, $C6, nAb2
	dc.b $83, $C0, nE5, $C6, nA4, $C0, nE5, $C6
	dc.b nA4, $C0, nA3, $C6, nA2, $82, $C0, nAb4
	dc.b $C6, nEb5, $83, $C0, nAb4, $84, $C6, nEb5
	dc.b $C0, nAb3, $83, $C6, nAb2, $82, $C0, nA4
	dc.b $C6, nE5, $84, $C0, nA4, $83, $C6, nE5
	dc.b $84, $C0, nA2, $83, $C6, nA3, $87, $C0
	dc.b nAb5, $CC, nCs5, $C0, nA4, $CC, nE5, $82
	dc.b $C0, nEb5, $C6, nAb4, $83, $C0, nEb5, $C6
	dc.b nAb4, $82, $C0, nA4, $83, $C6, nE5, $82
	dc.b $C0, nE5, $83, $C6, nA4, $C0, nF5, $82
	dc.b $C6, nBb4, $C0, nF5, $83, $C6, nBb4, $82
	dc.b $C0, nFs5, $83, $C6, nB4, $82, $C0, nFs5
	dc.b $83, $C6, nB4, $82, $C0, nG5, $83, $C6
	dc.b nC5, $C0, nAb5, $C6, nCs5, $82, $C0, nA5
	dc.b $83, $C6, nD5, $C0, nBb5, $C6, nEb5, $C0
	dc.b nB5, $C6, nE5, $C0, nC6, $82, $C6, nF5
	dc.b $83, $C0, nCs6, $84, $C6, nFs5, $83, $C0
	dc.b nD6, $82, $C6, nG5, $C0, nEb5, $81, $C6
	dc.b nAb4, $C0, nAb4, $C3, nEb5, $C0, nAb4, $C3
	dc.b nEb5, $8E, $C0, nEb5, $D2, nAb4, $82, $C0
	dc.b nAb4, $C6, nEb5, $C0, nAb4, $81, $C6, nEb5
	dc.b $82, $C0, nAb4, $C6, nEb5, $AC, $C0, nA4
	dc.b $AB, $F0, nE5, $82, $C0, nAb4, $C6, nEb5
	dc.b $81, $C0, nAb4, $C3, nEb5, $C0, nAb4, $C3
	dc.b nEb5, $8E, $C0, nAb4, $8F, $D2, nEb5, $82
	dc.b $C0, nAb4, $C6, nEb5, $C0, nAb4, $C6, nEb5
	dc.b $C0, nAb4, $C6, nEb5, $AE, $C0, nE5, $F0
	dc.b nA4, $87, $C0, nAb4, $CC, nEb5, $88, $C0
	dc.b nFs4, $CC, nCs5, $C0, nEb5, $CC, nAb4, $89
	dc.b $C0, nA4, $CC, nE5, $C0, nEb5, $CC, nAb4
	dc.b $88, $C0, nFs4, $CC, nCs5, $C0, nAb4, $89
	dc.b $CC, nEb5, $88, $C0, nE5, $CC, nA4, $83
	dc.b $C0, nAb4, $C6, nEb5, $82, $C0, nFs4, $C6
	dc.b nCs5, $83, $C0, nAb4, $84, $C6, nEb5, $83
	dc.b $C0, nA4, $C6, nE5, $C0, nAb4, $C6, nEb5
	dc.b $C0, nCs5, $82, $C6, nFs4, $83, $C0, nAb4
	dc.b $C6, nEb5, $C0, nA4, $C6, nE5, $88, $C0
	dc.b nEb5, $CC, nAb4, $C0, nCs5, $CC, nFs4, $87
	dc.b $C0, nAb4, $88, $CC, nEb5, $C0, nA4, $89
	dc.b $CC, nE5, $81, $9F, $C0, nCs5, $81, $9E
	dc.b $C1, $DF, nAb5
	gStop

.34_02	dc.b $C0
	gsPrio		$0C
	gsPatch		$50
	dc.b $82, $C6, nAb3, $C3, nAb3, nAb3, $C6, nAb3
	dc.b $C3, nAb3, nAb3, $C6, nAb3, $C3, nAb3, nAb3
	dc.b $C6, nAb3, $C3, nAb3, nAb3, $F0, nAb3, $C6
	dc.b nAb3, $C3, nAb3, nAb3, $C6, nAb3, $C3, nAb3
	dc.b nAb3, $C6, nAb3, $C3, nAb3, nAb3, $C6, nAb3
	dc.b $C3, nAb3, nAb3, $F0, nAb3, $83, $C6, nAb3
	dc.b $84, $CC, nAb3, $83, $C6, nA3, $84, $CC
	dc.b nA3, $83, $C6, nAb3, $CC, nAb3, $C6, nA3
	dc.b $84, $CC, nA3, $88, nCs4, $87, nA3, $83
	dc.b $C6, nAb3, $CC, nAb3, $C6, nA3, $CC, nA3
	dc.b $C6, nAb3, $CC, nAb3, $C6, nA3, $84, $CC
	dc.b nA3, $87, nFs3, nA3, $83, $C6, nAb3, nAb3
	dc.b nAb3, $82, nA3, $83, nA3, nA3, nAb3, nAb3
	dc.b nAb3, nA3, nA3, nA3, $88, $CC, nCs4, nA3
	dc.b $83, $C6, nAb3, nAb3, nA3, nA3, nBb3, nBb3
	dc.b nB3, nB3, nC4, nCs4, nD4, nEb4, nE4, nF4
	dc.b nFs4, nG4, $82, nAb3, $C3, nAb3, nAb3, $C6
	dc.b nAb3, $C3, nAb3, nAb3, $C6, nAb3, $C3, nAb3
	dc.b nAb3, $C6, nAb3, $C3, nAb3, nAb3, $F0, nAb3
	dc.b $C6, nAb3, $C3, nAb3, nAb3, $C6, nAb3, $C3
	dc.b nAb3, nAb3, $C6, nAb3, $C3, nAb3, nAb3, $C6
	dc.b nAb3, $C3, nAb3, nAb3, $F0, nAb3, $87, $CC
	dc.b nAb3, $88, nFs3, nAb3, nA3, nAb3, $89, nFs3
	dc.b $88, nAb3, nA3, $84, $C6, nAb3, $83, nFs3
	dc.b nAb3, nA3, nAb3, $82, nFs3, $83, nAb3, nA3
	dc.b nAb3, nFs3, nAb3, nA3, nAb3, nFs3, nAb3, nA3
	dc.b $AA, $EA, nCs4, $85, $C6, nCs4, $AF, $EF
	dc.b nCs3
	gStop

.34_03	dc.b $C0
	gsPrio		$11
	dc.b $F6
	gsPatch		$5F
	dc.b $82, $C3, nEb5, nE5, nF5, nFs5, nG5, nAb5
	dc.b nA5, nBb5, nB5, nC6, nCs6, nD6, nEb6, $83
	dc.b nE6, nEb6, nD6, nEb6, nD6, nEb6, nD6, nEb6
	dc.b nD6, nEb6, nD6, nEb6, nD6, nEb6, nD6, nEb6
	dc.b nD6, $86, $C6, nEb6, $82, $C3, nEb5, nE5
	dc.b nF5, nFs5, nG5, nAb5, nA5, nBb5, nB5, nC6
	dc.b nCs6, nD6, nEb6, nE6, $8C, $C3, $C0, nEb6
	dc.b $82, $C3, nE6, nEb6, nD6, nCs6, nE6, nEb6
	dc.b nD6, nCs6, nE6, nEb6, nD6, nCs6, nE6, nEb6
	dc.b nD6, nCs6, nE6, nEb6, nD6, nCs6, nE6, nEb6
	dc.b nD6, nCs6, nE6, nEb6, nD6, nCs6, nE6, nEb6
	dc.b nD6, nCs6, nD6, nCs6, nD6, nEb6, nD6, nEb6
	dc.b nD6, nEb6, nE6, nEb6, nE6, nEb6, nF6, nE6
	dc.b nF6, nE6, nAb6, nG6, nFs6, nF6, nE6, nEb6
	dc.b nD6, nCs6, nC6, nB5, nBb5, nA5, nAb5, nG5
	dc.b nFs5, $F9, nF5, $C3, nEb5, nE5, nF5, nFs5
	dc.b nG5, nAb5, nA5, nBb5, nB5, nC6, nCs6, nD6
	dc.b nEb6, $83, nE6, nEb6, nD6, nEb6, nD6, nEb6
	dc.b nD6, nEb6, nD6, nEb6, nD6, nEb6, nD6, nEb6
	dc.b nD6, nEb6, nD6, $86, $C6, nEb6, $82, $C3
	dc.b nEb5, nE5, nF5, nFs5, nG5, nAb5, nA5, nBb5
	dc.b nB5, nC6, nCs6, nD6, nEb6, nE6, $8C, $C2
	dc.b $D0, nEb6, $82, $C3, nA4, nBb4, nB4, nC5
	dc.b $83, nCs5, $82, nD5, nEb5, nE5, $81, nF5
	dc.b $83, nFs5, $82, nG5, nAb5, nA5, nBb5, nB5
	dc.b $81, nC6, $81, $9D, $C1, $DD, nCs6
	gStop

.34_04	dc.b $C0
	gsPrio		$0F
	dc.b $C8, $FA
	gsPatch		$5E
	dc.b $83, $C3, nEb6, nFs6, $81, $99, $C1, $DA
	dc.b nAb6, $83, $C3, nEb6, $82, nFs6, $81, $9F
	dc.b $C1, $EC, nAb6, $88, $CC, nCs6, nEb6, nE6
	dc.b $87, nEb6, $88, nCs6, $87, nEb6, $88, nE6
	dc.b $83, $C6, nEb6, nCs6, nEb6, nE6, nEb6, nCs6
	dc.b nEb6, $82, nE6, $89, $CC, nAb6, $8A, nE6
	dc.b nEb6, $89, nB5, $81, $9D, $C1, $DD, nCs6
	gStop

.34_05	dc.b $C0
	gsPrio		$10
	dc.b $F6
	gsPatch		$60
	dc.b $82, $C3, nFs3, nG3, nAb3, nA3, nBb3, nB3
	dc.b nC4, $83, nCs4, $82, nD4, nEb4, nE4, nF4
	dc.b $83, nFs4, $82, nG4, $A5, $F6, nAb4, $82
	dc.b $C3, nFs3, nG3, nAb3, nA3, nBb3, nB3, nC4
	dc.b $83, nCs4, $82, nD4, nEb4, nE4, nF4, $83
	dc.b nFs4, $82, nG4, $8C, $C4, $E0, nAb4, $83
	dc.b $C3, nE5, nEb5, $82, nD5, nCs5, nE5, $83
	dc.b nEb5, $82, nD5, nCs5, nE5, nEb5, nD5, nCs5
	dc.b nE5, $83, nEb5, nD5, $82, nCs5, nD5, nCs5
	dc.b nD5, nEb5, nE5, nF5, $83, nFs5, $82, nG5
	dc.b nAb5, nA5, nBb5, nB5, $85, nC6, $83, nCs6
	dc.b nD6, $81, $F9, nEb6, $82, $C3, nFs3, nG3
	dc.b nAb3, nA3, nBb3, nB3, nC4, $83, nCs4, $82
	dc.b nD4, nEb4, nE4, nF4, $83, nFs4, $82, nG4
	dc.b $A5, $F6, nAb4, $82, $C3, nFs3, nG3, nAb3
	dc.b nA3, nBb3, nB3, nC4, $83, nCs4, $82, nD4
	dc.b nEb4, nE4, nF4, $83, nFs4, $82, nG4, $8C
	dc.b $C2, $E8, nAb4, $82, $C3, nA4, nBb4, nB4
	dc.b nC5, $83, nCs5, $82, nD5, nEb5, nE5, $81
	dc.b $9D, $C1, $DD, nCs6
	gStop

.34_06	dc.b $C0
	gsPrio		$05
	dc.b $C3, $C0
	gsPatch		$46
	dc.b $83, $C6, nAb5, $84, $CC, nAb5, $83, $C6
	dc.b nA5, $CC, nA5, $C6, nAb5, $84, $CC, nAb5
	dc.b $83, $C6, nA5, $CC, nA5, $88, nCs6, $87
	dc.b nA5, $83, $C6, nAb5, $84, $CC, nAb5, $82
	dc.b $C6, nA5, $83, $CC, nA5, $C6, nAb5, $CC
	dc.b nAb5, $C6, nA5, $CC, nA5, $86, nFs5, $87
	dc.b nA5, $82, $C6, nAb5, $83, $CC, nAb5, $82
	dc.b $C6, nA5, $83, $CC, nA5, $C6, nAb5, $CC
	dc.b nAb5, $82, $C6, nA5, $83, $CC, nA5, $87
	dc.b nCs6, $C4, $EC, nA5, $88, $CC, nAb5, nFs5
	dc.b nAb5, nA5, nAb5, nFs5, nAb5, $87, nA5, $84
	dc.b $C6, nAb5, $83, nFs5, $84, nAb5, $83, nA5
	dc.b nAb5, nFs5, $84, nAb5, $83, $F6, nA5, $81
	dc.b $9D, $C1, $DD, nCs6
	gStop

.35_00	dc.b $C0
	gsPrio		$0F
	gsTempo		84
	gsPatch		$50
	dc.b $82, $C6, nA2, $C3, nA2, nA2, $C6, nA2
	dc.b $C3, nA2, nA2, $C6, nA2, $C3, nA2, nA2
	dc.b $C6, nA2, $C3, nA2, nA2, $C6, nA2, $C3
	dc.b nA2, nA2, $C6, nA2, $C3, nA2, nA2, $C6
	dc.b nA2, $C3, nA2, nA2, $83, $C6, nC3, $84
	dc.b nBb2, $82, nA2, $C3, nA2, nA2, $C6, nA2
	dc.b $C3, nA2, nA2, $C6, nA2, $C3, nA2, nA2
	dc.b $C6, nA2, $C3, nA2, nA2, $C6, nA2, $C3
	dc.b nA2, nA2, $C6, nA2, $C3, nA2, nA2, $C6
	dc.b nA2, $C3, nA2, nA2, $83, $C6, nC3, $84
	dc.b nBb2, $83, nA2, $84, $CC, nA2, $83, $C6
	dc.b nBb2, $84, $CC, nBb2, $83, $C6, nA2, $CC
	dc.b nA2, $C6, nBb2, $CC, nBb2, $87, nD3, nBb2
	dc.b $83, $C6, nA2, $CC, nA2, $C6, nBb2, $CC
	dc.b nBb2, $C6, nA2, $84, $CC, nA2, $83, $C6
	dc.b nBb2, $84, $CC, nBb2, $88, nG2, $87, nBb2
	dc.b $83, $C6, nA2, nA2, nA2, nBb2, nBb2, nBb2
	dc.b nA2, nA2, nA2, nBb2, nBb2, nBb2, $88, $CC
	dc.b nD3, nBb2, $83, $C6, nA2, nA2, nBb2, nBb2
	dc.b nB2, nB2, nC3, nC3, nCs3, nD3, $82, nEb3
	dc.b $83, nE3, nF3, nFs3, nG3, nAb3, $82, nA2
	dc.b $C3, nA2, nA2, $C6, nA2, $C3, nA2, nA2
	dc.b $C6, nA2, $C3, nA2, nA2, $C6, nA2, $C3
	dc.b nA2, nA2, $C6, nA2, $C3, nA2, nA2, $C6
	dc.b nA2, $C3, nA2, nA2, $C6, nA2, $C3, nA2
	dc.b nA2, $83, $C6, nC3, $84, nBb2, $82, nA2
	dc.b $C3, nA2, nA2, $C6, nA2, $C3, nA2, nA2
	dc.b $C6, nA2, $C3, nA2, nA2, $C6, nA2, $C3
	dc.b nA2, nA2, $C6, nA2, $C3, nA2, nA2, $C6
	dc.b nA2, $C3, nA2, nA2, $C6, nA2, $C3, nA2
	dc.b nA2, $83, $C6, nC3, $84, nBb2, $87, $CC
	dc.b nA2, $88, nG2, nA2, nBb2, nA2, $89, nG2
	dc.b $88, nA2, nBb2, $84, $C6, nA2, $83, nG2
	dc.b nA2, nBb2, nA2, $82, nG2, $83, nA2, nBb2
	dc.b nA2, nG2, nA2, nBb2, nA2, nG2, nA2, nBb2
	dc.b $AA, $EA, nD3, $85, $C6, nD3, $AF, $F0
	dc.b nD2, $C0
	gStartSeq	$36
	gStop

.35_01	dc.b $C0
	gsPrio		$19
	gsPatch		$51
	dc.b $82, nE5, $81, $C6, nA4, $C0, nA4, $C3
	dc.b nE5, $C0, nA4, $C3, nE5, $8E, $C0, nE5
	dc.b $D2, nA4, $82, $C0, nA4, $C6, nE5, $C0
	dc.b nA4, $81, $C6, nE5, $82, $C0, nA4, $C6
	dc.b nE5, $AC, $C0, nBb4, $AB, $F0, nF5, $82
	dc.b $C0, nA4, $C6, nE5, $81, $C0, nA4, $C3
	dc.b nE5, $C0, nA4, $C3, nE5, $8E, $C0, nA4
	dc.b $8F, $D2, nE5, $82, $C0, nA4, $C6, nE5
	dc.b $C0, nA4, $C6, nE5, $C0, nA4, $C6, nE5
	dc.b $AE, $C0, nF5, $F0, nBb4, $82, $C0, nA4
	dc.b $83, $C6, nE5, $C0, nA4, $C6, nE5, $84
	dc.b $C0, nA3, $C6, nA2, $82, $C0, nBb4, $83
	dc.b $C6, nF5, $C0, nBb4, $C6, nF5, $84, $C0
	dc.b nBb3, $C6, nBb2, $83, $C0, nA4, $C6, nE5
	dc.b $C0, nA4, $84, $C6, nE5, $C0, nA3, $C6
	dc.b nA2, $83, $C0, nBb4, $C6, nF5, $C0, nBb4
	dc.b $C6, nF5, $C0, nBb2, $C6, nBb3, $87, $C0
	dc.b nA5, $CC, nD5, $C0, nBb4, $CC, nF5, $83
	dc.b $C0, nE5, $82, $C6, nA4, $84, $C0, nE5
	dc.b $C6, nA4, $83, $C0, nA3, $C6, nA2, $C0
	dc.b nBb4, $C6, nF5, $C0, nBb4, $C6, nF5, $C0
	dc.b nBb3, $84, $C6, nBb2, $83, $C0, nE5, $C6
	dc.b nA4, $C0, nA4, $84, $C6, nE5, $C0, nA3
	dc.b $C6, nA2, $83, $C0, nBb4, $C6, nF5, $C0
	dc.b nBb4, $C6, nF5, $84, $C0, nBb2, $C6, nBb3
	dc.b $87, $C0, nG4, $CC, nD5, $C0, nBb4, $CC
	dc.b nF5, $82, $C0, nA4, $83, $C6, nE5, $C0
	dc.b nA4, $C6, nE5, $84, $C0, nA3, $C6, nA2
	dc.b $83, $C0, nF5, $C6, nBb4, $C0, nF5, $C6
	dc.b nBb4, $C0, nBb3, $C6, nBb2, $82, $C0, nA4
	dc.b $C6, nE5, $83, $C0, nA4, $84, $C6, nE5
	dc.b $C0, nA3, $83, $C6, nA2, $82, $C0, nBb4
	dc.b $C6, nF5, $84, $C0, nBb4, $83, $C6, nF5
	dc.b $84, $C0, nBb2, $83, $C6, nBb3, $87, $C0
	dc.b nA5, $CC, nD5, $C0, nBb4, $CC, nF5, $82
	dc.b $C0, nE5, $C6, nA4, $83, $C0, nE5, $C6
	dc.b nA4, $82, $C0, nBb4, $83, $C6, nF5, $82
	dc.b $C0, nF5, $83, $C6, nBb4, $C0, nFs5, $82
	dc.b $C6, nB4, $C0, nFs5, $83, $C6, nB4, $82
	dc.b $C0, nG5, $83, $C6, nC5, $82, $C0, nG5
	dc.b $83, $C6, nC5, $82, $C0, nAb5, $83, $C6
	dc.b nCs5, $C0, nA5, $C6, nD5, $82, $C0, nBb5
	dc.b $83, $C6, nEb5, $C0, nB5, $C6, nE5, $C0
	dc.b nC6, $C6, nF5, $C0, nCs6, $82, $C6, nFs5
	dc.b $83, $C0, nD6, $84, $C6, nG5, $83, $C0
	dc.b nEb6, $82, $C6, nAb5, $C0, nE5, $81, $C6
	dc.b nA4, $C0, nA4, $C3, nE5, $C0, nA4, $C3
	dc.b nE5, $8E, $C0, nE5, $D2, nA4, $82, $C0
	dc.b nA4, $C6, nE5, $C0, nA4, $81, $C6, nE5
	dc.b $82, $C0, nA4, $C6, nE5, $AC, $C0, nBb4
	dc.b $AB, $F0, nF5, $82, $C0, nA4, $C6, nE5
	dc.b $81, $C0, nA4, $C3, nE5, $C0, nA4, $C3
	dc.b nE5, $8E, $C0, nA4, $8F, $D2, nE5, $82
	dc.b $C0, nA4, $C6, nE5, $C0, nA4, $C6, nE5
	dc.b $C0, nA4, $C6, nE5, $AE, $C0, nF5, $F0
	dc.b nBb4, $87, $C0, nA4, $CC, nE5, $88, $C0
	dc.b nG4, $CC, nD5, $C0, nE5, $CC, nA4, $89
	dc.b $C0, nBb4, $CC, nF5, $C0, nE5, $CC, nA4
	dc.b $88, $C0, nG4, $CC, nD5, $C0, nA4, $89
	dc.b $CC, nE5, $88, $C0, nF5, $CC, nBb4, $83
	dc.b $C0, nA4, $C6, nE5, $82, $C0, nG4, $C6
	dc.b nD5, $83, $C0, nA4, $84, $C6, nE5, $83
	dc.b $C0, nBb4, $C6, nF5, $C0, nA4, $C6, nE5
	dc.b $C0, nD5, $82, $C6, nG4, $83, $C0, nA4
	dc.b $C6, nE5, $C0, nBb4, $C6, nF5, $88, $C0
	dc.b nE5, $CC, nA4, $C0, nD5, $CC, nG4, $87
	dc.b $C0, nA4, $88, $CC, nE5, $C0, nBb4, $89
	dc.b $CC, nF5, $81, $9F, $C0, nD5, $81, $9E
	dc.b $C1, $DF, nA5
	gStop

.35_02	dc.b $C0
	gsPrio		$0C
	gsPatch		$50
	dc.b $82, $C6, nA3, $C3, nA3, nA3, $C6, nA3
	dc.b $C3, nA3, nA3, $C6, nA3, $C3, nA3, nA3
	dc.b $C6, nA3, $C3, nA3, nA3, $F0, nA3, $C6
	dc.b nA3, $C3, nA3, nA3, $C6, nA3, $C3, nA3
	dc.b nA3, $C6, nA3, $C3, nA3, nA3, $C6, nA3
	dc.b $C3, nA3, nA3, $F0, nA3, $83, $C6, nA3
	dc.b $84, $CC, nA3, $83, $C6, nBb3, $84, $CC
	dc.b nBb3, $83, $C6, nA3, $CC, nA3, $C6, nBb3
	dc.b $84, $CC, nBb3, $88, nD4, $87, nBb3, $83
	dc.b $C6, nA3, $CC, nA3, $C6, nBb3, $CC, nBb3
	dc.b $C6, nA3, $CC, nA3, $C6, nBb3, $84, $CC
	dc.b nBb3, $87, nG3, nBb3, $83, $C6, nA3, nA3
	dc.b nA3, $82, nBb3, $83, nBb3, nBb3, nA3, nA3
	dc.b nA3, nBb3, nBb3, nBb3, $88, $CC, nD4, nBb3
	dc.b $83, $C6, nA3, nA3, nBb3, nBb3, nB3, nB3
	dc.b nC4, nC4, nCs4, nD4, nEb4, nE4, nF4, nFs4
	dc.b nG4, nAb4, $82, nA3, $C3, nA3, nA3, $C6
	dc.b nA3, $C3, nA3, nA3, $C6, nA3, $C3, nA3
	dc.b nA3, $C6, nA3, $C3, nA3, nA3, $F0, nA3
	dc.b $C6, nA3, $C3, nA3, nA3, $C6, nA3, $C3
	dc.b nA3, nA3, $C6, nA3, $C3, nA3, nA3, $C6
	dc.b nA3, $C3, nA3, nA3, $F0, nA3, $87, $CC
	dc.b nA3, $88, nG3, nA3, nBb3, nA3, $89, nG3
	dc.b $88, nA3, nBb3, $84, $C6, nA3, $83, nG3
	dc.b nA3, nBb3, nA3, $82, nG3, $83, nA3, nBb3
	dc.b nA3, nG3, nA3, nBb3, nA3, nG3, nA3, nBb3
	dc.b $AA, $EA, nD4, $85, $C6, nD4, $AF, $EF
	dc.b nD3
	gStop

.35_03	dc.b $C0
	gsPrio		$11
	dc.b $F6
	gsPatch		$5F
	dc.b $82, $C3, nE5, nF5, nFs5, nG5, nAb5, nA5
	dc.b nBb5, nB5, nC6, nCs6, nD6, nEb6, nE6, $83
	dc.b nF6, nE6, nEb6, nE6, nEb6, nE6, nEb6, nE6
	dc.b nEb6, nE6, nEb6, nE6, nEb6, nE6, nEb6, nE6
	dc.b nEb6, $86, $C6, nE6, $82, $C3, nE5, nF5
	dc.b nFs5, nG5, nAb5, nA5, nBb5, nB5, nC6, nCs6
	dc.b nD6, nEb6, nE6, nF6, $8C, $C3, $C0, nE6
	dc.b $82, $C3, nF6, nE6, nEb6, nD6, nF6, nE6
	dc.b nEb6, nD6, nF6, nE6, nEb6, nD6, nF6, nE6
	dc.b nEb6, nD6, nF6, nE6, nEb6, nD6, nF6, nE6
	dc.b nEb6, nD6, nF6, nE6, nEb6, nD6, nF6, nE6
	dc.b nEb6, nD6, nEb6, nD6, nEb6, nE6, nEb6, nE6
	dc.b nEb6, nE6, nF6, nE6, nF6, nE6, nFs6, nF6
	dc.b nFs6, nF6, nA6, nAb6, nG6, nFs6, nF6, nE6
	dc.b nEb6, nD6, nCs6, nC6, nB5, nBb5, nA5, nAb5
	dc.b nG5, $F9, nFs5, $C3, nE5, nF5, nFs5, nG5
	dc.b nAb5, nA5, nBb5, nB5, nC6, nCs6, nD6, nEb6
	dc.b nE6, $83, nF6, nE6, nEb6, nE6, nEb6, nE6
	dc.b nEb6, nE6, nEb6, nE6, nEb6, nE6, nEb6, nE6
	dc.b nEb6, nE6, nEb6, $86, $C6, nE6, $82, $C3
	dc.b nE5, nF5, nFs5, nG5, nAb5, nA5, nBb5, nB5
	dc.b nC6, nCs6, nD6, nEb6, nE6, nF6, $8C, $C2
	dc.b $D0, nE6, $82, $C3, nBb4, nB4, nC5, nCs5
	dc.b $83, nD5, $82, nEb5, nE5, nF5, $81, nFs5
	dc.b $83, nG5, $82, nAb5, nA5, nBb5, nB5, nC6
	dc.b $81, nCs6, $81, $9D, $C1, $DD, nD6
	gStop

.35_04	dc.b $C0
	gsPrio		$0F
	dc.b $C8, $FA
	gsPatch		$5E
	dc.b $83, $C3, nE6, nG6, $81, $99, $C1, $DA
	dc.b nA6, $83, $C3, nE6, $82, nG6, $81, $9F
	dc.b $C1, $EC, nA6, $88, $CC, nD6, nE6, nF6
	dc.b $87, nE6, $88, nD6, $87, nE6, $88, nF6
	dc.b $83, $C6, nE6, nD6, nE6, nF6, nE6, nD6
	dc.b nE6, $82, nF6, $89, $CC, nA6, $8A, nF6
	dc.b nE6, $89, nC6, $81, $9D, $C1, $DD, nD6
	gStop

.35_05	dc.b $C0
	gsPrio		$10
	dc.b $F6
	gsPatch		$60
	dc.b $82, $C3, nG3, nAb3, nA3, nBb3, nB3, nC4
	dc.b nCs4, $83, nD4, $82, nEb4, nE4, nF4, nFs4
	dc.b $83, nG4, $82, nAb4, $A5, $F6, nA4, $82
	dc.b $C3, nG3, nAb3, nA3, nBb3, nB3, nC4, nCs4
	dc.b $83, nD4, $82, nEb4, nE4, nF4, nFs4, $83
	dc.b nG4, $82, nAb4, $8C, $C4, $E0, nA4, $83
	dc.b $C3, nF5, nE5, $82, nEb5, nD5, nF5, $83
	dc.b nE5, $82, nEb5, nD5, nF5, nE5, nEb5, nD5
	dc.b nF5, $83, nE5, nEb5, $82, nD5, nEb5, nD5
	dc.b nEb5, nE5, nF5, nFs5, $83, nG5, $82, nAb5
	dc.b nA5, nBb5, nB5, nC6, $85, nCs6, $83, nD6
	dc.b nEb6, $81, $F9, nE6, $82, $C3, nG3, nAb3
	dc.b nA3, nBb3, nB3, nC4, nCs4, $83, nD4, $82
	dc.b nEb4, nE4, nF4, nFs4, $83, nG4, $82, nAb4
	dc.b $A5, $F6, nA4, $82, $C3, nG3, nAb3, nA3
	dc.b nBb3, nB3, nC4, nCs4, $83, nD4, $82, nEb4
	dc.b nE4, nF4, nFs4, $83, nG4, $82, nAb4, $8C
	dc.b $C2, $E8, nA4, $82, $C3, nBb4, nB4, nC5
	dc.b nCs5, $83, nD5, $82, nEb5, nE5, nF5, $81
	dc.b $9D, $C1, $DD, nD6
	gStop

.35_06	dc.b $C0
	gsPrio		$05
	dc.b $C3, $C0
	gsPatch		$46
	dc.b $83, $C6, nA5, $84, $CC, nA5, $83, $C6
	dc.b nBb5, $CC, nBb5, $C6, nA5, $84, $CC, nA5
	dc.b $83, $C6, nBb5, $CC, nBb5, $88, nD6, $87
	dc.b nBb5, $83, $C6, nA5, $84, $CC, nA5, $82
	dc.b $C6, nBb5, $83, $CC, nBb5, $C6, nA5, $CC
	dc.b nA5, $C6, nBb5, $CC, nBb5, $86, nG5, $87
	dc.b nBb5, $82, $C6, nA5, $83, $CC, nA5, $82
	dc.b $C6, nBb5, $83, $CC, nBb5, $C6, nA5, $CC
	dc.b nA5, $82, $C6, nBb5, $83, $CC, nBb5, $87
	dc.b nD6, $C4, $EC, nBb5, $88, $CC, nA5, nG5
	dc.b nA5, nBb5, nA5, nG5, nA5, $87, nBb5, $84
	dc.b $C6, nA5, $83, nG5, $84, nA5, $83, nBb5
	dc.b nA5, nG5, $84, nA5, $83, $F6, nBb5, $81
	dc.b $9D, $C1, $DD, nD6
	gStop

.36_00	dc.b $C0
	gsPrio		$0F
	gsTempo		86
	gsPatch		$50
	dc.b $82, $C6, nBb2, $C3, nBb2, nBb2, $C6, nBb2
	dc.b $C3, nBb2, nBb2, $C6, nBb2, $C3, nBb2, nBb2
	dc.b $C6, nBb2, $C3, nBb2, nBb2, $C6, nBb2, $C3
	dc.b nBb2, nBb2, $C6, nBb2, $C3, nBb2, nBb2, $C6
	dc.b nBb2, $C3, nBb2, nBb2, $83, $C6, nCs3, $84
	dc.b nB2, $82, nBb2, $C3, nBb2, nBb2, $C6, nBb2
	dc.b $C3, nBb2, nBb2, $C6, nBb2, $C3, nBb2, nBb2
	dc.b $C6, nBb2, $C3, nBb2, nBb2, $C6, nBb2, $C3
	dc.b nBb2, nBb2, $C6, nBb2, $C3, nBb2, nBb2, $C6
	dc.b nBb2, $C3, nBb2, nBb2, $83, $C6, nCs3, $84
	dc.b nB2, $83, nBb2, $84, $CC, nBb2, $83, $C6
	dc.b nB2, $84, $CC, nB2, $83, $C6, nBb2, $CC
	dc.b nBb2, $C6, nB2, $CC, nB2, $87, nEb3, nB2
	dc.b $83, $C6, nBb2, $CC, nBb2, $C6, nB2, $CC
	dc.b nB2, $C6, nBb2, $84, $CC, nBb2, $83, $C6
	dc.b nB2, $84, $CC, nB2, $88, nAb2, $87, nB2
	dc.b $83, $C6, nBb2, nBb2, nBb2, nB2, nB2, nB2
	dc.b nBb2, nBb2, nBb2, nB2, nB2, nB2, $88, $CC
	dc.b nEb3, nB2, $83, $C6, nBb2, nBb2, nB2, nB2
	dc.b nC3, nC3, nCs3, nCs3, nD3, nEb3, $82, nE3
	dc.b $83, nF3, nFs3, nG3, nAb3, nA3, $82, nBb2
	dc.b $C3, nBb2, nBb2, $C6, nBb2, $C3, nBb2, nBb2
	dc.b $C6, nBb2, $C3, nBb2, nBb2, $C6, nBb2, $C3
	dc.b nBb2, nBb2, $C6, nBb2, $C3, nBb2, nBb2, $C6
	dc.b nBb2, $C3, nBb2, nBb2, $C6, nBb2, $C3, nBb2
	dc.b nBb2, $83, $C6, nCs3, $84, nB2, $82, nBb2
	dc.b $C3, nBb2, nBb2, $C6, nBb2, $C3, nBb2, nBb2
	dc.b $C6, nBb2, $C3, nBb2, nBb2, $C6, nBb2, $C3
	dc.b nBb2, nBb2, $C6, nBb2, $C3, nBb2, nBb2, $C6
	dc.b nBb2, $C3, nBb2, nBb2, $C6, nBb2, $C3, nBb2
	dc.b nBb2, $83, $C6, nCs3, $84, nB2, $87, $CC
	dc.b nBb2, $88, nAb2, nBb2, nB2, nBb2, $89, nAb2
	dc.b $88, nBb2, nB2, $84, $C6, nBb2, $83, nAb2
	dc.b nBb2, nB2, nBb2, $82, nAb2, $83, nBb2, nB2
	dc.b nBb2, nAb2, nBb2, nB2, nBb2, nAb2, nBb2, nB2
	dc.b $AA, $EA, nEb3, $85, $C6, nEb3, $AF, $F0
	dc.b nEb2, $C0
	gStartSeq	$32
	gStop

.36_01	dc.b $C0
	gsPrio		$19
	gsPatch		$51
	dc.b $82, nF5, $81, $C6, nBb4, $C0, nBb4, $C3
	dc.b nF5, $C0, nBb4, $C3, nF5, $8E, $C0, nF5
	dc.b $D2, nBb4, $82, $C0, nBb4, $C6, nF5, $C0
	dc.b nBb4, $81, $C6, nF5, $82, $C0, nBb4, $C6
	dc.b nF5, $AC, $C0, nB4, $AB, $F0, nFs5, $82
	dc.b $C0, nBb4, $C6, nF5, $81, $C0, nBb4, $C3
	dc.b nF5, $C0, nBb4, $C3, nF5, $8E, $C0, nBb4
	dc.b $8F, $D2, nF5, $82, $C0, nBb4, $C6, nF5
	dc.b $C0, nBb4, $C6, nF5, $C0, nBb4, $C6, nF5
	dc.b $AE, $C0, nFs5, $F0, nB4, $82, $C0, nBb4
	dc.b $83, $C6, nF5, $C0, nBb4, $C6, nF5, $84
	dc.b $C0, nBb3, $C6, nBb2, $82, $C0, nB4, $83
	dc.b $C6, nFs5, $C0, nB4, $C6, nFs5, $84, $C0
	dc.b nB3, $C6, nB2, $83, $C0, nBb4, $C6, nF5
	dc.b $C0, nBb4, $84, $C6, nF5, $C0, nBb3, $C6
	dc.b nBb2, $83, $C0, nB4, $C6, nFs5, $C0, nB4
	dc.b $C6, nFs5, $C0, nB2, $C6, nB3, $87, $C0
	dc.b nBb5, $CC, nEb5, $C0, nB4, $CC, nFs5, $83
	dc.b $C0, nF5, $82, $C6, nBb4, $84, $C0, nF5
	dc.b $C6, nBb4, $83, $C0, nBb3, $C6, nBb2, $C0
	dc.b nB4, $C6, nFs5, $C0, nB4, $C6, nFs5, $C0
	dc.b nB3, $84, $C6, nB2, $83, $C0, nF5, $C6
	dc.b nBb4, $C0, nBb4, $84, $C6, nF5, $C0, nBb3
	dc.b $C6, nBb2, $83, $C0, nB4, $C6, nFs5, $C0
	dc.b nB4, $C6, nFs5, $84, $C0, nB2, $C6, nB3
	dc.b $87, $C0, nAb4, $CC, nEb5, $C0, nB4, $CC
	dc.b nFs5, $82, $C0, nBb4, $83, $C6, nF5, $C0
	dc.b nBb4, $C6, nF5, $84, $C0, nBb3, $C6, nBb2
	dc.b $83, $C0, nFs5, $C6, nB4, $C0, nFs5, $C6
	dc.b nB4, $C0, nB3, $C6, nB2, $82, $C0, nBb4
	dc.b $C6, nF5, $83, $C0, nBb4, $84, $C6, nF5
	dc.b $C0, nBb3, $83, $C6, nBb2, $82, $C0, nB4
	dc.b $C6, nFs5, $84, $C0, nB4, $83, $C6, nFs5
	dc.b $84, $C0, nB2, $83, $C6, nB3, $87, $C0
	dc.b nBb5, $CC, nEb5, $C0, nB4, $CC, nFs5, $82
	dc.b $C0, nF5, $C6, nBb4, $83, $C0, nF5, $C6
	dc.b nBb4, $82, $C0, nB4, $83, $C6, nFs5, $82
	dc.b $C0, nFs5, $83, $C6, nB4, $C0, nG5, $82
	dc.b $C6, nC5, $C0, nG5, $83, $C6, nC5, $82
	dc.b $C0, nAb5, $83, $C6, nCs5, $82, $C0, nAb5
	dc.b $83, $C6, nCs5, $82, $C0, nA5, $83, $C6
	dc.b nD5, $C0, nBb5, $C6, nEb5, $82, $C0, nB5
	dc.b $83, $C6, nE5, $C0, nC6, $C6, nF5, $C0
	dc.b nCs6, $C6, nFs5, $C0, nD6, $82, $C6, nG5
	dc.b $83, $C0, nEb6, $84, $C6, nAb5, $83, $C0
	dc.b nE6, $82, $C6, nA5, $C0, nF5, $81, $C6
	dc.b nBb4, $C0, nBb4, $C3, nF5, $C0, nBb4, $C3
	dc.b nF5, $8E, $C0, nF5, $D2, nBb4, $82, $C0
	dc.b nBb4, $C6, nF5, $C0, nBb4, $81, $C6, nF5
	dc.b $82, $C0, nBb4, $C6, nF5, $AC, $C0, nB4
	dc.b $AB, $F0, nFs5, $82, $C0, nBb4, $C6, nF5
	dc.b $81, $C0, nBb4, $C3, nF5, $C0, nBb4, $C3
	dc.b nF5, $8E, $C0, nBb4, $8F, $D2, nF5, $82
	dc.b $C0, nBb4, $C6, nF5, $C0, nBb4, $C6, nF5
	dc.b $C0, nBb4, $C6, nF5, $AE, $C0, nFs5, $F0
	dc.b nB4, $87, $C0, nBb4, $CC, nF5, $88, $C0
	dc.b nAb4, $CC, nEb5, $C0, nF5, $CC, nBb4, $89
	dc.b $C0, nB4, $CC, nFs5, $C0, nF5, $CC, nBb4
	dc.b $88, $C0, nAb4, $CC, nEb5, $C0, nBb4, $89
	dc.b $CC, nF5, $88, $C0, nFs5, $CC, nB4, $83
	dc.b $C0, nBb4, $C6, nF5, $82, $C0, nAb4, $C6
	dc.b nEb5, $83, $C0, nBb4, $84, $C6, nF5, $83
	dc.b $C0, nB4, $C6, nFs5, $C0, nBb4, $C6, nF5
	dc.b $C0, nEb5, $82, $C6, nAb4, $83, $C0, nBb4
	dc.b $C6, nF5, $C0, nB4, $C6, nFs5, $88, $C0
	dc.b nF5, $CC, nBb4, $C0, nEb5, $CC, nAb4, $87
	dc.b $C0, nBb4, $88, $CC, nF5, $C0, nB4, $89
	dc.b $CC, nFs5, $81, $9F, $C0, nEb5, $81, $9E
	dc.b $C1, $DF, nBb5
	gStop

.36_02	dc.b $C0
	gsPrio		$0C
	gsPatch		$50
	dc.b $82, $C6, nBb3, $C3, nBb3, nBb3, $C6, nBb3
	dc.b $C3, nBb3, nBb3, $C6, nBb3, $C3, nBb3, nBb3
	dc.b $C6, nBb3, $C3, nBb3, nBb3, $F0, nBb3, $C6
	dc.b nBb3, $C3, nBb3, nBb3, $C6, nBb3, $C3, nBb3
	dc.b nBb3, $C6, nBb3, $C3, nBb3, nBb3, $C6, nBb3
	dc.b $C3, nBb3, nBb3, $F0, nBb3, $83, $C6, nBb3
	dc.b $84, $CC, nBb3, $83, $C6, nB3, $84, $CC
	dc.b nB3, $83, $C6, nBb3, $CC, nBb3, $C6, nB3
	dc.b $84, $CC, nB3, $88, nEb4, $87, nB3, $83
	dc.b $C6, nBb3, $CC, nBb3, $C6, nB3, $CC, nB3
	dc.b $C6, nBb3, $CC, nBb3, $C6, nB3, $84, $CC
	dc.b nB3, $87, nAb3, nB3, $83, $C6, nBb3, nBb3
	dc.b nBb3, $82, nB3, $83, nB3, nB3, nBb3, nBb3
	dc.b nBb3, nB3, nB3, nB3, $88, $CC, nEb4, nB3
	dc.b $83, $C6, nBb3, nBb3, nB3, nB3, nC4, nC4
	dc.b nCs4, nCs4, nD4, nEb4, nE4, nF4, nFs4, nG4
	dc.b nAb4, nA4, $82, nBb3, $C3, nBb3, nBb3, $C6
	dc.b nBb3, $C3, nBb3, nBb3, $C6, nBb3, $C3, nBb3
	dc.b nBb3, $C6, nBb3, $C3, nBb3, nBb3, $F0, nBb3
	dc.b $C6, nBb3, $C3, nBb3, nBb3, $C6, nBb3, $C3
	dc.b nBb3, nBb3, $C6, nBb3, $C3, nBb3, nBb3, $C6
	dc.b nBb3, $C3, nBb3, nBb3, $F0, nBb3, $87, $CC
	dc.b nBb3, $88, nAb3, nBb3, nB3, nBb3, $89, nAb3
	dc.b $88, nBb3, nB3, $84, $C6, nBb3, $83, nAb3
	dc.b nBb3, nB3, nBb3, $82, nAb3, $83, nBb3, nB3
	dc.b nBb3, nAb3, nBb3, nB3, nBb3, nAb3, nBb3, nB3
	dc.b $AA, $EA, nEb4, $85, $C6, nEb4, $AF, $EF
	dc.b nEb3
	gStop

.36_03	dc.b $C0
	gsPrio		$11
	dc.b $F6
	gsPatch		$5F
	dc.b $82, $C3, nF5, nFs5, nG5, nAb5, nA5, nBb5
	dc.b nB5, nC6, nCs6, nD6, nEb6, nE6, nF6, $83
	dc.b nFs6, nF6, nE6, nF6, nE6, nF6, nE6, nF6
	dc.b nE6, nF6, nE6, nF6, nE6, nF6, nE6, nF6
	dc.b nE6, $86, $C6, nF6, $82, $C3, nF5, nFs5
	dc.b nG5, nAb5, nA5, nBb5, nB5, nC6, nCs6, nD6
	dc.b nEb6, nE6, nF6, nFs6, $8C, $C3, $C0, nF6
	dc.b $82, $C3, nFs6, nF6, nE6, nEb6, nFs6, nF6
	dc.b nE6, nEb6, nFs6, nF6, nE6, nEb6, nFs6, nF6
	dc.b nE6, nEb6, nFs6, nF6, nE6, nEb6, nFs6, nF6
	dc.b nE6, nEb6, nFs6, nF6, nE6, nEb6, nFs6, nF6
	dc.b nE6, nEb6, nE6, nEb6, nE6, nF6, nE6, nF6
	dc.b nE6, nF6, nFs6, nF6, nFs6, nF6, nG6, nFs6
	dc.b nG6, nFs6, nBb6, nA6, nAb6, nG6, nFs6, nF6
	dc.b nE6, nEb6, nD6, nCs6, nC6, nB5, nBb5, nA5
	dc.b nAb5, $F9, nG5, $C3, nF5, nFs5, nG5, nAb5
	dc.b nA5, nBb5, nB5, nC6, nCs6, nD6, nEb6, nE6
	dc.b nF6, $83, nFs6, nF6, nE6, nF6, nE6, nF6
	dc.b nE6, nF6, nE6, nF6, nE6, nF6, nE6, nF6
	dc.b nE6, nF6, nE6, $86, $C6, nF6, $82, $C3
	dc.b nF5, nFs5, nG5, nAb5, nA5, nBb5, nB5, nC6
	dc.b nCs6, nD6, nEb6, nE6, nF6, nFs6, $8C, $C2
	dc.b $D0, nF6, $82, $C3, nB4, nC5, nCs5, nD5
	dc.b $83, nEb5, $82, nE5, nF5, nFs5, $81, nG5
	dc.b $83, nAb5, $82, nA5, nBb5, nB5, nC6, nCs6
	dc.b $81, nD6, $81, $9D, $C1, $DD, nEb6
	gStop

.36_04	dc.b $C0
	gsPrio		$0F
	dc.b $C8, $FA
	gsPatch		$5E
	dc.b $83, $C3, nF6, nAb6, $81, $99, $C1, $DA
	dc.b nBb6, $83, $C3, nF6, $82, nAb6, $81, $9F
	dc.b $C1, $EC, nBb6, $88, $CC, nEb6, nF6, nFs6
	dc.b $87, nF6, $88, nEb6, $87, nF6, $88, nFs6
	dc.b $83, $C6, nF6, nEb6, nF6, nFs6, nF6, nEb6
	dc.b nF6, $82, nFs6, $89, $CC, nBb6, $8A, nFs6
	dc.b nF6, $89, nCs6, $81, $9D, $C1, $DD, nEb6
	gStop

.36_05	dc.b $C0
	gsPrio		$10
	dc.b $F6
	gsPatch		$60
	dc.b $82, $C3, nAb3, nA3, nBb3, nB3, nC4, nCs4
	dc.b nD4, $83, nEb4, $82, nE4, nF4, nFs4, nG4
	dc.b $83, nAb4, $82, nA4, $A5, $F6, nBb4, $82
	dc.b $C3, nAb3, nA3, nBb3, nB3, nC4, nCs4, nD4
	dc.b $83, nEb4, $82, nE4, nF4, nFs4, nG4, $83
	dc.b nAb4, $82, nA4, $8C, $C4, $E0, nBb4, $83
	dc.b $C3, nFs5, nF5, $82, nE5, nEb5, nFs5, $83
	dc.b nF5, $82, nE5, nEb5, nFs5, nF5, nE5, nEb5
	dc.b nFs5, $83, nF5, nE5, $82, nEb5, nE5, nEb5
	dc.b nE5, nF5, nFs5, nG5, $83, nAb5, $82, nA5
	dc.b nBb5, nB5, nC6, nCs6, $85, nD6, $83, nEb6
	dc.b nE6, $81, $F9, nF6, $82, $C3, nAb3, nA3
	dc.b nBb3, nB3, nC4, nCs4, nD4, $83, nEb4, $82
	dc.b nE4, nF4, nFs4, nG4, $83, nAb4, $82, nA4
	dc.b $A5, $F6, nBb4, $82, $C3, nAb3, nA3, nBb3
	dc.b nB3, nC4, nCs4, nD4, $83, nEb4, $82, nE4
	dc.b nF4, nFs4, nG4, $83, nAb4, $82, nA4, $8C
	dc.b $C2, $E8, nBb4, $82, $C3, nB4, nC5, nCs5
	dc.b nD5, $83, nEb5, $82, nE5, nF5, nFs5, $81
	dc.b $9D, $C1, $DD, nEb6
	gStop

.36_06	dc.b $C0
	gsPrio		$05
	dc.b $C3, $C0
	gsPatch		$46
	dc.b $83, $C6, nBb5, $84, $CC, nBb5, $83, $C6
	dc.b nB5, $CC, nB5, $C6, nBb5, $84, $CC, nBb5
	dc.b $83, $C6, nB5, $CC, nB5, $88, nEb6, $87
	dc.b nB5, $83, $C6, nBb5, $84, $CC, nBb5, $82
	dc.b $C6, nB5, $83, $CC, nB5, $C6, nBb5, $CC
	dc.b nBb5, $C6, nB5, $CC, nB5, $86, nAb5, $87
	dc.b nB5, $82, $C6, nBb5, $83, $CC, nBb5, $82
	dc.b $C6, nB5, $83, $CC, nB5, $C6, nBb5, $CC
	dc.b nBb5, $82, $C6, nB5, $83, $CC, nB5, $87
	dc.b nEb6, $C4, $EC, nB5, $88, $CC, nBb5, nAb5
	dc.b nBb5, nB5, nBb5, nAb5, nBb5, $87, nB5, $84
	dc.b $C6, nBb5, $83, nAb5, $84, nBb5, $83, nB5
	dc.b nBb5, nAb5, $84, nBb5, $83, $F6, nB5, $81
	dc.b $9D, $C1, $DD, nEb6
	gStop

.37_00	dc.b $C0
	gsPrio		$78
	gSFX
	gsPatch		$00
	dc.b $98, $D8, nA4
	gStop

.37_01	dc.b $C0
	gsPrio		$78
	gSFX
	gsPatch		$61
	dc.b $97, $D7, nB2
	gStop

.38_00	dc.b $C0
	gsVolume	$05
	gsPrio		$64
	gSFX
	gsPatch		$63
	dc.b $8A, $CA, nFs4
	gStop

.39_00	dc.b $C0
	gsPrio		$73
	gSFX
	gsPatch		$00
	dc.b $B0, $F0, nBb4
	gStop

.3A_00	dc.b $C0
	gsPrio		$7E
	gSFX
	gsPatch		$00
	dc.b $98, $D4, nB4, $D8, nB4
	gStop

.3B_00	dc.b $C0
	gsPrio		$78
	gSFX
	gsPatch		$00
	dc.b $98, $D8, nCs6
	gStop

.3C_00	dc.b $C0
	gsVolume	$09
	gsPrio		$73
	gSFX
	gsPatch		$64
	dc.b $98, $D8, nB3
	gStop

.3D_00	dc.b $C0
	gsPrio		$78
	gSFX
	gsPatch		$00
	dc.b $98, $D8, nD5
	gStop

.3E_00	dc.b $C0
	gsPrio		$73
	gSFX
	gsPatch		$00
	dc.b $98, $D8, nF5
	gStop

.3F_00	dc.b $C0
	gsPrio		$78
	gSFX
	gsPatch		$00
	dc.b $98, $D8, nEb5
	gStop

.40_00	dc.b $C0
	gsPrio		$78
	gSFX
	gsPatch		$00
	dc.b $98, $D8, nG5
	gStop

.41_00	dc.b $C0
	gsPrio		$78
	gSFX
	gsPatch		$00
	dc.b $98, $D8, nA5
	gStop

.42_00	dc.b $C0
	gsPrio		$78
	gSFX
	gsPatch		$00
	gsSampleRate	$06
	dc.b $91, $D1, nA5
	gStop

.43_00	dc.b $C0
	gsPrio		$6E
	gSFX
	gsPatch		$65
	dc.b $81, $B8, $C1, $F8, nB3
	gStop

.44_00	dc.b $C0
	gsPrio		$78
	gSFX
	gsPatch		$00
	gsSampleRate	$06
	dc.b $98, $D8, nG5
	gStop

.45_00	dc.b $C0
	gsPrio		$7E
	gSFX
	gsPatch		$66
	dc.b $9A, $DA, nAb4
	gStop

.46_00	dc.b $C0
	gsPrio		$7A
	gSFX
	gsPatch		$00
	gsSampleRate	$06
	dc.b $98, $D8, nEb5
	gStop

.47_00	dc.b $C0
	gsPrio		$7A
	gSFX
	gsPatch		$00
	gsSampleRate	$05
	dc.b $98, $D8, nEb5
	gStop

.48_00	dc.b $C0
	gsPrio		$7F
	gSFX
	gsPatch		$00
	dc.b $98, $D8, nB5
	gStop

.48_01	dc.b $C0
	gsPrio		$7E
	gSFX
	dc.b $D0
	gsPatch		$76
	dc.b $98, $D8, nE4
	gStop

.49_00	dc.b $C0
	gsPrio		$19
	gsTempo		120
	dc.b $F0
	gsPatch		$59
	dc.b $8C, $C0, nA4, $8B, $CC, nE4, $86, $C0
	dc.b nA4, $C6, nE4, $C0, nE4, $C6, nA4, $81
	dc.b $88, $C0, nA4, $C6, $FC, nE5, $98, $C0
	dc.b nA4, $D8, nE4, $B0, $C0, nE5, $F0, nA4
	dc.b $8C, $C0, nA4, $CC, nE4, $98, $C0, nB4
	dc.b $D8, nE4, $8C, $C0, nA4, $CC, nE4, $81
	dc.b $88, $C0, nE5, $C1, $C8, nA4, $98, $C0
	dc.b nA4, $CC, nE4, $84, $C8, nA5, $C4, nE6
	dc.b $94, $C0, nE6, $B0, nE5, $D4, nA4, $84
	dc.b $C4, nE6, $D8, nE6, $8C, $C0, nA4, $CC
	dc.b nE4, $98, $C0, nB4, $D8, nE4, $8C, $C0
	dc.b nC5, $CC, nE4, $81, $94, $C0, nA4, $C1
	dc.b $D4, nE4, $86, $CC, nA3, $C6, nE4, nE4
	dc.b $CC, nA3, $C6, nE4, nE4, $CC, nA3, $8C
	dc.b nE4, nF4, $86, nE4, nE3, $C6, nB3, nB3
	dc.b $CC, nE3, $C6, nB3, nB3, $CC, nE3, $8C
	dc.b nB3, nC4, $86, nB3, nA3, $C6, nE4, nE4
	dc.b $CC, nA3, $C6, nE4, nE4, $CC, nA3, $8C
	dc.b nE4, nF4, $8A, nE4, $81, $88, nD4, $86
	dc.b $C6, nD5, nD5, $B0, $FC, nA5, $86, $CC
	dc.b nC4, nB3, $C6, nFs4, nFs4, $CC, nB3, nFs4
	dc.b nB3, $C6, nFs4, nFs4, $D3, nB3, $85, $C5
	dc.b nB3, $87, $C7, nE4, $88, $CC, nE4, $85
	dc.b $C5, nE4, $87, $CC, nFs4, nG4, $D8, nAb4
	dc.b $8C, $CC, nE4, nE4, $91, $D3, nE5, $88
	dc.b $CC, nD5, $85, $C5, nE5, $86, $CC, nD5
	dc.b $91, $D3, nC5, $88, $CC, nB4, $85, $C5
	dc.b nC5, $8B, $CC, nB4, $93, $D3, nA4, $B0
	dc.b $F5, nE4, $89, $CC, nEb4, nE4, $91, $D3
	dc.b nA4, $88, $CC, nG4, $85, $C5, nA4, $86
	dc.b $CC, nG4, $91, $D3, nF4, $88, $CC, nE4
	dc.b $85, $C5, nF4, $8B, $CC, nE4, $81, $88
	dc.b $C1, $D4, nD4, $8C, $CC, nF4, $87, $C7
	dc.b nF4, $8C, $CC, nF4, nE4, $85, $C5, nF4
	dc.b $8C, $CC, nE4, $98, $E4, nC4, $8C, $CC
	dc.b nA4, $87, $C7, nA4, $8C, $CC, nA4, nG4
	dc.b $85, $C5, nA4, $8C, $CC, nG4, $98, $E4
	dc.b nF4, $8C, $CC, nC5, $87, $C7, nC5, $8C
	dc.b $CC, nC5, nB4, $85, $C5, nC5, $87, $C7
	dc.b nB4, $8C, $CC, nC5, $85, $C5, nB4, $8C
	dc.b $CC, nC5, nBb4, nB4, $BC, $C1, $C8, nE5
	dc.b $8C, $CC, nE4, nE4, $93, $D3, nE5, $8C
	dc.b $CC, nD5, $85, $C5, nE5, $8C, $CC, nD5
	dc.b $93, $D3, nC5, $8C, $CC, nB4, $85, $C5
	dc.b nC5, $8C, $CC, nB4, $93, $D3, nA4, $B5
	dc.b $F5, nE4, $8C, $CC, nEb4, nE4, $93, $D3
	dc.b nA4, $8C, $CC, nG4, $85, $C5, nA4, $8C
	dc.b $CC, nG4, $93, $D3, nF4, $8C, $CC, nE4
	dc.b $85, $C5, nF4, $8C, $CC, nE4, $81, $88
	dc.b $C1, $D6, nD4, $87, $CA, nF4, $8A, $CC
	dc.b nF4, $87, $C7, nF4, $8C, $CC, nE4, $85
	dc.b $C5, nF4, $8C, $CC, nE4, $93, $E5, nC4
	dc.b $88, $CB, nA4, $8A, $CC, nA4, $87, $C7
	dc.b nA4, $8C, $CC, nG4, $85, $C5, nA4, $8C
	dc.b $CC, nG4, $93, $E4, nF4, $8A, $CC, nC5
	dc.b $86, nC5, $87, $C7, nC5, $CC, nB4, $85
	dc.b $C5, nC5, $86, $CC, nB4, $87, nE5, $8C
	dc.b nE4, $88, nC5, $8C, nAb4, $BC, $C7, $C8
	dc.b nA4, $8C, $CC, nAb4, nA4, $93, $D3, nB4
	dc.b $91, $D1, nA4, $8C, $CC, nAb4, $93, $D3
	dc.b nA4, $91, $D1, nB4, $8C, $CC, nC5, $8D
	dc.b $CD, nA4, $82, $C2, nG4, $81, $C1, nFs4
	dc.b $82, $C3, nF4, $B5, $C1, $C1, nE4, $8C
	dc.b $CC, nA4, nA4, $87, $C7, nF4, $85, $C5
	dc.b nF4, $8C, $CC, nF4, nA4, $87, $C7, nF4
	dc.b $85, $C5, nF4, $8C, $CC, nF4, nA4, $87
	dc.b $C7, nA4, $8C, $CC, nB4, nB4, $85, $C5
	dc.b nB4, $8C, $CC, nBb4, nB4, nE5
	gStop

.49_01	dc.b $C0
	gsPrio		$05
	gsVolume	$07
	dc.b $ED, $D8
	gsPatch		$4C
	dc.b $88, $CC, nC5, $8C, nAb4, $BC, $C1, $C8
	dc.b nA4, $8C, $CC, nAb4, nA4, $93, $D3, nB4
	dc.b $91, $D1, nA4, $8C, $CC, nAb4, $93, $D3
	dc.b nA4, $91, $D1, nB4, $8C, $CC, nC5, $8D
	dc.b $CD, nA4, $82, $C2, nG4, $81, $C1, nFs4
	dc.b $82, $C3, nF4, $A9, $F5, nE4, $8C, $CC
	dc.b nAb4, nA4, $93, $D3, nB4, $91, $D1, nA4
	dc.b $8C, $CC, nAb4, $93, $D3, nA4, $91, $D1
	dc.b nB4, $8C, $CC, nA4, $BC, $C4, $D4, nC5
	dc.b $8C, $CC, nA4, nA4, $87, $C7, nF4, $85
	dc.b $C5, nF4, $8C, $CC, nF4, nA4, $87, $C7
	dc.b nF4, $85, $C5, nF4, $8C, $CC, nF4, nA4
	dc.b $87, $C7, nA4, $8C, $CC, nB4, nB4, $85
	dc.b $C5, nB4, $8C, $CC, nBb4, nB4, nE5
	gStop

.49_02	dc.b $C0
	gsPrio		$0F
	dc.b $F0
	gsPatch		$5E
	dc.b $8C, $C0, nE4, $CC, nA4, $86, $C0, nE4
	dc.b $C6, nA4, $C0, nA4, $C6, nE4, $81, $88
	dc.b $C0, nE5, $C1, $C8, nA4, $87, $CC, nA4
	dc.b $85, $C6, nE4, nE4, $87, $CC, nA4, $85
	dc.b $C6, nE4, nE4, $87, $CC, nA4, nE4, $8C
	dc.b nF4, $88, nE4, $87, nA4, $85, $C6, nE4
	dc.b nE4, $87, $CC, nA4, $85, $C6, nE4, nE4
	dc.b $87, $CC, nA4, nE4, $8C, nF4, $88, nE4
	dc.b $87, nA4, $85, $C6, nE4, nE4, $87, $CC
	dc.b nA4, $85, $C6, nE4, nE4, $87, $CC, nA4
	dc.b nE4, $8C, nF4, $88, nE4, $87, nA4, $85
	dc.b $C6, nE4, nE4, $87, $CC, nA4, $85, $C6
	dc.b nE4, nE4, $87, $CC, nA4, nE4, $8C, nF4
	dc.b $88, nE4, $87, nA4, $85, $C6, nE4, nE4
	dc.b $87, $CC, nA4, $85, $C6, nE4, nE4, $87
	dc.b $CC, nA4, nE4, $8C, nF4, $88, nE4, $87
	dc.b nA4, $85, $C6, nE4, nE4, $87, $CC, nA4
	dc.b $85, $C6, nE4, nE4, $87, $CC, nA4, nE4
	dc.b $8C, nF4, $88, nE4, $87, nA4, $85, $C6
	dc.b nE4, nE4, $87, $CC, nA4, $85, $C6, nE4
	dc.b nE4, $87, $CC, nA4, nE4, $8C, nF4, $88
	dc.b nE4, $87, nA4, $85, $C6, nE4, nE4, $87
	dc.b $CC, nA4, $85, $C6, nE4, nE4, $87, $CC
	dc.b nA4, nE4, $8C, nF4, $88, $C5, $D0, nE4
	dc.b $86, $C0, nA5, $C6, nD5, $C0, nA5, $C6
	dc.b nD5, $8C, $C0, nD6, $CC, nF5, $86, $C0
	dc.b nA5, $C6, nD5, $C0, nA5, $C6, nD5, $C0
	dc.b nD6, $E4, nF5, $84, $C6, nFs4, nFs4, $B6
	dc.b $CC, nB3, $86, $C6, nFs5, nFs5, $9E, $C8
	dc.b $D0, nB4, $93, $D3, nF4, $9D, $DD, nE4
	dc.b $84, $C4, nC4, nD4, nEb4, nE4, nFs4, nAb4
	dc.b $D8, nA4, $93, $D3, nA4, $9D, $DD, nG4
	dc.b $84, $C4, nA4, nBb4, nB4, nC5, nD5, nE5
	dc.b $D8, nF5, $98, nEb5, nB4, nA4, $8C, $E4
	dc.b nFs4, $87, $C0, nE5, nAb5, $CC, nB4, $C0
	dc.b nFs5, nA5, $CC, nD5, $C0, nBb5, nG5, $CC
	dc.b nD5, $C0, nE5, nB5, nD5, $C1, $E0, nAb5
	dc.b $93, $D3, nEb5, $8C, $CC, nD5, $85, $C5
	dc.b nEb5, $8C, $CC, nD5, $86, nC5, $C7, nA4
	dc.b $85, $C5, nC5, $86, $CC, nD5, $C7, nB4
	dc.b $85, $C5, nD5, $87, $CC, nE5, nC5, nA4
	dc.b nE4, $A4, $E4, nA4, $83, $C3, nC5, nEb5
	dc.b nE5, nAb5, $B0, $FC, nA5, $85, $C0, nA5
	dc.b $C6, nF5, $C0, nA5, $C6, nF5, $86, $C0
	dc.b nG5, nCs6, $CC, nE5, $C0, nG5, nCs6, $CC
	dc.b nE5, $87, $C0, nD6, $C7, nA5, $82, $C2
	dc.b nC6, $83, $C3, nBb5, nA5, nG5, nF5, nE5
	dc.b $87, $C3, $E4, nD5, $8A, $C0, nE4, $CC
	dc.b nB3, $C0, nAb4, $CC, nE4, $C0, nB4, $CC
	dc.b nAb4, $87, $C0, nE5, $D8, nB4, $8C, $CC
	dc.b nC5, nAb4, $BC, $C7, $E0, nA4, $B0, $C0
	dc.b nD5, nA4, $F0, nF5, $C0, nA4, nF4, $F0
	dc.b nD5, $98, $C0, nA4, nC5, $D8, nE4, $C0
	dc.b nE4, nB4, nD5, $D8, nAb4, $C0, nC5, nE5
	dc.b $F0, nA4, $8C, $C0, nEb5, $E4, nC5, $C0
	dc.b nEb5, $E4, nC5, $C0, nEb5, $CC, nC5, $87
	dc.b $C7, nA5, $85, $C5, nB5, $8C, $C0, nFs5
	dc.b $87, nA4, $8C, $C7, nEb5, $CC, nB5, $85
	dc.b $D1, nB5, $8C, $CC, nB5, $C0, nAb5, nD5
	dc.b nB5, $CC
	gStartSeq	$4A
	gStop

.49_03	dc.b $C0
	gsPrio		$14
	dc.b $F0
	gsPatch		$68
	dc.b $8C, $CC, nA2, $86, $C6, nA2, nA2, $81
	dc.b $88, $C1, $C8, nE3, $8C, $CC, nA3, $86
	dc.b $C6, nE3, nE3, $8C, $CC, nA3, $86, $C6
	dc.b nE3, nE3, $8C, $CC, nA3, nE3, nF3, nE3
	dc.b nA3, $86, $C6, nE3, nE3, $8C, $CC, nA3
	dc.b $86, $C6, nE3, nE3, $8C, $CC, nA3, nE3
	dc.b nF3, nE3, nA3, $86, $C6, nE3, nE3, $8C
	dc.b $CC, nA3, $86, $C6, nE3, nE3, $8C, $CC
	dc.b nA3, nE3, nF3, nE3, nA3, $86, $C6, nE3
	dc.b nE3, $8C, $CC, nA3, $86, $C6, nE3, nE3
	dc.b $8C, $CC, nA3, nE3, nF3, nE3, nA3, $86
	dc.b $C6, nE3, nE3, $8C, $CC, nA3, $86, $C6
	dc.b nE3, nE3, $8C, $CC, nA3, nE3, nF3, nE3
	dc.b nA3, $86, $C6, nE3, nE3, $8C, $CC, nA3
	dc.b $86, $C6, nE3, nE3, $8C, $CC, nA3, nE3
	dc.b nF3, nE3, nA3, $86, $C6, nE3, nE3, $8C
	dc.b $CC, nA3, $86, $C6, nE3, nE3, $8C, $CC
	dc.b nA3, nE3, nF3, nE3, nA3, $86, $C6, nE3
	dc.b nE3, $8C, $CC, nA3, $86, $C6, nE3, nE3
	dc.b $8C, $CC, nA3, nE3, nF3, nE3, $D8, nA3
	dc.b nA3, nA3, nA3, nE3, nE3, nE3, nE3, nA3
	dc.b nA3, nA3, nA3, nD3, nE3, nF3, nD3, $98
	dc.b nB2, nCs3, nEb3, nB2, $8C, $C1, $C8, nE3
	dc.b $87, $C7, nE3, $85, $C5, nF3, $87, $C7
	dc.b nFs3, $85, $C5, nAb3, $8C, $D8, nA3, nE3
	dc.b nF3, nE3, nA3, nB3, nC4, nA3, nA3, nA3
	dc.b nCs3, nCs3, nD3, nE3, nF3, nD3, nB3, nE3
	dc.b nA3, nE3, nC3, nC3, nF3, nF3, nB3, nFs3
	dc.b nEb3, $E4, nB2, $87, $CC, nE3, nFs3, nG3
	dc.b $D8, nAb3, $C7, nE3, $85, $C5, nF3, $87
	dc.b $C7, nFs3, $85, $C5, nAb3, $8C, $D8, nA3
	dc.b nE3, nF3, nE3, nA3, nB3, nC4, nA3, nA3
	dc.b nA3, nCs3, nCs3, nD3, nE3, nF3, nD3, nB3
	dc.b nE3, nA3, nE3, nC4, nC4, nF3, nF3, nB2
	dc.b nB2, $E4, nE3, $84, $C4, nE3, nFs3, nAb3
	dc.b $8C, $D8, nA3, nE3, nA3, $98, nC4, $8C
	dc.b nD3, nA3, nF3, nD3, $98, nA3, nB3, nC4
	dc.b $8C, $CC, nAb3, nA3, $D8, nD3, nA3, nF3
	dc.b nD3, $98, nC4, nB3, $B0, $F0, nA3, $8C
	dc.b $D8, nD3, nA3, nF3, nD3, nA3, nB3, nC4
	dc.b nA3, $E4, nF3, nF3, $D8, nF3, $F0, nB2
	dc.b $CC, nE3
	gStop

.49_04	dc.b $C0
	gsPrio		$0A
	dc.b $CE, $D0
	gsPatch		$67
	dc.b $86, $CC, nA4, $C0, nC5, nE5, $C6, nA4
	dc.b $C0, nC5, nE5, $C6, nA4, $CC, nA4, $C0
	dc.b nC5, nE5, $C6, nA4, $C0, nC5, nE5, $C6
	dc.b nA4, $CC, nA4, $8C, $C0, nC5, nE5, $CC
	dc.b nA4, nF5, $86, $C0, nC5, nE5, $CC, nA4
	dc.b nE4, $C0, nB4, $C6, nAb4, $C0, nB4, $C6
	dc.b nAb4, $CC, nE4, $C0, nB4, $C6, nAb4, $C0
	dc.b nB4, $C6, nAb4, $CC, nE4, $8C, $C0, nB4
	dc.b $CC, nAb4, nC5, $86, $C0, nB4, $CC, nAb4
	dc.b nA4, $C0, nC5, nE5, $C6, nA4, $C0, nC5
	dc.b nE5, $C6, nA4, $CC, nA4, $C0, nC5, nE5
	dc.b $C6, nA4, $C0, nC5, nE5, $C6, nA4, $CC
	dc.b nA4, $8C, $C0, nC5, nE5, $CC, nA4, nF5
	dc.b $8A, $C0, nC5, nE5, $CC, nA4, $86, nD5
	dc.b $84, $C0, nF4, nD5, $C6, nA4, $C0, nF4
	dc.b nD5, $C6, nA4, $CC, nE4, $C0, nCs5, $CC
	dc.b nE5, nF4, $C0, nD5, $C6, nF5, $C0, nD5
	dc.b $C6, nF5, $CC, nD4, $C0, nC5, $CC, nA4
	dc.b nB4, $C0, nEb5, nFs5, $C6, nB4, $C0, nEb5
	dc.b nFs5, $C6, nB4, $CC, nCs5, $C0, nEb5, nFs5
	dc.b $CC, nB4, nB4, $C0, nEb5, nFs5, $C6, nB4
	dc.b nFs5, $CC, nB4, $C0, nEb5, nFs5, $C7, nB4
	dc.b $C5, nB4, $C7, nE5, $CC, nE5, $C5, nE5
	dc.b $C0, nFs5, $CC, nFs6, $C0, nG5, $CC, nG6
	dc.b $C0, nAb5, $D8, nAb6, $CC, nE5, $C6, $CC
	dc.b nE5, $93, $D3, nF6, $9D, $DD, nE6, $84
	dc.b $C4, nC6, nD6, nEb6, nE6, nFs6, nAb6, $D8
	dc.b nA6, $93, $D3, nA6, $9D, $DD, nG6, $84
	dc.b $C4, nA6, nBb6, nB6, nC7, nD7, nE7, $CA
	dc.b $ED, nF7, $88, $CB, nA5, $8A, $CC, nA5
	dc.b $87, $C7, nA5, $8C, $CC, nG5, $85, $C5
	dc.b nA5, $8C, $CC, nG5, $93, $D3, nF5
	gStop

.49_05	dc.b $C0
	gsPrio		$0F
	dc.b $E2, $F8
	gsPatch		$50
	dc.b $8C, $CC, nE4, nE4, $93, $D3, nE5, $8C
	dc.b $CC, nD5, $85, $C5, nE5, $8C, $CC, nD5
	dc.b $93, $D3, nC5, $8C, $CC, nB4, $85, $C5
	dc.b nC5, $8C, $CC, nB4, $93, $D3, nA4, $B5
	dc.b $F5, nE4, $8C, $CC, nEb4, nE4, $93, $D3
	dc.b nA4, $8C, $CC, nG4, $85, $C5, nA4, $8C
	dc.b $CC, nG4, $93, $D3, nF4, $8C, $CC, nE4
	dc.b $85, $C5, nF4, $8C, $CC, nE4, $81, $88
	dc.b $C1, $C8, nD4
	gStop

.49_06	dc.b $C0
	gsPrio		$11
	dc.b $CC, $D8
	gsPatch		$5F
	dc.b $85, $C6, nA4, nB4, $84, nC5, nF5, $86
	dc.b nE5, $85, nEb5, $84, nC5, nB4, $86, nC5
	dc.b $85, nB4, $84, nA4, nAb4, $86, nA4, $85
	dc.b nAb4, $84, nF4, nE4, $86, nEb4, $85, nE4
	dc.b $84, nEb4, $C7, $FE, nE4, $87, $CC, nFs4
	dc.b nG4, $D2, nAb4, $82, $C2, nE4, nAb4, nB4
	dc.b $86, $D8, nE5, $B0, $F0, nE3, $98, $D8
	dc.b nEb3, nD3, nC3, nD3, $8C, nE3, $98, nC3
	dc.b $B0, $F0, nA2, nCs3, $8C, $CC, nD3, $86
	dc.b $C6, nD3, nD3, $CC, nE3, nE3, $8C, nF3
	dc.b $86, $C6, nF3, nF3, $98, $D8, nD3, $93
	dc.b $D3, nB2, $9D, $DD, nE3, $98, $D8, nC3
	dc.b nE3, $93, $D3, nC3, $9D, $DD, nCs3, $98
	dc.b $D8, nF3, nF3, nC4, $87, nB3, $98, nC4
	dc.b $87, $C7, $EC, nB3, $8C, $CC, nF4, $C1
	dc.b $C2, nF4, $82, $C2, nE4, nFs4, nAb4, $87
	dc.b $C1, $DA, nA4, $82, $C2, nG4, nA4, nB4
	dc.b $87, $C3, $D8, nC5, $B0, $C0, nF3, $F0
	dc.b nD3, $C0, nF3, $F0, nD3, $98, $C0, nC3
	dc.b $D8, nA2, $C0, nB2, nD3, $D8, nAb2, $C0
	dc.b nC3, nE3, $D8, nA2, $C0, nC3, nE3, $8C
	dc.b $CC, nAb3, nA3, $B0, $C0, nF3, nD3, $93
	dc.b $D2, nB3, $81, $C1, nA3, nA3, $82, $C2
	dc.b nC4, nE4, $87, $CC, nA4, $8C, nAb3, $B0
	dc.b $C0, nF3, nD3, $92, $D2, nA3, $81, $C1
	dc.b nA3, $91, nB3, $82, $C2, nC4, nE4, $87
	dc.b $CC, nA4, $8C, nA3, $98, $C0, nE3, nC3
	dc.b $B8, $CC, nC4, $87, nA4, $98, $C0, nAb3
	dc.b nE3, $CC, nD3, $87, nAb4, $B0, $C0, nE3
	dc.b $C6, nC3, $82, $C2, nA3, nC4, nE4, $87
	dc.b $E4, nA4
	gStop

.4A_00	dc.b $C0
	gsPrio		$19
	gsTempo		120
	dc.b $D8
	gsPatch		$59
	dc.b $8C, $CC, nE4, nF4, $93, $D3, nF5, $8C
	dc.b $CC, nEb5, $85, $C5, nF5, $8C, $CC, nEb5
	dc.b $93, $D3, nCs5, $8C, $CC, nC5, $85, $C5
	dc.b nCs5, $8C, $CC, nC5, $93, $D3, nBb4, $A9
	dc.b $F5, nF4, $8C, $CC, nE4, nF4, $93, $D3
	dc.b nBb4, $8C, $CC, nAb4, $85, $C5, nBb4, $8C
	dc.b $CC, nAb4, $93, $D3, nFs4, $8C, $CC, nF4
	dc.b $85, $C5, nFs4, $8C, $CC, nF4, $81, $88
	dc.b $C1, $D4, nEb4, $8C, $CC, nFs4, $87, $C7
	dc.b nFs4, $8C, $CC, nFs4, nF4, $85, $C5, nFs4
	dc.b $8C, $CC, nF4, $98, $E4, nCs4, $8C, $CC
	dc.b nBb4, nBb4, $87, $C7, nBb4, $8C, $CC, nAb4
	dc.b $85, $C5, nBb4, $8C, $CC, nAb4, $98, $E4
	dc.b nFs4, $8C, $CC, nCs5, $87, $C7, nCs5, $8C
	dc.b $CC, nCs5, nC5, $85, $C5, nCs5, $8C, $CC
	dc.b nC5, nF5, nF4, nCs5, nA4, $BC, $C1, $C8
	dc.b nBb4, $8C, $CC, nA4, nBb4, $93, $D3, nC5
	dc.b $91, $D1, nBb4, $8C, $CC, nA4, $93, $D3
	dc.b nBb4, $91, $D1, nC5, $8C, $CC, nCs5, $93
	dc.b $D3, nBb4, $A9, $F5, nF4, $8C, $CC, nA4
	dc.b nBb4, $93, $D3, nC5, $91, $D1, nBb4, $8C
	dc.b $CC, nA4, $93, $D3, nBb4, $91, $D1, nC5
	dc.b $8C, $CC, nBb4, $BC, $C1, $C8, nCs5, $8C
	dc.b $CC, nA4, nBb4, $93, $D3, nC5, $91, $D1
	dc.b nBb4, $8C, $CC, nA4, $93, $D3, nBb4, $91
	dc.b $D1, nC5, $8C, $CC, nCs5, $93, $D3, nBb4
	dc.b $9D, $DD, nF4, $8C, $CC, nCs5, $87, $C7
	dc.b nC5, $8C, $CC, nCs5, $85, $C5, nC5, $8C
	dc.b $CC, nBb4, nBb4, $87, $C7, nFs4, $85, $C5
	dc.b nFs4, $8C, $CC, nFs4, nBb4, $87, $C7, nFs4
	dc.b $85, $C5, nFs4, $8C, $CC, nFs4, nBb4, $87
	dc.b $C7, nBb4, $8C, $CC, nC5, nC5, $85, $C5
	dc.b nC5, $8C, $CC, nB4, nC5, $98, $D8, nCs5
	dc.b $8C, $CC, nBb4, nC5, $B0, $F0, nF5, $98
	dc.b $D8, nE4, nF4, $B0, $F0, nFs5, $98, $D8
	dc.b nF4, nFs4, $93, $D3, nFs5, $8C, $CC, nE5
	dc.b $85, $C5, nFs5, $8C, $CC, nE5, $93, $D3
	dc.b nD5, $8C, $CC, nCs5, $85, $C5, nD5, $8C
	dc.b $CC, nCs5, $93, $D3, nB4, $A9, $F5, nFs4
	dc.b $8C, $CC, nF4, nFs4, $93, $D3, nB4, $8C
	dc.b $CC, nA4, $85, $C5, nB4, $8C, $CC, nA4
	dc.b $93, $D3, nG4, $8C, $CC, nFs4, $85, $C5
	dc.b nG4, $8C, $CC, nFs4, $81, $88, $C1, $D4
	dc.b nE4, $8C, $CC, nG4, nG4, $86, $C7, nG4
	dc.b $8C, $CC, nFs4, $85, $C5, nG4, $8C, $CC
	dc.b nFs4, $A4, $E4, nD4, $8C, $CC, nB4, nB4
	dc.b $86, $C7, nB4, $8C, $CC, nA4, $85, $C5
	dc.b nB4, $8C, $CC, nA4, $98, $C3, $F0, nG4
	dc.b $8C, $CC, nB4, $87, $C7, nB4, $8C, $CC
	dc.b nB4, $85, $C5, nCs5, $8C, $CC, nD5, nB4
	dc.b $87, $C7, nB4, $8C, $CC, nB4, $85, $C5
	dc.b nCs5, $8C, $CC, nD5, nB4, $87, $C7, nB4
	dc.b $8C, $CC, nB4, $85, $C5, nCs5, $8C, $CC
	dc.b nD5, $98, $D8, nF5, nD5, $81, $88, $C1
	dc.b $C8, nFs5, $98, $D8, nFs4, $B0, $F0, nG5
	dc.b $98, $D8, nFs5, nF5, $82, $AF, $C2, $EF
	dc.b nFs5
	gStop

.4A_01	dc.b $C0
	gsPrio		$05
	gsVolume	$07
	dc.b $D8
	gsPatch		$4C
	dc.b $8C, $CC, nE4, $D8, nF4, $87, $C7, nBb3
	dc.b $85, $C5, nC4, $87, $C7, nCs4, $85, $C5
	dc.b nEb4, $87, $C7, nE4, $85, $C5, nF4, $8C
	dc.b $CC, nE4, nF4, nE4, $D8, nF4, $87, $C7
	dc.b nBb3, $85, $C5, nC4, $87, $C7, nCs4, $85
	dc.b $C5, nEb4, $87, $C7, nE4, $85, $C5, nF4
	dc.b $8C, $CC, nE4, nF4, nE4, $D8, nF4, $87
	dc.b $C7, nBb3, $85, $C5, nC4, $87, $C7, nD4
	dc.b $85, $C5, nEb4, $87, $C7, nF4, $85, $C5
	dc.b nBb4, $8C, $CC, nA4, nBb4, nA4, nBb4, $93
	dc.b $D3, nFs4, $B5, $C1, $D9, nEb4, $87, $C7
	dc.b nC4, $85, $C5, nCs4, $87, $C7, nD4, $85
	dc.b $C5, nEb4, $87, $C7, nE4, $85, $C5, nF4
	dc.b $8C, $CC, nE4, nF4, nE4, $D8, nF4, $87
	dc.b $C7, nCs4, $85, $C5, nEb4, $87, $C7, nF4
	dc.b $85, $C5, nFs4, $87, $C7, nG4, $85, $C5
	dc.b nAb4, $8C, $CC, nA4, nBb4, nA4, $D8, nBb4
	dc.b $87, $C7, nF4, $85, $C5, nFs4, $87, $C7
	dc.b nG4, $85, $C5, nAb4, $87, $C7, nA4, $85
	dc.b $C5, nBb4, $8C, $CC, nB4, nC5, nB4, nC5
	dc.b $93, $D3, nCs5, $A9, $C2, $F4, nBb4, $85
	dc.b $C5, nF5, $87, $C7, nE5, $85, $C5, nF5
	dc.b $87, $C7, nCs5, $85, $D8, nBb4, $C5, nF5
	dc.b $87, $C7, nE5, $85, $C5, nF5, $87, $C7
	dc.b nCs5, $85, $C1, $FD, nBb4, $87, $C7, nF5
	dc.b $8C, $CC, nE5, $85, $C5, nF5, $8C, $D8
	dc.b nCs5, $87, $C7, nF5, $8C, $CC, nE5, $85
	dc.b $C5, nF5, $8C, $C8, $DC, nCs5, $98, $D8
	dc.b nF4, nFs4, $93, $D3, nFs5, $8C, $CC, nE5
	dc.b $85, $C5, nFs5, $8C, $CC, nE5, $93, $D3
	dc.b nD5, $8C, $CC, nCs5, $85, $C5, nD5, $8C
	dc.b $CC, nCs5, $93, $D3, nB4, $A9, $C7, $C1
	dc.b nFs4, $8C, $CC, nD5, nD5, $86, $C7, nD5
	dc.b $8C, $CC, nCs5, $85, $C5, nD5, $8C, $CC
	dc.b nCs5, $87, $C7, nD5, $8C, $CC, nD5, $85
	dc.b $C5, nD5, $87, $C7, nCs5, $85, $C5, nFs4
	dc.b $8C, $CC, nFs4, nD5, $87, $C7, nD5, $8C
	dc.b $CC, nCs5, $85, $C5, nD5, $87, $C7, nCs5
	dc.b $8C, $CC, nD5, nD5, $85, $C5, nD5, $87
	dc.b $C7, nCs5, $85, $C5, nFs4, $8C, $CC, nFs4
	dc.b nB4, $87, $C7, nB4, $8C, $CC, nB4, $85
	dc.b $C5, nCs5, $8C, $CC, nD5, nB4, $87, $C7
	dc.b nB4, $8C, $CC, nB4, $85, $C5, nCs5, $8C
	dc.b $CC, nD5, nB4, $87, $C7, nB4, $8C, $CC
	dc.b nB4, $85, $C5, nCs5, $8C, $CC, nD5, $98
	dc.b $D8, nF5, nD5, $81, $88, $C1, $C8, nFs5
	dc.b $98, $D8, nFs4, $B0, $F0, nG5, $98, $D8
	dc.b nFs5, nF5, $82, $AF, $C2, $EF, nB5
	gStop

.4A_02	dc.b $C0
	gsPrio		$0F
	dc.b $D8
	gsPatch		$5E
	dc.b $8C, $CC, nE4, nF4, $93, $D3, nF5, $8C
	dc.b $CC, nEb5, $85, $C5, nF5, $8C, $CC, nEb5
	dc.b $93, $D3, nCs5, $8C, $CC, nC5, $85, $C5
	dc.b nCs5, $8C, $CC, nC5, $93, $D3, nBb4, $A9
	dc.b $F5, nF4, $8C, $CC, nE4, nF4, $93, $D3
	dc.b nBb4, $8C, $CC, nAb4, $85, $C5, nBb4, $8C
	dc.b $CC, nAb4, $93, $D3, nFs4, $8C, $CC, nF4
	dc.b $85, $C5, nFs4, $8C, $CC, nF4, $81, $88
	dc.b $C1, $D4, nEb4, $8C, $CC, nFs4, $87, $C7
	dc.b nFs4, $8C, $CC, nFs4, nF4, $85, $C5, nFs4
	dc.b $8C, $CC, nF4, $98, $E4, nCs4, $8C, $CC
	dc.b nBb4, nBb4, $87, $C7, nBb4, $8C, $CC, nAb4
	dc.b $85, $C5, nBb4, $8C, $CC, nAb4, $98, $E4
	dc.b nFs4, $8C, $CC, nCs5, $87, $C7, nCs5, $8C
	dc.b $CC, nCs5, nC5, $85, $C5, nCs5, $8C, $CC
	dc.b nC5, nF5, nF4, nCs5, nA4, $BC, $C0, nBb4
	dc.b $C1, $C8, nF4, $8C, $CC, nA4, nBb4, $8E
	dc.b $D2, nEb4, $86, $C6, nEb4, $8E, $D2, nBb4
	dc.b $86, $C6, nAb4, $8E, $D2, nFs4, $86, $C6
	dc.b nF4, $CC, nEb4, nFs4, $98, $D8, nBb3, nC4
	dc.b nCs4, nBb3, $8E, $D2, nEb4, $86, $C6, nEb4
	dc.b $8E, $D2, nBb4, $86, $C6, nAb4, $8E, $D2
	dc.b nFs4, $86, $C6, nF4, $CC, nEb4, nFs4, $98
	dc.b $D8, nBb3, nC4, nCs4, nBb3, $8E, $D2, nEb4
	dc.b $86, $C6, nEb4, $8E, $D2, nBb4, $86, $C6
	dc.b nAb4, $8E, $D2, nFs4, $86, $C6, nF4, $CC
	dc.b nEb4, nFs4, $98, $D8, nBb3, nC4, nCs4, $E4
	dc.b nBb3, $86, $C7, nFs4, $84, $C5, nFs4, $8B
	dc.b $D8, nFs4, $86, $C7, nFs4, $84, $C5, nFs4
	dc.b $8B, $D8, nFs4, $CC, nFs4, $F0, nC5, $98
	dc.b $C0, nC4, $D8, nE4, $C0, nC4, $D8, nE4
	dc.b $A4, $C0, nF4, $E4, nBb4, $8C, $C0, nF4
	dc.b $CC, nBb4, $B0, $C0, nF4, $F0, nA4, $A4
	dc.b $C0, nFs4, $E4, nB4, $8C, $C0, nFs4, $CC
	dc.b nB4, $86, $C0, nFs4, $C8, nBb4, $C0, nFs4
	dc.b $C8, nBb4, $C0, nFs4, $C8, nBb4, $C0, nFs4
	dc.b $C8, nBb4, $C0, nFs4, $C8, nBb4, $C0, nFs4
	dc.b $D4, nBb4, $87, $C0, nD6, $D8, nB5, $C0
	dc.b nD6, $D8, nB5, $C0, nB5, $D8, nF5, $C0
	dc.b nCs6, $D8, nBb5, $C0, nD5, $D8, nB4, $C0
	dc.b nBb4, $D8, nE5, $C0, nFs5, $D8, nD5, $C0
	dc.b nFs5, $D8, nD5, $C0, nEb5, $D8, nA5, $C0
	dc.b nEb5, $D8, nFs5, $C0, nEb5, $D8, nA4, $C0
	dc.b nEb5, $D8, nA4, $C0, nB4, nE5, $D8, nG4
	dc.b $C0, nB4, nEb5, $D8, nA4, $C0, nB4, nE5
	dc.b $D8, nG4, $C0, nE5, $D8, nB4, $C0, nB4
	dc.b $D8, nE5, $C0, nBb4, $D8, nE5, $C0, nB4
	dc.b $D8, nFs4, $C0, nFs5, $D8, nD5, $C0, nFs5
	dc.b $D8, nC5, $C0, nFs5, $D8, nC5, $C0, nD5
	dc.b $D8, nB4, $C0, nB5, nD6, $CC, nG5, $8C
	dc.b $C0, nAb5, nB5, nD6, $CC, nF5, $86, $C7
	dc.b nD6, $8C, $CC, nCs6, $85, $C5, nD6, $8C
	dc.b $CC, nCs6, $86, $C0, nF5, $87, nAb5, nB5
	dc.b $C7, nD6, $8C, $CC, nD6, $85, $C5, nD6
	dc.b $87, $C7, nCs6, $85, $C5, nFs5, $8C, $CC
	dc.b nFs5, $C0, nG5, nB5, nD6, $CC, nE5, $87
	dc.b $C7, nD6, $8C, $CC, nCs6, $85, $C5, nD6
	dc.b $87, $C6, nCs6, $8C, nD6, $86, $C0, nE5
	dc.b nG5, $C7, nB5, $8C, $CC, nD6, $85, $C5
	dc.b nD6, $87, $C7, nCs6, $85, $C5, nFs5, $8C
	dc.b $CC, nFs5, $A4, $C0, nFs5, nD5, $8C, $CC
	dc.b nB5, $87, $C7, nB5, $8C, $CC, nB5, $85
	dc.b $C5, nCs6, $8C, $C0, nB5, nFs5, $CC, nD6
	dc.b $A4, $C0, nFs5, nD5, $8C, $CC, nB5, $87
	dc.b $C7, nB5, $8C, $CC, nB5, $85, $C5, nCs6
	dc.b $8C, $C0, nB5, nFs5, $CC, nD6, $A4, $C0
	dc.b nFs5, nD5, $8C, $CC, nB5, $87, $C7, nB5
	dc.b $8C, $CC, nB5, $85, $C5, nCs6, $8C, $C0
	dc.b nB5, nFs5, $CC, nD6, $98, $C0, nB5, nD6
	dc.b $D8, nG5, $C0, nG5, nB5, $D8, nF5, $81
	dc.b $88, $C0, nB5, nD6, $C1, $C8, nFs5, $98
	dc.b $C0, nD5, nFs5, $D8, nB4, $B0, $C0, nBb5
	dc.b nD6, $F0, nE6, $C0, nBb5, nCs6, nAb5, $98
	dc.b $D8, nFs6, nF6, $BC, $CC, nFs6, $86, $C0
	dc.b nD6, $C6, nB5, $C0, nD6, $D2, nB5, $C0
	dc.b nD6, $C6, nB5, $C0, nD6, $D2, nB5, $8C
	dc.b $C0, nD6, nFs6, $CC, nB5, $C0, nE6, nG6
	dc.b $CC, nC6, $C0, nFs6, $D8, nB5, $C0, nD6
	dc.b nFs6, nD6, $CC, nB5, $C0, nE6, nG6, $CC
	dc.b nC6, $C0, nD6, nFs6, $CC, nB5, $98, $C0
	dc.b nB6, $D8, nD6, $8C, $C0, nB4, nB3, $CC
	gStartSeq	$49
	gStop

.4A_03	dc.b $C0
	gsPrio		$14
	dc.b $D8
	gsPatch		$68
	dc.b $98, nF3, $8C, nBb3, nF3, nFs3, nF3, nBb3
	dc.b nC4, nCs4, nBb3, nBb3, nBb3, nD3, nD3, nEb3
	dc.b nF3, nFs3, nEb3, nC3, nF3, nBb3, nF3, nCs3
	dc.b nCs3, nFs3, nFs3, nC3, nG3, nF3, $98, nF3
	dc.b $8C, nBb2, nF3, nBb2, $98, nCs3, $8E, $D2
	dc.b nEb3, $86, $C6, nEb3, $8E, $D2, nBb3, $86
	dc.b $C6, nAb3, $8E, $D2, nFs3, $86, $C6, nF3
	dc.b $CC, nEb3, nFs3, $98, $D8, nBb2, nC3, nCs3
	dc.b nBb2, $8E, $D2, nEb3, $86, $C6, nEb3, $8E
	dc.b $D2, nBb3, $86, $C6, nAb3, $8E, $D2, nFs3
	dc.b $86, $C6, nF3, $CC, nEb3, nFs3, $98, $D8
	dc.b nBb2, nC3, nCs3, nBb2, $8E, $D2, nEb3, $86
	dc.b $C6, nEb3, $8E, $D2, nBb3, $86, $C6, nAb3
	dc.b $8E, $D2, nFs3, $86, $C6, nF3, $CC, nEb3
	dc.b nFs3, $98, $D8, nBb2, nC3, nCs3, $E4, nBb2
	dc.b $86, $C7, nFs3, $84, $C5, nFs3, $8B, $D8
	dc.b nFs3, $86, $C7, nFs3, $84, $C5, nFs3, $8B
	dc.b $D8, nFs3, $CC, nFs3, $F0, nC4, $98, $D8
	dc.b nC3, nC3, $A4, $E4, nF3, $8C, $CC, nF3
	dc.b $B0, $F0, nF3, $A4, $E4, nFs3, $8C, $CC
	dc.b nFs3, $98, $D8, nFs3, nFs3, $8C, nB3, nFs3
	dc.b nG3, nFs3, nB2, nCs3, nD3, nB2, nB2, nFs3
	dc.b nEb3, nB3, nE3, nFs3, nG3, nE3, nCs3, nFs3
	dc.b nB2, nB2, nD3, nD3, nG3, nG3, $F0, nCs3
	dc.b nCs3, nE3, nE3, $A4, $E4, nB2, $8C, $CC
	dc.b nB2, $A4, $E4, nA2, $8C, $CC, nA2, $A4
	dc.b $E4, nAb2, $8C, $CC, nAb2, $98, $D8, nG2
	dc.b nG2, $B0, $F0, nFs2, nFs2, nFs2, nFs2, $8C
	dc.b $D8, nB3, nFs3, nB3, nFs3, nB3, nFs3, nB3
	dc.b $CC, nB2
	gStop

.4A_04	dc.b $C0
	gsPrio		$0A
	dc.b $C6, $E4
	gsPatch		$67
	dc.b $8C, $CC, nFs6, $87, $C7, nFs6, $8C, $CC
	dc.b nFs6, nF6, $85, $C5, nFs6, $8C, $CC, nF6
	dc.b $98, $E4, nCs6, $8C, $CC, nBb6, nBb6, $87
	dc.b $C7, nBb6, $8C, $CC, nAb6, $85, $C5, nBb6
	dc.b $8C, $CC, nAb6, $98, $E4, nFs6, $8C, $CC
	dc.b nCs7, $87, $C7, nCs7, $8C, $CC, nCs7, nC7
	dc.b $85, $C5, nCs7, $8C, $CC, nC7, nF7
	gStop

.4A_05	dc.b $C0
	gsPrio		$0F
	dc.b $F0
	gsPatch		$50
	dc.b $98, $D8, nBb2, nF2, nFs2, nF2, nBb2, nC3
	dc.b nCs3, nBb2, nBb2, nBb2, nD2, nD2, nEb2, nF2
	dc.b $C6, $F0, nFs2, $93, $D3, nC4, $91, $D1
	dc.b nBb3, $8C, $CC, nA3, $93, $D3, nBb3, $91
	dc.b $D1, nC4, $8C, $CC, nCs4, $93, $D3, nBb3
	dc.b $A9, $F5, nF3, $8C, $CC, nA3, nBb3, $93
	dc.b $D3, nC4, $91, $D1, nBb3, $8C, $CC, nA3
	dc.b $93, $D3, nBb3, $91, $D1, nC4, $8C, $CC
	dc.b nBb3, $BC, $C1, $C8, nCs4, $8C, $CC, nA3
	dc.b nBb3, $93, $D3, nC4, $91, $D1, nBb3, $8C
	dc.b $CC, nA3, $93, $D3, nBb3, $91, $D1, nC4
	dc.b $8C, $CC, nCs4, $93, $D3, nBb3, $9D, $DD
	dc.b nF3, $8C, $CC, nCs4, $87, $C7, nC4, $8C
	dc.b $CC, nCs4, $85, $C5, nC4, $8C, $CC, nBb3
	dc.b nBb3, $87, $C7, nFs3, $85, $C5, nFs3, $8C
	dc.b $CC, nFs3, nBb3, $87, $C7, nFs3, $85, $C5
	dc.b nFs3, $8C, $CC, nFs3, nBb3, $87, $C7, nBb3
	dc.b $8C, $CC, nC4, nC4, $85, $C5, nC4, $8C
	dc.b $CC, nB3, nC4, $98, $D8, nCs4, $8C, $CC
	dc.b nBb3, nC4, $B0, $F0, nF4, $98, $D8, nE3
	dc.b nF3, $B0, $F0, nFs4, $98, $D8, nF3, nFs3
	dc.b $93, $D3, nFs4, $8C, $CC, nE4, $85, $C5
	dc.b nFs4, $8C, $CC, nE4, $93, $D3, nD4, $8C
	dc.b $CC, nCs4, $85, $C5, nD4, $8C, $CC, nCs4
	dc.b $93, $D3, nB3, $A9, $F5, nFs3, $8C, $CC
	dc.b nF3, nFs3, $93, $D3, nB3, $8C, $CC, nA3
	dc.b $85, $C5, nB3, $8C, $CC, nA3, $93, $D3
	dc.b nG3, $8C, $CC, nFs3, $85, $C5, nG3, $8C
	dc.b $CC, nFs3, $81, $88, $C1, $D4, nE3, $8C
	dc.b $CC, nG3, nG3, $86, $C7, nG3, $8C, $CC
	dc.b nFs3, $85, $C5, nG3, $8C, $CC, nFs3, $A4
	dc.b $E4, nD3, $8C, $CC, nB3, nB3, $86, $C7
	dc.b nB3, $8C, $CC, nA3, $85, $C5, nB3, $8C
	dc.b $CC, nA3, $98, $D8, nG3
	gStop

.4A_06	dc.b $C0
	gsPrio		$11
	dc.b $FC
	gsPatch		$5F
	dc.b $87, $C7, nBb3, $85, $C5, nC4, $87, $C7
	dc.b nCs4, $85, $C5, nEb4, $87, $C7, nE4, $85
	dc.b $C5, nF4, $8C, $CC, nE4, nF4, nE4, $D8
	dc.b nF4, $87, $C7, nBb3, $85, $C5, nC4, $87
	dc.b $C7, nCs4, $85, $C5, nEb4, $87, $C7, nE4
	dc.b $85, $C5, nF4, $8C, $CC, nE4, nF4, nE4
	dc.b $D8, nF4, $87, $C7, nBb3, $85, $C5, nC4
	dc.b $87, $C7, nD4, $85, $C5, nEb4, $87, $C7
	dc.b nF4, $85, $C5, nBb4, $8C, $CC, nA4, nBb4
	dc.b nA4, nBb4, $93, $D3, nFs4, $B5, $C1, $D9
	dc.b nEb4, $87, $C7, nC4, $85, $C5, nCs4, $87
	dc.b $C7, nD4, $85, $C5, nEb4, $87, $C7, nE4
	dc.b $85, $C5, nF4, $8C, $CC, nE4, nF4, nE4
	dc.b $D8, nF4, $87, $C7, nCs4, $85, $C5, nEb4
	dc.b $87, $C7, nF4, $85, $C5, nFs4, $87, $C7
	dc.b nG4, $85, $C5, nAb4, $8C, $CC, nA4, nBb4
	dc.b nA4, $D8, nBb4, $87, $C7, nF4, $85, $C5
	dc.b nFs4, $87, $C7, nG4, $85, $C5, nAb4, $87
	dc.b $C7, nA4, $85, $C5, nBb4, $8C, $CC, nB4
	dc.b nC5, nB4, nC5, $93, $D3, nCs5, $A9, $C2
	dc.b $F4, nBb4, $85, $C5, nF5, $87, $C7, nE5
	dc.b $85, $C5, nF5, $87, $C7, nCs5, $85, $D8
	dc.b nBb4, $C5, nF5, $87, $C7, nE5, $85, $C5
	dc.b nF5, $87, $C7, nCs5, $85, $C1, $FD, nBb4
	dc.b $87, $C7, nF5, $8C, $CC, nE5, $85, $C5
	dc.b nF5, $8C, $D8, nCs5, $87, $C7, nF5, $8C
	dc.b $CC, nE5, $85, $C5, nF5, $8C, $D3, nCs5
	dc.b $85, $C5, nFs5, $87, $C7, nF5, $85, $C5
	dc.b nFs5, $87, $C7, nCs5, $85, $D8, nBb4, $C5
	dc.b nFs5, $87, $C7, nF5, $85, $C5, nFs5, $87
	dc.b $C7, nCs5, $85, $C5, nBb4, $86, $C6, nCs5
	dc.b nC5, nBb4, nA4, nBb4, nC5, nCs5, nC5, nCs5
	dc.b nEb5, $84, $C4, nF5, nE5, nEb5, nCs5, nC5
	dc.b nB4, nBb4, nB4, nC5, nCs5, nEb5, nF5, $86
	dc.b $E4, nFs5, nCs5, $C6, nBb4, nA4, nBb4, $CC
	dc.b nC5, $8C, nC5, $86, $C6, nC5, $8C, $CC
	dc.b nB4, nC5, $98, $D8, nCs5, $8C, $CC, nBb4
	dc.b nC5, $B0, $F0, nF5, $98, $D8, nE4, nF4
	dc.b $B0, $F0, nFs5
	gStop

.4B_00	dc.b $C0
	gsPrio		$7D
	gSFX
	gsPatch		$00
	dc.b $98, $D8, nFs4
	gStop

.4C_00	dc.b $C0
	gsPrio		$4B
	gSFX
	gsPatch		$69
	dc.b $9E, $DE, nG5
	gStop

.4D_00	dc.b $C0
	gsPrio		$64
	gSFX
	gsPatch		$6A
	dc.b $98, $D8, nEb2
	gStop

.4D_01	dc.b $C0
	gsVolume	$0D
	gsPrio		$32
	gSFX
	gsPatch		$6D
	dc.b $98, $D8, nFs1
	gStop

.4E_00	dc.b $C0
	gsPrio		$6E
	gSFX
	gsPatch		$6B
	dc.b $98, $D8, nB1
	gStop

.4F_00	dc.b $C0
	gsVolume	$09
	gsPrio		$4B
	gSFX
	gsPatch		$6C
	dc.b $98, $D8, nB0
	gStop

.50_00	dc.b $C0
	gsPrio		$64
	gSFX
	gsPatch		$6D
	dc.b $98, $D8, nB0
	gStop

.50_01	dc.b $C0
	gsPrio		$78
	gSFX
	gsPatch		$00
	gsSampleRate	$0A
	dc.b $98, $D8, nA4
	gStop

.51_00	dc.b $C0
	gsPrio		$46
	gSFX
	gsPatch		$03
	dc.b $85, $C5, nAb4
	gStop

.52_00	dc.b $C0
	gsTempo		140
	dc.b $D8, $C0
	gsPatch		$5F
	dc.b $85, $C6, nAb4, nBb4, nB4, nC5, nCs5, nEb5
	dc.b nE5, nFs5, nAb5, nFs5, nE5, nEb5, nCs5, nA4
	dc.b nAb4, nE4, $81, $9F, $C1, $E0, nEb4, nE3
	dc.b $85, $C6, nD3, $A9, $C7, $C2, nEb3, $82
	dc.b $C3, nB4, nC5, nCs5, nD5, nEb5, nE5, nF5
	dc.b nG5, $8B, $D8, nAb5, $97, nAb4, $8F, $D0
	dc.b nAb4, nBb4, nB4, $A3, $E4, nAb4, $8B, $CC
	dc.b nG4, nAb4, nEb4, nB3, nAb3, $81, $9F, $C1
	dc.b $E0, nB3, $A3, $E4, nAb4, $8B, $CC, nG4
	dc.b nAb4, nEb4, nB3, nAb3, $81, $9F, $C1, $E0
	dc.b nB3, $8B, $CC, nEb4, nB3, nAb3, nEb3, nCs4
	dc.b nBb3, nG3, nEb3, nEb4, nB3, nAb3, nEb3, nD4
	dc.b nB3, nAb3, nE3, nEb3, nF3, nG3, nBb3, nEb4
	dc.b nF4, nG4, nBb4, $C1, $E0, nEb5, $A3, $E4
	dc.b nAb4, $8B, $CC, nG4, nAb4, nEb4, nB3, nAb3
	dc.b $81, $9F, $C1, $E0, nB3, $A3, $E4, nAb4
	dc.b $8B, $CC, nG4, nAb4, nEb4, nB3, nAb3, $81
	dc.b $9F, $C1, $E0, nB3, $8B, $CC, nEb4, nB3
	dc.b nAb3, nEb3, nCs4, nBb3, nG3, nEb3, nEb4, nB3
	dc.b nAb3, nEb3, nD4, nB3, nBb3, nEb3, nAb3, nBb3
	dc.b nB3, nEb4, nAb4, nBb4, nB4, nEb5, $C1, $E0
	dc.b nAb5, $C0
	gStartSeq	$52
	gStop

.52_01	dc.b $C0
	gsVolume	$0F
	dc.b $CC, $C0
	gsPatch		$4C
	dc.b $81, $9F, $C0, nEb4, $C1, $E0, nB3, $C0
	dc.b nBb3, $C1, $E0, nD4, $C0, nA3, $C1, $E0
	dc.b nCs4, $C0, nAb3, $C1, $E0, nB3, $C0, nFs4
	dc.b $C1, $E0, nD4, $C0, nCs4, $C1, $E0, nF4
	dc.b $C0, nCs4, $C1, $E0, nE4, $C0, nB3, $C1
	dc.b $DF, nEb4
	gStop

.52_02	dc.b $C0
	gsPrio		$0A
	dc.b $CB, $E8
	gsPatch		$6E
	dc.b $8B, $CC, nB2, nCs3, $97, $D8, nEb3, $8B
	dc.b $CC, nB2, nCs3, $97, $D8, nEb3, $8B, $CC
	dc.b nB2, nEb3, $8F, $D0, nD3, nBb2, nC3, $97
	dc.b $D8, nD3, $8B, $CC, nBb2, nD3, $8F, $D0
	dc.b nCs3, nCs3, nCs3, $97, $D8, nCs3, nEb3, $81
	dc.b $87, $C1, $C8, nB2, $8B, $CC, nEb3, nE3
	dc.b $8F, $D0, nFs3, nD3, nE3, nFs3, nD3, nFs3
	dc.b nF3, nCs3, nEb3, $97, $D8, nF3, $8B, $CC
	dc.b nCs3, nF3, $8F, $D0, nE3, nE3, nE3, $97
	dc.b $E4, nE3, $8B, $CC, nFs3, $81, $87, $C1
	dc.b $C8, nEb3, $8B, $CC, nAb3, nBb3, $97, $D8
	dc.b nB3, $8B, $CC, nAb3, nBb3, $92, $D8, nB3
	dc.b $8B, $CC, nAb3, nBb3, $97, $D8, nB3, $8B
	dc.b $CC, nAb3, nBb3, $92, $D8, nB3, $8B, $CC
	dc.b nAb3, nBb3, $97, $D8, nB3, $8B, $CC, nAb3
	dc.b nBb3, $97, $D8, nB3, nAb3, $A8, $F0, nEb3
	dc.b $97, $D8, nE3, nFs3, nEb3, $8B, $CC, nB2
	dc.b nCs3, $92, $D8, nEb3, $8B, $CC, nB2, nEb3
	dc.b $8F, $D0, nD3, nBb2, nC3, $97, $E4, nD3
	dc.b $85, $C6, nD3, nD3, $8F, $D0, nEb3, nD3
	dc.b nEb3, nB3, nBb3, nAb3, $81, $AB, $C1, $F8
	dc.b nAb3, $97, $D8, nAb3, $8F, $D0, nAb3, nBb3
	dc.b nB3, $81, $93, $C1, $D4, nEb4, $85, $C6
	dc.b nD4, nEb4, $97, $D8, nD4, $8B, $CC, nB3
	dc.b nBb3, $8F, $D0, nB3, nBb3, nAb3, $81, $9F
	dc.b $C2, $C4, nEb4, $8B, $CC, nB3, $8F, $D0
	dc.b nB3, nBb3, nAb3, $9E, $E4, nEb4, $8B, $CC
	dc.b nEb4, $8F, $D0, nFs4, nEb4, nCs4, $9E, $E4
	dc.b nEb4, $85, $C6, nB3, nEb4, $8F, $D0, nD4
	dc.b nB3, nD4, $81, $AB, $C1, $F8, nEb4, $97
	dc.b $D8, nAb3, $8F, $D0, nAb3, nBb3, nB3, $81
	dc.b $93, $C1, $D4, nEb4, $85, $C6, nD4, nEb4
	dc.b $97, $D8, nD4, $8B, $CC, nB3, nBb3, $8F
	dc.b $D0, nB3, nBb3, nAb3, $81, $9F, $C2, $C4
	dc.b nEb4, $8B, $CC, nBb3, $8F, $D0, nB3, nBb3
	dc.b nAb3, $9E, $E4, nEb4, $8B, $CC, nEb4, $8F
	dc.b $D0, nFs4, nEb4, nCs4, $9E, $E4, nEb4, $8B
	dc.b $CC, nEb4, $8F, $D0, nD4, nB3, nBb3, $82
	dc.b $BF, $C2, $FF, nAb3
	gStop

.52_03	dc.b $E5, $E0
	gsPatch		$24
	dc.b $81, $9F, $C1, $E0, nAb3, $8B, $CC, nB3
	dc.b nEb3, nE3, nFs3, nAb3, nBb3, nB3, nCs4, $81
	dc.b $9F, $C1, $E0, nAb3, $8B, $CC, nB3, nEb3
	dc.b nE3, nFs3, nAb3, nBb3, nB3, nCs4, $AF, $F0
	dc.b nAb3, nEb3, nAb3, nE3, $8B, $CC, nEb4, nF4
	dc.b nG4, nBb4, $BB, $C1, $C8, nEb5, $81, $87
	dc.b nEb3, $81, $9F, $C1, $E0, nAb3, $8B, $CC
	dc.b nB3, nEb3, nE3, nFs3, nAb3, nBb3, nB3, nCs4
	dc.b $81, $9F, $C1, $E0, nAb3, $8B, $CC, nB3
	dc.b nEb3, nE3, nFs3, nAb3, nBb3, nB3, nCs4, $AF
	dc.b $F0, nAb3, nEb3, nAb3, $97, $D8, nE3, nEb3
	dc.b $82, $BF, $C2, $FF, nAb3
	gStop

.52_04	dc.b $C1, $C2
	gsPatch		$02
	dc.b $82, $C3, nAb6, nB6, $A3, $C2, $FA, nEb7
	dc.b $82, $C3, nAb6, nB6, $A3, $C2, $FA, nEb7
	dc.b $82, $C3, nAb6, nB6, $A3, $C2, $FA, nEb7
	dc.b $82, $C3, nAb6, nB6, $A3, $F2, $DF, nEb7
	dc.b $82, $C3, nAb5, nB5, nEb6, $A3, $E3, nAb6
	gStop

.52_05	dc.b $C0
	gsPrio		$05
	gsPatch		$6F
	dc.b $97, $D8, nAb2, $8B, $CC, nEb3, nEb3, $D8
	dc.b nEb2, nEb3, $97, nAb2, $8B, $CC, nEb3, nEb3
	dc.b $D8, nEb2, nEb3, $97, nAb2, $8B, $CC, nEb3
	dc.b nEb3, $D8, nEb2, nEb3, $97, nAb2, $8B, $CC
	dc.b nEb3, nEb3, $D8, nEb2, nEb3, $97, nAb2, $8B
	dc.b $CC, nEb3, nEb3, $D8, nEb2, nEb3, $97, nAb2
	dc.b $8B, $CC, nEb3, nEb3, $D8, nEb2, nEb3, $97
	dc.b nAb2, $8B, $CC, nEb3, nEb3, $D8, nEb2, nEb3
	dc.b $97, nAb2, $8B, $CC, nEb3, nEb3, $D8, nEb2
	dc.b nEb3, $97, nAb2, $8B, $CC, nEb3, nEb3, $D8
	dc.b nEb2, nEb3, $97, nAb2, $8B, $CC, nEb3, nEb3
	dc.b $D8, nEb2, nEb3, $97, nEb2, $8B, $CC, nEb3
	dc.b nEb3, $D8, nEb2, nEb3, $97, nAb2, $8B, $CC
	dc.b nEb3, nEb3, $D8, nEb2, nEb3, $97, nB2, $8B
	dc.b $CC, nFs3, nFs3, $D8, nFs2, nFs3, $97, nB2
	dc.b $8B, $CC, nFs3, nFs3, $D8, nFs2, nFs3, $97
	dc.b nEb2, $8B, $CC, nEb3, nEb3, $D8, nBb2, nEb3
	dc.b $97, nAb2, $8B, $CC, nEb3, nEb3, $D8, nEb2
	dc.b nEb3, $97, nE2, $8B, $CC, nB2, nB2, $D8
	dc.b nB1, nB2, $97, nAb2, $8B, $CC, nEb3, nEb3
	dc.b $D8, nEb2, nEb3, $97, nE2, $8B, $CC, nB2
	dc.b nB2, $D8, nB1, nB2, $97, nEb2, $8B, $CC
	dc.b nBb2, nBb2, $D8, nEb2, nEb3, $97, nAb2, $8B
	dc.b $CC, nEb3, nEb3, $D8, nEb2, nEb3, $97, nAb2
	dc.b $8B, $CC, nEb3, nEb3, $D8, nEb2, nEb3, $97
	dc.b nEb2, $8B, $CC, nEb3, nEb3, $D8, nBb2, nEb3
	dc.b $97, nAb2, $8B, $CC, nEb3, nEb3, $D8, nEb2
	dc.b nEb3, nAb2, $81, $87, $C0, nEb3, $C1, $C8
	dc.b nEb2, $97, $D8, nAb2, $8B, $CC, nEb3, nEb3
	dc.b $D8, nEb2, nEb3, $97, nB2, $8B, $CC, nFs3
	dc.b nFs3, $D8, nFs2, nFs3, $97, nAb2, $8B, $CC
	dc.b nEb3, nEb3, $D8, nEb2, nEb3, $97, nB2, $8B
	dc.b $CC, nFs3, nFs3, $D8, nFs2, nFs3, $97, nAb2
	dc.b $8B, $CC, nEb3, nEb3, $D8, nEb2, nEb3, $97
	dc.b nAb2, $8B, $CC, nEb3, nEb3, $D8, nEb2, nEb3
	dc.b $97, nEb2, $8B, $CC, nBb2, nBb2, $D8, nBb1
	dc.b nBb2, nEb2, $81, $87, $C0, nEb3, $C1, $C8
	dc.b nEb2, $97, $D8, nAb2, $8B, $CC, nEb3, nEb3
	dc.b $D8, nEb2, nEb3, $97, nB2, $8B, $CC, nFs3
	dc.b nFs3, $D8, nFs2, nFs3, $97, nAb2, $8B, $CC
	dc.b nEb3, nEb3, $D8, nEb2, nEb3, $97, nB2, $8B
	dc.b $CC, nFs3, nFs3, $D8, nFs2, nFs3, $97, nAb2
	dc.b $8B, $CC, nEb3, nEb3, $D8, nEb2, nEb3, $97
	dc.b nAb2, $8B, $CC, nEb3, nEb3, $97, $D8, nE2
	dc.b nEb2, $A3, $E4, nAb2, $8B, $CC, nEb2, nD2
	dc.b nEb2, nD2, nEb2, $81, $9F, $C1, $DF, nAb2
	gStop

.52_06	dc.b $C0
	gsVolume	$0E
	gsPrio		$28
	gsPatch		$50
	dc.b $85, $BF, nEb4, $C6, $C0, nAb3, $81, $AB
	dc.b $C0, nAb3, $C1, $EC, nEb4, $97, $C0, nBb3
	dc.b $D8, nEb4, $8B, $C0, nB3, $CC, nE4, $C0
	dc.b nD4, $CC, nG4, $C0, nEb4, $CC, nAb4, $C0
	dc.b nD4, $CC, nG4, $C0, nB3, $CC, nE4, $82
	dc.b $8F, $C0, nAb3, $C3, $C0, nEb4, $8B, $E4
	dc.b nAb2, $CC, nAb2, $F0, nEb2, $E4, nAb2, $CC
	dc.b nAb2, nD2, nEb2, nD2, nEb2, $E4, nEb3, $CC
	dc.b nEb3, $F0, nEb2, $E4, nAb2, $CC, nAb2, $F0
	dc.b nEb2, $E4, nB2, $CC, nB2, $F0, nFs2, $E4
	dc.b nB2, $CC, nB2, nF2, nFs2, nF2, nFs2, $E4
	dc.b nE2, $CC, nFs3, $F0, nFs2, $E4, nAb2, $CC
	dc.b nAb2, $F0, nEb2, $85, $C6, nAb5, nBb5, nB5
	dc.b nC6, nCs6, nEb6, nE6, nFs6, nAb6, nFs6, nE6
	dc.b nEb6, nCs6, nA5, nAb5, nE5, $9B, $DE, nEb5
	dc.b $85, $C6, nB4, nAb4, nE4, $8B, $C0, nD3
	dc.b $83, $C3, nEb4, nE4, $C4, nEb4, $C2, nE4
	dc.b $8B, $C1, nEb3, $83, $C4, nEb4, $C3, nE4
	dc.b $C4, nEb4, $8B, $C0, nD3, $83, $C3, nE4
	dc.b nEb4, $C4, nE4, $C2, nEb4, $8B, $C1, nEb3
	dc.b $83, $C4, nE4, $C3, nEb4, $C4, nE4, $8B
	dc.b $E4, nE3, $CC, nE3, nBb3, nB3, nBb3, nB3
	dc.b $C1, $E0, nEb3, $81, $9F, $C0, nEb4, $C1
	dc.b $E0, nB3, $C0, nD4, $C1, $E0, nBb3, $C0
	dc.b nG3, nE4, $C1, $E0, nCs4, $8B, $CC, nAb3
	dc.b nBb3, nB3, nEb4, nAb4, nBb4, nB4, $82, $C3
	dc.b nEb5, nE5, nF5, nG5, $8B, $D8, nAb5, $97
	dc.b $C0, nAb4, $81, $87, $D8, nEb3, $8F, $D0
	dc.b nAb4, nBb4, nB4, $81, $93, $C1, $D4, nEb5
	dc.b $85, $C6, nD5, nEb5, $97, $D8, nD5, $8B
	dc.b $CC, nB4, nBb4, $8F, $D0, nB4, nBb4, nAb4
	dc.b $81, $9F, $C2, $C4, nEb5, $8B, $CC, nB4
	dc.b $8F, $D0, nB4, nBb4, nAb4, $A3, $E4, nEb5
	dc.b $8B, $CC, nEb5, $8F, $D0, nFs5, nEb5, nCs5
	dc.b $A3, $E4, nEb5, $85, $C6, nB4, nEb5, $8F
	dc.b $D0, nD5, nB4, nD5, $81, $AB, $C1, $F8
	dc.b nEb5, $97, $D8, nAb4, $8F, $D0, nAb4, nBb4
	dc.b nB4, $81, $93, $C1, $D4, nEb5, $85, $C6
	dc.b nD5, nEb5, $97, $D8, nD5, $8B, $CC, nB4
	dc.b nBb4, $8F, $D0, nB4, nBb4, nAb4, $81, $9F
	dc.b $C2, $C4, nEb5, $8B, $CC, nBb4, $8F, $D0
	dc.b nB4, nBb4, nAb4, $A3, $E4, nEb5, $8B, $CC
	dc.b nEb5, $8F, $D0, nFs5, nEb5, nCs5, $97, $D8
	dc.b nEb5, nEb5, $8F, $D0, nD5, nB4, nBb4, $82
	dc.b $BF, $C2, $FF, nAb4
	gStop

.53_00	dc.b $C0
	gsPrio		$6E
	gSFX
	gsPatch		$70
	dc.b $81, $A0, $C1, $E0, nAb3
	gStop

.54_00	dc.b $C0
	gsTempo		145
	gsPatch		$50
	dc.b $8B, $F0, nB1, $90, nFs2, $8E, nB1, $D8
	dc.b nFs2, nA2, $F0, nB1, $8F, nFs2, $8E, nB1
	dc.b $D8, nFs2, $8D, nB1, $8F, $F0, nFs1, $91
	dc.b nCs2, nFs1, nBb1, $8F, nB1, $8C, $D8, nFs2
	dc.b $8E, nFs2, $91, $F0, nB1, $90, nFs2, nB1
	dc.b $8F, nFs2, $90, nB1, $8E, $D8, nFs2, nFs2
	dc.b $90, $F0, nB1, $8F, nFs2, $90, nB1, $8C
	dc.b $D8, nFs2, $8D, nFs2, $90, $F0, nFs1, $91
	dc.b nCs2, $90, nFs1, $8D, $D8, nCs2, $8E, nCs2
	dc.b $CE, nB1
	gStop

.54_01	dc.b $C0
	gsPatch		$4C
	dc.b $A2, $E4, nB5, $86, $C3, nB5, $87, $C6
	dc.b nBb5, $8F, $CF, nG5, $8D, $CC, nFs5, $8C
	dc.b nG5, nA5, $81, $96, $C1, $DF, nFs5, $C1
	gPitBend	$FD65
	dc.b $A9, $C0, nB5, $C1
	gPitBend	$FD79
	gPitBend	$FE92
	gPitBend	$FF7A
	dc.b $E1
	gPitBend	$0000
	dc.b $8C, $CC, nBb5, $8E, nG5, $8A, nFs5, nG5
	dc.b $85, $C6, nA5, nG5, $81, $94, $C1, $E0
	dc.b nFs5, $A2, $E4, nFs5, $86, $C3, nFs5, $87
	dc.b $C6, nF5, $8F, $CF, nD5, $8D, $CC, nCs5
	dc.b $8C, nD5, nE5, $B2, $F0, nCs5, $9A, $D8
	dc.b nE5, $97, nD5, $A5, $E4, nB4, $8E, $CC
	dc.b nA4, $8B, nG4, $8E, nA4, nG4, $8C, nA4
	dc.b $A8, $CB, $C4, nFs4, $8D, $C0, nB3, $8B
	dc.b $CC, nB5, $8C, $C0, nG3, $CC, nG5, $8B
	dc.b $C0, nA3, $8E, $CC, nA5, $8D, $C0, nFs3
	dc.b $8B, $E4, nFs5, $8C, $C0, nB3, $CC, nB5
	dc.b $8B, $C0, nG3, $8D, $CC, nG5, $8A, $C0
	dc.b nA3, $89, $CC, nA5, $8C, $C0, nFs6, $CC
	dc.b nFs4, $8D, $C0, nD4, $8C, $CC, nD6, $8E
	dc.b $C0, nCs4, $8D, $CC, nCs6, $89, $C0, nB3
	dc.b $8A, $CC, nB5, $8B, $C0, nG5, $8A, $CC
	dc.b nG3, $8B, $C0, nA5, $8C, $CC, nA3, $8A
	dc.b $C0, nG3, $8B, $CC, nG5, $8C, $C0, nA3
	dc.b $8B, $CC, nA5, $8C, $C0, nFs5, $8E, $CE
	dc.b nFs3
	gStop

.54_02	dc.b $CB, $C4
	gsPatch		$50
	dc.b $8B, $CC, nD4, nCs4, nB3, nG3, $85, $C6
	dc.b nA3, nG3, $8D, $C0, nB3, $97, $CC, nFs3
	dc.b $8C, $D8, nB4, $8B, $CC, nB4, $8A, $D8
	dc.b nFs5, $8B, $CC, nFs5, $94, $D8, nB5, $85
	dc.b $C6, nB5, nBb5, $8B, $CC, nG5, $87, nFs5
	dc.b $8B, nFs5, nE5, nFs5, $8A, nG5, $8B, nB3
	dc.b $8D, $D8, nB4, $8B, $CC, nB4, $8C, $D8
	dc.b nFs5, $8B, $CC, nFs5, $94, $D8, nB5, $85
	dc.b $C6, nB5, nBb5, $8B, $CC, nG5, $88, nFs5
	dc.b $8B, nFs5, nE5, nFs5, $88, nG5, $8B, nFs3
	dc.b $8D, $D8, nFs4, $8B, $CC, nFs4, $8C, $D8
	dc.b nCs5, $8B, $CC, nCs5, $94, $D8, nFs5, $85
	dc.b $C6, nFs5, nF5, $8B, $CC, nD5, $88, nCs5
	dc.b $8B, nCs5, nB4, nCs5, $88, nD5, $8F, $CF
	dc.b nB4
	gStop

.54_03	dc.b $CB, $C4
	gsPatch		$50
	dc.b $8B, $CC, nD3, nCs3, nB2, nG2, $85, $C6
	dc.b nA2, nG2, $8D, $C0, nB2, $97, $CC, nFs2
	dc.b $8C, $D8, nB3, $8B, $CC, nB3, $8A, $D8
	dc.b nFs4, $8B, $CC, nFs4, $94, $D8, nB4, $85
	dc.b $C6, nB4, nBb4, $8B, $CC, nG4, $87, nFs4
	dc.b $8B, nFs4, nE4, nFs4, $8A, nG4, $8B, nB2
	dc.b $8D, $D8, nB3, $8B, $CC, nB3, $8C, $D8
	dc.b nFs4, $8B, $CC, nFs4, $94, $D8, nB4, $85
	dc.b $C6, nB4, nBb4, $8B, $CC, nG4, $88, nFs4
	dc.b $8B, nFs4, nE4, nFs4, $88, nG4, $8B, nFs2
	dc.b $8D, $D8, nFs3, $8B, $CC, nFs3, $8C, $D8
	dc.b nCs4, $8B, $CC, nCs4, $94, $D8, nFs4, $85
	dc.b $C6, nFs4, nF4, $8B, $CC, nD4, $88, nCs4
	dc.b $8B, nCs4, nB3, nCs4, $88, nD4, $8F, $CF
	dc.b nB3
	gStop

.54_04	dc.b $CD, $C8
	gsPatch		$5F
	dc.b $88, $C3, nB4, nCs5, $86, nE5, nFs5, $8A
	dc.b nG5, $85, nBb5, $93, $C2, $EE, nB5, $88
	dc.b $C3, nB4, nCs5, nE5, $85, nFs5, $89, nG5
	dc.b $84, nBb5, $93, $D3, nB5
	gStop

.54_05	dc.b $C0
	gsPatch		$59
	dc.b $8B, $F0, nB2, $90, nFs3, $8E, nB2, $D8
	dc.b nFs3, nA3, $F0, nB2, $8F, nFs3, $8E, nB2
	dc.b $D8, nFs3, $8D, nB2, $8F, $F0, nFs2, $91
	dc.b nCs3, nFs2, nBb2, $8F, nB2, $8C, $D8, nFs3
	dc.b $8E, nFs3, $91, $F0, nB2, $90, nFs3, nB2
	dc.b $8F, nFs3, $90, nB2, $8E, $D8, nFs3, nFs3
	dc.b $90, $F0, nB2, $8F, nFs3, $90, nB2, $8C
	dc.b $D8, nFs3, $8D, nFs3, $90, $F0, nFs2, $91
	dc.b nCs3, $90, nFs2, $8D, $D8, nCs3, $8E, nCs3
	dc.b $CE, nB2
	gStop

.54_06	dc.b $CD, $F0
	gsPatch		$5A
	dc.b $83, $C4, nB2, nBb2, $85, $C2, $F8, nB2
	dc.b $83, $C4, nB2, nBb2, $85, $C2, $F8, nB2
	dc.b $83, $C4, nB2, nBb2, $85, $C5, $E0, nB2
	dc.b $83, $C4, nB2, nBb2, $85, $C5, nB2
	gStop

.54_07	dc.b $C2, $E8
	gsPatch		$35
	dc.b $88, $D6, nB6, $C2, nFs7, $8A, $C2, $E8
	dc.b nBb7, $D6, nB6, $88, $C2, nFs7, $8A, $C2
	dc.b $E8, nBb7, $89, $D6, nB6, $C2, nFs7, $8A
	dc.b $C2, $F7, nBb7, $81, $C1, nB6, $82, $C2
	dc.b nCs7, $C3, nEb7, $81, $C2, nE7, nFs7, nAb7
	dc.b $C1, nBb7, $C2, $E4, nBb7, $88, $D6, nB6
	dc.b $89, $C2, nFs7, $C2, $E8, nBb7, $87, $D6
	dc.b nB6, $C2, nFs7, $88, $C3, $C0, nBb7, $84
	dc.b $C0, nB6, $85, nBb7, $84, $C4, $C8, nFs7
	dc.b $86, $D6, nB6, $C2, nFs7, $F0, nBb7, $C0
	gStartSeq	$54
	gStop

.54_08	dc.b $C0
	gsVolume	$11
	gsPatch		$5F
	dc.b $A2, $E4, nB5, $86, $C3, nB5, $87, $C6
	dc.b nBb5, $8F, $CF, nG5, $8D, $CC, nFs5, $8C
	dc.b nG5, nA5, $81, $96, $C1, $DF, nFs5, $C1
	gPitBend	$FD65
	dc.b $A9, $C0, nB5, $C1
	gPitBend	$FD79
	gPitBend	$FE92
	gPitBend	$FF7A
	dc.b $E1
	gPitBend	$0000
	dc.b $8C, $CC, nBb5, $8E, nG5, $8A, nFs5, nG5
	dc.b $85, $C6, nA5, nG5, $81, $94, $C1, $E0
	dc.b nFs5, $A2, $E4, nFs5, $86, $C3, nFs5, $87
	dc.b $C6, nF5, $8F, $CF, nD5, $8D, $CC, nCs5
	dc.b $8C, nD5, nE5, $B2, $F0, nCs5, $9A, $D8
	dc.b nE5, $97, nD5, $A5, $E4, nB4, $8E, $CC
	dc.b nA4, $8B, nG4, $8E, nA4, nG4, $8C, nA4
	dc.b $A8, $CB, $C4, nFs4, $8D, $C0, nB3, $8B
	dc.b $CC, nB5, $8C, $C0, nG3, $CC, nG5, $8B
	dc.b $C0, nA3, $8E, $CC, nA5, $8D, $C0, nFs3
	dc.b $8B, $E4, nFs5, $8C, $C0, nB3, $CC, nB5
	dc.b $8B, $C0, nG3, $8D, $CC, nG5, $8A, $C0
	dc.b nA3, $89, $CC, nA5, $8C, $C0, nFs6, $CC
	dc.b nFs4, $8D, $C0, nD4, $8C, $CC, nD6, $8E
	dc.b $C0, nCs4, $8D, $CC, nCs6, $89, $C0, nB3
	dc.b $8A, $CC, nB5, $8B, $C0, nG5, $8A, $CC
	dc.b nG3, $8B, $C0, nA5, $8C, $CC, nA3, $8A
	dc.b $C0, nG3, $8B, $CC, nG5, $8C, $C0, nA3
	dc.b $8B, $CC, nA5, $8C, $C0, nFs5, $8E, $CE
	dc.b nFs3
	gStop

.54_09	dc.b $C0
	gsVolume	$0F
	dc.b $CE, $D0
	gsPatch		$1C
	dc.b $83, $D8, nB4, $C2, $E8, nB3, $D8, nB4
	dc.b $C2, $E8, nB3, $D8, nB4, $C4, $E0, nB3
	dc.b $C3, nB2
	gStop

.55_00	dc.b $C0
	gsTempo		92
	gsPatch		$50
	dc.b $81, $9F, $C1, $E0, nEb1, $AF, $F0, nFs1
	dc.b $AE, nF1, $81, $9F, $C1, $E0, nEb1, $AF
	dc.b $F0, nFs1, $AD, nA1, $8F, $D0, nBb1, $83
	dc.b $C4, nBb4, nEb5, $8F, $CF, nBb5
	gStop

.55_01	dc.b $F0
	gNop
	dc.b $C0
	gsPatch		$71
	dc.b $AF, nEb3, nEb4, nB3, $F0, nAb3, $C0, nD4
	dc.b nFs4, nB3, $F0, nFs3, $C0, nF4, nF3, nCs4
	dc.b $C1, $E0, nBb3, $C0, nEb3, nB3, nEb4, $F0
	dc.b nAb3, $C0, nFs4, nD4, nFs3, $F0, nB3, $C0
	dc.b nF4, nA3, nD4, $F0, nA4, $9F, $C0, nEb4
	dc.b nBb3, nFs4, $DF, nBb4
	gStop

.55_02	dc.b $C6, $D0
	gNop
	dc.b $C0
	gsPatch		$5F
	dc.b $83, $C4, nBb4, nEb5, $8F, $CF, nBb5
	gStop

.55_03	dc.b $C0
	gsPatch		$72
	dc.b $81, $9F, $C1, $E0, nEb2, $AF, $F0, nFs2
	dc.b $AE, nF2, $81, $9F, $C1, $E0, nEb2, $AF
	dc.b $F0, nFs2, $AD, nA2, $8F, $D0, nBb2, $83
	dc.b $C4, nBb6, nEb7, $8F, $CF, nBb7
	gStop

.55_04	dc.b $C6, $D0
	gNop
	dc.b $C0
	gsPatch		$50
	dc.b $83, $C4, nBb3, nEb4, $8F, $D8, nBb4, $C0
	gStartSeq	$55
	gStop

.56_00	dc.b $C0
	gsPatch		$50
	dc.b $91, nEb4, $D2, nG4, $9D, $C0, nC4, $DE
	dc.b nF4, $91, $C0, nBb4, $D2, nD5, $9D, $C0
	dc.b nC5, $DE, nF4, $91, $C0, nG4, $D2, nD4
	dc.b $9D, $C0, nC4, $DE, nF4, $91, $C0, nF4
	dc.b $D2, nC5, $9D, $C0, nF4, $DE, nBb4, $97
	dc.b $C0, nEb4, $D8, nG4, $C0, nF4, $D8, nC4
	dc.b $C0, nBb4, $D8, nD5, $C0, nC5, $D8, nF4
	dc.b $C0, nEb5, $D8, nC5, $81, $87, $C0, nD5
	dc.b $C1, $C7, nBb4
	gStop

.56_01	dc.b $C0
	gsPatch		$50
	dc.b $AF, $F0, nF3, nF3, nF3, nF3, $81, $9F
	dc.b $CC, nF2, $8B, nBb2, $97, $D8, nF3, nG3
	dc.b nA3, $81, $9F, $CC, nBb1, $8B, nF2, $97
	dc.b $D8, nBb2, nC3, $D7, nD3
	gStop

.56_02	dc.b $C3, $C0
	gNop
	dc.b $C0
	gsPatch		$5F
	dc.b $97, $D8, nG5, nF5, nD6, nC6, nEb6, $81
	dc.b $87, $C1, $C7, nD6
	gStop

.56_03	dc.b $C3, $C0
	gNop
	dc.b $C0
	gsPatch		$3A
	dc.b $8B, $CC, nF3, nBb3, nF4, nBb3, nG4, nBb3
	dc.b $97, $D8, nA4, $8B, $CC, nBb2, nF3, nBb3
	dc.b nF3, nC4, nF3, $97, $D7, nD4
	gStop

.56_04	dc.b $D2
	gsTempo		70
	dc.b $DE
	gsTempo		50
	dc.b $D2
	gsTempo		70
	dc.b $DE
	gsTempo		50
	dc.b $D2
	gsTempo		70
	dc.b $DE
	gsTempo		50
	dc.b $D2
	gsTempo		70
	dc.b $DE
	gsTempo		50
	dc.b $C0
	gsTempo		60
	gStop

.5A_00	dc.b $C0
	gsPrio		$00
	gSFX
	gsPatch		$74
	dc.b $98, $D8, nB4
	gStop

.5B_00	gLoopStart	$0A
	dc.b $C0
	gNop
	gSFX
	gsPatch		$73
	dc.b $82, $C3, nE4, nFs4, nAb4, nBb4, nB4, nCs5
	dc.b nEb5, nE5, nE5, nEb5, nCs5, nB4, nBb4, nAb4
	dc.b nFs4, nE4, $C0
	gLoopEnd
	gStop

.5C_00	dc.b $C0
	gsPrio		$7D
	gSFX
	gsPatch		$00
	gsSampleRate	$05
	dc.b $98, $D8, nA4
	gStop

.5D_00	dc.b $C0
	gsPrio		$7D
	gSFX
	gsPatch		$00
	dc.b $98, $D8, nE5
	gStop

.5E_00	dc.b $C0
	gsPrio		$7D
	gSFX
	gsPatch		$00
	dc.b $98, $D8, nFs5
	gStop

.5F_00	dc.b $C0
	gsPrio		$7D
	gSFX
	gsPatch		$00
	dc.b $98, $D8, nAb5
	gStop

.60_00	dc.b $C0
	gsPrio		$7D
	gSFX
	gsPatch		$00
	dc.b $98, $D8, nBb5
	gStop

.61_00	dc.b $C0
	gsPrio		$7D
	gSFX
	gsPatch		$00
	dc.b $98, $D8, nC6
	gStop

.62_00	dc.b $C0
	gsPrio		$7E
	gSFX
	gsPatch		$79
	dc.b $82, $C3, nB3, nEb4, nFs4, nB4, nEb5, nFs5
	dc.b nB5, nEb6, nFs6, nB6, nEb7, $C2, nFs7
	gStop

.63_00	dc.b $C0
	gsPrio		$7E
	gSFX
	gsPatch		$00
	gsSampleRate	$0A
	dc.b $88, $C8, nD4, $C0
	gsSampleRate	$09
	dc.b $86, $C6, nD4, $C0
	gsSampleRate	$08
	dc.b $C6, nD4, $C0
	gsSampleRate	$07
	dc.b $C6, nD4, $C0
	gsSampleRate	$06
	dc.b $85, $C5, nD4
	gStop

.64_00	dc.b $C0
	gsVolume	$09
	gsPrio		$7E
	gSFX
	gsPatch		$78
	dc.b $81, $88, $C1, $C8, nAb7
	gStop

.65_00	dc.b $C0
	gsPrio		$7F
	gSFX
	gsPatch		$00
	gsSampleRate	$09
	dc.b $9E, $DE, nBb4
	gStop

.66_00	dc.b $C0
	gsPrio		$7E
	gSFX
	gsPatch		$00
	dc.b $98, $D8, nD6
	gStop

.67_00	dc.b $C0
	gsPrio		$7D
	gSFX
	gsPatch		$79
	dc.b $83, nEb4, nB3, $C6, nFs4, $C0, nFs4, nEb4
	dc.b $C6, nB4, $C0, nEb5, nB4, $C6, nFs4, $C0
	dc.b nEb5, nFs5, $C6, nB4, $C0, nFs5, nEb5, $C3
	dc.b nB5
	gStop

.68_00	dc.b $C0
	gSFX
	gsPatch		$7B
	dc.b $83, $C6, nBb7, $C3, nAb7
	gStop

.69_00	dc.b $C0
	gsPrio		$7E
	gSFX
	gsPatch		$00
	dc.b $98, $D8, nEb6
	gStop

.6A_00	dc.b $C0
	gsPrio		$7E
	gSFX
	gsPatch		$00
	gsSampleRate	$05
	dc.b $98, $D8, nC6
	gStop

.6B_00	dc.b $C0
	gsPrio		$7E
	gSFX
	gsPatch		$00
	gsSampleRate	$06
	dc.b $98, $D8, nAb5
	gStop

.6C_00	dc.b $C0
	gsPrio		$7E
	gSFX
	gsPatch		$00
	gsSampleRate	$09
	dc.b $98, $D8, nA5
	gStop

.6D_00	dc.b $C0
	gsPrio		$7E
	gSFX
	gsPatch		$00
	gsSampleRate	$0A
	dc.b $98, $D8, nEb5
	gStop

.6D_01	dc.b $C0
	gsVolume	$07
	gsPrio		$7E
	gSFX
	dc.b $C3
	gsPatch		$6B
	dc.b $B0, $F0, nFs0
	gStop

.6D_02	dc.b $C0
	gsVolume	$0B
	gsPrio		$7E
	gSFX
	gsPatch		$34
	dc.b $9B, $DB, nB3
	gStop

.6E_00	dc.b $C0
	gsVolume	$0C
	gsPrio		$64
	gSFX
	gsPatch		$7C
	dc.b $98, $D8, nB3
	gStop

.70_00	dc.b $C0
	gsPrio		$7F
	gSFX
	gsPatch		$00
	dc.b $98, $D8, nG4
	gStop

.71_00	dc.b $C0
	gsPrio		$7D
	gSFX
	gsPatch		$00
	dc.b $98, $D8, nCs5
	gStop
