	gSetOffset
	gOffset .00
	gOffset .01
	gOffset .02
	gOffset .03
	gOffset .04
	gOffset .05
	gOffset .06
	gOffset .07
	gOffset .08
	gOffset .09
	gOffset .0A
	gOffset .0B
	gOffset .0C
	gOffset .0D
	gOffset .0E
	gOffset .0F
	gOffset .10
	gOffset .11
	gOffset .12
	gOffset .13
	gOffset .14
	gOffset .15
	gOffset .16
	gOffset .17
	gOffset .18
	gOffset .19
	gOffset .1A
	gOffset .1B
	gOffset .1C
	gOffset .1D
	gOffset .1E
	gOffset .1F
	gOffset .20
	gOffset .21
	gOffset .22
	gOffset .23
	gOffset .24
	gOffset .25
	gOffset .26
	gOffset .27
	gOffset .28
	gOffset .29
	gOffset .2A
	gOffset .2B
	gOffset .2C
	gOffset .2D
	gOffset .2E
	gOffset .2F
	gOffset .30
	gOffset .31
	gOffset .32
	gOffset .33
	gOffset .34
	gOffset .35
	gOffset .36
	gOffset .37
	gOffset .38
	gOffset .39
	gOffset .3A
	gOffset .3B
	gOffset .3C
	gOffset .3D
	gOffset .3E
	gOffset .3F
	gOffset .40
	gOffset .41
	gOffset .42
	gOffset .43
	gOffset .44
	gOffset .45
	gOffset .46
	gOffset .47
	gOffset .48
	gOffset .49
	gOffset .4A
	gOffset .4B
	gOffset .4C
	gOffset .4D
	gOffset .4E
	gOffset .4F
	gOffset .50
	gOffset .51
	gOffset .52
	gOffset .53
	gOffset .54
	gOffset .55
	gOffset .56
	gOffset .57
	gOffset .58
	gOffset .59
	gOffset .5A
	gOffset .5B
	gOffset .5C
	gOffset .5D
	gOffset .5E
	gOffset .5F
	gOffset .60
	gOffset .61
	gOffset .62
	gOffset .63
	gOffset .64
	gOffset .65
	gOffset .66
	gOffset .67
	gOffset .68
	gOffset .69
	gOffset .6A
	gOffset .6B
	gOffset .6C
	gOffset .6D
	gOffset .6E
	gOffset .6F
	gOffset .70
	gOffset .71
	gOffset .72
	gOffset .73
	gOffset .74
	gOffset .75
	gOffset .76
	gOffset .77
	gOffset .78
	gOffset .79
	gOffset .7A
	gOffset .7B
	gOffset .7C
	gOffset .7D

.00	dc.b $00

.01	dc.b $0E
	gChannel .01_00
	gChannel .01_01
	gChannel .01_02
	gChannel .01_03
	gChannel .01_04
	gChannel .01_05
	gChannel .01_06
	gChannel .01_07
	gChannel .01_08
	gChannel .01_09
	gChannel .01_0A
	gChannel .01_0B
	gChannel .01_0C
	gChannel .01_0D

.02	dc.b $0A
	gChannel .02_00
	gChannel .02_01
	gChannel .02_02
	gChannel .02_03
	gChannel .02_04
	gChannel .02_05
	gChannel .02_06
	gChannel .02_07
	gChannel .02_08
	gChannel .02_09

.03	dc.b $0A
	gChannel .03_00
	gChannel .03_01
	gChannel .03_02
	gChannel .03_03
	gChannel .03_04
	gChannel .03_05
	gChannel .03_06
	gChannel .03_07
	gChannel .03_08
	gChannel .03_09

.04	dc.b $09
	gChannel .04_00
	gChannel .04_01
	gChannel .04_02
	gChannel .04_03
	gChannel .04_04
	gChannel .04_05
	gChannel .04_06
	gChannel .04_07
	gChannel .04_08

.05	dc.b $09
	gChannel .05_00
	gChannel .05_01
	gChannel .05_02
	gChannel .05_03
	gChannel .05_04
	gChannel .05_05
	gChannel .05_06
	gChannel .05_07
	gChannel .05_08

.06	dc.b $06
	gChannel .06_00
	gChannel .06_01
	gChannel .06_02
	gChannel .06_03
	gChannel .06_04
	gChannel .06_05

.07	dc.b $0A
	gChannel .07_00
	gChannel .07_01
	gChannel .07_02
	gChannel .07_03
	gChannel .07_04
	gChannel .07_05
	gChannel .07_06
	gChannel .07_07
	gChannel .07_08
	gChannel .07_09

.08	dc.b $06
	gChannel .08_00
	gChannel .08_01
	gChannel .08_02
	gChannel .08_03
	gChannel .08_04
	gChannel .08_05

.09	dc.b $05
	gChannel .09_00
	gChannel .09_01
	gChannel .09_02
	gChannel .09_03
	gChannel .09_04

.0A	dc.b $0C
	gChannel .0A_00
	gChannel .0A_01
	gChannel .0A_02
	gChannel .0A_03
	gChannel .0A_04
	gChannel .0A_05
	gChannel .0A_06
	gChannel .0A_07
	gChannel .0A_08
	gChannel .0A_09
	gChannel .0A_0A
	gChannel .0A_0B

.0B	dc.b $0A
	gChannel .0B_00
	gChannel .0B_01
	gChannel .0B_02
	gChannel .0B_03
	gChannel .0B_04
	gChannel .0B_05
	gChannel .0B_06
	gChannel .0B_07
	gChannel .0B_08
	gChannel .0B_09

.0C	dc.b $0A
	gChannel .0C_00
	gChannel .0C_01
	gChannel .0C_02
	gChannel .0C_03
	gChannel .0C_04
	gChannel .0C_05
	gChannel .0C_06
	gChannel .0C_07
	gChannel .0C_08
	gChannel .0C_09

.0D	dc.b $0A
	gChannel .0D_00
	gChannel .0D_01
	gChannel .0D_02
	gChannel .0D_03
	gChannel .0D_04
	gChannel .0D_05
	gChannel .0D_06
	gChannel .0D_07
	gChannel .0D_08
	gChannel .0D_09

.0E	dc.b $07
	gChannel .0E_00
	gChannel .0E_01
	gChannel .0E_02
	gChannel .0E_03
	gChannel .0E_04
	gChannel .0E_05
	gChannel .0E_06

.0F	dc.b $0A
	gChannel .0F_00
	gChannel .0F_01
	gChannel .0F_02
	gChannel .0F_03
	gChannel .0F_04
	gChannel .0F_05
	gChannel .0F_06
	gChannel .0F_07
	gChannel .0F_08
	gChannel .0F_09

.10	dc.b $00

.11	dc.b $00

.12	dc.b $00

.13	dc.b $01
	gChannel .13_00

.14	dc.b $01
	gChannel .14_00

.15	dc.b $01
	gChannel .15_00

.16	dc.b $02
	gChannel .16_00
	gChannel .16_01

.17	dc.b $01
	gChannel .17_00

.18	dc.b $00

.19	dc.b $01
	gChannel .19_00

.1A	dc.b $01
	gChannel .1A_00

.1B	dc.b $01
	gChannel .1B_00

.1C	dc.b $01
	gChannel .1C_00

.1D	dc.b $02
	gChannel .1D_00
	gChannel .1D_01

.1E	dc.b $02
	gChannel .1E_00
	gChannel .1E_01

.1F	dc.b $00

.20	dc.b $02
	gChannel .20_00
	gChannel .20_01

.21	dc.b $01
	gChannel .21_00

.22	dc.b $00

.23	dc.b $02
	gChannel .23_00
	gChannel .23_01

.24	dc.b $01
	gChannel .24_00

.25	dc.b $01
	gChannel .25_00

.26	dc.b $03
	gChannel .26_00
	gChannel .26_01
	gChannel .26_02

.27	dc.b $00

.28	dc.b $02
	gChannel .28_00
	gChannel .28_01

.29	dc.b $00

.2A	dc.b $00

.2B	dc.b $01
	gChannel .2B_00

.2C	dc.b $00

.2D	dc.b $01
	gChannel .2D_00

.2E	dc.b $01
	gChannel .2E_00

.2F	dc.b $01
	gChannel .2F_00

.30	dc.b $01
	gChannel .30_00

.31	dc.b $00

.32	dc.b $00

.33	dc.b $01
	gChannel .33_00

.34	dc.b $02
	gChannel .34_00
	gChannel .34_01

.35	dc.b $01
	gChannel .35_00

.36	dc.b $01
	gChannel .36_00

.37	dc.b $02
	gChannel .37_00
	gChannel .37_01

.38	dc.b $00

.39	dc.b $01
	gChannel .39_00

.3A	dc.b $01
	gChannel .3A_00

.3B	dc.b $01
	gChannel .3B_00

.3C	dc.b $00

.3D	dc.b $01
	gChannel .3D_00

.3E	dc.b $00

.3F	dc.b $01
	gChannel .3F_00

.40	dc.b $01
	gChannel .40_00

.41	dc.b $01
	gChannel .41_00

.42	dc.b $01
	gChannel .42_00

.43	dc.b $00

.44	dc.b $00

.45	dc.b $01
	gChannel .45_00

.46	dc.b $00

.47	dc.b $01
	gChannel .47_00

.48	dc.b $00

.49	dc.b $01
	gChannel .49_00

.4A	dc.b $00

.4B	dc.b $01
	gChannel .4B_00

.4C	dc.b $01
	gChannel .4C_00

.4D	dc.b $01
	gChannel .4D_00

.4E	dc.b $01
	gChannel .4E_00

.4F	dc.b $00

.50	dc.b $01
	gChannel .50_00

.51	dc.b $01
	gChannel .51_00

.52	dc.b $01
	gChannel .52_00

.53	dc.b $01
	gChannel .53_00

.54	dc.b $01
	gChannel .54_00

.55	dc.b $01
	gChannel .55_00

.56	dc.b $01
	gChannel .56_00

.57	dc.b $00

.58	dc.b $00

.59	dc.b $00

.5A	dc.b $01
	gChannel .5A_00

.5B	dc.b $01
	gChannel .5B_00

.5C	dc.b $01
	gChannel .5C_00

.5D	dc.b $01
	gChannel .5D_00

.5E	dc.b $01
	gChannel .5E_00

.5F	dc.b $01
	gChannel .5F_00

.60	dc.b $01
	gChannel .60_00

.61	dc.b $01
	gChannel .61_00

.62	dc.b $01
	gChannel .62_00

.63	dc.b $01
	gChannel .63_00

.64	dc.b $01
	gChannel .64_00

.65	dc.b $01
	gChannel .65_00

.66	dc.b $01
	gChannel .66_00

.67	dc.b $01
	gChannel .67_00

.68	dc.b $01
	gChannel .68_00

.69	dc.b $01
	gChannel .69_00

.6A	dc.b $01
	gChannel .6A_00

.6B	dc.b $00

.6C	dc.b $00

.6D	dc.b $00

.6E	dc.b $00

.6F	dc.b $00

.70	dc.b $01
	gChannel .70_00

.71	dc.b $01
	gChannel .71_00

.72	dc.b $01
	gChannel .72_00

.73	dc.b $01
	gChannel .73_00

.74	dc.b $01
	gChannel .74_00

.75	dc.b $01
	gChannel .75_00

.76	dc.b $01
	gChannel .76_00

.77	dc.b $01
	gChannel .77_00

.78	dc.b $01
	gChannel .78_00

.79	dc.b $01
	gChannel .79_00

.7A	dc.b $01
	gChannel .7A_00

.7B	dc.b $02
	gChannel .7B_00
	gChannel .7B_01

.7C	dc.b $02
	gChannel .7C_00
	gChannel .7C_01

.7D	dc.b $01
	gChannel .7D_00

.01_00	dc.b $C0
	gsTempo		145
	gLoopStart
	dc.b $D6, $E0
	gNop
	dc.b $C0
	gsPatch		$7F
	dc.b $88, $C6, nC4, nC4, $C1, $D4, nC4, $C0
	gLoopEnd
	gStop

.01_01	gLoopStart
	dc.b $CA, $E1
	gNop
	dc.b $C0
	gsPatch		$1C
	gsVolume	$02
	dc.b $87, $C6, nE5, nFs5, nG5, $DE, nB5, $C6
	dc.b nE6, nFs6, nG6, $C3, $E9, nB6, $85, $CC
	dc.b nB3, $C6, nC4, $D2, nA3, nB3, $86, nFs4
	dc.b $85, $CC, nB4, nA3, nB3, $C6, nC4, $86
	dc.b $D2, nA3, $85, nB3, nFs4, $D8, nB4, $CC
	dc.b nB3, $C6, nC4, $D2, nA3, nB3, $86, nFs4
	dc.b $85, $CC, nB4, nA3, nB3, $C6, nC4, $86
	dc.b $D2, nA3, $85, nB3, nFs4, $C3, $CC, nB4
	dc.b $C0
	gLoopEnd
	gStop

.01_02	gLoopStart
	dc.b $CA, $F8
	gNop
	dc.b $C0
	gsPatch		$79
	gsVolume	$03
	dc.b $87, $C6, nE5, nFs5, nG5, $DE, nB5, $C6
	dc.b nE6, nFs6, nG6, $C3, $C6, nB6, $86, $D8
	dc.b nB4, $85, $CC, nB3, $C6, nC4, $D2, nA3
	dc.b $86, nB3, nFs4, $CC, nB4, nA3, $85, nB3
	dc.b $C6, nC4, $86, $D2, nA3, nB3, nFs4, $D8
	dc.b nB4, $85, $CC, nB3, $C6, nC4, $D2, nA3
	dc.b nB3, $86, nFs4, $85, $CC, nB4, nA3, nB3
	dc.b $C6, nC4, $86, $D2, nA3, nB3, $C3, $D2
	dc.b nFs4, $C0
	gLoopEnd
	gStop

.01_03	gLoopStart
	dc.b $CF, $CC
	gNop
	dc.b $C0
	gsPatch		$0E
	gsVolume	$09
	dc.b $86, $CC, nB4, $87, nA3, $85, nB3, $84
	dc.b $C6, nC4, $85, $CC, nA3, $92, $D2, nB3
	dc.b $8A, $C0, nB4, $C1
	gPitBend	$0020
	gPitBend	$014A
	dc.b $C0
	gPitBend	$02F6
	dc.b $CA
	gPitBend	$03FE
	dc.b $86, $C8, nB4, $C1
	gPitBend	$035A
	dc.b $C0
	gPitBend	$0210
	dc.b $C1
	gPitBend	$0108
	gPitBend	$0062
	dc.b $CD
	gPitBend	$0000
	dc.b $87, $CC, nA3, $83, nB3, $C6, nC4, $85
	dc.b $CC, nA3, $D2, nB3, $D6, nB3, $C2
	gPitBend	$0000
	dc.b $C1
	gPitBend	$0000
	gPitBend	$0000
	dc.b $C2
	gPitBend	$0000
	gPitBend	$0000
	dc.b $C1
	gPitBend	$0000
	gPitBend	$0008
	dc.b $C2, $F8
	gPitBend	$0008
	dc.b $86, $CC, nB4, $87, nA3, $85, nB3, $83
	dc.b $C6, nC4, $85, $CC, nA3, $90, $D2, nB3
	dc.b $8A, $C0, nB4, $C1
	gPitBend	$0020
	gPitBend	$014A
	dc.b $C0
	gPitBend	$02F6
	dc.b $D6
	gPitBend	$03FE
	dc.b $C1
	gPitBend	$0000
	gPitBend	$0008
	gPitBend	$0008
	gPitBend	$0008
	dc.b $C2
	gPitBend	$0008
	dc.b $C1
	gPitBend	$0008
	dc.b $C1, $CD
	gPitBend	$0008
	dc.b $C0
	gLoopEnd
	gStop

.01_04	gLoopStart
	dc.b $D5, $D2
	gNop
	dc.b $C0
	gsPatch		$16
	gsVolume	$0D
	dc.b $86, $CC, nB4, $87, nA3, $85, nB3, $84
	dc.b $C6, nC4, $85, $CC, nA3, $92, $D2, nB3
	dc.b $8C, $C1, $E6, nB4, $C0
	gLoopEnd
	gStop

.01_05	gLoopStart
	dc.b $C7, $DD
	gNop
	dc.b $C0
	gsPatch		$2D
	gsVolume	$25
	dc.b $C3
	gPitBend	$0000
	dc.b $83, $80, $C0, nC3, $CA, nB1, $C5
	gPitBend	$014A
	dc.b $C7
	gPitBend	$016A
	dc.b $C9
	gPitBend	$018C
	dc.b $CC
	gPitBend	$01AC
	dc.b $D3
	gPitBend	$01CE
	dc.b $D2
	gPitBend	$01EE
	dc.b $CC
	gPitBend	$0210
	dc.b $CB
	gPitBend	$0230
	dc.b $D1
	gPitBend	$0252
	dc.b $CA
	gPitBend	$0272
	dc.b $CD
	gPitBend	$0294
	dc.b $CB
	gPitBend	$02B4
	dc.b $CA
	gPitBend	$02D6
	dc.b $CB
	gPitBend	$02F6
	gPitBend	$0318
	dc.b $C8
	gPitBend	$0338
	dc.b $C4
	gPitBend	$0000
	dc.b $CD, $DA
	gPitBend	$0008
	dc.b $C0
	gLoopEnd
	gStop

.01_06	gLoopStart
	dc.b $C3, $C0
	gNop
	dc.b $C0
	gsPatch		$0A
	gsVolume	$11
	dc.b $8D, $D2, nB2, $85, nB2, $CC, nB2, $87
	dc.b $F0, nB2, $8C, $D2, nB2, $86, nB2, $85
	dc.b $CC, nB2, $87, $D2, nB2, $86, nB2, $8C
	dc.b $CC, nC3, $8D, $D2, nB2, $85, nB2, $CC
	dc.b nB2, $87, $F0, nB2, $8C, $D2, nB2, $86
	dc.b nB2, $85, $CC, nB2, $87, $D2, nB2, $86
	dc.b nB2, $8C, $CC, nC3, $8D, $D2, nB2, $85
	dc.b nB2, $CC, nB2, $87, $F0, nB2, $81, $9B
	dc.b $C1, $E0, nB1, $8D, $D2, nB2, $85, nB2
	dc.b $CC, nB2, $87, $F0, nB2, $8C, $D2, nB2
	dc.b $86, nB2, $85, $CC, nB2, $87, $D2, nB2
	dc.b $86, nB2, $8C, $CC, nC3, $90, $C1, $E0
	dc.b nB2, nB2, $8E, $D2, nB2, $86, nB2, $CC
	dc.b nB2, $87, $F0, nB2, $8C, $D2, nB2, $87
	dc.b nB2, $86, $CC, nB2, $D2, nB2, $87, nB2
	dc.b $8C, $CC, nC3, $92, $C1, $E0, nB2, $83
	dc.b $C6, nB2, nB2, $88, $CC, nB2, $83, $C6
	dc.b nB2, nB2, nB2, nB2, $88, $CC, nB2, $83
	dc.b $C6, nB2, $88, $CC, nB2, $83, $C6, nB2
	dc.b $89, $CC, nA2, $C0
	gLoopEnd
	gStop

.01_07	gLoopStart
	dc.b $C3, $CC
	gNop
	dc.b $C0
	gsPatch		$09
	gsVolume	$15
	dc.b $8D, $D2, nB2, $85, nB2, $CC, nB2, $87
	dc.b $F0, nB2, $8C, $D2, nB2, $86, nB2, $85
	dc.b $CC, nB2, $87, $D2, nB2, $86, $DE, nB2
	dc.b $8D, $D2, nB2, $85, nB2, $CC, nB2, $87
	dc.b $F0, nB2, $8C, $D2, nB2, $86, nB2, $85
	dc.b $CC, nB2, $87, $D2, nB2, $86, $DE, nB2
	dc.b $8D, $D2, nB2, $85, nB2, $CC, nB2, $87
	dc.b $C2, $D0, nB2, $8D, $D2, nB2, $85, nB2
	dc.b $CC, nB2, $87, $F0, nB2, $8C, $D2, nB2
	dc.b $86, nB2, $85, $CC, nB2, $87, $D2, nB2
	dc.b $86, $C3, $DE, nB2, $8E, $D2, nB2, $86
	dc.b nB2, $CC, nB2, $87, $F0, nB2, $8C, $D2
	dc.b nB2, $87, nB2, $86, $CC, nB2, $D2, nB2
	dc.b $87, $E4, nB2, $92, $C2, $EE, nB2, $C0
	gLoopEnd
	gStop

.01_08	gLoopStart
	dc.b $CA, $E0
	gNop
	dc.b $C0
	gsPatch		$35
	gsVolume	$13
	dc.b $81, $9C, $C1, nB1
	gPitBend	$FEB8
	gPitBend	$FEC0
	gPitBend	$00C8
	dc.b $C4
	gPitBend	$00B8
	dc.b $C1
	gPitBend	$00B0
	gPitBend	$00A8
	dc.b $C2
	gPitBend	$00A0
	gPitBend	$0098
	dc.b $C1
	gPitBend	$0090
	gPitBend	$0088
	dc.b $C2
	gPitBend	$0080
	dc.b $C1
	gPitBend	$0078
	gPitBend	$0070
	gPitBend	$0068
	gPitBend	$0060
	dc.b $C2
	gPitBend	$0050
	dc.b $C1
	gPitBend	$0048
	gPitBend	$0040
	gPitBend	$0038
	gPitBend	$0030
	dc.b $C2
	gPitBend	$0028
	dc.b $C1
	gPitBend	$0020
	gPitBend	$0018
	gPitBend	$0010
	dc.b $C3
	gPitBend	$0008
	dc.b $C1
	gPitBend	$0000
	gPitBend	$FFF8
	gPitBend	$FFF0
	gPitBend	$FFE8
	dc.b $C2
	gPitBend	$FFE0
	dc.b $C1
	gPitBend	$FFD0
	dc.b $C2
	gPitBend	$FFC8
	dc.b $C1
	gPitBend	$FFC0
	dc.b $C3
	gPitBend	$FFB8
	dc.b $C2
	gPitBend	$FFA8
	dc.b $C1
	gPitBend	$FFA0
	dc.b $C2
	gPitBend	$FF98
	dc.b $C1
	gPitBend	$FF90
	gPitBend	$FF88
	gPitBend	$FF80
	gPitBend	$FF78
	dc.b $C2
	gPitBend	$FF70
	dc.b $C1
	gPitBend	$FF68
	gPitBend	$FF60
	dc.b $C2
	gPitBend	$FF58
	gPitBend	$FF50
	dc.b $C1
	gPitBend	$FF48
	dc.b $C2
	gPitBend	$FF40
	dc.b $C1
	gPitBend	$FF30
	dc.b $C4
	gPitBend	$FF28
	dc.b $C1
	gPitBend	$FF20
	gPitBend	$FF18
	dc.b $C2
	gPitBend	$FF10
	dc.b $C1
	gPitBend	$FF08
	gPitBend	$FF00
	gPitBend	$FEF8
	gPitBend	$FEF0
	dc.b $C4
	gPitBend	$FEE8
	dc.b $C2
	gPitBend	$FEE0
	gPitBend	$FED8
	dc.b $C1
	gPitBend	$FEE8
	gPitBend	$FEC0
	dc.b $C4
	gPitBend	$FED8
	dc.b $CC, $C0
	gPitBend	$0000
	dc.b $C0
	gLoopEnd
	gStop

.01_09	gLoopStart
	dc.b $C3, $C0
	gNop
	dc.b $C0
	gsPatch		$4A
	gsVolume	$16
	dc.b $8D, $D2, nB1, $8C, nB1, $86, $CC, nB1
	dc.b $8C, $D2, nB1, $8E, nB1, $8B, $CC, nA1
	dc.b $8E, $D2, nB1, $8B, nB1, $86, $CC, nB1
	dc.b $8C, $D2, nB1, $8F, nB1, $8A, $CC, nC2
	dc.b $8C, $D2, nB1, $8D, nB1, $87, $CC, nB1
	dc.b $8D, $D2, nB1, $8E, nB1, $8B, $CC, nA1
	dc.b $D2, nB1, nB1, $86, $CC, nB1, $8C, $D2
	dc.b nB1, $90, nB1, $8C, $CC, nB2, $8D, $D2
	dc.b nB1, $8C, nB1, $86, $CC, nB1, $8C, $D2
	dc.b nB1, $8E, nB1, $8B, $C1, $EC, nA1, $8D
	dc.b $D2, nB1, $8C, nB1, $86, $CC, nB1, $8C
	dc.b $D2, nB1, $8E, nB1, $8B, $CC, nA1, $8E
	dc.b $D2, nB1, $8B, nB1, $86, $CC, nB1, $8C
	dc.b $D2, nB1, $8F, nB1, $8A, $CC, nC2, $8C
	dc.b $D2, nB1, $8D, nB1, $87, $CC, nB1, $8D
	dc.b $D2, nB1, $8E, nB1, $8B, $CC, nA1, $D2
	dc.b nB1, nB1, $86, $CC, nB1, $8C, $D2, nB1
	dc.b $90, nB1, $8C, $CC, nB2, $8D, $D2, nB1
	dc.b $8A, nB1, $86, $CC, nB1, $8D, $D2, nB1
	dc.b $90, nB1, $8A, $CC, nA1, $8D, $D2, nB1
	dc.b $8C, nB1, $87, $CC, nB1, $8D, $D2, nB1
	dc.b $90, nB1, $8A, $CC, nC2, $8D, $D2, nB1
	dc.b $8B, nB1, $86, $CC, nB1, $8D, $D2, nB1
	dc.b $8F, nB1, $8A, $CC, nA1, $8D, $C1, $E0
	dc.b nB1, $C0
	gLoopEnd
	gStop

.01_0A	gLoopStart
	dc.b $C0
	gNop
	gsPatch		$18
	gsVolume	$1E
	dc.b $8E, $D2, nB1, $84, nD2, $83, $CC, nD2
	dc.b $84, $D2, nD2, $83, nD2, $84, $CC, nD2
	dc.b $8F, $D2, nB1, $85, nD2, $83, $CC, nD2
	dc.b $84, $E4, nD2, $CC, nD2, $8F, $D2, nB1
	dc.b $84, nD2, $CC, nD2, $D2, nD2, $83, nD2
	dc.b $84, $CC, nD2, $90, $D2, nB1, $84, nD2
	dc.b $CC, nD2, $85, $D2, nD2, $84, nD2, $CC
	dc.b nD2, $90, $D2, nB1, $84, nD2, $CC, nD2
	dc.b $85, $D2, nD2, $84, nD2, $D0, $EC, nD2
	dc.b $C0
	gLoopEnd
	gStop

.01_0B	gLoopStart
	dc.b $C3, $C0
	gNop
	dc.b $C0
	gsPatch		$3F
	gsVolume	$09
	dc.b $83, $D8, nB2, nB2, nB2, nB2, nB2, nB2
	dc.b nB2, nB2, nB2, nB2, nB2, nB2, nB2, nB2
	dc.b nB2, nB2, nB2, nB2, nB2, nB2, $C1, $E0
	dc.b nB2, $D8, nB2, nB2, nB2, nB2, nB2, nB2
	dc.b nB2, nB2, nB2, nB2, nB2, nB2, nB2, nB2
	dc.b nB2, nB2, nB2, nB2, nB2, nB2, nB2, nB2
	dc.b nB2, nB2, nB2, nB2, nB2, nB2, $C1, $E0
	dc.b nB2, $C0
	gLoopEnd
	gStop

.01_0C	gLoopStart
	dc.b $CC, $CC
	gNop
	dc.b $C0
	gsPatch		$3A
	gsVolume	$13
	dc.b $84, $CC, nB3, $C6, nC4, $86, $D2, nA3
	dc.b $85, nB3, nFs4, $CC, nB4, nA3, $84, nB3
	dc.b $C6, nC4, $86, $D2, nA3, $85, nB3, nFs4
	dc.b $C9, $CC, nB4, $C0
	gLoopEnd
	gStop

.01_0D	gLoopStart
	dc.b $CC, $C0
	gNop
	dc.b $C0
	gsPatch		$39
	gsVolume	$16
	dc.b $85, $D8, nB4, $84, $CC, nB3, $C6, nC4
	dc.b $86, $D2, nA3, $85, nB3, nFs4, $CC, nB4
	dc.b nA3, $84, nB3, $C6, nC4, $86, $D2, nA3
	dc.b $85, nB3, $C9, $D2, nFs4, $C0
	gLoopEnd
	gStop

.02_00	dc.b $C0
	gsTempo		142
	gLoopStart
	dc.b $C6, $C0
	gNop
	dc.b $C0
	gsPatch		$3F
	gsVolume	$0B
	dc.b $84, $D8, nB2, nB2, nB2, nB2, nB2, nB2
	dc.b nB2, nB2, nB2, nB2, nB2, nB2, nB2, nB2
	dc.b nB2, nB2, nB2, nB2, nB2, nB2, nB2, nB2
	dc.b nB2, nB2, nB2, nB2, nB2, nB2, nB2, nB2
	dc.b nB2, nB2, nB2, nB2, nB2, nB2, nB2, nB2
	dc.b nB2, nB2, nB2, nB2, nB2, nB2, nB2, nB2
	dc.b nB2, nB2, nB2, nB2, nB2, nB2, nB2, nB2
	dc.b nB2, nB2, nB2, nB2, nB2, nB2, nB2, nB2
	dc.b nB2, nB2, nB2, nB2, nB2, nB2, nB2, nB2
	dc.b nB2, nB2, nB2, nB2, nB2, nB2, nB2, nB2
	dc.b nB2, $C4, $F8, nB2, $D8, nB2, nB2, nB2
	dc.b nB2, nB2, nB2, nB2, nB2, nB2, nB2, nB2
	dc.b nB2, nB2, nB2, nB2, nB2, nB2, nB2, nB2
	dc.b nB2, nB2, nB2, nB2, nB2, nB2, nB2, nB2
	dc.b nB2, nB2, nB2, nB2, nB2, nB2, nB2, nB2
	dc.b $C1, $F8, nB2, $D8, nB2, nB2, nB2, nB2
	dc.b $C0
	gLoopEnd
	gStop

.02_01	gLoopStart
	dc.b $C7, $EC
	gNop
	dc.b $C0
	gsPatch		$4A
	gsVolume	$10
	dc.b $8C, $C1, $E0, nE1, nE1, nE1, nC1, nE1
	dc.b nE1, nE1, nA1, nC1, nC1, nB0, nB0, nE1
	dc.b nE1, nE1, nC1, nE1, nE1, $C9, $C0, nE1
	dc.b $C1, $E0, nFs1, nFs1, nFs1, nD1, nFs1, nFs1
	dc.b $C4, $D4, nFs1, $C0
	gLoopEnd
	gStop

.02_02	gLoopStart
	dc.b $C6, $C0
	gNop
	dc.b $C0
	gsPatch		$00
	gsVolume	$0E
	dc.b $86, $CC, nB4, nC5, nFs5, nG5, nB5, nC5
	dc.b nFs5, $D8, nG5, $C6, nE3, nA3, $CC, nB3
	dc.b nD4, nE3, nE4, nE3, nA3, nB3, $C6, nE3
	dc.b nA3, $CC, nB3, nD4, nE3, nE4, nE3, nA3
	dc.b nB3, $C6, nE3, nA3, $CC, nB3, nD4, nE3
	dc.b nE4, nE3, nA3, nB3, nC4, nFs4, nG4, nB4
	dc.b nC4, nFs4, nG4, $C6, nE3, nA3, $CC, nB3
	dc.b nD4, nE3, nE4, nE3, $D8, nA3, $C6, nE3
	dc.b nA3, $CC, nB3, nD4, nE3, nE4, nE3, $D8
	dc.b nA3, $C6, nE3, nA3, $CC, nB3, nD4, nE3
	dc.b nE4, nE3, nA3, nB3, nC4, nFs4, nG4, nB4
	dc.b nC4, nFs4, $D8, nG4, $CC, nBb4, $C6, nC3
	dc.b nF3, $CC, nG3, nBb3, nC3, nC4, nC3, nF3
	dc.b nG3, $C6, nC3, nF3, $CC, nG3, nBb3, nC3
	dc.b nC4, nC3, $D8, nF3, $C6, nB2, nE3, $CC
	dc.b nFs3, nA3, nB2, nB3, nB2, nE3, nFs3, $C6
	dc.b nB2, nE3, $CC, nFs3, nA3, nB2, nB3, nB2
	dc.b $D8, nE3, $C6, nE3, nA3, $CC, nB3, nD4
	dc.b nE3, nE4, nE3, nA3, nB3, $C6, nE3, nA3
	dc.b $CC, nB3, nD4, nE3, nE4, nE3, nA3, nB3
	dc.b $C6, nE3, nA3, $CC, nB3, nD4, nE3, nE4
	dc.b nE3, nA3, nB3, nC4, nFs4, nG4, nB4, nC4
	dc.b nFs4, $D8, nG4, $C6, nE3, nA3, $CC, nB3
	dc.b nD4, nE3, nE4, nE3, nA3, nB3, $C6, nE3
	dc.b nA3, $CC, nB3, nD4, nE3, nE4, nE3, nA3
	dc.b nB3, $C6, nE3, nA3, $CC, nB3, nD4, nE3
	dc.b nE4, nE3, nA3, nB3, nC4, nFs4, nG4, nB4
	dc.b nC4, nFs4, nG4, $C6, nE3, nA3, $CC, nB3
	dc.b nD4, nE3, nE4, nE3, $D8, nA3, $C6, nE3
	dc.b nA3, $CC, nB3, nD4, nE3, nE4, nE3, $D8
	dc.b nA3, $C6, nE3, nA3, $CC, nB3, nD4, nE3
	dc.b nE4, nE3, nA3, nB3, nC4, nFs4, nG4, nB4
	dc.b nC4, nFs4, $D8, nG4, $CC, nE5, $C6, nFs3
	dc.b nB3, $CC, nCs4, nE4, nFs3, nFs4, nFs3, nB3
	dc.b nCs4, $C6, nFs3, nB3, $CC, nCs4, nE4, nFs3
	dc.b nFs4, nFs3, nB3, nCs4, $C6, nFs3, nB3, $CC
	dc.b nCs4, nE4, nFs3, nFs4, nFs3, nB3, nCs4, nD4
	dc.b nAb4, nA4, nCs5, nD4, nAb4, nA4, nE5, $C6
	dc.b nFs3, nB3, $CC, nCs4, nE4, nFs3, nFs4, nFs3
	dc.b nB3, nCs4, $C6, nFs3, nB3, $CC, nCs4, nE4
	dc.b nFs3, nFs4, nFs3, nB3, nCs4, $C6, nFs3, nB3
	dc.b $CC, nCs4, nE4, nFs3, nFs4, nFs3, nB3, nCs4
	dc.b nD4, nAb4, nA4, nCs5, nD4, nAb4, $C1, $EC
	dc.b nA4, $C0
	gLoopEnd
	gStop

.02_03	gLoopStart
	dc.b $C6, $C6
	gNop
	dc.b $C0
	gsPatch		$7D
	gsVolume	$12
	dc.b $86, $CC, nA4, nB4, nC5, nFs5, nG5, nB5
	dc.b nC5, $D8, nFs5, $CC, nD5, $C6, nE3, nA3
	dc.b $CC, nB3, nD4, nE3, nE4, nE3, nA3, nB3
	dc.b $C6, nE3, nA3, $CC, nB3, nD4, nE3, nE4
	dc.b nE3, nA3, nB3, $C6, nE3, nA3, $CC, nB3
	dc.b nD4, nE3, nE4, nE3, nA3, nB3, nC4, nFs4
	dc.b nG4, nB4, nC4, $D2, nFs4, $C6, nE3, nA3
	dc.b $CC, nB3, nD4, nE3, nE4, nE3, $D8, nA3
	dc.b $C6, nE3, nA3, $CC, nB3, nD4, nE3, nE4
	dc.b nE3, $D8, nA3, $C6, nE3, nA3, $CC, nB3
	dc.b nD4, nE3, nE4, nE3, nA3, nB3, nC4, nFs4
	dc.b nG4, nB4, nC4, nFs4, $D2, nG4, $CC, nEb4
	dc.b nBb4, $C6, nC3, nF3, $CC, nG3, nBb3, nC3
	dc.b nC4, nC3, nF3, nG3, $C6, nC3, nF3, $CC
	dc.b nG3, nBb3, nC3, nC4, $D8, nC3, $CC, nA4
	dc.b $C6, nB2, nE3, $CC, nFs3, nA3, nB2, nB3
	dc.b nB2, nE3, nFs3, $C6, nB2, nE3, $CC, nFs3
	dc.b nA3, nB2, nB3, $D8, nB2, $CC, nD5, $C6
	dc.b nE3, nA3, $CC, nB3, nD4, nE3, nE4, nE3
	dc.b nA3, nB3, $C6, nE3, nA3, $CC, nB3, nD4
	dc.b nE3, nE4, nE3, nA3, nB3, $C6, nE3, nA3
	dc.b $CC, nB3, nD4, nE3, nE4, nE3, nA3, nB3
	dc.b nC4, nFs4, nG4, nB4, nC4, $D8, nFs4, $CC
	dc.b nD5, $C6, nE3, nA3, $CC, nB3, nD4, nE3
	dc.b nE4, nE3, nA3, nB3, $C6, nE3, nA3, $CC
	dc.b nB3, nD4, nE3, nE4, nE3, nA3, nB3, $C6
	dc.b nE3, nA3, $CC, nB3, nD4, nE3, nE4, nE3
	dc.b nA3, nB3, nC4, nFs4, nG4, nB4, nC4, $D2
	dc.b nFs4, $C6, nE3, nA3, $CC, nB3, nD4, nE3
	dc.b nE4, nE3, $D8, nA3, $C6, nE3, nA3, $CC
	dc.b nB3, nD4, nE3, nE4, nE3, $D8, nA3, $C6
	dc.b nE3, nA3, $CC, nB3, nD4, nE3, nE4, nE3
	dc.b nA3, nB3, nC4, nFs4, nG4, nB4, nC4, nFs4
	dc.b $D2, nG4, $CC, nA4, nE5, $C6, nFs3, nB3
	dc.b $CC, nCs4, nE4, nFs3, nFs4, nFs3, nB3, nCs4
	dc.b $C6, nFs3, nB3, $CC, nCs4, nE4, nFs3, nFs4
	dc.b nFs3, nB3, nCs4, $C6, nFs3, nB3, $CC, nCs4
	dc.b nE4, nFs3, nFs4, nFs3, nB3, nCs4, nD4, nAb4
	dc.b nA4, nCs5, nD4, nAb4, nA4, nE5, $C6, nFs3
	dc.b nB3, $CC, nCs4, nE4, nFs3, nFs4, nFs3, nB3
	dc.b nCs4, $C6, nFs3, nB3, $CC, nCs4, nE4, nFs3
	dc.b nFs4, nFs3, nB3, nCs4, $C6, nFs3, nB3, $CC
	dc.b nCs4, nE4, nFs3, nFs4, nFs3, nB3, nCs4, nD4
	dc.b nAb4, nA4, nCs5, nD4, $C1, $E6, nAb4, $C0
	gLoopEnd
	gStop

.02_04	gLoopStart
	dc.b $C1, $E0
	gNop
	dc.b $C0
	gsPatch		$2E
	gsVolume	$0B
	dc.b $85, $C6, nE3, nA3, $CC, nB3, nD4, nE3
	dc.b nE4, nE3, nA3, nB3, $C6, nE3, nA3, $CC
	dc.b nB3, nD4, nE3, nE4, nE3, nA3, nB3, $C6
	dc.b nE3, nA3, $CC, nB3, nD4, nE3, nE4, nE3
	dc.b nA3, $C1, $EC, nB3, $C6, nE3, nA3, $CC
	dc.b nB3, nD4, nE3, nE4, nE3, nA3, nB3, $C6
	dc.b nE3, nA3, $CC, nB3, nD4, nE3, nE4, nE3
	dc.b nA3, nB3, $C6, nE3, nA3, $CC, nB3, nD4
	dc.b nE3, nE4, nE3, nA3, nB3, nC4, nFs4, nG4
	dc.b nB4, nC4, nFs4, nG4, nD5, $C6, nE3, nA3
	dc.b $CC, nB3, nD4, nE3, nE4, nE3, nA3, nB3
	dc.b $C6, nE3, nA3, $CC, nB3, nD4, nE3, nE4
	dc.b nE3, nA3, nB3, $C6, nE3, nA3, $CC, nB3
	dc.b nD4, nE3, nE4, nE3, nA3, nB3, nC4, nFs4
	dc.b nG4, nB4, nC4, nFs4, nG4, nD5, $C6, nC3
	dc.b nF3, $CC, nG3, nBb3, nC3, nC4, nC3, nF3
	dc.b nG3, $C6, nC3, nF3, $CC, nG3, nBb3, nC3
	dc.b nC4, nC3, nF3, nG3, $C6, nB2, nE3, $CC
	dc.b nFs3, nA3, nB2, nB3, nB2, nE3, nFs3, $C6
	dc.b nB2, nE3, $CC, nFs3, nA3, nB2, nB3, nB2
	dc.b nE3, nFs3, $C6, nE3, nA3, $CC, nB3, nD4
	dc.b nE3, nE4, nE3, nA3, nB3, $C6, nE3, nA3
	dc.b $CC, nB3, nD4, nE3, nE4, nE3, nA3, nB3
	dc.b $C6, nE3, nA3, $CC, nB3, nD4, nE3, nE4
	dc.b nE3, nA3, nB3, nC4, nFs4, nG4, nB4, nC4
	dc.b nFs4, nG4, nD5, $C6, nE3, nA3, $CC, nB3
	dc.b nD4, nE3, nE4, nE3, nA3, nB3, $C6, nE3
	dc.b nA3, $CC, nB3, nD4, nE3, nE4, nE3, nA3
	dc.b nB3, $C6, nE3, nA3, $CC, nB3, nD4, nE3
	dc.b nE4, nE3, nA3, nB3, nC4, nFs4, nG4, nB4
	dc.b nC4, nFs4, nG4, $C6, $CC, nD5, $C6, nFs3
	dc.b nB3, $CC, nCs4, nE4, nFs3, nFs4, nFs3, nB3
	dc.b nCs4, $C6, nFs3, nB3, $CC, nCs4, nE4, nFs3
	dc.b nFs4, nFs3, nB3, nCs4, $C6, nFs3, nB3, $CC
	dc.b nCs4, nE4, nFs3, nFs4, nFs3, nB3, nCs4, nD4
	dc.b nAb4, nA4, nCs5, nD4, nAb4, nA4, nE5, $C6
	dc.b nFs3, nB3, $CC, nCs4, nE4, nFs3, nFs4, nFs3
	dc.b nB3, nCs4, $C6, nFs3, nB3, $CC, nCs4, nE4
	dc.b nFs3, nFs4, nFs3, nB3, nCs4, $C6, nFs3, nB3
	dc.b $CC, nCs4, nE4, nFs3, nFs4, nFs3, nB3, nCs4
	dc.b nD4, nAb4, nA4, nCs5, nD4, nAb4, nA4, $C1
	dc.b $EC, nE5, $C0
	gLoopEnd
	gStop

.02_05	gLoopStart
	dc.b $C1, $F2
	gNop
	dc.b $C0
	gsPatch		$0B
	gsVolume	$10
	dc.b $85, $C6, nE3, nA3, $CC, nB3, nD4, nE3
	dc.b nE4, nE3, nA3, nB3, $C6, nE3, nA3, $CC
	dc.b nB3, nD4, nE3, nE4, nE3, nA3, nB3, $C6
	dc.b nE3, nA3, $CC, nB3, nD4, nE3, nE4, nE3
	dc.b $C1, $EC, nA3, $CC, nD5, $C6, nE3, nA3
	dc.b $CC, nB3, nD4, nE3, nE4, nE3, nA3, nB3
	dc.b $C6, nE3, nA3, $CC, nB3, nD4, nE3, nE4
	dc.b nE3, nA3, nB3, $C6, nE3, nA3, $CC, nB3
	dc.b nD4, nE3, nE4, nE3, nA3, nB3, nC4, nFs4
	dc.b nG4, nB4, nC4, nFs4, nG4, nD5, $C6, nE3
	dc.b nA3, $CC, nB3, nD4, nE3, nE4, nE3, nA3
	dc.b nB3, $C6, nE3, nA3, $CC, nB3, nD4, nE3
	dc.b nE4, nE3, nA3, nB3, $C6, nE3, nA3, $CC
	dc.b nB3, nD4, nE3, nE4, nE3, nA3, nB3, nC4
	dc.b nFs4, nG4, nB4, nC4, nFs4, nG4, nBb4, $C6
	dc.b nC3, nF3, $CC, nG3, nBb3, nC3, nC4, nC3
	dc.b nF3, nG3, $C6, nC3, nF3, $CC, nG3, nBb3
	dc.b nC3, nC4, nC3, nF3, nA4, $C6, nB2, nE3
	dc.b $CC, nFs3, nA3, nB2, nB3, nB2, nE3, nFs3
	dc.b $C6, nB2, nE3, $CC, nFs3, nA3, nB2, nB3
	dc.b nB2, nE3, nD5, $C6, nE3, nA3, $CC, nB3
	dc.b nD4, nE3, nE4, nE3, nA3, nB3, $C6, nE3
	dc.b nA3, $CC, nB3, nD4, nE3, nE4, nE3, nA3
	dc.b nB3, $C6, nE3, nA3, $CC, nB3, nD4, nE3
	dc.b nE4, nE3, nA3, nB3, nC4, nFs4, nG4, nB4
	dc.b nC4, nFs4, nG4, nD5, $C6, nE3, nA3, $CC
	dc.b nB3, nD4, nE3, nE4, nE3, nA3, nB3, $C6
	dc.b nE3, nA3, $CC, nB3, nD4, nE3, nE4, nE3
	dc.b nA3, nB3, $C6, nE3, nA3, $CC, nB3, nD4
	dc.b nE3, nE4, nE3, nA3, nB3, nC4, nFs4, nG4
	dc.b nB4, nC4, nFs4, $C6, $CC, nG4, $CC, nE5
	dc.b $C6, nFs3, nB3, $CC, nCs4, nE4, nFs3, nFs4
	dc.b nFs3, nB3, nCs4, $C6, nFs3, nB3, $CC, nCs4
	dc.b nE4, nFs3, nFs4, nFs3, nB3, nCs4, $C6, nFs3
	dc.b nB3, $CC, nCs4, nE4, nFs3, nFs4, nFs3, nB3
	dc.b nCs4, nD4, nAb4, nA4, nCs5, nD4, nAb4, nA4
	dc.b nE5, $C6, nFs3, nB3, $CC, nCs4, nE4, nFs3
	dc.b nFs4, nFs3, nB3, nCs4, $C6, nFs3, nB3, $CC
	dc.b nCs4, nE4, nFs3, nFs4, nFs3, nB3, nCs4, $C6
	dc.b nFs3, nB3, $CC, nCs4, nE4, nFs3, nFs4, nFs3
	dc.b nB3, nCs4, nD4, nAb4, nA4, nCs5, nD4, nAb4
	dc.b $C1, $E6, nA4, $C0
	gLoopEnd
	gStop

.02_06	gLoopStart
	dc.b $C0
	gNop
	gsPatch		$7C
	gsVolume	$19
	dc.b $85, $BF, nAb2, $86, $80, $C1, $CC, nAb3
	dc.b $C1
	gPitBend	$FFFE
	dc.b $C3
	gPitBend	$FFDE
	dc.b $C2
	gPitBend	$FFBC
	dc.b $C1
	gPitBend	$FF9C
	gPitBend	$FF7A
	dc.b $C2
	gPitBend	$FF38
	dc.b $C1
	gPitBend	$FF18
	gPitBend	$FED6
	gPitBend	$FEB4
	gPitBend	$FE72
	dc.b $C0
	gPitBend	$FE52
	dc.b $C1
	gPitBend	$FE30
	gPitBend	$FDEE
	gPitBend	$FDCE
	gPitBend	$FD8C
	gPitBend	$FD4A
	gPitBend	$FCE6
	dc.b $C0
	gPitBend	$FCA4
	dc.b $C1
	gPitBend	$FC62
	dc.b $C5, $E7
	gPitBend	$FC00
	dc.b $C1
	gPitBend	$FCA4
	gPitBend	$FE30
	gPitBend	$FF38
	gPitBend	$FFBC
	gPitBend	$FFFE
	dc.b $F1, $F3
	gPitBend	$0000
	dc.b $C0
	gLoopEnd
	gStop

.02_07	gLoopStart
	dc.b $C1, $E6
	gNop
	dc.b $C0
	gsPatch		$44
	gsVolume	$19
	dc.b $82, $BE, $E4, $C0, nE3, $D3, $DA, nE3
	dc.b $C0
	gLoopEnd
	gStop

.02_08	gLoopStart
	dc.b $C1, $F8
	gNop
	dc.b $C0
	gsPatch		$44
	gsVolume	$1D
	dc.b $82, $BE, $E4, $C0, nE3, $D3, $C8, nE3
	dc.b $C0
	gLoopEnd
	gStop

.02_09	gLoopStart
	dc.b $C8, $C4
	gNop
	dc.b $C0
	gsPatch		$48
	gsVolume	$0E
	dc.b $86, $D8, nB4, nB4, $F0, nB4, $D8, nB4
	dc.b nB4, $F0, nB4, $D8, nB4, nB4, $F0, nB4
	dc.b $D8, nB4, nB4, $F0, nB4, $D8, nB4, nB4
	dc.b $F0, nB4, $D8, nB4, nB4, $F0, nB4, $D8
	dc.b nB4, nB4, $F0, nB4, $D8, nB4, nB4, $F0
	dc.b nB4, $D8, nB4, nB4, $F0, nB4, $D8, nB4
	dc.b nB4, $F0, nB4, $D8, nB4, nB4, $F0, nB4
	dc.b $D8, nB4, nB4, $F0, nB4, $D8, nB4, nB4
	dc.b $F0, nB4, $D8, nB4, nB4, $F0, nB4, $D8
	dc.b nB4, nB4, $F0, nB4, $D8, nB4, nB4, $F0
	dc.b nB4, $D8, nB4, nB4, $F0, nB4, $D8, nB4
	dc.b nB4, $F0, nB4, $D8, nB4, nB4, $C8, $D0
	dc.b nB4, $D8, nB4, nB4, $F0, nB4, $D8, nB4
	dc.b nB4, $F0, nB4, $D8, nB4, nB4, $F0, nB4
	dc.b $D8, nB4, nB4, $F0, nB4, $D8, nB4, nB4
	dc.b $F0, nB4, $D8, nB4, nB4, $F0, nB4, $D8
	dc.b nB4, nB4, $F0, nB4, $D8, nB4, nB4, $C1
	dc.b $EC, nB4, $C0
	gLoopEnd
	gStop

.03_00	dc.b $C0
	gsTempo		96
	gLoopStart
	dc.b $C7, $E0
	gNop
	dc.b $C0
	gsPatch		$42
	gsVolume	$12
	dc.b $90, $D2, nCs2, $85, $F0, nCs2, $86, $C6
	dc.b nB1, $84, nCs2, nCs2, nB1, nB1, $8D, $D2
	dc.b nCs2, $86, $D8, nCs2, $84, $C6, nB1, nCs2
	dc.b nD2, nA2, nB2, $85, $D2, nCs3, $84, $C6
	dc.b nB1, $8D, $D2, nCs2, $85, $F0, nCs2, $84
	dc.b $C6, nB1, nCs2, nCs2, nB1, nB1, $8D, $D2
	dc.b nCs2, $86, $D8, nCs2, $84, $C6, nB1, nCs2
	dc.b nD2, nA2, nB2, nCs3, $85, nA2, $CC, nB2
	dc.b $8F, $D2, nE2, $84, $F0, nE2, $85, $C6
	dc.b nD2, $84, nE2, nE2, nD2, nD2, $8D, $D2
	dc.b nE2, $86, $D8, nE2, $84, $C6, nD2, nE2
	dc.b nF2, nC3, nD3, $85, $D2, nE3, $84, $C6
	dc.b nD2, $8D, $D2, nCs2, $85, $F0, nCs2, $84
	dc.b $C6, nB1, $83, nCs2, $84, nCs2, nB1, nB1
	dc.b $8D, $D2, nCs2, $86, $D8, nCs2, $84, $C6
	dc.b nB1, nCs2, nD2, nA2, nB2, nCs3, $85, nA2
	dc.b $CC, nB2, $8F, $D2, nCs2, $84, $F0, nCs2
	dc.b $85, $C6, nB1, $84, nCs2, nCs2, nB1, nB1
	dc.b $8D, $D2, nCs2, $86, $D8, nCs2, $84, $C6
	dc.b nB1, nCs2, nD2, nA2, $85, nB2, $D2, nCs3
	dc.b $83, $C6, nB1, $8D, $D2, nCs2, $85, $F0
	dc.b nCs2, $84, $C6, nB1, $83, nCs2, $84, nCs2
	dc.b nB1, nB1, $8D, $D2, nCs2, $86, $D8, nCs2
	dc.b $84, $C6, nB1, nCs2, nD2, nA2, nB2, nCs3
	dc.b $85, nA2, $CC, nB2, $8F, $D2, nCs2, $84
	dc.b $F0, nCs2, $85, $C6, nB1, $84, nCs2, nCs2
	dc.b nB1, nB1, $8D, $D2, nCs2, $86, $D8, nCs2
	dc.b $84, $C6, nB1, nCs2, nD2, nA2, nB2, $85
	dc.b $D2, nCs3, $84, $C6, nB1, $8D, $D2, nCs2
	dc.b $85, $F0, nCs2, $84, $C6, nB1, nCs2, nCs2
	dc.b nB1, nB1, $8D, $D2, nCs2, $86, $D8, nCs2
	dc.b $84, $C6, nB1, nCs2, nD2, nA2, nB2, nCs3
	dc.b $85, nA2, $CC, nB2, $8F, $D2, nE2, $84
	dc.b $F0, nE2, $85, $C6, nD2, $84, nE2, nE2
	dc.b nD2, nD2, $8D, $D2, nE2, $86, $D8, nE2
	dc.b $84, $C6, nD2, nE2, nF2, nC3, nD3, $85
	dc.b $D2, nE3, $84, $C6, nD2, $8D, $D2, nCs2
	dc.b $85, $F0, nCs2, $84, $C6, nB1, nCs2, nCs2
	dc.b nB1, nB1, $8D, $D2, nCs2, $86, $D8, nCs2
	dc.b $84, $C6, nB1, nCs2, nD2, nA2, nB2, nCs3
	dc.b $85, nA2, $CC, nB2, $8F, $D2, nEb2, $84
	dc.b $F0, nEb2, $85, $C6, nCs2, $84, nEb2, nEb2
	dc.b nCs2, nCs2, $8D, $D2, nEb2, $86, $D8, nEb2
	dc.b $84, $C6, nCs2, nEb2, nE2, nB2, nCs3, $85
	dc.b $D2, nEb3, $84, $C6, nCs2, $8D, $D2, nEb2
	dc.b $85, $F0, nEb2, $84, $C6, nCs2, nEb2, nEb2
	dc.b nCs2, nCs2, $8D, $D2, nEb2, $86, $D8, nEb2
	dc.b $84, $C6, nCs2, nEb2, nE2, nB2, nCs3, nEb3
	dc.b $85, nB2, $CC, nCs3, $8F, $D2, nF2, $84
	dc.b $F0, nF2, $85, $C6, nEb2, $84, nF2, nF2
	dc.b nEb2, nEb2, $8D, $D2, nF2, $86, $D8, nF2
	dc.b $84, $C6, nEb2, nF2, nFs2, nCs3, nEb3, $85
	dc.b $D2, nF3, $84, $C6, nEb2, $8D, $D2, nF2
	dc.b $85, $F0, nF2, $84, $C6, nEb2, nF2, nF2
	dc.b nEb2, nEb2, $8D, $D2, nF2, $86, $D8, nF2
	dc.b $84, $C6, nEb2, nF2, nFs2, nCs3, nEb3, nF3
	dc.b $85, nCs3, $CC, nEb3, $8F, $D2, nAb2, $84
	dc.b $F0, nAb2, $85, $C6, nFs2, $84, nAb2, nAb2
	dc.b nFs2, nFs2, $8D, $D2, nAb2, $86, $D8, nAb2
	dc.b $84, $C6, nFs2, nAb2, nA2, nE3, nFs3, $85
	dc.b $D2, nAb3, $84, $C6, nFs2, $8D, $D2, nF2
	dc.b $85, $F0, nF2, $84, $C6, nEb2, nF2, nF2
	dc.b nEb2, nEb2, $8D, $D2, nF2, $86, $D8, nF2
	dc.b $84, $C6, nEb2, nF2, nFs2, nCs3, nEb3, nF3
	dc.b $85, nCs3, $CC, nEb3, $C0
	gLoopEnd
	gStop

.03_01	gLoopStart
	dc.b $C1, $E0
	gNop
	dc.b $C0
	gsPatch		$00
	gsVolume	$15
	dc.b $86, $C6, nB2, nCs3, nCs4, nCs3, $CC, nCs4
	dc.b $C6, nCs4, nCs3, nCs5, nCs4, nCs3, nB2, nCs3
	dc.b nE3, $CC, nCs3, $C6, nB2, nCs3, nCs4, nCs3
	dc.b $CC, nCs4, $C6, nCs4, nCs3, nCs5, nCs4, nCs3
	dc.b nB2, nCs3, nE3, $CC, nCs3, $C6, nB2, nCs3
	dc.b nCs4, nCs3, $CC, nCs4, $C6, nCs4, nCs3, nCs5
	dc.b nCs4, nCs3, nB2, nCs3, nE3, $CC, nCs3, $C6
	dc.b nB2, nCs3, nCs4, nCs3, $CC, nCs4, $C6, nCs4
	dc.b nCs3, nCs5, nCs4, nCs3, nB2, nCs3, nE3, $CC
	dc.b nCs3, $C6, nB2, nCs3, nCs4, nCs3, $CC, nCs4
	dc.b $C6, nCs4, nCs3, nCs5, nCs4, nCs3, nB2, nCs3
	dc.b nE3, $CC, nCs3, $C6, nB2, nCs3, nCs4, nCs3
	dc.b $CC, nCs4, $C6, nCs4, nCs3, nCs5, nCs4, nCs3
	dc.b nB2, nCs3, nE3, $CC, nCs3, $C6, nB2, nCs3
	dc.b nCs4, nCs3, $CC, nCs4, $C6, nCs4, nCs3, nCs5
	dc.b nCs4, nCs3, nB2, nCs3, nE3, $CC, nCs3, $C6
	dc.b nB2, nCs3, nCs4, nCs3, $CC, nCs4, $C6, nCs4
	dc.b nCs3, nCs5, nCs4, nCs3, nB2, nCs3, nE3, $CC
	dc.b nCs3, $C6, nD3, nE3, nE4, nE3, $CC, nE4
	dc.b $C6, nE4, nE3, nE5, nE4, nE3, nD3, nE3
	dc.b nG3, $CC, nE3, $C6, nD3, nE3, nE4, nE3
	dc.b $CC, nE4, $C6, nE4, nE3, nE5, nE4, nE3
	dc.b nD3, nE3, nG3, $CC, nE3, $C6, nB2, nCs3
	dc.b nCs4, nCs3, $CC, nCs4, $C6, nCs4, nCs3, nCs5
	dc.b nCs4, nCs3, nB2, nCs3, nE3, $CC, nCs3, $C6
	dc.b nB2, nCs3, nCs4, nCs3, $CC, nCs4, $C6, nCs4
	dc.b nCs3, nCs5, nCs4, nCs3, nB2, nCs3, nE3, $C6
	dc.b $CC, nCs3, $C6, nB2, nCs3, nCs4, nCs3, $CC
	dc.b nCs4, $C6, nCs4, nCs3, nCs5, nCs4, nCs3, nB2
	dc.b nCs3, nE3, $CC, nCs3, $C6, nB2, nCs3, nCs4
	dc.b nCs3, $CC, nCs4, $C6, nCs4, nCs3, nCs5, nCs4
	dc.b nCs3, nB2, nCs3, nE3, $CC, nCs3, $C6, nB2
	dc.b nCs3, nCs4, nCs3, $CC, nCs4, $C6, nCs4, nCs3
	dc.b nCs5, nCs4, nCs3, nB2, nCs3, nE3, $CC, nCs3
	dc.b $C6, nB2, nCs3, nCs4, nCs3, $CC, nCs4, $C6
	dc.b nCs4, nCs3, nCs5, nCs4, nCs3, nB2, nCs3, nE3
	dc.b $CC, nCs3, $C6, nD3, nE3, nE4, nE3, $CC
	dc.b nE4, $C6, nE4, nE3, nE5, nE4, nE3, nD3
	dc.b nE3, nG3, $CC, nE3, $C6, nD3, nE3, nE4
	dc.b nE3, $CC, nE4, $C6, nE4, nE3, nE5, nE4
	dc.b nE3, nD3, nE3, nG3, $CC, nE3, $C6, nB2
	dc.b nCs3, nCs4, nCs3, $CC, nCs4, $C6, nCs4, nCs3
	dc.b nCs5, nCs4, nCs3, nB2, nCs3, nE3, $CC, nCs3
	dc.b $C6, nB2, nCs3, nCs4, nCs3, $CC, nCs4, $C6
	dc.b nCs4, nCs3, nCs5, nCs4, nCs3, nB2, nCs3, nE3
	dc.b $D2, $CC, nCs3, $C0
	gLoopEnd
	gStop

.03_02	gLoopStart
	dc.b $C1, $EC
	gNop
	dc.b $C0
	gsPatch		$7D
	gsVolume	$18
	dc.b $86, $C6, nB2, nCs3, nCs4, nCs3, $CC, nCs4
	dc.b $C6, nCs4, nCs3, nCs5, nCs4, nCs3, nB2, nCs3
	dc.b nE3, $CC, nCs3, $C6, nB2, nCs3, nCs4, nCs3
	dc.b $CC, nCs4, $C6, nCs4, nCs3, nCs5, nCs4, nCs3
	dc.b nB2, nCs3, nE3, $CC, nCs3, $C6, nB2, nCs3
	dc.b nCs4, nCs3, $CC, nCs4, $C6, nCs4, nCs3, nCs5
	dc.b nCs4, nCs3, nB2, nCs3, nE3, $CC, nCs3, $C6
	dc.b nB2, nCs3, nCs4, nCs3, $CC, nCs4, $C6, nCs4
	dc.b nCs3, nCs5, nCs4, nCs3, nB2, nCs3, $D2, nE3
	dc.b $C6, nB2, nCs3, nCs4, nCs3, $CC, nCs4, $C6
	dc.b nCs4, nCs3, nCs5, nCs4, nCs3, nB2, nCs3, nE3
	dc.b $CC, nCs3, $C6, nB2, nCs3, nCs4, nCs3, $CC
	dc.b nCs4, $C6, nCs4, nCs3, nCs5, nCs4, nCs3, nB2
	dc.b nCs3, nE3, $CC, nCs3, $C6, nB2, nCs3, nCs4
	dc.b nCs3, $CC, nCs4, $C6, nCs4, nCs3, nCs5, nCs4
	dc.b nCs3, nB2, nCs3, nE3, $CC, nCs3, $C6, nB2
	dc.b nCs3, nCs4, nCs3, $CC, nCs4, $C6, nCs4, nCs3
	dc.b nCs5, nCs4, nCs3, nB2, nCs3, $D2, nE3, $C6
	dc.b nD3, nE3, nE4, nE3, $CC, nE4, $C6, nE4
	dc.b nE3, nE5, nE4, nE3, nD3, nE3, nG3, $CC
	dc.b nE3, $C6, nD3, nE3, nE4, nE3, $CC, nE4
	dc.b $C6, nE4, nE3, nE5, nE4, nE3, nD3, nE3
	dc.b nG3, $CC, nCs3, $C6, nB2, nCs3, nCs4, nCs3
	dc.b $CC, nCs4, $C6, nCs4, nCs3, nCs5, nCs4, nCs3
	dc.b nB2, nCs3, nE3, $CC, nCs3, $C6, nB2, nCs3
	dc.b nCs4, nCs3, $CC, nCs4, $C6, nCs4, nCs3, nCs5
	dc.b nCs4, nCs3, nB2, nCs3, $C6, $D2, nE3, $C6
	dc.b nB2, nCs3, nCs4, nCs3, $CC, nCs4, $C6, nCs4
	dc.b nCs3, nCs5, nCs4, nCs3, nB2, nCs3, nE3, $CC
	dc.b nCs3, $C6, nB2, nCs3, nCs4, nCs3, $CC, nCs4
	dc.b $C6, nCs4, nCs3, nCs5, nCs4, nCs3, nB2, nCs3
	dc.b nE3, $CC, nCs3, $C6, nB2, nCs3, nCs4, nCs3
	dc.b $CC, nCs4, $C6, nCs4, nCs3, nCs5, nCs4, nCs3
	dc.b nB2, nCs3, nE3, $CC, nCs3, $C6, nB2, nCs3
	dc.b nCs4, nCs3, $CC, nCs4, $C6, nCs4, nCs3, nCs5
	dc.b nCs4, nCs3, nB2, nCs3, $D2, nE3, $C6, nD3
	dc.b nE3, nE4, nE3, $CC, nE4, $C6, nE4, nE3
	dc.b nE5, nE4, nE3, nD3, nE3, nG3, $CC, nE3
	dc.b $C6, nD3, nE3, nE4, nE3, $CC, nE4, $C6
	dc.b nE4, nE3, nE5, nE4, nE3, nD3, nE3, nG3
	dc.b $CC, nCs3, $C6, nB2, nCs3, nCs4, nCs3, $CC
	dc.b nCs4, $C6, nCs4, nCs3, nCs5, nCs4, nCs3, nB2
	dc.b nCs3, nE3, $CC, nCs3, $C6, nB2, nCs3, nCs4
	dc.b nCs3, $CC, nCs4, $C6, nCs4, nCs3, nCs5, nCs4
	dc.b nCs3, nB2, nCs3, $D2, $C6, nE3, $C0
	gLoopEnd
	gStop

.03_03	gLoopStart
	dc.b $D9, $E0
	gNop
	dc.b $C0
	gsPatch		$09
	gsVolume	$22
	dc.b $8F, $D2, nAb4, $84, $C6, nCs3, $82, nAb4
	dc.b $83, nCs3, $88, $CC, nA4, $90, $D2, nAb4
	dc.b $83, $C6, nCs3, nAb4, $82, nCs3, $88, $CC
	dc.b nA4, $90, $D2, nAb4, $83, $C6, nCs3, $84
	dc.b nAb4, nCs3, $8B, $CC, nA4, $86, $E4, nAb4
	dc.b $85, $CC, nFs4, $8F, $D2, nAb4, $84, $C6
	dc.b nCs3, $82, nAb4, $83, nCs3, $88, $CC, nA4
	dc.b $90, $D2, nAb4, $83, $C6, nCs3, nAb4, $82
	dc.b nCs3, $88, $CC, nA4, $90, $D2, nAb4, $83
	dc.b $C6, nCs3, $84, nAb4, nCs3, $8B, $CC, nA4
	dc.b $86, $C6, $F0, nAb4, $84, $C6, nCs3, nEb3
	dc.b nEb4, nEb3, $CC, nEb4, $C6, nEb4, nEb3, nEb5
	dc.b nEb4, nEb3, nCs3, nEb3, nFs3, $CC, nEb3, $C6
	dc.b nCs3, nEb3, nEb4, nEb3, $CC, nEb4, $C6, nEb4
	dc.b nEb3, nEb5, nEb4, nEb3, nCs3, nEb3, nFs3, $CC
	dc.b nEb3, $C6, nCs3, nEb3, nEb4, nEb3, $CC, nEb4
	dc.b $C6, nEb4, nEb3, nEb5, nEb4, nEb3, nCs3, nEb3
	dc.b nFs3, $CC, nEb3, $C6, nCs3, nEb3, nEb4, nEb3
	dc.b $CC, nEb4, $C6, nEb4, nEb3, nEb5, nEb4, nEb3
	dc.b nCs3, nEb3, nFs3, $CC, nEb3, $C6, nEb3, nF3
	dc.b nF4, nF3, $CC, nF4, $C6, nF4, nF3, nF5
	dc.b nF4, nF3, nEb3, nF3, nAb3, $CC, nF3, $C6
	dc.b nEb3, nF3, nF4, nF3, $CC, nF4, $C6, nF4
	dc.b nF3, nF5, nF4, nF3, nEb3, nF3, nAb3, $CC
	dc.b nF3, $C6, nEb3, nF3, nF4, nF3, $CC, nF4
	dc.b $C6, nF4, nF3, nF5, nF4, nF3, nEb3, nF3
	dc.b nAb3, $CC, nF3, $C6, nEb3, nF3, nF4, nF3
	dc.b $CC, nF4, $C6, nF4, nF3, nF5, nF4, nF3
	dc.b nEb3, nF3, nAb3, $CC, nF3, $C6, nFs3, nAb3
	dc.b nAb4, nAb3, $CC, nAb4, $C6, nAb4, nAb3, nAb5
	dc.b nAb4, nAb3, nFs3, nAb3, nB3, $CC, nAb3, $C6
	dc.b nFs3, nAb3, nAb4, nAb3, $CC, nAb4, $C6, nAb4
	dc.b nAb3, nAb5, nAb4, nAb3, nFs3, nAb3, nB3, $C3
	dc.b $CC, nAb3, $C0
	gLoopEnd
	gStop

.03_04	gLoopStart
	dc.b $CD, $EC
	gNop
	dc.b $C0
	gsPatch		$0A
	gsVolume	$25
	dc.b $85, $C6, nE4, nB4, nC5, nE4, nE5, nE4
	dc.b nF5, nB5, nE4, nB4, nC5, nE4, nE5, nE4
	dc.b nF5, nA5, nE4, nB4, nC5, nE4, nE5, nE4
	dc.b nF5, nB5, nE4, nB4, nC5, nE4, nE5, $C9
	dc.b $D2, nE4, $8F, $D2, nAb4, $84, $C6, nCs3
	dc.b $82, nAb4, $83, nCs3, $88, $CC, nA4, $90
	dc.b $D2, nAb4, $83, $C6, nCs3, nAb4, $82, nCs3
	dc.b $88, $CC, nA4, $90, $D2, nAb4, $83, $C6
	dc.b nCs3, $84, nAb4, nCs3, $8B, $CC, nA4, $86
	dc.b $F0, nAb4, $8F, $D2, nAb4, $84, $C6, nCs3
	dc.b $82, nAb4, $83, nCs3, $88, $CC, nA4, $90
	dc.b $D2, nAb4, $83, $C6, nCs3, nAb4, $82, nCs3
	dc.b $88, $CC, nA4, $90, $D2, nAb4, $83, $C6
	dc.b nCs3, $84, nAb4, nCs3, $8B, $CC, nA4, $86
	dc.b $C6, $F0, nAb4, $84, $C6, nCs3, nEb3, nEb4
	dc.b nEb3, $CC, nEb4, $C6, nEb4, nEb3, nEb5, nEb4
	dc.b nEb3, nCs3, nEb3, nFs3, $CC, nEb3, $C6, nCs3
	dc.b nEb3, nEb4, nEb3, $CC, nEb4, $C6, nEb4, nEb3
	dc.b nEb5, nEb4, nEb3, nCs3, nEb3, nFs3, $CC, nEb3
	dc.b $C6, nCs3, nEb3, nEb4, nEb3, $CC, nEb4, $C6
	dc.b nEb4, nEb3, nEb5, nEb4, nEb3, nCs3, nEb3, nFs3
	dc.b $CC, nEb3, $C6, nCs3, nEb3, nEb4, nEb3, $CC
	dc.b nEb4, $C6, nEb4, nEb3, nEb5, nEb4, nEb3, nCs3
	dc.b nEb3, $D2, nFs3, $C6, nEb3, nF3, nF4, nF3
	dc.b $CC, nF4, $C6, nF4, nF3, nF5, nF4, nF3
	dc.b nEb3, nF3, nAb3, $CC, nF3, $C6, nEb3, nF3
	dc.b nF4, nF3, $CC, nF4, $C6, nF4, nF3, nF5
	dc.b nF4, nF3, nEb3, nF3, nAb3, $CC, nF3, $C6
	dc.b nEb3, nF3, nF4, nF3, $CC, nF4, $C6, nF4
	dc.b nF3, nF5, nF4, nF3, nEb3, nF3, nAb3, $CC
	dc.b nF3, $C6, nEb3, nF3, nF4, nF3, $CC, nF4
	dc.b $C6, nF4, nF3, nF5, nF4, nF3, nEb3, nF3
	dc.b $D2, nAb3, $C6, nFs3, nAb3, nAb4, nAb3, $CC
	dc.b nAb4, $C6, nAb4, nAb3, nAb5, nAb4, nAb3, nFs3
	dc.b nAb3, nB3, $CC, nAb3, $C6, nFs3, nAb3, nAb4
	dc.b nAb3, $CC, nAb4, $C6, nAb4, nAb3, nAb5, nAb4
	dc.b nAb3, nFs3, nAb3, $C3, $C6, nB3, $C0
	gLoopEnd
	gStop

.03_05	gLoopStart
	dc.b $C0
	gNop
	gsPatch		$04
	gsVolume	$12
	dc.b $B2, $C1, $C2, nB0, $98, $C4, nB2, $C1
	gPitBend	$FFFE
	dc.b $C0
	gPitBend	$FFBC
	dc.b $C2
	gPitBend	$FF9C
	dc.b $C1
	gPitBend	$FF7A
	gPitBend	$FF5A
	gPitBend	$FF18
	dc.b $C0
	gPitBend	$FEF6
	dc.b $C1
	gPitBend	$FEB4
	dc.b $C0
	gPitBend	$FE72
	dc.b $C1
	gPitBend	$FE52
	gPitBend	$FE10
	dc.b $C0
	gPitBend	$FDEE
	dc.b $C1
	gPitBend	$FDCE
	dc.b $C0
	gPitBend	$FDAC
	dc.b $C1
	gPitBend	$FD8C
	gPitBend	$FD6A
	gPitBend	$FD28
	dc.b $C0
	gPitBend	$FD08
	dc.b $C2
	gPitBend	$FCE6
	dc.b $C0
	gPitBend	$FCC6
	dc.b $C1
	gPitBend	$FCA4
	gPitBend	$FC84
	dc.b $C2
	gPitBend	$FC62
	dc.b $C0
	gPitBend	$FCA4
	dc.b $C1
	gPitBend	$FD08
	dc.b $C0
	gPitBend	$FD8C
	dc.b $C1
	gPitBend	$FE52
	gPitBend	$FEF6
	dc.b $C0
	gPitBend	$FF9C
	dc.b $C1
	gPitBend	$FFFE
	dc.b $D5, $C3
	gPitBend	$0000
	dc.b $B2, $C1, $C2, nB0, $98, $C4, nB2, $C1
	gPitBend	$FFFE
	dc.b $C0
	gPitBend	$FFBC
	dc.b $C2
	gPitBend	$FF9C
	dc.b $C1
	gPitBend	$FF7A
	gPitBend	$FF5A
	gPitBend	$FF18
	dc.b $C0
	gPitBend	$FEF6
	dc.b $C1
	gPitBend	$FEB4
	dc.b $C0
	gPitBend	$FE72
	dc.b $C1
	gPitBend	$FE52
	gPitBend	$FE10
	dc.b $C0
	gPitBend	$FDEE
	dc.b $C1
	gPitBend	$FDCE
	dc.b $C0
	gPitBend	$FDAC
	dc.b $C1
	gPitBend	$FD8C
	gPitBend	$FD6A
	gPitBend	$FD28
	dc.b $C0
	gPitBend	$FD08
	dc.b $C2
	gPitBend	$FCE6
	dc.b $C0
	gPitBend	$FCC6
	dc.b $C1
	gPitBend	$FCA4
	gPitBend	$FC84
	dc.b $C2
	gPitBend	$FC62
	dc.b $C0
	gPitBend	$FCA4
	dc.b $C1
	gPitBend	$FD08
	dc.b $C0
	gPitBend	$FD8C
	dc.b $C1
	gPitBend	$FE52
	gPitBend	$FEF6
	dc.b $C0
	gPitBend	$FF9C
	dc.b $C1
	gPitBend	$FFFE
	dc.b $DF, $E3
	gPitBend	$0000
	dc.b $C0
	gLoopEnd
	gStop

.03_06	gLoopStart
	dc.b $CC
	gNop
	dc.b $C0
	gsPatch		$04
	gsVolume	$18
	dc.b $B2, $C1, $C2, nB0, $98, $D5, $DE, nB2
	dc.b $B2, $C1, $C2, nB0, $98, $DF, $F2, nB2
	dc.b $C0
	gLoopEnd
	gStop

.03_07	gLoopStart
	dc.b $C1, $E0
	gNop
	dc.b $C0
	gsPatch		$3F
	gsVolume	$11
	dc.b $83, $C1, $E0, nCs3, nCs3, $E4, nCs3, $CC
	dc.b nCs3, $F0, nCs3, $E4, nCs3, $CC, nCs3, $D2
	dc.b nCs3, $C6, nCs3, nCs3, nCs3, nCs3, nCs3, $E4
	dc.b nCs3, $CC, nCs3, $F0, nCs3, $E4, nCs3, $CC
	dc.b nCs3, $F0, nCs3, $E4, nCs3, $CC, nCs3, $F0
	dc.b nCs3, $E4, nCs3, $CC, nCs3, $F0, nCs3, $E4
	dc.b nCs3, $CC, nCs3, $F0, nCs3, $E4, nCs3, $CC
	dc.b nCs3, $F0, nCs3, $E4, nCs3, $CC, nCs3, $F0
	dc.b nCs3, $E4, nCs3, $CC, nCs3, $F0, nCs3, $E4
	dc.b nCs3, $CC, nCs3, $F0, nCs3, $E4, nCs3, $CC
	dc.b nCs3, $F0, nCs3, $E4, nCs3, $CC, nCs3, $F0
	dc.b nCs3, $E4, nCs3, $CC, nCs3, $F0, nCs3, $E4
	dc.b nCs3, $CC, nCs3, $F0, nCs3, $E4, nCs3, $CC
	dc.b nCs3, $F0, nCs3, $E4, nCs3, $CC, nCs3, $F0
	dc.b nCs3, $E4, nCs3, $CC, nCs3, $F0, nCs3, $E4
	dc.b nCs3, $CC, nCs3, $F0, nCs3, $E4, nCs3, $CC
	dc.b nCs3, $F0, nCs3, $E4, nCs3, $CC, nCs3, $F0
	dc.b nCs3, $E4, nCs3, $CC, nCs3, $C6, $F0, nCs3
	dc.b $E4, nCs3, $CC, nCs3, $F0, nCs3, $E4, nCs3
	dc.b $CC, nCs3, $F0, nCs3, $E4, nCs3, $CC, nCs3
	dc.b $F0, nCs3, $E4, nCs3, $CC, nCs3, $F0, nCs3
	dc.b $E4, nCs3, $CC, nCs3, $F0, nCs3, $E4, nCs3
	dc.b $CC, nCs3, $F0, nCs3, $E4, nCs3, $CC, nCs3
	dc.b $E4, nCs3, $CC, nCs3, $E4, nCs3, $CC, nCs3
	dc.b $F0, nCs3, $C0
	gLoopEnd
	gStop

.03_08	gLoopStart
	dc.b $CD, $E0
	gNop
	dc.b $C0
	gsPatch		$60
	gsVolume	$0C
	dc.b $86, $C6, nE3, nB3, nC4, nE3, nE4, nE3
	dc.b nF4, nB4, nE3, nB3, nC4, nE3, nE4, nE3
	dc.b nF4, nA4, nE3, nB3, nC4, nE3, nE4, nE3
	dc.b nF4, nB4, nE3, nB3, nC4, nE3, nE4, nE3
	dc.b nF4, $C3, $C6, nA4, $C6, nCs3, nAb3, nA3
	dc.b nCs3, nCs4, nCs3, nD4, nAb4, nCs3, nAb3, nA3
	dc.b nCs3, nCs4, nCs3, nD4, nFs4, nCs3, nAb3, nA3
	dc.b nCs3, nCs4, nCs3, nD4, nAb4, nCs3, nAb3, nA3
	dc.b nCs3, nCs4, nCs3, nD4, nFs4, nCs3, nAb3, nA3
	dc.b nCs3, nCs4, nCs3, nD4, nAb4, nCs3, nAb3, nA3
	dc.b nCs3, nCs4, nCs3, nD4, nFs4, nCs3, nAb3, nA3
	dc.b nCs3, nCs4, nCs3, nD4, nAb4, nCs3, nAb3, nA3
	dc.b nCs3, nCs4, nCs3, nD4, $C6, $C6, nFs4, $C6
	dc.b nE3, nB3, nC4, nE3, nE4, nE3, nF4, nB4
	dc.b nE3, nB3, nC4, nE3, nE4, nE3, nF4, nA4
	dc.b nE3, nB3, nC4, nE3, nE4, nE3, nF4, nB4
	dc.b nE3, nB3, nC4, nE3, nE4, nE3, nF4, $C6
	dc.b $E4, nA4, $C6, nEb4, nEb3, nEb2, $CC, nEb3
	dc.b $C6, nEb3, nEb2, nEb4, $F0, nEb3, $C6, nEb4
	dc.b nEb3, nEb2, $CC, nEb3, $C6, nEb3, nEb2, $F6
	dc.b nEb4, $C6, nF4, nF3, nF2, $CC, nF3, $C6
	dc.b nF3, nF2, nF4, $F0, nF3, $C6, nF4, nF3
	dc.b nF2, $CC, nF3, $C6, nF3, nF2, $F6, nF4
	dc.b $C6, nF4, nF3, nF2, $CC, nF3, $C6, nF3
	dc.b nF2, nF4, $F0, nF3, $C6, nF4, nF3, nF2
	dc.b $CC, nF3, $C6, nF3, nF2, $D8, nF4, $C6
	dc.b nAb3, nEb4, nE4, nAb3, nAb4, nAb3, nA4, nEb5
	dc.b nAb3, nEb4, nE4, nAb3, nAb4, nAb3, nA4, nCs5
	dc.b nAb3, nEb4, nE4, nAb3, nAb4, nAb3, nA4, nEb5
	dc.b nAb3, nEb4, nE4, nAb3, nAb4, nAb3, nA4, nCs5
	dc.b nF2, nC3, nCs3, nF2, nF3, nF2, nFs3, nC4
	dc.b nF2, nC3, nCs3, nF2, nF3, nF2, nFs3, nBb3
	dc.b nF2, nC3, nCs3, nF2, nF3, nF2, nFs3, nC4
	dc.b nF2, nC3, nCs3, nF2, nF3, nF2, nFs3, nBb3
	dc.b $C0
	gLoopEnd
	gStop

.03_09	gLoopStart
	dc.b $D0, $E0
	gNop
	dc.b $C0
	gsPatch		$1D
	gsVolume	$0E
	dc.b $85, $C6, nCs4, nAb4, nA4, nCs4, nCs5, nCs4
	dc.b nD5, nAb5, nCs4, nAb4, nA4, nCs4, nCs5, nCs4
	dc.b nD5, nFs5, nCs4, nAb4, nA4, nCs4, nCs5, nCs4
	dc.b nD5, nAb5, nCs4, nAb4, nA4, nCs4, nCs5, nCs4
	dc.b nD5, nFs5, nCs4, nAb4, nA4, nCs4, nCs5, nCs4
	dc.b nD5, nAb5, nCs4, nAb4, nA4, nCs4, nCs5, nCs4
	dc.b nD5, nFs5, nCs4, nAb4, nA4, nCs4, nCs5, nCs4
	dc.b nD5, nAb5, nCs4, nAb4, nA4, nCs4, nCs5, nCs4
	dc.b nD5, nFs5, nAb3, nEb4, nE4, nAb3, nAb4, nAb3
	dc.b nA4, nEb5, nAb3, nEb4, nE4, nAb3, nAb4, nAb3
	dc.b nA4, nCs5, nAb3, nEb4, nE4, nAb3, nAb4, nAb3
	dc.b nA4, nEb5, nAb3, nEb4, nE4, nAb3, nAb4, nAb3
	dc.b nA4, $C9, $C6, nCs5, $C6, nCs4, nAb4, nA4
	dc.b nCs4, nCs5, nCs4, nD5, nAb5, nCs4, nAb4, nA4
	dc.b nCs4, nCs5, nCs4, nD5, nFs5, nCs4, nAb4, nA4
	dc.b nCs4, nCs5, nCs4, nD5, nAb5, nCs4, nAb4, nA4
	dc.b nCs4, nCs5, nCs4, nD5, $C6, $F0, nFs5, $C6
	dc.b nF5, nF4, nF3, $CC, nF4, $C6, nF4, nF3
	dc.b nF5, $F0, nF4, $C6, nF5, nF4, nF3, $CC
	dc.b nF4, $C6, nF4, nF3, $F6, nF5, $C6, nF5
	dc.b nF4, nF3, $CC, nF4, $C6, nF4, nF3, nF5
	dc.b $F0, nF4, $C6, nF5, nF4, nF3, $CC, nF4
	dc.b $C6, nF4, nF3, $CC, nF5, $C6, nAb3, nEb4
	dc.b nE4, nAb3, nAb4, nAb3, nA4, nEb5, nAb3, nEb4
	dc.b nE4, nAb3, nAb4, nAb3, nA4, nCs5, nAb3, nEb4
	dc.b nE4, nAb3, nAb4, nAb3, nA4, nEb5, nAb3, nEb4
	dc.b nE4, nAb3, nAb4, nAb3, nA4, nCs5, nF2, nC3
	dc.b nCs3, nF2, nF3, nF2, nFs3, nC4, nF2, nC3
	dc.b nCs3, nF2, nF3, nF2, nFs3, nBb3, nF2, nC3
	dc.b nCs3, nF2, nF3, nF2, nFs3, nC4, nF2, nC3
	dc.b nCs3, nF2, nF3, nF2, nFs3, nBb3, $C0
	gLoopEnd
	gStop

.04_00	dc.b $C0
	gsTempo		106
	gLoopStart
	dc.b $C6, $C0
	gNop
	dc.b $C0
	gsPatch		$14
	gsVolume	$11
	dc.b $86, $C6, nD2, nD2, $D8, nD2, $CC, nD2
	dc.b $F0, nD2, $CC, nD2, $D8, nD2, $CC, nD2
	dc.b $F0, nD2, $C6, nD2, nD2, $D8, nD2, $CC
	dc.b nD2, $F0, nD2, $CC, nD2, $D2, nD2, nD2
	dc.b $CC, nD2, $D2, nD2, nD2, $C6, nBb1, nBb1
	dc.b $D8, nBb1, $CC, nBb1, $F0, nBb1, $CC, nBb1
	dc.b $D8, nBb1, $CC, nBb1, $F0, nBb1, $C6, nD2
	dc.b nD2, $D8, nD2, $CC, nD2, $F0, nD2, $CC
	dc.b nD2, $D2, nD2, nD2, $F0, nD2, $C6, nD2
	dc.b nD2, $D8, nD2, $CC, nD2, $F0, nD2, $CC
	dc.b nD2, $D8, nD2, $CC, nD2, $F0, nD2, $C6
	dc.b nD2, nD2, $D8, nD2, $CC, nD2, $F0, nD2
	dc.b $CC, nD2, $D2, nD2, nD2, $CC, nD2, $D2
	dc.b nD2, nD2, $C6, nBb1, nBb1, $D8, nBb1, $CC
	dc.b nBb1, $F0, nBb1, $CC, nBb1, $D8, nBb1, $CC
	dc.b nBb1, $F0, nBb1, $C6, nD2, nD2, $D8, nD2
	dc.b $CC, nD2, $F0, nD2, $CC, nD2, $D2, nD2
	dc.b nD2, $C6, $F0, nD2, $C6, nE2, nE2, $D8
	dc.b nE2, $CC, nE2, $F0, nE2, $CC, nE2, $D8
	dc.b nE2, $CC, nE2, $F0, nE2, $C6, nE2, nE2
	dc.b $D8, nE2, $CC, nE2, $F0, nE2, $CC, nE2
	dc.b $D2, nE2, nE2, $CC, nE2, $D2, nE2, nE2
	dc.b $C6, nC2, nC2, $D8, nC2, $CC, nC2, $F0
	dc.b nC2, $CC, nC2, $D8, nC2, $CC, nC2, $F0
	dc.b nC2, $C6, nE2, nE2, $D8, nE2, $CC, nE2
	dc.b $F0, nE2, $CC, nE2, $D2, nE2, nE2, $F0
	dc.b nE2, $C0
	gLoopEnd
	gStop

.04_01	gLoopStart
	dc.b $D2, $C0
	gNop
	dc.b $C0
	gsPatch		$2A
	gsVolume	$12
	dc.b $83, $CC, nD4, $D8, nD4, $CC, nD4, $D2
	dc.b nG4, nG4, $CC, nA4, nD4, $D8, nD4, $CC
	dc.b nD4, $D2, nG4, nG4, $F0, nA4, $CC, nD4
	dc.b $D2, nG4, nG4, $CC, nA4, nD4, $D8, nD4
	dc.b $CC, nD4, $D2, nG4, nG4, $C3, $CC, nA4
	dc.b $CC, nD4, $D8, nD4, $CC, nD4, $D2, nG4
	dc.b nG4, $CC, nA4, nD4, $D8, nD4, $CC, nD4
	dc.b $D2, nG4, nG4, $D2, $CC, nA4, $C0
	gLoopEnd
	gStop

.04_02	gLoopStart
	dc.b $D2, $C2
	gNop
	dc.b $C0
	gsPatch		$2B
	gsVolume	$15
	dc.b $84, $CC, nD4, $D8, nD4, $CC, nD4, $D2
	dc.b nG4, nG4, $CC, nA4, nD4, $D8, nD4, $CC
	dc.b nD4, $D2, nG4, nG4, $F0, nA4, $CC, nD4
	dc.b $D2, nG4, nG4, $CC, nA4, nD4, $D8, nD4
	dc.b $CC, nD4, $D2, nG4, nG4, $C3, $CC, nA4
	dc.b $CC, nD4, $D8, nD4, $CC, nD4, $D2, nG4
	dc.b nG4, $CC, nA4, nD4, $D8, nD4, $CC, nD4
	dc.b $D2, nG4, nG4, $D2, $CA, nA4, $C0
	gLoopEnd
	gStop

.04_03	gLoopStart
	dc.b $CC, $C0
	gNop
	dc.b $C0
	gsPatch		$29
	gsVolume	$1D
	dc.b $B1, $D1, nBb4, $C1
	gPitBend	$0108
	dc.b $C0
	gPitBend	$0210
	dc.b $C1
	gPitBend	$0252
	dc.b $C0
	gPitBend	$01CE
	dc.b $C1
	gPitBend	$00E6
	gPitBend	$0062
	dc.b $CC
	gPitBend	$0000
	dc.b $C1
	gPitBend	$0062
	gPitBend	$0108
	dc.b $C0
	gPitBend	$00E6
	dc.b $C1
	gPitBend	$0062
	dc.b $CC
	gPitBend	$0000
	dc.b $AF, $F0, nC5, $D2, nCs5, $C0
	gPitBend	$01AC
	dc.b $C1
	gPitBend	$035A
	gPitBend	$03BC
	dc.b $C0
	gPitBend	$035A
	dc.b $C1
	gPitBend	$0252
	gPitBend	$0128
	dc.b $C0
	gPitBend	$0084
	dc.b $C1
	gPitBend	$0020
	dc.b $CB
	gPitBend	$0000
	dc.b $C0
	gPitBend	$0084
	dc.b $C1
	gPitBend	$0252
	gPitBend	$02D6
	dc.b $C0
	gPitBend	$0272
	dc.b $C1
	gPitBend	$018C
	dc.b $C0
	gPitBend	$00A4
	dc.b $C1
	gPitBend	$0020
	dc.b $CA
	gPitBend	$0000
	dc.b $AD, $F0, nEb5, $83, $80, $D2, nD5, $C1
	gPitBend	$0042
	dc.b $C0
	gPitBend	$00A4
	dc.b $C1
	gPitBend	$0084
	gPitBend	$0020
	dc.b $CD
	gPitBend	$0000
	dc.b $C1
	gPitBend	$0084
	gPitBend	$014A
	gPitBend	$00A4
	dc.b $C0
	gPitBend	$0042
	dc.b $D1
	gPitBend	$0000
	dc.b $C0
	gPitBend	$016A
	dc.b $C1
	gPitBend	$02D6
	gPitBend	$0338
	dc.b $C0
	gPitBend	$02B4
	dc.b $C1
	gPitBend	$01AC
	gPitBend	$00C6
	dc.b $C0
	gPitBend	$0042
	dc.b $CD
	gPitBend	$0000
	dc.b $C1
	gPitBend	$0042
	dc.b $C0
	gPitBend	$016A
	dc.b $C1
	gPitBend	$0210
	gPitBend	$01AC
	dc.b $C0
	gPitBend	$00E6
	dc.b $C1
	gPitBend	$0042
	dc.b $D0
	gPitBend	$0000
	dc.b $C0
	gPitBend	$014A
	dc.b $C1
	gPitBend	$0294
	gPitBend	$02B4
	dc.b $C0
	gPitBend	$0230
	dc.b $C1
	gPitBend	$0128
	gPitBend	$0084
	dc.b $C0
	gPitBend	$0020
	dc.b $CE
	gPitBend	$0000
	dc.b $C1
	gPitBend	$00C6
	gPitBend	$018C
	gPitBend	$00C6
	dc.b $C0
	gPitBend	$0042
	dc.b $CD
	gPitBend	$0000
	dc.b $C1
	gPitBend	$00A4
	dc.b $C0
	gPitBend	$02F6
	dc.b $C2
	gPitBend	$03FE
	dc.b $C1
	gPitBend	$037A
	gPitBend	$0210
	dc.b $C0
	gPitBend	$00E6
	dc.b $C1
	gPitBend	$0062
	dc.b $CD
	gPitBend	$0000
	dc.b $C1
	gPitBend	$0042
	gPitBend	$014A
	dc.b $C0
	gPitBend	$01AC
	dc.b $C1
	gPitBend	$016A
	gPitBend	$00A4
	dc.b $C0
	gPitBend	$0020
	dc.b $CE
	gPitBend	$0000
	dc.b $C0
	gPitBend	$00E6
	dc.b $C1
	gPitBend	$014A
	gPitBend	$0108
	dc.b $C0
	gPitBend	$0062
	dc.b $C6, $DC
	gPitBend	$0000
	dc.b $AF, $D0, nBb4, $C1
	gPitBend	$0042
	dc.b $C0
	gPitBend	$0252
	dc.b $C2
	gPitBend	$03FE
	dc.b $C1
	gPitBend	$0318
	dc.b $C0
	gPitBend	$01AC
	dc.b $C1
	gPitBend	$00C6
	gPitBend	$0042
	dc.b $CB
	gPitBend	$0000
	dc.b $C1
	gPitBend	$00A4
	dc.b $C0
	gPitBend	$0230
	dc.b $C1
	gPitBend	$0294
	gPitBend	$0210
	dc.b $C0
	gPitBend	$0108
	dc.b $C1
	gPitBend	$0062
	dc.b $CB
	gPitBend	$0000
	dc.b $F0, nC5, $AE, $D1, nCs5, $C1
	gPitBend	$0042
	dc.b $C0
	gPitBend	$018C
	dc.b $C1
	gPitBend	$02B4
	gPitBend	$0230
	gPitBend	$0128
	dc.b $C0
	gPitBend	$0084
	dc.b $C1
	gPitBend	$0020
	dc.b $CB
	gPitBend	$0000
	dc.b $C1
	gPitBend	$0084
	dc.b $C0
	gPitBend	$0252
	dc.b $C1
	gPitBend	$02F6
	dc.b $C0
	gPitBend	$0294
	dc.b $C1
	gPitBend	$01AC
	gPitBend	$00C6
	dc.b $C0
	gPitBend	$0042
	dc.b $C9
	gPitBend	$0000
	dc.b $C1
	gPitBend	$00A4
	gPitBend	$0230
	dc.b $AD, $C0, nEb5
	gPitBend	$02B4
	dc.b $C1
	gPitBend	$0252
	dc.b $C0
	gPitBend	$016A
	dc.b $C1
	gPitBend	$0084
	gPitBend	$0020
	dc.b $CE
	gPitBend	$0000
	dc.b $C0
	gPitBend	$00C6
	dc.b $C1
	gPitBend	$035A
	gPitBend	$03FE
	gPitBend	$037A
	gPitBend	$0210
	dc.b $C0
	gPitBend	$0108
	dc.b $C1
	gPitBend	$0062
	dc.b $CB
	gPitBend	$0000
	dc.b $C1
	gPitBend	$0042
	gPitBend	$0294
	dc.b $C0
	gPitBend	$03DE
	dc.b $C1
	gPitBend	$03BC
	dc.b $C0
	gPitBend	$02D6
	dc.b $C1
	gPitBend	$018C
	gPitBend	$00A4
	dc.b $C0
	gPitBend	$0020
	dc.b $C9
	gPitBend	$0000
	dc.b $C0
	gPitBend	$01CE
	dc.b $C1
	gPitBend	$02F6
	gPitBend	$02D6
	dc.b $C0
	gPitBend	$01CE
	dc.b $C1
	gPitBend	$00C6
	gPitBend	$0042
	dc.b $CE, $FD
	gPitBend	$0000
	dc.b $B1, $D1, nC5, $C1
	gPitBend	$0108
	dc.b $C0
	gPitBend	$0210
	dc.b $C1
	gPitBend	$0252
	dc.b $C0
	gPitBend	$01CE
	dc.b $C1
	gPitBend	$00E6
	gPitBend	$0062
	dc.b $CC
	gPitBend	$0000
	dc.b $C1
	gPitBend	$0062
	gPitBend	$0108
	dc.b $C0
	gPitBend	$00E6
	dc.b $C1
	gPitBend	$0062
	dc.b $CC
	gPitBend	$0000
	dc.b $AF, $F0, nD5, $D2, nEb5, $C0
	gPitBend	$01AC
	dc.b $C1
	gPitBend	$035A
	gPitBend	$03BC
	dc.b $C0
	gPitBend	$035A
	dc.b $C1
	gPitBend	$0252
	gPitBend	$0128
	dc.b $C0
	gPitBend	$0084
	dc.b $C1
	gPitBend	$0020
	dc.b $CB
	gPitBend	$0000
	dc.b $C0
	gPitBend	$0084
	dc.b $C1
	gPitBend	$0252
	gPitBend	$02D6
	dc.b $C0
	gPitBend	$0272
	dc.b $C1
	gPitBend	$018C
	dc.b $C0
	gPitBend	$00A4
	dc.b $C1
	gPitBend	$0020
	dc.b $CA
	gPitBend	$0000
	dc.b $AD, $F0, nF5, $82, $BF, $D2, nE5, $C1
	gPitBend	$0042
	dc.b $C0
	gPitBend	$00A4
	dc.b $C1
	gPitBend	$0084
	gPitBend	$0020
	dc.b $CD
	gPitBend	$0000
	dc.b $C1
	gPitBend	$0084
	gPitBend	$014A
	gPitBend	$00A4
	dc.b $C0
	gPitBend	$0042
	dc.b $D1
	gPitBend	$0000
	dc.b $C0
	gPitBend	$016A
	dc.b $C1
	gPitBend	$02D6
	gPitBend	$0338
	dc.b $C0
	gPitBend	$02B4
	dc.b $C1
	gPitBend	$01AC
	gPitBend	$00C6
	dc.b $C0
	gPitBend	$0042
	dc.b $CD
	gPitBend	$0000
	dc.b $C1
	gPitBend	$0042
	dc.b $C0
	gPitBend	$016A
	dc.b $C1
	gPitBend	$0210
	gPitBend	$01AC
	dc.b $C0
	gPitBend	$00E6
	dc.b $C1
	gPitBend	$0042
	dc.b $D0
	gPitBend	$0000
	dc.b $C0
	gPitBend	$014A
	dc.b $C1
	gPitBend	$0294
	gPitBend	$02B4
	dc.b $C0
	gPitBend	$0230
	dc.b $C1
	gPitBend	$0128
	gPitBend	$0084
	dc.b $C0
	gPitBend	$0020
	dc.b $CE
	gPitBend	$0000
	dc.b $C1
	gPitBend	$00C6
	gPitBend	$018C
	gPitBend	$00C6
	dc.b $C0
	gPitBend	$0042
	dc.b $CD
	gPitBend	$0000
	dc.b $C1
	gPitBend	$00A4
	dc.b $C0
	gPitBend	$02F6
	dc.b $C2
	gPitBend	$03FE
	dc.b $C1
	gPitBend	$037A
	gPitBend	$0210
	dc.b $C0
	gPitBend	$00E6
	dc.b $C1
	gPitBend	$0062
	dc.b $CD
	gPitBend	$0000
	dc.b $C1
	gPitBend	$0042
	gPitBend	$014A
	dc.b $C0
	gPitBend	$01AC
	dc.b $C1
	gPitBend	$016A
	gPitBend	$00A4
	dc.b $C0
	gPitBend	$0020
	dc.b $CE
	gPitBend	$0000
	dc.b $C0
	gPitBend	$00E6
	dc.b $C1
	gPitBend	$014A
	gPitBend	$0108
	dc.b $C0
	gPitBend	$0062
	dc.b $DC
	gPitBend	$0000
	dc.b $C0
	gLoopEnd
	gStop

.04_04	gLoopStart
	dc.b $DE, $C0
	gNop
	dc.b $C0
	gsPatch		$7C
	gsVolume	$1B
	dc.b $86, $81, $CC, $C0, nE2, $83, $80, $C3
	dc.b $C0, nC2, $82, $BC, nE2, $C0
	gLoopEnd
	gStop

.04_05	gLoopStart
	dc.b $C0
	gNop
	gsPatch		$28
	gsVolume	$13
	dc.b $8B, $CC, nD2, $87, $C6, nA2, $86, nD2
	dc.b nC3, $85, nD2, nD3, nD2, $8B, $CC, nF3
	dc.b $85, $C6, nD2, $86, nA2, nC3, $85, nD2
	dc.b $8B, $CC, nD3, nD2, $87, $C6, nA2, $85
	dc.b nD2, $86, nC3, nD2, $84, nD3, $85, nD2
	dc.b $8A, $CC, nA3, $86, $C6, nD2, nA2, $85
	dc.b nC3, $84, nD2, $8B, $CC, nD3, nD2, $87
	dc.b $C6, nA2, $84, nD2, $86, nC3, $85, nD2
	dc.b nD3, nD2, $8A, $CC, nF3, $86, $C6, nD2
	dc.b $85, nA2, $86, nC3, $84, nD2, $8C, $CC
	dc.b nD3, $8B, nD2, $86, $C6, nA2, $84, nD2
	dc.b $86, nC3, $85, nD2, $84, nD3, $86, nD2
	dc.b $8A, $CC, nA3, $86, $C6, nD2, nA2, $85
	dc.b nC3, $86, nD2, $8B, $CC, nD3, nD2, $87
	dc.b $C6, nA2, $86, nD2, nC3, $85, nD2, nD3
	dc.b nD2, $8B, $CC, nF3, $85, $C6, nD2, $86
	dc.b nA2, nC3, $85, nD2, $8B, $CC, nD3, nD2
	dc.b $87, $C6, nA2, $85, nD2, $86, nC3, nD2
	dc.b $84, nD3, $85, nD2, $8A, $CC, nA3, $86
	dc.b $C6, nD2, nA2, $85, nC3, $84, nD2, $8B
	dc.b $CC, nD3, nD2, $87, $C6, nA2, $84, nD2
	dc.b $86, nC3, $85, nD2, nD3, nD2, $8A, $CC
	dc.b nF3, $86, $C6, nD2, $85, nA2, $86, nC3
	dc.b $84, nD2, $8C, $CC, nD3, $8B, nD2, $86
	dc.b $C6, nA2, $84, nD2, $86, nC3, $85, nD2
	dc.b $84, nD3, $86, nD2, $8A, $CC, nA3, $86
	dc.b $C6, nD2, nA2, $85, nC3, $86, nD2, $8B
	dc.b $CC, nD3, nBb1, $87, $C6, nF2, $86, nBb1
	dc.b nAb2, $85, nBb1, nBb2, nBb1, $8B, $CC, nCs3
	dc.b $85, $C6, nBb1, $86, nF2, nAb2, $85, nBb1
	dc.b $8B, $CC, nBb2, nBb1, $87, $C6, nF2, $85
	dc.b nBb1, $86, nAb2, nBb1, $84, nBb2, $85, nBb1
	dc.b $8A, $CC, nF3, $86, $C6, nBb1, nF2, $85
	dc.b nAb2, $84, nBb1, $8B, $CC, nBb2, nD2, $87
	dc.b $C6, nA2, $84, nD2, $86, nC3, $85, nD2
	dc.b nD3, nD2, $8A, $CC, nF3, $86, $C6, nD2
	dc.b $85, nA2, $86, nC3, $84, nD2, $8C, $CC
	dc.b nD3, $8B, nD2, $86, $C6, nA2, $84, nD2
	dc.b $86, nC3, $85, nD2, $84, nD3, $86, nD2
	dc.b $8A, $CC, nA3, $86, $C6, nD2, nA2, $85
	dc.b nC3, $86, nD2, $8B, $CC, nD3, nD2, $87
	dc.b $C6, nA2, $86, nD2, nC3, $85, nD2, nD3
	dc.b nD2, $8B, $CC, nF3, $85, $C6, nD2, $86
	dc.b nA2, nC3, $85, nD2, $8B, $CC, nD3, nD2
	dc.b $87, $C6, nA2, $85, nD2, $86, nC3, nD2
	dc.b $84, nD3, $85, nD2, $8A, $CC, nA3, $86
	dc.b $C6, nD2, nA2, $85, nC3, $84, nD2, $8B
	dc.b $CC, nD3, nD2, $87, $C6, nA2, $84, nD2
	dc.b $86, nC3, $85, nD2, nD3, nD2, $8A, $CC
	dc.b nF3, $86, $C6, nD2, $85, nA2, $86, nC3
	dc.b $84, nD2, $8C, $CC, nD3, $8B, nD2, $86
	dc.b $C6, nA2, $84, nD2, $86, nC3, $85, nD2
	dc.b $84, nD3, $86, nD2, $8A, $CC, nA3, $86
	dc.b $C6, nD2, nA2, $85, nC3, $86, nD2, $8B
	dc.b $CC, nD3, nBb1, $87, $C6, nF2, $86, nBb1
	dc.b nAb2, $85, nBb1, nBb2, nBb1, $8B, $CC, nCs3
	dc.b $85, $C6, nBb1, $86, nF2, nAb2, $85, nBb1
	dc.b $8B, $CC, nBb2, nBb1, $87, $C6, nF2, $85
	dc.b nBb1, $86, nAb2, nBb1, $84, nBb2, $85, nBb1
	dc.b $8A, $CC, nF3, $86, $C6, nBb1, nF2, $85
	dc.b nAb2, $84, nBb1, $8B, $CC, nBb2, nD2, $87
	dc.b $C6, nA2, $84, nD2, $86, nC3, $85, nD2
	dc.b nD3, nD2, $8A, $CC, nF3, $86, $C6, nD2
	dc.b $85, nA2, $86, nC3, $84, nD2, $8C, $CC
	dc.b nD3, $8B, nD2, $86, $C6, nA2, $84, nD2
	dc.b $86, nC3, $85, nD2, $84, nD3, $86, nD2
	dc.b $8A, $CC, nA3, $86, $C6, nD2, nA2, $85
	dc.b nC3, $86, nD2, $8B, $D2, $CC, nD3, $C0
	gLoopEnd
	gStop

.04_06	gLoopStart
	dc.b $D2
	gNop
	dc.b $C0
	gsPatch		$25
	gsVolume	$19
	dc.b $8B, $CC, nD2, $87, $C6, nA2, $86, nD2
	dc.b nC3, $85, nD2, nD3, nD2, $8B, $CC, nF3
	dc.b $85, $C6, nD2, $86, nA2, nC3, $85, nD2
	dc.b $8B, $CC, nD3, nD2, $87, $C6, nA2, $85
	dc.b nD2, $86, nC3, nD2, $84, nD3, $85, nD2
	dc.b $8A, $CC, nA3, $86, $C6, nD2, nA2, $85
	dc.b nC3, $84, nD2, $8B, $CC, nD3, nD2, $87
	dc.b $C6, nA2, $84, nD2, $86, nC3, $85, nD2
	dc.b nD3, nD2, $8A, $CC, nF3, $86, $C6, nD2
	dc.b $85, nA2, $86, nC3, $84, nD2, $8C, $CC
	dc.b nD3, $8B, nD2, $86, $C6, nA2, $84, nD2
	dc.b $86, nC3, $85, nD2, $84, nD3, $86, nD2
	dc.b $8A, $CC, nA3, $86, $C6, nD2, nA2, $85
	dc.b nC3, $86, nD2, $8B, $CC, nD3, nD2, $87
	dc.b $C6, nA2, $86, nD2, nC3, $85, nD2, nD3
	dc.b nD2, $8B, $CC, nF3, $85, $C6, nD2, $86
	dc.b nA2, nC3, $85, nD2, $8B, $CC, nD3, nD2
	dc.b $87, $C6, nA2, $85, nD2, $86, nC3, nD2
	dc.b $84, nD3, $85, nD2, $8A, $CC, nA3, $86
	dc.b $C6, nD2, nA2, $85, nC3, $84, nD2, $8B
	dc.b $CC, nD3, nD2, $87, $C6, nA2, $84, nD2
	dc.b $86, nC3, $85, nD2, nD3, nD2, $8A, $CC
	dc.b nF3, $86, $C6, nD2, $85, nA2, $86, nC3
	dc.b $84, nD2, $8C, $CC, nD3, $8B, nD2, $86
	dc.b $C6, nA2, $84, nD2, $86, nC3, $85, nD2
	dc.b $84, nD3, $86, nD2, $8A, $CC, nA3, $86
	dc.b $C6, nD2, nA2, $85, nC3, $86, nBb1, $8B
	dc.b $CC, nBb2, nBb1, $87, $C6, nF2, $86, nBb1
	dc.b nAb2, $85, nBb1, nBb2, nBb1, $8B, $CC, nCs3
	dc.b $85, $C6, nBb1, $86, nF2, nAb2, $85, nBb1
	dc.b $8B, $CC, nBb2, nBb1, $87, $C6, nF2, $85
	dc.b nBb1, $86, nAb2, nBb1, $84, nBb2, $85, nBb1
	dc.b $8A, $CC, nF3, $86, $C6, nBb1, nF2, $85
	dc.b nAb2, $84, nD2, $8B, $CC, nD3, nD2, $87
	dc.b $C6, nA2, $84, nD2, $86, nC3, $85, nD2
	dc.b nD3, nD2, $8A, $CC, nF3, $86, $C6, nD2
	dc.b $85, nA2, $86, nC3, $84, nD2, $8C, $CC
	dc.b nD3, $8B, nD2, $86, $C6, nA2, $84, nD2
	dc.b $86, nC3, $85, nD2, $84, nD3, $86, nD2
	dc.b $8A, $CC, nA3, $86, $C6, nD2, nA2, $85
	dc.b nC3, $86, nD2, $8B, $CC, nD3, nD2, $87
	dc.b $C6, nA2, $86, nD2, nC3, $85, nD2, nD3
	dc.b nD2, $8B, $CC, nF3, $85, $C6, nD2, $86
	dc.b nA2, nC3, $85, nD2, $8B, $CC, nD3, nD2
	dc.b $87, $C6, nA2, $85, nD2, $86, nC3, nD2
	dc.b $84, nD3, $85, nD2, $8A, $CC, nA3, $86
	dc.b $C6, nD2, nA2, $85, nC3, $84, nD2, $8B
	dc.b $CC, nD3, nD2, $87, $C6, nA2, $84, nD2
	dc.b $86, nC3, $85, nD2, nD3, nD2, $8A, $CC
	dc.b nF3, $86, $C6, nD2, $85, nA2, $86, nC3
	dc.b $84, nD2, $8C, $CC, nD3, $8B, nD2, $86
	dc.b $C6, nA2, $84, nD2, $86, nC3, $85, nD2
	dc.b $84, nD3, $86, nD2, $8A, $CC, nA3, $86
	dc.b $C6, nD2, nA2, $85, nC3, $86, nBb1, $8B
	dc.b $CC, nBb2, nBb1, $87, $C6, nF2, $86, nBb1
	dc.b nAb2, $85, nBb1, nBb2, nBb1, $8B, $CC, nCs3
	dc.b $85, $C6, nBb1, $86, nF2, nAb2, $85, nBb1
	dc.b $8B, $CC, nBb2, nBb1, $87, $C6, nF2, $85
	dc.b nBb1, $86, nAb2, nBb1, $84, nBb2, $85, nBb1
	dc.b $8A, $CC, nF3, $86, $C6, nBb1, nF2, $85
	dc.b nAb2, $84, nD2, $8B, $CC, nD3, nD2, $87
	dc.b $C6, nA2, $84, nD2, $86, nC3, $85, nD2
	dc.b nD3, nD2, $8A, $CC, nF3, $86, $C6, nD2
	dc.b $85, nA2, $86, nC3, $84, nD2, $8C, $CC
	dc.b nD3, $8B, nD2, $86, $C6, nA2, $84, nD2
	dc.b $86, nC3, $85, nD2, $84, nD3, $86, nD2
	dc.b $8A, $CC, nA3, $86, $C6, nD2, nA2, $85
	dc.b $D2, $C6, nC3, $C0
	gLoopEnd
	gStop

.04_07	gLoopStart
	dc.b $DE, $C0
	gNop
	dc.b $C0
	gsPatch		$20
	gsVolume	$0E
	dc.b $8B, $CC, nE4, $87, $C6, nB4, $86, nE4
	dc.b nD5, $85, nE4, nE5, nE4, $8B, $CC, nG5
	dc.b $85, $C6, nE4, $86, nB4, nD5, $85, nE4
	dc.b $8B, $CC, nE5, nE4, $87, $C6, nB4, $85
	dc.b nE4, $86, nD5, nE4, $84, nE5, $85, nE4
	dc.b $8A, $CC, nB5, $86, $C6, nE4, nB4, $85
	dc.b nD5, $84, nE4, $8B, $CC, nE5, nE4, $87
	dc.b $C6, nB4, $84, nE4, $86, nD5, $85, nE4
	dc.b nE5, nE4, $8A, $CC, nG5, $86, $C6, nE4
	dc.b $85, nB4, $86, nD5, $84, nE4, $8C, $CC
	dc.b nE5, $8B, nE4, $86, $C6, nB4, $84, nE4
	dc.b $86, nD5, $85, nE4, $84, nE5, $86, nE4
	dc.b $8A, $CC, nB5, $86, $C6, nE4, nB4, $85
	dc.b nD5, $86, nE4, $8B, $CC, nE5, nE4, $87
	dc.b $C6, nB4, $86, nE4, nD5, $85, nE4, nE5
	dc.b nE4, $8B, $CC, nG5, $85, $C6, nE4, $86
	dc.b nB4, nD5, $85, nE4, $8B, $CC, nE5, nE4
	dc.b $87, $C6, nB4, $85, nE4, $86, nD5, nE4
	dc.b $84, nE5, $85, nE4, $8A, $CC, nB5, $86
	dc.b $C6, nE4, nB4, $85, nD5, $84, nE4, $8B
	dc.b $CC, nE5, nE4, $87, $C6, nB4, $84, nE4
	dc.b $86, nD5, $85, nE4, nE5, nE4, $8A, $CC
	dc.b nG5, $86, $C6, nE4, $85, nB4, $86, nD5
	dc.b $84, nE4, $8C, $CC, nE5, $8B, nE4, $86
	dc.b $C6, nB4, $84, nE4, $86, nD5, $85, nE4
	dc.b $84, nE5, $86, nE4, $8A, $CC, nB5, $86
	dc.b $C6, nE4, nB4, $85, nD5, $86, nE4, $8B
	dc.b $CC, nE5, nC4, $87, $C6, nG4, $86, nC4
	dc.b nBb4, $85, nC4, nC5, nC4, $8B, $CC, nEb5
	dc.b $85, $C6, nC4, $86, nG4, nBb4, $85, nC4
	dc.b $8B, $CC, nC5, nC4, $87, $C6, nG4, $85
	dc.b nC4, $86, nBb4, nC4, $84, nC5, $85, nC4
	dc.b $8A, $CC, nG5, $86, $C6, nC4, nG4, $85
	dc.b nBb4, $84, nC4, $8B, $CC, nC5, nE4, $87
	dc.b $C6, nB4, $84, nE4, $86, nD5, $85, nE4
	dc.b nE5, nE4, $8A, $CC, nG5, $86, $C6, nE4
	dc.b $85, nB4, $86, nD5, $84, nE4, $8C, $CC
	dc.b nE5, $8B, nE4, $86, $C6, nB4, $84, nE4
	dc.b $86, nD5, $85, nE4, $84, nE5, $86, nE4
	dc.b $8A, $CC, nB5, $86, $C6, nE4, nB4, $85
	dc.b nD5, $86, nE4, $8B, $CC, nE5, $C0
	gLoopEnd
	gStop

.04_08	gLoopStart
	dc.b $DE, $D2
	gNop
	dc.b $C0
	gsPatch		$1E
	gsVolume	$12
	dc.b $8B, $CC, nE4, $87, $C6, nB4, $86, nE4
	dc.b nD5, $85, nE4, nE5, nE4, $8B, $CC, nG5
	dc.b $85, $C6, nE4, $86, nB4, nD5, $85, nE4
	dc.b $8B, $CC, nE5, nE4, $87, $C6, nB4, $85
	dc.b nE4, $86, nD5, nE4, $84, nE5, $85, nE4
	dc.b $8A, $CC, nB5, $86, $C6, nE4, nB4, $85
	dc.b nD5, $84, nE4, $8B, $CC, nE5, nE4, $87
	dc.b $C6, nB4, $84, nE4, $86, nD5, $85, nE4
	dc.b nE5, nE4, $8A, $CC, nG5, $86, $C6, nE4
	dc.b $85, nB4, $86, nD5, $84, nE4, $8C, $CC
	dc.b nE5, $8B, nE4, $86, $C6, nB4, $84, nE4
	dc.b $86, nD5, $85, nE4, $84, nE5, $86, nE4
	dc.b $8A, $CC, nB5, $86, $C6, nE4, nB4, $85
	dc.b nD5, $86, nE4, $8B, $CC, nE5, nE4, $87
	dc.b $C6, nB4, $86, nE4, nD5, $85, nE4, nE5
	dc.b nE4, $8B, $CC, nG5, $85, $C6, nE4, $86
	dc.b nB4, nD5, $85, nE4, $8B, $CC, nE5, nE4
	dc.b $87, $C6, nB4, $85, nE4, $86, nD5, nE4
	dc.b $84, nE5, $85, nE4, $8A, $CC, nB5, $86
	dc.b $C6, nE4, nB4, $85, nD5, $84, nE4, $8B
	dc.b $CC, nE5, nE4, $87, $C6, nB4, $84, nE4
	dc.b $86, nD5, $85, nE4, nE5, nE4, $8A, $CC
	dc.b nG5, $86, $C6, nE4, $85, nB4, $86, nD5
	dc.b $84, nE4, $8C, $CC, nE5, $8B, nE4, $86
	dc.b $C6, nB4, $84, nE4, $86, nD5, $85, nE4
	dc.b $84, nE5, $86, nE4, $8A, $CC, nB5, $86
	dc.b $C6, nE4, nB4, $85, nD5, $86, nC4, $8B
	dc.b $CC, nC5, nC4, $87, $C6, nG4, $86, nC4
	dc.b nBb4, $85, nC4, nC5, nC4, $8B, $CC, nEb5
	dc.b $85, $C6, nC4, $86, nG4, nBb4, $85, nC4
	dc.b $8B, $CC, nC5, nC4, $87, $C6, nG4, $85
	dc.b nC4, $86, nBb4, nC4, $84, nC5, $85, nC4
	dc.b $8A, $CC, nG5, $86, $C6, nC4, nG4, $85
	dc.b nBb4, $84, nE4, $8B, $CC, nE5, nE4, $87
	dc.b $C6, nB4, $84, nE4, $86, nD5, $85, nE4
	dc.b nE5, nE4, $8A, $CC, nG5, $86, $C6, nE4
	dc.b $85, nB4, $86, nD5, $84, nE4, $8C, $CC
	dc.b nE5, $8B, nE4, $86, $C6, nB4, $84, nE4
	dc.b $86, nD5, $85, nE4, $84, nE5, $86, nE4
	dc.b $8A, $CC, nB5, $86, $C6, nE4, nB4, $85
	dc.b nD5, $C0
	gLoopEnd
	gStop

.05_00	dc.b $C0
	gsTempo		116
	gLoopStart
	dc.b $CB, $DC
	gNop
	dc.b $C0
	gsPatch		$7F
	dc.b $87, $D8, nC4, $E4, nC4, $F0, nC4, nC4
	dc.b nC4, nC4, nC4, nC4, nC4, nC4, nC4, nC4
	dc.b nC4, nC4, nC4, nC4, nC4, $D2, nC4, $DE
	dc.b nC4, $F0, nC4, nC4, nC4, nC4, nC4, nC4
	dc.b nC4, $C6, $C0, nC4, $D2, nC4, $DE, nC4
	dc.b $F0, nC4, nC4, nC4, nC4, nC4, nC4, nC4
	dc.b nC4, nC4, nC4, nC4, nC4, nC4, nC4, nC4
	dc.b $C6, nC4, $EA, nC4, $F0, nC4, nC4, nC4
	dc.b nC4, nC4, nC4, nC4, $D2, nC4, $C6, nC4
	dc.b $C1
	gLoopEnd
	gStop

.05_01	gLoopStart
	dc.b $C6, $C0
	gNop
	dc.b $C0
	gsPatch		$29
	gsVolume	$1A
	dc.b $81, $9D, $C1, $E0, nFs3, $A4, $E4, nFs2
	dc.b $B0, $F0, nG2, $8C, $CC, nF3, $81, $A0
	dc.b $C1, $E0, nFs3, $A3, $E4, nFs2, $BC, $C2
	dc.b $DC, nG2, $A2, $E4, nFs2, $B0, $F0, nG2
	dc.b $8C, $C1, $EC, nF3, $A3, $C0, nFs2, $81
	dc.b $E4, nFs3, $BB, $FC, nG2, $81, $9F, $C1
	dc.b $E0, nB3, $A4, $E4, nB2, $B0, $F0, nC3
	dc.b $8C, $CC, nBb3, $81, $9F, $C1, $E0, nB3
	dc.b $A4, $E4, nB2, $BC, $C3, $FC, nC3, $81
	dc.b $9F, $C0, nFs3, $81, $C1, $E0, nF3, $A5
	dc.b $E4, nFs2, $B9, $D8, $FC, nG2, $C0
	gLoopEnd
	gStop

.05_02	gLoopStart
	dc.b $C6, $C0
	gNop
	dc.b $C0
	gsPatch		$3F
	gsVolume	$0B
	dc.b $83, $E4, nFs2, $CC, nFs2, $F0, nFs2, $E4
	dc.b nFs2, $CC, nFs2, $F0, nFs2, $E4, nFs2, $CC
	dc.b nFs2, $F0, nFs2, $CC, nFs2, $D8, nFs2, $CC
	dc.b nFs2, $F0, nFs2, $E4, nFs2, $CC, nFs2, $F0
	dc.b nFs2, $E4, nFs2, $CC, nFs2, $F0, nFs2, $E4
	dc.b nFs2, $CC, nFs2, $F0, nFs2, $CC, nFs2, $D8
	dc.b nFs2, $CC, nFs2, $F0, nFs2, $E4, nFs2, $CC
	dc.b nFs2, $F0, nFs2, $E4, nFs2, $CC, nFs2, $F0
	dc.b nFs2, $E4, nFs2, $CC, nFs2, $F0, nFs2, $CC
	dc.b nFs2, $D8, nFs2, $CC, nFs2, $F0, nFs2, $E4
	dc.b nFs2, $CC, nFs2, $F0, nFs2, $CC, nFs2, $D8
	dc.b nFs2, $CC, nFs2, $F0, nFs2, $E4, nFs2, $CC
	dc.b nFs2, $F0, nFs2, $CC, nFs2, $D8, nFs2, $CC
	dc.b nFs2, $F0, nFs2, $C3, $C0, nFs2, $E4, nFs2
	dc.b $CC, nFs2, $C2, $D0, nFs2, $E4, nFs2, $CC
	dc.b nFs2, $F0, nFs2, $E4, nFs2, $CC, nFs2, $F0
	dc.b nFs2, $E4, nFs2, $CC, nFs2, $F0, nFs2, $CC
	dc.b nFs2, $D8, nFs2, $CC, nFs2, $F0, nFs2, $E4
	dc.b nFs2, $CC, nFs2, $F0, nFs2, $E4, nFs2, $CC
	dc.b nFs2, $F0, nFs2, $E4, nFs2, $CC, nFs2, $F0
	dc.b nFs2, $CC, nFs2, $D8, nFs2, $CC, nFs2, $F0
	dc.b nFs2, $E4, nFs2, $CC, nFs2, $F0, nFs2, $E4
	dc.b nFs2, $CC, nFs2, $F0, nFs2, $E4, nFs2, $CC
	dc.b nFs2, $F0, nFs2, $CC, nFs2, $D8, nFs2, $CC
	dc.b nFs2, $F0, nFs2, $C0
	gLoopEnd
	gStop

.05_03	gLoopStart
	dc.b $CC
	gNop
	dc.b $C0
	gsPatch		$1E
	gsVolume	$04
	dc.b $84, $CC, nFs3, nFs3, nFs2, nFs2, nFs3, nFs4
	dc.b nFs2, nFs2, nFs3, nFs3, nFs2, nFs2, nFs3, nFs4
	dc.b nFs2, nFs2, nFs3, nFs3, nFs2, nFs2, nFs3, nFs4
	dc.b nFs2, nFs2, nFs3, nFs3, nFs2, nFs2, nFs3, nFs4
	dc.b nFs2, nFs2, nFs3, nFs3, nFs2, nFs2, nFs3, nFs4
	dc.b nFs2, nFs2, nFs3, nFs3, nFs2, nFs2, nFs3, nFs4
	dc.b nFs2, nFs2, nFs3, nFs3, nFs2, nFs2, nFs3, nFs4
	dc.b nFs2, nFs2, nFs3, nFs3, nFs2, nFs2, nFs3, nFs4
	dc.b nFs2, nFs2, nFs3, nFs3, nFs2, nFs2, nFs3, nFs4
	dc.b nFs2, nFs2, nFs3, nFs3, nFs2, nFs2, nFs3, nFs4
	dc.b nFs2, nFs2, nFs3, nFs3, nFs2, nFs2, nFs3, nFs4
	dc.b nFs2, nFs2, nFs3, nFs3, nFs2, nFs2, nFs3, nFs4
	dc.b nFs2, nB2, nB3, nB3, nB2, nB2, nB3, nB4
	dc.b nB2, nB2, nB3, nB3, nB2, nB2, nB3, nB4
	dc.b nB2, nB2, nB3, nB3, nB2, nB2, nB3, nB4
	dc.b nB2, nB2, nB3, nB3, nB2, nB2, nB3, nB4
	dc.b nB2, nFs2, nFs3, nFs3, nFs2, nFs2, nFs3, nFs4
	dc.b nFs2, nFs2, nFs3, nFs3, nFs2, nFs2, nFs3, nFs4
	dc.b nFs2, nFs2, nFs3, nFs3, nFs2, nFs2, nFs3, nFs4
	dc.b nFs2, nFs2, nFs3, nFs3, nFs2, nFs2, nFs3, nFs4
	dc.b $C3, $CC, nFs2, $CC, nFs2, nFs3, nFs3, nFs2
	dc.b nFs2, nFs3, nFs4, nFs2, nFs2, nFs3, nFs3, nFs2
	dc.b nFs2, nFs3, nFs4, nFs2, nFs2, nFs3, nFs3, nFs2
	dc.b nFs2, nFs3, nFs4, nFs2, nFs2, nFs3, nFs3, nFs2
	dc.b nFs2, nFs3, nFs4, nFs2, nFs2, nFs3, nFs3, nFs2
	dc.b nFs2, nFs3, nFs4, nFs2, nFs2, nFs3, nFs3, nFs2
	dc.b nFs2, nFs3, nFs4, nFs2, nB2, nB3, nB3, nB2
	dc.b nB2, nB3, nB4, nB2, nB2, nB3, nB3, nB2
	dc.b nB2, nB3, nB4, nB2, nB2, nB3, nB3, nB2
	dc.b nB2, nB3, nB4, nB2, nB2, nB3, nB3, nB2
	dc.b nB2, nB3, nB4, nB2, nFs2, nFs3, nFs3, nFs2
	dc.b nFs2, nFs3, nFs4, nFs2, nFs2, nFs3, nFs3, nFs2
	dc.b nFs2, nFs3, nFs4, nFs2, nFs2, nFs3, nFs3, nFs2
	dc.b nFs2, nFs3, nFs4, nFs2, nFs2, nFs3, nFs3, nFs2
	dc.b nFs2, nFs3, nFs4, nFs2, $C0
	gLoopEnd
	gStop

.05_04	gLoopStart
	dc.b $C6
	gNop
	dc.b $C0
	gsPatch		$20
	gsVolume	$0A
	dc.b $84, $CC, nFs3, nFs3, nFs4, nFs4, nFs3, nFs3
	dc.b nFs4, nFs5, nFs3, nFs3, nFs4, nFs4, nFs3, nFs3
	dc.b nFs4, nFs5, nFs3, nFs3, nFs4, nFs4, nFs3, nFs3
	dc.b nFs4, nFs5, nFs3, nFs3, nFs4, nFs4, nFs3, nFs3
	dc.b nFs4, nFs5, nFs3, nFs3, nFs4, nFs4, nFs3, nFs3
	dc.b nFs4, nFs5, nFs3, nFs3, nFs4, nFs4, nFs3, nFs3
	dc.b nFs4, nFs5, nFs3, nFs3, nFs4, nFs4, nFs3, nFs3
	dc.b nFs4, nFs5, nFs3, nFs3, nFs4, nFs4, nFs3, nFs3
	dc.b nFs4, nFs5, nFs3, nFs3, nFs4, nFs4, nFs3, nFs3
	dc.b nFs4, nFs5, nFs3, nFs3, nFs4, nFs4, nFs3, nFs3
	dc.b nFs4, nFs5, nFs3, nFs3, nFs4, nFs4, nFs3, nFs3
	dc.b nFs4, nFs5, nFs3, nFs3, nFs4, nFs4, nFs3, nFs3
	dc.b nFs4, nFs5, nB3, nB3, nB4, nB4, nB3, nB3
	dc.b nB4, nB5, nB3, nB3, nB4, nB4, nB3, nB3
	dc.b nB4, nB5, nB3, nB3, nB4, nB4, nB3, nB3
	dc.b nB4, nB5, nB3, nB3, nB4, nB4, nB3, nB3
	dc.b nB4, nB5, nFs3, nFs3, nFs4, nFs4, nFs3, nFs3
	dc.b nFs4, nFs5, nFs3, nFs3, nFs4, nFs4, nFs3, nFs3
	dc.b nFs4, nFs5, nFs3, nFs3, nFs4, nFs4, nFs3, nFs3
	dc.b nFs4, nFs5, nFs3, nFs3, nFs4, nFs4, nFs3, nFs3
	dc.b nFs4, $C3, $CC, nFs5, $CC, nFs3, nFs3, nFs4
	dc.b nFs4, nFs3, nFs3, nFs4, nFs5, nFs3, nFs3, nFs4
	dc.b nFs4, nFs3, nFs3, nFs4, nFs5, nFs3, nFs3, nFs4
	dc.b nFs4, nFs3, nFs3, nFs4, nFs5, nFs3, nFs3, nFs4
	dc.b nFs4, nFs3, nFs3, nFs4, nFs5, nFs3, nFs3, nFs4
	dc.b nFs4, nFs3, nFs3, nFs4, nFs5, nFs3, nFs3, nFs4
	dc.b nFs4, nFs3, nFs3, nFs4, nFs5, nB3, nB3, nB4
	dc.b nB4, nB3, nB3, nB4, nB5, nB3, nB3, nB4
	dc.b nB4, nB3, nB3, nB4, nB5, nB3, nB3, nB4
	dc.b nB4, nB3, nB3, nB4, nB5, nB3, nB3, nB4
	dc.b nB4, nB3, nB3, nB4, nB5, nFs3, nFs3, nFs4
	dc.b nFs4, nFs3, nFs3, nFs4, nFs5, nFs3, nFs3, nFs4
	dc.b nFs4, nFs3, nFs3, nFs4, nFs5, nFs3, nFs3, nFs4
	dc.b nFs4, nFs3, nFs3, nFs4, nFs5, nFs3, nFs3, nFs4
	dc.b nFs4, nFs3, nFs3, nFs4, $C6, nFs5, $C0
	gLoopEnd
	gStop

.05_05	gLoopStart
	dc.b $D2, $C0
	gNop
	dc.b $C0
	gsPatch		$55
	gsVolume	$12
	dc.b $8A, $E4, nFs6, $89, $CC, nFs5, $88, nA5
	dc.b $F0, nB5, $89, $CC, nFs5, $88, $D8, nG5
	dc.b $89, $CC, nE5, $E4, nFs5, nFs6, $88, $CC
	dc.b nFs5, $89, nA5, $F0, nB5, $8A, $CC, nB5
	dc.b $D8, nC6, $CC, nC6, $88, $D8, nD6, $89
	dc.b $CC, nD6, $E4, nCs6, $88, $CC, nCs5, nE5
	dc.b $89, $F0, nFs5, $CC, nCs5, $D8, nD5, $CC
	dc.b nB4, $8A, $D8, nCs5, $88, $CC, nCs5, $8B
	dc.b $E4, nCs6, $88, $CC, nCs5, $8A, nE5, $89
	dc.b $F0, nFs5, $CC, nFs5, $D8, nG5, $CC, nG5
	dc.b $88, $D8, nA5, $87, $CC, nA5, $8A, $E4
	dc.b nCs6, $89, $CC, nCs5, $88, nE5, $F0, nFs5
	dc.b $89, $CC, nCs5, $88, $D8, nD5, $89, $CC
	dc.b nB4, $E4, nCs5, nCs6, $88, $CC, nCs5, $89
	dc.b nE5, $F0, nFs5, $8A, $CC, nFs5, $D8, nG5
	dc.b $CC, nG5, $88, $D8, nA5, $89, $CC, nA5
	dc.b $E4, nCs6, $88, $CC, nCs5, nE5, $89, $F0
	dc.b nFs5, $CC, nCs5, $D8, nD5, $CC, nB4, $8A
	dc.b $D8, nCs5, $88, $CC, nCs5, $8B, $E4, nCs6
	dc.b $88, $CC, nCs5, $8A, nE5, $89, $F0, nFs5
	dc.b $CC, nFs5, $D8, nG5, $CC, nG5, $88, $D8
	dc.b nA5, $87, $CC, nA5, $89, $E4, nFs6, $88
	dc.b $CC, nFs5, nA5, $89, $F0, nB5, $CC, nFs5
	dc.b $D8, nG5, $CC, nE5, $8A, $D8, nFs5, $88
	dc.b $CC, nFs5, $8B, $E4, nFs6, $88, $CC, nFs5
	dc.b $8A, nA5, $89, $F0, nB5, $CC, nB5, $D8
	dc.b nC6, $CC, nC6, $88, $D8, nD6, $87, $CC
	dc.b nD6, $89, $E4, nCs6, $88, $CC, nCs5, nE5
	dc.b $89, $F0, nFs5, $CC, nCs5, $D8, nD5, $CC
	dc.b nB4, $8A, $D8, nCs5, $88, $CC, nCs5, $8B
	dc.b $E4, nCs6, $88, $CC, nCs5, $8A, nE5, $89
	dc.b $F0, nFs5, $8A, $CC, nFs5, $D8, nG5, $CC
	dc.b nG5, $88, $D8, nA5, $89, $CC, nA5, $C0
	gLoopEnd
	gStop

.05_06	gLoopStart
	dc.b $C0
	gNop
	gsPatch		$42
	gsVolume	$14
	dc.b $97, $F0, nFs2, $9C, nFs2, $9B, $C1, $E0
	dc.b nFs2, $9A, $F0, nFs2, nFs2, $C1, $E0, nFs2
	dc.b $98, $F0, nFs2, $9A, nFs2, $99, $C1, $E0
	dc.b nFs2, $9A, $F0, nFs2, $9B, nFs2, $99, $C1
	dc.b $E0, nFs2, $97, $F0, nFs2, $9A, nFs2, $97
	dc.b $C1, $E0, nFs2, $9A, $F0, nFs2, $9B, nFs2
	dc.b $99, $C1, $E0, nFs2, $9A, $F0, nB2, $9C
	dc.b nB2, $99, $C1, $E0, nB2, $9A, $F0, nB2
	dc.b $9B, nB2, $C1, $E0, nB2, $F0, nFs2, $9A
	dc.b nFs2, $C1, $E0, nFs2, $F0, nFs2, $9C, nFs2
	dc.b $9A, $C1, $E0, nFs2, $F0, nFs2, nFs2, $99
	dc.b $C1, $E0, nFs2, $9B, $F0, nFs2, $9A, nFs2
	dc.b $98, $C1, $E0, nFs2, $F0, nFs2, $9B, nFs2
	dc.b $9A, $C1, $E0, nFs2, $9B, $F0, nFs2, nFs2
	dc.b $98, $C1, $E0, nFs2, $F0, nB2, $9B, nB2
	dc.b $99, $C1, $E0, nB2, $F0, nB2, $9A, nB2
	dc.b $C1, $E0, nB2, $9B, $F0, nFs2, nFs2, $98
	dc.b $C1, $E0, nFs2, $9A, $F0, nFs2, $C2, $D0
	dc.b nFs2, $C0
	gLoopEnd
	gStop

.05_07	gLoopStart
	dc.b $C0
	gNop
	gsPatch		$65
	gsVolume	$08
	dc.b $94, $C3, $C0, nFs1, $96, $C9, $C0, nFs1
	dc.b $94, $C3, $C0, nFs1, $98, $C9, $C0, nFs1
	dc.b $95, $C6, $C0, nFs1, $96, $C3, $C0, nFs1
	dc.b $93, $C9, $C0, nFs1, $95, $C2, $F4, nB1
	dc.b $8B, $CC, nB2, $99, $C3, $C0, nB1, $96
	dc.b $C6, $C0, nFs2, $C0
	gLoopEnd
	gStop

.05_08	gLoopStart
	dc.b $D2, $D2
	gNop
	dc.b $C0
	gsPatch		$55
	gsVolume	$1B
	dc.b $8A, $E4, nFs6, $89, $CC, nFs5, $88, nA5
	dc.b $F0, nB5, $89, $CC, nFs5, $88, $D8, nG5
	dc.b $89, $CC, nE5, $E4, nFs5, nFs6, $88, $CC
	dc.b nFs5, $89, nA5, $F0, nB5, $8A, $CC, nB5
	dc.b $D8, nC6, $CC, nC6, $88, $D8, nD6, $89
	dc.b $CC, nA5, $E4, nCs6, $88, $CC, nCs5, nE5
	dc.b $89, $F0, nFs5, $CC, nCs5, $D8, nD5, $CC
	dc.b nB4, $8A, $D8, nCs5, $88, $CC, nCs5, $8B
	dc.b $E4, nCs6, $88, $CC, nCs5, $8A, nE5, $89
	dc.b $F0, nFs5, $CC, nFs5, $D8, nG5, $CC, nG5
	dc.b $88, $E4, nA5, $8A, nCs6, $89, $CC, nCs5
	dc.b $88, nE5, $F0, nFs5, $89, $CC, nCs5, $88
	dc.b $D8, nD5, $89, $CC, nB4, $E4, nCs5, nCs6
	dc.b $88, $CC, nCs5, $89, nE5, $F0, nFs5, $8A
	dc.b $CC, nFs5, $D8, nG5, $CC, nG5, $88, $D8
	dc.b nA5, $89, $CC, nA5, $E4, nCs6, $88, $CC
	dc.b nCs5, nE5, $89, $F0, nFs5, $CC, nCs5, $D8
	dc.b nD5, $CC, nB4, $8A, $D8, nCs5, $88, $CC
	dc.b nCs5, $8B, $E4, nCs6, $88, $CC, nCs5, $8A
	dc.b nE5, $89, $F0, nFs5, $CC, nFs5, $D8, nG5
	dc.b $CC, nG5, $88, $D8, nA5, $89, $CC, nD6
	dc.b $E4, nFs6, $88, $CC, nFs5, nA5, $89, $F0
	dc.b nB5, $CC, nFs5, $D8, nG5, $CC, nE5, $8A
	dc.b $D8, nFs5, $88, $CC, nFs5, $8B, $E4, nFs6
	dc.b $88, $CC, nFs5, $8A, nA5, $89, $F0, nB5
	dc.b $CC, nB5, $D8, nC6, $CC, nC6, $88, $D8
	dc.b nD6, $89, $CC, nA5, $E4, nCs6, $88, $CC
	dc.b nCs5, nE5, $89, $F0, nFs5, $CC, nCs5, $D8
	dc.b nD5, $CC, nB4, $8A, $D8, nCs5, $88, $CC
	dc.b nCs5, $8B, $E4, nCs6, $88, $CC, nCs5, $8A
	dc.b nE5, $89, $F0, nFs5, $8A, $CC, nFs5, $D8
	dc.b nG5, $CC, nG5, $88, $D2, nA5, $C0
	gLoopEnd
	gStop

.06_00	dc.b $C0
	gsTempo		123
	gLoopStart
	dc.b $C1, $E0
	gNop
	dc.b $C0
	gsPatch		$1D
	gsVolume	$02
	dc.b $8D, $CC, nE1, $89, nE2, $84, $C6, nE1
	dc.b $85, nE2, $8B, $CC, nE1, $8C, nE2, nB1
	dc.b $8B, nC2, $8C, nF2, $8D, nE1, $89, nE2
	dc.b $84, $C6, nE1, nE2, $8B, $CC, nE1, $8D
	dc.b nE2, $8B, nB1, $8C, nC2, $8B, nF2, $8D
	dc.b nE1, $89, nE2, $84, $C6, nE1, $85, nE2
	dc.b $8A, $CC, nE1, $8C, nE2, $8B, nB1, $8D
	dc.b nC2, $8A, nF2, $8D, nE1, $89, nE2, $85
	dc.b $C6, nE1, nE2, $8B, $CC, nE1, nE2, nF2
	dc.b $95, $D8, nG2, $8D, $CC, nE1, $89, nE2
	dc.b $84, $C6, nE1, $85, nE2, $8B, $CC, nE1
	dc.b $8C, nE2, nB1, $8B, nC2, $8C, nF2, $8D
	dc.b nE1, $89, nE2, $84, $C6, nE1, nE2, $8B
	dc.b $CC, nE1, $8D, nE2, $8B, nB1, $8C, nC2
	dc.b $8B, nF2, $8D, nE1, $89, nE2, $84, $C6
	dc.b nE1, $85, nE2, $8A, $CC, nE1, $8C, nE2
	dc.b $8B, nB1, $8D, nC2, $8A, nF2, $8D, nE1
	dc.b $89, nE2, $85, $C6, nE1, nE2, $8B, $CC
	dc.b nE1, nE2, nF2, $95, $D8, nG2, $8C, $CC
	dc.b nE1, $8A, nE2, $85, $C6, nE1, $84, nE2
	dc.b $8B, $CC, nE1, $8C, nE2, nB1, $8D, nC2
	dc.b $8C, nF2, nE1, $89, nE2, $85, $C6, nE1
	dc.b nE2, $8B, $CC, nE1, $8C, nE2, $8B, nB1
	dc.b $8C, nC2, $8D, nF2, nE1, $8A, nE2, $84
	dc.b $C6, nE1, $85, nE2, $8C, $CC, nE1, $8B
	dc.b nE2, $8C, nB1, nC2, $C1, $EC, nF2, $8D
	dc.b $CC, nD1, $89, nD2, $84, $C6, nD1, $85
	dc.b nD2, $8B, $CC, nD1, $8C, nD2, nA1, $8B
	dc.b nBb1, $8C, nEb2, $8D, nD1, $89, nD2, $84
	dc.b $C6, nD1, nD2, $8B, $CC, nD1, $8D, nD2
	dc.b $8B, nA1, $8C, nBb1, $8B, nEb2, $8D, nD1
	dc.b $89, nD2, $84, $C6, nD1, $85, nD2, $8A
	dc.b $CC, nD1, $8C, nD2, $8B, nA1, $8D, nBb1
	dc.b $8A, nEb2, $8D, nD1, $89, nD2, $85, $C6
	dc.b nD1, nD2, $8B, $CC, nD1, nD2, nEb2, $95
	dc.b $D8, nF2, $8C, $CC, nE1, $8A, nE2, $85
	dc.b $C6, nE1, $84, nE2, $8B, $CC, nE1, $8C
	dc.b nE2, nB1, $8D, nC2, $8C, nF2, nE1, $89
	dc.b nE2, $85, $C6, nE1, nE2, $8B, $CC, nE1
	dc.b $8C, nE2, $8B, nB1, $8C, nC2, $8D, nF2
	dc.b nE1, $8A, nE2, $84, $C6, nE1, $85, nE2
	dc.b $8C, $CC, nE1, $8B, nE2, $8C, nB1, nC2
	dc.b nF2, nE1, $89, nE2, $85, $C6, nE1, $86
	dc.b nE2, $89, $CC, nE1, $8E, nE2, $8C, nG2
	dc.b $97, $D8, nF2, $8D, $CC, nE1, $89, nE2
	dc.b $84, $C6, nE1, $85, nE2, $8B, $CC, nE1
	dc.b $8C, nE2, nB1, $8B, nC2, $8C, nF2, $8D
	dc.b nE1, $89, nE2, $84, $C6, nE1, nE2, $8B
	dc.b $CC, nE1, $8D, nE2, $8B, nB1, $8C, nC2
	dc.b $8B, nF2, $8D, nE1, $89, nE2, $84, $C6
	dc.b nE1, $85, nE2, $8A, $CC, nE1, $8C, nE2
	dc.b $8B, nB1, $8D, nC2, $8A, nF2, $8D, nE1
	dc.b $89, nE2, $85, $C6, nE1, nE2, $8B, $CC
	dc.b nE1, nE2, nF2, $95, $CC, $D8, nG2, $C0
	gLoopEnd
	gStop

.06_01	gLoopStart
	dc.b $C1, $E6
	gNop
	dc.b $C0
	gsPatch		$79
	gsVolume	$06
	dc.b $8D, $CC, nE1, $89, nE2, $84, $C6, nE1
	dc.b $85, nE2, $8B, $CC, nE1, $8C, nE2, nB1
	dc.b $8B, nC2, $8C, nF2, $8D, nE1, $89, nE2
	dc.b $84, $C6, nE1, nE2, $8B, $CC, nE1, $8D
	dc.b nE2, $8B, nB1, $8C, nC2, $8B, nF2, $8D
	dc.b nE1, $89, nE2, $84, $C6, nE1, $85, nE2
	dc.b $8A, $CC, nE1, $8C, nE2, $8B, nB1, $8D
	dc.b nC2, $8A, nF2, $8D, nE1, $89, nE2, $85
	dc.b $C6, nE1, nE2, $8B, $CC, nE1, nE2, nF2
	dc.b $92, $D8, nG2, $8D, $CC, nE1, $89, nE2
	dc.b $84, $C6, nE1, $85, nE2, $8B, $CC, nE1
	dc.b $8C, nE2, nB1, $8B, nC2, $8C, nF2, $8D
	dc.b nE1, $89, nE2, $84, $C6, nE1, nE2, $8B
	dc.b $CC, nE1, $8D, nE2, $8B, nB1, $8C, nC2
	dc.b $8B, nF2, $8D, nE1, $89, nE2, $84, $C6
	dc.b nE1, $85, nE2, $8A, $CC, nE1, $8C, nE2
	dc.b $8B, nB1, $8D, nC2, $8A, nF2, $8D, nE1
	dc.b $89, nE2, $85, $C6, nE1, nE2, $8B, $CC
	dc.b nE1, nE2, nF2, $95, $D8, nG2, $8C, $CC
	dc.b nE1, $8A, nE2, $85, $C6, nE1, $84, nE2
	dc.b $8B, $CC, nE1, $8C, nE2, nB1, $8D, nC2
	dc.b $8C, nF2, nE1, $89, nE2, $85, $C6, nE1
	dc.b nE2, $8B, $CC, nE1, $8C, nE2, $8B, nB1
	dc.b $8C, nC2, $8D, nF2, nE1, $8A, nE2, $84
	dc.b $C6, nE1, $85, nE2, $8C, $CC, nE1, $8B
	dc.b nE2, $8C, nB1, nC2, $86, $C1, $E6, nF2
	dc.b $85, $C6, nF2, $8D, $CC, nD1, $89, nD2
	dc.b $84, $C6, nD1, $85, nD2, $8B, $CC, nD1
	dc.b $8C, nD2, nA1, $8B, nBb1, $8C, nEb2, $8D
	dc.b nD1, $89, nD2, $84, $C6, nD1, nD2, $8B
	dc.b $CC, nD1, $8D, nD2, $8B, nA1, $8C, nBb1
	dc.b $8B, nEb2, $8D, nD1, $89, nD2, $84, $C6
	dc.b nD1, $85, nD2, $8A, $CC, nD1, $8C, nD2
	dc.b $8B, nA1, $8D, nBb1, $8A, nEb2, $8D, nD1
	dc.b $89, nD2, $85, $C6, nD1, nD2, $8B, $CC
	dc.b nD1, nD2, nEb2, $95, $D8, nF2, $8C, $CC
	dc.b nE1, $8A, nE2, $85, $C6, nE1, $84, nE2
	dc.b $8B, $CC, nE1, $8C, nE2, nB1, $8D, nC2
	dc.b $8C, nF2, nE1, $89, nE2, $85, $C6, nE1
	dc.b nE2, $8B, $CC, nE1, $8C, nE2, $8B, nB1
	dc.b $8C, nC2, $8D, nF2, nE1, $8A, nE2, $84
	dc.b $C6, nE1, $85, nE2, $8C, $CC, nE1, $8B
	dc.b nE2, $8C, nB1, nC2, nF2, nE1, $89, nE2
	dc.b $85, $C6, nE1, $86, nE2, $89, $CC, nE1
	dc.b $8E, nE2, $8C, nG2, $97, $D8, nF2, $8D
	dc.b $CC, nE1, $89, nE2, $84, $C6, nE1, $85
	dc.b nE2, $8B, $CC, nE1, $8C, nE2, nB1, $8B
	dc.b nC2, $8C, nF2, $8D, nE1, $89, nE2, $84
	dc.b $C6, nE1, nE2, $8B, $CC, nE1, $8D, nE2
	dc.b $8B, nB1, $8C, nC2, $8B, nF2, $8D, nE1
	dc.b $89, nE2, $84, $C6, nE1, $85, nE2, $8A
	dc.b $CC, nE1, $8C, nE2, $8B, nB1, $8D, nC2
	dc.b $8A, nF2, $8D, nE1, $89, nE2, $85, $C6
	dc.b nE1, nE2, $8B, $CC, nE1, nE2, nF2, $92
	dc.b $CC, $D2, nG2, $C0
	gLoopEnd
	gStop

.06_02	gLoopStart
	dc.b $C7, $E0
	gNop
	dc.b $C0
	gsPatch		$3F
	gsVolume	$0A
	dc.b $83, $D8, nB2, nB2, $D2, nB2, $82, $C6
	dc.b nB2, $83, $D8, nB2, nB2, nB2, $D2, nB2
	dc.b $82, $C6, nB2, $83, $D8, nB2, nB2, nB2
	dc.b $D2, nB2, $82, $C6, nB2, $83, $D8, nB2
	dc.b nB2, nB2, $D2, nB2, $82, $C6, nB2, $83
	dc.b $D8, nB2, nB2, nB2, $D2, nB2, $82, $C6
	dc.b nB2, $83, $D8, nB2, nB2, nB2, nB2, nB2
	dc.b nB2, $D2, nB2, $82, $C6, nB2, $83, $D2
	dc.b nB2, $82, $C6, nB2, $83, $C1, $F8, nB2
	dc.b $D8, nB2, nB2, nB2, nB2, nB2, nB2, nB2
	dc.b nB2, nB2, nB2, nB2, nB2, nB2, $D2, nB2
	dc.b $82, $C6, nB2, $83, $D8, nB2, nB2, nB2
	dc.b $D2, nB2, $82, $C6, nB2, $83, $D8, nB2
	dc.b nB2, $D2, nB2, $82, $C6, nB2, $83, $D8
	dc.b nB2, nB2, nB2, $D2, nB2, $82, $C6, nB2
	dc.b $83, $D8, nB2, nB2, nB2, $D2, nB2, $82
	dc.b $C6, nB2, $83, $D8, nB2, nB2, nB2, nB2
	dc.b nB2, nB2, nB2, nB2, $D2, nB2, $82, $C6
	dc.b nB2, $83, $D8, nB2, $D2, nB2, $82, $C6
	dc.b nB2, $83, $D8, nB2, nB2, nB2, nB2, $C1
	dc.b $E0, nB2, $D8, nB2, nB2, nB2, nB2, nB2
	dc.b nB2, nB2, nB2, nB2, nB2, nB2, nB2, $D2
	dc.b nB2, $82, $C6, nB2, $83, $D8, nB2, $D2
	dc.b nB2, $82, $C6, nB2, $83, $D8, nB2, $C6
	dc.b $C0, nB2, $C0
	gLoopEnd
	gStop

.06_03	gLoopStart
	dc.b $C7, $E0
	gNop
	dc.b $C0
	gsPatch		$19
	gsVolume	$10
	dc.b $8A, $CC, nB3, nE4, $89, nFs4, $8C, nG4
	dc.b $8B, nB3, $85, nE4, $8C, nE5, $85, nB3
	dc.b $8A, nB3, $8B, nE4, $8C, nFs4, $8D, nG4
	dc.b $8B, nB3, $85, nE4, $8C, nFs5, $85, nB3
	dc.b $8A, nB3, nE4, $8D, nFs4, nG4, $8A, nB3
	dc.b $84, nE4, $8A, nG5, $85, nB3, $89, nB3
	dc.b $8A, nE4, $89, nFs4, $8A, nG4, nB3, $84
	dc.b nA4, $8C, nB4, $85, nB3, $89, nB3, $8A
	dc.b nE4, $8B, nFs4, $8A, nG4, $8B, nB3, $85
	dc.b nE4, $8B, nE5, $85, nB3, $88, nB3, $89
	dc.b nE4, nFs4, $8B, nG4, $8A, nB3, $85, nE4
	dc.b $8C, nFs5, $86, nB3, $88, nB3, $89, nE4
	dc.b nFs4, $8A, nG4, $89, nB3, $84, nE4, $8A
	dc.b nG5, $85, nB3, $88, nB3, $8A, nE4, $8E
	dc.b nFs4, $89, nG4, $8A, nB3, $83, nA5, $8A
	dc.b nB5, $85, $C6, $CC, nB3, $8A, $CC, nB4
	dc.b nE5, $89, nFs5, $8C, nG5, $8B, nB4, $85
	dc.b nE5, $8C, nE6, $85, nB4, $8A, nB4, $8B
	dc.b nE5, $8C, nFs5, $8D, nG5, $8B, nB4, $85
	dc.b nE5, $8C, nFs6, $85, nB4, $8A, nB4, nE5
	dc.b $8D, nFs5, nG5, $8A, nB4, $84, nE5, $8A
	dc.b nG6, $85, nB4, $89, nB4, $8A, nE5, $89
	dc.b nFs5, $8A, nG5, nB4, $84, nA5, $8C, nB5
	dc.b $85, nB4, $89, nB4, $8A, nE5, $8B, nFs5
	dc.b $8A, nG5, $8B, nB4, $85, nE5, $8B, nE6
	dc.b $85, nB4, $88, nB4, $89, nE5, nFs5, $8B
	dc.b nG5, $8A, nB4, $85, nE5, $8C, nFs6, $86
	dc.b nB4, $88, nB4, $89, nE5, nFs5, $8A, nG5
	dc.b $89, nB4, $84, nE5, $8A, nG6, $85, $C1
	dc.b $EC, nB4, $89, $CC, nCs5, $8A, nFs5, $8B
	dc.b nAb5, $8A, nA5, $8B, nCs5, $85, nFs5, $8B
	dc.b nFs6, $85, nCs5, $88, nCs5, $89, nFs5, nAb5
	dc.b $8B, nA5, $8A, nCs5, $85, nFs5, $8C, nAb6
	dc.b $86, nCs5, $88, nCs5, $89, nFs5, nAb5, $8A
	dc.b nA5, $89, nCs5, $84, nFs5, $8A, nA6, $85
	dc.b nCs5, $88, nCs5, $8A, nFs5, $8E, nAb5, $89
	dc.b nA5, $8A, nCs5, $83, nB6, $8A, nCs7, $85
	dc.b nCs5, $89, nCs5, $8A, nFs5, $8B, nAb5, $8A
	dc.b nA5, $8B, nCs5, $85, nFs5, $8B, nFs6, $85
	dc.b nCs5, $88, nCs5, $89, nFs5, nAb5, $8B, nA5
	dc.b $8A, nCs5, $85, nFs5, $8C, nAb6, $86, nCs5
	dc.b $88, nCs5, $89, nFs5, nAb5, $8A, nA5, $89
	dc.b nCs5, $84, nFs5, $8A, nA6, $85, nCs5, $88
	dc.b nCs5, $8A, nFs5, $8E, nAb5, $89, nA5, $8A
	dc.b nCs5, $83, nB6, $8A, nCs7, $85, nCs5, $C0
	gLoopEnd
	gStop

.06_04	gLoopStart
	dc.b $C7, $F2
	gNop
	dc.b $C0
	gsPatch		$19
	gsVolume	$16
	dc.b $8A, $CC, nB3, nE4, $89, nFs4, $8C, nG4
	dc.b $8B, nB3, $85, nE4, $8C, nE5, $85, nB3
	dc.b $8A, nB3, $8B, nE4, $8C, nFs4, $8D, nG4
	dc.b $8B, nB3, $85, nE4, $8C, nFs5, $85, nB3
	dc.b $8A, nB3, nE4, $8D, nFs4, nG4, $8A, nB3
	dc.b $84, nE4, $8A, nG5, $85, nB3, $89, nB3
	dc.b $8A, nE4, $89, nFs4, $8A, nG4, nB3, $84
	dc.b nA4, $8C, nB4, $85, nB3, $89, nB3, $8A
	dc.b nE4, $8B, nFs4, $8A, nG4, $8B, nB3, $85
	dc.b nE4, $8B, nE5, $85, nB3, $88, nB3, $89
	dc.b nE4, nFs4, $8B, nG4, $8A, nB3, $85, nE4
	dc.b $8C, nFs5, $86, nB3, $88, nB3, $89, nE4
	dc.b nFs4, $8A, nG4, $89, nB3, $84, nE4, $8A
	dc.b nG5, $85, nB3, $88, nB3, $8A, nE4, $8E
	dc.b nFs4, $89, nG4, $8A, nB3, $83, nA5, $86
	dc.b $C6, $D8, nB5, $8A, $CC, nB4, nE5, $89
	dc.b nFs5, $8C, nG5, $8B, nB4, $85, nE5, $8C
	dc.b nE6, $85, nB4, $8A, nB4, $8B, nE5, $8C
	dc.b nFs5, $8D, nG5, $8B, nB4, $85, nE5, $8C
	dc.b nFs6, $85, nB4, $8A, nB4, nE5, $8D, nFs5
	dc.b nG5, $8A, nB4, $84, nE5, $8A, nG6, $85
	dc.b nB4, $89, nB4, $8A, nE5, $89, nFs5, $8A
	dc.b nG5, nB4, $84, nA5, $8C, nB5, $85, nB4
	dc.b $89, nB4, $8A, nE5, $8B, nFs5, $8A, nG5
	dc.b $8B, nB4, $85, nE5, $8B, nE6, $85, nB4
	dc.b $88, nB4, $89, nE5, nFs5, $8B, nG5, $8A
	dc.b nB4, $85, nE5, $8C, nFs6, $86, nB4, $88
	dc.b nB4, $89, nE5, nFs5, $8A, nG5, $89, nB4
	dc.b $84, nE5, $86, $C1, $EC, nG6, $85, $CC
	dc.b nB4, $89, nCs5, $8A, nFs5, $8B, nAb5, $8A
	dc.b nA5, $8B, nCs5, $85, nFs5, $8B, nFs6, $85
	dc.b nCs5, $88, nCs5, $89, nFs5, nAb5, $8B, nA5
	dc.b $8A, nCs5, $85, nFs5, $8C, nAb6, $86, nCs5
	dc.b $88, nCs5, $89, nFs5, nAb5, $8A, nA5, $89
	dc.b nCs5, $84, nFs5, $8A, nA6, $85, nCs5, $88
	dc.b nCs5, $8A, nFs5, $8E, nAb5, $89, nA5, $8A
	dc.b nCs5, $83, nB6, $8A, nCs7, $85, nCs5, $89
	dc.b nCs5, $8A, nFs5, $8B, nAb5, $8A, nA5, $8B
	dc.b nCs5, $85, nFs5, $8B, nFs6, $85, nCs5, $88
	dc.b nCs5, $89, nFs5, nAb5, $8B, nA5, $8A, nCs5
	dc.b $85, nFs5, $8C, nAb6, $86, nCs5, $88, nCs5
	dc.b $89, nFs5, nAb5, $8A, nA5, $89, nCs5, $84
	dc.b nFs5, $8A, nA6, $85, nCs5, $88, nCs5, $8A
	dc.b nFs5, $8E, nAb5, $89, nA5, $8A, nCs5, $83
	dc.b nB6, $85, $C6, nCs7, $C0
	gLoopEnd
	gStop

.06_05	gLoopStart
	dc.b $C0
	gNop
	gsPatch		$29
	gsVolume	$13
	dc.b $81, $9E, nFs1, $81, $9F, $E9, nB0, $C7
	gPitBend	$FFFE
	dc.b $C4
	gPitBend	$FFDE
	dc.b $C2
	gPitBend	$FFBC
	gPitBend	$FF9C
	dc.b $C1
	gPitBend	$FF7A
	dc.b $C2
	gPitBend	$FF5A
	dc.b $C8
	gPitBend	$FF38
	dc.b $CF
	gPitBend	$FF18
	dc.b $C2
	gPitBend	$FF38
	gPitBend	$FF5A
	gPitBend	$FF7A
	dc.b $C0
	gPitBend	$FF9C
	dc.b $C2
	gPitBend	$FFBC
	dc.b $C1
	gPitBend	$FFDE
	dc.b $D2, $C5
	gPitBend	$0000
	dc.b $82, $B5, $D4, nD3, $C1
	gPitBend	$0084
	dc.b $C2
	gPitBend	$0108
	dc.b $C0
	gPitBend	$0062
	dc.b $CF
	gPitBend	$0000
	dc.b $C1
	gPitBend	$0084
	dc.b $C0
	gPitBend	$01AC
	dc.b $C1
	gPitBend	$0230
	gPitBend	$01CE
	gPitBend	$0108
	dc.b $C0
	gPitBend	$0062
	dc.b $CE
	gPitBend	$0000
	dc.b $C1
	gPitBend	$00E6
	gPitBend	$01EE
	dc.b $C0
	gPitBend	$0272
	dc.b $C1
	gPitBend	$0252
	gPitBend	$018C
	gPitBend	$00A4
	dc.b $C0
	gPitBend	$0020
	dc.b $CC
	gPitBend	$0000
	dc.b $C1
	gPitBend	$0020
	dc.b $C0
	gPitBend	$0128
	dc.b $C2
	gPitBend	$01EE
	dc.b $C1
	gPitBend	$0128
	dc.b $C0
	gPitBend	$0084
	dc.b $C1
	gPitBend	$0020
	dc.b $D4
	gPitBend	$0000
	dc.b $C1
	gPitBend	$0042
	gPitBend	$00A4
	gPitBend	$0042
	dc.b $E5
	gPitBend	$0000
	dc.b $C2
	gPitBend	$0042
	dc.b $E8
	gPitBend	$0000
	dc.b $8C, $CC, nD4, $82, $BD, $D2, nD3, $C1
	gPitBend	$00C6
	dc.b $C0
	gPitBend	$0230
	dc.b $C1
	gPitBend	$02F6
	gPitBend	$02D6
	gPitBend	$01EE
	dc.b $C0
	gPitBend	$00E6
	dc.b $C1
	gPitBend	$0042
	dc.b $CE
	gPitBend	$0000
	dc.b $C1
	gPitBend	$0062
	dc.b $C0
	gPitBend	$00C6
	dc.b $C1
	gPitBend	$0084
	gPitBend	$0020
	dc.b $E1
	gPitBend	$0000
	dc.b $C1
	gPitBend	$0084
	gPitBend	$0230
	gPitBend	$0318
	gPitBend	$0230
	gPitBend	$0108
	gPitBend	$0062
	dc.b $D0
	gPitBend	$0000
	dc.b $C1
	gPitBend	$01CE
	gPitBend	$03BC
	dc.b $C2
	gPitBend	$03FE
	dc.b $C0
	gPitBend	$0338
	dc.b $C1
	gPitBend	$01EE
	gPitBend	$00C6
	gPitBend	$0042
	dc.b $D8
	gPitBend	$0000
	dc.b $C1
	gPitBend	$0020
	dc.b $C7
	gPitBend	$0000
	dc.b $C1
	gPitBend	$00E6
	gPitBend	$01AC
	dc.b $C0
	gPitBend	$01CE
	dc.b $C1
	gPitBend	$0128
	gPitBend	$0084
	gPitBend	$0020
	dc.b $CA
	gPitBend	$0000
	dc.b $C0
	gPitBend	$0042
	dc.b $C1
	gPitBend	$0084
	gPitBend	$0020
	dc.b $C9
	gPitBend	$0000
	dc.b $C1
	gPitBend	$00C6
	dc.b $C0
	gPitBend	$016A
	dc.b $C1
	gPitBend	$0128
	gPitBend	$0084
	gPitBend	$0020
	dc.b $C6
	gPitBend	$0000
	dc.b $C1
	gPitBend	$0042
	dc.b $C0
	gPitBend	$0062
	dc.b $C1
	gPitBend	$0020
	dc.b $CC, $D4
	gPitBend	$0000
	dc.b $85, $BE, $C6, $C0, nFs2, $85, $AE, $C0
	dc.b nB0, $C1, $DC, nFs1, $C1
	gPitBend	$FFFE
	gPitBend	$FFDE
	dc.b $C0
	gPitBend	$FF9C
	dc.b $C1
	gPitBend	$FF7A
	dc.b $C2
	gPitBend	$FF5A
	dc.b $C1
	gPitBend	$FF38
	dc.b $C4
	gPitBend	$FF18
	dc.b $C2
	gPitBend	$FEF6
	gPitBend	$FED6
	dc.b $C0
	gPitBend	$FEB4
	dc.b $C2
	gPitBend	$FE94
	dc.b $C1
	gPitBend	$FE72
	dc.b $C2
	gPitBend	$FE52
	dc.b $C6
	gPitBend	$FE30
	dc.b $C2
	gPitBend	$FE52
	dc.b $C1
	gPitBend	$FE72
	dc.b $C2
	gPitBend	$FE94
	dc.b $C1
	gPitBend	$FEB4
	dc.b $C3
	gPitBend	$FED6
	dc.b $C7
	gPitBend	$FEF6
	dc.b $C1
	gPitBend	$FED6
	dc.b $C2
	gPitBend	$FEB4
	dc.b $C1
	gPitBend	$FE72
	dc.b $C2
	gPitBend	$FE52
	dc.b $C6
	gPitBend	$FE30
	dc.b $C4
	gPitBend	$FE52
	dc.b $C1
	gPitBend	$FE30
	gPitBend	$FE10
	gPitBend	$FDEE
	dc.b $C2
	gPitBend	$FDAC
	gPitBend	$FD8C
	dc.b $C3
	gPitBend	$FD6A
	dc.b $C2
	gPitBend	$FD4A
	dc.b $C8
	gPitBend	$FD28
	dc.b $C2
	gPitBend	$FD4A
	dc.b $C3
	gPitBend	$FD6A
	dc.b $C5
	gPitBend	$FD8C
	dc.b $C3
	gPitBend	$FDAC
	dc.b $C1
	gPitBend	$FDCE
	dc.b $C2
	gPitBend	$FDEE
	dc.b $C1
	gPitBend	$FE10
	dc.b $C2
	gPitBend	$FE30
	gPitBend	$FE72
	dc.b $C1
	gPitBend	$FE94
	dc.b $C2
	gPitBend	$FEB4
	dc.b $C1
	gPitBend	$FED6
	dc.b $C2
	gPitBend	$FEF6
	gPitBend	$FF18
	gPitBend	$FF38
	gPitBend	$FF5A
	gPitBend	$FF7A
	dc.b $C1
	gPitBend	$FF9C
	dc.b $C2
	gPitBend	$FFBC
	dc.b $C1
	gPitBend	$FFDE
	dc.b $C2
	gPitBend	$FFFE
	dc.b $C2, $EE
	gPitBend	$0000
	dc.b $C0
	gLoopEnd
	gStop

.07_00	dc.b $C0
	gsTempo		143
	gLoopStart
	dc.b $C3, $C0
	gNop
	dc.b $C0
	gsPatch		$5E
	gsVolume	$0B
	dc.b $86, nFs3, $D8, nD3, $C0, nFs3, $D2, nD3
	dc.b $C0, nFs3, $D2, nD3, $C0, nD3, $D8, nFs3
	dc.b $C0, nD3, $CC, nFs3, $C0, nCs3, $D8, nA2
	dc.b $C0, nA2, $D2, nCs3, $C0, nD3, $D2, nB2
	dc.b $C0, nD3, $D8, nB2, $C0, nB2, $CC, nD3
	dc.b $C0, nFs3, $D8, nD3, $C0, nFs3, $D2, nD3
	dc.b $C0, nFs3, $D2, nD3, $C0, nD3, $D8, nFs3
	dc.b $C0, nD3, $CC, nFs3, $C0, nCs3, $D8, nA2
	dc.b $C0, nA2, $D2, nCs3, $C0, nD3, $D2, nB2
	dc.b $C0, nD3, $D8, nB2, $C0, nB2, $CC, nD3
	dc.b $C0, nFs3, $D8, nD3, $C0, nFs3, $D2, nD3
	dc.b $C0, nFs3, $D2, nD3, $C0, nD3, $D8, nFs3
	dc.b $C0, nD3, $CC, nFs3, $C0, nCs3, $D8, nA2
	dc.b $C0, nA2, $D2, nCs3, $C0, nD3, $D2, nB2
	dc.b $C0, nD3, $D8, nB2, $C0, nB2, $CC, $CC
	dc.b nD3, $C0, nFs3, $D8, nD3, $C0, nFs3, $D2
	dc.b nD3, $C0, nFs3, $D2, nD3, $C0, nD3, $D8
	dc.b nFs3, $C0, nD3, $CC, nFs3, $C0, nCs3, $D8
	dc.b nA2, $C0, nA2, $D2, nCs3, $C0, nD3, $D2
	dc.b nB2, $C0, nD3, $D8, nB2, $C0, nB2, $CC
	dc.b nD3, $C0, nFs3, $D8, nD3, $C0, nFs3, $D2
	dc.b nD3, $C0, nFs3, $D2, nD3, $C0, nD3, $D8
	dc.b nFs3, $C0, nD3, $CC, nFs3, $C0, nCs3, $D8
	dc.b nA2, $C0, nA2, $D2, nCs3, $C0, nD3, $D2
	dc.b nB2, $C0, nD3, $D8, nB2, $C0, nB2, $CC
	dc.b nD3, $C0, nFs3, $D8, nD3, $C0, nFs3, $D2
	dc.b nD3, $C0, nFs3, $D2, nD3, $C0, nD3, $D8
	dc.b nFs3, $C0, nD3, $CC, nFs3, $C0, nCs3, $D8
	dc.b nA2, $C0, nA2, $D2, nCs3, $C0, nD3, $D2
	dc.b nB2, $C0, nD3, $D8, nB2, $C0, nB2, $CC
	dc.b nD3, $C0, nFs3, $D8, nD3, $C0, nFs3, $D2
	dc.b nD3, $C0, nFs3, $D2, nD3, $C0, nD3, $D8
	dc.b nFs3, $C0, nD3, $CC, nFs3, $C0, nCs3, $D8
	dc.b nA2, $C0, nA2, $D2, nCs3, $C0, nD3, $D2
	dc.b nB2, $C0, nD3, $D8, nB2, $C0, nB2, $CC
	dc.b nD3, $C0, nE3, $D8, nAb3, $C0, nE3, $D2
	dc.b nAb3, $C0, nE3, $D2, nAb3, $C0, nAb3, $D8
	dc.b nE3, $C0, nAb3, $CC, nE3, $C0, nB2, $D8
	dc.b nEb3, $C0, nEb3, $D2, nB2, $C0, nCs3, $D2
	dc.b nE3, $C0, nCs3, $D8, nE3, $C0, nE3, $CC
	dc.b nCs3, $C0, nE3, $D8, nAb3, $C0, nE3, $D2
	dc.b nAb3, $C0, nE3, $D2, nAb3, $C0, nAb3, $D8
	dc.b nE3, $C0, nAb3, $CC, nE3, $C0, nB2, $D8
	dc.b nEb3, $C0, nEb3, $D2, nB2, $C0, nCs3, $D2
	dc.b nE3, $C0, nCs3, $D8, nE3, $C0, nE3, $CC
	dc.b nCs3, $C0, nE3, $D8, nAb3, $C0, nE3, $D2
	dc.b nAb3, $C0, nE3, $D2, nAb3, $C0, nAb3, $D8
	dc.b nE3, $C0, nAb3, $CC, nE3, $C0, nEb3, $D8
	dc.b nB2, $C0, nB2, $D2, nEb3, $C0, nE3, $D2
	dc.b nCs3, $C0, nE3, $D8, nCs3, $C0, nCs3, $CC
	dc.b nE3, $C0, nAb3, $D8, nE3, $C0, nAb3, $D2
	dc.b nE3, $C0, nAb3, $D2, nE3, $C0, nE3, $D8
	dc.b nAb3, $C0, nE3, $C1, $EC, nAb3, $C0
	gLoopEnd
	gStop

.07_01	gLoopStart
	dc.b $CC
	gNop
	dc.b $C0
	gsPatch		$60
	gsVolume	$10
	dc.b $86, nD3, $D8, nFs3, $C0, nD3, $D2, nFs3
	dc.b $C0, nD3, $D2, nFs3, $C0, nFs3, $D8, nD3
	dc.b $C0, nFs3, $CC, nD3, $C0, nA2, $D8, nCs3
	dc.b $C0, nCs3, $D2, nA2, $C0, nB2, $D2, nD3
	dc.b $C0, nB2, $D8, nD3, $C0, nD3, $CC, nB2
	dc.b $C0, nD3, $D8, nFs3, $C0, nD3, $D2, nFs3
	dc.b $C0, nD3, $D2, nFs3, $C0, nFs3, $D8, nD3
	dc.b $C0, nFs3, $CC, nD3, $C0, nA2, $D8, nCs3
	dc.b $C0, nCs3, $D2, nA2, $C0, nB2, $D2, nD3
	dc.b $C0, nB2, $D8, nD3, $C0, nD3, $CC, nB2
	dc.b $C0, nD3, $D8, nFs3, $C0, nD3, $D2, nFs3
	dc.b $C0, nD3, $D2, nFs3, $C0, nFs3, $D8, nD3
	dc.b $C0, nFs3, $CC, nD3, $C0, nA2, $D8, nCs3
	dc.b $C0, nCs3, $D2, nA2, $C0, nB2, $D2, nD3
	dc.b $C0, nB2, $D8, nD3, $C0, nD3, $CC, nB2
	dc.b $C0, nD3, $D8, nFs3, $C0, nD3, $D2, nFs3
	dc.b $C0, nD3, $D2, nFs3, $C0, nFs3, $D8, nD3
	dc.b $C0, nFs3, $CC, nD3, $C0, nA2, $D8, nCs3
	dc.b $C0, nCs3, $D2, nA2, $C0, nB2, $D2, nD3
	dc.b $C0, nB2, $E4, nD3, $C0, nD3, $D8, nFs3
	dc.b $C0, nD3, $D2, nFs3, $C0, nD3, $D2, nFs3
	dc.b $C0, nFs3, $D8, nD3, $C0, nFs3, $CC, nD3
	dc.b $C0, nA2, $D8, nCs3, $C0, nCs3, $D2, nA2
	dc.b $C0, nB2, $D2, nD3, $C0, nB2, $D8, nD3
	dc.b $C0, nD3, $CC, nB2, $C0, nD3, $D8, nFs3
	dc.b $C0, nD3, $D2, nFs3, $C0, nD3, $D2, nFs3
	dc.b $C0, nFs3, $D8, nD3, $C0, nFs3, $CC, nD3
	dc.b $C0, nA2, $D8, nCs3, $C0, nCs3, $D2, nA2
	dc.b $C0, nB2, $D2, nD3, $C0, nB2, $E4, nD3
	dc.b $C0, nD3, $D8, nFs3, $C0, nD3, $D2, nFs3
	dc.b $C0, nD3, $D2, nFs3, $C0, nFs3, $D8, nD3
	dc.b $C0, nFs3, $CC, nD3, $C0, nA2, $D8, nCs3
	dc.b $C0, nCs3, $D2, nA2, $C0, nB2, $D2, nD3
	dc.b $C0, nB2, $D8, nD3, $C0, nD3, $CC, nB2
	dc.b $C0, nD3, $D8, nFs3, $C0, nD3, $D2, nFs3
	dc.b $C0, nD3, $D2, nFs3, $C0, nFs3, $C2, $C4
	dc.b nD3, $C0, nD3, $D8, nFs3, $C0, nD3, $D2
	dc.b nFs3, $C0, nD3, $D2, nFs3, $C0, nFs3, $D8
	dc.b nD3, $C0, nFs3, $CC, nD3, $C0, nA2, $D8
	dc.b nCs3, $C0, nCs3, $D2, nA2, $C0, nB2, $D2
	dc.b nD3, $C0, nB2, $D8, nD3, $C0, nD3, $CC
	dc.b nB2, $C0, nD3, $D8, nFs3, $C0, nD3, $D2
	dc.b nFs3, $C0, nD3, $D2, nFs3, $C0, nFs3, $D8
	dc.b nD3, $C0, nFs3, $CC, nD3, $C0, nA2, $D8
	dc.b nCs3, $C0, nCs3, $D2, nA2, $C0, nB2, $D2
	dc.b nD3, $C0, nB2, $D8, nD3, $C0, nD3, $CC
	dc.b nB2, $C0, nD3, $D8, nFs3, $C0, nD3, $D2
	dc.b nFs3, $C0, nD3, $D2, nFs3, $C0, nFs3, $D8
	dc.b nD3, $C0, nFs3, $CC, nD3, $C0, nA2, $D8
	dc.b nCs3, $C0, nCs3, $D2, nA2, $C0, nB2, $D2
	dc.b nD3, $C0, nB2, $D8, nD3, $C0, nD3, $CC
	dc.b nB2, $C0, nD3, $D8, nFs3, $C0, nD3, $D2
	dc.b nFs3, $C0, nD3, $D2, nFs3, $C0, nFs3, $D8
	dc.b nD3, $C0, nFs3, $CC, nD3, $C0, nA2, $D8
	dc.b nCs3, $C0, nCs3, $D2, nA2, $C0, nB2, $D2
	dc.b nD3, $C0, nB2, $E4, nD3, $C0, nAb3, $D8
	dc.b nE3, $C0, nAb3, $D2, nE3, $C0, nAb3, $D2
	dc.b nE3, $C0, nE3, $D8, nAb3, $C0, nE3, $CC
	dc.b nAb3, $C0, nEb3, $D8, nB2, $C0, nB2, $D2
	dc.b nEb3, $C0, nE3, $D2, nCs3, $C0, nE3, $D8
	dc.b nCs3, $C0, nCs3, $CC, nE3, $C0, nAb3, $D8
	dc.b nE3, $C0, nAb3, $D2, nE3, $C0, nAb3, $D2
	dc.b nE3, $C0, nE3, $D8, nAb3, $C0, nE3, $CC
	dc.b nAb3, $C0, nEb3, $D8, nB2, $C0, nB2, $D2
	dc.b nEb3, $C0, nE3, $D2, nCs3, $C0, nE3, $E4
	dc.b nCs3, $C0, nAb3, $D8, nE3, $C0, nAb3, $D2
	dc.b nE3, $C0, nAb3, $D2, nE3, $C0, nE3, $D8
	dc.b nAb3, $C0, nE3, $CC, nAb3, $C0, nEb3, $D8
	dc.b nB2, $C0, nB2, $D2, nEb3, $C0, nE3, $D2
	dc.b nCs3, $C0, nE3, $D8, nCs3, $C0, nCs3, $CC
	dc.b nE3, $C0, nAb3, $D8, nE3, $C0, nAb3, $D2
	dc.b nE3, $C0, nAb3, $D2, nE3, $C0, nE3, $C1
	dc.b $F8, nAb3, $C0
	gLoopEnd
	gStop

.07_02	gLoopStart
	dc.b $C0
	gNop
	gsPatch		$4A
	gsVolume	$18
	dc.b $8C, $D8, nB1, $8A, $D2, nB1, $89, nB1
	dc.b $8C, $D8, nB1, $8A, $CC, nB1, $8C, $D8
	dc.b nFs1, $8B, $D2, nFs1, $89, nG1, $8B, $D8
	dc.b nG1, $88, $CC, nG1, $8C, $D8, nD2, $8A
	dc.b $D2, nB1, $88, nB1, $8C, $D8, nB1, $8B
	dc.b $CC, nB1, $8E, $D8, nFs1, $8C, $D2, nFs1
	dc.b $89, nG1, $8B, $D8, nG1, $89, $CC, nG1
	dc.b $8C, $D8, nB1, $8A, $D2, nB1, $89, nB1
	dc.b $8C, $D8, nB1, $8A, $CC, nB1, $8C, $D8
	dc.b nFs1, $8B, $D2, nFs1, $89, nG1, $8B, $D8
	dc.b nG1, $88, $CC, nG1, $8C, $D8, nD2, $8A
	dc.b $D2, nB1, $88, nB1, $8C, $C2, $C4, nB1
	dc.b $8B, $D8, nB1, $D2, nB1, $89, nB1, $8D
	dc.b $D8, nB1, $8B, $CC, nB1, $8D, $D8, nFs1
	dc.b $D2, nFs1, $8A, nG1, $D8, nG1, $8B, $CC
	dc.b nG1, $8C, $D8, nD2, $89, $D2, nB1, nB1
	dc.b $8B, $D8, nB1, $CC, nB1, $8D, $D8, nFs1
	dc.b $D2, nFs1, $8B, nG1, $8C, $D8, nG1, $88
	dc.b $CC, nG1, $8C, $D8, nB1, $8A, $D2, nB1
	dc.b $89, nB1, $8C, $D8, nB1, $8A, $CC, nB1
	dc.b $8C, $D8, nFs1, $8B, $D2, nFs1, $89, nG1
	dc.b $8B, $D8, nG1, $88, $CC, nG1, $8C, $D8
	dc.b nD2, $8A, $D2, nB1, $88, nB1, $8C, $D8
	dc.b nB1, $8B, $C1, $EC, nB1, $8C, $D8, nB1
	dc.b $8A, $D2, nB1, $89, nB1, $8C, $D8, nB1
	dc.b $8A, $CC, nB1, $8C, $D8, nFs1, $8B, $D2
	dc.b nFs1, $89, nG1, $8B, $D8, nG1, $88, $CC
	dc.b nG1, $8C, $D8, nD2, $8A, $D2, nB1, $88
	dc.b nB1, $8C, $D8, nB1, $8B, $CC, nB1, $8E
	dc.b $D8, nFs1, $8C, $D2, nFs1, $89, nG1, $8B
	dc.b $D8, nG1, $89, $CC, nG1, $8C, $D8, nB1
	dc.b $8A, $D2, nB1, $89, nB1, $8C, $D8, nB1
	dc.b $8A, $CC, nB1, $8C, $D8, nFs1, $8B, $D2
	dc.b nFs1, $89, nG1, $8B, $D8, nG1, $88, $CC
	dc.b nG1, $8C, $D8, nD2, $8A, $D2, nB1, $88
	dc.b nB1, $8C, $D8, nB1, $8B, $CC, nB1, $8E
	dc.b $D8, nFs1, $8C, $D2, nFs1, $89, nG1, $8B
	dc.b $D8, nG1, $89, $CC, nG1, $8B, $D8, nCs2
	dc.b $D2, nCs2, $89, nCs2, $8D, $D8, nCs2, $8B
	dc.b $CC, nCs2, $8D, $D8, nAb1, $D2, nAb1, $8A
	dc.b nA1, $D8, nA1, $8B, $CC, nA1, $8C, $D8
	dc.b nE2, $89, $D2, nCs2, nCs2, $8B, $D8, nCs2
	dc.b $CC, nCs2, $8D, $D8, nAb1, $D2, nAb1, $8B
	dc.b $C6, $F6, nA1, $C0
	gLoopEnd
	gStop

.07_03	gLoopStart
	dc.b $C6, $C0
	gNop
	dc.b $C0
	gsPatch		$3F
	gsVolume	$0A
	dc.b $83, $D8, nAb2, nAb2, nAb2, nAb2, nAb2, nAb2
	dc.b nAb2, nAb2, nAb2, nAb2, nAb2, $C7, $F8, nAb2
	dc.b $D8, nAb2, nAb2, nAb2, nAb2, nAb2, nAb2, nAb2
	dc.b nAb2, nAb2, nAb2, nAb2, $C1, $F8, nAb2, $D8
	dc.b nAb2, nAb2, nAb2, nAb2, nAb2, nAb2, nAb2, nAb2
	dc.b nAb2, nAb2, nAb2, nAb2, nAb2, nAb2, nAb2, nAb2
	dc.b nAb2, nAb2, nAb2, nAb2, nAb2, nAb2, nAb2, nAb2
	dc.b nAb2, nAb2, nAb2, nAb2, nAb2, nAb2, nAb2, $C6
	dc.b $D8, nAb2, $D8, nAb2, nAb2, nAb2, nAb2, nAb2
	dc.b nAb2, nAb2, nAb2, nAb2, nAb2, nAb2, nAb2, $CC
	dc.b nAb2, nAb2, nAb2, nAb2, $C6, nAb2, nAb2, nAb2
	dc.b nAb2, nAb2, nAb2, nAb2, nAb2, $C0
	gLoopEnd
	gStop

.07_04	gLoopStart
	dc.b $CA, $D4
	gNop
	dc.b $C0
	gsPatch		$09
	gsVolume	$1D
	dc.b $A4, $C3, nD5, $C1
	gPitBend	$0294
	dc.b $C8
	gPitBend	$03FE
	dc.b $C1
	gPitBend	$037A
	gPitBend	$01CE
	gPitBend	$00C6
	dc.b $C0
	gPitBend	$0042
	dc.b $D5
	gPitBend	$0000
	dc.b $8C, $C1, nC5
	gPitBend	$02F6
	dc.b $CA
	gPitBend	$03FE
	dc.b $B7, $C1, nB4
	gPitBend	$02B4
	dc.b $C0
	gPitBend	$014A
	dc.b $C1
	gPitBend	$0084
	gPitBend	$0020
	dc.b $CB, $CC
	gPitBend	$0000
	dc.b $A4, $C3, nD5, $C1
	gPitBend	$0294
	dc.b $C8
	gPitBend	$03FE
	dc.b $C1
	gPitBend	$037A
	gPitBend	$01CE
	gPitBend	$00C6
	dc.b $C0
	gPitBend	$0042
	dc.b $D5
	gPitBend	$0000
	dc.b $8C, $C1, nC5
	gPitBend	$02F6
	dc.b $CA
	gPitBend	$03FE
	dc.b $B7, $C1, nB4
	gPitBend	$02B4
	dc.b $C0
	gPitBend	$014A
	dc.b $C1
	gPitBend	$0084
	gPitBend	$0020
	dc.b $D8, $F8
	gPitBend	$0000
	dc.b $C0
	gLoopEnd
	gStop

.07_05	gLoopStart
	dc.b $CA, $E0
	gNop
	dc.b $C0
	gsPatch		$0A
	gsVolume	$22
	dc.b $A4, $C3, nD5, $C1
	gPitBend	$0294
	dc.b $C8
	gPitBend	$03FE
	dc.b $C1
	gPitBend	$037A
	gPitBend	$01CE
	gPitBend	$00C6
	dc.b $C0
	gPitBend	$0042
	dc.b $D5
	gPitBend	$0000
	dc.b $8C, $C1, nC5
	gPitBend	$02F6
	dc.b $CB
	gPitBend	$03FE
	dc.b $C1
	gPitBend	$02B4
	dc.b $C0
	gPitBend	$014A
	dc.b $C1
	gPitBend	$0084
	gPitBend	$0020
	dc.b $CB, $CC
	gPitBend	$0000
	dc.b $A4, $C3, nD5, $C1
	gPitBend	$0294
	dc.b $C8
	gPitBend	$03FE
	dc.b $C1
	gPitBend	$037A
	gPitBend	$01CE
	gPitBend	$00C6
	dc.b $C0
	gPitBend	$0042
	dc.b $D5
	gPitBend	$0000
	dc.b $8C, $C1, nC5
	gPitBend	$02F6
	dc.b $CB
	gPitBend	$03FE
	dc.b $C1
	gPitBend	$02B4
	dc.b $C0
	gPitBend	$014A
	dc.b $C1
	gPitBend	$0084
	gPitBend	$0020
	dc.b $D8, $EC
	gPitBend	$0000
	dc.b $C0
	gLoopEnd
	gStop

.07_06	gLoopStart
	dc.b $CC, $C0
	gNop
	dc.b $C0
	gsPatch		$79
	gsVolume	$08
	dc.b $86, $CC, nB4, nD5, nB4, nA5, nFs5, nB4
	dc.b nB5, nA5, nB4, nE6, $C1, $C8, nFs6, $CC
	dc.b nB4, nD5, nB4, nA5, nFs5, nB4, nB5, nA5
	dc.b nB4, nD6, $C1, $C8, nCs6, $CC, nB4, nD5
	dc.b nB4, nA5, nFs5, nB4, nB5, nA5, nB4, nE6
	dc.b $C1, $C8, nFs6, $CC, nB4, nD5, nB4, nA5
	dc.b nFs5, nB4, nB5, $CD, $EC, nA5, $CC, nCs5
	dc.b nE5, nCs5, nB5, nAb5, nCs5, nCs6, nB5, nCs5
	dc.b nFs6, $C1, $C8, nAb6, $CC, nCs5, nE5, nCs5
	dc.b nB5, nAb5, nCs5, nCs6, nB5, nCs5, nE6, $C1
	dc.b $C8, nEb6, $CC, nCs5, nE5, nCs5, nB5, nAb5
	dc.b nCs5, nCs6, nB5, nCs5, nFs6, $C1, $C8, nAb6
	dc.b $CC, nCs5, nE5, nCs5, nB5, nAb5, nCs5, nCs6
	dc.b nB5, nCs5, nEb6, $C1, $C8, nCs6, $C0
	gLoopEnd
	gStop

.07_07	gLoopStart
	dc.b $CC, $D2
	gNop
	dc.b $C0
	gsPatch		$1C
	gsVolume	$0E
	dc.b $86, $CC, nB4, nD5, nB4, nA5, nFs5, nB4
	dc.b nB5, nA5, nB4, nE6, $C1, $C8, nFs6, $CC
	dc.b nB4, nD5, nB4, nA5, nFs5, nB4, nB5, nA5
	dc.b nB4, nD6, $C1, $C8, nCs6, $CC, nB4, nD5
	dc.b nB4, nA5, nFs5, nB4, nB5, nA5, nB4, nE6
	dc.b $C1, $C8, nFs6, $CC, nB4, nD5, nB4, nA5
	dc.b nFs5, $CE, $C4, nB4, $CC, nCs5, nE5, nCs5
	dc.b nB5, nAb5, nCs5, nCs6, nB5, nCs5, nFs6, $C1
	dc.b $C8, nAb6, $CC, nCs5, nE5, nCs5, nB5, nAb5
	dc.b nCs5, nCs6, nB5, nCs5, nE6, $C1, $C8, nEb6
	dc.b $CC, nCs5, nE5, nCs5, nB5, nAb5, nCs5, nCs6
	dc.b nB5, nCs5, nFs6, $C1, $C8, nAb6, $CC, nCs5
	dc.b nE5, nCs5, nB5, nAb5, nCs5, nCs6, nB5, nCs5
	dc.b nEb6, $F6, nCs6, $C0
	gLoopEnd
	gStop

.07_08	gLoopStart
	dc.b $D8, $C0
	gNop
	dc.b $C0
	gsPatch		$3A
	gsVolume	$12
	dc.b $90, $D2, nB3, $84, $C6, nA3, $93, $D2
	dc.b nB3, $83, $C6, nA3, $85, nB3, $83, nA3
	dc.b $86, $C1, $D4, nB3, $84, $C6, nB4, nB3
	dc.b $85, nB5, nB4, $86, $C1, $C8, nB3, $8B
	dc.b $CC, nCs5, $84, $C1, $D4, nD5, $86, $CC
	dc.b nG3, $E4, nFs3, $90, $D2, nB3, $84, $C6
	dc.b nA3, $93, $D2, nB3, $83, $C6, nA3, $85
	dc.b nB3, $83, nA3, $86, $C1, $D4, nB3, $84
	dc.b $C6, nB4, nB3, $85, nB5, nB4, $86, $C1
	dc.b $C8, nB3, $8B, $CC, nCs6, $84, $C1, $D4
	dc.b nD6, $86, $CC, nG4, $CC, $E4, nFs4, $C0
	gLoopEnd
	gStop

.07_09	gLoopStart
	dc.b $D8, $D2
	gNop
	dc.b $C0
	gsPatch		$39
	gsVolume	$17
	dc.b $83, $D2, nB3, $C6, nA3, $D2, nB3, $C6
	dc.b nA3, nB3, nA3, $C1, $D4, nB3, $C6, nB4
	dc.b nB3, nB5, nB4, $C3, $D8, nB3, $D2, nB3
	dc.b $C6, nA3, $D2, nB3, $C6, nA3, nB3, nA3
	dc.b $C1, $D4, nB3, $C6, nB4, nB3, nB5, nB4
	dc.b $C1, $C2, nB3, $8B, $CC, nCs6, $84, $C1
	dc.b $D4, nD6, $86, $CC, nG4, $CC, $D8, nFs4
	dc.b $C0
	gLoopEnd
	gStop

.08_00	dc.b $C0
	gsTempo		138
	gLoopStart
	dc.b $C6, $CC
	gNop
	dc.b $C0
	gsPatch		$60
	gsVolume	$0B
	dc.b $85, $C6, nE2, $D2, nE2, $C6, nE2, $D2
	dc.b nE2, $C6, nE2, $D2, nE2, $C6, nE2, $D2
	dc.b nE2, $C6, nE2, $D2, nE2, $C6, nE2, $D2
	dc.b nE2, $C6, nE2, $D2, nE2, $C6, nG2, $D2
	dc.b nG2, $C6, nE2, $D2, nE2, $C6, nE2, $D2
	dc.b nE2, $C6, nE2, $D2, nE2, $C6, nE2, $D2
	dc.b nE2, $C6, nE2, $D2, nE2, $C6, nE2, $D2
	dc.b nE2, $C6, nE2, $D2, nE2, $C6, nG2, $D2
	dc.b nG2, $C6, nC2, $D2, nC2, $C6, nC2, $D2
	dc.b nC2, $C6, nC2, $D2, nC2, $C6, nC2, $D2
	dc.b nC2, $C6, nC2, $D2, nC2, $C6, nC2, $D2
	dc.b nC2, $C6, nC2, $D2, nC2, $C6, nD2, $D2
	dc.b nD2, $C6, nE2, $D2, nE2, $C6, nE2, $D2
	dc.b nE2, $C6, nE2, $D2, nE2, $C6, nE2, $C1
	dc.b $F2, nE2, $C6, nA2, $D2, nA2, $C6, nA2
	dc.b $D2, nA2, $C6, nA2, $D2, nA2, $C6, nA2
	dc.b $D2, nA2, $C6, nA2, $D2, nA2, $C6, nA2
	dc.b $D2, nA2, $C6, nA2, $D2, nA2, $C6, nC3
	dc.b $D2, nC3, $C6, nA2, $D2, nA2, $C6, nA2
	dc.b $D2, nA2, $C6, nA2, $D2, nA2, $C6, nA2
	dc.b $D2, nA2, $C6, nA2, $D2, nA2, $C6, nA2
	dc.b $D2, nA2, $C6, nA2, $D2, nA2, $C6, nC3
	dc.b $D2, nC3, $C6, nE2, $D2, nE2, $C6, nE2
	dc.b $D2, nE2, $C6, nE2, $D2, nE2, $C6, nE2
	dc.b $D2, nE2, $C6, nE2, $D2, nE2, $C6, nE2
	dc.b $D2, nE2, $C6, nE2, $D2, nE2, $C6, nG2
	dc.b $D2, nG2, $C6, nE2, $D2, nE2, $C6, nE2
	dc.b $D2, nE2, $C6, nE2, $D2, nE2, $C6, nE2
	dc.b $D2, nE2, $C6, nE2, $D2, nE2, $C6, nE2
	dc.b $D2, nE2, $C6, nE2, $D2, nE2, $C6, nG2
	dc.b $D2, nG2, $C6, nA2, $D2, nA2, $C6, nA2
	dc.b $D2, nA2, $C6, nA2, $D2, nA2, $C6, nA2
	dc.b $D2, nA2, $C6, nA2, $D2, nA2, $C6, nA2
	dc.b $D2, nA2, $C6, nA2, $D2, nA2, $C6, nC3
	dc.b $D2, nC3, $C6, nA2, $D2, nA2, $C6, nA2
	dc.b $D2, nA2, $C6, nA2, $D2, nA2, $C6, nA2
	dc.b $D2, nA2, $C6, nA2, $D2, nA2, $C6, nA2
	dc.b $D2, nA2, $C6, nA2, $D2, nA2, $C6, nC3
	dc.b $D2, nC3, $C6, nE2, $D2, nE2, $C6, nE2
	dc.b $D2, nE2, $C6, nE2, $D2, nE2, $C6, nE2
	dc.b $D2, nE2, $C6, nE2, $D2, nE2, $C6, nE2
	dc.b $D2, nE2, $C6, nE2, $D2, nE2, $C6, nG2
	dc.b $D2, nG2, $C6, nE2, $D2, nE2, $C6, nE2
	dc.b $D2, nE2, $C6, nE2, $D2, nE2, $C6, nE2
	dc.b $D2, nE2, $C6, nE2, $D2, nE2, $C6, nE2
	dc.b $D2, nE2, $C6, nE2, $D2, nE2, $C6, nG2
	dc.b $C6, $D2, nG2, $C6, nC2, $D2, nC2, $C6
	dc.b nC2, $D2, nC2, $C6, nC2, $D2, nC2, $C6
	dc.b nC2, $D2, nC2, $C6, nC2, $D2, nC2, $C6
	dc.b nC2, $D2, nC2, $C6, nC2, $D2, nC2, $C6
	dc.b nD2, $D2, nD2, $C6, nE2, $D2, nE2, $C6
	dc.b nE2, $D2, nE2, $C6, nE2, $D2, nE2, $C6
	dc.b nE2, $D2, nE2, $C6, nE2, $D2, nE2, $C6
	dc.b nE2, $D2, nE2, $C6, nE2, $D2, nE2, $C6
	dc.b nG2, $D2, nG2, $C6, nC2, $D2, nC2, $C6
	dc.b nC2, $D2, nC2, $C6, nC2, $D2, nC2, $C6
	dc.b nC2, $D2, nC2, $C6, nC2, $D2, nC2, $C6
	dc.b nC2, $D2, nC2, $C6, nC2, $D2, nC2, $C6
	dc.b nD2, $D2, nD2, $C6, nE2, $D2, nE2, $C6
	dc.b nE2, $D2, nE2, $C6, nE2, $D2, nE2, $C6
	dc.b nE2, $C1, $E6, nE2, $C0
	gLoopEnd
	gStop

.08_01	gLoopStart
	dc.b $C6, $C0
	gNop
	dc.b $C0
	gsPatch		$5E
	gsVolume	$0B
	dc.b $85, $C6, nE1, $D2, nE1, $C6, nE1, $D2
	dc.b nE1, $C6, nE1, $D2, nE1, $C6, nE1, $D2
	dc.b nE1, $C6, nE1, $D2, nE1, $C6, nE1, $D2
	dc.b nE1, $C6, nE1, $D2, nE1, $C6, nG1, $D2
	dc.b nG1, $C6, nE1, $D2, nE1, $C6, nE1, $D2
	dc.b nE1, $C6, nE1, $D2, nE1, $C6, nE1, $D2
	dc.b nE1, $C6, nE1, $D2, nE1, $C6, nE1, $D2
	dc.b nE1, $C6, nE1, $D2, nE1, $C6, nG1, $D2
	dc.b nG1, $C6, nC1, $D2, nC1, $C6, nC1, $D2
	dc.b nC1, $C6, nC1, $D2, nC1, $C6, nC1, $D2
	dc.b nC1, $C6, nC1, $D2, nC1, $C6, nC1, $D2
	dc.b nC1, $C6, nC1, $D2, nC1, $C6, nD1, $D2
	dc.b nD1, $C6, nE1, $D2, nE1, $C6, nE1, $D2
	dc.b nE1, $C6, nE1, $D2, nE1, $C6, nE1, $C1
	dc.b $F2, nE1, $C6, nA1, $D2, nA1, $C6, nA1
	dc.b $D2, nA1, $C6, nA1, $D2, nA1, $C6, nA1
	dc.b $D2, nA1, $C6, nA1, $D2, nA1, $C6, nA1
	dc.b $D2, nA1, $C6, nA1, $D2, nA1, $C6, nC2
	dc.b $D2, nC2, $C6, nA1, $D2, nA1, $C6, nA1
	dc.b $D2, nA1, $C6, nA1, $D2, nA1, $C6, nA1
	dc.b $D2, nA1, $C6, nA1, $D2, nA1, $C6, nA1
	dc.b $D2, nA1, $C6, nA1, $D2, nA1, $C6, nC2
	dc.b $D2, nC2, $C6, nE1, $D2, nE1, $C6, nE1
	dc.b $D2, nE1, $C6, nE1, $D2, nE1, $C6, nE1
	dc.b $D2, nE1, $C6, nE1, $D2, nE1, $C6, nE1
	dc.b $D2, nE1, $C6, nE1, $D2, nE1, $C6, nG1
	dc.b $D2, nG1, $C6, nE1, $D2, nE1, $C6, nE1
	dc.b $D2, nE1, $C6, nE1, $D2, nE1, $C6, nE1
	dc.b $D2, nE1, $C6, nE1, $D2, nE1, $C6, nE1
	dc.b $D2, nE1, $C6, nE1, $D2, nE1, $C6, nG1
	dc.b $D2, nG1, $C6, nA1, $D2, nA1, $C6, nA1
	dc.b $D2, nA1, $C6, nA1, $D2, nA1, $C6, nA1
	dc.b $D2, nA1, $C6, nA1, $D2, nA1, $C6, nA1
	dc.b $D2, nA1, $C6, nA1, $D2, nA1, $C6, nC2
	dc.b $D2, nC2, $C6, nA1, $D2, nA1, $C6, nA1
	dc.b $D2, nA1, $C6, nA1, $D2, nA1, $C6, nA1
	dc.b $D2, nA1, $C6, nA1, $D2, nA1, $C6, nA1
	dc.b $D2, nA1, $C6, nA1, $D2, nA1, $C6, nC2
	dc.b $D2, nC2, $C6, nE1, $D2, nE1, $C6, nE1
	dc.b $D2, nE1, $C6, nE1, $D2, nE1, $C6, nE1
	dc.b $D2, nE1, $C6, nE1, $D2, nE1, $C6, nE1
	dc.b $D2, nE1, $C6, nE1, $D2, nE1, $C6, nG1
	dc.b $D2, nG1, $C6, nE1, $D2, nE1, $C6, nE1
	dc.b $D2, nE1, $C6, nE1, $D2, nE1, $C6, nE1
	dc.b $D2, nE1, $C6, nE1, $D2, nE1, $C6, nE1
	dc.b $D2, nE1, $C6, nE1, $D2, nE1, $C6, nG1
	dc.b $C6, $D2, nG1, $C6, nC1, $D2, nC1, $C6
	dc.b nC1, $D2, nC1, $C6, nC1, $D2, nC1, $C6
	dc.b nC1, $D2, nC1, $C6, nC1, $D2, nC1, $C6
	dc.b nC1, $D2, nC1, $C6, nC1, $D2, nC1, $C6
	dc.b nD1, $D2, nD1, $C6, nE1, $D2, nE1, $C6
	dc.b nE1, $D2, nE1, $C6, nE1, $D2, nE1, $C6
	dc.b nE1, $D2, nE1, $C6, nE1, $D2, nE1, $C6
	dc.b nE1, $D2, nE1, $C6, nE1, $D2, nE1, $C6
	dc.b nG1, $D2, nG1, $C6, nC1, $D2, nC1, $C6
	dc.b nC1, $D2, nC1, $C6, nC1, $D2, nC1, $C6
	dc.b nC1, $D2, nC1, $C6, nC1, $D2, nC1, $C6
	dc.b nC1, $D2, nC1, $C6, nC1, $D2, nC1, $C6
	dc.b nD1, $D2, nD1, $C6, nE1, $D2, nE1, $C6
	dc.b nE1, $D2, nE1, $C6, nE1, $D2, nE1, $C6
	dc.b nE1, $C1, $F2, nE1, $C0
	gLoopEnd
	gStop

.08_02	gLoopStart
	dc.b $C0
	gNop
	gsPatch		$42
	gsVolume	$18
	dc.b $8B, $CC, nE2, nE3, nE2, nE3, nE2, nE3
	dc.b nE2, nE3, nE2, nE3, nE2, nE3, nE2, nE3
	dc.b nG2, nG3, nE2, nE3, nE2, nE3, nE2, nE3
	dc.b nE2, nE3, nE2, nE3, nE2, nE3, nE2, nE3
	dc.b nG2, nG3, nE2, nE3, nE2, nE3, nE2, nE3
	dc.b nE2, nE3, nE2, nE3, nE2, nE3, nE2, nE3
	dc.b nG2, nG3, nE2, nE3, nE2, nE3, nE2, nE3
	dc.b nE2, nE3, nE2, nE3, nE2, nE3, nE2, nE3
	dc.b nG2, nG3, nC2, nC3, nC2, nC3, nC2, nC3
	dc.b nC2, nC3, nC2, nC3, nC2, nC3, nC2, nC3
	dc.b nD2, nD3, nE2, nE3, nE2, nE3, nE2, nE3
	dc.b nE2, $C1, $EC, nE3, $CC, nA2, nA3, nA2
	dc.b nA3, nA2, nA3, nA2, nA3, nA2, nA3, nA2
	dc.b nA3, nA2, nA3, nC3, nC4, nA2, nA3, nA2
	dc.b nA3, nA2, nA3, nA2, nA3, nA2, nA3, nA2
	dc.b nA3, nA2, nA3, nC3, nC4, nE2, nE3, nE2
	dc.b nE3, nE2, nE3, nE2, nE3, nE2, nE3, nE2
	dc.b nE3, nE2, nE3, nG2, nG3, nE2, nE3, nE2
	dc.b nE3, nE2, nE3, nE2, nE3, nE2, nE3, nE2
	dc.b nE3, nE2, nE3, nG2, nG3, nA2, nA3, nA2
	dc.b nA3, nA2, nA3, nA2, nA3, nA2, nA3, nA2
	dc.b nA3, nA2, nA3, nC3, nC4, nA2, nA3, nA2
	dc.b nA3, nA2, nA3, nA2, nA3, nA2, nA3, nA2
	dc.b nA3, nA2, nA3, nC3, nC4, nE2, nE3, nE2
	dc.b nE3, nE2, nE3, nE2, nE3, nE2, nE3, nE2
	dc.b nE3, nE2, nE3, nG2, nG3, nE2, nE3, nE2
	dc.b nE3, nE2, nE3, nE2, nE3, nE2, nE3, nE2
	dc.b nE3, nE2, nE3, nG2, $C6, $CC, nG3, $CC
	dc.b nC2, nC3, nC2, nC3, nC2, nC3, nC2, nC3
	dc.b nC2, nC3, nC2, nC3, nC2, nC3, nD2, nD3
	dc.b nE2, nE3, nE2, nE3, nE2, nE3, nE2, nE3
	dc.b nE2, nE3, nE2, nE3, nE2, nE3, nG2, nG3
	dc.b nC2, nC3, nC2, nC3, nC2, nC3, nC2, nC3
	dc.b nC2, nC3, nC2, nC3, nC2, nC3, nD2, nD3
	dc.b nE2, nE3, nE2, nE3, nE2, nE3, nE2, $C1
	dc.b $EC, nE3, $C0
	gLoopEnd
	gStop

.08_03	gLoopStart
	dc.b $C3, $C0
	gNop
	dc.b $C0
	gsPatch		$3F
	gsVolume	$0B
	dc.b $83, $D8, nBb2, nBb2, nBb2, nBb2, nBb2, nBb2
	dc.b nBb2, nBb2, nBb2, nBb2, nBb2, nBb2, nBb2, nBb2
	dc.b nBb2, nBb2, nBb2, nBb2, nBb2, nBb2, nBb2, nBb2
	dc.b nBb2, nBb2, nBb2, nBb2, nBb2, nBb2, nBb2, nBb2
	dc.b nBb2, nBb2, nBb2, nBb2, nBb2, $C1, $F8, nBb2
	dc.b $D8, nBb2, nBb2, nBb2, nBb2, nBb2, nBb2, nBb2
	dc.b nBb2, nBb2, nBb2, nBb2, nBb2, nBb2, nBb2, nBb2
	dc.b nBb2, nBb2, nBb2, nBb2, nBb2, nBb2, nBb2, nBb2
	dc.b nBb2, nBb2, nBb2, nBb2, nBb2, nBb2, nBb2, nBb2
	dc.b nBb2, nBb2, nBb2, nBb2, nBb2, nBb2, nBb2, nBb2
	dc.b nBb2, nBb2, nBb2, nBb2, nBb2, nBb2, nBb2, nBb2
	dc.b nBb2, nBb2, nBb2, nBb2, nBb2, nBb2, nBb2, nBb2
	dc.b nBb2, nBb2, nBb2, nBb2, nBb2, nBb2, nBb2, nBb2
	dc.b nBb2, nBb2, nBb2, nBb2, nBb2, nBb2, nBb2, nBb2
	dc.b nBb2, nBb2, nBb2, nBb2, nBb2, nBb2, nBb2, nBb2
	dc.b nBb2, nBb2, nBb2, nBb2, nBb2, nBb2, nBb2, nBb2
	dc.b nBb2, nBb2, nBb2, nBb2, nBb2, nBb2, nBb2, nBb2
	dc.b nBb2, nBb2, nBb2, nBb2, nBb2, nBb2, nBb2, nBb2
	dc.b nBb2, nBb2, nBb2, nBb2, nBb2, nBb2, nBb2, $F0
	dc.b nBb2, $C0
	gLoopEnd
	gStop

.08_04	gLoopStart
	dc.b $D2, $CC
	gNop
	dc.b $C0
	gsPatch		$48
	gsVolume	$0E
	dc.b $88, $D8, nB1, nB1, nB1, nB1, nB1, nB1
	dc.b nB1, nB1, nB1, nB1, nB1, nB1, nB1, nB1
	dc.b nB1, $C6, $D8, nB1, $D8, nB1, nB1, nB1
	dc.b nB1, nB1, nB1, nB1, nB1, nB1, nB1, nB1
	dc.b nB1, nB1, nB1, nB1, nB1, nB1, nB1, nB1
	dc.b nB1, nB1, nB1, nB1, nB1, nB1, nB1, nB1
	dc.b nB1, nB1, nB1, nB1, $C6, $D8, nB1, $D8
	dc.b nB1, nB1, nB1, nB1, nB1, nB1, nB1, nB1
	dc.b nB1, nB1, nB1, nB1, nB1, nB1, nB1, nB1
	dc.b nB1, nB1, nB1, nB1, nB1, nB1, nB1, nB1
	dc.b nB1, nB1, nB1, $C1, $EC, nB1, $C0
	gLoopEnd
	gStop

.08_05	gLoopStart
	dc.b $C5, $E8
	gNop
	dc.b $C0
	gsPatch		$02
	gsVolume	$13
	dc.b $82, $C6, nB1, nB1, nB1, $DE, nB1, $F0
	dc.b nB1, nB1, nB1, nB1, nB1, nB1, nB1, nB1
	dc.b nB1, nB1, nB1, nB1, nB1, $D8, nB1, $C6
	dc.b nB1, nB1, nB1, nB1, nB1, nB1, nB1, nB1
	dc.b nB1, nB1, nB1, nB1, nB1, nB1, nB1, $DE
	dc.b nB1, $F0, nB1, nB1, nB1, nB1, nB1, nB1
	dc.b nB1, $CC, nB1, $C6, nB1, $DE, nB1, $F0
	dc.b nB1, nB1, nB1, nB1, nB1, nB1, nB1, nB1
	dc.b nB1, nB1, nB1, nB1, nB1, nB1, nB1, $CC
	dc.b nB1, $C6, nB1, $DE, nB1, $F0, nB1, nB1
	dc.b nB1, nB1, nB1, nB1, nB1, $C3, $F0, nB1
	dc.b $F0, nB1, nB1, nB1, nB1, nB1, nB1, nB1
	dc.b nB1, nB1, nB1, nB1, nB1, nB1, nB1, nB1
	dc.b nB1, nB1, $C1, $C8, nB1, $C6, nB1, nB1
	dc.b nB1, nB1, nB1, nB1, nB1, nB1, $C0
	gLoopEnd
	gStop

.09_00	gLoopStart
	dc.b $C0
	gNop
	dc.b $C6
	gsTempo		69
	dc.b $C0
	gsPatch		$7F
	dc.b $88, $CC, nC4, nC4, nC4, nC4, $C3, nC4
	dc.b $C9, nC4, $C3, nC4, $C9, nC4, $C3, nC4
	dc.b $C9, nC4, $C3, nC4, nC4, $F0, nC4, $89
	dc.b nF5, $C0
	gLoopEnd
	gStop

.09_01	gLoopStart
	dc.b $C0
	gNop
	gsPatch		$3F
	gsVolume	$06
	dc.b $83, $CC, nB2, nB2, nB2, nB2, $C3, nB2
	dc.b $C9, nB2, $C3, nB2, $C9, nB2, $C3, nB2
	dc.b $C9, nB2, $C3, nB2, $C1, $E9, nB2, $C0
	gLoopEnd
	gStop

.09_02	gLoopStart
	dc.b $C0
	gNop
	gsPatch		$42
	gsVolume	$0C
	dc.b $85, $C6, nA1, $86, nC2, nD2, nEb2, $85
	dc.b nD2, $86, nC2, nA1, nG1, $85, nA1, $87
	dc.b nC2, $86, nD2, $87, nEb2, $85, nD2, $86
	dc.b nC2, nA1, nG1, $B8, $C1, $E0, nA1, $C0
	gLoopEnd
	gStop

.09_03	gLoopStart
	dc.b $C0
	gNop
	gsPatch		$4D
	gsVolume	$22
	dc.b $86, $C6, nA2, nC3, nD3, nEb3, nD3, nC3
	dc.b nA2, nG2, nA2, nC3, nD3, nEb3, nD3, nC3
	dc.b nA2, nG2, $81, $81, $D8, nA2, $C1
	gPitBend	$FF9C
	dc.b $C0
	gPitBend	$FE94
	dc.b $C1
	gPitBend	$FDAC
	dc.b $C0
	gPitBend	$FD28
	gPitBend	$FCE6
	dc.b $C1
	gPitBend	$FD08
	dc.b $C0
	gPitBend	$FD6A
	dc.b $C1
	gPitBend	$FE10
	dc.b $C0
	gPitBend	$FED6
	gPitBend	$FF9C
	dc.b $C1
	gPitBend	$FFFE
	dc.b $C5
	gPitBend	$0000
	dc.b $C1
	gPitBend	$FF9C
	dc.b $C0
	gPitBend	$FED6
	dc.b $C1
	gPitBend	$FE10
	dc.b $C0
	gPitBend	$FDAC
	gPitBend	$FD8C
	dc.b $C1
	gPitBend	$FDAC
	dc.b $C0
	gPitBend	$FDEE
	dc.b $C1
	gPitBend	$FE72
	dc.b $C0
	gPitBend	$FF18
	gPitBend	$FF9C
	dc.b $C1
	gPitBend	$FFFE
	dc.b $C4
	gPitBend	$0000
	dc.b $C1
	gPitBend	$FFFE
	dc.b $C0
	gPitBend	$FF5A
	dc.b $C1
	gPitBend	$FED6
	dc.b $C0
	gPitBend	$FE72
	dc.b $C1
	gPitBend	$FE52
	dc.b $C0
	gPitBend	$FE72
	gPitBend	$FED6
	dc.b $C1
	gPitBend	$FF5A
	dc.b $C0
	gPitBend	$FFDE
	dc.b $F1
	gPitBend	$0000
	dc.b $C0
	gLoopEnd
	gStop

.09_04	gLoopStart
	dc.b $C1, $E0
	gNop
	dc.b $C0
	gsPatch		$7C
	gsVolume	$17
	dc.b $81, $86, nA1, $C1, $E0, nA2, $C0
	gLoopEnd
	gStop

.0A_00	dc.b $C0
	gsTempo		136
	gLoopStart
	dc.b $C1, $E0
	gNop
	dc.b $C0
	gsPatch		$42
	gsVolume	$15
	dc.b $97, $D8, nFs2, $88, $CC, nFs3, $8A, nFs1
	dc.b $85, nFs2, $87, nFs3, $89, nFs1, $88, nE2
	dc.b $95, $D8, nFs2, $86, $CC, nFs3, $89, nFs1
	dc.b $86, nFs2, $87, nFs3, $88, nFs1, $89, nG2
	dc.b $95, $D8, nFs2, $87, $CC, nFs3, $89, nFs1
	dc.b $85, nFs2, $87, nFs3, $88, nFs1, nE2, $94
	dc.b $D8, nFs2, $86, $CC, nFs3, $87, nFs1, $86
	dc.b nFs2, nFs3, $87, nFs1, $89, nG2, $96, $D8
	dc.b nFs2, $87, $CC, nFs3, $89, nFs1, $86, nFs2
	dc.b nFs3, $88, nFs1, nE2, $96, $D8, nFs2, $88
	dc.b $CC, nFs3, $89, nFs1, $86, nFs2, nFs3, $89
	dc.b nFs1, $8A, nG2, $96, $D8, nFs2, $88, $CC
	dc.b nFs3, nFs1, $85, nFs2, $86, nFs3, $87, nFs1
	dc.b $89, nE2, $96, $D8, nFs2, $88, $CC, nFs3
	dc.b nFs1, $86, nFs2, $87, nFs3, $89, nFs1, $8A
	dc.b nG2, $96, $D8, nFs2, $87, $CC, nFs3, $89
	dc.b nFs1, $86, nFs2, nFs3, $88, nFs1, nE2, $96
	dc.b $D8, nFs2, $88, $CC, nFs3, $89, nFs1, $86
	dc.b nFs2, nFs3, $89, nFs1, $8A, $C3, $CC, nG2
	dc.b $96, $D8, nFs2, $87, $CC, nFs3, $89, nFs1
	dc.b $86, nFs2, nFs3, $88, nFs1, nE2, $96, $D8
	dc.b nFs2, $88, $CC, nFs3, $89, nFs1, $86, nFs2
	dc.b nFs3, $89, nFs1, $8A, nG2, $96, $D8, nFs2
	dc.b $88, $CC, nFs3, nFs1, $85, nFs2, $86, nFs3
	dc.b $87, nFs1, $89, nE2, $96, $D8, nFs2, $88
	dc.b $CC, nFs3, nFs1, $86, nFs2, $87, nFs3, $89
	dc.b nFs1, $8A, nG2, $96, $D8, nFs2, $87, $CC
	dc.b nFs3, $89, nFs1, $86, nFs2, nFs3, $88, nFs1
	dc.b nE2, $96, $D8, nFs2, $88, $CC, nFs3, $89
	dc.b nFs1, $86, nFs2, nFs3, $89, nFs1, $8A, nG2
	dc.b $96, $D8, nFs2, $88, $CC, nFs3, nFs1, $85
	dc.b nFs2, $86, nFs3, $87, nFs1, $89, $C1, $EC
	dc.b nE2, $96, $D8, nFs2, $87, $CC, nFs3, $89
	dc.b nFs1, $86, nFs2, nFs3, $88, nFs1, nE2, $96
	dc.b $D8, nFs2, $88, $CC, nFs3, $89, nFs1, $86
	dc.b nFs2, nFs3, $89, nFs1, $8A, nG2, $96, $D8
	dc.b nFs2, $88, $CC, nFs3, nFs1, $85, nFs2, $86
	dc.b nFs3, $87, nFs1, $89, nE2, $96, $D8, nFs2
	dc.b $88, $CC, nFs3, nFs1, $86, nFs2, $87, nFs3
	dc.b $89, nFs1, $8A, nG2, $96, $D8, nFs2, $87
	dc.b $CC, nFs3, $89, nFs1, $86, nFs2, nFs3, $88
	dc.b nFs1, nE2, $96, $D8, nFs2, $88, $CC, nFs3
	dc.b $89, nFs1, $86, nFs2, nFs3, $89, nFs1, $8A
	dc.b nG2, $96, $D8, nFs2, $88, $CC, nFs3, nFs1
	dc.b $85, nFs2, $86, nFs3, $87, nFs1, $89, $C1
	dc.b $EC, nE2, $96, $D8, nFs2, $87, $CC, nFs3
	dc.b $89, nFs1, $86, nFs2, nFs3, $88, nFs1, nE2
	dc.b $96, $D8, nFs2, $88, $CC, nFs3, $89, nFs1
	dc.b $86, nFs2, nFs3, $89, nFs1, $8A, nG2, $96
	dc.b $D8, nFs2, $88, $CC, nFs3, nFs1, $85, nFs2
	dc.b $86, nFs3, $87, nFs1, $89, nE2, $96, $D8
	dc.b nFs2, $88, $CC, nFs3, nFs1, $86, nFs2, $87
	dc.b nFs3, $89, nFs1, $8A, nG2, $96, $D8, nFs2
	dc.b $87, $CC, nFs3, $89, nFs1, $86, nFs2, nFs3
	dc.b $88, nFs1, nE2, $96, $D8, nFs2, $88, $CC
	dc.b nFs3, $89, nFs1, $86, nFs2, nFs3, $89, nFs1
	dc.b $8A, nG2, $96, $D8, nFs2, $88, $CC, nFs3
	dc.b nFs1, $85, nFs2, $86, nFs3, $87, nFs1, $89
	dc.b $C1, $EC, nE2, $C0
	gLoopEnd
	gStop

.0A_01	gLoopStart
	dc.b $D3, $E0
	gNop
	dc.b $C0
	gsPatch		$5E
	gsVolume	$0E
	dc.b $84, $C6, nFs2, nE3, $CC, nFs3, nFs3, $C6
	dc.b nFs2, $D2, nFs3, $D8, nFs3, $CC, nFs3, $C6
	dc.b nFs2, nE3, $CC, nFs3, nFs3, $C6, nFs2, $D2
	dc.b nFs3, $CC, nFs3, nFs2, nG3, $C6, nFs2, nE3
	dc.b $CC, nFs3, nFs3, $C6, nFs2, $D2, nFs3, $D8
	dc.b nFs3, $CC, nFs3, $C6, nFs2, nE3, $CC, nFs3
	dc.b nFs3, $C6, nFs2, $D2, nFs3, $CC, nFs3, nFs2
	dc.b nG3, $C6, nFs2, nE3, $CC, nFs3, nFs3, $C6
	dc.b nFs2, $D2, nFs3, $D8, nFs3, $CC, nFs3, $C6
	dc.b nFs2, nE3, $CC, nFs3, nFs3, $C6, nFs2, $D2
	dc.b nFs3, $CC, nFs3, nFs2, nG3, $C6, nFs2, nE3
	dc.b $CC, nFs3, nFs3, $C6, nFs2, $D2, nFs3, $D8
	dc.b nFs3, $C7, $EC, nFs3, $C6, nFs2, nE3, $CC
	dc.b nFs3, nFs3, $C6, nFs2, $D2, nFs3, $D8, nFs3
	dc.b $CC, nFs3, $C6, nFs2, nE3, $CC, nFs3, nFs3
	dc.b $C6, nFs2, $D2, nFs3, $CC, nFs3, nFs2, nG3
	dc.b $C6, nFs2, nE3, $CC, nFs3, nFs3, $C6, nFs2
	dc.b $D2, nFs3, $D8, nFs3, $CD, $EC, nFs3, $C0
	gLoopEnd
	gStop

.0A_02	gLoopStart
	dc.b $D3, $E0
	gNop
	dc.b $C0
	gsPatch		$60
	gsVolume	$12
	dc.b $84, $CC, nG3, $C6, nFs2, nE3, $CC, nFs3
	dc.b nFs3, $C6, nFs2, $D2, nFs3, $D8, nFs3, $CC
	dc.b nFs3, $C6, nFs2, nE3, $CC, nFs3, nFs3, $C6
	dc.b nFs2, $D2, nFs3, $CC, nFs3, nFs2, nG3, $C6
	dc.b nFs2, nE3, $CC, nFs3, nFs3, $C6, nFs2, $D2
	dc.b nFs3, $D8, nFs3, $CC, nFs3, $C6, nFs2, nE3
	dc.b $CC, nFs3, nFs3, $C6, nFs2, $D2, nFs3, $CC
	dc.b nFs3, $DE, $CC, nFs2, $C0
	gLoopEnd
	gStop

.0A_03	gLoopStart
	dc.b $C7, $E0
	gNop
	dc.b $C0
	gsPatch		$3F
	gsVolume	$07
	dc.b $83, $D8, nE2, nE2, nE2, nE2, nE2, nE2
	dc.b nE2, nE2, nE2, nE2, nE2, nE2, nE2, nE2
	dc.b nE2, nE2, nE2, nE2, nE2, nE2, nE2, nE2
	dc.b nE2, nE2, $C3, $C0, nE2, $D8, nE2, nE2
	dc.b nE2, nE2, nE2, nE2, nE2, nE2, nE2, nE2
	dc.b nE2, nE2, nE2, nE2, nE2, nE2, nE2, nE2
	dc.b nE2, nE2, nE2, nE2, nE2, nE2, nE2, nE2
	dc.b nE2, $C7, $EC, nE2, $CC, nE2, $C1, $D4
	dc.b nE2, $CC, nE2, $C1, $D4, nE2, $CC, nE2
	dc.b $C3, $C0, nE2, $D8, nE2, nE2, nE2, nE2
	dc.b nE2, nE2, nE2, nE2, nE2, nE2, nE2, nE2
	dc.b nE2, nE2, nE2, nE2, nE2, nE2, nE2, nE2
	dc.b nE2, nE2, nE2, nE2, nE2, nE2, nE2, $C1
	dc.b $F8, nE2, $C0
	gLoopEnd
	gStop

.0A_04	gLoopStart
	dc.b $D2, $C0
	gNop
	dc.b $C0
	gsPatch		$65
	gsVolume	$14
	dc.b $81, $8B, $E5, $E0, nB1, $C0
	gLoopEnd
	gStop

.0A_05	gLoopStart
	dc.b $C0
	gNop
	gsPatch		$61
	gsVolume	$1B
	dc.b $82, $C3, nB5, nFs5, nE5, nB4, nE4, nB3
	dc.b nE3, nB5, nFs5, nE5, nB4, $C0, nE4, $C3
	dc.b nEb4, nB3, nE3, nB5, nFs5, nE5, nB4, nE4
	dc.b nB3, nE3, nE6, nB5, nFs5, nE5, nB4, nFs4
	dc.b nB3, nB5, nFs5, nE5, $C3, $C3, nB4, $C0
	dc.b nFs5, $C6, nB5, $C0, nB4, $C6, nE5, $C0
	dc.b nB3, $C6, nE4, $C0, nB5, $C6, nE3, $C0
	dc.b nE5, $C6, nFs5, $C0, nEb4, nE4, $C6, nB4
	dc.b $C0, nE3, $C6, nB3, $C0, nFs5, $C6, nB5
	dc.b $C0, nB4, $C6, nE5, $C0, nB3, $C6, nE4
	dc.b $C0, nE6, $C6, nE3, $C0, nFs5, $C6, nB5
	dc.b $C0, nB4, $C6, nE5, $C0, nB3, $C6, nFs4
	dc.b $C0, nFs5, $C6, nB5, $C0, nB4, $C6, nE5
	dc.b $C0, nFs5, $C6, nB5, $C0, nB4, $C6, nE5
	dc.b $C0, nB3, $C6, nE4, $C0, nB5, $C6, nE3
	dc.b $C0, nE5, $C6, nFs5, $C0, nEb4, nE4, $C6
	dc.b nB4, $C0, nE3, $C6, nB3, $C0, nFs5, $C6
	dc.b nB5, $C0, nB4, $C6, nE5, $C0, nB3, $C6
	dc.b nE4, $C0, nE6, $C6, nE3, $C0, nFs5, $C6
	dc.b nB5, $C0, nB4, $C6, nE5, $C0, nB3, $C6
	dc.b nFs4, $C0, nFs5, $C6, nB5, $C0, nB4, $C9
	dc.b $C6, nE5, $C0, nFs5, $C6, nB5, $C0, nB4
	dc.b $C6, nE5, $C0, nB3, $C6, nE4, $C0, nB5
	dc.b $C6, nE3, $C0, nE5, $C6, nFs5, $C0, nEb4
	dc.b nE4, $C6, nB4, $C0, nE3, $C6, nB3, $C0
	dc.b nFs5, $C6, nB5, $C0, nB4, $C6, nE5, $C0
	dc.b nB3, $C6, nE4, $C0, nE6, $C6, nE3, $C0
	dc.b nFs5, $C6, nB5, $C0, nB4, $C6, nE5, $C0
	dc.b nB3, $C6, nFs4, $C0, nFs5, $C6, nB5, $C0
	dc.b nB4, $C6, nE5, $C0, nFs5, $C6, nB5, $C0
	dc.b nB4, $C6, nE5, $C0, nB3, $C6, nE4, $C0
	dc.b nB5, $C6, nE3, $C0, nE5, $C6, nFs5, $C0
	dc.b nEb4, nE4, $C6, nB4, $C0, nE3, $C6, nB3
	dc.b $C0, nFs5, $C6, nB5, $C0, nB4, $C6, nE5
	dc.b $C0, nB3, $C6, nE4, $C0, nE6, $C6, nE3
	dc.b $C0, nFs5, $C6, nB5, $C0, nB4, $C6, nE5
	dc.b $C0, nB3, $C6, nFs4, $C0, nFs5, $C6, nB5
	dc.b $C0, nB4, $D0, $E6, nE5, $C0, nFs5, $C6
	dc.b nB5, $C0, nB4, $C6, nE5, $C0, nB3, $C6
	dc.b nE4, $C0, nB5, $C6, nE3, $C0, nE5, $C6
	dc.b nFs5, $C0, nEb4, nE4, $C6, nB4, $C0, nE3
	dc.b $C6, nB3, $C0, nFs5, $C6, nB5, $C0, nB4
	dc.b $C6, nE5, $C0, nB3, $C6, nE4, $C0, nE6
	dc.b $C6, nE3, $C0, nFs5, $C6, nB5, $C0, nB4
	dc.b $C6, nE5, $C0, nB3, $C6, nFs4, $C0, nFs5
	dc.b $C6, nB5, $C0, nB4, $C6, $C6, nE5, $C0
	dc.b nB5, $C6, nFs5, $C0, nE5, $C6, nB4, $C0
	dc.b nE4, $C6, nB3, $C0, nE3, $C6, nB5, $C0
	dc.b nFs5, $C6, nE5, $C0, nB4, nE4, $C6, nEb4
	dc.b $C0, nB3, $C6, nE3, $C0, nB5, $C6, nFs5
	dc.b $C0, nE5, $C6, nB4, $C0, nE4, $C6, nB3
	dc.b $C0, nE3, $C6, nE6, $C0, nB5, $C6, nFs5
	dc.b $C0, nE5, $C6, nB4, $C0, nFs4, $C6, nB3
	dc.b $C0, nB5, $C6, nFs5, $C0, nE5, $C1, $E6
	dc.b nB4, $C0, nB5, $C6, nFs5, $C0, nE5, $C6
	dc.b nB4, $C0, nE4, $C6, nB3, $C0, nE3, $C6
	dc.b nB5, $C0, nFs5, $C6, nE5, $C0, nB4, nE4
	dc.b $C6, nEb4, $C0, nB3, $C6, nE3, $C0, nB5
	dc.b $C6, nFs5, $C0, nE5, $C6, nB4, $C0, nE4
	dc.b $C6, nB3, $C0, nE3, $C6, nE6, $C0, nB5
	dc.b $C6, nFs5, $C0, nE5, $C6, nB4, $C0, nFs4
	dc.b $C6, nB3, $C0, nB5, $C6, nFs5, $C0, nE5
	dc.b $C1, $F2, nB4, $85, $D8, nAb3, nAb3, nAb3
	dc.b nAb3, nAb3, nAb3, nAb3, nAb3, nAb3, nAb3, nAb3
	dc.b $C1, $EC, nAb3, $C0
	gLoopEnd
	gStop

.0A_06	gLoopStart
	dc.b $CC
	gNop
	dc.b $C0
	gsPatch		$79
	gsVolume	$0B
	dc.b $83, $C3, nB5, nFs5, nE5, nB4, nE4, nB3
	dc.b nE3, nB5, nFs5, nE5, nB4, $C0, nEb4, $C3
	dc.b nE4, nB3, nE3, nB5, nFs5, nE5, nB4, nE4
	dc.b nB3, nE3, nE6, nB5, nFs5, nE5, nB4, nFs4
	dc.b $CF, $CF, nB3, $C0, nB5, $C6, nFs5, $C0
	dc.b nE5, $C6, nB4, $C0, nE4, $C6, nB3, $C0
	dc.b nE3, $C6, nB5, $C0, nFs5, $C6, nE5, $C0
	dc.b nB4, nEb4, $C6, nE4, $C0, nB3, $C6, nE3
	dc.b $C0, nB5, $C6, nFs5, $C0, nE5, $C6, nB4
	dc.b $C0, nE4, $C6, nB3, $C0, nE3, $C6, nE6
	dc.b $C0, nB5, $C6, nFs5, $C0, nE5, $C6, nB4
	dc.b $C0, nFs4, $E5, $E6, nB3, $C0
	gLoopEnd
	gStop

.0A_07	gLoopStart
	dc.b $CC
	gNop
	dc.b $C0
	gsPatch		$1C
	gsVolume	$0D
	dc.b $83, $C3, nB6, nFs6, nE6, nB5, nE5, nB4
	dc.b nE4, nB6, nFs6, nE6, nB5, $C0, nE5, $C3
	dc.b nEb5, nB4, nE4, nB6, nFs6, nE6, nB5, nE5
	dc.b nB4, nE4, nE7, nB6, nFs6, nE6, nB5, nFs5
	dc.b $CF, $CF, nB4, $C0, nFs6, $C6, nB6, $C0
	dc.b nB5, $C6, nE6, $C0, nB4, $C6, nE5, $C0
	dc.b nB6, $C6, nE4, $C0, nE6, $C6, nFs6, $C0
	dc.b nEb5, nE5, $C6, nB5, $C0, nE4, $C6, nB4
	dc.b $C0, nFs6, $C6, nB6, $C0, nB5, $C6, nE6
	dc.b $C0, nB4, $C6, nE5, $C0, nE7, $C6, nE4
	dc.b $C0, nFs6, $C6, nB6, $C0, nB5, $C6, nE6
	dc.b $C0, nB4, $E5, $E6, nFs5, $C0
	gLoopEnd
	gStop

.0A_08	gLoopStart
	dc.b $C7, $E6
	gNop
	dc.b $C0
	gsPatch		$57
	gsVolume	$12
	dc.b $84, $C6, nE3, $CC, nFs3, $D2, nFs3, nFs3
	dc.b $D8, nFs3, $D2, nFs3, $C6, nE3, $CC, nFs3
	dc.b $D2, nFs3, nFs3, $D8, nFs3, $D2, nG3, $C6
	dc.b nE3, $CC, nFs3, $D2, nFs3, nFs3, $D8, nFs3
	dc.b $D2, nFs3, $C6, nE3, $CC, nFs3, $D2, nFs3
	dc.b nFs3, $D8, nFs3, $D2, nG3, $C6, nE3, $CC
	dc.b nFs3, $D2, nFs3, nFs3, $D8, nFs3, $D2, nFs3
	dc.b $C6, nE3, $CC, nFs3, $D2, nFs3, nFs3, $D8
	dc.b nFs3, $C9, $D2, nG3, $C6, nE3, $CC, nFs3
	dc.b $D2, nFs3, nFs3, $D8, nFs3, $D2, nFs3, $C6
	dc.b nE3, $CC, nFs3, $D2, nFs3, nFs3, $D8, nFs3
	dc.b $D2, nG3, $C6, nE3, $CC, nFs3, $D2, nFs3
	dc.b nFs3, $D8, nFs3, $D2, nFs3, $C6, nE3, $CC
	dc.b nFs3, $D2, nFs3, nFs3, $D8, nFs3, $D8, $CC
	dc.b nG3, $C0
	gLoopEnd
	gStop

.0A_09	gLoopStart
	dc.b $CD, $E0
	gNop
	dc.b $C0
	gsPatch		$54
	gsVolume	$1C
	dc.b $84, $CC, nFs3, $D2, nFs3, nFs3, $D8, nFs3
	dc.b $D2, nFs3, $C6, nE3, $CC, nFs3, $D2, nFs3
	dc.b nFs3, $D8, nFs3, $D2, nG3, $C9, $C6, nE3
	dc.b $CC, nFs3, $D2, nFs3, nFs3, $D8, nFs3, $D2
	dc.b nFs3, $C6, nE3, $CC, nFs3, $D2, nFs3, nFs3
	dc.b $D8, nFs3, $D2, nG3, $C6, nE3, $CC, nFs3
	dc.b $D2, nFs3, nFs3, $D8, nFs3, $D2, nFs3, $C6
	dc.b nE3, $CC, nFs3, $D2, nFs3, nFs3, $D8, nFs3
	dc.b $D2, nG3, $D8, $C6, nE3, $C0
	gLoopEnd
	gStop

.0A_0A	gLoopStart
	dc.b $D3, $C2
	gNop
	dc.b $C0
	gsPatch		$7D
	gsVolume	$15
	dc.b $9A, $C8, nFs2, $C1
	gPitBend	$FFFE
	gPitBend	$FFDE
	gPitBend	$FF9C
	dc.b $C0
	gPitBend	$FF7A
	dc.b $C1
	gPitBend	$FF38
	gPitBend	$FF18
	gPitBend	$FEF6
	gPitBend	$FED6
	dc.b $C0
	gPitBend	$FEB4
	dc.b $C2
	gPitBend	$FE94
	dc.b $C1
	gPitBend	$FE52
	gPitBend	$FE30
	gPitBend	$FE10
	dc.b $C0
	gPitBend	$FDEE
	dc.b $C1
	gPitBend	$FDAC
	gPitBend	$FD8C
	gPitBend	$FD6A
	gPitBend	$FD28
	dc.b $C0
	gPitBend	$FD08
	dc.b $C1
	gPitBend	$FCC6
	gPitBend	$FCA4
	gPitBend	$FC84
	gPitBend	$FC62
	gPitBend	$FC20
	dc.b $C3
	gPitBend	$FC00
	dc.b $C1
	gPitBend	$FC42
	gPitBend	$FCA4
	dc.b $C0
	gPitBend	$FD4A
	dc.b $C1
	gPitBend	$FE10
	gPitBend	$FEF6
	gPitBend	$FF7A
	gPitBend	$FFDE
	dc.b $CB, $F8
	gPitBend	$0000
	dc.b $90, $D8, nFs4, $85, $CC, nFs4, nFs4, $8B
	dc.b $D2, nG4, $8A, nG4, $88, $D8, nG4, $85
	dc.b $CC, nE4, nE4, $86, nE4, $8E, $D2, nFs4
	dc.b $8A, nFs4, $86, $CC, nFs4, $8E, $D8, nFs4
	dc.b $86, $CC, nFs4, nFs4, $8A, $D2, nB4, nB4
	dc.b $D8, nB4, $86, $CC, nG4, $85, nG4, $87
	dc.b nG4, $8C, $D2, nFs4, $89, nFs4, $86, $CC
	dc.b nFs4, $90, $D8, nFs4, $85, $CC, nFs4, nFs4
	dc.b $8B, $D2, nG4, $8A, nG4, $88, $D8, nG4
	dc.b $85, $CC, nE4, nE4, $86, nE4, $8E, $D2
	dc.b nFs4, $8A, nFs4, $86, $CC, nFs4, $8E, $D8
	dc.b nFs4, $86, $CC, nFs4, nFs4, $8A, $D2, nB4
	dc.b nB4, $D8, nB4, $86, $CC, nG4, $85, nG4
	dc.b $87, nG4, $8C, $D2, nFs4, $89, nFs4, $86
	dc.b $CC, nFs4, $90, $D8, nFs4, $85, $CC, nFs4
	dc.b nFs4, $8B, $D2, nG4, $8A, nG4, $88, $D8
	dc.b nG4, $85, $CC, nE4, nE4, $86, nE4, $8E
	dc.b $D2, nFs4, $8A, nFs4, $86, $CC, nFs4, $8E
	dc.b $D8, nFs4, $86, $CC, nFs4, nFs4, $8A, $D2
	dc.b nB4, nB4, $D8, nB4, $86, $CC, nG4, $85
	dc.b nG4, $87, nG4, $8C, $D2, nFs4, $89, nFs4
	dc.b $86, $CC, nFs4, $90, $D8, nFs4, $85, $CC
	dc.b nFs4, nFs4, $8B, $D2, nG4, $8A, nG4, $88
	dc.b $D8, nG4, $85, $CC, nE4, nE4, $86, nE4
	dc.b $8E, $D2, nFs4, $8A, nFs4, $86, $CC, nFs4
	dc.b $8E, $D8, nFs4, $86, $CC, nFs4, nFs4, $8A
	dc.b $D2, nB4, nB4, $D8, nB4, $86, $CC, nG4
	dc.b $85, nG4, $87, nG4, $8C, $D2, nFs4, $89
	dc.b nFs4, $86, $CC, nFs4, $C0
	gLoopEnd
	gStop

.0A_0B	gLoopStart
	dc.b $DF, $EC
	gNop
	dc.b $C0
	gsPatch		$00
	gsVolume	$19
	dc.b $90, $D8, nFs4, $85, $CC, nFs4, nFs4, $8B
	dc.b $D2, nG4, $8A, nG4, $88, $D8, nG4, $85
	dc.b $CC, nE4, nE4, $86, nE4, $8E, $D2, nFs4
	dc.b $8A, nFs4, $86, $CC, nFs4, $8E, $D8, nFs4
	dc.b $86, $CC, nFs4, nFs4, $8A, $D2, nB4, nB4
	dc.b $D8, nB4, $86, $CC, nG4, $85, nG4, $87
	dc.b nG4, $8C, $D2, nFs4, $89, nFs4, $86, $CC
	dc.b nFs4, $90, $D8, nFs4, $85, $CC, nFs4, nFs4
	dc.b $8B, $D2, nG4, $8A, nG4, $88, $D8, nG4
	dc.b $85, $CC, nE4, nE4, $86, nE4, $8E, $D2
	dc.b nFs4, $8A, nFs4, $86, $CC, nFs4, $8E, $D8
	dc.b nFs4, $86, $CC, nFs4, nFs4, $8A, $D2, nB4
	dc.b nB4, $D8, nB4, $86, $CC, nG4, $85, nG4
	dc.b $87, nG4, $8C, $D2, nFs4, $89, nFs4, $86
	dc.b $CC, nFs5, $90, $D8, nFs5, $85, $CC, nFs5
	dc.b nFs5, $8B, $D2, nG5, $8A, nG5, $88, $D8
	dc.b nG5, $85, $CC, nE5, nE5, $86, nE5, $8E
	dc.b $D2, nFs5, $8A, nFs5, $86, $CC, nFs5, $8E
	dc.b $D8, nFs5, $86, $CC, nFs5, nFs5, $8A, $D2
	dc.b nB5, nB5, $D8, nB5, $86, $CC, nG5, $85
	dc.b nG5, $87, nG5, $8C, $D2, nFs5, $89, nFs5
	dc.b $86, $CC, nFs5, $90, $D8, nFs5, $85, $CC
	dc.b nFs5, nFs5, $8B, $D2, nG5, $8A, nG5, $88
	dc.b $D8, nG5, $85, $CC, nE5, nE5, $86, nE5
	dc.b $8E, $D2, nFs5, $8A, nFs5, $86, $CC, nFs5
	dc.b $8E, $D8, nFs5, $86, $CC, nFs5, nFs5, $8A
	dc.b $D2, nB5, nB5, $D8, nB5, $86, $CC, nG5
	dc.b $85, nG5, $87, nG5, $8C, $D2, nFs5, $89
	dc.b nFs5, $C0
	gLoopEnd
	gStop

.0B_00	dc.b $C0
	gsTempo		68
	gLoopStart
	dc.b $C6
	gNop
	dc.b $C0
	gsPatch		$38
	gsVolume	$0B
	dc.b $83, $CC, nB2, nB2, nB2, nB2, nB2, nB2
	dc.b nB2, nB2, nB2, nB2, nB2, nB2, nB2, nB2
	dc.b nB2, nB2, nB2, nB2, nB2, nB2, $C3, nB2
	dc.b $C9, nB2, $C3, nB2, $C9, nB2, $C3, nB2
	dc.b $C9, nB2, $C3, nB2, $C9, nB2, $CC, nB2
	dc.b nB2, nB2, nB2, nB2, nB2, nB2, nB2, nB2
	dc.b nB2, nB2, nB2, $C3, nB2, $C9, nB2, $C3
	dc.b nB2, $C9, nB2, $C3, nB2, $C9, nB2, $C3
	dc.b nB2, $C9, nB2, $CC, nB2, nB2, nB2, nB2
	dc.b nB2, nB2, nB2, nB2, nB2, nB2, nB2, nB2
	dc.b nB2, nB2, nB2, nB2, nB2, nB2, nB2, nB2
	dc.b nB2, nB2, nB2, nB2, nB2, nB2, nB2, nB2
	dc.b nB2, nB2, nB2, nB2, nB2, nB2, nB2, nB2
	dc.b nB2, nB2, nB2, nB2, nB2, nB2, nB2, nB2
	dc.b nB2, nB2, nB2, nB2, nB2, nB2, nB2, nB2
	dc.b $C3, nB2, $C9, nB2, $C3, nB2, $C9, nB2
	dc.b $C3, nB2, $C9, nB2, $C3, nB2, $C9, nB2
	dc.b $CC, nB2, nB2, nB2, nB2, nB2, nB2, nB2
	dc.b nB2, nB2, nB2, nB2, nB2, $C3, nB2, $C9
	dc.b nB2, $C3, nB2, $C9, nB2, $C3, nB2, $C9
	dc.b nB2, $C3, nB2, $C9, nB2, $CC, nB2, nB2
	dc.b nB2, nB2, nB2, nB2, nB2, nB2, nB2, nB2
	dc.b nB2, nB2, nB2, nB2, nB2, nB2, nB2, nB2
	dc.b nB2, nB2, nB2, nB2, nB2, nB2, nB2, nB2
	dc.b nB2, nB2, nB2, nB2, nB2, nB2, nB2, nB2
	dc.b nB2, nB2, $C3, nB2, $C9, nB2, $C3, nB2
	dc.b $C9, nB2, $C3, nB2, $C9, nB2, $C3, nB2
	dc.b $C9, nB2, $CC, nB2, nB2, nB2, nB2, nB2
	dc.b nB2, nB2, nB2, nB2, nB2, nB2, nB2, $C3
	dc.b nB2, $C9, nB2, $C3, nB2, $C9, nB2, $C3
	dc.b nB2, $C9, nB2, $C3, nB2, $82, nB2, $C0
	gLoopEnd
	gStop

.0B_01	gLoopStart
	dc.b $C0
	gNop
	gsPatch		$3F
	gsVolume	$0A
	dc.b $83, $CC, nB2, nB2, nB2, nB2, nB2, nB2
	dc.b nB2, nB2, nB2, nB2, nB2, nB2, nB2, nB2
	dc.b nB2, nB2, nB2, nB2, nB2, nB2, $C3, nB2
	dc.b $C9, nB2, $C3, nB2, $C9, nB2, $C3, nB2
	dc.b $C9, nB2, $C3, nB2, $C9, nB2, $CC, nB2
	dc.b nB2, nB2, nB2, nB2, nB2, nB2, nB2, nB2
	dc.b nB2, nB2, nB2, $C3, nB2, $C9, nB2, $C3
	dc.b nB2, $C9, nB2, $C3, nB2, $C9, nB2, $C3
	dc.b nB2, $C9, nB2, $CC, nB2, nB2, nB2, nB2
	dc.b nB2, nB2, nB2, nB2, nB2, nB2, nB2, nB2
	dc.b nB2, nB2, nB2, $C3, $CC, nB2, $CC, nB2
	dc.b nB2, nB2, nB2, nB2, nB2, nB2, nB2, nB2
	dc.b nB2, nB2, nB2, nB2, nB2, nB2, nB2, nB2
	dc.b nB2, nB2, nB2, $C3, nB2, $C9, nB2, $C3
	dc.b nB2, $C9, nB2, $C3, nB2, $C9, nB2, $C3
	dc.b nB2, $C9, nB2, $CC, nB2, nB2, nB2, nB2
	dc.b nB2, nB2, nB2, nB2, nB2, nB2, nB2, nB2
	dc.b $C3, nB2, $C9, nB2, $C3, nB2, $C9, nB2
	dc.b $C3, nB2, $C9, nB2, $C3, nB2, $C9, nB2
	dc.b $CC, nB2, nB2, nB2, nB2, nB2, nB2, nB2
	dc.b nB2, nB2, nB2, nB2, nB2, nB2, nB2, nB2
	dc.b nB2, nB2, nB2, nB2, nB2, nB2, nB2, nB2
	dc.b nB2, nB2, nB2, nB2, nB2, nB2, nB2, nB2
	dc.b nB2, nB2, nB2, nB2, nB2, $C3, nB2, $C9
	dc.b nB2, $C3, nB2, $C9, nB2, $C3, nB2, $C9
	dc.b nB2, $C3, nB2, $C9, nB2, $CC, nB2, nB2
	dc.b nB2, nB2, nB2, nB2, nB2, nB2, nB2, nB2
	dc.b nB2, nB2, $C3, nB2, $C9, nB2, $C3, nB2
	dc.b $C9, nB2, $C3, nB2, $C9, nB2, $C3, nB2
	dc.b $C9, nB2, $C0
	gLoopEnd
	gStop

.0B_02	gLoopStart
	dc.b $C1, $E6
	gNop
	dc.b $C0
	gsPatch		$09
	gsVolume	$14
	dc.b $83, $C6, nCs3, $CC, nCs3, $C6, nCs3, $D8
	dc.b nCs3, $C6, nCs3, $CC, nCs3, $C6, nCs3, $D8
	dc.b nCs3, $C6, nCs3, $CC, nCs3, $C6, nCs3, $D8
	dc.b nCs3, $C6, nCs3, $CC, nCs3, $C6, nCs3, $D8
	dc.b nCs3, $C6, nCs3, $CC, nCs3, $C6, nCs3, $D8
	dc.b nCs3, $C6, nCs3, $CC, nCs3, $C6, nCs3, $D8
	dc.b nCs3, $C6, nCs3, $CC, nCs3, $C6, nCs3, $D8
	dc.b nCs3, $C6, nCs3, $CC, nCs3, $C6, nCs3, $D8
	dc.b nCs3, $C6, nE3, $CC, nE3, $C6, nE3, $D8
	dc.b nE3, $C6, nE3, $CC, nE3, $C6, nE3, $D8
	dc.b nE3, $C6, nCs3, $CC, nCs3, $C6, nCs3, $D8
	dc.b nCs3, $C6, nCs3, $CC, nCs3, $C6, nCs3, $D8
	dc.b nCs3, $C6, nCs3, $CC, nCs3, $C6, nCs3, $D8
	dc.b nCs3, $C6, nCs3, $CC, nCs3, $C6, nCs3, $D8
	dc.b nCs3, $C6, nCs3, $CC, nCs3, $C6, nCs3, $D8
	dc.b nCs3, $C6, nCs3, $CC, nCs3, $C6, nCs3, $D8
	dc.b nCs3, $C6, nCs3, $CC, nCs3, $C6, nCs3, $D8
	dc.b nCs3, $C6, nCs3, $CC, nCs3, $C6, nCs3, $D8
	dc.b nCs3, $C6, nCs3, $CC, nCs3, $C6, nCs3, $D8
	dc.b nCs3, $C6, nCs3, $CC, nCs3, $C6, nCs3, $D8
	dc.b nCs3, $C6, nE3, $CC, nE3, $C6, nE3, $D8
	dc.b nE3, $C6, nE3, $CC, nE3, $C6, nE3, $D8
	dc.b nE3, $C6, nCs3, $CC, nCs3, $C6, nCs3, $D8
	dc.b nCs3, $C6, nCs3, $CC, nCs3, $C6, nCs3, $CC
	dc.b $D2, nCs3, $C0
	gLoopEnd
	gStop

.0B_03	gLoopStart
	dc.b $C1, $EF
	gNop
	dc.b $C0
	gsPatch		$0A
	gsVolume	$18
	dc.b $83, $C6, nCs3, $CC, nCs3, $C6, nCs3, $D8
	dc.b nCs3, $C6, nCs3, $CC, nCs3, $C6, nCs3, $D8
	dc.b nCs3, $C6, nCs3, $CC, nCs3, $C6, nCs3, $D8
	dc.b nCs3, $C6, nCs3, $CC, nCs3, $C6, nCs3, $D8
	dc.b nCs3, $C6, nCs3, $CC, nCs3, $C6, nCs3, $D8
	dc.b nCs3, $C6, nCs3, $CC, nCs3, $C6, nCs3, $D8
	dc.b nCs3, $C6, nCs3, $CC, nCs3, $C6, nCs3, $D8
	dc.b nCs3, $C6, nCs3, $CC, nCs3, $C6, nCs3, $D8
	dc.b nCs3, $C6, nE3, $CC, nE3, $C6, nE3, $D8
	dc.b nE3, $C6, nE3, $CC, nE3, $C6, nE3, $D8
	dc.b nE3, $C6, nCs3, $CC, nCs3, $C6, nCs3, $D8
	dc.b nCs3, $C6, nCs3, $CC, nCs3, $C6, nCs3, $D8
	dc.b nCs3, $C6, nCs3, $CC, nCs3, $C6, nCs3, $D8
	dc.b nCs3, $C6, nCs3, $CC, nCs3, $C6, nCs3, $D8
	dc.b nCs3, $C6, nCs3, $CC, nCs3, $C6, nCs3, $D8
	dc.b nCs3, $C6, nCs3, $CC, nCs3, $C6, nCs3, $D8
	dc.b nCs3, $C6, nCs3, $CC, nCs3, $C6, nCs3, $D8
	dc.b nCs3, $C6, nCs3, $CC, nCs3, $C6, nCs3, $D8
	dc.b nCs3, $C6, nCs3, $CC, nCs3, $C6, nCs3, $D8
	dc.b nCs3, $C6, nCs3, $CC, nCs3, $C6, nCs3, $D8
	dc.b nCs3, $C6, nE3, $CC, nE3, $C6, nE3, $D8
	dc.b nE3, $C6, nE3, $CC, nE3, $C6, nE3, $D8
	dc.b nE3, $C6, nCs3, $CC, nCs3, $C6, nCs3, $D8
	dc.b nCs3, $C6, nCs3, $CC, nCs3, $C6, nCs3, $CC
	dc.b $C9, nCs3, $C0
	gLoopEnd
	gStop

.0B_04	gLoopStart
	dc.b $C1, $E0
	gNop
	dc.b $C0
	gsPatch		$52
	gsVolume	$13
	dc.b $85, $CC, nCs2, nCs2, nCs2, nCs2, nCs2, nCs2
	dc.b nCs2, $C6, nCs2, nD2, $CC, nCs2, nCs2, nCs2
	dc.b nCs2, nCs2, nCs2, nCs2, $C6, nCs2, nG2, $CC
	dc.b nCs2, nCs2, nCs2, nCs2, nCs2, nCs2, nCs2, $C6
	dc.b nCs2, nD2, $CC, nCs2, nCs2, nCs2, nCs2, nCs2
	dc.b nCs2, nCs2, $C6, nCs2, nG2, $CC, nE2, nE2
	dc.b nE2, nE2, nE2, nE2, nE2, $C6, nE2, nG2
	dc.b $CC, nCs2, nCs2, nCs2, nCs2, nCs2, nCs2, nCs2
	dc.b nCs2, nCs2, nCs2, nCs2, nCs2, nCs2, nCs2, nCs2
	dc.b $C6, nCs2, nD2, $CC, nCs2, nCs2, nCs2, nCs2
	dc.b nCs2, nCs2, nCs2, $C6, nCs2, nG2, $CC, nCs2
	dc.b nCs2, nCs2, nCs2, nCs2, nCs2, nCs2, $C6, nCs2
	dc.b nD2, $CC, nCs2, nCs2, nCs2, nCs2, nCs2, nCs2
	dc.b nCs2, $C6, nCs2, nG2, $CC, nE2, nE2, nE2
	dc.b nE2, nE2, nE2, nE2, $C6, nE2, nD2, $CC
	dc.b nCs2, nCs2, nCs2, nCs2, nCs2, nCs2, nCs2, $C1
	dc.b $EC, nCs2, $CC, nEb2, nEb2, nEb2, nEb2, nEb2
	dc.b nEb2, nEb2, $C6, nEb2, nE2, $CC, nEb2, nEb2
	dc.b nEb2, nEb2, nEb2, nEb2, nEb2, $C6, nEb2, nA2
	dc.b $CC, nEb2, nEb2, nEb2, nEb2, nEb2, nEb2, nEb2
	dc.b $C6, nEb2, nE2, $CC, nEb2, nEb2, nEb2, nEb2
	dc.b nEb2, nEb2, nEb2, $C6, nEb2, nA2, $CC, nFs2
	dc.b nFs2, nFs2, nFs2, nFs2, nFs2, nFs2, $C6, nFs2
	dc.b nA2, $CC, nEb2, nEb2, nEb2, nEb2, nEb2, nEb2
	dc.b nEb2, $C1, $EC, nEb2, $C0
	gLoopEnd
	gStop

.0B_05	gLoopStart
	dc.b $C0
	gNop
	gsPatch		$73
	gsVolume	$18
	dc.b $8C, $CC, nB6, nA6, nG6, nFs6, nB6, nA6
	dc.b nG6, $CF, $CC, nFs6, $CC, nB6, nA6, nG6
	dc.b nFs6, nB6, nA6, nG6, $C1, $EC, nFs6, $85
	dc.b $C6, nB6, nA6, nG6, nFs6, nG6, nA6, nB6
	dc.b nA6, nG6, nB6, nA6, nG6, nFs6, nG6, nA6
	dc.b $C6, $C6, nB6, $81, $A0, $C0, nAb2, $C5
	dc.b nD3, $C0
	gPitBend	$FF38
	gPitBend	$FE30
	dc.b $C1
	gPitBend	$FD6A
	dc.b $C0
	gPitBend	$FD4A
	dc.b $C1
	gPitBend	$FD6A
	dc.b $C0
	gPitBend	$FE10
	dc.b $C1
	gPitBend	$FEF6
	dc.b $C0
	gPitBend	$FF9C
	gPitBend	$FFFE
	dc.b $C2
	gPitBend	$0000
	dc.b $C0
	gPitBend	$FFBC
	dc.b $C1
	gPitBend	$FF18
	dc.b $C0
	gPitBend	$FEB4
	dc.b $C1
	gPitBend	$FE94
	dc.b $C0
	gPitBend	$FED6
	dc.b $C1
	gPitBend	$FF5A
	dc.b $C0
	gPitBend	$FFBC
	dc.b $C2
	gPitBend	$0000
	dc.b $C0
	gPitBend	$FFBC
	gPitBend	$FED6
	dc.b $C1
	gPitBend	$FDEE
	gPitBend	$FD8C
	dc.b $C0
	gPitBend	$FE30
	gPitBend	$FF18
	dc.b $C1
	gPitBend	$FF9C
	dc.b $C0
	gPitBend	$FFFE
	dc.b $C2
	gPitBend	$0000
	dc.b $C0
	gPitBend	$FF7A
	gPitBend	$FE94
	dc.b $C1
	gPitBend	$FDCE
	gPitBend	$FE10
	dc.b $C0
	gPitBend	$FED6
	gPitBend	$FF7A
	dc.b $C1
	gPitBend	$FFDE
	dc.b $C2
	gPitBend	$0000
	dc.b $C0
	gPitBend	$FFBC
	gPitBend	$FF38
	dc.b $C1
	gPitBend	$FF18
	dc.b $C0
	gPitBend	$FF38
	dc.b $C1
	gPitBend	$FF9C
	dc.b $C0
	gPitBend	$FFFE
	dc.b $C3
	gPitBend	$0000
	dc.b $C0
	gPitBend	$FFDE
	gPitBend	$FF7A
	dc.b $C1
	gPitBend	$FF18
	gPitBend	$FEF6
	gPitBend	$FED6
	dc.b $C0
	gPitBend	$FE94
	gPitBend	$FE72
	dc.b $C1
	gPitBend	$FE52
	dc.b $C0
	gPitBend	$FE30
	dc.b $C1
	gPitBend	$FE10
	dc.b $C0
	gPitBend	$FDEE
	dc.b $C1
	gPitBend	$FDCE
	gPitBend	$FD8C
	dc.b $C0
	gPitBend	$FD4A
	dc.b $C1
	gPitBend	$FD28
	dc.b $C0
	gPitBend	$FD08
	dc.b $C1
	gPitBend	$FCC6
	gPitBend	$FCA4
	dc.b $C0
	gPitBend	$FC62
	gPitBend	$FC42
	dc.b $C5
	gPitBend	$FC00
	dc.b $C1
	gPitBend	$FC42
	dc.b $C0
	gPitBend	$FCE6
	dc.b $C1
	gPitBend	$FD8C
	dc.b $C0
	gPitBend	$FE30
	gPitBend	$FEB4
	dc.b $C1
	gPitBend	$FF18
	dc.b $C0
	gPitBend	$FF5A
	dc.b $C1
	gPitBend	$FF9C
	dc.b $C0
	gPitBend	$FFBC
	dc.b $C1
	gPitBend	$FFFE
	dc.b $C4
	gPitBend	$0000
	dc.b $C1
	gPitBend	$FF18
	dc.b $C0
	gPitBend	$FD8C
	gPitBend	$FC62
	dc.b $C2
	gPitBend	$FC00
	dc.b $C0
	gPitBend	$FCA4
	gPitBend	$FDAC
	dc.b $C1
	gPitBend	$FED6
	dc.b $C0
	gPitBend	$FF7A
	dc.b $C1
	gPitBend	$FFDE
	dc.b $C0
	gPitBend	$FFFE
	dc.b $C1
	gPitBend	$FFBC
	dc.b $C0
	gPitBend	$FEF6
	gPitBend	$FE10
	dc.b $C1
	gPitBend	$FD6A
	dc.b $C0
	gPitBend	$FCE6
	dc.b $C1
	gPitBend	$FCC6
	dc.b $C0
	gPitBend	$FCE6
	gPitBend	$FD6A
	dc.b $C1
	gPitBend	$FE30
	dc.b $C0
	gPitBend	$FEF6
	dc.b $C1
	gPitBend	$FF9C
	dc.b $C0
	gPitBend	$FFFE
	dc.b $C1
	gPitBend	$0000
	gPitBend	$FFBC
	dc.b $C0
	gPitBend	$FEF6
	dc.b $C1
	gPitBend	$FE10
	dc.b $C0
	gPitBend	$FD8C
	gPitBend	$FD6A
	dc.b $C1
	gPitBend	$FD8C
	dc.b $C0
	gPitBend	$FDEE
	dc.b $C1
	gPitBend	$FEB4
	dc.b $C0
	gPitBend	$FF5A
	dc.b $C1
	gPitBend	$FFDE
	gPitBend	$0000
	gPitBend	$FF5A
	dc.b $C0
	gPitBend	$FE52
	gPitBend	$FD6A
	dc.b $C1
	gPitBend	$FCE6
	gPitBend	$FD28
	dc.b $C0
	gPitBend	$FDCE
	dc.b $C1
	gPitBend	$FEB4
	dc.b $C0
	gPitBend	$FF7A
	dc.b $C1
	gPitBend	$FFDE
	dc.b $C0
	gPitBend	$FF7A
	dc.b $C1
	gPitBend	$FED6
	dc.b $C0
	gPitBend	$FE30
	gPitBend	$FDCE
	dc.b $C1
	gPitBend	$FD6A
	gPitBend	$FD4A
	dc.b $C3
	gPitBend	$FD28
	dc.b $C1
	gPitBend	$FCE6
	dc.b $C0
	gPitBend	$FCC6
	dc.b $C1
	gPitBend	$FCA4
	dc.b $C0
	gPitBend	$FC84
	dc.b $C1
	gPitBend	$FC42
	dc.b $C2
	gPitBend	$FC20
	dc.b $C0
	gPitBend	$FC62
	dc.b $C1
	gPitBend	$FC84
	dc.b $C0
	gPitBend	$FCA4
	dc.b $C1
	gPitBend	$FCC6
	gPitBend	$FCE6
	dc.b $C0
	gPitBend	$FD08
	dc.b $C1
	gPitBend	$FD4A
	dc.b $C0
	gPitBend	$FD6A
	dc.b $C1
	gPitBend	$FD8C
	dc.b $C0
	gPitBend	$FDCE
	dc.b $C1
	gPitBend	$FDEE
	dc.b $C0
	gPitBend	$FE10
	gPitBend	$FE30
	dc.b $C1
	gPitBend	$FE72
	dc.b $C0
	gPitBend	$FE94
	dc.b $C1
	gPitBend	$FED6
	dc.b $C0
	gPitBend	$FF18
	gPitBend	$FF7A
	dc.b $C1
	gPitBend	$FFBC
	dc.b $C3, $C0
	gPitBend	$0000
	dc.b $C0
	gLoopEnd
	gStop

.0B_06	gLoopStart
	dc.b $CA, $E6
	gNop
	dc.b $C0
	gsPatch		$60
	gsVolume	$0D
	dc.b $83, $C6, nCs4, $CC, nCs4, $C6, nCs4, $CC
	dc.b nCs4, nD4, $C6, nCs4, $CC, nCs4, $C6, nCs4
	dc.b $D8, nCs4, $C6, nCs4, $CC, nCs4, $C6, nCs4
	dc.b $CC, nCs4, nFs4, $C6, nCs4, $CC, nCs4, $C6
	dc.b nCs4, $D8, nCs4, $C6, nCs4, $CC, nCs4, $C6
	dc.b nCs4, $CC, nCs4, nD4, $C6, nCs4, $CC, nCs4
	dc.b $C6, nCs4, $D8, nCs4, $C6, nCs4, $CC, nCs4
	dc.b $C6, nCs4, $CC, nCs4, nFs4, $C6, nCs4, $CC
	dc.b nCs4, $C6, nCs4, $C1, $F8, nCs4, $C6, nCs4
	dc.b $CC, nCs4, $C6, nCs4, $CC, nCs4, nD4, $C6
	dc.b nCs4, $CC, nCs4, $C6, nCs4, $CC, $D2, nCs4
	dc.b $C0
	gLoopEnd
	gStop

.0B_07	gLoopStart
	dc.b $CA, $E9
	gNop
	dc.b $C0
	gsPatch		$5E
	gsVolume	$11
	dc.b $83, $C6, nCs4, $CC, nCs4, $C6, nCs4, $CC
	dc.b nCs4, nD4, $C6, nCs4, $CC, nCs4, $C6, nCs4
	dc.b $D8, nCs4, $C6, nCs4, $CC, nCs4, $C6, nCs4
	dc.b $CC, nCs4, nFs4, $C6, nCs4, $CC, nCs4, $C6
	dc.b nCs4, $D8, nCs4, $C6, nCs4, $CC, nCs4, $C6
	dc.b nCs4, $CC, nCs4, nD4, $C6, nCs4, $CC, nCs4
	dc.b $C6, nCs4, $D8, nCs4, $C6, nCs4, $CC, nCs4
	dc.b $C6, nCs4, $CC, nCs4, nFs4, $C6, nCs4, $CC
	dc.b nCs4, $C6, nCs4, $C1, $F8, nCs4, $C6, nCs4
	dc.b $CC, nCs4, $C6, nCs4, $CC, nCs4, nD4, $C6
	dc.b nCs4, $CC, nCs4, $C6, nCs4, $CC, $CF, nCs4
	dc.b $C0
	gLoopEnd
	gStop

.0B_08	gLoopStart
	dc.b $D5, $C6
	gNop
	dc.b $C0
	gsPatch		$32
	gsVolume	$18
	dc.b $82, $C6, nEb3, nEb3, nEb3, nEb3, nEb3, $D2
	dc.b nEb3, $C6, nEb3, nEb3, nEb3, nEb3, nEb3, $D2
	dc.b nEb3, $C6, nEb3, nEb3, nEb3, nEb3, nEb3, $D2
	dc.b nEb3, $C6, nEb3, nEb3, nEb3, nEb3, nEb3, $D2
	dc.b nEb3, $C6, nEb3, nEb3, nEb3, nEb3, nEb3, $D2
	dc.b nEb3, $C6, nEb3, nEb3, nEb3, nEb3, nEb3, $D2
	dc.b nEb3, $C6, nEb3, nEb3, nEb3, nEb3, nEb3, $D2
	dc.b nEb3, $C6, nEb3, nEb3, nEb3, nEb3, nEb3, $C1
	dc.b $F2, nEb3, $C6, nEb3, nEb3, nEb3, nEb3, nEb3
	dc.b $D2, nEb3, $C6, nEb3, nEb3, nEb3, nEb3, nEb3
	dc.b $C1, $EC, nEb3, $C0
	gLoopEnd
	gStop

.0B_09	gLoopStart
	dc.b $D5, $C9
	gNop
	dc.b $C0
	gsPatch		$33
	gsVolume	$1C
	dc.b $82, $C6, nEb3, nEb3, nEb3, nEb3, nEb3, $D2
	dc.b nEb3, $C6, nEb3, nEb3, nEb3, nEb3, nEb3, $D2
	dc.b nEb3, $C6, nEb3, nEb3, nEb3, nEb3, nEb3, $D2
	dc.b nEb3, $C6, nEb3, nEb3, nEb3, nEb3, nEb3, $D2
	dc.b nEb3, $C6, nEb3, nEb3, nEb3, nEb3, nEb3, $D2
	dc.b nEb3, $C6, nEb3, nEb3, nEb3, nEb3, nEb3, $D2
	dc.b nEb3, $C6, nEb3, nEb3, nEb3, nEb3, nEb3, $D2
	dc.b nEb3, $C6, nEb3, nEb3, nEb3, nEb3, nEb3, $C1
	dc.b $F2, nEb3, $C6, nEb3, nEb3, nEb3, nEb3, nEb3
	dc.b $D2, nEb3, $C6, nEb3, nEb3, nEb3, nEb3, nEb3
	dc.b $C1, $E9, nEb3, $C0
	gLoopEnd
	gStop

.0C_00	dc.b $C0
	gsTempo		140
	gLoopStart
	dc.b $C0
	gNop
	gsPatch		$1B
	gsVolume	$17
	dc.b $86, $C6, nD3, nA3, nC4, nD4, nA4, nA3
	dc.b nC4, nD4, nD3, nA3, nC4, nD4, nA4, nA3
	dc.b nC4, nD4, nD3, nA3, nC4, nD4, nA4, nA3
	dc.b nC4, nD4, nD3, nA3, nC4, nD4, nA4, nA3
	dc.b nC4, nD4, nD3, nA3, nC4, nD4, nA4, nA3
	dc.b nC4, nD4, nD3, nA3, nC4, nD4, nA4, nA3
	dc.b nC4, nD4, nD3, nA3, nC4, nD4, nA4, nA3
	dc.b nC4, nD4, nD3, nA3, nC4, nD4, nA4, nA3
	dc.b nC4, nD4, nD3, nA3, nC4, nD4, nA4, nA3
	dc.b nC4, nD4, nD3, nA3, nC4, nD4, nA4, nA3
	dc.b nC4, nD4, nD3, nA3, nC4, nD4, nA4, nA3
	dc.b nC4, nD4, nD3, nA3, nC4, nD4, nA4, nA3
	dc.b nC4, nD4, nD3, nA3, nC4, nD4, nA4, nA3
	dc.b nC4, nD4, nD3, nA3, nC4, nD4, nA4, nA3
	dc.b nC4, nD4, nD3, nA3, nC4, nD4, nA4, nA3
	dc.b nC4, nD4, nD3, nA3, nC4, nD4, nA4, nA3
	dc.b nC4, nD4, nD3, nA3, nC4, nD4, nA4, nA3
	dc.b nC4, nD4, nD3, nA3, nC4, nD4, nA4, nA3
	dc.b nC4, nD4, nD3, nA3, nC4, nD4, nA4, nA3
	dc.b nC4, nD4, nD3, nA3, nC4, nD4, nA4, nA3
	dc.b nC4, $C6, $C6, nD4, $C6, nD3, nA3, nC4
	dc.b nD4, nA4, nA3, nC4, nD4, nD3, nA3, nC4
	dc.b nD4, nA4, nA3, nC4, nD4, nD3, nA3, nC4
	dc.b nD4, nA4, nA3, nC4, nD4, nD3, nA3, nC4
	dc.b nD4, nA4, nA3, nC4, nD4, nD3, nA3, nC4
	dc.b nD4, nA4, nA3, nC4, nD4, nD3, nA3, nC4
	dc.b nD4, nA4, nA3, nC4, nD4, nD3, nA3, nC4
	dc.b nD4, nA4, nA3, nC4, nD4, nD3, nA3, nC4
	dc.b nD4, nA4, nA3, nC4, nD4, nD3, nA3, nC4
	dc.b nD4, nA4, nA3, nC4, nD4, nD3, nA3, nC4
	dc.b nD4, nA4, nA3, nC4, nD4, nD3, nA3, nC4
	dc.b nD4, nA4, nA3, nC4, nD4, nD3, nA3, nC4
	dc.b nD4, nA4, nA3, nC4, $D5, $C6, nD4, $C0
	gLoopEnd
	gStop

.0C_01	gLoopStart
	dc.b $C9, $C0
	gNop
	dc.b $C0
	gsPatch		$3F
	gsVolume	$0A
	dc.b $83, $E4, nB2, $CC, nB2, $E4, nB2, $CC
	dc.b nB2, $E4, nB2, $CC, nB2, $F0, nB2, $E4
	dc.b nB2, $CC, nB2, $E4, nB2, $CC, nB2, $E4
	dc.b nB2, $CC, nB2, $F0, nB2, $E4, nB2, $CC
	dc.b nB2, $E4, nB2, $CC, nB2, $E4, nB2, $CC
	dc.b nB2, $F0, nB2, $E4, nB2, $CC, nB2, $E4
	dc.b nB2, $C1, $EC, nB2, $E4, nB2, $CC, nB2
	dc.b $E4, nB2, $CC, nB2, $E4, nB2, $CC, nB2
	dc.b $F0, nB2, $E4, nB2, $CC, nB2, $E4, nB2
	dc.b $CC, nB2, $E4, nB2, $CC, nB2, $F0, nB2
	dc.b $E4, nB2, $CC, nB2, $E4, nB2, $CC, nB2
	dc.b $E4, nB2, $CC, nB2, $F0, nB2, $E4, nB2
	dc.b $CC, nB2, $E4, nB2, $CC, nB2, $C1, $E0
	dc.b nB2, $E4, nB2, $CC, nB2, $E4, nB2, $CC
	dc.b nB2, $E4, nB2, $CC, nB2, $F0, nB2, $E4
	dc.b nB2, $CC, nB2, $E4, nB2, $CC, nB2, $E4
	dc.b nB2, $CC, nB2, $C6, $F0, nB2, $E4, nB2
	dc.b $CC, nB2, $E4, nB2, $CC, nB2, $E4, nB2
	dc.b $CC, nB2, $F0, nB2, $E4, nB2, $CC, nB2
	dc.b $E4, nB2, $CC, nB2, $E4, nB2, $CC, nB2
	dc.b $F0, nB2, $C0
	gLoopEnd
	gStop

.0C_02	gLoopStart
	dc.b $C3, $C0
	gNop
	dc.b $C0
	gsPatch		$42
	gsVolume	$18
	dc.b $9B, $E4, nD2, $8A, $CC, nD2, $8B, nF2
	dc.b nD2, $8C, nF2, nG2, $98, $E4, nA1, $8B
	dc.b $CC, nA1, $84, nC2, nC2, $97, $D8, nC2
	dc.b $9A, $E4, nD2, $8A, $CC, nD2, $8C, nF2
	dc.b nD2, nF2, $8B, nG2, $97, $E4, nBb1, $8C
	dc.b $CC, nBb1, $84, nC2, nC2, $94, $D8, nC2
	dc.b $9B, $E4, nD2, $8A, $CC, nD2, $8B, nF2
	dc.b nD2, $8C, nF2, nG2, $98, $E4, nA1, $8B
	dc.b $CC, nA1, $84, nC2, nC2, $97, $D8, nC2
	dc.b $9A, $E4, nD2, $8A, $CC, nD2, $8C, nF2
	dc.b nD2, nF2, $8B, nG2, $97, $E4, nBb1, $8C
	dc.b $CC, nBb1, $84, nC2, nC2, $94, $D8, nC2
	dc.b $9B, $E4, nG2, $8A, $CC, nG2, $8B, nBb2
	dc.b nG2, $8C, nBb2, nC3, $98, $E4, nD2, $8B
	dc.b $CC, nD2, $84, nF2, nF2, $97, $D8, nF2
	dc.b $9A, $E4, nG2, $8A, $CC, nG2, $8C, nBb2
	dc.b nG2, nBb2, $8B, $C1, $EC, nC3, $9B, $E4
	dc.b nD2, $8A, $CC, nD2, $8B, nF2, nD2, $8C
	dc.b nF2, nG2, $98, $E4, nA1, $8B, $CC, nA1
	dc.b $84, nC2, nC2, $97, $D8, nC2, $9A, $E4
	dc.b nD2, $8A, $CC, nD2, $8C, nF2, nD2, nF2
	dc.b $8B, nG2, $97, $E4, nBb1, $8C, $CC, nBb1
	dc.b $84, nC2, nC2, $94, $D8, nC2, $9B, $E4
	dc.b nD2, $8A, $CC, nD2, $8B, nF2, nD2, $8C
	dc.b nF2, nG2, $98, $E4, nA1, $8B, $CC, nA1
	dc.b $84, nC2, nC2, $97, $D8, nC2, $9A, $E4
	dc.b nD2, $8A, $CC, nD2, $8C, nF2, nD2, nF2
	dc.b $8B, nG2, $98, $E4, nA1, $8B, $CC, nA1
	dc.b $84, nC2, nC2, $97, $D8, nC2, $9B, $E4
	dc.b nD2, $8A, $CC, nD2, $8B, nF2, nD2, $8C
	dc.b nF2, nG2, $98, $E4, nA1, $8B, $CC, nA1
	dc.b $84, nC2, nC2, $97, $D8, nC2, $9A, $E4
	dc.b nD2, $8A, $CC, nD2, $8C, nF2, nD2, nF2
	dc.b $8B, nG2, $97, $E4, nBb1, $8C, $CC, nBb1
	dc.b $84, nC2, nC2, $94, $D8, nC2, $9B, $E4
	dc.b nD2, $8A, $CC, nD2, $8B, nF2, nD2, $8C
	dc.b nF2, nG2, $98, $E4, nA1, $8B, $CC, nA1
	dc.b $84, nC2, nC2, $97, $D8, nC2, $9A, $E4
	dc.b nD2, $8A, $CC, nD2, $8C, nF2, nD2, nF2
	dc.b $8B, nG2, $97, $E4, nBb1, $8C, $CC, nBb1
	dc.b $84, nC2, nC2, $94, $C6, $D8, nC2, $C0
	gLoopEnd
	gStop

.0C_03	gLoopStart
	dc.b $C9, $C0
	gNop
	dc.b $C0
	gsPatch		$09
	gsVolume	$16
	dc.b $84, $D2, nD3, nD3, $D8, nD3, $D2, nD3
	dc.b nD3, nD3, nD3, $D8, nD3, $D2, nD3, nD3
	dc.b nD3, nD3, $D8, nD3, $D2, nD3, nD3, nD3
	dc.b nD3, $D8, nD3, $D2, nD3, nD3, nG3, nG3
	dc.b $D8, nG3, $D2, nG3, nG3, nG3, nG3, $D8
	dc.b nG3, $D2, nG3, nG3, nG3, nG3, $D8, nG3
	dc.b $D2, nG3, $CD, $F2, nG3, $8F, $D8, nD3
	dc.b $8A, $CC, nD3, $8C, nC3, $8B, nD3, $8A
	dc.b nF3, $8C, nD3, $8B, nC3, $8A, $D2, nG3
	dc.b $89, nG3, $8D, $CC, nG3, $94, $D8, nF3
	dc.b $95, nE3, $90, nD3, $8B, $CC, nD3, nC3
	dc.b nD3, nF3, $8E, $FC, nD3, $89, $CC, nA2
	dc.b $85, nC3, $83, nC3, $95, $D8, nC3, $8E
	dc.b nD3, $8B, $CC, nD3, $89, nC3, $8B, nD3
	dc.b $8A, nF3, nD3, nC3, $8C, $D2, nG3, $8B
	dc.b nG3, $8C, $CC, nG3, $95, $D8, nF3, $98
	dc.b nE3, $92, nD3, $8A, $CC, nD3, $8B, nC3
	dc.b $8A, nD3, $89, nF3, $8D, $C7, $F8, nD3
	dc.b $C0
	gLoopEnd
	gStop

.0C_04	gLoopStart
	dc.b $C9, $CC
	gNop
	dc.b $C0
	gsPatch		$0A
	gsVolume	$1C
	dc.b $84, $D2, nD3, nD3, $D8, nD3, $D2, nD3
	dc.b nD3, nD3, nD3, $D8, nD3, $D2, nD3, nD3
	dc.b nD3, nD3, $D8, nD3, $D2, nD3, nD3, nD3
	dc.b nD3, $D8, nD3, $D2, nD3, nD3, nG3, nG3
	dc.b $D8, nG3, $D2, nG3, nG3, nG3, nG3, $D8
	dc.b nG3, $D2, nG3, nG3, nG3, nG3, $D8, nG3
	dc.b $D2, nG3, $CD, $F2, nG3, $86, $D8, nD3
	dc.b $CC, nD3, nC3, nD3, nF3, nD3, nC3, $D2
	dc.b nG3, nG3, $CC, nG3, $D8, nF3, nE3, nD3
	dc.b $CC, nD3, nC3, nD3, nF3, $FC, nD3, $CC
	dc.b nA2, nC3, nC3, $D8, nC3, nD3, $CC, nD3
	dc.b nC3, nD3, nF3, nD3, nC3, $D2, nG3, nG3
	dc.b $CC, nG3, $D8, nF3, nE3, nD3, $CC, nD3
	dc.b nC3, nD3, nF3, $C7, $EC, nD3, $C0
	gLoopEnd
	gStop

.0C_05	gLoopStart
	dc.b $D5, $C0
	gNop
	dc.b $C0
	gsPatch		$39
	gsVolume	$0F
	dc.b $85, $E4, nD4, $CC, nD4, nF4, nD4, nF4
	dc.b nG4, $E4, nA3, $CC, nA3, nC4, nC4, $D8
	dc.b nC4, $E4, nD4, $CC, nD4, nF4, nD4, nF4
	dc.b nG4, $E4, nBb3, $CC, nBb3, nC4, nC4, $D8
	dc.b nC4, $E4, nD4, $CC, nD4, nF4, nD4, nF4
	dc.b nG4, $E4, nA3, $CC, nA3, nC4, nC4, $D8
	dc.b nC4, $E4, nD4, $CC, nD4, nF4, nD4, nF4
	dc.b $D3, $EC, nG4, $C0
	gLoopEnd
	gStop

.0C_06	gLoopStart
	dc.b $D5, $D2
	gNop
	dc.b $C0
	gsPatch		$3A
	gsVolume	$14
	dc.b $85, $E4, nD4, $CC, nD4, nF4, nD4, nF4
	dc.b nG4, $E4, nA3, $CC, nA3, nC4, nC4, $D8
	dc.b nC4, $E4, nD4, $CC, nD4, nF4, nD4, nF4
	dc.b nG4, $E4, nBb3, $CC, nBb3, nC4, nC4, $D8
	dc.b nC4, $E4, nD4, $CC, nD4, nF4, nD4, nF4
	dc.b nG4, $E4, nA3, $CC, nA3, nC4, nC4, $D8
	dc.b nC4, $E4, nD4, $CC, nD4, nF4, nD4, $C4
	dc.b $D9, nF4, $C1
	gPitBend	$01CE
	dc.b $8D, $C0, nC3, $C4
	gPitBend	$03FE
	dc.b $C1
	gPitBend	$0338
	dc.b $C0
	gPitBend	$01AC
	dc.b $C1
	gPitBend	$00C6
	gPitBend	$0042
	dc.b $C5
	gPitBend	$0000
	dc.b $93, $CB, $F3, nD3, $C1
	gPitBend	$01CE
	dc.b $8D, $C0, nC3, $C4
	gPitBend	$03FE
	dc.b $C1
	gPitBend	$0338
	dc.b $C0
	gPitBend	$01AC
	dc.b $C1
	gPitBend	$00C6
	gPitBend	$0042
	dc.b $C5
	gPitBend	$0000
	dc.b $93, $C3, $C0, nD3, $C0
	gLoopEnd
	gStop

.0C_07	gLoopStart
	dc.b $CF, $C0
	gNop
	dc.b $C0
	gsPatch		$5E
	gsVolume	$10
	dc.b $86, $C6, nD5, nC5, nBb4, nA4, nC5, nBb4
	dc.b nA4, nG4, nBb4, nA4, nG4, nF4, nA4, nG4
	dc.b nF4, $C1, $E6, nE4, $C6, nD5, nC5, nBb4
	dc.b nA4, nC5, nBb4, nA4, nG4, nBb4, nA4, nG4
	dc.b nF4, nA4, nG4, nF4, nE4, nF4, nE4, nG4
	dc.b nF4, nA4, nG4, nBb4, nA4, nC5, nBb4, nD5
	dc.b nC5, nEb5, nD5, nF5, $D2, $C6, nEb5, $85
	dc.b $E4, nD4, $CC, nD4, nF4, nD4, nF4, nG4
	dc.b $E4, nA3, $CC, nA3, nC4, nC4, $D8, nC4
	dc.b $E4, nD4, $CC, nD4, nF4, nD4, nF4, nG4
	dc.b $E4, nBb3, $CC, nBb3, nC4, nC4, $D8, nC4
	dc.b $E4, nD4, $CC, nD4, nF4, nD4, nF4, nG4
	dc.b $E4, nA3, $CC, nA3, nC4, nC4, $D8, nC4
	dc.b $E4, nD4, $CC, nD4, nF4, nD4, nF4, nG4
	dc.b $E4, nBb3, $CC, nBb3, nC4, nC4, $D8, nC4
	dc.b $C0
	gLoopEnd
	gStop

.0C_08	gLoopStart
	dc.b $D0, $E0
	gNop
	dc.b $C0
	gsPatch		$60
	gsVolume	$12
	dc.b $87, $C6, nF4, nE4, nG4, nF4, nA4, nG4
	dc.b nBb4, nA4, nC5, nBb4, nD5, nC5, nEb5, nD5
	dc.b nF5, nEb5, nF5, nEb5, nD5, nC5, nBb4, nA4
	dc.b nC5, nBb4, nA4, nG4, nBb4, nA4, nG4, nF4
	dc.b nA4, nG4, nF4, nE4, nF4, nE4, nG4, nF4
	dc.b nA4, nG4, nBb4, nA4, nC5, nBb4, nD5, nC5
	dc.b nEb5, nD5, nF5, $D8, $CC, nEb5, $E4, nD4
	dc.b $CC, nD4, nF4, nD4, nF4, nG4, $E4, nA3
	dc.b $CC, nA3, nC4, nC4, $D8, nC4, $E4, nD4
	dc.b $CC, nD4, nF4, nD4, nF4, nG4, $E4, nBb3
	dc.b $CC, nBb3, nC4, $D2, nC4, $C0
	gLoopEnd
	gStop

.0C_09	gLoopStart
	dc.b $DF, $E0
	gNop
	dc.b $C0
	gsPatch		$61
	gsVolume	$1A
	dc.b $85, $CC, nB1, nB0, nB0, nB1, nB1, nB0
	dc.b nB0, $CC, $CC, nB1, $CC, nB1, nB0, nB0
	dc.b nB1, nB1, nB0, nB0, nB1, nB1, nB0, nB0
	dc.b nB1, $F0, nB1, $CC, nB1, nB0, nB0, nB1
	dc.b nB1, $D8, nFs1, $CC, nB1, nB1, nB0, nB0
	dc.b nB1, $F0, nB1, $C0
	gLoopEnd
	gStop

.0D_00	dc.b $C0
	gsTempo		144
	gLoopStart
	dc.b $C0
	gNop
	gsPatch		$4E
	gsVolume	$10
	dc.b $89, $D2, nFs2, $88, nFs2, $89, nG2, $90
	dc.b nG2, $89, $D8, nE2, $D2, nFs2, $88, nFs2
	dc.b $8A, nA2, $91, nA2, $89, $D8, nG2, $88
	dc.b $D2, nFs2, nFs2, $89, nG2, $90, nG2, $89
	dc.b $D8, nE2, $D2, nFs2, nFs2, nFs2, $90, nFs2
	dc.b $89, $D8, nE2, $D2, nFs2, nFs2, $88, nG2
	dc.b $90, nG2, $89, $D8, nE2, $D2, nFs2, $88
	dc.b nFs2, $8A, nA2, $8F, nA2, $89, $D8, nG2
	dc.b $D2, nFs2, nFs2, nG2, $90, nG2, $89, $D8
	dc.b nE2, $8B, $D2, nFs2, $89, nFs2, $90, nFs2
	dc.b $8F, nF2, $8A, $D8, nE2, $D2, nB2, nB2
	dc.b $89, nC3, $91, nC3, $89, $D8, nA2, $D2
	dc.b nB2, $88, nB2, $89, nD3, $91, nD3, $89
	dc.b $D8, nC3, $D2, nB2, $8A, nB2, $88, nC3
	dc.b $90, nC3, $88, $D8, nA2, $89, $D2, nB2
	dc.b nB2, nB2, $8A, nB2, $D8, nA2, $89, $D2
	dc.b nFs2, $8A, nFs2, $89, nG2, $90, nG2, $8A
	dc.b $D8, nE2, $89, $D2, nFs2, $88, nFs2, $89
	dc.b nA2, $90, nA2, $89, $D8, nG2, $88, $D2
	dc.b nFs2, nFs2, $89, nG2, $91, nG2, $88, $C9
	dc.b $CB, nE2, $C0
	gPitBend	$0000
	gHold
	dc.b nRst
	gPitBend	$0000
	gHold
	dc.b nRst
	gStop

.0D_01	gLoopStart
	dc.b $CC, $E4
	gNop
	dc.b $C0
	gsPatch		$30
	gsVolume	$0B
	dc.b $85, $C6, nCs4, nFs4, nCs5, nD5, $C2, $E8
	dc.b nFs5, $C6, nCs4, nFs4, nCs5, nD5, $CA, $F8
	dc.b nFs5, $C6, nCs4, nFs4, nCs5, nD5, nFs5, nD5
	dc.b nCs5, nFs4, nCs4, nFs4, nCs5, nD5, nFs5, nD5
	dc.b nCs5, nFs4, nD4, nG4, nCs5, nD5, nG5, nD5
	dc.b nCs5, nG4, nD4, nG4, nCs5, nD5, nG5, nD5
	dc.b nCs5, $C1, $F2, nG4, $C0
	gLoopEnd
	gStop

.0D_02	gLoopStart
	dc.b $C3, $C0
	gNop
	dc.b $C0
	gsPatch		$14
	gsVolume	$12
	dc.b $89, $D2, nFs3, $88, nFs3, $89, nG3, $92
	dc.b nG3, $89, $D8, nE3, $D2, nFs3, nFs3, nFs3
	dc.b $92, nFs3, $88, $D0, $F8, nE3, $D2, nFs3
	dc.b nFs3, $90, nFs3, $91, nF3, $8A, $C7, $F8
	dc.b nE3, $C0
	gLoopEnd
	gStop

.0D_03	gLoopStart
	dc.b $D1, $E3
	gNop
	dc.b $C0
	gsPatch		$27
	gsVolume	$18
	dc.b $C1
	gPitBend	$FFFE
	gPitBend	$FEF6
	gPitBend	$FD8C
	dc.b $C0
	gPitBend	$FC42
	dc.b $C2
	gPitBend	$FC00
	dc.b $81, $94, $CA, nFs3, $C1
	gPitBend	$FCA4
	gPitBend	$FDCE
	gPitBend	$FED6
	gPitBend	$FF7A
	gPitBend	$FFDE
	dc.b $C1, $CA
	gPitBend	$0000
	dc.b $C1
	gPitBend	$FF9C
	gPitBend	$FDEE
	gPitBend	$FC62
	dc.b $C4
	gPitBend	$FC00
	dc.b $B1, $CB, nFs3, $C1
	gPitBend	$FC20
	gPitBend	$FD8C
	gPitBend	$FED6
	dc.b $C0
	gPitBend	$FF7A
	dc.b $C1
	gPitBend	$FFDE
	dc.b $E1
	gPitBend	$0000
	dc.b $9F, $C5, nFs4, $C0
	gPitBend	$FF38
	dc.b $C1
	gPitBend	$FDCE
	gPitBend	$FC84
	dc.b $E0
	gPitBend	$FC00
	dc.b $C1
	gPitBend	$FD08
	gPitBend	$FE72
	dc.b $C0
	gPitBend	$FF5A
	dc.b $C1
	gPitBend	$FFBC
	gPitBend	$FFFE
	dc.b $C5
	gPitBend	$0000
	dc.b $81, $99, $C1, nFs3
	gPitBend	$FF7A
	gPitBend	$FD6A
	gPitBend	$FC20
	dc.b $CA
	gPitBend	$FC00
	dc.b $C1
	gPitBend	$FC62
	gPitBend	$FD8C
	gPitBend	$FED6
	dc.b $C0
	gPitBend	$FF7A
	dc.b $C1
	gPitBend	$FFDE
	dc.b $C1, $C9
	gPitBend	$0000
	dc.b $C1
	gPitBend	$FF7A
	gPitBend	$FDCE
	gPitBend	$FC62
	dc.b $C2
	gPitBend	$FC00
	dc.b $81, $AB, $CD, nFs3, $C1
	gPitBend	$FC84
	gPitBend	$FD28
	dc.b $C0
	gPitBend	$FE10
	dc.b $C1
	gPitBend	$FEF6
	gPitBend	$FF9C
	gPitBend	$FFFE
	dc.b $C1, $C7
	gPitBend	$0000
	dc.b $C1
	gPitBend	$FFFE
	gPitBend	$FFDE
	gPitBend	$FFBC
	gPitBend	$FF9C
	gPitBend	$FF7A
	dc.b $C2
	gPitBend	$FF5A
	dc.b $C1
	gPitBend	$FF38
	gPitBend	$FF18
	dc.b $C0
	gPitBend	$FEF6
	dc.b $C1
	gPitBend	$FED6
	gPitBend	$FEB4
	gPitBend	$FE94
	gPitBend	$FE72
	gPitBend	$FE52
	gPitBend	$FE30
	dc.b $C0
	gPitBend	$FDEE
	dc.b $C1
	gPitBend	$FDCE
	gPitBend	$FD8C
	gPitBend	$FD4A
	gPitBend	$FD08
	gPitBend	$FCA4
	gPitBend	$FC62
	dc.b $C0
	gPitBend	$FC20
	dc.b $C8
	gPitBend	$FC00
	dc.b $C1
	gPitBend	$FC42
	gPitBend	$FD08
	gPitBend	$FDEE
	dc.b $C0
	gPitBend	$FEF6
	dc.b $C1
	gPitBend	$FF7A
	gPitBend	$FFDE
	dc.b $C7, $DD
	gPitBend	$0000
	dc.b $C0
	gLoopEnd
	gStop

.0D_04	gLoopStart
	dc.b $C5, $F4
	gNop
	dc.b $C0
	gsPatch		$3F
	gsVolume	$07
	dc.b $82, $D8, nFs2, nFs2, nFs2, nFs2, nFs2, nFs2
	dc.b nFs2, nFs2, nFs2, nFs2, nFs2, nFs2, $C1, $E0
	dc.b nFs2, $D8, nFs2, nFs2, nFs2, nFs2, nFs2, nFs2
	dc.b nFs2, $CC, nFs2, nFs2, $D8, nFs2, nFs2, nFs2
	dc.b nFs2, nFs2, nFs2, nFs2, $CC, nFs2, nFs2, $D8
	dc.b nFs2, nFs2, nFs2, nFs2, nFs2, nFs2, nFs2, $CC
	dc.b nFs2, nFs2, $D8, nFs2, nFs2, nFs2, nFs2, $C1
	dc.b $E0, nFs2, $D8, nFs2, nFs2, nFs2, $CC, nFs2
	dc.b nFs2, $D8, nFs2, nFs2, nFs2, nFs2, nFs2, nFs2
	dc.b nFs2, $CC, nFs2, nFs2, $D8, nFs2, nFs2, nFs2
	dc.b $C2, $C4, nFs2, $C0
	gLoopEnd
	gStop

.0D_05	gLoopStart
	dc.b $C0
	gNop
	gsPatch		$0A
	gsVolume	$10
	dc.b $8A, $D2, nFs2, nFs2, nG2, $90, nG2, $8B
	dc.b $D8, nE2, $8A, $D2, nFs2, nFs2, nA2, $90
	dc.b nA2, $8A, $D8, nG2, $89, $D2, nFs2, $8A
	dc.b nFs2, nG2, $90, nG2, $8A, $D8, nE2, $D2
	dc.b nFs2, nFs2, nFs2, $8F, nFs2, $8A, $D8, nE2
	dc.b $88, $D2, nFs2, $89, nFs2, nG2, $91, nG2
	dc.b $8B, $D8, nE2, $89, $D2, nFs2, $8A, nFs2
	dc.b nA2, $91, nA2, $8A, $D8, nG2, $89, $D2
	dc.b nFs2, $8A, nFs2, $89, nG2, $91, nG2, $8B
	dc.b $D8, nE2, $8A, $D2, nFs3, $89, nFs3, $90
	dc.b nFs3, $8F, nF3, $8A, $D8, nE3, $89, $D2
	dc.b nB2, $8A, nB2, $89, nC3, $91, nC3, $89
	dc.b $D8, nA2, $D2, nB2, $8A, nB2, $89, nD3
	dc.b $92, nD3, $8A, $D8, nC3, $89, $D2, nB2
	dc.b nB2, nC3, $91, nC3, $89, $D8, nA2, $88
	dc.b $D2, nB2, $87, nB2, nB2, $90, nB2, $89
	dc.b $D8, nA2, $D2, nFs2, nFs2, nG2, $90, nG2
	dc.b $8A, $D8, nE2, $89, $D2, nFs2, nFs2, nA2
	dc.b $91, nA2, $8A, $D8, nG2, $89, $D2, nFs2
	dc.b nFs2, nG2, $8F, nG2, $88, $D8, nE2, $8B
	dc.b $D2, nFs3, $89, nFs3, $90, nFs3, $8F, nF3
	dc.b $88, $CC, nE3, $81, $91, $D5, nB6, $C2
	gPitBend	$FFF0
	dc.b $C0
	gPitBend	$FFE0
	dc.b $C3
	gPitBend	$FFD0
	dc.b $C0
	gPitBend	$FFC0
	dc.b $C3
	gPitBend	$FFB0
	dc.b $C5
	gPitBend	$FFA0
	dc.b $C1
	gPitBend	$FF80
	dc.b $C2
	gPitBend	$FF70
	dc.b $C1
	gPitBend	$FF60
	gPitBend	$FF50
	dc.b $C3
	gPitBend	$FF30
	dc.b $C2
	gPitBend	$FF10
	dc.b $C5
	gPitBend	$FEF0
	dc.b $C3
	gPitBend	$FEC0
	dc.b $C2
	gPitBend	$FEA0
	dc.b $C1
	gPitBend	$FE90
	dc.b $C2
	gPitBend	$FE80
	dc.b $C7
	gPitBend	$FE70
	dc.b $C3
	gPitBend	$FE50
	dc.b $C5
	gPitBend	$FE40
	dc.b $C2
	gPitBend	$FE00
	dc.b $C0
	gPitBend	$FDD0
	dc.b $C1
	gPitBend	$FDC0
	dc.b $C0
	gPitBend	$FDA0
	dc.b $C1
	gPitBend	$FD70
	dc.b $C0
	gPitBend	$FD30
	dc.b $C1
	gPitBend	$FCF0
	gPitBend	$FCB0
	dc.b $C0
	gPitBend	$FC70
	dc.b $C1
	gPitBend	$FC30
	dc.b $C5
	gPitBend	$FC00
	dc.b $8D, $C4, nB5, $C1
	gPitBend	$FC20
	dc.b $C0
	gPitBend	$FC60
	dc.b $C1
	gPitBend	$FC90
	dc.b $C0
	gPitBend	$FCD0
	dc.b $C1
	gPitBend	$FD00
	gPitBend	$FD40
	dc.b $C0
	gPitBend	$FD80
	dc.b $C1
	gPitBend	$FDC0
	dc.b $C0
	gPitBend	$FE40
	dc.b $C1
	gPitBend	$FED0
	dc.b $C0
	gPitBend	$FF40
	dc.b $C1
	gPitBend	$FFB0
	gPitBend	$0000
	dc.b $81, $88, $DB, nB6, $C0
	gPitBend	$FFF0
	dc.b $C2
	gPitBend	$FFE0
	dc.b $C0
	gPitBend	$FFD0
	dc.b $C2
	gPitBend	$FFC0
	dc.b $C1
	gPitBend	$FFB0
	gPitBend	$FFA0
	dc.b $C3
	gPitBend	$FF80
	dc.b $C1
	gPitBend	$FF60
	dc.b $C3
	gPitBend	$FF40
	dc.b $C2
	gPitBend	$FF20
	dc.b $C0
	gPitBend	$FF00
	dc.b $C2
	gPitBend	$FEF0
	dc.b $C1
	gPitBend	$FEE0
	gPitBend	$FED0
	gPitBend	$FEC0
	dc.b $C2
	gPitBend	$FEB0
	dc.b $C3
	gPitBend	$FE90
	gPitBend	$FE70
	gPitBend	$FE50
	gPitBend	$FE30
	dc.b $C0
	gPitBend	$FE10
	dc.b $C2
	gPitBend	$FE00
	dc.b $C1
	gPitBend	$FDF0
	dc.b $C2
	gPitBend	$FDE0
	dc.b $C0
	gPitBend	$FDD0
	dc.b $C1
	gPitBend	$FDC0
	gPitBend	$FDA0
	gPitBend	$FD90
	dc.b $C0
	gPitBend	$FD70
	dc.b $C2
	gPitBend	$FD60
	dc.b $C0
	gPitBend	$FD30
	dc.b $C1
	gPitBend	$FD20
	dc.b $C3
	gPitBend	$FD00
	dc.b $C4
	gPitBend	$FCF0
	dc.b $C0
	gPitBend	$FD70
	dc.b $C1
	gPitBend	$FDA0
	dc.b $C0
	gPitBend	$FDE0
	dc.b $C1
	gPitBend	$FE10
	dc.b $C0
	gPitBend	$FE40
	dc.b $C1
	gPitBend	$FE70
	dc.b $C0
	gPitBend	$FEA0
	dc.b $C1
	gPitBend	$FED0
	gPitBend	$FF20
	dc.b $C0
	gPitBend	$FFB0
	dc.b $CB
	gPitBend	$0000
	dc.b $C1
	gPitBend	$FF20
	dc.b $81, $92, $C0, nB6
	gPitBend	$FEB0
	dc.b $C1
	gPitBend	$FE40
	gPitBend	$FDE0
	dc.b $C0
	gPitBend	$FD80
	dc.b $C1
	gPitBend	$FD40
	dc.b $C0
	gPitBend	$FD00
	dc.b $C3
	gPitBend	$FCD0
	dc.b $C0
	gPitBend	$FCF0
	dc.b $C1
	gPitBend	$FD30
	dc.b $C0
	gPitBend	$FD70
	dc.b $C1
	gPitBend	$FDC0
	dc.b $C0
	gPitBend	$FE10
	dc.b $C1
	gPitBend	$FE50
	gPitBend	$FEA0
	dc.b $C0
	gPitBend	$FED0
	dc.b $C1
	gPitBend	$FF10
	dc.b $C0
	gPitBend	$FF30
	dc.b $C1
	gPitBend	$FF50
	dc.b $C0
	gPitBend	$FF80
	dc.b $C1
	gPitBend	$FF90
	dc.b $C0
	gPitBend	$FFB0
	dc.b $C1
	gPitBend	$FFC0
	gPitBend	$FFE0
	dc.b $D8
	gPitBend	$0000
	dc.b $C0
	gPitBend	$FFF0
	dc.b $C2
	gPitBend	$FFE0
	dc.b $C1
	gPitBend	$FFD0
	gPitBend	$FFC0
	gPitBend	$FFB0
	dc.b $C2
	gPitBend	$FFA0
	dc.b $C0
	gPitBend	$FF90
	dc.b $C2
	gPitBend	$FF80
	dc.b $C0
	gPitBend	$FF70
	dc.b $C3
	gPitBend	$FF60
	dc.b $C0
	gPitBend	$FF50
	dc.b $C2
	gPitBend	$FF40
	dc.b $C1
	gPitBend	$FF30
	dc.b $C2
	gPitBend	$FF20
	dc.b $C3
	gPitBend	$FF10
	gPitBend	$FEF0
	dc.b $C4
	gPitBend	$FEE0
	dc.b $C2
	gPitBend	$FEB0
	dc.b $C3
	gPitBend	$FE90
	gPitBend	$FE70
	dc.b $C2
	gPitBend	$FE50
	dc.b $C0
	gPitBend	$FE30
	dc.b $C2
	gPitBend	$FE20
	dc.b $C0
	gPitBend	$FE00
	dc.b $C1
	gPitBend	$FDE0
	dc.b $C0
	gPitBend	$FDC0
	dc.b $C1
	gPitBend	$FD90
	dc.b $C0
	gPitBend	$FD70
	dc.b $C1
	gPitBend	$FD40
	gPitBend	$FD00
	dc.b $C0
	gPitBend	$FCD0
	dc.b $C1
	gPitBend	$FCA0
	dc.b $C0
	gPitBend	$FC60
	dc.b $C1
	gPitBend	$FC30
	dc.b $8E, $C0, nB5
	gPitBend	$FC10
	dc.b $C6
	gPitBend	$FC00
	dc.b $C0
	gPitBend	$FC80
	dc.b $C1
	gPitBend	$FCA0
	dc.b $C0
	gPitBend	$FCC0
	dc.b $C1
	gPitBend	$FCE0
	dc.b $C0
	gPitBend	$FD00
	dc.b $C1
	gPitBend	$FD20
	dc.b $C0
	gPitBend	$FD50
	dc.b $C1
	gPitBend	$FD70
	gPitBend	$FD90
	dc.b $C0
	gPitBend	$FDC0
	dc.b $C1
	gPitBend	$FDE0
	dc.b $81, $89, $C0, nB6
	gPitBend	$FE10
	dc.b $C1
	gPitBend	$FE40
	dc.b $C0
	gPitBend	$FE70
	dc.b $C1
	gPitBend	$FEA0
	gPitBend	$FED0
	dc.b $C0
	gPitBend	$FF00
	dc.b $C1
	gPitBend	$FF30
	dc.b $C0
	gPitBend	$FF60
	dc.b $C1
	gPitBend	$FF90
	gPitBend	$FFB0
	dc.b $C0
	gPitBend	$FFE0
	dc.b $DB
	gPitBend	$0000
	dc.b $C1
	gPitBend	$FFF0
	gPitBend	$FFE0
	gPitBend	$FFD0
	dc.b $C3
	gPitBend	$FFB0
	dc.b $C2
	gPitBend	$FF90
	dc.b $C3
	gPitBend	$FF70
	dc.b $C2
	gPitBend	$FF50
	dc.b $C1
	gPitBend	$FF30
	gPitBend	$FF20
	dc.b $C2
	gPitBend	$FF00
	dc.b $C1
	gPitBend	$FEE0
	dc.b $C2
	gPitBend	$FED0
	gPitBend	$FEB0
	dc.b $C1
	gPitBend	$FE90
	gPitBend	$FE80
	dc.b $C3
	gPitBend	$FE70
	gPitBend	$FE50
	dc.b $C2
	gPitBend	$FE30
	gPitBend	$FE10
	dc.b $C1
	gPitBend	$FDF0
	gPitBend	$FDE0
	gPitBend	$FDC0
	dc.b $C0
	gPitBend	$FDA0
	dc.b $C1
	gPitBend	$FD80
	dc.b $C0
	gPitBend	$FD70
	dc.b $C1
	gPitBend	$FD50
	gPitBend	$FD40
	dc.b $C3
	gPitBend	$FD10
	dc.b $C2
	gPitBend	$FD20
	dc.b $C1
	gPitBend	$FDC0
	dc.b $C0
	gPitBend	$FDF0
	dc.b $C1
	gPitBend	$FE20
	dc.b $C0
	gPitBend	$FE70
	dc.b $C1
	gPitBend	$FF00
	gPitBend	$FF90
	dc.b $C1, $FA
	gPitBend	$0000
	dc.b $C0
	gLoopEnd
	gStop

.0D_06	gLoopStart
	dc.b $C6, $C0
	gNop
	dc.b $C0
	gsPatch		$7F
	gsVolume	$00
	dc.b $88, $D8, nC4, nC4, nC4, nC4, nC4, nC4
	dc.b nC4, nC4, nC4, nC4, nC4, $C1, $F8, nC4
	dc.b $D8, nC4, nC4, nC4, nC4, nC4, nC4, nC4
	dc.b nC4, nC4, nC4, nC4, nC4, nC4, nC4, nC4
	dc.b nC4, nC4, nC4, nC4, nC4, nC4, nC4, nC4
	dc.b nC4, nC4, nC4, nC4, $C1, $F8, nC4, $D8
	dc.b nC4, nC4, nC4, nC4, nC4, nC4, nC4, nC4
	dc.b nC4, nC4, nC4, nC4, nC4, nC4, nC4, $CC
	dc.b nC4, $C1, $EC, nC4, $C0
	gLoopEnd
	gStop

.0D_07	gLoopStart
	dc.b $CC
	gNop
	dc.b $C0
	gsPatch		$09
	gsVolume	$1B
	dc.b $8A, $D2, nFs2, nFs2, nG2, $90, nG2, $8B
	dc.b $D8, nE2, $8A, $D2, nFs2, nFs2, nA2, $90
	dc.b nA2, $8A, $D8, nG2, $89, $D2, nFs2, $8A
	dc.b nFs2, nG2, $90, nG2, $8A, $D8, nE2, $D2
	dc.b nFs2, nFs2, nFs2, $8F, nFs2, $8A, $D8, nE2
	dc.b $88, $D2, nFs2, $89, nFs2, nG2, $91, nG2
	dc.b $8B, $D8, nE2, $89, $D2, nFs2, $8A, nFs2
	dc.b nA2, $91, nA2, $8A, $D8, nG2, $89, $D2
	dc.b nFs2, $8A, nFs2, $89, nG2, $91, nG2, $8B
	dc.b $D8, nE2, $8A, $D2, nFs3, $89, nFs3, $90
	dc.b nFs3, $8F, $CA, $F2, nF3, $88, $D8, nE2
	dc.b $8B, $D2, nFs3, $89, nFs3, $90, nFs3, $8F
	dc.b nF3, $88, $CC, nE3, $81, $91, $C1, $D4
	dc.b nB6, $8D, $CC, nB5, $81, $88, $C1, $E0
	dc.b nB6, $81, $92, $C1, $D4, nB6, $8E, $CC
	dc.b nB5, $81, $89, $C3, $C0, nB6, $C0
	gLoopEnd
	gStop

.0D_08	gLoopStart
	dc.b $CB, $F4
	gNop
	dc.b $C0
	gsPatch		$4D
	gsVolume	$17
	dc.b $83, $CC, nB4, $C1, $D4, nB4, $CC, nB4
	dc.b $D8, nB4, $8E, $CC, nB3, $9B, nB2, $C1
	gPitBend	$FFFE
	gPitBend	$FF9C
	gPitBend	$FF38
	dc.b $C0
	gPitBend	$FEB4
	dc.b $C1
	gPitBend	$FE52
	gPitBend	$FDCE
	gPitBend	$FD4A
	gPitBend	$FCC6
	gPitBend	$FC42
	dc.b $CC
	gPitBend	$FC00
	dc.b $C1
	gPitBend	$FCC6
	dc.b $C0
	gPitBend	$FDCE
	dc.b $C1
	gPitBend	$FED6
	gPitBend	$FF7A
	gPitBend	$FFDE
	dc.b $CC
	gPitBend	$0000
	dc.b $83, nB4, $C1, $D4, nB4, $CC, nB4, $D8
	dc.b nB4, $8C, $CC, nB3, $99, $CF, nB2, $C1
	gPitBend	$FFDE
	gPitBend	$FF5A
	dc.b $C0
	gPitBend	$FED6
	dc.b $C1
	gPitBend	$FE52
	gPitBend	$FDCE
	gPitBend	$FD6A
	gPitBend	$FD08
	gPitBend	$FCA4
	gPitBend	$FC42
	dc.b $CA
	gPitBend	$FC00
	dc.b $C1
	gPitBend	$FC20
	gPitBend	$FCE6
	dc.b $C0
	gPitBend	$FDEE
	dc.b $C1
	gPitBend	$FEF6
	gPitBend	$FF9C
	gPitBend	$FFFE
	dc.b $CD, $F6
	gPitBend	$0000
	dc.b $C0
	gLoopEnd
	gStop

.0D_09	gLoopStart
	dc.b $CC, $F6
	gNop
	dc.b $C0
	gsPatch		$30
	gsVolume	$11
	dc.b $85, $C6, nCs4, nFs4, nCs5, nD5, $C2, $E8
	dc.b nFs5, $C6, nCs4, nFs4, nCs5, nD5, $CA, $F8
	dc.b nFs5, $C6, nCs4, nFs4, nCs5, nD5, nFs5, nD5
	dc.b nCs5, nFs4, nCs4, nFs4, nCs5, nD5, nFs5, nD5
	dc.b nCs5, nFs4, nD4, nG4, nCs5, nD5, nG5, nD5
	dc.b nCs5, nG4, nD4, nG4, nCs5, nD5, $C1, $F2
	dc.b nG5, $C0
	gLoopEnd
	gStop

.0E_00	dc.b $C0
	gsTempo		138
	gLoopStart
	dc.b $C6, $C0
	gNop
	dc.b $C0
	gsPatch		$3F
	gsVolume	$09
	dc.b $85, $D8, nFs2, nFs2, nFs2, nFs2, nFs2, nFs2
	dc.b nFs2, nFs2, nFs2, nFs2, nFs2, $C1, $F8, nFs2
	dc.b $D8, nFs2, nFs2, nFs2, nFs2, nFs2, nFs2, nFs2
	dc.b nFs2, nFs2, nFs2, nFs2, nFs2, nFs2, nFs2, nFs2
	dc.b nFs2, nFs2, nFs2, nFs2, nFs2, nFs2, nFs2, nFs2
	dc.b nFs2, nFs2, nFs2, nFs2, nFs2, nFs2, nFs2, nFs2
	dc.b nFs2, nFs2, nFs2, nFs2, nFs2, nFs2, nFs2, nFs2
	dc.b nFs2, nFs2, nFs2, nFs2, nFs2, nFs2, nFs2, nFs2
	dc.b nFs2, nFs2, nFs2, nFs2, nFs2, nFs2, nFs2, nFs2
	dc.b nFs2, nFs2, nFs2, nFs2, nFs2, nFs2, nFs2, nFs2
	dc.b $C6, $D8, nFs2, $D8, nFs2, nFs2, nFs2, nFs2
	dc.b nFs2, nFs2, nFs2, nFs2, nFs2, nFs2, nFs2, nFs2
	dc.b nFs2, nFs2, nFs2, nFs2, nFs2, nFs2, nFs2, nFs2
	dc.b nFs2, nFs2, nFs2, nFs2, nFs2, nFs2, nFs2, nFs2
	dc.b nFs2, nFs2, nFs2, nFs2, nFs2, nFs2, nFs2, nFs2
	dc.b nFs2, nFs2, nFs2, nFs2, nFs2, nFs2, nFs2, nFs2
	dc.b nFs2, nFs2, nFs2, nFs2, nFs2, nFs2, nFs2, nFs2
	dc.b nFs2, nFs2, nFs2, nFs2, nFs2, nFs2, nFs2, nFs2
	dc.b nFs2, nFs2, nFs2, nFs2, $C0
	gLoopEnd
	gStop

.0E_01	gLoopStart
	dc.b $CC
	gNop
	dc.b $C0
	gsPatch		$33
	gsVolume	$11
	dc.b $86, $CC, nE2, $C6, nE3, $CC, nE2, $C6
	dc.b nE3, $CC, nE2, $C6, nE3, $CC, nE2, $C6
	dc.b nE3, $CC, nE2, $C0, nE3, $C1
	gPitBend	$0042
	gPitBend	$035A
	dc.b $C4
	gPitBend	$03FE
	dc.b $C0, nE2, $C1
	gPitBend	$039C
	gPitBend	$0210
	gPitBend	$0108
	gPitBend	$0062
	dc.b $C2
	gPitBend	$0000
	dc.b $CC, nE2, $C6, nE3, $CC, nE2, $C6, nE3
	dc.b $CC, nE2, $C6, nE3, $CC, nE2, $C6, nE3
	dc.b $CC, nE2, $C6, nE3, nE2, $CC, nE2, $C6
	dc.b nE3, $CC, nE2, $C6, nE3, $CC, nE2, $C6
	dc.b nE3, $CC, nE2, $C6, nE3, $CC, nE2, $C1
	dc.b nE3
	gPitBend	$02B4
	dc.b $C4
	gPitBend	$03FE
	dc.b $C1, nE2
	gPitBend	$02F6
	gPitBend	$018C
	gPitBend	$00A4
	gPitBend	$0042
	gPitBend	$0000
	dc.b $CC, nE2, $C6, nE3, $CC, nE2, $C6, nE3
	dc.b $CC, nE2, $C6, nE3, $CC, nE2, $C6, nE3
	dc.b $CC, nE2, $C6, nE3, nE2, $CC, nE2, $C6
	dc.b nE3, $CC, nE2, $C6, nE3, $CC, nE2, $C6
	dc.b nE3, $CC, nE2, $C6, nE3, $CC, nE2, $C1
	dc.b nE3
	gPitBend	$00C6
	gPitBend	$037A
	dc.b $C3
	gPitBend	$03FE
	dc.b $C0, nE2, $C1
	gPitBend	$0338
	gPitBend	$01AC
	dc.b $C0
	gPitBend	$00C6
	dc.b $C1
	gPitBend	$0042
	dc.b $C3
	gPitBend	$0000
	dc.b $CC, nE2, $C6, nE3, $CC, nE2, $C6, nE3
	dc.b $CC, nE2, $C6, nE3, $CC, nE2, $C6, nE3
	dc.b $CC, nE2, $C6, nE3, nE2, $CC, nE2, $C6
	dc.b nE3, $CC, nE2, $C6, nE3, $CC, nE2, $C6
	dc.b nE3, $CC, nE2, $C6, nE3, $CC, nE2, $C0
	dc.b nE3, $C1
	gPitBend	$0272
	dc.b $C5
	gPitBend	$03FE
	dc.b $C1, nE2
	gPitBend	$0294
	gPitBend	$014A
	gPitBend	$0084
	gPitBend	$0020
	gPitBend	$0000
	dc.b $CC, nE2, $C6, nE3, $CC, nE2, $C6, nE3
	dc.b $CC, nE2, $C6, nE3, $CC, nE2, $C6, nE3
	dc.b $D8, $D8, nE2, $CC, nE3, $C6, nE4, $CC
	dc.b nE3, $C6, nE4, $CC, nE3, $C6, nE4, $CC
	dc.b nE3, $C6, nE4, $CC, nE3, $C0, nE4, $C1
	gPitBend	$0042
	gPitBend	$035A
	dc.b $C4
	gPitBend	$03FE
	dc.b $C0, nE3, $C1
	gPitBend	$039C
	gPitBend	$0210
	gPitBend	$0108
	gPitBend	$0062
	dc.b $C2
	gPitBend	$0000
	dc.b $CC, nE3, $C6, nE4, $CC, nE3, $C6, nE4
	dc.b $CC, nE3, $C6, nE4, $CC, nE3, $C6, nE4
	dc.b $D8, nE3, $CC, nE3, $C6, nE4, $CC, nE3
	dc.b $C6, nE4, $CC, nE3, $C6, nE4, $CC, nE3
	dc.b $C6, nE4, $CC, nE3, $C0, nE4, $C1
	gPitBend	$0042
	gPitBend	$035A
	dc.b $C4
	gPitBend	$03FE
	dc.b $C0, nE3, $C1
	gPitBend	$039C
	gPitBend	$0210
	gPitBend	$0108
	gPitBend	$0062
	dc.b $C2
	gPitBend	$0000
	dc.b $CC, nE3, $C6, nE4, $CC, nE3, $C6, nE4
	dc.b $CC, nE3, $C6, nE4, $CC, nE3, $C6, nE4
	dc.b $D8, $CC, nE3, $C0
	gLoopEnd
	gStop

.0E_02	gLoopStart
	dc.b $C0
	gNop
	gsPatch		$79
	gsVolume	$06
	dc.b $86, $CC, nE2, $C6, nE3, $CC, nE2, $C6
	dc.b nE3, $CC, nE2, $C6, nE3, $CC, nE2, $C6
	dc.b nE3, $CC, nE2, $C6, nE3, nE2, $CC, nE2
	dc.b $C6, nE3, $CC, nE2, $C6, nE3, $CC, nE2
	dc.b $C6, nE3, $CC, nE2, $C6, nE3, $CC, nE2
	dc.b $C6, nE3, nE2, $CC, nE2, $C6, nE3, $CC
	dc.b nE2, $C6, nE3, $CC, nE2, $C6, nE3, $CC
	dc.b nE2, $C6, nE3, $CC, nE2, $C6, nE3, nE2
	dc.b $CC, nE2, $C6, nE3, $CC, nE2, $C6, nE3
	dc.b $CC, nE2, $C6, nE3, $CC, nE2, $C6, nE3
	dc.b $CC, nE2, $C6, nE3, nE2, $CC, nE2, $C6
	dc.b nE3, $CC, nE2, $C6, nE3, $CC, nE2, $C6
	dc.b nE3, $CC, nE2, $C6, nE3, $CC, nE2, $C6
	dc.b nE3, nE2, $CC, nE2, $C6, nE3, $CC, nE2
	dc.b $C6, nE3, $CC, nE2, $C6, nE3, $CC, nE2
	dc.b $C6, nE3, $CC, nE2, $C6, nE3, nE2, $CC
	dc.b nE2, $C6, nE3, $CC, nE2, $C6, nE3, $CC
	dc.b nE2, $C6, nE3, $CC, nE2, $C6, nE3, $CC
	dc.b nE2, $C6, nE3, nE2, $CC, nE2, $C6, nE3
	dc.b $CC, nE2, $C6, nE3, $CC, nE2, $C6, nE3
	dc.b $CC, nE2, $C6, nE3, $CC, nE2, $C6, nE3
	dc.b nE2, $CC, nE2, $C6, nE3, $CC, nE2, $C6
	dc.b nE3, $CC, nE2, $C6, nE3, $CC, nE2, $C6
	dc.b nE3, $CC, nE2, $C6, nE3, nE2, $CC, nE2
	dc.b $C6, nE3, $CC, nE2, $C6, nE3, $CC, nE2
	dc.b $C6, nE3, $CC, nE2, $C6, nE3, $CC, nE2
	dc.b $C6, nE3, nE2, $CC, nE2, $C6, nE3, $CC
	dc.b nE2, $C6, nE3, $CC, nE2, $C6, nE3, $CC
	dc.b nE2, $C6, nE3, $CC, nE2, $C6, nE3, nE2
	dc.b $CC, nE2, $C6, nE3, $CC, nE2, $C6, nE3
	dc.b $CC, nE2, $C6, nE3, $CC, nE2, $C6, nE3
	dc.b $CC, nE2, $C6, nE3, nE2, $CC, nE2, $C6
	dc.b nE3, $CC, nE2, $C6, nE3, $CC, nE2, $C6
	dc.b nE3, $CC, nE2, $C6, nE3, $CC, nE2, $C6
	dc.b nE3, nE2, $CC, nE2, $C6, nE3, $CC, nE2
	dc.b $C6, nE3, $CC, nE2, $C6, nE3, $CC, nE2
	dc.b $C6, nE3, $CC, nE2, $C6, nE3, nE2, $CC
	dc.b nE2, $C6, nE3, $CC, nE2, $C6, nE3, $CC
	dc.b nE2, $C6, nE3, $CC, nE2, $C6, nE3, $CC
	dc.b nE2, $C6, nE3, nE2, $CC, nE2, $C6, nE3
	dc.b $CC, nE2, $C6, nE3, $CC, nE2, $C6, nE3
	dc.b $CC, nE2, $C6, nE3, $CC, nE2, $C6, nE3
	dc.b nE2, $CC, nC2, $C6, nC3, $CC, nC2, $C6
	dc.b nC3, $CC, nC2, $C6, nC3, $CC, nC2, $C6
	dc.b nC3, $CC, nC2, $C6, nC3, nC2, $CC, nC2
	dc.b $C6, nC3, $CC, nC2, $C6, nC3, $CC, nC2
	dc.b $C6, nC3, $CC, nC2, $C6, nC3, $CC, nC2
	dc.b $C6, nC3, nC2, $CC, nA1, $C6, nA2, $CC
	dc.b nA1, $C6, nA2, $CC, nA1, $C6, nA2, $CC
	dc.b nA1, $C6, nA2, $CC, nA1, $C6, nA2, nA1
	dc.b $CC, nA1, $C6, nA2, $CC, nA1, $C6, nA2
	dc.b $CC, nA1, $C6, nA2, $CC, nA1, $C6, nA2
	dc.b $CC, nA1, $C6, nA2, nA1, $CC, nE2, $C6
	dc.b nE3, $CC, nE2, $C6, nE3, $CC, nE2, $C6
	dc.b nE3, $CC, nE2, $C6, nE3, $CC, nE2, $C6
	dc.b nE3, nE2, $CC, nE2, $C6, nE3, $CC, nE2
	dc.b $C6, nE3, $CC, nE2, $C6, nE3, $CC, nE2
	dc.b $C6, nE3, $CC, nE2, $C6, nE3, nE2, $CC
	dc.b nE2, $C6, nE3, $CC, nE2, $C6, nE3, $CC
	dc.b nE2, $C6, nE3, $CC, nE2, $C6, nE3, $CC
	dc.b nE2, $C6, nE3, nE2, $CC, nE2, $C6, nE3
	dc.b $CC, nE2, $C6, nE3, $CC, nE2, $C6, nE3
	dc.b $CC, nE2, $C6, nE3, $CC, nE2, $C6, nE3
	dc.b nE2, $CC, nE2, $C6, nE3, $CC, nE2, $C6
	dc.b nE3, $CC, nE2, $C6, nE3, $CC, nE2, $C6
	dc.b nE3, $CC, nE2, $C6, nE3, nE2, $CC, nE2
	dc.b $C6, nE3, $CC, nE2, $C6, nE3, $CC, nE2
	dc.b $C6, nE3, $CC, nE2, $C6, nE3, $CC, nE2
	dc.b $C6, nE3, nE2, $CC, nE2, $C6, nE3, $CC
	dc.b nE2, $C6, nE3, $CC, nE2, $C6, nE3, $CC
	dc.b nE2, $C6, nE3, $CC, nE2, $C6, nE3, nE2
	dc.b $CC, nE2, $C6, nE3, $CC, nE2, $C6, nE3
	dc.b $CC, nE2, $C6, nE3, $CC, nE2, $C6, nE3
	dc.b $CC, nE2, $C6, nE3, nE2, $CC, nFs2, $C6
	dc.b nFs3, $CC, nFs2, $C6, nFs3, $CC, nFs2, $C6
	dc.b nFs3, $CC, nFs2, $C6, nFs3, $CC, nFs2, $C6
	dc.b nFs3, nFs2, $CC, nFs2, $C6, nFs3, $CC, nFs2
	dc.b $C6, nFs3, $CC, nFs2, $C6, nFs3, $CC, nFs2
	dc.b $C6, nFs3, $CC, nFs2, $C6, nFs3, nFs2, $CC
	dc.b nFs2, $C6, nFs3, $CC, nFs2, $C6, nFs3, $CC
	dc.b nFs2, $C6, nFs3, $CC, nFs2, $C6, nFs3, $CC
	dc.b nFs2, $C6, nFs3, nFs2, $CC, nFs2, $C6, nFs3
	dc.b $CC, nFs2, $C6, nFs3, $CC, nFs2, $C6, nFs3
	dc.b $CC, nFs2, $C6, nFs3, $CC, nFs2, $C6, nFs3
	dc.b nFs2, $CC, nFs2, $C6, nFs3, $CC, nFs2, $C6
	dc.b nFs3, $CC, nFs2, $C6, nFs3, $CC, nFs2, $C6
	dc.b nFs3, $CC, nFs2, $C6, nFs3, nFs2, $CC, nFs2
	dc.b $C6, nFs3, $CC, nFs2, $C6, nFs3, $CC, nFs2
	dc.b $C6, nFs3, $CC, nFs2, $C6, nFs3, $CC, nFs2
	dc.b $C6, nFs3, nFs2, $CC, nFs2, $C6, nFs3, $CC
	dc.b nFs2, $C6, nFs3, $CC, nFs2, $C6, nFs3, $CC
	dc.b nFs2, $C6, nFs3, $CC, nFs2, $C6, nFs3, nFs2
	dc.b $CC, nFs2, $C6, nFs3, $CC, nFs2, $C6, nFs3
	dc.b $CC, nFs2, $C6, nFs3, $CC, nFs2, $C6, nFs3
	dc.b $CC, nFs2, $C6, nFs3, nFs2, $CC, nD2, $C6
	dc.b nD3, $CC, nD2, $C6, nD3, $CC, nD2, $C6
	dc.b nD3, $CC, nD2, $C6, nD3, $CC, nD2, $C6
	dc.b nD3, nD2, $CC, nD2, $C6, nD3, $CC, nD2
	dc.b $C6, nD3, $CC, nD2, $C6, nD3, $CC, nD2
	dc.b $C6, nD3, $CC, nD2, $C6, nD3, nD2, $CC
	dc.b nB1, $C6, nB2, $CC, nB1, $C6, nB2, $CC
	dc.b nB1, $C6, nB2, $CC, nB1, $C6, nB2, $CC
	dc.b nB1, $C6, nB2, nB1, $CC, nB1, $C6, nB2
	dc.b $CC, nB1, $C6, nB2, $CC, nB1, $C6, nB2
	dc.b $CC, nB1, $C6, nB2, $CC, nB1, $C6, nB2
	dc.b nB1, $CC, nFs2, $C6, nFs3, $CC, nFs2, $C6
	dc.b nFs3, $CC, nFs2, $C6, nFs3, $CC, nFs2, $C6
	dc.b nFs3, $CC, nFs2, $C6, nFs3, nFs2, $CC, nFs2
	dc.b $C6, nFs3, $CC, nFs2, $C6, nFs3, $CC, nFs2
	dc.b $C6, nFs3, $CC, nFs2, $C6, nFs3, $CC, nFs2
	dc.b $C6, nFs3, nFs2, $CC, nFs2, $C6, nFs3, $CC
	dc.b nFs2, $C6, nFs3, $CC, nFs2, $C6, nFs3, $CC
	dc.b nFs2, $C6, nFs3, $CC, nFs2, $C6, nFs3, nFs2
	dc.b $CC, nFs2, $C6, nFs3, $CC, nFs2, $C6, nFs3
	dc.b $CC, nFs2, $C6, nFs3, $CC, nFs2, $C6, nFs3
	dc.b $CC, nFs2, $C6, nFs3, $85, nFs2, $C0
	gLoopEnd
	gStop

.0E_03	gLoopStart
	dc.b $CC, $C6
	gNop
	dc.b $C0
	gsPatch		$1C
	gsVolume	$04
	dc.b $86, $C6, nE3, $CC, nE2, $C6, nE3, $CC
	dc.b nE2, $C6, nE3, $CC, nE2, $C6, nE3, $CC
	dc.b nE2, $C6, nE3, nE2, $C4, $EC, nE2, $C6
	dc.b nE3, $CC, nE2, $C6, nE3, $CC, nE2, $C6
	dc.b nE3, $CC, nE2, $C6, nE3, $CC, nE2, $C6
	dc.b nE3, nE2, $C4, $E6, nE2, $CC, nC3, nC2
	dc.b $C6, nC3, $CC, nC2, $C6, nC3, $CC, nC2
	dc.b $C6, nC3, $CC, nC2, $C6, nC3, nC2, $C4
	dc.b $EC, nC2, $C6, nE3, $CC, nE2, $C6, nE3
	dc.b $CC, nE2, $C6, nE3, $CC, nE2, $C6, nE3
	dc.b $CC, nE2, $C6, nE3, nE2, $C4, $E6, nE2
	dc.b $CC, nE3, nE2, $C6, nE3, $CC, nE2, $C6
	dc.b nE3, $CC, nE2, $C6, nE3, $CC, nE2, $C6
	dc.b nE3, nE2, $C4, $EC, nE2, $C6, nFs3, $CC
	dc.b nFs2, $C6, nFs3, $CC, nFs2, $C6, nFs3, $CC
	dc.b nFs2, $C6, nFs3, $CC, nFs2, $C6, nFs3, nFs2
	dc.b $C4, $EC, nFs2, $C6, nFs3, $CC, nFs2, $C6
	dc.b nFs3, $CC, nFs2, $C6, nFs3, $CC, nFs2, $C6
	dc.b nFs3, $CC, nFs2, $C6, nFs3, nFs2, $C4, $E6
	dc.b nFs2, $CC, nD3, nD2, $C6, nD3, $CC, nD2
	dc.b $C6, nD3, $CC, nD2, $C6, nD3, $CC, nD2
	dc.b $C6, nD3, nD2, $C4, $E6, nD2, $CC, nFs3
	dc.b nFs2, $C6, nFs3, $CC, nFs2, $C6, nFs3, $CC
	dc.b nFs2, $C6, nFs3, $CC, nFs2, $C6, nFs3, nFs2
	dc.b $C4, $E6, nFs2, $C0
	gLoopEnd
	gStop

.0E_04	gLoopStart
	dc.b $CD, $E0
	gNop
	dc.b $C0
	gsPatch		$1D
	gsVolume	$02
	dc.b $86, nE3, $C1
	gPitBend	$00A4
	gPitBend	$0338
	dc.b $C3
	gPitBend	$03FE
	dc.b $C0
	gPitBend	$02D6
	dc.b $C1
	gPitBend	$018C
	gPitBend	$00C6
	gPitBend	$0042
	dc.b $C4
	gPitBend	$0000
	dc.b $CC, nE2, $C6, nE3, $CC, nE2, $C6, nE3
	dc.b $CC, nE2, $C6, nE3, $CC, nE2, $C6, nE3
	dc.b nE2, $C1, $E6, nE2, $CC, nE3, $C2, nE2
	dc.b $C1
	gPitBend	$01EE
	gPitBend	$03DE
	dc.b $C3
	gPitBend	$03FE
	dc.b $C0
	gPitBend	$0318
	dc.b $C1
	gPitBend	$01AC
	gPitBend	$00C6
	gPitBend	$0042
	dc.b $C2
	gPitBend	$0000
	dc.b $C6, nE3, $CC, nE2, $C6, nE3, $CC, nE2
	dc.b $C6, nE3, $CC, nE2, $C6, nE3, nE2, $C1
	dc.b $E6, nE2, $C0, nE3, $C1
	gPitBend	$00A4
	gPitBend	$0338
	dc.b $C3
	gPitBend	$03FE
	dc.b $C0
	gPitBend	$02D6
	dc.b $C1
	gPitBend	$018C
	gPitBend	$00C6
	gPitBend	$0042
	dc.b $C4
	gPitBend	$0000
	dc.b $CC, nE2, $C6, nE3, $CC, nE2, $C6, nE3
	dc.b $CC, nE2, $C6, nE3, $CC, nE2, $C6, nE3
	dc.b nE2, $C1, $E6, nE2, $CC, nE3, $C2, nE2
	dc.b $C1
	gPitBend	$01EE
	gPitBend	$03DE
	dc.b $C3
	gPitBend	$03FE
	dc.b $C0
	gPitBend	$0318
	dc.b $C1
	gPitBend	$01AC
	gPitBend	$00C6
	gPitBend	$0042
	dc.b $C2
	gPitBend	$0000
	dc.b $C6, nE3, $CC, nE2, $C6, nE3, $CC, nE2
	dc.b $C6, nE3, $CC, nE2, $C6, nE3, nE2, $C1
	dc.b $E6, nE2, $C0, nC3, $C1
	gPitBend	$0338
	dc.b $C2
	gPitBend	$03FE
	dc.b $C1
	gPitBend	$037A
	gPitBend	$01EE
	dc.b $C0
	gPitBend	$00E6
	dc.b $C1
	gPitBend	$0042
	dc.b $C6
	gPitBend	$0000
	dc.b $CC, nC2, $C6, nC3, $CC, nC2, $C6, nC3
	dc.b $CC, nC2, $C6, nC3, $CC, nC2, $C6, nC3
	dc.b nC2, $C1, $E6, nC2, $CC, nA2, $C0, nA1
	dc.b $C1
	gPitBend	$0084
	gPitBend	$0338
	dc.b $C2
	gPitBend	$03FE
	dc.b $C0
	gPitBend	$03DE
	dc.b $C1
	gPitBend	$0294
	gPitBend	$014A
	gPitBend	$0084
	dc.b $C0
	gPitBend	$0020
	dc.b $C5
	gPitBend	$0000
	dc.b $C6, nA2, $CC, nA1, $C6, nA2, $CC, nA1
	dc.b $C6, nA2, $CC, nA1, $C6, nA2, nA1, $C1
	dc.b $E6, nA1, $C0, nE3, $C1
	gPitBend	$00A4
	gPitBend	$0338
	dc.b $C3
	gPitBend	$03FE
	dc.b $C0
	gPitBend	$02D6
	dc.b $C1
	gPitBend	$018C
	gPitBend	$00C6
	gPitBend	$0042
	dc.b $C4
	gPitBend	$0000
	dc.b $CC, nE2, $C6, nE3, $CC, nE2, $C6, nE3
	dc.b $CC, nE2, $C6, nE3, $CC, nE2, $C6, nE3
	dc.b nE2, $C1, $E6, nE2, $CC, nE3, $C2, nE2
	dc.b $C1
	gPitBend	$01EE
	gPitBend	$03DE
	dc.b $C3
	gPitBend	$03FE
	dc.b $C0
	gPitBend	$0318
	dc.b $C1
	gPitBend	$01AC
	gPitBend	$00C6
	gPitBend	$0042
	dc.b $C2
	gPitBend	$0000
	dc.b $C6, nE3, $CC, nE2, $C6, nE3, $CC, nE2
	dc.b $C6, nE3, $CC, nE2, $C6, nE3, nE2, $C1
	dc.b $E6, nE2, $CC, nE3, nE2, $C6, nE3, $CC
	dc.b nE2, $C6, nE3, $CC, nE2, $C6, nE3, $CC
	dc.b nE2, $C6, nE3, nE2, $C1, $E6, nE2, $CC
	dc.b nE3, nE2, $C6, nE3, $CC, nE2, $C6, nE3
	dc.b $CC, nE2, $C6, nE3, $CC, nE2, $C6, nE3
	dc.b nE2, $C1, $E6, nE2, $C0, nFs3, $C1
	gPitBend	$00A4
	gPitBend	$0338
	dc.b $C3
	gPitBend	$03FE
	dc.b $C0
	gPitBend	$02D6
	dc.b $C1
	gPitBend	$018C
	gPitBend	$00C6
	gPitBend	$0042
	dc.b $C4
	gPitBend	$0000
	dc.b $CC, nFs2, $C6, nFs3, $CC, nFs2, $C6, nFs3
	dc.b $CC, nFs2, $C6, nFs3, $CC, nFs2, $C6, nFs3
	dc.b nFs2, $C1, $E6, nFs2, $CC, nFs3, $C2, nFs2
	dc.b $C1
	gPitBend	$01EE
	gPitBend	$03DE
	dc.b $C3
	gPitBend	$03FE
	dc.b $C0
	gPitBend	$0318
	dc.b $C1
	gPitBend	$01AC
	gPitBend	$00C6
	gPitBend	$0042
	dc.b $C2
	gPitBend	$0000
	dc.b $C6, nFs3, $CC, nFs2, $C6, nFs3, $CC, nFs2
	dc.b $C6, nFs3, $CC, nFs2, $C6, nFs3, nFs2, $C1
	dc.b $E6, nFs2, $C0, nFs3, $C1
	gPitBend	$00A4
	gPitBend	$0338
	dc.b $C3
	gPitBend	$03FE
	dc.b $C0
	gPitBend	$02D6
	dc.b $C1
	gPitBend	$018C
	gPitBend	$00C6
	gPitBend	$0042
	dc.b $C4
	gPitBend	$0000
	dc.b $CC, nFs2, $C6, nFs3, $CC, nFs2, $C6, nFs3
	dc.b $CC, nFs2, $C6, nFs3, $CC, nFs2, $C6, nFs3
	dc.b nFs2, $C1, $E6, nFs2, $CC, nFs3, $C2, nFs2
	dc.b $C1
	gPitBend	$01EE
	gPitBend	$03DE
	dc.b $C3
	gPitBend	$03FE
	dc.b $C0
	gPitBend	$0318
	dc.b $C1
	gPitBend	$01AC
	gPitBend	$00C6
	gPitBend	$0042
	dc.b $C2
	gPitBend	$0000
	dc.b $C6, nFs3, $CC, nFs2, $C6, nFs3, $CC, nFs2
	dc.b $C6, nFs3, $CC, nFs2, $C6, nFs3, nFs2, $C1
	dc.b $E6, nFs2, $C0, nD3, $C1
	gPitBend	$0338
	dc.b $C2
	gPitBend	$03FE
	dc.b $C1
	gPitBend	$037A
	gPitBend	$01EE
	dc.b $C0
	gPitBend	$00E6
	dc.b $C1
	gPitBend	$0042
	dc.b $C6
	gPitBend	$0000
	dc.b $CC, nD2, $C6, nD3, $CC, nD2, $C6, nD3
	dc.b $CC, nD2, $C6, nD3, $CC, nD2, $C6, nD3
	dc.b nD2, $C1, $E6, nD2, $CC, nB2, $C0, nB1
	dc.b $C1
	gPitBend	$0084
	gPitBend	$0338
	dc.b $C2
	gPitBend	$03FE
	dc.b $C0
	gPitBend	$03DE
	dc.b $C1
	gPitBend	$0294
	gPitBend	$014A
	gPitBend	$0084
	dc.b $C0
	gPitBend	$0020
	dc.b $C5
	gPitBend	$0000
	dc.b $C6, nB2, $CC, nB1, $C6, nB2, $CC, nB1
	dc.b $C6, nB2, $CC, nB1, $C6, nB2, nB1, $C1
	dc.b $E6, nB1, $C0, nFs3, $C1
	gPitBend	$0338
	dc.b $C2
	gPitBend	$03FE
	dc.b $C1
	gPitBend	$037A
	gPitBend	$01EE
	dc.b $C0
	gPitBend	$00E6
	dc.b $C1
	gPitBend	$0042
	dc.b $C6
	gPitBend	$0000
	dc.b $CC, nFs2, $C6, nFs3, $CC, nFs2, $C6, nFs3
	dc.b $CC, nFs2, $C6, nFs3, $CC, nFs2, $C6, nFs3
	dc.b nFs2, $C1, $E6, nFs2, $CC, nFs3, $C0, nFs2
	dc.b $C1
	gPitBend	$0084
	gPitBend	$0338
	dc.b $C2
	gPitBend	$03FE
	dc.b $C0
	gPitBend	$03DE
	dc.b $C1
	gPitBend	$0294
	gPitBend	$014A
	gPitBend	$0084
	dc.b $C0
	gPitBend	$0020
	dc.b $C5
	gPitBend	$0000
	dc.b $C6, nFs3, $CC, nFs2, $C6, nFs3, $CC, nFs2
	dc.b $C6, nFs3, $CC, nFs2, $C6, nFs3, nFs2, $85
	dc.b nFs2, $C0
	gLoopEnd
	gStop

.0E_05	gLoopStart
	dc.b $CF, $C0
	gNop
	dc.b $C0
	gsPatch		$1B
	gsVolume	$06
	dc.b $86, $CC, nE3, $C0, nE2
	gPitBend	$01EE
	dc.b $C1
	gPitBend	$03DE
	dc.b $C5
	gPitBend	$03FE
	dc.b $C1
	gPitBend	$035A
	gPitBend	$01EE
	gPitBend	$00E6
	gPitBend	$0062
	dc.b $C2
	gPitBend	$0000
	dc.b $C6, nE3, $CC, nE2, $C6, nE3, $CC, nE2
	dc.b $C6, nE3, $CC, nE2, $C6, nE3, nE2, $C4
	dc.b $E6, nE2, $CC, nE3, nE2, $C6, nE3, $CC
	dc.b nE2, $C6, nE3, $CB, nE2, $C1
	gPitBend	$0294
	dc.b $C0, nE3, $C5
	gPitBend	$03FE
	dc.b $C1
	gPitBend	$037A
	dc.b $C0, nE2, $C1
	gPitBend	$0210
	gPitBend	$0108
	gPitBend	$0084
	dc.b $C0
	gPitBend	$0020
	dc.b $C9
	gPitBend	$0000
	dc.b $C6, nE3, nE2, $C4, $E6, nE2, $CC, nA2
	dc.b nA1, $C6, nA2, $CC, nA1, $C6, nA2, $CC
	dc.b nA1, $C6, nA2, $CC, nA1, $C6, nA2, nA1
	dc.b $C4, $E6, nA1, $CC, nE3, nE2, $C6, nE3
	dc.b $CC, nE2, $C6, nE3, $CC, nE2, $C6, nE3
	dc.b $C9, nE2, $C1
	gPitBend	$0318
	dc.b $C2
	gPitBend	$03FE
	dc.b nE3, $C0
	gPitBend	$0338
	dc.b $C1
	gPitBend	$01EE
	gPitBend	$0108
	gPitBend	$0062
	gPitBend	$0020
	dc.b $C0, nE2, $C6
	gPitBend	$0000
	dc.b $C4, $E6, nE2, $CC, nE3, nE2, $C6, nE3
	dc.b $CC, nE2, $C6, nE3, $CC, nE2, $C6, nE3
	dc.b $CC, nE2, $C6, nE3, nE2, $C4, $E6, nE2
	dc.b $CC, nFs3, nFs2, $C6, nFs3, $CC, nFs2, $C6
	dc.b nFs3, $C9, nFs2, $C1
	gPitBend	$0042
	gPitBend	$02F6
	gPitBend	$03FE
	dc.b $C5, nFs3, $C0
	gPitBend	$02B4
	dc.b $C1
	gPitBend	$016A
	dc.b $C0, nFs2, $C1
	gPitBend	$00A4
	gPitBend	$0020
	dc.b $CA
	gPitBend	$0000
	dc.b $C6, nFs3, nFs2, $C4, $E6, nFs2, $CC, nFs3
	dc.b nFs2, $C6, nFs3, $CC, nFs2, $C6, nFs3, $CC
	dc.b nFs2, $C6, nFs3, $CC, nFs2, $C1, nFs3
	gPitBend	$00E6
	gPitBend	$037A
	dc.b $C3
	gPitBend	$03FE
	dc.b $C0, nFs2, $C1
	gPitBend	$02B4
	gPitBend	$0210
	gPitBend	$0128
	dc.b $C0
	gPitBend	$0084
	dc.b $C1
	gPitBend	$0020
	dc.b $C2
	gPitBend	$0000
	dc.b $C4, $E6, nFs2, $CC, nB2, nB1, $C6, nB2
	dc.b $CC, nB1, $C6, nB2, $CC, nB1, $C2, nB2
	dc.b $C0
	gPitBend	$0210
	dc.b $C4
	gPitBend	$03FE
	dc.b $C1, nB1, $C0
	gPitBend	$035A
	dc.b $C1
	gPitBend	$01CE
	gPitBend	$00C6
	gPitBend	$0042
	dc.b $C8
	gPitBend	$0000
	dc.b $C6, nB2, nB1, $C4, $E6, nB1, $CC, nFs3
	dc.b nFs2, $C6, nFs3, $CC, nFs2, $C6, nFs3, $CA
	dc.b nFs2, $C1
	gPitBend	$0042
	gPitBend	$0318
	dc.b $C0, nFs3, $C5
	gPitBend	$03FE
	dc.b $C0
	gPitBend	$02F6
	dc.b $C1
	gPitBend	$018C
	dc.b $C0, nFs2, $C1
	gPitBend	$00A4
	gPitBend	$0042
	dc.b $CA
	gPitBend	$0000
	dc.b $C6, nFs3, nFs2, $C1, $E6, nFs2, $C0
	gLoopEnd
	gStop

.0E_06	gLoopStart
	dc.b $CC, $CC
	gNop
	dc.b $C0
	gsPatch		$48
	gsVolume	$13
	dc.b $83, $D8, nB4, nB4, nB4, nB4, nB4, nB4
	dc.b nB4, nB4, nB4, nB4, nB4, nB4, nB4, nB4
	dc.b nB4, nB4, nB4, nB4, nB4, nB4, nB4, nB4
	dc.b nB4, nB4, nB4, nB4, nB4, nB4, nB4, nB4
	dc.b nB4, nB4, nB3, nB3, nB3, nB3, nB3, nB3
	dc.b nB3, nB3, nB3, nB3, nB3, nB3, nB3, nB3
	dc.b nB3, nB3, nB4, nB4, nB4, nB4, nB4, nB4
	dc.b nB4, nB4, nB4, nB4, nB4, nB4, nB4, nB4
	dc.b nB4, $C6, $D8, nB4, $D8, nCs5, nCs5, nCs5
	dc.b nCs5, nCs5, nCs5, nCs5, nCs5, nCs5, nCs5, nCs5
	dc.b nCs5, nCs5, nCs5, nCs5, $C6, $D8, nCs5, $D8
	dc.b nCs4, nCs4, nCs4, nCs4, nCs4, nCs4, nCs4, nCs4
	dc.b nCs4, nCs4, nCs4, nCs4, nCs4, nCs4, nCs4, nCs4
	dc.b nCs5, nCs5, nCs5, nCs5, nCs5, nCs5, nCs5, nCs5
	dc.b nCs5, nCs5, nCs5, nCs5, nCs5, nCs5, nCs5, $CC
	dc.b nCs5, $C0
	gLoopEnd
	gStop

.0F_00	dc.b $C0
	gsTempo		100
	gLoopStart
	dc.b $C7, $E0
	gNop
	dc.b $C0
	gsPatch		$1D
	gsVolume	$0C
	dc.b $85, $C6, nD1, nD2, nD3, nD1, nD2, nD3
	dc.b nD1, nD2, nD1, nD2, nD3, nD1, nEb2, nEb3
	dc.b nD1, nEb2, nD1, nD2, nD3, nD1, nD2, nD3
	dc.b nD1, nD2, nD1, nD2, nD3, nD1, nC2, nC3
	dc.b nD1, nC2, nD1, nD2, nD3, nD1, nD2, nD3
	dc.b nD1, nD2, nD1, nD2, nD3, nD1, nEb2, nEb3
	dc.b nD1, nEb2, nD1, nD2, nD3, nD1, nD2, nD3
	dc.b nD1, nD2, nD1, nD2, nD3, nD1, nG2, nG3
	dc.b nD1, nEb2, nD1, nD2, nD3, nD1, nD2, nD3
	dc.b nD1, nD2, nD1, nD2, nD3, nD1, nEb2, nEb3
	dc.b nD1, nEb2, nD1, nD2, nD3, nD1, nD2, nD3
	dc.b nD1, nD2, nD1, nD2, nD3, nD1, nC2, nC3
	dc.b nD1, nC2, nD1, nD2, nD3, nD1, nD2, nD3
	dc.b nD1, nD2, nD1, nD2, nD3, nD1, nEb2, nEb3
	dc.b nD1, nEb2, nD1, nD2, nD3, nD1, nD2, nD3
	dc.b nD1, nD2, nD1, nD2, nD3, nD1, nG2, nG3
	dc.b nD1, nEb2, nG1, nG2, nG3, nG1, nG2, nG3
	dc.b nG1, nG2, nG1, nG2, nG3, nG1, nAb2, nAb3
	dc.b nG1, nAb2, nG1, nG2, nG3, nG1, nG2, nG3
	dc.b nG1, nG2, nG1, nG2, nG3, nG1, nF2, nF3
	dc.b nG1, nF2, nG1, nG2, nG3, nG1, nG2, nG3
	dc.b nG1, nG2, nG1, nG2, nG3, nG1, nAb2, nAb3
	dc.b nG1, nAb2, nG1, nG2, nG3, nG1, nG2, nG3
	dc.b nG1, nG2, nG1, nG2, nG3, nG1, nC3, nC4
	dc.b nG1, nAb2, nG1, nG2, nG3, nG1, nG2, nG3
	dc.b nG1, nG2, nG1, nG2, nG3, nG1, nAb2, nAb3
	dc.b nG1, nAb2, nG1, nG2, nG3, nG1, nG2, nG3
	dc.b nG1, nG2, nG1, nG2, nG3, nG1, nF2, nF3
	dc.b nG1, nF2, nBb1, nBb2, nBb3, nBb1, nBb2, nBb3
	dc.b nBb1, nBb2, nBb1, nBb2, nBb3, nBb1, nB2, nB3
	dc.b nBb1, nB2, nG1, nG2, nG3, nG1, nG2, nG3
	dc.b nG1, nG2, nG1, nG2, nG3, nG1, nC3, nC4
	dc.b nG1, nAb2, nD1, nD2, nD3, nD1, nD2, nD3
	dc.b nD1, nD2, nD1, nD2, nD3, nD1, nEb2, nEb3
	dc.b nD1, nEb2, nD1, nD2, nD3, nD1, nD2, nD3
	dc.b nD1, nD2, nD1, nD2, nD3, nD1, nC2, nC3
	dc.b nD1, nC2, nD1, nD2, nD3, nD1, nD2, nD3
	dc.b nD1, nD2, nD1, nD2, nD3, nD1, nEb2, nEb3
	dc.b nD1, nEb2, nD1, nD2, nD3, nD1, nD2, nD3
	dc.b nD1, nD2, nD1, nD2, nD3, nD1, nG2, nG3
	dc.b nD1, $C6, $C6, nEb2, $C6, nD1, nD2, nD3
	dc.b nD1, nD2, nD3, nD1, nD2, nD1, nD2, nD3
	dc.b nD1, nEb2, nEb3, nD1, nEb2, nD1, nD2, nD3
	dc.b nD1, nD2, nD3, nD1, nD2, nD1, nD2, nD3
	dc.b nD1, nC2, nC3, nD1, nC2, nD1, nD2, nD3
	dc.b nD1, nD2, nD3, nD1, nD2, nD1, nD2, nD3
	dc.b nD1, nEb2, nEb3, nD1, nEb2, nD1, nD2, nD3
	dc.b nD1, nD2, nD3, nD1, nD2, nD1, nD2, nD3
	dc.b nD1, nG2, nG3, nD1, nEb2, nD1, nD2, nD3
	dc.b nD1, nD2, nD3, nD1, nD2, nD1, nD2, nD3
	dc.b nD1, nEb2, nEb3, nD1, nEb2, nD1, nD2, nD3
	dc.b nD1, nD2, nD3, nD1, nD2, nD1, nD2, nD3
	dc.b nD1, nC2, nC3, nD1, nC2, nD1, nD2, nD3
	dc.b nD1, nD2, nD3, nD1, nD2, nD1, nD2, nD3
	dc.b nD1, nEb2, nEb3, nD1, nEb2, nD1, nD2, nD3
	dc.b nD1, nD2, nD3, nD1, nD2, nD1, nD2, nD3
	dc.b nD1, nG2, nG3, nD1, nEb2, $C0
	gLoopEnd
	gStop

.0F_01	gLoopStart
	dc.b $C5, $E8
	gNop
	dc.b $C0
	gsPatch		$6A
	gsVolume	$14
	dc.b $82, $C3, $C0, nD6, nD6, nD6, nD6, $C9
	dc.b $C0, nD6, $C3, $C0, nD6, nD6, nD6, nD6
	dc.b nD6, $C6, $C0, nD6, nD6, $C1, $F8, nD6
	dc.b $C0
	gLoopEnd
	gStop

.0F_02	gLoopStart
	dc.b $C3, $D8
	gNop
	dc.b $C0
	gsPatch		$6B
	gsVolume	$1B
	dc.b $8F, $D2, nD4, $84, $C2, $EE, nD4, $8F
	dc.b $D2, nD4, $84, $C2, $EE, nD4, $8D, $D2
	dc.b nD4, $86, $C2, $EE, nD4, $8F, $D2, nD4
	dc.b $84, $C2, $EE, nD4, $8F, $D2, nD4, $84
	dc.b $C2, $EE, nD4, $8F, $D2, nD4, $84, $C2
	dc.b $EE, nD4, $8F, $D2, nD4, $84, $C2, $EE
	dc.b nD4, $8F, $D2, nD4, $84, $C2, $EE, nD4
	dc.b $8F, $D2, nD4, $84, $C2, $EE, nD4, $8F
	dc.b $D2, nD4, $84, $C2, $EE, nD4, $8D, $D2
	dc.b nD4, $86, $C2, $EE, nD4, $8F, $D2, nD4
	dc.b $84, $C2, $EE, nD4, $8F, $D2, nD4, $84
	dc.b $C2, $EE, nD4, $8F, $D2, nD4, $84, $C2
	dc.b $EE, nD4, $8D, $D2, nD4, $86, $C2, $EE
	dc.b nD4, $8F, $D2, nD4, $84, $C2, $EE, nD4
	dc.b $8F, $D2, nD4, $84, $C2, $EE, nD4, $8F
	dc.b $D2, nD4, $84, $F6, nD4, $C0
	gLoopEnd
	gStop

.0F_03	gLoopStart
	dc.b $C4, $E0
	gNop
	dc.b $C0
	gsPatch		$52
	gsVolume	$10
	dc.b $81, $9E, $C3, $D8, nD2, $8B, $D2, nD2
	dc.b $C1, $CE, nD2, $8D, $C1, $E0, nD2, $8B
	dc.b $D2, nD2, $C1, $CE, nD2, $8D, $C7, $C8
	dc.b nD2, $AA, $F0, nG2, $8D, $C2, $D0, nG2
	dc.b $AB, $F0, nG2, $8E, $C8, $E8, nG2, $8B
	dc.b $D2, nD2, $C1, $CE, nD2, $8D, $C1, $E0
	dc.b nD2, $8B, $D2, nD2, $C1, $CE, nD2, $8D
	dc.b $D3, $C8, nD2, $C0
	gLoopEnd
	gStop

.0F_04	gLoopStart
	dc.b $F0
	gNop
	dc.b $C0
	gsPatch		$72
	gsVolume	$1A
	dc.b $AC, $C6, $F0, nD4, $AA, $C3, $C0, nD2
	dc.b $B0, $D8, $C0, nD2, $AC, $C6, $C0, nD2
	dc.b $B0, $CF, $C0, nD2, $C0
	gLoopEnd
	gStop

.0F_05	gLoopStart
	dc.b $C1, $E0
	gNop
	dc.b $C0
	gsPatch		$1E
	gsVolume	$10
	dc.b $84, $C6, nD3, nG4, nD5, nD3, nF4, nC5
	dc.b nD3, nG4, nD5, nD3, nF4, nC5, nD3, nD5
	dc.b nA5, nA4, nD3, nG4, nD5, nD3, nF4, nC5
	dc.b nD3, nG4, nD5, nD3, nF4, nA4, nD3, nC4
	dc.b nD4, nD5, nD3, nG4, nD5, nD3, nF4, nC5
	dc.b nD3, nG4, nD5, nD3, nF4, nC5, nD3, nD5
	dc.b nA5, nA4, nD3, nG4, nD5, nD3, nF4, nC5
	dc.b nD3, nG4, nD5, nD3, nF4, nA4, nD3, nC4
	dc.b nD4, $C6, $C6, nD5, $C6, nD3, nG4, nD5
	dc.b nD3, nF4, nC5, nD3, nG4, nD5, nD3, nF4
	dc.b nC5, nD3, nD5, nA5, nA4, nD3, nG4, nD5
	dc.b nD3, nF4, nC5, nD3, nG4, nD5, nD3, nF4
	dc.b nA4, nD3, nC4, nD4, nD5, nD3, nG4, nD5
	dc.b nD3, nF4, nC5, nD3, nG4, nD5, nD3, nF4
	dc.b nC5, nD3, nD5, nA5, nA4, nD3, nG4, nD5
	dc.b nD3, nF4, nC5, nD3, nG4, nD5, nD3, nF4
	dc.b nA4, nD3, nC4, nD4, $C6, $C6, nD5, $C6
	dc.b nG4, nC6, nG6, nG4, nBb5, nF6, nG4, nC6
	dc.b nG6, nG4, nBb5, nF6, nG4, nG6, nD7, nD6
	dc.b nG4, nC6, nG6, nG4, nBb5, nF6, nG4, nC6
	dc.b nG6, nG4, nBb5, nD6, nG4, nF5, nG5, nG6
	dc.b nG4, nC6, nG6, nG4, nBb5, nF6, nG4, nC6
	dc.b nG6, nG4, nBb5, nF6, nG4, nG6, nD7, nD6
	dc.b nG4, nC6, nG6, nG4, nBb5, nF6, nG4, nC6
	dc.b nG6, nG4, nBb5, nD6, nG4, nF5, nG5, $C6
	dc.b $C6, nG6, $C6, nD3, nG4, nD5, nD3, nF4
	dc.b nC5, nD3, nG4, nD5, nD3, nF4, nC5, nD3
	dc.b nD5, nA5, nA4, nD3, nG4, nD5, nD3, nF4
	dc.b nC5, nD3, nG4, nD5, nD3, nF4, nA4, nD3
	dc.b nC4, nD4, nD5, nD3, nG4, nD5, nD3, nF4
	dc.b nC5, nD3, nG4, nD5, nD3, nF4, nC5, nD3
	dc.b nD5, nA5, nA4, nD3, nG4, nD5, nD3, nF4
	dc.b nC5, nD3, nG4, nD5, nD3, nF4, nA4, nD3
	dc.b nC4, nD4, $C6, $C6, nD5, $C6, nD3, nG4
	dc.b nD5, nD3, nF4, nC5, nD3, nG4, nD5, nD3
	dc.b nF4, nC5, nD3, nD5, nA5, nA4, nD3, nG4
	dc.b nD5, nD3, nF4, nC5, nD3, nG4, nD5, nD3
	dc.b nF4, nA4, nD3, nC4, nD4, nD5, nD3, nG4
	dc.b nD5, nD3, nF4, nC5, nD3, nG4, nD5, nD3
	dc.b nF4, nC5, nD3, nD5, nA5, nA4, nD3, nG4
	dc.b nD5, nD3, nF4, nC5, nD3, nG4, nD5, nD3
	dc.b nF4, nA4, nD3, nC4, nD4, nD5, $C0
	gLoopEnd
	gStop

.0F_06	gLoopStart
	dc.b $C1, $E6
	gNop
	dc.b $C0
	gsPatch		$20
	gsVolume	$13
	dc.b $84, $C6, nD3, nG4, nD5, nD3, nF4, nC5
	dc.b nD3, nG4, nD5, nD3, nF4, nC5, nD3, nD5
	dc.b nA5, nA4, nD3, nG4, nD5, nD3, nF4, nC5
	dc.b nD3, nG4, nD5, nD3, nF4, nA4, nD3, nC4
	dc.b nD4, nD5, nD3, nG4, nD5, nD3, nF4, nC5
	dc.b nD3, nG4, nD5, nD3, nF4, nC5, nD3, nD5
	dc.b nA5, nA4, nD3, nG4, nD5, nD3, nF4, nC5
	dc.b nD3, nG4, nD5, nD3, nF4, nA4, nD3, nC4
	dc.b $C6, $CC, nD4, $C6, nD3, nG4, nD5, nD3
	dc.b nF4, nC5, nD3, nG4, nD5, nD3, nF4, nC5
	dc.b nD3, nD5, nA5, nA4, nD3, nG4, nD5, nD3
	dc.b nF4, nC5, nD3, nG4, nD5, nD3, nF4, nA4
	dc.b nD3, nC4, nD4, nD5, nD3, nG4, nD5, nD3
	dc.b nF4, nC5, nD3, nG4, nD5, nD3, nF4, nC5
	dc.b nD3, nD5, nA5, nA4, nD3, nG4, nD5, nD3
	dc.b nF4, nC5, nD3, nG4, nD5, nD3, nF4, nA4
	dc.b nD3, nC4, $C6, $D2, nD4, $C6, nG3, nC5
	dc.b nG5, nG3, nBb4, nF5, nG3, nC5, nG5, nG3
	dc.b nBb4, nF5, nG3, nG5, nD6, nD5, nG3, nC5
	dc.b nG5, nG3, nBb4, nF5, nG3, nC5, nG5, nG3
	dc.b nBb4, nD5, nG3, nF4, nG4, nG5, nG3, nC5
	dc.b nG5, nG3, nBb4, nF5, nG3, nC5, nG5, nG3
	dc.b nBb4, nF5, nG3, nG5, nD6, nD5, nG3, nC5
	dc.b nG5, nG3, nBb4, nF5, nG3, nC5, nG5, nG3
	dc.b nBb4, nD5, nG3, $C6, $CC, nF4, $C6, nD3
	dc.b nG4, nD5, nD3, nF4, nC5, nD3, nG4, nD5
	dc.b nD3, nF4, nC5, nD3, nD5, nA5, nA4, nD3
	dc.b nG4, nD5, nD3, nF4, nC5, nD3, nG4, nD5
	dc.b nD3, nF4, nA4, nD3, nC4, nD4, nD5, nD3
	dc.b nG4, nD5, nD3, nF4, nC5, nD3, nG4, nD5
	dc.b nD3, nF4, nC5, nD3, nD5, nA5, nA4, nD3
	dc.b nG4, nD5, nD3, nF4, nC5, nD3, nG4, nD5
	dc.b nD3, nF4, nA4, nD3, nC4, $C6, $CC, nD4
	dc.b $C6, nD3, nG4, nD5, nD3, nF4, nC5, nD3
	dc.b nG4, nD5, nD3, nF4, nC5, nD3, nD5, nA5
	dc.b nA4, nD3, nG4, nD5, nD3, nF4, nC5, nD3
	dc.b nG4, nD5, nD3, nF4, nA4, nD3, nC4, nD4
	dc.b nD5, nD3, nG4, nD5, nD3, nF4, nC5, nD3
	dc.b nG4, nD5, nD3, nF4, nC5, nD3, nD5, nA5
	dc.b nA4, nD3, nG4, nD5, nD3, nF4, nC5, nD3
	dc.b nG4, nD5, nD3, nF4, nA4, nD3, nC4, nD4
	dc.b $C0
	gLoopEnd
	gStop

.0F_07	gLoopStart
	dc.b $C0
	gNop
	gsPatch		$67
	gsVolume	$1C
	dc.b $81, $A0, $EB, $EC, nD1, $A7, $C3, $C0
	dc.b nD2, nD2, nD2, $C2, $F4, nD2, $C0
	gLoopEnd
	gStop

.0F_08	gLoopStart
	dc.b $D3, $E0
	gNop
	dc.b $C0
	gsPatch		$64
	gsVolume	$1C
	dc.b $81, $87, $C1, $C8, nG4, $98, $D8, nAb4
	dc.b $86, $C1, $E0, nG4, $81, $87, $C1, $C8
	dc.b nG4, $98, $D8, nF4, $83, $DF, $E0, nD4
	dc.b $C0
	gLoopEnd
	gStop

.0F_09	gLoopStart
	dc.b $D3, $F2
	gNop
	dc.b $C0
	gsPatch		$69
	gsVolume	$20
	dc.b $81, $87, $C1, $C8, nG4, $98, $D8, nAb4
	dc.b $86, $C1, $E0, nG4, $81, $87, $C1, $C8
	dc.b nG4, $98, $D8, nF4, $83, $DF, $CE, nD4
	dc.b $C0
	gLoopEnd
	gStop

.13_00	dc.b $C0
	gSFX
	gsVolume	$09
	gsPatch		$35
	dc.b $8A, $CA, nFs0
	gStop

.14_00	dc.b $C0
	gsPrio		$7E
	gStopSeq	$16
	gSFX
	gsVolume	$08
	gsPatch		$35
	gsEnv		$10
	dc.b $96, $D7, nAb2, $C0
	gsVolume	$05
	gsPatch		$6B
	dc.b $97, $D7, nB3
	gStop

.15_00	dc.b $C0
	gsPrio		$7C
	gSFX
	gsVolume	$1F
	gsPatch		$67
	dc.b $98, $98, $D8, $D8, nFs3
	gStop

.16_00	dc.b $C0
	gsPrio		$7C
	gSFX
	gsVolume	$16
	gsPatch		$2D
	gsEnv		$06
	gRetrig
	dc.b nRst, $8B, $90, $CB, $D0, nAb2
	gStop

.16_01	dc.b $D8
	gNop
	dc.b $C0
	gsVolume	$1B
	gsPatch		$2D
	dc.b $87, $A0, $C7, $E0, nAb2
	gStop

.17_00	dc.b $C0
	gsPrio		$79
	gSFX
	gsVolume	$07
	gsPatch		$0C
	dc.b $82, $C2, nFs6, nBb6, nCs7
	gStop

.19_00	dc.b $C0
	gsPrio		$77
	gSFX
	gsVolume	$01
	gsPatch		$44
	gsEnv		$01
	gRetrig
	dc.b nRst, $88, $C9, nB3
	gLoopStart	$04
	dc.b $C0
	gNop
	gsVolume	$00
	gsPatch		$12
	dc.b $81, $C5, nB3, $C0
	gLoopEnd
	gStop

.1A_00	dc.b $C0
	gsPrio		$76
	gSFX
	gsPatch		$7F
	dc.b $92, $D2, nE4
	gStop

.1B_00	dc.b $C0
	gsPrio		$7A
	gSFX
	gsPatch		$7F
	gsSampleRate	$05
	dc.b $A5, $E5, nC5
	gStop

.1C_00	dc.b $C0
	gsPrio		$77
	gSFX
	gsVolume	$02
	gsPatch		$35
	dc.b $84, $C5, nFs1, $C0
	gsVolume	$08
	gsPatch		$03
	gsEnv		$03
	gRetrig
	dc.b nRst, $87, $C7, nFs4
	gStop

.1D_00	dc.b $C0
	gsPrio		$77
	gSFX
	gLoopStart	$05
	dc.b $C0
	gNop
	gsVolume	$00
	gsPatch		$7A
	dc.b $82, $C3, nEb2, $C0
	gLoopEnd
	gStop

.1D_01	gLoopStart	$03
	dc.b $C0
	gNop
	gsVolume	$02
	gsPatch		$14
	dc.b $83, $C4, nEb2, $C0
	gLoopEnd
	gStop

.1E_00	dc.b $C0
	gsPrio		$79
	gSFX
	gsVolume	$07
	gsPatch		$4F
	gsEnv		$01
	gRetrig
	dc.b nRst, $8E, $CE, nCs3
	gStop

.1E_01	dc.b $C0
	gsPatch		$50
	dc.b $89, $C9, nB3
	gStop

.20_00	dc.b $C0
	gsPrio		$76
	gSFX
	gsVolume	$04
	gsPatch		$62
	dc.b $83, $C4, nC2, $C0
	gsPatch		$7F
	gsSampleRate	$09
	dc.b $8D, $CD, nEb4
	gStop

.20_01	dc.b $C0
	gsVolume	$00
	gsPatch		$01
	dc.b $8A, $CA, nE2
	gStop

.21_00	dc.b $C0
	gsPrio		$7E
	gSFX
	gsPatch		$7F
	gsSampleRate	$05
	dc.b $89, $CA, nC5, $C0
	gsPatch		$7F
	gsSampleRate	$0A
	dc.b $B1, $F1, nFs5
	gStop

.23_00	dc.b $C0
	gsPrio		$76
	gSFX
	gsVolume	$09
	gsPatch		$01
	dc.b $83, $C4, nCs2, $C0
	gsVolume	$0B
	gsPatch		$03
	dc.b $85, $C5, nBb2
	gStop

.23_01	dc.b $C0
	gsVolume	$13
	gsPatch		$40
	gsEnv		$03
	gRetrig
	dc.b nRst, $85, $C5, nBb5
	gStop

.24_00	dc.b $C0
	gsPrio		$7E
	gSFX
	gsPatch		$7F
	gsSampleRate	$07
	dc.b $8A, $CB, nC5, $C0
	gsPatch		$7F
	gsSampleRate	$0A
	dc.b $9E, $DE, nAb4
	gStop

.25_00	dc.b $C0
	gsPrio		$7A
	gSFX
	gsVolume	$04
	gsPatch		$3D
	dc.b $89, $C1, nB2, $C0
	gsVolume	$09
	gsPatch		$03
	gsEnv		$03
	gRetrig
	dc.b nRst, $8D, $CD, nAb0
	gStop

.26_00	dc.b $C0
	gsPrio		$73
	gSFX
	gsPatch		$47
	gsEnv		$07
	dc.b $C2
	gRetrig
	dc.b nRst, $84, $C4, nAb3
	gStop

.26_01	dc.b $C0
	gSFX
	gLoopStart	$03
	dc.b $C0
	gNop
	dc.b $C3
	gsVolume	$07
	dc.b $C0
	gsPatch		$45
	dc.b $81, $C1, nA3, $C0
	gLoopEnd
	gStop

.26_02	dc.b $C0
	gSFX
	gsVolume	$07
	gLoopStart	$03
	dc.b $C4
	gNop
	dc.b $C0
	gsPatch		$76
	dc.b $87, $C1, nB3, $C6
	gLoopEnd
	gStop

.28_00	dc.b $C0
	gsPrio		$7F
	gSFX
	gsPatch		$7F
	gsSampleRate	$05
	dc.b $89, $CA, nC5, $C0
	gsPatch		$7F
	dc.b $B3, $F3, nFs5
	gStop

.28_01	dc.b $C2
	gNop
	dc.b $C0
	gsVolume	$04
	gsPatch		$24
	gsEnv		$10
	gRetrig
	dc.b nRst, $A3, $E3, nEb5
	gStop

.2B_00	dc.b $C0
	gsPrio		$77
	gSFX
	gsVolume	$00
	gsPatch		$1A
	dc.b $8E, $CF, nB3, $C0
	gsVolume	$0E
	gsPatch		$6B
	dc.b $8C, $CC, nB3
	gStop

.2D_00	dc.b $C0
	gsPrio		$7D
	gSFX
	gsVolume	$02
	gsPatch		$68
	dc.b $88, $C9, nAb1, $C0
	gsPatch		$7F
	gsSampleRate	$0A
	dc.b $AC, $EC, nCs5
	gStop

.2E_00	dc.b $C0
	gSFX
	gsPatch		$7F
	dc.b $AD, $ED, nCs5
	gStop

.2F_00	dc.b $C0
	gsPrio		$77
	gSFX
	gsVolume	$03
	gsPatch		$06
	gsEnv		$11
	gRetrig
	dc.b nRst, $8B, $CB, nFs3
	gStop

.30_00	dc.b $C0
	gsPrio		$78
	gSFX
	gsVolume	$02
	gsPatch		$06
	gsEnv		$03
	gRetrig
	dc.b nRst, $8C, $CD, nB3, $C0
	gsVolume	$1D
	gsPatch		$1A
	gsEnv		$00
	gRetrig
	dc.b nRst, $8E, $CE, nB3
	gStop

.33_00	dc.b $C0
	gsPrio		$7E
	gSFX
	gLoopStart
	dc.b $C0
	gNop
	gsPatch		$5A
	gsVolume	$05
	dc.b $83, $B0, $C3, $C0, nB4, $F0
	gLoopEnd
	gStop

.34_00	dc.b $C0
	gsPrio		$7E
	gSFX
	gLoopStart
	dc.b $C0
	gNop
	gsVolume	$18
	gsPatch		$65
	dc.b $81, $8A, $A8, $C1, $CA, $E8, nCs2, $C0
	gLoopEnd
	gStop

.34_01	gLoopStart
	dc.b $C0
	gNop
	gsVolume	$06
	gsPatch		$13
	dc.b $82, $C3, nFs1, $C0
	gLoopEnd
	gStop

.35_00	dc.b $C0
	gSFX
	gsVolume	$00
	gsPatch		$43
	gsEnv		$00
	gRetrig
	dc.b nRst, $89, $C9, nB3
	gStop

.36_00	dc.b $C0
	gSFX
	gsVolume	$00
	gLoopStart
	dc.b $C0
	gNop
	gsPatch		$2C
	gsEnv		$08
	gRetrig
	dc.b nRst, $86, $CE, nA3, $C0
	gsPatch		$2C
	gsEnv		$09
	gRetrig
	dc.b nRst, $C1, nAb3, $C5
	gLoopEnd
	gStop

.37_00	dc.b $C0
	gsPrio		$7D
	gSFX
	gsSampleRate	$05
	gsPatch		$7F
	dc.b $A0, $E0, nC5
	gStop

.37_01	dc.b $C2
	gNop
	dc.b $C0
	gsVolume	$05
	gsPatch		$03
	gsEnv		$03
	gRetrig
	dc.b nRst, $89, $C9, nCs1
	gStop

.39_00	dc.b $C0
	gsPrio		$7A
	gSFX
	gsVolume	$09
	gLoopStart
	dc.b $C0
	gNop
	gsPatch		$13
	dc.b $82, $C5, nFs2, $C0
	gLoopEnd
	gStop

.3A_00	dc.b $C0
	gsPrio		$7A
	gSFX
	gsVolume	$1B
	gsPatch		$0A
	dc.b $92, $B0, $C2, nCs3, $C0
	gsEnv		$12
	gRetrig
	dc.b nRst
	gsPatch		$09
	dc.b $D2, $F0, nCs2
	gStop

.3B_00	dc.b $C0
	gsPrio		$77
	gSFX
	gsVolume	$01
	gsPatch		$7A
	dc.b $90, $D0, nCs3
	gStop

.3D_00	dc.b $C0
	gsPrio		$7C
	gSFX
	gsVolume	$15
	gsPatch		$73
	gsEnv		$05
	gRetrig
	dc.b nRst, $92, $B0, $D2, $F0, nAb1
	gStop

.3F_00	dc.b $C0
	gsPrio		$7A
	gSFX
	gLoopStart
	dc.b $C0
	gNop
	gsVolume	$0B
	gsPatch		$45
	dc.b $83, $C6, nAb1, $C0
	gLoopEnd
	gStop

.40_00	dc.b $C0
	gSFX
	gsVolume	$01
	gsPatch		$3D
	dc.b $82, $C3, nE3, $C0
	gsVolume	$08
	gsPatch		$04
	dc.b $8A, $CA, nAb1
	gStop

.41_00	dc.b $C0
	gSFX
	gsVolume	$05
	gsPatch		$3D
	dc.b $82, $C3, nBb2, $C0
	gsVolume	$04
	gsPatch		$62
	dc.b $87, $C7, nB3
	gStop

.42_00	dc.b $C0
	gSFX
	gsVolume	$09
	gsPatch		$46
	dc.b $82, $C1, nB3, nB3, $C2, nB3
	gStop

.45_00	dc.b $C0
	gSFX
	gLoopStart
	dc.b $C0
	gNop
	gsVolume	$00
	gsPatch		$3E
	dc.b $81, $CC, nBb5, $C1, nAb5, $C0
	gLoopEnd
	gStop

.47_00	dc.b $C0
	gsPrio		$7A
	gSFX
	gLoopStart
	dc.b $C0
	gNop
	gsVolume	$00
	gsPatch		$05
	gsEnv		$07
	gRetrig
	dc.b nRst, $86, $C5, nB2, $C1
	gLoopEnd
	gStop

.49_00	dc.b $C0
	gSFX
	gsVolume	$04
	gsPatch		$0E
	gsEnv		$00
	gRetrig
	dc.b nRst, $82, $C3, nB3, $C0
	gsPatch		$16
	dc.b $84, $C4, nB3
	gStop

.4B_00	dc.b $C0
	gSFX
	gLoopStart
	dc.b $C0
	gNop
	gsVolume	$02
	gsPatch		$5F
	dc.b $8E, $C5, nBb4, $C0
	gsPatch		$71
	dc.b $84, $FE, nB3, $C0
	gLoopEnd
	gStop

.4C_00	dc.b $C0
	gSFX
	gsVolume	$00
	gsPatch		$08
	dc.b $83, $C3, nFs1
	gStop

.4D_00	dc.b $C0
	gSFX
	gsVolume	$09
	gsPatch		$46
	gsEnv		$01
	gRetrig
	dc.b nRst, $84, $C1, nB3, nB3, $C4, nB3
	gStop

.4E_00	dc.b $C0
	gSFX
	gsVolume	$03
	gsPatch		$11
	dc.b $84, $C2, nCs2, $C0
	gsPatch		$20
	gsEnv		$03
	gRetrig
	dc.b nRst, $85, $C5, nE3
	gStop

.50_00	dc.b $C0
	gSFX
	gsVolume	$03
	gsPatch		$62
	gsEnv		$00
	gRetrig
	dc.b nRst, $87, $C7, nCs4
	gStop

.51_00	dc.b $C0
	gSFX
	gsVolume	$09
	gsPatch		$36
	gsEnv		$0D
	gRetrig
	dc.b nRst, $8A, $CA, nCs4
	gStop

.52_00	dc.b $C0
	gSFX
	gLoopStart	$06
	dc.b $C0
	gNop
	gsVolume	$04
	gsPatch		$57
	gsEnv		$03
	gRetrig
	dc.b nRst, $83, $C4, nCs2, $C0
	gLoopEnd
	gStop

.53_00	dc.b $C0
	gSFX
	gsVolume	$04
	gsPatch		$05
	gsEnv		$01
	gRetrig
	dc.b nRst, $8F, $CF, nB2
	gStop

.54_00	dc.b $C0
	gSFX
	gsVolume	$07
	gsPatch		$05
	gsEnv		$03
	gRetrig
	dc.b nRst, $8F, $CF, nB2
	gStop

.55_00	dc.b $C0
	gsPrio		$7C
	gSFX
	gLoopStart
	dc.b $C0
	gNop
	gsPatch		$5A
	gsVolume	$23
	dc.b $83, $B0, $C3, $C0, nB4, $F0
	gLoopEnd
	gStop

.56_00	dc.b $C0
	gSFX
	gsVolume	$0A
	gsPatch		$38
	dc.b $84, $C5, nB3, $C0
	gsPatch		$0D
	gsEnv		$05
	gRetrig
	dc.b nRst, $87, $C7, nB3
	gStop

.5A_00	dc.b $C0
	gsPrio		$77
	gSFX
	gsPatch		$7F
	dc.b $8C, $CC, nA5
	gStop

.5B_00	dc.b $C0
	gsPrio		$77
	gSFX
	gsPatch		$7F
	dc.b $92, $D2, nBb5
	gStop

.5C_00	dc.b $C0
	gsPrio		$77
	gSFX
	gsPatch		$7F
	dc.b $92, $D2, nG5
	gStop

.5D_00	dc.b $C0
	gsPrio		$78
	gSFX
	gsPatch		$7F
	dc.b $98, $D8, nF5
	gStop

.5E_00	dc.b $C0
	gsPrio		$79
	gSFX
	gsPatch		$7F
	dc.b $97, $D7, nE5
	gStop

.5F_00	dc.b $C0
	gsPrio		$78
	gSFX
	gsPatch		$7F
	dc.b $A1, $E1, nEb5
	gStop

.60_00	dc.b $C0
	gsPrio		$77
	gSFX
	gsPatch		$7F
	gsSampleRate	$06
	dc.b $AA, $EA, nG4
	gStop

.61_00	dc.b $C0
	gsPrio		$77
	gSFX
	gsPatch		$7F
	dc.b $9C, $DC, nAb5
	gStop

.62_00	dc.b $C0
	gsPrio		$78
	gSFX
	gsPatch		$7F
	dc.b $B0, $F0, nD4
	gStop

.63_00	dc.b $C0
	gsPrio		$7A
	gSFX
	gsPatch		$7F
	dc.b $BE, $FE, nB3
	gStop

.64_00	dc.b $C0
	gsPrio		$77
	gSFX
	gsPatch		$7F
	gsSampleRate	$05
	dc.b $8B, $CB, nA5
	gStop

.65_00	dc.b $C0
	gsPrio		$77
	gSFX
	gsPatch		$7F
	gsSampleRate	$0A
	dc.b $96, $D6, nBb5
	gStop

.66_00	dc.b $C0
	gsPrio		$77
	gSFX
	gsPatch		$7F
	gsSampleRate	$0A
	dc.b $98, $D8, nG5
	gStop

.67_00	dc.b $C0
	gsPrio		$7C
	gSFX
	gsVolume	$18
	gsPatch		$73
	gsEnv		$04
	gRetrig
	dc.b nRst, $A0, $E0, nEb1
	gStop

.68_00	dc.b $C0
	gsPrio		$79
	gSFX
	gsPatch		$7F
	gsSampleRate	$0A
	dc.b $9D, $C6, nA4, $C0
	gsSampleRate	$07
	dc.b $B1, $F1, nA4
	gStop

.69_00	dc.b $C0
	gsPrio		$7F
	gSFX
	gsPatch		$7F
	gsSampleRate	$08
	dc.b $86, $C7, nFs4, $C0
	gsPatch		$7F
	dc.b $AB, $EB, nBb4
	gStop

.6A_00	dc.b $C0
	gsPrio		$7D
	gSFX
	gsPatch		$7F
	gsSampleRate	$05
	dc.b $98, $D8, nB4
	gStop

.70_00	dc.b $C0
	gsPrio		$7B
	gSFX
	gsVolume	$09
	gsPatch		$26
	dc.b $83, $C4, nCs5, nB4, nAb4, nAb3, nAb4, nB4
	dc.b $C3, nCs5
	gStop

.71_00	dc.b $C0
	gsPrio		$7B
	gSFX
	gsVolume	$07
	gsPatch		$29
	dc.b $83, $C4, nAb6, nAb5, nAb4, nAb3, $C3, nAb6
	gStop

.72_00	dc.b $C0
	gsPrio		$7B
	gSFX
	gsVolume	$06
	gsPatch		$30
	dc.b $83, $C4, nFs3, nG3, nAb3, nA3, nAb3, nG3
	dc.b nFs3, $C3, nFs4
	gStop

.73_00	dc.b $C0
	gsPrio		$7B
	gSFX
	gsVolume	$00
	gsPatch		$0A
	dc.b $83, $C4, nE5, nE6, $C0
	gsPatch		$09
	dc.b $C4, nB4, $85, $C5, nB5
	gStop

.74_00	dc.b $C0
	gsPrio		$7B
	gSFX
	gsPatch		$57
	gsVolume	$00
	dc.b $86, $C6, nCs3
	gStop

.75_00	dc.b $C0
	gsPrio		$7B
	gSFX
	gsVolume	$04
	gsPatch		$2A
	dc.b $83, $C2, nEb3, $C0
	gsPatch		$2B
	dc.b $C3, nBb3
	gStop

.76_00	dc.b $C0
	gsPrio		$7F
	gSFX
	gsPatch		$7F
	gsSampleRate	$07
	dc.b $82, $C3, nFs4, $C0
	gsSampleRate	$05
	dc.b $A9, $E9, nFs4
	gStop

.77_00	dc.b $C0
	gsPrio		$7A
	gSFX
	gsVolume	$04
	gsPatch		$3D
	dc.b $84, $C5, nE2, $C0
	gsPatch		$6A
	dc.b $82, $C2, nFs4
	gStop

.78_00	dc.b $C0
	gsPrio		$7F
	gSFX
	gsPatch		$7F
	gsSampleRate	$05
	dc.b $89, $CA, nFs4, $C0
	gsSampleRate	$08
	dc.b $A9, $E9, nFs4
	gStop

.79_00	dc.b $C0
	gsPrio		$7B
	gSFX
	gsVolume	$06
	gsPatch		$33
	dc.b $82, $C3, nB4, nE5, nFs5, $C0
	gsPatch		$32
	dc.b $C3, nB5, nFs5, nE5, $C2, nB4
	gStop

.7A_00	dc.b $C0
	gsPrio		$7B
	gSFX
	gsVolume	$04
	gsPatch		$2A
	dc.b $82, $C3, nE4, nFs4, nA4, $C1, nB4, $C0
	gsPatch		$2B
	dc.b $C3
	gsVolume	$0A
	dc.b nE4, nFs4, $C1, nA4, $C2, nB4
	gStop

.7B_00	dc.b $C0
	gsPrio		$7B
	gSFX
	gsVolume	$0A
	gsPatch		$53
	dc.b $82, $C4, nCs5, nE5, nAb5, nB5, nEb6, nFs6
	dc.b $C2, nFs7
	gStop

.7B_01	dc.b $C0
	gsVolume	$0B
	gsPatch		$0D
	dc.b $82, $C4, nE5, nAb5, nB5, nEb6, $C2, nFs6
	gStop

.7C_00	dc.b $C0
	gsPrio		$7B
	gSFX
	gsVolume	$05
	gsPatch		$39
	dc.b $82, $C3, nFs5, nB5, $83, nE6
	gStop

.7C_01	dc.b $C5
	gNop
	dc.b $C0
	gsPatch		$3A
	gsVolume	$11
	dc.b $83, $C2, nFs5, nB5, $C3, nE6
	gStop

.7D_00	dc.b $C0
	gsPrio		$7B
	gSFX
	gsVolume	$00
	gsPatch		$6C
	dc.b $82, $C3, nE5, nE5, nF5, nF5, nFs5, nFs5
	dc.b $84, $C4, nG5
	gStop
