	gSetOffset
	gOffset .00
	gOffset .01
	gOffset .02
	gOffset .03
	gOffset .04
	gOffset .05
	gOffset .06
	gOffset .07
	gOffset .08
	gOffset .09
	gOffset .0A
	gOffset .0B
	gOffset .0C
	gOffset .0D
	gOffset .0E
	gOffset .0F
	gOffset .10
	gOffset .11
	gOffset .12
	gOffset .13
	gOffset .14
	gOffset .15
	gOffset .16
	gOffset .17
	gOffset .18
	gOffset .19
	gOffset .1A
	gOffset .1B
	gOffset .1C
	gOffset .1D
	gOffset .1E
	gOffset .1F
	gOffset .20
	gOffset .21
	gOffset .22
	gOffset .23
	gOffset .24
	gOffset .25
	gOffset .26
	gOffset .27
	gOffset .28
	gOffset .29
	gOffset .2A
	gOffset .2B
	gOffset .2C
	gOffset .2D
	gOffset .2E
	gOffset .2F
	gOffset .30
	gOffset .31
	gOffset .32
	gOffset .33
	gOffset .34
	gOffset .35
	gOffset .36
	gOffset .37
	gOffset .38
	gOffset .39
	gOffset .3A
	gOffset .3B
	gOffset .3C
	gOffset .3D
	gOffset .3E
	gOffset .3F
	gOffset .40
	gOffset .41
	gOffset .42
	gOffset .43
	gOffset .44
	gOffset .45
	gOffset .46
	gOffset .47
	gOffset .48
	gOffset .49
	gOffset .4A
	gOffset .4B
	gOffset .4C
	gOffset .4D
	gOffset .4E
	gOffset .4F
	gOffset .50
	gOffset .51
	gOffset .52
	gOffset .53
	gOffset .54
	gOffset .55
	gOffset .56
	gOffset .57
	gOffset .58
	gOffset .59
	gOffset .5A
	gOffset .5B
	gOffset .5C
	gOffset .5D
	gOffset .5E
	gOffset .5F
	gOffset .60
	gOffset .61
	gOffset .62
	gOffset .63
	gOffset .64
	gOffset .65
	gOffset .66
	gOffset .67
	gOffset .68
	gOffset .69
	gOffset .6A
	gOffset .6B
	gOffset .6C
	gOffset .6D
	gOffset .6E
	gOffset .6F
	gOffset .70
	gOffset .71
	gOffset .72
	gOffset .73
	gOffset .74
	gOffset .75
	gOffset .76
	gOffset .77
	gOffset .78
	gOffset .79
	gOffset .7A
	gOffset .7B
	gOffset .7C
	gOffset .7D

.00	dc.b $0A
	gChannel .00_00
	gChannel .00_01
	gChannel .00_02
	gChannel .00_03
	gChannel .00_04
	gChannel .00_05
	gChannel .00_06
	gChannel .00_07
	gChannel .00_08
	gChannel .00_09

.01	dc.b $00

.02	dc.b $09
	gChannel .02_00
	gChannel .02_01
	gChannel .02_02
	gChannel .02_03
	gChannel .02_04
	gChannel .02_05
	gChannel .02_06
	gChannel .02_07
	gChannel .02_08

.03	dc.b $00

.04	dc.b $0B
	gChannel .04_00
	gChannel .04_01
	gChannel .04_02
	gChannel .04_03
	gChannel .04_04
	gChannel .04_05
	gChannel .04_06
	gChannel .04_07
	gChannel .04_08
	gChannel .04_09
	gChannel .04_0A

.05	dc.b $00

.06	dc.b $00

.07	dc.b $08
	gChannel .07_00
	gChannel .07_01
	gChannel .07_02
	gChannel .07_03
	gChannel .07_04
	gChannel .07_05
	gChannel .07_06
	gChannel .07_07

.08	dc.b $06
	gChannel .08_00
	gChannel .08_01
	gChannel .08_02
	gChannel .08_03
	gChannel .08_04
	gChannel .08_05

.09	dc.b $09
	gChannel .09_00
	gChannel .09_01
	gChannel .09_02
	gChannel .09_03
	gChannel .09_04
	gChannel .09_05
	gChannel .09_06
	gChannel .09_07
	gChannel .09_08

.0A	dc.b $00

.0B	dc.b $09
	gChannel .0B_00
	gChannel .0B_01
	gChannel .0B_02
	gChannel .0B_03
	gChannel .0B_04
	gChannel .0B_05
	gChannel .0B_06
	gChannel .0B_07
	gChannel .0B_08

.0C	dc.b $00

.0D	dc.b $00

.0E	dc.b $05
	gChannel .0E_00
	gChannel .0E_01
	gChannel .0E_02
	gChannel .0E_03
	gChannel .0E_04

.0F	dc.b $00

.10	dc.b $08
	gChannel .10_00
	gChannel .10_01
	gChannel .10_02
	gChannel .10_03
	gChannel .10_04
	gChannel .10_05
	gChannel .10_06
	gChannel .10_07

.11	dc.b $06
	gChannel .11_00
	gChannel .11_01
	gChannel .11_02
	gChannel .11_03
	gChannel .11_04
	gChannel .11_05

.12	dc.b $04
	gChannel .12_00
	gChannel .12_01
	gChannel .12_02
	gChannel .12_03

.13	dc.b $06
	gChannel .13_00
	gChannel .13_01
	gChannel .13_02
	gChannel .13_03
	gChannel .13_04
	gChannel .13_05

.14	dc.b $03
	gChannel .14_00
	gChannel .14_01
	gChannel .14_02

.15	dc.b $06
	gChannel .15_00
	gChannel .15_01
	gChannel .15_02
	gChannel .15_03
	gChannel .15_04
	gChannel .15_05

.16	dc.b $0E
	gChannel .16_00
	gChannel .16_01
	gChannel .16_02
	gChannel .16_03
	gChannel .16_04
	gChannel .16_05
	gChannel .16_06
	gChannel .16_07
	gChannel .16_08
	gChannel .16_09
	gChannel .16_0A
	gChannel .16_0B
	gChannel .16_0C
	gChannel .16_0D

.17	dc.b $06
	gChannel .17_00
	gChannel .17_01
	gChannel .17_02
	gChannel .17_03
	gChannel .17_04
	gChannel .17_05

.18	dc.b $00

.19	dc.b $00

.1A	dc.b $00

.1B	dc.b $00

.1C	dc.b $00

.1D	dc.b $00

.1E	dc.b $00

.1F	dc.b $00

.20	dc.b $00

.21	dc.b $03
	gChannel .21_00
	gChannel .21_01
	gChannel .21_02

.22	dc.b $02
	gChannel .22_00
	gChannel .22_01

.23	dc.b $00

.24	dc.b $00

.25	dc.b $01
	gChannel .25_00

.26	dc.b $03
	gChannel .26_00
	gChannel .26_01
	gChannel .26_02

.27	dc.b $01
	gChannel .27_00

.28	dc.b $0C
	gChannel .28_00
	gChannel .28_01
	gChannel .28_02
	gChannel .28_03
	gChannel .28_04
	gChannel .28_05
	gChannel .28_06
	gChannel .28_07
	gChannel .28_08
	gChannel .28_09
	gChannel .28_0A
	gChannel .28_0B

.29	dc.b $04
	gChannel .29_00
	gChannel .29_01
	gChannel .29_02
	gChannel .29_03

.2A	dc.b $02
	gChannel .2A_00
	gChannel .2A_01

.2B	dc.b $01
	gChannel .2B_00

.2C	dc.b $01
	gChannel .2C_00

.2D	dc.b $01
	gChannel .2D_00

.2E	dc.b $01
	gChannel .2E_00

.2F	dc.b $03
	gChannel .2F_00
	gChannel .2F_01
	gChannel .2F_02

.30	dc.b $04
	gChannel .30_00
	gChannel .30_01
	gChannel .30_02
	gChannel .30_03

.31	dc.b $01
	gChannel .31_00

.32	dc.b $00

.33	dc.b $01
	gChannel .33_00

.34	dc.b $02
	gChannel .34_00
	gChannel .34_01

.35	dc.b $02
	gChannel .35_00
	gChannel .35_01

.36	dc.b $04
	gChannel .36_00
	gChannel .36_01
	gChannel .36_02
	gChannel .36_03

.37	dc.b $01
	gChannel .37_00

.38	dc.b $02
	gChannel .38_00
	gChannel .38_01

.39	dc.b $01
	gChannel .39_00

.3A	dc.b $04
	gChannel .3A_00
	gChannel .3A_01
	gChannel .3A_02
	gChannel .3A_03

.3B	dc.b $01
	gChannel .3B_00

.3C	dc.b $02
	gChannel .3C_00
	gChannel .3C_01

.3D	dc.b $00

.3E	dc.b $02
	gChannel .3E_00
	gChannel .3E_01

.3F	dc.b $01
	gChannel .3F_00

.40	dc.b $01
	gChannel .40_00

.41	dc.b $01
	gChannel .41_00

.42	dc.b $00

.43	dc.b $00

.44	dc.b $00

.45	dc.b $01
	gChannel .45_00

.46	dc.b $00

.47	dc.b $00

.48	dc.b $00

.49	dc.b $01
	gChannel .49_00

.4A	dc.b $01
	gChannel .4A_00

.4B	dc.b $01
	gChannel .4B_00

.4C	dc.b $01
	gChannel .4C_00

.4D	dc.b $01
	gChannel .4D_00

.4E	dc.b $01
	gChannel .4E_00

.4F	dc.b $00

.50	dc.b $03
	gChannel .50_00
	gChannel .50_01
	gChannel .50_02

.51	dc.b $00

.52	dc.b $00

.53	dc.b $01
	gChannel .53_00

.54	dc.b $01
	gChannel .54_00

.55	dc.b $00

.56	dc.b $00

.57	dc.b $00

.58	dc.b $01
	gChannel .58_00

.59	dc.b $00

.5A	dc.b $00

.5B	dc.b $01
	gChannel .5B_00

.5C	dc.b $01
	gChannel .5C_00

.5D	dc.b $03
	gChannel .5D_00
	gChannel .5D_01
	gChannel .5D_02

.5E	dc.b $01
	gChannel .5E_00

.5F	dc.b $01
	gChannel .5F_00

.60	dc.b $01
	gChannel .60_00

.61	dc.b $01
	gChannel .61_00

.62	dc.b $01
	gChannel .62_00

.63	dc.b $02
	gChannel .63_00
	gChannel .63_01

.64	dc.b $00

.65	dc.b $01
	gChannel .65_00

.66	dc.b $01
	gChannel .66_00

.67	dc.b $01
	gChannel .67_00

.68	dc.b $01
	gChannel .68_00

.69	dc.b $01
	gChannel .69_00

.6A	dc.b $02
	gChannel .6A_00
	gChannel .6A_01

.6B	dc.b $03
	gChannel .6B_00
	gChannel .6B_01
	gChannel .6B_02

.6C	dc.b $00

.6D	dc.b $02
	gChannel .6D_00
	gChannel .6D_01

.6E	dc.b $02
	gChannel .6E_00
	gChannel .6E_01

.6F	dc.b $01
	gChannel .6F_00

.70	dc.b $02
	gChannel .70_00
	gChannel .70_01

.71	dc.b $00

.72	dc.b $00

.73	dc.b $01
	gChannel .73_00

.74	dc.b $00

.75	dc.b $01
	gChannel .75_00

.76	dc.b $01
	gChannel .76_00

.77	dc.b $01
	gChannel .77_00

.78	dc.b $02
	gChannel .78_00
	gChannel .78_01

.79	dc.b $01
	gChannel .79_00

.7A	dc.b $01
	gChannel .7A_00

.7B	dc.b $01
	gChannel .7B_00

.7C	dc.b $01
	gChannel .7C_00

.7D	dc.b $01
	gChannel .7D_00

.00_00	dc.b $C0
	gStore		$00, $00
	gsTempo		132
	gLoopStart
	dc.b $C0
	gNop
	gLoopStart	$04
	dc.b $C0
	gNop
	gsPatch		$1D
	dc.b $87, $CC, nB1, nG1, nA1, nE1, nB1, nD2
	dc.b nG1, nA1, nB1, nE1, nG1, nD2, nA1, nB1
	dc.b nCs2, nE2, nB1, nG1, nA1, nE1, nB1, nD2
	dc.b nG1, nA1, nB1, nE1, nG1, nD2, nA1, nB1
	dc.b nD2, nFs2, nB1, nG1, nA1, nE1, nB1, nD2
	dc.b nG1, nA1, nB1, nE1, nG1, nD2, nA1, nB1
	dc.b nCs2, nE2, nB1, nG1, nA1, nE1, nB1, nD2
	dc.b nG1, nA1, nB1, nE1, nG1, nD2, nA1, nB1
	dc.b nD2, nFs2, $E4, $C0
	gLoopEnd
	gLoopStart	$04
	dc.b $C0
	gNop
	gsPatch		$46
	dc.b $86, $CC, nB1, $84, $C1, nB1, $CB
	gsPatch		$47
	dc.b $CC, nFs1, $85, $C1, nFs1, $CB
	gsPatch		$48
	dc.b $84, $CC, nA1, $86, $C1, nA1, $CB
	gsPatch		$65
	dc.b $C8, nCs2, $81, $C4, nCs2, $87, $C1, nCs2
	dc.b $C7
	gsPatch		$66
	dc.b $82, $C4, nCs2, $86, $CC, nB1, $C0
	gsPatch		$67
	dc.b $CC, nB1, $84, nFs1, $85, $C1, nFs1, $CB
	gsPatch		$68
	dc.b $87, $CC, nA1, $89, $C1, nA1, $CB
	gsPatch		$69
	dc.b $87, $CC, nCs2, $88, $C1, nCs2, $C7
	gsPatch		$68
	dc.b $81, $C4, nCs2, $86, $C8, nB1, $81, $C4
	dc.b nB1, $84, $C1, nB1, $C7
	gsPatch		$67
	dc.b $81, $C4, nB1, $84, $C8, nFs1, $81, $C4
	dc.b nFs1, $85, $C1, nFs1, $C7
	gsPatch		$66
	dc.b $81, $C4, nFs1, $84, $C8, nA1, $81, $C4
	dc.b nA1, $86, $C1, nA1, $C7
	gsPatch		$65
	dc.b $81, $C4, nA1, $86, $C8, nCs2, $81, $C4
	dc.b nCs2, $87, $C1, nCs2, $C7
	gsPatch		$48
	dc.b $82, $C4, nCs2, $86, $C8, nB1, $81, $C4
	dc.b nB1, $C0
	gsPatch		$47
	dc.b $86, $C8, nB1, $81, $C4, nB1, $84, $C8
	dc.b nFs1, $81, $C4, nFs1, $85, $C1, nFs1, $C7
	gsPatch		$46
	dc.b $81, $C4, nFs1, $87, $C8, nA1, $81, $C4
	dc.b nA1, $C0
	gsPatch		$47
	dc.b $88, $C8, nA1, $81, $C4, nA1, $87, $C8
	dc.b nCs2, $81, $C4, nCs2, $88, $C8, nCs2, $81
	dc.b $C4, nCs2, $D2, $C0
	gLoopEnd
	gLoopStart	$02
	dc.b $C0
	gNop
	gsPatch		$1D
	dc.b $87, $CC, nB1, nG1, nA1, nE1, nB1, nD2
	dc.b nG1, nA1, nB1, nE1, nG1, nD2, nA1, nB1
	dc.b nCs2, nE2, nB1, nG1, nA1, nE1, nB1, nD2
	dc.b nG1, nA1, nB1, nE1, nG1, nD2, nA1, nB1
	dc.b nD2, nFs2, nB1, nG1, nA1, nE1, nB1, nD2
	dc.b nG1, nA1, nB1, nE1, nG1, nD2, nA1, nB1
	dc.b nCs2, nE2, nB1, nG1, nA1, nE1, nB1, nD2
	dc.b nG1, nA1, nB1, nE1, nG1, nD2, nA1, nB1
	dc.b nD2, nFs2, $CC, $C0
	gLoopEnd
	dc.b $C0
	gLoopEnd
	gStop

.00_01	gLoopStart
	dc.b $C0
	gNop
	gsPatch		$21
	dc.b $83, $AC, $C9, $C0, nB2, $83, $80, $C5
	dc.b $FC, nB3, $82, $BC, $C6, $C4, nB2, $83
	dc.b $80, $C3, $C0, nB3, $C0
	gsPatch		$20
	dc.b $82, $CC, nB3, $D4, nB3, $C4, nB3, $CC
	dc.b nB3, $D4, nB3, $D0, nB3, $CC, nB3, $D4
	dc.b nB3, $D0, nB3, $D4, nB3, $C4, nB3, $CC
	dc.b nB3, nB3, $C8, nB3, $83, $C4, nB3, $82
	dc.b $CC, nB3, $C8, nB3, $D0, nB3, $D4, nB3
	dc.b $D0, nB3, $CC, nB3, $C8, nB3, $D0, nB3
	dc.b $D8, nB3, $C8, nB3, $C4, nB3, $CC, nB3
	dc.b nB3, $C8, nB3, $83, $C4, nB3, $82, $C8
	dc.b nB3, $C4, nB3, $C0
	gsPatch		$20
	dc.b $CC, nB3, $D4, nB3, $C4, nB3, $CC, nB3
	dc.b $D4, nB3, $D0, nB3, $CC, nB3, $D4, nB3
	dc.b $D0, nB3, $D4, nB3, $C4, nB3, $CC, nB3
	dc.b nB3, $C8, nB3, $83, $C4, nB3, $82, $CC
	dc.b nB3, $C8, nB3, $D0, nB3, $D4, nB3, $D0
	dc.b nB3, $CC, nB3, $C8, nB3, $D0, nB3, $D8
	dc.b nB3, $C8, nB3, $C4, nB3, $CC, nB3, nB3
	dc.b $C8, nB3, $83, $C4, nB3, $82, $C8, nB3
	dc.b $85, $C6, $C4, nB3, $C0
	gsPatch		$20
	dc.b $82, $CC, nB3, $D4, nB3, $C4, nB3, $CC
	dc.b nB3, $D4, nB3, $D0, nB3, $CC, nB3, $D4
	dc.b nB3, $D0, nB3, $D4, nB3, $C4, nB3, $CC
	dc.b nB3, nB3, $C8, nB3, $83, $C4, nB3, $82
	dc.b $CC, nB3, $C8, nB3, $D0, nB3, $D4, nB3
	dc.b $D0, nB3, $CC, nB3, $C8, nB3, $D0, nB3
	dc.b $D8, nB3, $C8, nB3, $C4, nB3, $CC, nB3
	dc.b nB3, $C8, nB3, $83, $C4, nB3, $82, $C8
	dc.b nB3, $85, $D8, $C4, nB3, $C0
	gsPatch		$20
	dc.b $82, $CC, nB3, $D4, nB3, $C4, nB3, $CC
	dc.b nB3, $D4, nB3, $D0, nB3, $CC, nB3, $D4
	dc.b nB3, $D0, nB3, $D4, nB3, $C4, nB3, $CC
	dc.b nB3, nB3, $C8, nB3, $83, $C4, nB3, $82
	dc.b $CC, nB3, $C8, nB3, $D0, nB3, $D4, nB3
	dc.b $D0, nB3, $CC, nB3, $C8, nB3, $D0, nB3
	dc.b $D8, nB3, $C8, nB3, $C4, nB3, $CC, nB3
	dc.b nB3, $C8, nB3, $83, $C4, nB3, $82, $C8
	dc.b nB3, $85, $C3, $C4, nB3, $C0
	gsPatch		$21
	dc.b $83, $80, $C3, $C0, nB3, $C0
	gsPatch		$20
	dc.b $82, $CC, nB3, $D4, nB3, $C4, nB3, $CC
	dc.b nB3, $D4, nB3, $D0, nB3, $CC, nB3, $D4
	dc.b nB3, $D0, nB3, $D4, nB3, $C4, nB3, $CC
	dc.b nB3, nB3, $C8, nB3, $83, $C4, nB3, $82
	dc.b $CC, nB3, $C8, nB3, $D0, nB3, $D4, nB3
	dc.b $D0, nB3, $CC, nB3, $C8, nB3, $D0, nB3
	dc.b $D8, nB3, $C8, nB3, $C4, nB3, $CC, nB3
	dc.b nB3, $C8, nB3, $83, $C4, nB3, $82, $C8
	dc.b nB3, $C4, nB3, $C0
	gsPatch		$20
	dc.b $CC, nB3, $D4, nB3, $C4, nB3, $CC, nB3
	dc.b $D4, nB3, $D0, nB3, $CC, nB3, $D4, nB3
	dc.b $D0, nB3, $D4, nB3, $C4, nB3, $CC, nB3
	dc.b nB3, $C8, nB3, $83, $C4, nB3, $82, $CC
	dc.b nB3, $C8, nB3, $D0, nB3, $D4, nB3, $D0
	dc.b nB3, $CC, nB3, $C8, nB3, $D0, nB3, $D8
	dc.b nB3, $C8, nB3, $C4, nB3, $CC, nB3, nB3
	dc.b $C8, nB3, $83, $C4, nB3, $82, $C8, nB3
	dc.b $85, $C4, nB3, $C1
	gLoopEnd
	gStop

.00_02	gLoopStart
	dc.b $C0
	gNop
	gLoopStart	$02
	dc.b $C0
	gNop
	gsPatch		$37
	dc.b $85, $C8, nB4, $83, $C4, nB1, $8B, $CC
	dc.b nB4, $8A, nB1, $85, $C8, nB4, $84, $CC
	dc.b nB1, $83, $C4, nB1, $8B, $CC, nB4, nB1
	dc.b $86, nB4, $97, $D8, nB4, $87, $CC, nB1
	dc.b $84, $C8, nB4, $83, $CC, nB1, $82, $C4
	dc.b nB1, $8B, $CC, nB4, $C1, nB1, $CB
	gsPatch		$34
	dc.b $85, $C1, nB4, $C7
	gsPatch		$37
	dc.b $83, $C4, nB1, $C0
	gsPatch		$37
	dc.b $85, $C8, nB4, $83, $C4, nB1, $8B, $CC
	dc.b nB4, $8A, nB1, $85, $C8, nB4, $84, $CC
	dc.b nB1, $83, $C4, nB1, $8B, $CC, nB4, nB1
	dc.b $86, nB4, $97, $D8, nB4, $87, $CC, nB1
	dc.b $84, $C8, nB4, $83, $CC, nB1, $82, $C4
	dc.b nB1, $8B, $CC, nB4, $C1, nB1, $CB
	gsPatch		$34
	dc.b $85, $C8, nB4, $83, $C4, nB1, $C0
	gsPatch		$37
	dc.b $85, $C8, nB4, $83, $C4, nB1, $8B, $CC
	dc.b nB4, $8A, nB1, $85, $C8, nB4, $84, $CC
	dc.b nB1, $83, $C4, nB1, $8B, $CC, nB4, nB1
	dc.b $86, nB4, $97, $D8, nB4, $87, $CC, nB1
	dc.b $84, $C8, nB4, $83, $CC, nB1, $82, $C4
	dc.b nB1, $8B, $CC, nB4, $C1, nB1, $CB
	gsPatch		$34
	dc.b $85, $C1, nB4, $C7
	gsPatch		$37
	dc.b $83, $C4, nB1, $C0
	gsPatch		$37
	dc.b $85, $C8, nB4, $83, $C4, nB1, $8B, $CC
	dc.b nB4, $8A, nB1, $85, $C8, nB4, $84, $CC
	dc.b nB1, $83, $C4, nB1, $8B, $CC, nB4, nB1
	dc.b $86, nB4, $97, $D8, nB4, $87, $CC, nB1
	dc.b $84, $C8, nB4, $83, $CC, nB1, $82, $C4
	dc.b nB1, $8B, $CC, nB4, $C1, nB1, $CB
	gsPatch		$34
	dc.b $85, $C8, nB4, $83, $C4, nB1, $C0
	gsPatch		$53
	dc.b $C1, nRst, $C7
	gsPatch		$38
	dc.b $81, $C1, nD4, $C3
	gsPatch		$37
	dc.b $84, $C8, nE4, $82, $C1, nD4, $C3
	gsPatch		$35
	dc.b $85, $C1, nB3, $CB
	gsPatch		$38
	dc.b $84, $C8, nFs4, $82, $C4, nD4, $83, $C1
	dc.b nE4, $C7
	gsPatch		$37
	dc.b $81, $C4, nD4, $85, $C1, nB3, $CB
	gsPatch		$35
	dc.b $83, $C1, nFs4, $CB
	gsPatch		$38
	dc.b $84, $C8, nE4, $81, $C4, nD4, $84, $C1
	dc.b nFs4, $C7
	gsPatch		$37
	dc.b $81, $C4, nD4, $84, $C8, nE4, $82, $C1
	dc.b nD4, $C3
	gsPatch		$35
	dc.b $85, $C1, nB3, $CB
	gsPatch		$38
	dc.b $84, $C8, nFs4, $82, $C4, nD4, $83, $C8
	dc.b nE4, $81, $C4, nD4, $85, $C1, nB3, $CB
	gsPatch		$35
	dc.b $83, $C1, nFs4, $CB
	gsPatch		$37
	dc.b $84, $C1, nB2, $C7
	gsPatch		$2F
	dc.b $81, $C4, nA1, $84, $C1, nB1, $C7
	gsPatch		$38
	dc.b $81, $C1, nD4, $C3
	gsPatch		$37
	dc.b $84, $C8, nE4, $82, $C1, nD4, $C3
	gsPatch		$35
	dc.b $85, $C1, nB3, $CB
	gsPatch		$38
	dc.b $84, $C8, nFs4, $82, $C4, nD4, $83, $C1
	dc.b nE4, $C7
	gsPatch		$37
	dc.b $81, $C4, nD4, $85, $C1, nB3, $CB
	gsPatch		$35
	dc.b $83, $C1, nFs4, $CB
	gsPatch		$38
	dc.b $84, $C8, nE4, $81, $C4, nD4, $84, $C1
	dc.b nFs4, $C7
	gsPatch		$37
	dc.b $81, $C4, nD4, $84, $C8, nE4, $82, $C1
	dc.b nD4, $C3
	gsPatch		$35
	dc.b $85, $C1, nB3, $CB
	gsPatch		$38
	dc.b $84, $C8, nFs4, $82, $C4, nD4, $83, $C8
	dc.b nE5, $81, $C4, nD5, $85, $C1, nB4, $CB
	gsPatch		$35
	dc.b $83, $CC, nFs4, $84, $C1, nE4, $C7
	gsPatch		$11
	dc.b $81, $C4, nA0, $83, $C1, nB0, $C7
	gsPatch		$38
	dc.b $81, $C1, nD4, $C3
	gsPatch		$37
	dc.b $84, $C8, nE4, $82, $C1, nD4, $C3
	gsPatch		$35
	dc.b $85, $C1, nB3, $CB
	gsPatch		$38
	dc.b $84, $C8, nFs4, $82, $C4, nD4, $83, $C1
	dc.b nE4, $C7
	gsPatch		$37
	dc.b $81, $C4, nD4, $85, $C1, nB3, $CB
	gsPatch		$35
	dc.b $83, $C1, nFs4, $CB
	gsPatch		$38
	dc.b $84, $C8, nE4, $81, $C4, nD4, $84, $C1
	dc.b nFs4, $C7
	gsPatch		$37
	dc.b $81, $C4, nD4, $84, $C8, nE4, $82, $C1
	dc.b nD4, $C3
	gsPatch		$35
	dc.b $85, $C1, nB3, $CB
	gsPatch		$38
	dc.b $84, $C8, nFs4, $82, $C4, nD4, $83, $C8
	dc.b nE4, $81, $C4, nD4, $85, $C1, nB3, $CB
	gsPatch		$35
	dc.b $83, $C1, nFs4, $CB
	gsPatch		$37
	dc.b $84, $C1, nB2, $C7
	gsPatch		$0B
	dc.b $81, $C4, nA1, $84, $C1, nB1, $C7
	gsPatch		$38
	dc.b $81, $C1, nD4, $C3
	gsPatch		$37
	dc.b $84, $C8, nE4, $82, $C1, nD4, $C3
	gsPatch		$35
	dc.b $85, $C1, nB3, $CB
	gsPatch		$38
	dc.b $84, $C8, nFs4, $82, $C4, nD4, $83, $C1
	dc.b nE4, $C7
	gsPatch		$37
	dc.b $81, $C4, nD4, $85, $C1, nB3, $CB
	gsPatch		$35
	dc.b $83, $C1, nFs4, $CB
	gsPatch		$38
	dc.b $84, $C8, nE4, $81, $C4, nD4, $84, $C1
	dc.b nFs4, $C7
	gsPatch		$37
	dc.b $81, $C4, nD4, $84, $C8, nE4, $82, $C1
	dc.b nD4, $C3
	gsPatch		$35
	dc.b $85, $C1, nB3, $CB
	gsPatch		$38
	dc.b $84, $C8, nFs4, $82, $C4, nD4, $83, $C8
	dc.b nE5, $81, $C4, nD5, $85, $C1, nB4, $CB
	gsPatch		$35
	dc.b $83, $CC, nFs4, $84, $C1, nE4, $C7
	gsPatch		$11
	dc.b $81, $C4, nA0, $D8, $C0
	gLoopEnd
	dc.b $D7, $E8
	gsVolume	$7F
	dc.b $D8
	gsVolume	$00
	dc.b $C0
	gsPatch		$37
	dc.b $85, $C8, nB4, $83, $C4, nB1, $8B, $CC
	dc.b nB4, $8A, nB1, $85, $C8, nB4, $84, $CC
	dc.b nB1, $83, $C4, nB1, $8B, $CC, nB4, nB1
	dc.b $86, nB4, $97, $D8, nB4, $87, $CC, nB1
	dc.b $84, $C8, nB4, $83, $CC, nB1, $82, $C4
	dc.b nB1, $8B, $CC, nB4, $C1, nB1, $CB
	gsPatch		$34
	dc.b $85, $C1, nB4, $C7
	gsPatch		$37
	dc.b $83, $C4, nB1, $C0
	gsPatch		$37
	dc.b $85, $C8, nB4, $83, $C4, nB1, $8B, $CC
	dc.b nB4, $8A, nB1, $85, $C8, nB4, $84, $CC
	dc.b nB1, $83, $C4, nB1, $8B, $CC, nB4, nB1
	dc.b $86, nB4, $97, $D8, nB4, $87, $CC, nB1
	dc.b $84, $C8, nB4, $83, $CC, nB1, $82, $C4
	dc.b nB1, $8B, $CC, nB4, $C1, nB1, $CB
	gsPatch		$34
	dc.b $85, $C8, nB4, $83, $C4, nB1, $C0
	gsPatch		$37
	dc.b $85, $C8, nB4, $83, $C4, nB1, $8B, $CC
	dc.b nB4, $8A, nB1, $85, $C8, nB4, $84, $CC
	dc.b nB1, $83, $C4, nB1, $8B, $CC, nB4, nB1
	dc.b $86, nB4, $97, $D8, nB4, $87, $CC, nB1
	dc.b $84, $C8, nB4, $83, $CC, nB1, $82, $C4
	dc.b nB1, $8B, $CC, nB4, $C1, nB1, $CB
	gsPatch		$34
	dc.b $85, $C1, nB4, $C7
	gsPatch		$37
	dc.b $83, $C4, nB1, $C0
	gsPatch		$37
	dc.b $85, $C8, nB4, $83, $C4, nB1, $8B, $CC
	dc.b nB4, $8A, nB1, $85, $C8, nB4, $84, $CC
	dc.b nB1, $83, $C4, nB1, $8B, $CC, nB4, nB1
	dc.b $86, nB4, $97, $D8, nB4, $87, $CC, nB1
	dc.b $84, $C8, nB4, $83, $CC, nB1, $82, $C4
	dc.b nB1, $8B, $CC, nB4, $C1, nB1, $CB
	gsPatch		$34
	dc.b $85, $C8, nB4, $83, $C4, nB1, $C0
	gsPatch		$53
	dc.b $C1, nRst, $C7
	gsPatch		$38
	dc.b $81, $C1, nD4, $C3
	gsPatch		$37
	dc.b $84, $C8, nE4, $82, $C1, nD4, $C3
	gsPatch		$35
	dc.b $85, $C1, nB3, $CB
	gsPatch		$38
	dc.b $84, $C8, nFs4, $82, $C4, nD4, $83, $C1
	dc.b nE4, $C7
	gsPatch		$37
	dc.b $81, $C4, nD4, $85, $C1, nB3, $CB
	gsPatch		$35
	dc.b $83, $C1, nFs4, $CB
	gsPatch		$38
	dc.b $84, $C8, nE4, $81, $C4, nD4, $84, $C1
	dc.b nFs4, $C7
	gsPatch		$37
	dc.b $81, $C4, nD4, $84, $C8, nE4, $82, $C1
	dc.b nD4, $C3
	gsPatch		$35
	dc.b $85, $C1, nB3, $CB
	gsPatch		$38
	dc.b $84, $C8, nFs4, $82, $C4, nD4, $83, $C8
	dc.b nE4, $81, $C4, nD4, $85, $C1, nB3, $CB
	gsPatch		$35
	dc.b $83, $C1, nFs4, $CB
	gsPatch		$37
	dc.b $84, $C1, nB2, $C7
	gsPatch		$2F
	dc.b $81, $C4, nA1, $84, $C1, nB1, $C7
	gsPatch		$38
	dc.b $81, $C1, nD4, $C3
	gsPatch		$37
	dc.b $84, $C8, nE4, $82, $C1, nD4, $C3
	gsPatch		$35
	dc.b $85, $C1, nB3, $CB
	gsPatch		$38
	dc.b $84, $C8, nFs4, $82, $C4, nD4, $83, $C1
	dc.b nE4, $C7
	gsPatch		$37
	dc.b $81, $C4, nD4, $85, $C1, nB3, $CB
	gsPatch		$35
	dc.b $83, $C1, nFs4, $CB
	gsPatch		$38
	dc.b $84, $C8, nE4, $81, $C4, nD4, $84, $C1
	dc.b nFs4, $C7
	gsPatch		$37
	dc.b $81, $C4, nD4, $84, $C8, nE4, $82, $C1
	dc.b nD4, $C3
	gsPatch		$35
	dc.b $85, $C1, nB3, $CB
	gsPatch		$38
	dc.b $84, $C8, nFs4, $82, $C4, nD4, $83, $C8
	dc.b nE5, $81, $C4, nD5, $85, $C1, nB4, $CB
	gsPatch		$35
	dc.b $83, $CC, nFs4, $84, $C1, nE4, $C7
	gsPatch		$53
	dc.b $81, $C4, nA0, $83, $C1, nB0, $C7
	gsPatch		$38
	dc.b $81, $C1, nD4, $C3
	gsPatch		$37
	dc.b $84, $C8, nE4, $82, $C1, nD4, $C3
	gsPatch		$35
	dc.b $85, $C1, nB3, $CB
	gsPatch		$38
	dc.b $84, $C8, nFs4, $82, $C4, nD4, $83, $C1
	dc.b nE4, $C7
	gsPatch		$37
	dc.b $81, $C4, nD4, $85, $C1, nB3, $CB
	gsPatch		$35
	dc.b $83, $C1, nFs4, $CB
	gsPatch		$38
	dc.b $84, $C8, nE4, $81, $C4, nD4, $84, $C1
	dc.b nFs4, $C7
	gsPatch		$37
	dc.b $81, $C4, nD4, $84, $C8, nE4, $82, $C1
	dc.b nD4, $C3
	gsPatch		$35
	dc.b $85, $C1, nB3, $CB
	gsPatch		$38
	dc.b $84, $C8, nFs4, $82, $C4, nD4, $83, $C8
	dc.b nE4, $81, $C4, nD4, $85, $C1, nB3, $CB
	gsPatch		$35
	dc.b $83, $C1, nFs4, $CB
	gsPatch		$37
	dc.b $84, $C1, nB2, $C7
	gsPatch		$0B
	dc.b $81, $C4, nA1, $84, $C1, nB1, $C7
	gsPatch		$38
	dc.b $81, $C1, nD4, $C3
	gsPatch		$37
	dc.b $84, $C8, nE4, $82, $C1, nD4, $C3
	gsPatch		$35
	dc.b $85, $C1, nB3, $CB
	gsPatch		$38
	dc.b $84, $C8, nFs4, $82, $C4, nD4, $83, $C1
	dc.b nE4, $C7
	gsPatch		$37
	dc.b $81, $C4, nD4, $85, $C1, nB3, $CB
	gsPatch		$35
	dc.b $83, $C1, nFs4, $CB
	gsPatch		$38
	dc.b $84, $C8, nE4, $81, $C4, nD4, $84, $C1
	dc.b nFs4, $C7
	gsPatch		$37
	dc.b $81, $C4, nD4, $84, $C8, nE4, $82, $C1
	dc.b nD4, $C3
	gsPatch		$35
	dc.b $85, $C1, nB3, $CB
	gsPatch		$38
	dc.b $84, $C8, nFs4, $82, $C4, nD4, $83, $C8
	dc.b nE5, $81, $C4, nD5, $85, $C1, nB4, $CB
	gsPatch		$35
	dc.b $83, $CC, nFs4, $84, $C1, nE4, $C7
	gsPatch		$53
	dc.b $81, $C4, nA0, $C0
	gLoopEnd
	gStop

.00_03	gLoopStart
	dc.b $C0
	gNop
	gsPatch		$7A
	dc.b $86, $CC, nB3, $C8, nB3, $83, $C4, nC4
	dc.b $86, $CC, nD4, $C8, nB3, $85, $CC, nC4
	dc.b $84, $C4, nC4, $85, $CC, nB3, $87, nD4
	dc.b $85, nB3, $84, $C8, nB3, $83, $C4, nC4
	dc.b $85, $C8, nB3, $82, $C4, nC4, $87, $CC
	dc.b nD4, $85, $C8, nB3, $84, $C4, nC4, $82
	dc.b $C8, nB3, $83, $C4, nD4, $84, $C8, nB3
	dc.b $83, $C4, nC4, $86, $CC, nD4, $C8, nB3
	dc.b $83, $C4, nC4, $C0
	gsPatch		$7A
	dc.b $86, $CC, nB3, $C8, nB3, $83, $C4, nC4
	dc.b $86, $CC, nD4, $C8, nB3, $85, $CC, nC4
	dc.b $84, $C4, nC4, $85, $CC, nB3, $87, nD4
	dc.b $85, nB3, $84, $C8, nB3, $83, $C4, nC4
	dc.b $85, $C8, nB3, $82, $C4, nC4, $87, $CC
	dc.b nD4, $85, $C8, nB3, $84, $C4, nC4, $82
	dc.b $C8, nB3, $83, $C4, nD4, $84, $C8, nB3
	dc.b $83, $C4, nC4, $86, $CC, nD4, $C8, nB3
	dc.b $83, $C4, nC4, $C0
	gsPatch		$7A
	dc.b $86, $CC, nB3, $C8, nB3, $83, $C4, nC4
	dc.b $86, $CC, nD4, $C8, nB3, $85, $CC, nC4
	dc.b $84, $C4, nC4, $85, $CC, nB3, $87, nD4
	dc.b $85, nB3, $84, $C8, nB3, $83, $C4, nC4
	dc.b $85, $C8, nB3, $82, $C4, nC4, $87, $CC
	dc.b nD4, $85, $C8, nB3, $84, $C4, nC4, $82
	dc.b $C8, nB3, $83, $C4, nD4, $84, $C8, nB3
	dc.b $83, $C4, nC4, $86, $CC, nD4, $C8, nB3
	dc.b $83, $C4, nC4, $C0
	gsPatch		$7A
	dc.b $86, $CC, nB3, $C8, nB3, $83, $C4, nC4
	dc.b $86, $CC, nD4, $C8, nB3, $85, $CC, nC4
	dc.b $84, $C4, nC4, $85, $CC, nB3, $87, nD4
	dc.b $85, nB3, $84, $C8, nB3, $83, $C4, nC4
	dc.b $85, $C8, nB3, $82, $C4, nC4, $87, $CC
	dc.b nD4, $85, $C8, nB3, $84, $C4, nC4, $82
	dc.b $C8, nB3, $83, $C4, nD4, $84, $C8, nB3
	dc.b $83, $C4, nC4, $86, $CC, nD4, $C8, nB3
	dc.b $83, $C4, nC4, $86, $CC, nB3, $C8, nB3
	dc.b $83, $C4, nC4, $86, $CC, nD4, $C8, nB3
	dc.b $85, $CC, nC4, $84, $C4, nC4, $85, $CC
	dc.b nB3, $87, nD4, $85, nB3, $84, $C8, nB3
	dc.b $83, $C4, nC4, $85, $C8, nB3, $82, $C4
	dc.b nC4, $87, $CC, nD4, $85, $C8, nB3, $84
	dc.b $C4, nC4, $82, $C8, nB3, $83, $C4, nD4
	dc.b $84, $C8, nB3, $83, $C4, nC4, $86, $CC
	dc.b nD4, $C8, nB3, $83, $C4, nC4, $86, $CC
	dc.b nB3, $C8, nB3, $83, $C4, nC4, $86, $CC
	dc.b nD4, $C8, nB3, $85, $CC, nC4, $84, $C4
	dc.b nC4, $85, $CC, nB3, $87, nD4, $85, nB3
	dc.b $84, $C8, nB3, $83, $C4, nC4, $85, $C8
	dc.b nB3, $82, $C4, nC4, $87, $CC, nD4, $85
	dc.b $C8, nB3, $84, $C4, nC4, $82, $C8, nB3
	dc.b $83, $C4, nD4, $84, $C8, nB3, $83, $C4
	dc.b nC4, $86, $CC, nD4, $C8, nB3, $83, $C4
	dc.b nC4, $86, $CC, nB3, $C8, nB3, $83, $C4
	dc.b nC4, $86, $CC, nD4, $C8, nB3, $85, $CC
	dc.b nC4, $84, $C4, nC4, $85, $CC, nB3, $87
	dc.b nD4, $85, nB3, $84, $C8, nB3, $83, $C4
	dc.b nC4, $85, $C8, nB3, $82, $C4, nC4, $87
	dc.b $CC, nD4, $85, $C8, nB3, $84, $C4, nC4
	dc.b $82, $C8, nB3, $83, $C4, nD4, $84, $C8
	dc.b nB3, $83, $C4, nC4, $86, $CC, nD4, $C8
	dc.b nB3, $83, $C4, nC4, $86, $CC, nB3, $C8
	dc.b nB3, $83, $C4, nC4, $86, $CC, nD4, $C8
	dc.b nB3, $85, $CC, nC4, $84, $C4, nC4, $85
	dc.b $CC, nB3, $87, nD4, $85, nB3, $84, $C8
	dc.b nB3, $83, $C4, nC4, $85, $C8, nB3, $82
	dc.b $C4, nC4, $87, $CC, nD4, $85, $C8, nB3
	dc.b $84, $C4, nC4, $82, $C8, nB3, $83, $C4
	dc.b nD4, $84, $C8, nB3, $83, $C4, nC4, $86
	dc.b $CC, nD4, $C8, nB3, $83, $C4, nC4, $86
	dc.b $CC, nB3, $C8, nB3, $83, $C4, nC4, $86
	dc.b $CC, nD4, $C8, nB3, $85, $CC, nC4, $84
	dc.b $C4, nC4, $85, $CC, nB3, $87, nD4, $85
	dc.b nB3, $84, $C8, nB3, $83, $C4, nC4, $85
	dc.b $C8, nB3, $82, $C4, nC4, $87, $CC, nD4
	dc.b $85, $C8, nB3, $84, $C4, nC4, $82, $C8
	dc.b nB3, $83, $C4, nD4, $84, $C8, nB3, $83
	dc.b $C4, nC4, $86, $CC, nD4, $C8, nB3, $83
	dc.b $C4, nC4, $86, $CC, nB3, $C8, nB3, $83
	dc.b $C4, nC4, $86, $CC, nD4, $C8, nB3, $85
	dc.b $CC, nC4, $84, $C4, nC4, $85, $CC, nB3
	dc.b $87, nD4, $85, nB3, $84, $C8, nB3, $83
	dc.b $C4, nC4, $85, $C8, nB3, $82, $C4, nC4
	dc.b $87, $CC, nD4, $85, $C8, nB3, $84, $C4
	dc.b nC4, $82, $C8, nB3, $83, $C4, nD4, $84
	dc.b $C8, nB3, $83, $C4, nC4, $86, $CC, nD4
	dc.b $C8, nB3, $83, $C4, nC4, $86, $CC, nB3
	dc.b $C8, nB3, $83, $C4, nC4, $86, $CC, nD4
	dc.b $C8, nB3, $85, $CC, nC4, $84, $C4, nC4
	dc.b $85, $CC, nB3, $87, nD4, $85, nB3, $84
	dc.b $C8, nB3, $83, $C4, nC4, $85, $C8, nB3
	dc.b $82, $C4, nC4, $87, $CC, nD4, $85, $C8
	dc.b nB3, $84, $C4, nC4, $82, $C8, nB3, $83
	dc.b $C4, nD4, $84, $C8, nB3, $83, $C4, nC4
	dc.b $86, $CC, nD4, $C8, nB3, $83, $C4, nC4
	dc.b $86, $CC, nB3, $C8, nB3, $83, $C4, nC4
	dc.b $86, $CC, nD4, $C8, nB3, $85, $CC, nC4
	dc.b $84, $C4, nC4, $85, $CC, nB3, $87, nD4
	dc.b $85, nB3, $84, $C8, nB3, $83, $C4, nC4
	dc.b $85, $C8, nB3, $82, $C4, nC4, $87, $CC
	dc.b nD4, $85, $C8, nB3, $84, $C4, nC4, $82
	dc.b $C8, nB3, $83, $C4, nD4, $84, $C8, nB3
	dc.b $83, $C4, nC4, $86, $CC, nD4, $C8, nB3
	dc.b $83, $C4, nC4, $86, $CC, nB3, $C8, nB3
	dc.b $83, $C4, nC4, $86, $CC, nD4, $C8, nB3
	dc.b $85, $CC, nC4, $84, $C4, nC4, $85, $CC
	dc.b nB3, $87, nD4, $85, nB3, $84, $C8, nB3
	dc.b $83, $C4, nC4, $85, $C8, nB3, $82, $C4
	dc.b nC4, $87, $CC, nD4, $85, $C8, nB3, $84
	dc.b $C4, nC4, $82, $C8, nB3, $83, $C4, nD4
	dc.b $84, $C8, nB3, $83, $C4, nC4, $86, $CC
	dc.b nD4, $C8, nB3, $83, $C4, nC4, $86, $CC
	dc.b nB3, $C8, nB3, $83, $C4, nC4, $86, $CC
	dc.b nD4, $C8, nB3, $85, $CC, nC4, $84, $C4
	dc.b nC4, $85, $CC, nB3, $87, nD4, $85, nB3
	dc.b $84, $C8, nB3, $83, $C4, nC4, $85, $C8
	dc.b nB3, $82, $C4, nC4, $87, $CC, nD4, $85
	dc.b $C8, nB3, $84, $C4, nC4, $82, $C8, nB3
	dc.b $83, $C4, nD4, $84, $C8, nB3, $83, $C4
	dc.b nC4, $86, $CC, nD4, $C8, nB3, $83, $C4
	dc.b nC4, $86, $CC, nB3, $C8, nB3, $83, $C4
	dc.b nC4, $86, $CC, nD4, $C8, nB3, $85, $CC
	dc.b nC4, $84, $C4, nC4, $85, $CC, nB3, $87
	dc.b nD4, $85, nB3, $84, $C8, nB3, $83, $C4
	dc.b nC4, $85, $C8, nB3, $82, $C4, nC4, $87
	dc.b $CC, nD4, $85, $C8, nB3, $84, $C4, nC4
	dc.b $82, $C8, nB3, $83, $C4, nD4, $84, $C8
	dc.b nB3, $83, $C4, nC4, $86, $CC, nD4, $C8
	dc.b nB3, $83, $C4, nC4, $86, $CC, nB3, $C8
	dc.b nB3, $83, $C4, nC4, $86, $CC, nD4, $C8
	dc.b nB3, $85, $CC, nC4, $84, $C4, nC4, $85
	dc.b $CC, nB3, $87, nD4, $85, nB3, $84, $C8
	dc.b nB3, $83, $C4, nC4, $85, $C8, nB3, $82
	dc.b $C4, nC4, $87, $CC, nD4, $85, $C8, nB3
	dc.b $84, $C4, nC4, $82, $C8, nB3, $83, $C4
	dc.b nD4, $84, $C8, nB3, $83, $C4, nC4, $86
	dc.b $CC, nD4, $C8, nB3, $83, $C6, $C4, nC4
	dc.b $85, $C8, nF5, $86, $CC, nC5, $85, $C4
	dc.b nC5, $8D, $CC, nD5, $87, $C8, nF5, $CC
	dc.b nC5, $83, $C4, nC5, $87, $CC, nF5, $8E
	dc.b nG5, $86, nF5, $85, $C8, nF5, $86, $CC
	dc.b nC5, $85, $C4, nC5, $8D, $CC, nD5, $87
	dc.b $C8, nF5, $CC, nC5, $83, $C4, nC5, $87
	dc.b $CC, nF5, $8E, nG5, $86, nF5, $85, $C8
	dc.b nF5, $86, $CC, nC5, $85, $C4, nC5, $8D
	dc.b $CC, nD5, $87, $C8, nF5, $CC, nC5, $83
	dc.b $C4, nC5, $87, $CC, nF5, $8E, nG5, $86
	dc.b nF5, $85, $C8, nF5, $86, $CC, nC5, $85
	dc.b $C4, nC5, $8D, $CC, nD5, $87, $C8, nF5
	dc.b $CC, nC5, $83, $C4, nC5, $87, $CC, nF5
	dc.b $8E, nG5, $86, nF5, $85, $C8, nF5, $86
	dc.b $CC, nC5, $85, $C4, nC5, $8D, $CC, nD5
	dc.b $87, $C8, nF5, $CC, nC5, $83, $C4, nC5
	dc.b $87, $CC, nF5, $8E, nG5, $86, nF5, $85
	dc.b $C8, nF5, $86, $CC, nC5, $85, $C4, nC5
	dc.b $8D, $CC, nD5, $87, $C8, nF5, $CC, nC5
	dc.b $83, $C4, nC5, $87, $CC, nF5, $8E, nG5
	dc.b $86, nF5, $85, $C8, nF5, $86, $CC, nC5
	dc.b $85, $C4, nC5, $8D, $CC, nD5, $87, $C8
	dc.b nF5, $CC, nC5, $83, $C4, nC5, $87, $CC
	dc.b nF5, $8E, nG5, $86, nF5, $85, $C8, nF5
	dc.b $86, $CC, nC5, $85, $C4, nC5, $8D, $CC
	dc.b nD5, $87, $C8, nF5, $CC, nC5, $83, $C4
	dc.b nC5, $87, $CC, nF5, $8E, nG5, $86, nF5
	dc.b $85, $C8, nF5, $86, $CC, nC5, $85, $C4
	dc.b nC5, $8D, $CC, nD5, $87, $C8, nF5, $CC
	dc.b nC5, $83, $C4, nC5, $87, $CC, nF5, $8E
	dc.b nG5, $86, nF5, $85, $C8, nF5, $86, $CC
	dc.b nC5, $85, $C4, nC5, $8D, $CC, nD5, $87
	dc.b $C8, nF5, $CC, nC5, $83, $C4, nC5, $87
	dc.b $CC, nF5, $8E, nG5, $86, nF5, $85, $C8
	dc.b nF5, $86, $CC, nC5, $85, $C4, nC5, $8D
	dc.b $CC, nD5, $87, $C8, nF5, $CC, nC5, $83
	dc.b $C4, nC5, $87, $CC, nF5, $8E, nG5, $86
	dc.b nF5, $85, $C8, nF5, $86, $CC, nC5, $85
	dc.b $C4, nC5, $8D, $CC, nD5, $87, $C8, nF5
	dc.b $CC, nC5, $83, $C4, nC5, $87, $CC, nF5
	dc.b $8E, nG5, $86, nF5, nB3, $C8, nB3, $83
	dc.b $C4, nC4, $86, $CC, nD4, $C8, nB3, $85
	dc.b $CC, nC4, $84, $C4, nC4, $85, $CC, nB3
	dc.b $87, nD4, $85, nB3, $84, $C8, nB3, $83
	dc.b $C4, nC4, $85, $C8, nB3, $82, $C4, nC4
	dc.b $87, $CC, nD4, $85, $C8, nB3, $84, $C4
	dc.b nC4, $82, $C8, nB3, $83, $C4, nD4, $84
	dc.b $C8, nB3, $83, $C4, nC4, $86, $CC, nD4
	dc.b $C8, nB3, $83, $C4, nC4, $86, $CC, nB3
	dc.b $C8, nB3, $83, $C4, nC4, $86, $CC, nD4
	dc.b $C8, nB3, $85, $CC, nC4, $84, $C4, nC4
	dc.b $85, $CC, nB3, $87, nD4, $85, nB3, $84
	dc.b $C8, nB3, $83, $C4, nC4, $85, $C8, nB3
	dc.b $82, $C4, nC4, $87, $CC, nD4, $85, $C8
	dc.b nB3, $84, $C4, nC4, $82, $C8, nB3, $83
	dc.b $C4, nD4, $84, $C8, nB3, $83, $C4, nC4
	dc.b $86, $CC, nD4, $C8, nB3, $83, $C4, nC4
	dc.b $86, $CC, nB3, $C8, nB3, $83, $C4, nC4
	dc.b $86, $CC, nD4, $C8, nB3, $85, $CC, nC4
	dc.b $84, $C4, nC4, $85, $CC, nB3, $87, nD4
	dc.b $85, nB3, $84, $C8, nB3, $83, $C4, nC4
	dc.b $85, $C8, nB3, $82, $C4, nC4, $87, $CC
	dc.b nD4, $85, $C8, nB3, $84, $C4, nC4, $82
	dc.b $C8, nB3, $83, $C4, nD4, $84, $C8, nB3
	dc.b $83, $C4, nC4, $86, $CC, nD4, $C8, nB3
	dc.b $83, $C4, nC4, $86, $CC, nB3, $C8, nB3
	dc.b $83, $C4, nC4, $86, $CC, nD4, $C8, nB3
	dc.b $85, $CC, nC4, $84, $C4, nC4, $85, $CC
	dc.b nB3, $87, nD4, $85, nB3, $84, $C8, nB3
	dc.b $83, $C4, nC4, $85, $C8, nB3, $82, $C4
	dc.b nC4, $87, $CC, nD4, $85, $C8, nB3, $84
	dc.b $C4, nC4, $82, $C8, nB3, $83, $C4, nD4
	dc.b $84, $C8, nB3, $83, $C4, nC4, $86, $CC
	dc.b nD4, $C8, nB3, $83, $C4, nC4, $86, $CC
	dc.b nB3, $C8, nB3, $83, $C4, nC4, $86, $CC
	dc.b nD4, $C8, nB3, $85, $CC, nC4, $84, $C4
	dc.b nC4, $85, $CC, nB3, $87, nD4, $85, nB3
	dc.b $84, $C8, nB3, $83, $C4, nC4, $85, $C8
	dc.b nB3, $82, $C4, nC4, $87, $CC, nD4, $85
	dc.b $C8, nB3, $84, $C4, nC4, $82, $C8, nB3
	dc.b $83, $C4, nD4, $84, $C8, nB3, $83, $C4
	dc.b nC4, $86, $CC, nD4, $C8, nB3, $83, $C4
	dc.b nC4, $86, $CC, nB3, $C8, nB3, $83, $C4
	dc.b nC4, $86, $CC, nD4, $C8, nB3, $85, $CC
	dc.b nC4, $84, $C4, nC4, $85, $CC, nB3, $87
	dc.b nD4, $85, nB3, $84, $C8, nB3, $83, $C4
	dc.b nC4, $85, $C8, nB3, $82, $C4, nC4, $87
	dc.b $CC, nD4, $85, $C8, nB3, $84, $C4, nC4
	dc.b $82, $C8, nB3, $83, $C4, nD4, $84, $C8
	dc.b nB3, $83, $C4, nC4, $86, $CC, nD4, $C8
	dc.b nB3, $83, $C4, nC4, $86, $CC, nB3, $C8
	dc.b nB3, $83, $C4, nC4, $86, $CC, nD4, $C8
	dc.b nB3, $85, $CC, nC4, $84, $C4, nC4, $85
	dc.b $CC, nB3, $87, nD4, $85, nB3, $84, $C8
	dc.b nB3, $83, $C4, nC4, $85, $C8, nB3, $82
	dc.b $C4, nC4, $87, $CC, nD4, $85, $C8, nB3
	dc.b $84, $C4, nC4, $82, $C8, nB3, $83, $C4
	dc.b nD4, $84, $C8, nB3, $83, $C4, nC4, $86
	dc.b $CC, nD4, $C8, nB3, $83, $C4, nC4, $86
	dc.b $CC, nB3, $C8, nB3, $83, $C4, nC4, $86
	dc.b $CC, nD4, $C8, nB3, $85, $CC, nC4, $84
	dc.b $C4, nC4, $85, $CC, nB3, $87, nD4, $85
	dc.b nB3, $84, $C8, nB3, $83, $C4, nC4, $85
	dc.b $C8, nB3, $82, $C4, nC4, $87, $CC, nD4
	dc.b $85, $C8, nB3, $84, $C4, nC4, $82, $C8
	dc.b nB3, $83, $C4, nD4, $84, $C8, nB3, $83
	dc.b $C4, nC4, $86, $CC, nD4, $C8, nB3, $83
	dc.b $C4, nC4, $C0
	gLoopEnd
	gStop

.00_04	gLoopStart
	dc.b $C6, $C0
	gNop
	dc.b $C0
	gsPatch		$30
	dc.b $AD, $F0, nB1, $84, $CC, nB1, $83, $C1
	dc.b $C8, nB1, $82, $C6, nA2, nA2, $83, nA2
	dc.b $81, nA2, $82, nB2, nB2, $D8, nB2, $C0
	gsPatch		$51
	dc.b $C8, nB3, $C4, nB3, $83, $D7, $F4, nB3
	dc.b $C0
	gsPatch		$51
	dc.b $82, $C8, nB3, $C4, nB3, $83, $CE, $F4
	dc.b nB3, $C0
	gLoopEnd
	gStop

.00_05	gLoopStart
	dc.b $C0
	gNop
	gLoopStart	$04
	dc.b $C8
	gNop
	dc.b $C1, $C8
	gsPatch		$1E
	dc.b $82, $CC, nG1, nA1, nB1, nE1, nG1, $F0
	dc.b nD2, $CC, nE2, nB1, nG1, $F0, nA1, $CC
	dc.b nG1, nA1, nB1, nE1, nG1, nD2, nA1, nB1
	dc.b nD2, nFs2, $C0
	gsPatch		$1E
	dc.b $C1, $C8, nB1, $CC, nG1, nA1, nB1, nE1
	dc.b nG1, nD2, nA1, nB1, nCs2, nE2, nB1, nG1
	dc.b nA1, nE1, nB1, nD2, nG1, nA1, nB1, nE1
	dc.b nG1, nD2, nA1, nB1, nD2, $C4, nFs2, $E4
	dc.b $C0
	gLoopEnd
	dc.b $D8, $C0
	gsVolume	$7F
	dc.b $C0
	gsVolume	$00
	gLoopStart	$02
	dc.b $C8
	gNop
	dc.b $C1, $C8
	gsPatch		$1E
	dc.b $82, $CC, nG1, nA1, nB1, nE1, nG1, $F0
	dc.b nD2, $CC, nE2, nB1, nG1, $F0, nA1, $CC
	dc.b nG1, nA1, nB1, nE1, nG1, nD2, nA1, nB1
	dc.b nD2, nFs2, $C0
	gsPatch		$1E
	dc.b $C1, $C8, nB1, $CC, nG1, nA1, nB1, nE1
	dc.b nG1, nD2, nA1, nB1, nCs2, nE2, nB1, nG1
	dc.b nA1, nE1, nB1, nD2, nG1, nA1, nB1, nE1
	dc.b nG1, nD2, nA1, nB1, nD2, $C4, nFs2, $CC
	dc.b $C0
	gLoopEnd
	dc.b $C0
	gLoopEnd
	gStop

.00_06	gLoopStart
	dc.b $D7, $EF
	gNop
	dc.b $C1
	gsPatch		$15
	dc.b $84, $C6, nB6, $81, nA6, $83, nFs6, $85
	dc.b $CC, nD6, $82, $C6, nA6, $CC, nFs6, $83
	dc.b nB6, $82, $C6, nB6, $81, $CC, nA6, $82
	dc.b $C6, nFs6, $84, $CC, nFs6, $82, $C6, nFs6
	dc.b $81, nA6, $82, nB6, nFs6, $83, $E4, nB6
	dc.b $85, $CC, nB6, $83, $C6, nB6, $82, nA6
	dc.b $83, nFs6, $82, nFs6, $84, nB6, $81, nA6
	dc.b $83, nFs6, $85, $CC, nD6, $82, $C6, nA6
	dc.b $CC, nFs6, $83, nB6, $82, $C6, nB6, $81
	dc.b $CC, nA6, $82, $C6, nFs6, $84, $CC, nFs6
	dc.b $82, $C6, nFs6, $81, nA6, $82, nB6, $EA
	dc.b nFs6, $85, $CC, nB6, $83, $C6, nB6, $82
	dc.b nA6, $83, nFs6, $82, nFs6, $84, nB6, $81
	dc.b nA6, $83, nFs6, $85, $CC, nD6, $82, $C6
	dc.b nA6, $CC, nFs6, $83, nB6, $82, $C6, nB6
	dc.b $81, $CC, nA6, $82, $C6, nFs6, $84, $CC
	dc.b nFs6, $82, $C6, nFs6, $81, nA6, $82, nB6
	dc.b nFs6, $83, $E4, nB6, $85, $CC, nB6, $83
	dc.b $C6, nB6, $82, nA6, $83, nFs6, $82, nFs6
	dc.b $84, nB6, $81, nA6, $83, nFs6, $85, $CC
	dc.b nD6, $82, $C6, nA6, $CC, nFs6, $83, nB6
	dc.b $82, $C6, nB6, $81, $CC, nA6, $82, $C6
	dc.b nFs6, $84, $CC, nFs6, $82, $C6, nFs6, $81
	dc.b nA6, $82, $C7, $E6, nB6, $85, $CC, nD6
	dc.b $82, $C6, nA6, $CC, nFs6, $83, nB6, $82
	dc.b $C6, nB6, $81, $CC, nA6, $82, $C6, nFs6
	dc.b $84, $CC, nFs6, $82, $C6, nFs6, $81, nA6
	dc.b $82, nB6, nFs6, $83, $E4, nB6, $85, $CC
	dc.b nB6, $83, $C6, nB6, $82, nA6, $83, nFs6
	dc.b $82, nFs6, $84, nB6, $81, nA6, $83, $CF
	dc.b $C4, nFs6, $CC
	gsPatch		$17
	dc.b $82, nB6, $C8, nB6, $C4, nB6, $CC, nB6
	dc.b nB6, $C8, nB6, $81, $C4, nA6, $82, $C8
	dc.b nBb6, $C4, nA6, $C8, nBb6, $83, $C4, nA6
	dc.b $82, $E4, nB6, $83, $D8, nB6, $82, $CC
	dc.b nB6, $D4, nB6, $C4, nB6, $CC
	gsPatch		$17
	dc.b nB6, $C8, nB6, $C4, nB6, $CC, nB6, nB6
	dc.b $C8, nB6, $81, $C4, nA6, $82, $C8, nBb6
	dc.b $C4, nA6, $C8, nBb6, $83, $C4, nA6, $82
	dc.b $E4, nB6, $83, $D8, nB6, $82, $CC, nB6
	dc.b nB6, $C4, nB6, nB6, nB6, $CC
	gsPatch		$17
	dc.b nB6, $C8, nB6, $C4, nB6, $CC, nB6, nB6
	dc.b $C8, nB6, $81, $C4, nA6, $82, $C8, nBb6
	dc.b $C4, nA6, $C8, nBb6, $83, $C4, nA6, $82
	dc.b $E4, nB6, $83, $D8, nB6, $82, $CC, nB6
	dc.b $D4, nB6, $C4, nB6, $CC
	gsPatch		$17
	dc.b nB6, $C8, nB6, $C4, nB6, $CC, nB6, nB6
	dc.b $C8, nB6, $81, $C4, nA6, $82, $C8, nBb6
	dc.b $C4, nA6, $C8, nBb6, $83, $C4, nA6, $82
	dc.b $E4, nB6, $83, $D8, nB6, $82, $CC, nB6
	dc.b nB6, $C4, nB6, nB6, $CC, $C4, nB6, $C2
	gsPatch		$15
	dc.b $85, $CC, nD6, $82, $C6, nA6, $CC, nFs6
	dc.b $83, nB6, $82, $C6, nB6, $81, $CC, nA6
	dc.b $82, $C6, nFs6, $84, $CC, nFs6, $82, $C6
	dc.b nFs6, $81, nA6, $82, nB6, nFs6, $83, $E4
	dc.b nB6, $85, $CC, nB6, $83, $C6, nB6, $82
	dc.b nA6, $83, nFs6, $82, nFs6, $84, nB6, $81
	dc.b nA6, $83, nFs6, $85, $CC, nD6, $82, $C6
	dc.b nA6, $CC, nFs6, $83, nB6, $82, $C6, nB6
	dc.b $81, $CC, nA6, $82, $C6, nFs6, $84, $CC
	dc.b nFs6, $82, $C6, nFs6, $81, nA6, $82, nB6
	dc.b $EA, nFs6, $85, $CC, nB6, $83, $C6, nB6
	dc.b $82, nA6, $83, $DC, nFs6, $C0
	gsPatch		$31
	dc.b $8F, $D8, nB4, $8C, $D4, nB4, $90, $D0
	dc.b nB4, $89, $CC, nE5, $D8, nG5, $8F, nB4
	dc.b $8C, $D4, nB4, $8D, $D0, nB4, $88, $CC
	dc.b nE5, $87, nFs5, nG5, $8F, $D8, nB4, $8C
	dc.b $D4, nB4, $8F, $D0, nB4, $89, $CC, nE5
	dc.b $D4, nFs5, $83, $C4, nB4, $8B, $D8, nB4
	dc.b $8C, $D4, nB4, $8D, $D0, nB4, $88, $CC
	dc.b nG5, $87, nFs5, nG5, $C0
	gLoopEnd
	gStop

.00_07	gLoopStart
	dc.b $C0
	gNop
	gLoopStart	$02
	dc.b $C3, $C0
	gNop
	gLoopStart	$0F
	dc.b $C0
	gNop
	dc.b $D8
	gsPatch		$3C
	dc.b $86, $F0, nB3, nB3, nB3, $D8, nB3, $EA
	dc.b $C0
	gLoopEnd
	dc.b $C1
	gLoopEnd
	dc.b $C2, $E7
	gsVolume	$7F
	dc.b $ED, $D8
	gsVolume	$00
	dc.b $C0
	gLoopEnd
	gStop

.00_08	gLoopStart
	dc.b $E4, $C0
	gNop
	dc.b $C0
	gsPatch		$1C
	dc.b $84, $D4, nB2, $87, $D0, nD3, $88, $CC
	dc.b nF3, $86, $D4, nE3, $87, $D0, nD3, $85
	dc.b $CC, nF3, $87, $D4, nB2, $88, $D0, nD3
	dc.b $87, $CC, nF3, $86, nE3, $85, nE3, $87
	dc.b nD3, $85, nF3, $84, $D4, nB2, $87, $D0
	dc.b nD3, $88, $CC, nF3, $86, $D4, nE3, $87
	dc.b $D0, nD3, $85, $CC, nF3, $87, $D4, nB2
	dc.b $88, $D0, nD3, $87, $CC, nF3, $86, nE3
	dc.b $85, nE3, $87, nD3, $85, $C3, $CC, nF3
	dc.b $84, $D4, nB2, $87, $D0, nD3, $88, $CC
	dc.b nF3, $86, $D4, nE3, $87, $D0, nD3, $85
	dc.b $CC, nF3, $87, $D4, nB2, $88, $D0, nD3
	dc.b $87, $CC, nF3, $86, nE3, $85, nE3, $87
	dc.b nD3, $85, $DE, $CC, nF3, $84, $D4, nB2
	dc.b $87, $D0, nD3, $88, $CC, nF3, $86, $D4
	dc.b nE3, $87, $D0, nD3, $85, $CC, nF3, $87
	dc.b $D4, nB2, $88, $D0, nD3, $87, $CC, nF3
	dc.b $86, nE3, $85, nE3, $87, nD3, $85, $CF
	dc.b $CC, nF3, $C0
	gLoopEnd
	gStop

.00_09	gLoopStart
	dc.b $C1, $EC, $C0
	gNop
	dc.b $CC
	gsPatch		$28
	dc.b $82, $C0, nB3, $81, $D2, nE4, $C6, nB3
	dc.b $CC, nCs4, nD4, nD4, $D8, nD4, $C6, nCs4
	dc.b $D2, nB3, nD4, $82, nB3, $81, $C6, nCs4
	dc.b nB3, $D8, nD4, $82, $C6, nCs4, $81, nB3
	dc.b $82, nCs4, nB3, $81, $D2, nD4, $84, nB3
	dc.b $82, $CC, nCs4, $D8, nD4, $C6, nCs4, nB3
	dc.b $83, $CC, nE4, nE4, $81, nCs4, $C6, nD4
	dc.b $82, $CC, nB3, $D2, nB3, $81, $CC, nCs4
	dc.b $C6, nCs4, $D2, nB3, nD4, $82, $CC, nB3
	dc.b $81, $C6, nB3, $83, $CC, nCs4, $81, nD4
	dc.b nCs4, $C6, nCs4, $82, $D2, nB3, $CC, nCs4
	dc.b $81, $C6, nD4, nB3, $82, $CC, nCs4, $81
	dc.b nCs4, $82, nA3, $83, nB3, $82, nCs4, $C6
	dc.b nCs4, $81, $CC, nB3, $C6, nB3, $82, nD4
	dc.b $81, nB3, $82, nCs4, $83, $CC, nA3, $82
	dc.b nA3, $81, $C6, nA3, $82, nCs4, $81, nB3
	dc.b nCs4, $83, $D2, nB3, $CC, nD4, $81, $C6
	dc.b nCs4, $83, $CC, nA3, $81, $C6, nA3, nCs4
	dc.b $82, $D2, nA3, $81, $C1, $C8, $CC, nCs4
	dc.b $C0
	gLoopEnd
	gStop

.02_00	dc.b $C0
	gStore		$00, $00
	gsTempo		155
	gLoopStart
	dc.b $C0
	gNop
	gsPatch		$07
	dc.b $86, $CC, nB1, $85, $CB, nB1, $86, nB1
	dc.b nB1, $CD, nB1, $89, $D8, nB1, $94, $D9
	dc.b nD2, $87, $CD, nD2, $86, $CC, nD2, $85
	dc.b $CB, nD2, $86, $CC, nD2, $87, $D8, nD2
	dc.b $91, $D9, nFs2, $86, $CC, nFs2, nFs2, $CB
	dc.b nFs2, $CC, nFs2, $89, $D7, nFs2, $92, $DA
	dc.b nB1, $87, $CC, nB1, $86, $CB, nB1, $CC
	dc.b nB1, $85, $CB, nB1, $87, $D9, nB1, $93
	dc.b nB1, $85, $CC, nB1, $CA, nB1, $86, $CC
	dc.b nB1, $85, nB1, $89, $D8, nB1, $94, $D9
	dc.b nD2, $86, $CC, nD2, $87, $CB, nD2, $CC
	dc.b nD2, $86, $CD, nD2, $87, $D9, nD2, $92
	dc.b nFs2, $86, $CB, nFs2, $87, $CC, nFs2, $86
	dc.b nFs2, $87, nFs2, $8A, $D8, nFs2, $93, nB1
	dc.b $86, $CC, nB1, $CB, nB1, $85, $CC, nB1
	dc.b $86, $CD, nB1, $D8, nB1, $92, nB1, $85
	dc.b $CB, nB1, $87, $CD, nB1, $86, $CB, nB1
	dc.b $CC, nB1, $D8, nB1, $93, nD2, $86, $CD
	dc.b nD2, $87, $CC, nD2, $86, nD2, nD2, $87
	dc.b $D8, nD2, $93, $DA, nFs2, $86, $CB, nFs2
	dc.b nFs2, $CC, nFs2, $87, nFs2, $88, $D7, nFs2
	dc.b $93, $D9, nB1, $85, $CC, nB1, $86, nB1
	dc.b nB1, nB1, $8A, $D9, nB1, $92, $D7, nB1
	dc.b $85, $CB, nB1, nB1, $CC, nB1, $86, nB1
	dc.b $87, $DA, nB1, $94, $D8, nD2, $87, $CC
	dc.b nD2, $86, nD2, $85, $CB, nD2, $87, $CD
	dc.b nD2, $86, $D8, nD2, $93, nFs2, $88, $CC
	dc.b nFs2, $87, nFs2, $86, $CB, nFs2, $87, $CC
	dc.b nFs2, $8A, $D8, nFs2, $92, nB1, $86, $CD
	dc.b nB1, $87, $CB, nB1, $86, $CC, nB1, nB1
	dc.b $8B, $D9, nB1, $90, $D7, nE2, $85, $CC
	dc.b nE2, $CB, nE2, $88, $CD, nE2, $86, $CB
	dc.b nEb2, $88, $CC, nEb2, $87, nEb2, $88, $CE
	dc.b nEb2, $87, $CC, nD2, nD2, $86, $CB, nD2
	dc.b $87, $CD, nD2, $86, $CC, nEb2, nEb2, $85
	dc.b nEb2, $88, nEb2, $85, $CB, nE2, $84, nE2
	dc.b $86, nE2, $88, $CD, nE2, $86, $CC, nEb2
	dc.b $87, $CE, nEb2, $86, $CC, nEb2, $CB, nEb2
	dc.b $CD, nD2, $85, $CC, nD2, $87, $CD, nD2
	dc.b $94, $D7, nCs2, $87, $CC, nCs2, $86, nCs2
	dc.b $92, $D8, nE2, $85, $CC, nE2, $84, $CA
	dc.b nE2, $88, $CD, nE2, $87, $CC, nEb2, $CD
	dc.b nEb2, $86, $CB, nEb2, $87, $CD, nEb2, $86
	dc.b $CC, nD2, $85, $CB, nD2, $CC, nD2, $86
	dc.b nD2, $CD, nEb2, $85, $CC, nEb2, $87, $CE
	dc.b nEb2, $90, $D7, nE2, $85, $CB, nE2, $CC
	dc.b nE2, $86, nE2, nEb2, $85, $CB, nEb2, $86
	dc.b $CC, nEb2, $87, $CD, nEb2, $86, $CC, nE2
	dc.b $CB, nEb2, $CD, nE2, $91, $D7, nF2, $86
	dc.b $CC, nF2, $85, $CB, nF2, $86, $CD, nF2
	dc.b $87, nFs2, $84, $CC, nA2, nA2, $85, nA2
	dc.b $86, nA2, $8A, $D8, nA2, $88, nE2, $86
	dc.b $CC, nE2, nE2, $85, nE2, $86, nE2, $88
	dc.b $D8, nE2, $8A, nB1, $86, $CC, nB1, nB1
	dc.b nB1, $87, nB1, $D8, nB1, $88, nB1, $86
	dc.b $CC, nB1, nB1, $85, nB1, $86, nB1, $D8
	dc.b nB1, $8A, nA2, $86, $CC, nA2, nA2, nA2
	dc.b $87, nA2, $8A, $D8, nA2, $89, nE2, $86
	dc.b $CC, nE2, nE2, nE2, nE2, $88, $D8, nE2
	dc.b $8A, nB1, $86, $CC, nB1, nB1, nB1, $85
	dc.b nB1, nB1, $86, nB1, $85, nB1, $92, $C1
	dc.b $E0, nB1, $86, $CC, nB1, $85, $CB, nB1
	dc.b $86, nB1, nB1, $CD, nB1, $89, $D8, nB1
	dc.b $94, $D9, nD2, $87, $CD, nD2, $86, $CC
	dc.b nD2, $85, $CB, nD2, $86, $CC, nD2, $87
	dc.b $D8, nD2, $91, $D9, nFs2, $86, $CC, nFs2
	dc.b nFs2, $CB, nFs2, $CC, nFs2, $89, $D7, nFs2
	dc.b $92, $DA, nB1, $87, $CC, nB1, $86, $CB
	dc.b nB1, $CC, nB1, $85, $CB, nB1, $87, $D9
	dc.b nB1, $93, nB1, $85, $CC, nB1, $CA, nB1
	dc.b $86, $CC, nB1, $85, nB1, $89, $D8, nB1
	dc.b $94, $D9, nD2, $86, $CC, nD2, $87, $CB
	dc.b nD2, $CC, nD2, $86, $CD, nD2, $87, $D9
	dc.b nD2, $92, nFs2, $86, $CB, nFs2, $87, $CC
	dc.b nFs2, $86, nFs2, $87, nFs2, $8A, $D8, nFs2
	dc.b $93, nB1, $86, $CC, nB1, $CB, nB1, $85
	dc.b $CC, nB1, $86, $CD, nB1, $D8, nB1, $92
	dc.b nB1, $85, $CB, nB1, $87, $CD, nB1, $86
	dc.b $CB, nB1, $CC, nB1, $D8, nB1, $93, nD2
	dc.b $86, $CD, nD2, $87, $CC, nD2, $86, nD2
	dc.b nD2, $87, $D8, nD2, $93, $DA, nFs2, $86
	dc.b $CB, nFs2, nFs2, $CC, nFs2, $87, nFs2, $88
	dc.b $D7, nFs2, $93, $D9, nB1, $85, $CC, nB1
	dc.b $86, nB1, nB1, nB1, $8A, $D9, nB1, $92
	dc.b $D7, nB1, $85, $CB, nB1, nB1, $CC, nB1
	dc.b $86, nB1, $87, $DA, nB1, $94, $D8, nD2
	dc.b $87, $CC, nD2, $86, nD2, $85, $CB, nD2
	dc.b $87, $CD, nD2, $86, $D8, nD2, $93, nFs2
	dc.b $88, $CC, nFs2, $87, nFs2, $86, $CB, nFs2
	dc.b $87, $CC, nFs2, $8A, $D8, nFs2, $92, nB1
	dc.b $86, $CD, nB1, $87, $CB, nB1, $86, $CC
	dc.b nB1, nB1, $8B, $D9, nB1, $90, $D7, nE2
	dc.b $85, $CC, nE2, $CB, nE2, $88, $CD, nE2
	dc.b $86, $CB, nEb2, $88, $CC, nEb2, $87, nEb2
	dc.b $88, $CE, nEb2, $87, $CC, nD2, nD2, $86
	dc.b $CB, nD2, $87, $CD, nD2, $86, $CC, nEb2
	dc.b nEb2, $85, nEb2, $88, nEb2, $85, $CB, nE2
	dc.b $84, nE2, $86, nE2, $88, $CD, nE2, $86
	dc.b $CC, nEb2, $87, $CE, nEb2, $86, $CC, nEb2
	dc.b $CB, nEb2, $CD, nD2, $85, $CC, nD2, $87
	dc.b $CD, nD2, $94, $D7, nCs2, $87, $CC, nCs2
	dc.b $86, nCs2, $92, $D8, nE2, $85, $CC, nE2
	dc.b $84, $CA, nE2, $88, $CD, nE2, $87, $CC
	dc.b nEb2, $CD, nEb2, $86, $CB, nEb2, $87, $CD
	dc.b nEb2, $86, $CC, nD2, $85, $CB, nD2, $CC
	dc.b nD2, $86, nD2, $CD, nEb2, $85, $CC, nEb2
	dc.b $87, $CE, nEb2, $90, $D7, nE2, $85, $CB
	dc.b nE2, $CC, nE2, $86, nE2, nEb2, $85, $CB
	dc.b nEb2, $86, $CC, nEb2, $87, $CD, nEb2, $86
	dc.b $CC, nE2, $CB, nEb2, $CD, nE2, $91, $D7
	dc.b nF2, $86, $CC, nF2, $85, $CB, nF2, $86
	dc.b $CD, nF2, $87, nFs2, $84, $CC, nA2, nA2
	dc.b $85, nA2, $86, nA2, $8A, $D8, nA2, $88
	dc.b nE2, $86, $CC, nE2, nE2, $85, nE2, $86
	dc.b nE2, $88, $D8, nE2, $8A, nB1, $86, $CC
	dc.b nB1, nB1, nB1, $87, nB1, $D8, nB1, $88
	dc.b nB1, $86, $CC, nB1, nB1, $85, nB1, $86
	dc.b nB1, $D8, nB1, $8A, nA2, $86, $CC, nA2
	dc.b nA2, nA2, $87, nA2, $8A, $D8, nA2, $89
	dc.b nE2, $86, $CC, nE2, nE2, nE2, nE2, $88
	dc.b $D8, nE2, $8A, nB1, $86, $CC, nB1, nB1
	dc.b nB1, $85, nB1, nB1, $86, nB1, $85, nB1
	dc.b $92, $C1, $E0, nB1, $C0
	gLoopEnd
	gStop

.02_01	gLoopStart
	dc.b $C0
	gNop
	gsPatch		$18
	dc.b $8B, nFs4, $CC, nB3, $C0, nFs4, $CC, nB3
	dc.b $C0, nB3, $D8, nF4, $C0, nB3, $E4, nE4
	dc.b $97, $C0, nD4, $D8, nG4, $8B, $C0, nD4
	dc.b $CC, nG4, $C0, nD4, $D8, nAb4, $C0, nA4
	dc.b $E4, nD4, $C0, nCs5, $D8, nFs4, $C0, nCs5
	dc.b $CC, nFs4, $C0, nC5, $D8, nFs4, $C0, nB4
	dc.b $E4, nFs4, $C0, nE4, $D8, nB3, $C0, nE4
	dc.b $CC, nB3, $C0, nF4, $D8, nB3, $C0, nFs4
	dc.b $E4, nB3, $97, $C0, nFs4, $8B, $D8, nB3
	dc.b $C0, nFs4, $CC, nB3, $C0, nF4, $D8, nB3
	dc.b $C0, nB3, $E4, nE4, $97, $C0, nG4, $D8
	dc.b nD4, $8B, $C0, nD4, $CC, nG4, $C0, nD4
	dc.b $D8, nAb4, $C0, nA4, $E4, nD4, $97, $C0
	dc.b nCs5, $D8, nFs4, $8B, $C0, nCs5, $CC, nFs4
	dc.b $C0, nC5, $D8, nFs4, $C0, nB4, $E4, nFs4
	dc.b $C0, nB3, $D8, nE4, $C0, nE4, $CC, nB3
	dc.b $C0, nF4, $D8, nB3, $C0, nFs4, $E4, nB3
	dc.b $C0, nB3, $D8, nFs4, $C0, nFs4, $CC, nB3
	dc.b $C0, nB3, $D8, nF4, $C0, nE4, $E4, nB3
	dc.b $C0, nD4, $D8, nG4, $C0, nD4, $CC, nG4
	dc.b $C0, nD4, $D8, nAb4, $C0, nA4, $E4, nD4
	dc.b $97, $C0, nCs5, $D8, nFs4, $8B, $C0, nCs5
	dc.b $CC, nFs4, $C0, nC5, $D8, nFs4, $C0, nB4
	dc.b $E4, nFs4, $C0, nE4, $D8, nB3, $C0, nE4
	dc.b $CC, nB3, $C0, nF4, $D8, nB3, $C0, nB3
	dc.b $E4, nFs4, $97, $C0, nFs4, $D8, nB3, $8B
	dc.b $C0, nFs4, $CC, nB3, $C0, nF4, $D8, nB3
	dc.b $C0, nE4, $E4, nB3, $C0, nD4, $D8, nG4
	dc.b $C0, nD4, $CC, nG4, $C0, nD4, $D8, nAb4
	dc.b $C0, nD4, $E4, nA4, $C0, nCs5, $D8, nFs4
	dc.b $C0, nCs5, $CC, nFs4, $C0, nC5, $D8, nFs4
	dc.b $C0, nFs4, $E4, nB4, $C0, nE4, $D8, nB3
	dc.b $C0, nB3, $CC, nE4, $C0, nF4, $D8, nB3
	dc.b $C0, nFs4, $CC, $FC, nB3, $85, $CC, nA3
	dc.b $8F, $C0, nA3, $8E, $D8, nD4, $95, $C0
	dc.b nA3, $E4, nE4, $85, $CC, nE3, $84, $C0
	dc.b nA3, $86, $CC, nE3, $90, $C0, nE3, $8F
	dc.b $D8, nA3, $A2, $C0, nB3, $9D, $C1, $C8
	dc.b nE3, $84, $C0, nE4, $CC, nB3, $93, $C0
	dc.b nE4, $D8, nB3, $85, $C0, nB3, $90, $D8
	dc.b nFs4, $83, $C0, nE4, $85, $CC, nB3, $84
	dc.b $C0, nB3, $83, $CC, nE4, $85, $C0, nB3
	dc.b $83, $CC, nE4, $92, $C0, nB3, $D8, nE4
	dc.b $AA, $C0, nB3, $C1, $C8, nFs4, $86, $CC
	dc.b nA3, $90, $C0, nA3, $D8, nD4, $8F, $C0
	dc.b nA3, $90, $D8, nE4, $83, $CC, nA3, $84
	dc.b nA3, $C0, nE3, $CC, nA3, $90, $C0, nE3
	dc.b $8F, $D8, nA3, $9E, $C0, nB3, $9B, $E4
	dc.b nE3, $85, $CC, nB3, $88, $D8, nB3, $85
	dc.b $CC, nB3, $90, $C0, nE4, $D8, nB3, $91
	dc.b $C0, nB3, $92, $D8, nFs4, $82, $C0, nE4
	dc.b $83, $CC, nB3, $85, $C0, nB3, $81, $CC
	dc.b nE4, $83, $C0, nE4, $84, $CC, nB3, $92
	dc.b $C0, nB3, $91, $D8, nE4, $9D, $C0, nFs4
	dc.b $9A, $E4, nB3, $85, $CC, nB3, $87, nB3
	dc.b $8B, $C0, nFs4, $CC, nB3, $C0, nFs4, $CC
	dc.b nB3, $C0, nB3, $D8, nF4, $C0, nB3, $E4
	dc.b nE4, $97, $C0, nD4, $D8, nG4, $8B, $C0
	dc.b nD4, $CC, nG4, $C0, nD4, $D8, nAb4, $C0
	dc.b nA4, $E4, nD4, $C0, nCs5, $D8, nFs4, $C0
	dc.b nCs5, $CC, nFs4, $C0, nC5, $D8, nFs4, $C0
	dc.b nB4, $E4, nFs4, $C0, nE4, $D8, nB3, $C0
	dc.b nE4, $CC, nB3, $C0, nF4, $D8, nB3, $C0
	dc.b nFs4, $E4, nB3, $97, $C0, nFs4, $8B, $D8
	dc.b nB3, $C0, nFs4, $CC, nB3, $C0, nF4, $D8
	dc.b nB3, $C0, nB3, $E4, nE4, $97, $C0, nG4
	dc.b $D8, nD4, $8B, $C0, nD4, $CC, nG4, $C0
	dc.b nD4, $D8, nAb4, $C0, nA4, $E4, nD4, $97
	dc.b $C0, nCs5, $D8, nFs4, $8B, $C0, nCs5, $CC
	dc.b nFs4, $C0, nC5, $D8, nFs4, $C0, nB4, $E4
	dc.b nFs4, $C0, nB3, $D8, nE4, $C0, nE4, $CC
	dc.b nB3, $C0, nF4, $D8, nB3, $C0, nFs4, $E4
	dc.b nB3, $C0, nB3, $D8, nFs4, $C0, nFs4, $CC
	dc.b nB3, $C0, nB3, $D8, nF4, $C0, nE4, $E4
	dc.b nB3, $C0, nD4, $D8, nG4, $C0, nD4, $CC
	dc.b nG4, $C0, nD4, $D8, nAb4, $C0, nA4, $E4
	dc.b nD4, $97, $C0, nCs5, $D8, nFs4, $8B, $C0
	dc.b nCs5, $CC, nFs4, $C0, nC5, $D8, nFs4, $C0
	dc.b nB4, $E4, nFs4, $C0, nE4, $D8, nB3, $C0
	dc.b nE4, $CC, nB3, $C0, nF4, $D8, nB3, $C0
	dc.b nB3, $E4, nFs4, $97, $C0, nFs4, $D8, nB3
	dc.b $8B, $C0, nFs4, $CC, nB3, $C0, nF4, $D8
	dc.b nB3, $C0, nE4, $E4, nB3, $C0, nD4, $D8
	dc.b nG4, $C0, nD4, $CC, nG4, $C0, nD4, $D8
	dc.b nAb4, $C0, nD4, $E4, nA4, $C0, nCs5, $D8
	dc.b nFs4, $C0, nCs5, $CC, nFs4, $C0, nC5, $D8
	dc.b nFs4, $C0, nFs4, $E4, nB4, $C0, nE4, $D8
	dc.b nB3, $C0, nB3, $CC, nE4, $C0, nF4, $D8
	dc.b nB3, $C0, nFs4, $CC, $FC, nB3, $85, $CC
	dc.b nA3, $8F, $C0, nA3, $8E, $D8, nD4, $95
	dc.b $C0, nA3, $E4, nE4, $85, $CC, nE3, $84
	dc.b $C0, nA3, $86, $CC, nE3, $90, $C0, nE3
	dc.b $8F, $D8, nA3, $A2, $C0, nB3, $9D, $C1
	dc.b $C8, nE3, $84, $C0, nE4, $CC, nB3, $93
	dc.b $C0, nE4, $D8, nB3, $85, $C0, nB3, $90
	dc.b $D8, nFs4, $83, $C0, nE4, $85, $CC, nB3
	dc.b $84, $C0, nB3, $83, $CC, nE4, $85, $C0
	dc.b nB3, $83, $CC, nE4, $92, $C0, nB3, $D8
	dc.b nE4, $AA, $C0, nB3, $C1, $C8, nFs4, $86
	dc.b $CC, nA3, $90, $C0, nA3, $D8, nD4, $8F
	dc.b $C0, nA3, $90, $D8, nE4, $83, $CC, nA3
	dc.b $84, nA3, $C0, nE3, $CC, nA3, $90, $C0
	dc.b nE3, $8F, $D8, nA3, $9E, $C0, nB3, $9B
	dc.b $E4, nE3, $85, $CC, nB3, $88, $D8, nB3
	dc.b $85, $CC, nB3, $90, $C0, nE4, $D8, nB3
	dc.b $91, $C0, nB3, $92, $D8, nFs4, $82, $C0
	dc.b nE4, $83, $CC, nB3, $85, $C0, nB3, $81
	dc.b $CC, nE4, $83, $C0, nE4, $84, $CC, nB3
	dc.b $92, $C0, nB3, $91, $D8, nE4, $9D, $C0
	dc.b nFs4, $9A, $E4, nB3, $85, $CC, nB3, $87
	dc.b nB3, $C0
	gLoopEnd
	gStop

.02_02	gLoopStart
	dc.b $C0
	gNop
	gsPatch		$7A
	dc.b $8B, $D8, nAb5, $CC, nG5, nAb5, $D8, nAb5
	dc.b $CC, nG5, $D8, nAb5, $CC, nAb5, nG5, nAb5
	dc.b $D8, nAb5, $CC, nG5, $D8, nAb5, $CC, nAb5
	dc.b nG5, nAb5, $D8, nAb5, $CC, nG5, $D8, nAb5
	dc.b $CC, nAb5, nG5, nAb5, $D8, nAb5, $CC, nG5
	dc.b nAb5, $D8, nAb5, $CC, nG5, nAb5, $D8, nAb5
	dc.b $CC, nG5, $D8, nAb5, $CC, nAb5, nG5, nAb5
	dc.b $D8, nAb5, $CC, nG5, $D8, nAb5, $CC, nAb5
	dc.b nG5, nAb5, $D8, nAb5, $CC, nG5, $D8, nAb5
	dc.b $CC, nAb5, nG5, nAb5, $D8, nAb5, $CC, nG5
	dc.b nAb5, $D8, nAb5, $CC, nG5, nAb5, $D8, nAb5
	dc.b $CC, nG5, $D8, nAb5, $CC, nAb5, nG5, nAb5
	dc.b $D8, nAb5, $CC, nG5, $D8, nAb5, $CC, nAb5
	dc.b nG5, nAb5, $D8, nAb5, $CC, nG5, $D8, nAb5
	dc.b $CC, nAb5, nG5, nAb5, $D8, nAb5, $CC, nG5
	dc.b nAb5, $D8, nAb5, $CC, nG5, nAb5, $D8, nAb5
	dc.b $CC, nG5, $D8, nAb5, $CC, nAb5, nG5, nAb5
	dc.b $D8, nAb5, $CC, nG5, $D8, nAb5, $CC, nAb5
	dc.b nG5, nAb5, $D8, nAb5, $CC, nG5, $D8, nAb5
	dc.b $CC, nAb5, nG5, nAb5, $D8, nAb5, $CC, nG5
	dc.b nAb5, $D8, nAb5, $CC, nG5, nAb5, $D8, nAb5
	dc.b $CC, nG5, $D8, nAb5, $CC, nAb5, nG5, nAb5
	dc.b $D8, nAb5, $CC, nG5, $D8, nAb5, $CC, nAb5
	dc.b nG5, nAb5, $D8, nAb5, $CC, nG5, $D8, nAb5
	dc.b $CC, nAb5, nG5, nAb5, $D8, nAb5, $CC, nG5
	dc.b nAb5, $D8, nAb5, $CC, nG5, nAb5, $D8, nAb5
	dc.b $CC, nG5, $D8, nAb5, $CC, nAb5, nG5, nAb5
	dc.b $D8, nAb5, $CC, nG5, $D8, nAb5, $CC, nAb5
	dc.b nG5, nAb5, $D8, nAb5, $CC, nG5, $D8, nAb5
	dc.b $CC, nAb5, nG5, nAb5, $D8, nAb5, $CC, nG5
	dc.b nAb5, $D8, nAb5, $CC, nG5, nAb5, $D8, nAb5
	dc.b $CC, nG5, $D8, nAb5, $CC, nAb5, nG5, nAb5
	dc.b $D8, nAb5, $CC, nG5, $D8, nAb5, $CC, nAb5
	dc.b nG5, nAb5, $D8, nAb5, $CC, nG5, $D8, nAb5
	dc.b $CC, nAb5, nG5, nAb5, $D8, nAb5, $CC, nG5
	dc.b nAb5, $D8, nAb5, $CC, nG5, nAb5, $D8, nAb5
	dc.b $CC, nG5, $D8, nAb5, $CC, nAb5, nG5, nAb5
	dc.b $D8, nAb5, $CC, nG5, $D8, nAb5, $CC, nAb5
	dc.b nG5, nAb5, $D8, nAb5, $CC, nG5, nAb5, $9B
	dc.b $C1, $E0, nG5, $8B, $D8, nAb5, $CC, nG5
	dc.b nAb5, $D8, nAb5, $CC, nG5, $D8, nAb5, $CC
	dc.b nAb5, nG5, nAb5, $D8, nAb5, $CC, nG5, $D8
	dc.b nAb5, $CC, nAb5, nG5, nAb5, $D8, nAb5, $CC
	dc.b nG5, $D8, nAb5, $CC, nAb5, nG5, nAb5, $D8
	dc.b nAb5, $CC, nG5, nAb5, $D8, nAb5, $CC, nG5
	dc.b nAb5, $D8, nAb5, $CC, nG5, $D8, nAb5, $CC
	dc.b nAb5, nG5, nAb5, $D8, nAb5, $CC, nG5, $D8
	dc.b nAb5, $CC, nAb5, nG5, nAb5, $D8, nAb5, $CC
	dc.b nG5, $D8, nAb5, $CC, nAb5, nG5, nAb5, $D8
	dc.b nAb5, $CC, nG5, nAb5, $D8, nAb5, $CC, nG5
	dc.b nAb5, $D8, nAb5, $CC, nG5, $D8, nAb5, $CC
	dc.b nAb5, nG5, nAb5, $D8, nAb5, $CC, nG5, $D8
	dc.b nAb5, $CC, nAb5, nG5, nAb5, $D8, nAb5, $CC
	dc.b nG5, $D8, nAb5, $CC, nAb5, nG5, nAb5, $D8
	dc.b nAb5, $CC, nG5, nAb5, $D8, nAb5, $CC, nG5
	dc.b nAb5, $D8, nAb5, $CC, nG5, $D8, nAb5, $CC
	dc.b nAb5, nG5, nAb5, $D8, nAb5, $CC, nG5, $D8
	dc.b nAb5, $CC, nAb5, nG5, nAb5, $D8, nAb5, $CC
	dc.b nG5, $D8, nAb5, $CC, nAb5, nG5, nAb5, $D8
	dc.b nAb5, $CC, nG5, nAb5, $D8, nAb5, $CC, nG5
	dc.b nAb5, $D8, nAb5, $CC, nG5, $D8, nAb5, $CC
	dc.b nAb5, nG5, nAb5, $D8, nAb5, $CC, nG5, $D8
	dc.b nAb5, $CC, nAb5, nG5, nAb5, $D8, nAb5, $CC
	dc.b nG5, $D8, nAb5, $CC, nAb5, nG5, nAb5, $D8
	dc.b nAb5, $CC, nG5, nAb5, $D8, nAb5, $CC, nG5
	dc.b nAb5, $D8, nAb5, $CC, nG5, $D8, nAb5, $CC
	dc.b nAb5, nG5, nAb5, $D8, nAb5, $CC, nG5, $D8
	dc.b nAb5, $CC, nAb5, nG5, nAb5, $D8, nAb5, $CC
	dc.b nG5, $D8, nAb5, $CC, nAb5, nG5, nAb5, $D8
	dc.b nAb5, $CC, nG5, nAb5, $D8, nAb5, $CC, nG5
	dc.b nAb5, $D8, nAb5, $CC, nG5, $D8, nAb5, $CC
	dc.b nAb5, nG5, nAb5, $D8, nAb5, $CC, nG5, $D8
	dc.b nAb5, $CC, nAb5, nG5, nAb5, $D8, nAb5, $CC
	dc.b nG5, $D8, nAb5, $CC, nAb5, nG5, nAb5, $D8
	dc.b nAb5, $CC, nG5, nAb5, $D8, nAb5, $CC, nG5
	dc.b nAb5, $D8, nAb5, $CC, nG5, $D8, nAb5, $CC
	dc.b nAb5, nG5, nAb5, $D8, nAb5, $CC, nG5, $D8
	dc.b nAb5, $CC, nAb5, nG5, nAb5, $D8, nAb5, $CC
	dc.b nG5, nAb5, $9B, $C1, $E0, nG5, $C0
	gLoopEnd
	gStop

.02_03	gLoopStart
	dc.b $C0
	gNop
	gsPatch		$03
	dc.b $8B, $CC, nB1, $D8, nB1, $CC, nB1, $97
	dc.b $E4, nB1, $8B, $D8, nD2, nD2, $CC, nD2
	dc.b $97, $E4, nD2, $8B, $D8, nFs2, nFs2, $CC
	dc.b nFs2, $97, $E4, nFs2, $8B, $D8, nB1, nB1
	dc.b $CC, nB1, $97, $E4, nB1, $8B, $D8, nB1
	dc.b nB1, $CC, nB1, $97, $E4, nB1, $8B, $D8
	dc.b nD2, nD2, $CC, nD2, $97, $E4, nD2, $8B
	dc.b $D8, nFs2, nFs2, $CC, nFs2, $97, $E4, nFs2
	dc.b $8B, $D8, nB1, nB1, $CC, nB1, $97, $E4
	dc.b nB1, $8B, $D8, nB1, nB1, $CC, nB1, $97
	dc.b $E4, nB1, $8B, $D8, nD2, nD2, $CC, nD2
	dc.b $97, $E4, nD2, $8B, $D8, nFs2, nFs2, $CC
	dc.b nFs2, $97, $E4, nFs2, $8B, $D8, nB1, nB1
	dc.b $CC, nB1, $97, $E4, nB1, $8B, $D8, nB1
	dc.b nB1, $CC, nB1, $97, $E4, nB1, $8B, $D8
	dc.b nD2, nD2, $CC, nD2, $97, $E4, nD2, $8B
	dc.b $D8, nFs2, nFs2, $CC, nFs2, $97, $E4, nFs2
	dc.b $8B, $D8, nB1, nB1, $CC, nB1, $97, $E4
	dc.b nB1, $8B, $D8, $CC, nE2, $CC, nB1, $D8
	dc.b nB1, $CC, nB1, $97, $E4, nB1, $8B, $D8
	dc.b nD2, nD2, $CC, nD2, $97, $E4, nD2, $8B
	dc.b $D8, nFs2, nFs2, $CC, nFs2, $97, $E4, nFs2
	dc.b $8B, $D8, nB1, nB1, $CC, nB1, $97, $E4
	dc.b nB1, $8B, $D8, nB1, nB1, $CC, nB1, $97
	dc.b $E4, nB1, $8B, $D8, nD2, nD2, $CC, nD2
	dc.b $97, $E4, nD2, $8B, $D8, nFs2, nFs2, $CC
	dc.b nFs2, $97, $E4, nFs2, $8B, $D8, nB1, nB1
	dc.b $CC, nB1, $97, $E4, nB1, $8B, $D8, nB1
	dc.b nB1, $CC, nB1, $97, $E4, nB1, $8B, $D8
	dc.b nD2, nD2, $CC, nD2, $97, $E4, nD2, $8B
	dc.b $D8, nFs2, nFs2, $CC, nFs2, $97, $E4, nFs2
	dc.b $8B, $D8, nB1, nB1, $CC, nB1, $97, $E4
	dc.b nB1, $8B, $D8, nB1, nB1, $CC, nB1, $97
	dc.b $E4, nB1, $8B, $D8, nD2, nD2, $CC, nD2
	dc.b $97, $E4, nD2, $8B, $D8, nFs2, nFs2, $CC
	dc.b nFs2, $97, $E4, nFs2, $8B, $D8, nB1, nB1
	dc.b $CC, nB1, $97, $E4, nB1, $8B, $D8, $CC
	dc.b nE2, $C0
	gLoopEnd
	gStop

.02_04	gLoopStart
	dc.b $C1, $E0, $C0
	gNop
	dc.b $C0
	gsPatch		$7A
	gLoopEnd
	gStop

.02_05	gLoopStart
	dc.b $D8, $C0
	gNop
	dc.b $C0
	gsPatch		$15
	dc.b $AA, nE4, $F0, nG4, $C0, nEb4, $F0, nFs4
	dc.b $A4, $C0, nD4, $E7, nF4, $AB, $C0, nFs4
	dc.b $AA, $F0, nEb4, $B2, $C0, nE4, $F9, nG4
	dc.b $AA, $C0, nEb4, $A8, $F0, nFs4, $A1, $C0
	dc.b nD4, $E5, nF4, $A8, $C0, nCs4, $AA, $EF
	dc.b nE4, $B6, $C0, nE4, $B8, $FC, nG4, $A9
	dc.b $C0, nEb4, $F0, nFs4, $AA, $C0, nD4, $AB
	dc.b $F0, nF4, $9F, $C0, nEb4, $A0, $E5, nFs4
	dc.b $B4, $C0, nE4, $B5, $FB, nG4, $A6, $C0
	dc.b nEb4, $A8, $F0, nFs4, $9E, $C0, nE4, $A0
	dc.b $E4, nG4, $B3, $C0, nF4, $B4, $E4, $FC
	dc.b nAb4, $AA, $C0, nE4, $F0, nG4, $C0, nEb4
	dc.b $F0, nFs4, $A4, $C0, nD4, $E7, nF4, $AB
	dc.b $C0, nFs4, $AA, $F0, nEb4, $B2, $C0, nE4
	dc.b $F9, nG4, $AA, $C0, nEb4, $A8, $F0, nFs4
	dc.b $A1, $C0, nD4, $E5, nF4, $A8, $C0, nCs4
	dc.b $AA, $EF, nE4, $B6, $C0, nE4, $B8, $FC
	dc.b nG4, $A9, $C0, nEb4, $F0, nFs4, $AA, $C0
	dc.b nD4, $AB, $F0, nF4, $9F, $C0, nEb4, $A0
	dc.b $E5, nFs4, $B4, $C0, nE4, $B5, $FB, nG4
	dc.b $A6, $C0, nEb4, $A8, $F0, nFs4, $9E, $C0
	dc.b nE4, $A0, $E4, nG4, $B3, $C0, nF4, $B4
	dc.b $CC, $FC, nAb4, $C0
	gLoopEnd
	gStop

.02_06	gLoopStart
	dc.b $D7, $F7
	gNop
	dc.b $C0
	gsPatch		$02
	dc.b $92, $D5, nE4, $8B, $CC, nE4, nE5, nE5
	dc.b $D8, nEb5, nE5, nEb5, nD5, $97, nF5, $8B
	dc.b $CF, nE5, $92, $D5, nE4, $8B, $CC, nE4
	dc.b nE5, nE5, $D8, nEb5, nE5, $CC, nF5, $8C
	dc.b nF5, $8B, nF5, $97, $F0, nE5, $D8, nE4
	dc.b $8B, $CC, nE4, nE5, nE5, $D8, nEb5, nE5
	dc.b nEb5, nD5, nF5, $CC, nE5, $D8, nE4, $CC
	dc.b nE4, nE5, nE5, $D8, nEb5, nE5, $CC, nE5
	dc.b nEb5, nE5, $A3, $E4, $F3, nF5, $92, $D5
	dc.b nE4, $8B, $CC, nE4, nE5, nE5, $D8, nEb5
	dc.b nE5, nEb5, nD5, $97, nF5, $8B, $CF, nE5
	dc.b $92, $D5, nE4, $8B, $CC, nE4, nE5, nE5
	dc.b $D8, nEb5, nE5, $CC, nF5, $8C, nF5, $8B
	dc.b nF5, $97, $F0, nE5, $D8, nE4, $8B, $CC
	dc.b nE4, nE5, nE5, $D8, nEb5, nE5, nEb5, nD5
	dc.b nF5, $CC, nE5, $D8, nE4, $CC, nE4, nE5
	dc.b nE5, $D8, nEb5, nE5, $CC, nE5, nEb5, nE5
	dc.b $A3, $CC, $FC, nF5, $C0
	gLoopEnd
	gStop

.02_07	gLoopStart
	dc.b $D7, $F4
	gNop
	dc.b $C0
	gsPatch		$28
	dc.b $95, $D8, nG4, $86, $CC, nG4, $CB, nG5
	dc.b $85, $CC, nG5, $88, $D9, nFs5, $D8, nG5
	dc.b nFs5, $87, nF5, $8A, $D7, nAb5, $85, $CD
	dc.b nG5, $D9, nG4, $CB, nG4, $84, $CA, nG5
	dc.b $85, $CE, nG5, $88, $D8, nFs5, $8A, nG5
	dc.b $84, $CC, nAb5, $85, nAb5, nAb5, $99, $EF
	dc.b nG5, $87, $D9, nG4, $86, $CC, nG4, $85
	dc.b nG5, $84, nG5, $87, $D8, nFs5, nG5, $88
	dc.b nFs5, $87, nF5, $89, nAb5, $85, $CC, nG5
	dc.b $8F, $D8, nG4, $89, $CC, nG4, $85, nG5
	dc.b $87, nG5, $86, $D8, nFs5, $8A, nG5, $85
	dc.b $CC, nG5, $89, nFs5, $85, nG5, $9F, $E4
	dc.b $F0, nAb5, $95, $D8, nG4, $86, $CC, nG4
	dc.b $CB, nG5, $85, $CC, nG5, $88, $D9, nFs5
	dc.b $D8, nG5, nFs5, $87, nF5, $8A, $D7, nAb5
	dc.b $85, $CD, nG5, $D9, nG4, $CB, nG4, $84
	dc.b $CA, nG5, $85, $CE, nG5, $88, $D8, nFs5
	dc.b $8A, nG5, $84, $CC, nAb5, $85, nAb5, nAb5
	dc.b $99, $EF, nG5, $87, $D9, nG4, $86, $CC
	dc.b nG4, $85, nG5, $84, nG5, $87, $D8, nFs5
	dc.b nG5, $88, nFs5, $87, nF5, $89, nAb5, $85
	dc.b $CC, nG5, $8F, $D8, nG4, $89, $CC, nG4
	dc.b $85, nG5, $87, nG5, $86, $D8, nFs5, $8A
	dc.b nG5, $85, $CC, nG5, $89, nFs5, $85, nG5
	dc.b $9F, $CC, $FC, nAb5, $C0
	gLoopEnd
	gStop

.02_08	gLoopStart
	dc.b $C0
	gNop
	gsPatch		$2F
	dc.b $96, $D8, nA4, $86, $CC, nFs4, nB4, $95
	dc.b $D8, nA4, $86, $CC, nFs4, $8B, $D8, nA4
	dc.b $87, $CC, nA4, $85, nFs4, nB4, $97, $D8
	dc.b nA4, $88, nFs4, $98, nE4, $86, $CC, nCs4
	dc.b $85, nFs4, $95, $D8, nE4, $88, $CC, nCs4
	dc.b $D8, nD4, $CC, nD4, $86, nB3, $85, nE4
	dc.b $96, $D8, nD4, $91, nB3, $97, nA4, $88
	dc.b $CC, nFs4, $86, nB4, $96, $D8, nA4, $8C
	dc.b $CC, nFs4, $D8, nA4, $88, $CC, nA4, $8B
	dc.b nFs4, $C0, nB4, $82, $CC, nBb4, $98, $D8
	dc.b nA4, $96, nFs4, $97, nE4, $88, $CC, nCs4
	dc.b $86, nFs4, $97, $D8, nE4, $8E, $CC, nCs4
	dc.b $8A, $D8, nD4, $CC, nD4, nB3, $89, nE4
	dc.b $98, $D8, nD4, $95, nB4, $96, nA4, $86
	dc.b $CC, nFs4, nB4, $95, $D8, nA4, $86, $CC
	dc.b nFs4, $8B, $D8, nA4, $87, $CC, nA4, $85
	dc.b nFs4, nB4, $97, $D8, nA4, $88, nFs4, $98
	dc.b nE4, $86, $CC, nCs4, $85, nFs4, $95, $D8
	dc.b nE4, $88, $CC, nCs4, $D8, nD4, $CC, nD4
	dc.b $86, nB3, $85, nE4, $96, $D8, nD4, $91
	dc.b nB3, $97, nA4, $88, $CC, nFs4, $86, nB4
	dc.b $96, $D8, nA4, $8C, $CC, nFs4, $D8, nA4
	dc.b $88, $CC, nA4, $8B, nFs4, $C0, nB4, $82
	dc.b $CC, nBb4, $98, $D8, nA4, $96, nFs4, $97
	dc.b nE4, $88, $CC, nCs4, $86, nFs4, $97, $D8
	dc.b nE4, $8E, $CC, nCs4, $8A, $D8, nD4, $CC
	dc.b nD4, nB3, $89, nE4, $98, $D8, nD4, $95
	dc.b $D8, $D8, nB4, $96, $D8, nA4, $86, $CC
	dc.b nFs4, nB4, $95, $D8, nA4, $86, $CC, nFs4
	dc.b $8B, $D8, nA4, $87, $CC, nA4, $85, nFs4
	dc.b nB4, $97, $D8, nA4, $88, nFs4, $98, nE4
	dc.b $86, $CC, nCs4, $85, nFs4, $95, $D8, nE4
	dc.b $88, $CC, nCs4, $D8, nD4, $CC, nD4, $86
	dc.b nB3, $85, nE4, $96, $D8, nD4, $91, nB3
	dc.b $97, nA4, $88, $CC, nFs4, $86, nB4, $96
	dc.b $D8, nA4, $8C, $CC, nFs4, $D8, nA4, $88
	dc.b $CC, nA4, $8B, nFs4, $C0, nB4, $82, $CC
	dc.b nBb4, $98, $D8, nA4, $96, nFs4, $97, nE4
	dc.b $88, $CC, nCs4, $86, nFs4, $97, $D8, nE4
	dc.b $8E, $CC, nCs4, $8A, $D8, nD4, $CC, nD4
	dc.b nB3, $89, nE4, $98, $D8, nD4, $95, nB4
	dc.b $96, nA4, $86, $CC, nFs4, nB4, $95, $D8
	dc.b nA4, $86, $CC, nFs4, $8B, $D8, nA4, $87
	dc.b $CC, nA4, $85, nFs4, nB4, $97, $D8, nA4
	dc.b $88, nFs4, $98, nE4, $86, $CC, nCs4, $85
	dc.b nFs4, $95, $D8, nE4, $88, $CC, nCs4, $D8
	dc.b nD4, $CC, nD4, $86, nB3, $85, nE4, $96
	dc.b $D8, nD4, $91, nB3, $97, nA4, $88, $CC
	dc.b nFs4, $86, nB4, $96, $D8, nA4, $8C, $CC
	dc.b nFs4, $D8, nA4, $88, $CC, nA4, $8B, nFs4
	dc.b $C0, nB4, $82, $CC, nBb4, $98, $D8, nA4
	dc.b $96, nFs4, $97, nE4, $88, $CC, nCs4, $86
	dc.b nFs4, $97, $D8, nE4, $8E, $CC, nCs4, $8A
	dc.b $D8, nD4, $CC, nD4, nB3, $89, nE4, $98
	dc.b $D8, nD4, $95, $D8, $D8, nB4, $C0
	gLoopEnd
	gStop

.04_00	dc.b $C0
	gStore		$00, $00
	gsTempo		98
	gLoopStart
	dc.b $DE, $C0
	gNop
	dc.b $C0
	gsPatch		$04
	dc.b $86, $C5, nE3, $CD, nE2, $E3, nE2, $C6
	dc.b nE2, $85, nG2, $86, nA2, $8B, $CC, nBb2
	dc.b $89, $CD, nA2, $86, $C6, nE2, $87, $CC
	dc.b nE3, $86, $C1, $CD, nE2, $C6, nE3, $CD
	dc.b nE2, $E3, nE2, $C6, nE2, $85, nG2, $86
	dc.b nA2, $8B, $CC, nBb2, $89, $CD, nA2, $86
	dc.b $C6, nE2, $87, $CC, nE3, $86, $C1, $CD
	dc.b nE2, $C6, nE3, $CD, nE2, $E3, nE2, $C6
	dc.b nE2, $85, nG2, $86, nA2, $8B, $CC, nBb2
	dc.b $89, $CD, nA2, $86, $C6, nE2, $87, $CC
	dc.b nE3, $86, $C1, $CD, nE2, $C6, nE3, $CD
	dc.b nE2, $E3, nE2, $C6, nE2, $85, nG2, $86
	dc.b nA2, $8B, $CC, nBb2, $89, $CD, nA2, $86
	dc.b $C6, nE2, $87, $CC, nE3, $86, $C1, $CD
	dc.b nE2, $D8, $C1, nE3, $C0
	gLoopEnd
	gStop

.04_01	gLoopStart
	dc.b $D2, $C5
	gNop
	dc.b $C0
	gsPatch		$14
	dc.b $86, $CD, nE2, $E3, nE2, $C6, nE2, $85
	dc.b nG2, $86, nA2, $8B, $CC, nBb2, $89, $CD
	dc.b nA2, $86, $C6, nE2, $87, $CC, nE3, $86
	dc.b $C1, $CD, nE2, $C6, nE3, $CD, nE2, $E3
	dc.b nE2, $C6, nE2, $85, nG2, $86, nA2, $8B
	dc.b $CC, nBb2, $89, $CD, nA2, $86, $C6, nE2
	dc.b $87, $CC, nE3, $86, $C6, nE2, $CC, nE3
	dc.b $C6, nE2, $B6, $C6, $F6, nE3, $86, $C5
	dc.b nE3, $CD, nE2, $E3, nE2, $C6, nE2, $85
	dc.b nG2, $86, nA2, $8B, $CC, nBb2, $89, $CD
	dc.b nA2, $86, $C6, nE2, $87, $CC, nE3, $86
	dc.b $C1, $CD, nE2, $C6, nE3, $CD, nE2, $E3
	dc.b nE2, $C6, nE2, $85, nG2, $86, nA2, $8B
	dc.b $CC, nBb2, $89, $CD, nA2, $86, $C6, nE2
	dc.b $87, $CC, nE3, $86, $C1, $CD, nE2, $C6
	dc.b $C6, nE3, $CD, nE2, $E3, nE2, $C6, nE2
	dc.b $85, nG2, $86, nA2, $8B, $CC, nBb2, $89
	dc.b $CD, nA2, $86, $C6, nE2, $87, $CC, nE3
	dc.b $86, $C1, $CD, nE2, $C6, nE3, $CD, nE2
	dc.b $E3, nE2, $C6, nE2, $85, nG2, $86, nA2
	dc.b $8B, $CC, nBb2, $89, $CD, nA2, $86, $C6
	dc.b nE2, $87, $CC, nE3, $86, $C1, $D3, nE2
	dc.b $CD, nE2, $E3, nE2, $C6, nE2, $85, nG2
	dc.b $86, nA2, $8B, $CC, nBb2, $89, $CD, nA2
	dc.b $86, $C6, nE2, $87, $CC, nE3, $86, $C1
	dc.b $CD, nE2, $C6, nE3, $CD, nE2, $E3, nE2
	dc.b $C6, nE2, $85, nG2, $86, nA2, $8B, $CC
	dc.b nBb2, $89, $CD, nA2, $86, $C6, nE2, $87
	dc.b $CC, nE3, $86, $C6, nE2, $CC, nE3, $C6
	dc.b nE2, $98, $C6, $F6, nE3, $86, $C6, nD2
	dc.b $81, $8E, $C1, $DA, nC2, $86, $C6, nD2
	dc.b $81, $93, $C1, $DA, nC2, $86, $C6, nD2
	dc.b $81, $93, $C1, $DA, nC2, $86, $C6, nD2
	dc.b $92, $D2, nC2, $86, $C6, nD2, $93, $D2
	dc.b nC2, $86, $C6, nD2, nC2, nD2, $85, nC2
	dc.b $8C, $CC, nD2, nC2, $C0
	gLoopEnd
	gStop

.04_02	gLoopStart
	dc.b $C0
	gNop
	gsPatch		$42
	dc.b $86, $C5, nE3, $CD, nE2, $E3, nE2, $C6
	dc.b nE2, $85, nG2, $86, nA2, $8B, $CC, nBb2
	dc.b $89, $CD, nA2, $86, $C6, nE2, $87, $CC
	dc.b nE3, $86, $C1, $CD, nE2, $C6, nE3, $CD
	dc.b nE2, $E3, nE2, $C6, nE2, $85, nG2, $86
	dc.b nA2, $8B, $CC, nBb2, $89, $CD, nA2, $86
	dc.b $C6, nE2, $87, $CC, nE3, $86, $C1, $CD
	dc.b nE2, $C6, nE3, $CD, nE2, $E3, nE2, $C6
	dc.b nE2, $85, nG2, $86, nA2, $8B, $CC, nBb2
	dc.b $89, $CD, nA2, $86, $C6, nE2, $87, $CC
	dc.b nE3, $86, $C1, $CD, nE2, $C6, nE3, $CD
	dc.b nE2, $E3, nE2, $C6, nE2, $85, nG2, $86
	dc.b nA2, $8B, $CC, nBb2, $89, $CD, nA2, $86
	dc.b $C6, nE2, $87, $CC, nE3, $86, $C1, $CD
	dc.b nE2, $C6, nE3, $CD, nE2, $E3, nE2, $C6
	dc.b nE2, $85, nG2, $86, nA2, $8B, $CC, nBb2
	dc.b $89, $CD, nA2, $86, $C6, nE2, $87, $CC
	dc.b nE3, $86, $C1, $CD, nE2, $C6, nE3, $CD
	dc.b nE2, $E3, nE2, $C6, nE2, $85, nG2, $86
	dc.b nA2, $8B, $CC, nBb2, $89, $CD, nA2, $86
	dc.b $C6, nE2, $87, $CC, nE3, $86, $C1, $CD
	dc.b nE2, $C6, nE3, $CD, nE2, $E3, nE2, $C6
	dc.b nE2, $85, nG2, $86, nA2, $8B, $CC, nBb2
	dc.b $89, $CD, nA2, $86, $C6, nE2, $87, $CC
	dc.b nE3, $86, $C1, $CD, nE2, $C6, nE3, $CD
	dc.b nE2, $E3, nE2, $C6, nE2, $85, nG2, $86
	dc.b nA2, $8B, $CC, nBb2, $89, $CD, nA2, $86
	dc.b $C6, nE2, $87, $CC, nE3, $86, $C6, nE2
	dc.b $CC, nE3, $C6, nE2, $98, $FC, nE3, $86
	dc.b $C6, nD2, $8C, $C1, $DA, nC2, $86, $C6
	dc.b nD2, $8C, $C1, $DA, nC2, $86, $C6, nD2
	dc.b $8C, $C1, $DA, nC2, $86, $C6, nD2, $D2
	dc.b nC2, $C6, nD2, $D2, nC2, $C6, nD2, nC2
	dc.b nD2, nC2, nD2, $8C, $CC, $D1, nC2, $86
	dc.b $CD, nE2, $E3, nE2, $C6, nE2, $85, nG2
	dc.b $86, nA2, $8B, $CC, nBb2, $89, $CD, nA2
	dc.b $86, $C6, nE2, $87, $CC, nE3, $86, $C1
	dc.b $CD, nE2, $C6, nE3, $CD, nE2, $E3, nE2
	dc.b $C6, nE2, $85, nG2, $86, nA2, $8B, $CC
	dc.b nBb2, $89, $CD, nA2, $86, $C6, nE2, $87
	dc.b $CC, nE3, $86, $C1, $CD, nE2, $C6, nE3
	dc.b $CD, nE2, $E3, nE2, $C6, nE2, $85, nG2
	dc.b $86, nA2, $8B, $CC, nBb2, $89, $CD, nA2
	dc.b $86, $C6, nE2, $87, $CC, nE3, $86, $C1
	dc.b $CD, nE2, $C6, nE3, $CD, nE2, $E3, nE2
	dc.b $C6, nE2, $85, nG2, $86, nA2, $8B, $CC
	dc.b nBb2, $89, $CD, nA2, $86, $C6, nE2, $87
	dc.b $CC, nE3, $86, $C6, nE2, $CC, nE3, $C6
	dc.b nE2, $98, $FC, nE3, $86, $C6, nD2, $8C
	dc.b $C1, $DA, nC2, $86, $C6, nD2, $8C, $C1
	dc.b $DA, nC2, $86, $C6, nD2, $8C, $C1, $DA
	dc.b nC2, $86, $C6, nD2, $D2, nC2, $C6, nD2
	dc.b $D2, nC2, $C6, nD2, nC2, nD2, nC2, nD2
	dc.b $8C, $D2, nC2, $86, $C6, nD2, $8C, $C1
	dc.b $DA, nC2, $86, $C6, nD2, $8C, $C1, $DA
	dc.b nC2, $86, $C6, nD2, $8C, $C1, $DA, nC2
	dc.b $86, $C6, nD2, $D2, nC2, $C6, nD2, $D2
	dc.b nC2, $C6, nD2, nC2, nD2, nC2, nD2, $8C
	dc.b $CC, nC2, $C0
	gLoopEnd
	gStop

.04_03	gLoopStart
	dc.b $CC
	gNop
	dc.b $C0
	gsPatch		$3B
	dc.b $86, $C6, nD4, $D2, nD4, $C6, nD4, $D2
	dc.b nD4, $C6, nD4, $D2, nD4, $C6, nD4, $D2
	dc.b nD4, $C6, nD4, $D2, nD4, $C6, nD4, $D2
	dc.b nD4, $C6, nD4, $D2, nD4, $C6, nD4, $D2
	dc.b nD4, $C6, nD4, $D2, nD4, $C6, nD4, $D2
	dc.b nD4, $C6, nD4, $D2, nD4, $C6, nD4, $D2
	dc.b nD4, $C6, nD4, $D2, nD4, $C6, nD4, $D2
	dc.b nD4, $C6, nD4, $D2, nD4, $C6, nD4, $D2
	dc.b nD4, $C6, nD4, $D2, nD4, $C6, nD4, $D2
	dc.b nD4, $C6, nD4, $D2, nD4, $C6, nD4, $D2
	dc.b nD4, $C6, nD4, $D2, nD4, $C6, nD4, $D2
	dc.b nD4, $C6, nD4, $D2, nD4, $C6, nD4, $D2
	dc.b nD4, $C6, nD4, $D2, nD4, $C6, nD4, $D2
	dc.b nD4, $C6, nD4, $D2, nD4, $C6, nD4, $D2
	dc.b nD4, $C6, nD4, $D2, nD4, $C6, nD4, $D2
	dc.b nD4, $C6, nD4, $D2, nD4, $C6, nD4, $D2
	dc.b nD4, $C6, nD4, $D2, nD4, $C6, nD4, $D2
	dc.b nD4, $C6, nD4, $D2, nD4, $C6, nD4, $D2
	dc.b nD4, $C6, nD4, $D2, nD4, $C6, nD4, $D2
	dc.b nD4, $C6, nD4, $D2, nD4, $C6, nD4, $D2
	dc.b nD4, $C6, nD4, $D2, nD4, $C6, nD4, $D2
	dc.b nD4, $C6, nD4, $D2, nD4, $C6, nD4, $D2
	dc.b nD4, $C6, nD4, $D2, nD4, $C6, nD4, $D2
	dc.b nD4, $C6, nD4, $D2, nD4, $C6, nD4, $D2
	dc.b nD4, $C6, nD4, $D2, nD4, $C6, nD4, $D2
	dc.b nD4, $C6, nD4, $D2, nD4, $C6, nD4, $D2
	dc.b nD4, $C6, nD4, $D2, nD4, $C6, nD4, $D2
	dc.b nD4, $C6, nD4, $D2, nD4, $C6, nD4, $D2
	dc.b nD4, $C6, nD4, $D2, nD4, $C6, nD4, $D2
	dc.b nD4, $C6, nD4, $D2, nD4, $C6, nD4, $D2
	dc.b nD4, $C6, nD4, $D2, nD4, $C6, nD4, $D2
	dc.b nD4, $C6, nD4, $D2, nD4, $C6, nD4, $D2
	dc.b nD4, $C6, nD4, $D2, nD4, $C6, nD4, $D2
	dc.b nD4, $C6, nD4, $D2, nD4, $C6, nD4, $D2
	dc.b nD4, $C6, nD4, $D2, nD4, $C6, nD4, $D2
	dc.b nD4, $C6, nD4, $D2, nD4, $C6, nD4, $D2
	dc.b nD4, $C6, nD4, $D2, nD4, $C6, nD4, $D2
	dc.b nD4, $C6, nD4, $D2, nD4, $C6, nD4, $D2
	dc.b nD4, $C6, nD4, $D2, nD4, $C6, nD4, $D2
	dc.b nD4, $C6, nD4, $D2, nD4, $C6, nD4, $D2
	dc.b nD4, $C6, nD4, $D2, nD4, $C6, nD4, $D2
	dc.b nD4, $C6, nD4, $D2, nD4, $C6, nD4, $D2
	dc.b nD4, $C6, nD4, $D2, nD4, $C6, nD4, $D2
	dc.b nD4, $C6, nD4, $D2, nD4, $C6, nD4, $D2
	dc.b nD4, $C6, nD4, $D2, nD4, $C6, nD4, $D2
	dc.b nD4, $C6, nD4, $D2, nD4, $C6, nD4, $D2
	dc.b nD4, $C6, nD4, $D2, nD4, $C6, nD4, $D2
	dc.b nD4, $C6, nD4, $D2, nD4, $C6, nD4, $D2
	dc.b nD4, $C6, nD4, $D2, nD4, $C6, nD4, $D2
	dc.b nD4, $C6, nD4, $D2, nD4, $C6, nD4, $D2
	dc.b nD4, $C6, nD4, $D2, nD4, $C6, nD4, $D2
	dc.b nD4, $C6, nD4, $D2, nD4, $C6, nD4, $D2
	dc.b nD4, $C6, nD4, $D2, nD4, $C6, nD4, $D2
	dc.b nD4, $C6, nD4, $D2, nD4, $C6, nD4, $D2
	dc.b nD4, $C6, nD4, $D2, nD4, $C6, nD4, $D2
	dc.b nD4, $C6, nD4, $D2, nD4, $C6, nD4, $D2
	dc.b nD4, $C6, nD4, $D2, nD4, $C6, nD4, $D2
	dc.b nD4, $C6, nD4, $D2, nD4, $C6, nD4, $D2
	dc.b nD4, $C6, nD4, $D2, nD4, $C6, nD4, $D2
	dc.b nD4, $C6, nD4, $D2, nD4, $C6, nD4, $D2
	dc.b nD4, $C6, nD4, $D2, nD4, $C6, nD4, $D2
	dc.b nD4, $C6, nD4, $D2, nD4, $C6, nD4, $D2
	dc.b nD4, $C6, nD4, $D2, nD4, $C6, nD4, $D2
	dc.b nD4, $C6, nD4, $D2, nD4, $C6, nD4, $D2
	dc.b nD4, $C6, nD4, $D2, nD4, $C6, nD4, $D2
	dc.b nD4, $C6, nD4, $D2, nD4, $C6, nD4, $D2
	dc.b nD4, $C6, nD4, $D2, nD4, $C6, nD4, $D2
	dc.b nD4, $C6, nD4, $D2, nD4, $C6, nD4, $D2
	dc.b nD4, $C6, nD4, $D2, nD4, $C6, nD4, $D2
	dc.b nD4, $C6, nD4, $D2, nD4, $C6, nD4, $D2
	dc.b nD4, $C6, nD4, $D2, nD4, $C6, nD4, $D2
	dc.b nD4, $C6, nD4, $D2, nD4, $C6, nD4, $D2
	dc.b nD4, $C6, nD4, $D2, nD4, $C6, nD4, $D2
	dc.b nD4, $C6, nD4, $D2, nD4, $C6, nD4, $D2
	dc.b nD4, $C6, nD4, $D2, nD4, $C6, nD4, $D2
	dc.b nD4, $C6, nD4, $D2, nD4, $C6, nD4, $D2
	dc.b nD4, $C6, nD4, $D2, nD4, $C6, nD4, $D2
	dc.b nD4, $C6, nD4, $D2, nD4, $C6, nD4, $D2
	dc.b nD4, $C6, nD4, $D2, nD4, $C6, nD4, $D2
	dc.b nD4, $C6, nD4, $D2, nD4, $C6, nD4, $D2
	dc.b nD4, $C6, nD4, $D2, nD4, $C6, nD4, $D2
	dc.b nD4, $C6, nD4, $D2, nD4, $C6, nD4, $D2
	dc.b nD4, $C6, nD4, $D2, nD4, $C6, nD4, $D2
	dc.b nD4, $C6, nD4, $D2, nD4, $C6, nD4, $D2
	dc.b nD4, $C6, nD4, $D2, nD4, $C6, nD4, $D2
	dc.b nD4, $C6, nD4, $D2, nD4, $C6, nD4, $D2
	dc.b nD4, $C6, nD4, $D2, nD4, $C6, nD4, $D2
	dc.b nD4, $C6, nD4, $D2, nD4, $C6, nD4, nD4
	dc.b $C0
	gLoopEnd
	gStop

.04_04	gLoopStart
	dc.b $D2, $C0
	gNop
	dc.b $8C, $CC, nE4, $86, $C6, nG4, nB4, $8C
	dc.b $CC, nE4, $86, $C6, nG4, nB4, $8C, $CC
	dc.b nE4, $86, $C6, nC5, nEb4, $8C, $CC, nE4
	dc.b $86, $C6, nFs4, $C1, $E6, nG4, $8C, $CC
	dc.b nE4, $86, $C6, nG4, nB4, $8C, $CC, nE4
	dc.b $86, $C6, nG4, nB4, $8C, $CC, nE4, $86
	dc.b $C6, nC5, nEb4, $8C, $CC, nE4, $86, $C6
	dc.b nFs4, $C7, $E6, nE4, $C0
	gsPatch		$10
	dc.b $8C, $CC, nB4, $86, $C6, nE4, nG4, $8C
	dc.b $CC, nB4, $86, $C6, nE4, nG4, $8C, $CC
	dc.b nC5, $86, $C6, nEb4, nE4, $8C, $CC, nG4
	dc.b $86, $C6, nFs4, nE4, $92, $C1, $E0, nE4
	dc.b $8C, $CC, nB4, $86, $C6, nE4, nG4, $8C
	dc.b $CC, nB4, $86, $C6, nE4, nG4, $8C, $CC
	dc.b nC5, $86, $C6, nEb4, nE4, $8C, $CC, nG4
	dc.b $86, $C6, nFs4, nE4, $92, $C1, $E0, nE4
	dc.b $8C, $CC, nB4, $86, $C6, nE4, nG4, $8C
	dc.b $CC, nB4, $86, $C6, nE4, nG4, $8C, $CC
	dc.b nC5, $86, $C6, nEb4, nE4, $8C, $CC, nG4
	dc.b $86, $C6, nFs4, nE4, $92, $C1, $E0, nE4
	dc.b $8C, $CC, nB4, $86, $C6, nE4, nG4, $8C
	dc.b $CC, nB4, $86, $C6, nE4, nG4, $8C, $CC
	dc.b nC5, $86, $C6, nEb4, nE4, $8C, $CC, nG4
	dc.b $86, $C6, nFs4, nE4, $92, $D9, $E0, nE4
	dc.b $C0
	gLoopEnd
	gStop

.04_05	gLoopStart
	dc.b $C6
	gNop
	dc.b $C0
	gsPatch		$43
	dc.b $86, $C6, nE3, $F0, nE2, $85, $C6, nE2
	dc.b nG2, nA2, $8B, $CC, nBb2, $89, nA2, $86
	dc.b $C6, nE2, $87, $C1, $DA, nE3, $86, $C6
	dc.b nE3, $F0, nE2, $85, $C6, nE2, nG2, nA2
	dc.b $8B, $CC, nBb2, $89, nA2, $86, $C6, nE2
	dc.b $87, $C1, $DA, nE3, $86, $C6, nE3, $F0
	dc.b nE2, $85, $C6, nE2, nG2, nA2, $8B, $CC
	dc.b nBb2, $89, nA2, $86, $C6, nE2, $87, $C1
	dc.b $DA, nE3, $86, $C6, nE3, $F0, nE2, $85
	dc.b $C6, nE2, nG2, nA2, $8B, $CC, nBb2, $89
	dc.b nA2, $86, $C6, nE2, $87, $C1, $DA, nE3
	dc.b $86, $C6, nE3, $F0, nE2, $85, $C6, nE2
	dc.b nG2, nA2, $8B, $CC, nBb2, $89, nA2, $86
	dc.b $C6, nE2, $87, $C1, $DA, nE3, $86, $C6
	dc.b nE3, $F0, nE2, $85, $C6, nE2, nG2, nA2
	dc.b $8B, $CC, nBb2, $89, nA2, $86, $C6, nE2
	dc.b $87, $C1, $DA, nE3, $86, $C6, nE3, $F0
	dc.b nE2, $85, $C6, nE2, nG2, nA2, $8B, $CC
	dc.b nBb2, $89, nA2, $86, $C6, nE2, $87, $C1
	dc.b $DA, nE3, $86, $C6, nE3, $F0, nE2, $85
	dc.b $C6, nE2, nG2, nA2, $8B, $CC, nBb2, $89
	dc.b $D2, nA2, $86, $C6, nE2, $CC, nE3, $C6
	dc.b nE2, $CC, nE3, $C6, nE2, $98, $EA, nE3
	dc.b $86, $C6, nD2, $C1, $DA, nC2, $C6, nD2
	dc.b $C1, $DA, nC2, $C6, nD2, $C1, $DA, nC2
	dc.b $C6, nD2, $D2, nC2, $C6, nD2, $D2, nC2
	dc.b $C6, nD2, nC2, nD2, nC2, $8C, $CC, nD2
	dc.b $CC, $D2, nC2, $86, $C6, nE3, $F0, nE2
	dc.b $85, $C6, nE2, nG2, nA2, $8B, $CC, nBb2
	dc.b $89, nA2, $86, $C6, nE2, $87, $C1, $DA
	dc.b nE3, $86, $C6, nE3, $F0, nE2, $85, $C6
	dc.b nE2, nG2, nA2, $8B, $CC, nBb2, $89, nA2
	dc.b $86, $C6, nE2, $87, $C1, $DA, nE3, $86
	dc.b $C6, nE3, $F0, nE2, $85, $C6, nE2, nG2
	dc.b nA2, $8B, $CC, nBb2, $89, nA2, $86, $C6
	dc.b nE2, $87, $C1, $DA, nE3, $86, $C6, nE3
	dc.b $F0, nE2, $85, $C6, nE2, nG2, nA2, $8B
	dc.b $CC, nBb2, $89, nA2, $86, $C6, nE2, $87
	dc.b $C1, $D4, nE3, $86, $C6, nD2, $C1, $DA
	dc.b nC2, $C6, nD2, $C1, $DA, nC2, $C6, nD2
	dc.b $C1, $DA, nC2, $C6, nD2, $D2, nC2, $C6
	dc.b nD2, $D2, nC2, $C6, nD2, nC2, nD2, nC2
	dc.b $8C, $CC, nD2, nC2, $86, $C6, nD2, $C1
	dc.b $DA, nC2, $C6, nD2, $C1, $DA, nC2, $C6
	dc.b nD2, $C1, $DA, nC2, $C6, nD2, $D2, nC2
	dc.b $C6, nD2, $D2, nC2, $C6, nD2, nC2, nD2
	dc.b nC2, $8C, $CC, nD2, nC2, $C0
	gLoopEnd
	gStop

.04_06	gLoopStart
	dc.b $DE, $CC
	gNop
	dc.b $C0
	gsPatch		$7A
	dc.b $86, $C6, nC5, $D2, nC5, $C6, nC5, $D2
	dc.b nC5, $C6, nC5, $D2, nC5, $C6, nC5, $D2
	dc.b nC5, $C6, nD5, $D2, nCs4, $C6, nD5, $D2
	dc.b nCs4, $C6, nD5, $D2, nCs4, $C6, nD5, $D2
	dc.b nCs4, $C6, nC5, $D2, nC5, $C6, nC5, $D2
	dc.b nC5, $C6, nC5, $D2, nC5, $C6, nC5, $D2
	dc.b nC5, $C6, nD5, $D2, nCs4, $C6, nD5, $D2
	dc.b nCs4, $C6, nD5, $D2, nCs4, $C6, nD5, $D2
	dc.b nCs4, $C6, nC5, $D2, nC5, $C6, nC5, $D2
	dc.b nC5, $C6, nC5, $D2, nC5, $C6, nC5, $D2
	dc.b nC5, $C6, nD5, $D2, nCs4, $C6, nD5, $D2
	dc.b nCs4, $C6, nD5, $D2, nCs4, $C6, nD5, $D2
	dc.b nCs4, $C6, nB4, $D2, nB4, $C6, nB4, $D2
	dc.b nB4, $C6, nB4, $D2, nB4, $C6, nB4, $D2
	dc.b nB4, $C6, nD5, $D2, nCs4, $C6, nD5, $D2
	dc.b nCs4, $C6, nD5, $D2, nCs4, $C6, nD5, $D2
	dc.b $D2, nCs4, $C6, nC5, $D2, nC5, $C6, nC5
	dc.b $D2, nC5, $C6, nC5, $D2, nC5, $C6, nC5
	dc.b $D2, nC5, $C6, nD5, $D2, nCs4, $C6, nD5
	dc.b $D2, nCs4, $C6, nD5, $D2, nCs4, $C6, nD5
	dc.b $D2, nCs4, $C6, nC5, $D2, nC5, $C6, nC5
	dc.b $D2, nC5, $C6, nC5, $D2, nC5, $C6, nC5
	dc.b $D2, nC5, $C6, nD5, $D2, nCs4, $C6, nD5
	dc.b $D2, nCs4, $C6, nD5, $D2, nCs4, $C6, nD5
	dc.b nCs4, $C0
	gLoopEnd
	gStop

.04_07	gLoopStart
	dc.b $C0
	gNop
	gsPatch		$7A
	dc.b $8C, $D8, nG5, nG5, nG5, nG5, nG5, nG5
	dc.b nG5, nG5, nG5, nG5, nG5, nG5, nG5, nG5
	dc.b nG5, nG5, nG5, nG5, nG5, nG5, nG5, nG5
	dc.b nG5, nG5, nG5, nG5, nG5, nG5, nG5, nG5
	dc.b nG5, nG5, nG5, nG5, nG5, nG5, nG5, nG5
	dc.b nG5, nG5, nG5, nG5, nG5, nG5, nG5, nG5
	dc.b nG5, nG5, nG5, nG5, nG5, nG5, nG5, nG5
	dc.b nG5, nG5, nG5, nG5, nG5, nG5, nG5, nG5
	dc.b nG5, nG5, nG5, nG5, nG5, nG5, nG5, nG5
	dc.b nG5, nG5, nG5, nG5, nG5, nG5, nG5, nG5
	dc.b nG5, nG5, nG5, nG5, nG5, nG5, nG5, nG5
	dc.b nG5, nG5, nG5, nG5, nG5, nG5, nG5, nG5
	dc.b nG5, nG5, nG5, nG5, nG5, nG5, nG5, nG5
	dc.b nG5, nG5, nG5, nG5, nG5, nG5, nG5, nG5
	dc.b nG5, nG5, nG5, nG5, nG5, nG5, nG5, nG5
	dc.b nG5, nG5, nG5, nG5, nG5, nG5, nG5, nG5
	dc.b nG5, nG5, nG5, nG5, nG5, nG5, nG5, nG5
	dc.b nG5, nG5, nG5, nG5, nG5, nG5, nG5, nG5
	dc.b nG5, nG5, nG5, nG5, nG5, nG5, nG5, nG5
	dc.b nG5, nG5, nG5, nG5, nG5, nG5, nG5, nG5
	dc.b nG5, nG5, nG5, nG5, nG5, nG5, nG5, nG5
	dc.b nG5, nG5, nG5, nG5, nG5, nG5, nG5, nG5
	dc.b nG5, nG5, $C0
	gLoopEnd
	gStop

.04_08	dc.b $C0
	gsPrio		$7E
	gLoopStart
	dc.b $C6, $C0
	gNop
	dc.b $C0
	gsPatch		$41
	dc.b $86, $C6, nE3, $87, $CC, nE2, $E4, nE2
	dc.b $86, $C6, nE2, $85, nG2, $86, nA2, $8B
	dc.b $CC, nBb2, $89, nA2, $86, $C6, nE2, $87
	dc.b $CC, nE3, $86, $C1, $CE, nE2, $C6, nE3
	dc.b $87, $CC, nE2, $E4, nE2, $86, $C6, nE2
	dc.b $85, nG2, $86, nA2, $8B, $CC, nBb2, $89
	dc.b nA2, $86, $C6, nE2, $87, $CC, nE3, $86
	dc.b $C1, $CE, nE2, $C6, nE3, $87, $CC, nE2
	dc.b $E4, nE2, $86, $C6, nE2, $85, nG2, $86
	dc.b nA2, $8B, $CC, nBb2, $89, nA2, $86, $C6
	dc.b nE2, $87, $CC, nE3, $86, $C1, $CE, nE2
	dc.b $C6, nE3, $87, $CC, nE2, $E4, nE2, $86
	dc.b $C6, nE2, $85, nG2, $86, nA2, $8B, $CC
	dc.b nBb2, $89, nA2, $86, $C6, nE2, $87, $CC
	dc.b nE3, $86, $C7, $CE, nE2, $C6, nD2, $81
	dc.b $8C, $C1, $DA, nC2, $86, $C6, nD2, $81
	dc.b $93, $C1, $DA, nC2, $86, $C6, nD2, $81
	dc.b $93, $C1, $DA, nC2, $86, $C6, nD2, $92
	dc.b $D2, nC2, $86, $C6, nD2, $93, $D2, nC2
	dc.b $86, $C6, nD2, nC2, nD2, $C5, nC2, $8C
	dc.b $CC, nD2, $D2, $CD, nC2, $87, $C8, nE3
	dc.b $CA, nE2, $88, $E3, nE2, $87, $C7, nE2
	dc.b $86, $C6, nG2, nA2, $8D, $CD, nBb2, $8B
	dc.b $CB, nA2, $86, $C6, nE2, $87, $CC, nE3
	dc.b $86, $C1, $CE, nE2, $87, $C6, nE3, $CC
	dc.b nE2, $86, $E4, nE2, $C6, nE2, nG2, nA2
	dc.b $8A, $CD, nBb2, $87, $CB, nA2, $86, $C6
	dc.b nE2, $CC, nE3, $84, $C6, nE2, $87, $CC
	dc.b nE3, $85, $C6, nE2, $A8, $F6, nE3, $86
	dc.b $C6, nD2, $81, $8E, $C1, $DA, nC2, $86
	dc.b $C6, nD2, $81, $93, $C1, $DA, nC2, $86
	dc.b $C6, nD2, $81, $93, $C1, $DA, nC2, $86
	dc.b $C6, nD2, $92, $D2, nC2, $86, $C6, nD2
	dc.b $93, $D2, nC2, $86, $C6, nD2, nC2, nD2
	dc.b $85, nC2, $8C, $CC, nD2, $C6, $CC, nC2
	dc.b $C0
	gLoopEnd
	gStop

.04_09	gLoopStart
	dc.b $CC, $C0
	gNop
	dc.b $C0
	gsPatch		$2B
	dc.b $B0, nG4, $F0, nB4, $98, $C0, nAb4, $D8
	dc.b nC5, $C0, nBb4, $D8, nD5, $81, $A0, $C0
	dc.b nB4, $C1, $E0, nE4, $B0, $C0, nB4, $F0
	dc.b nG4, $98, $C0, nAb4, $D8, nC5, $C0, nD5
	dc.b $D8, nBb4, $81, $A0, $C0, nB4, $C1, $E0
	dc.b nG4, $B0, $C0, nG3, $F0, nB3, $98, $C0
	dc.b nAb3, $D8, nC4, $C0, nBb3, $D8, nD4, $81
	dc.b $A0, $C0, nB3, $C1, $E0, nE3, $B0, $C0
	dc.b nB3, $F0, nG3, $98, $C0, nAb3, $D8, nC4
	dc.b $C0, nD4, $D8, nBb3, $81, $A0, $C0, nB3
	dc.b $CD, $E0, nG3, $B0, $C0, nG4, $F0, nB4
	dc.b $98, $C0, nAb4, $D8, nC5, $C0, nBb4, $D8
	dc.b nD5, $81, $A0, $C0, nB4, $C1, $E0, nE4
	dc.b $B0, $C0, nB4, $F0, nG4, $98, $C0, nAb4
	dc.b $D8, nC5, $C0, nD5, $D8, nBb4, $81, $A0
	dc.b $C0, nB4, $C1, $E0, nG4, $B0, $C0, nG3
	dc.b $F0, nB3, $98, $C0, nAb3, $D8, nC4, $C0
	dc.b nBb3, $D8, nD4, $81, $A0, $C0, nB3, $C1
	dc.b $E0, nE3, $B0, $C0, nB3, $F0, nG3, $98
	dc.b $C0, nAb3, $D8, nC4, $C0, nD4, $D8, nBb3
	dc.b $81, $A0, $C0, nB3, $D3, $E0, nG3, $C0
	gLoopEnd
	gStop

.04_0A	gLoopStart
	dc.b $C4, $E0
	gNop
	dc.b $C0
	gsPatch		$19
	dc.b $81, $9A, $C1, nC7
	gPitBend	$0000
	dc.b $D5
	gPitBend	$FFF0
	dc.b $CC
	gPitBend	$FF10
	dc.b $D8
	gPitBend	$FE20
	dc.b $CA
	gPitBend	$FD80
	dc.b $C8
	gPitBend	$FCE0
	dc.b $C7
	gPitBend	$FC50
	dc.b $C4, $EC
	gPitBend	$FC00
	dc.b $C1, nAb6, $CD
	gPitBend	$0000
	gPitBend	$FF90
	dc.b $CE
	gPitBend	$FEB0
	dc.b $D6
	gPitBend	$FDE0
	dc.b $C8
	gPitBend	$FD40
	dc.b $C9
	gPitBend	$FCB0
	dc.b $C4
	gPitBend	$FC20
	dc.b $F1, $EC
	gPitBend	$FC00
	dc.b $C1, nE6, $D4
	gPitBend	$0000
	dc.b $CA
	gPitBend	$FF30
	dc.b $D5
	gPitBend	$FE60
	dc.b $CE
	gPitBend	$FDA0
	dc.b $C9
	gPitBend	$FD10
	gPitBend	$FC70
	dc.b $C3, $CC
	gPitBend	$FC00
	dc.b $C0
	gLoopEnd
	gStop

.07_00	dc.b $C0
	gStore		$00, $00
	gLoopStart
	dc.b $C0
	gNop
	gsTempo		145
	gsPatch		$7A
	dc.b $98, $D8, nC4, nD5, $8A, $CC, nC4, $8C
	dc.b nC4, $97, $D8, nD5, $98, nC4, nD5, $8A
	dc.b $CC, nC4, $8C, nC4, $97, $D8, nD5, $98
	dc.b nC4, nD5, $8A, $CC, nC4, $8C, nC4, $97
	dc.b $D8, nD5, $98, nC4, nD5, $8A, $CC, nC4
	dc.b $8C, nC4, $97, $D8, nD5, $98, nC4, nD5
	dc.b $8A, $CC, nC4, $8C, nC4, $97, $D8, nD5
	dc.b $98, nC4, nD5, $8A, $CC, nC4, $8C, nC4
	dc.b $97, $D8, nD5, $98, nC4, nD5, $8A, $CC
	dc.b nC4, $8C, nC4, $97, $D8, nD5, $98, nC4
	dc.b nD5, $8A, $CC, nC4, $8C, nC4, $97, $D8
	dc.b nD5, $98, nC4, nD5, $8A, $CC, nC4, $8C
	dc.b nC4, $97, $D8, nD5, $98, nC4, nD5, $8A
	dc.b $CC, nC4, $8C, nC4, $97, $D8, nD5, $98
	dc.b nC4, nD5, $8A, $CC, nC4, $8C, nC4, $97
	dc.b $D8, nD5, $98, nC4, nD5, $8A, $CC, nC4
	dc.b $8C, nC4, $97, $D8, nD5, $98, nC4, nD5
	dc.b $8A, $CC, nC4, $8C, nC4, $97, $D8, nD5
	dc.b $98, nC4, nD5, $8A, $CC, nC4, $8C, nC4
	dc.b $97, $D8, nD5, $98, nC4, nD5, $8A, $CC
	dc.b nC4, $8C, nC4, $97, $D8, nD5, $98, nC4
	dc.b nD5, $8A, $CC, nC4, $8C, nC4, $97, $D8
	dc.b nD5, $98, nC4, nD5, $8A, $CC, nC4, $8C
	dc.b nC4, $97, $D8, nD5, $98, nC4, nD5, $8A
	dc.b $CC, nC4, $8C, nC4, $97, $D8, nD5, $98
	dc.b nC4, nD5, $8A, $CC, nC4, $8C, nC4, $97
	dc.b $D8, nD5, $98, nC4, nD5, $8A, $CC, nC4
	dc.b $8C, nC4, $97, $D8, nD5, $98, nC4, nD5
	dc.b $8A, $CC, nC4, $8C, nC4, $97, $D8, nD5
	dc.b $98, nC4, nD5, $8A, $CC, nC4, $8C, nC4
	dc.b $97, $D8, nD5, $98, nC4, nD5, $8A, $CC
	dc.b nC4, $8C, nC4, $97, $D8, nD5, $98, nC4
	dc.b nD5, $8A, $CC, nC4, $8C, nC4, $97, $D8
	dc.b nD5, $A0, nC4, $91, nC5, $86, $CC, nC4
	dc.b $93, nC4, $96, $D8, nC5, $A2, nC4, $92
	dc.b nC5, $A5, nC4, $97, nC5, $A0, nC4, $91
	dc.b nC5, $86, $CC, nC4, $93, nC4, $96, $D8
	dc.b nC5, $A2, nC4, $92, nC5, $A5, nC4, $97
	dc.b nC5, $A0, nC4, $91, nC5, $86, $CC, nC4
	dc.b $93, nC4, $96, $D8, nC5, $A2, nC4, $92
	dc.b nC5, $A5, nC4, $97, nC5, $A2, nC4, $94
	dc.b nC5, $A2, nC4, $97, nC5, $84, $CC, nC4
	dc.b $9A, nC4, $8F, $D8, nC5, $CC, nC4, $86
	dc.b nC5, $8A, nC5, nC5, $C0
	gsPatch		$7A
	dc.b $98, $D8, nC4, nD5, $8A, $CC, nC4, $8C
	dc.b nC4, $97, $D8, nD5, $98, nC4, nD5, $8A
	dc.b $CC, nC4, $8C, nC4, $97, $D8, nD5, $98
	dc.b nC4, nD5, $8A, $CC, nC4, $8C, nC4, $97
	dc.b $D8, nD5, $98, nC4, nD5, $8A, $CC, nC4
	dc.b $8C, nC4, $97, $D8, nD5, $98, nC4, nD5
	dc.b $8A, $CC, nC4, $8C, nC4, $97, $D8, nD5
	dc.b $98, nC4, nD5, $8A, $CC, nC4, $8C, nC4
	dc.b $97, $D8, nD5, $98, nC4, nD5, $8A, $CC
	dc.b nC4, $8C, nC4, $97, $D8, nD5, $8A, $CC
	dc.b nD5, nB4, nD5, nEb5, nB4, nD5, nEb5, nD5
	dc.b $98, $D8, nC4, nD5, $8A, $CC, nC4, $8C
	dc.b nC4, $97, $D8, nD5, $98, nC4, nD5, $8A
	dc.b $CC, nC4, $8C, nC4, $97, $D8, nD5, $98
	dc.b nC4, nD5, $8A, $CC, nC4, $8C, nC4, $97
	dc.b $D8, nD5, $98, nC4, nD5, $8A, $CC, nC4
	dc.b $8C, nC4, $97, $D8, nD5, $98, nC4, nD5
	dc.b $8A, $CC, nC4, $8C, nC4, $97, $D8, nD5
	dc.b $98, nC4, nD5, $8A, $CC, nC4, $8C, nC4
	dc.b $97, $D8, nD5, $98, nC4, nD5, $8A, $CC
	dc.b nC4, $8C, nC4, $97, $D8, nD5, $98, nC4
	dc.b nD5, $8A, $CC, nC4, $8C, nC4, $97, $D8
	dc.b nD5, $98, nC4, nD5, $8A, $CC, nC4, $8C
	dc.b nC4, $97, $D8, nD5, $98, nC4, nD5, $8A
	dc.b $CC, nC4, $8C, nC4, $97, $D8, nD5, $98
	dc.b nC4, nD5, $8A, $CC, nC4, $8C, nC4, $97
	dc.b $D8, nD5, $98, nC4, nD5, $8A, $CC, nC4
	dc.b $8C, nC4, $97, $D8, nD5, $98, nC4, nD5
	dc.b $8A, $CC, nC4, $8C, nC4, $97, $D8, nD5
	dc.b $98, nC4, nD5, $8A, $CC, nC4, $8C, nC4
	dc.b $97, $D8, nD5, $98, nC4, nD5, $8A, $CC
	dc.b nC4, $8C, nC4, $97, $D8, nD5, $98, nC4
	dc.b nD5, $8A, $CC, nC4, $8C, nC4, $97, $D8
	dc.b nD5, $A0, nC4, $A1, nC5, $86, $CC, nC4
	dc.b $93, nC4, $A5, $D8, nC5, $A2, nC4, nC5
	dc.b $A5, nC4, $A6, nC5, $A0, nC4, $A1, nC5
	dc.b $86, $CC, nC4, $93, nC4, $A5, $D8, nC5
	dc.b $A2, nC4, nC5, $A5, nC4, $A6, nC5, $A0
	dc.b nC4, $A1, nC5, $86, $CC, nC4, $93, nC4
	dc.b $A5, $D8, nC5, $A2, nC4, nC5, $A5, nC4
	dc.b $A6, nC5, $A2, nC4, $A4, nC5, $A2, nC4
	dc.b $A7, nC5, $84, $CC, nC4, $9A, nC4, $9E
	dc.b $D8, nC5, $8F, $CC, nC4, $86, nC5, $8A
	dc.b nC5, nC5, $C0
	gLoopEnd
	gStop

.07_01	gLoopStart
	dc.b $C0
	gNop
	dc.b $CC
	gsPatch		$04
	dc.b $8B, nFs1, $8D, nA1, $8B, nFs1, $88, nB1
	dc.b nB1, $87, nFs1, $89, nFs1
	gsPatch		$04
	dc.b $8B, nFs1, $8D, nA1, $8B, nFs1, $88, nB1
	dc.b nB1, $87, nFs1, $89, nFs1
	gsPatch		$04
	dc.b $8B, nFs1, $8D, nA1, $8B, nFs1, $88, nB1
	dc.b nB1, $87, nFs1, $89, nFs1
	gsPatch		$04
	dc.b $8B, nFs1, $8D, nA1, $8B, nFs1, $88, nB1
	dc.b nB1, $87, nFs1, $89, nFs1
	gsPatch		$04
	dc.b $8B, nFs1, $8D, nA1, $8B, nFs1, $88, nB1
	dc.b nB1, $87, nFs1, $89, nFs1
	gsPatch		$04
	dc.b $8B, nFs1, $8D, nA1, $8B, nFs1, $88, nB1
	dc.b nB1, $87, nFs1, $89, nFs1
	gsPatch		$04
	dc.b $8B, nFs1, $8D, nA1, $8B, nFs1, $88, nB1
	dc.b nB1, $87, nFs1, $89, nFs1
	gsPatch		$04
	dc.b $8B, nFs1, $8D, nA1, $8B, nFs1, $88, nB1
	dc.b nB1, $87, nFs1, $89, nFs1
	gsPatch		$04
	dc.b $8B, nFs1, $8D, nA1, $8B, nFs1, $88, nB1
	dc.b nB1, $87, nFs1, $89, nFs1
	gsPatch		$04
	dc.b $8B, nFs1, $8D, nA1, $8B, nFs1, $88, nB1
	dc.b nB1, $87, nFs1, $89, nFs1
	gsPatch		$04
	dc.b $8B, nFs1, $8D, nA1, $8B, nFs1, $88, nB1
	dc.b nB1, $87, nFs1, $89, nFs1
	gsPatch		$04
	dc.b $8B, nFs1, $8D, nA1, $8B, nFs1, $88, nB1
	dc.b nB1, $87, nFs1, $89, nFs1
	gsPatch		$04
	dc.b $8B, nFs1, $8D, nA1, $8B, nFs1, $88, nB1
	dc.b nB1, $87, nFs1, $89, nFs1
	gsPatch		$04
	dc.b $8B, nFs1, $8D, nA1, $8B, nFs1, $88, nB1
	dc.b nB1, $87, nFs1, $89, nFs1
	gsPatch		$04
	dc.b $8B, nFs1, $8D, nA1, $8B, nFs1, $88, nB1
	dc.b nB1, $87, nFs1, $89, nFs1
	gsPatch		$04
	dc.b $8B, nFs1, $8D, nA1, $8B, nFs1, $88, nB1
	dc.b nB1, $87, nFs1, $89, nFs1
	gsPatch		$04
	dc.b $8B, nFs1, $8D, nA1, $8B, nFs1, $88, nB1
	dc.b nB1, $87, nFs1, $89, nFs1
	gsPatch		$04
	dc.b $8B, nFs1, $8D, nA1, $8B, nFs1, $88, nB1
	dc.b nB1, $87, nFs1, $89, nFs1
	gsPatch		$04
	dc.b $8B, nFs1, $8D, nA1, $8B, nFs1, $88, nB1
	dc.b nB1, $87, nFs1, $89, nFs1
	gsPatch		$04
	dc.b $8B, nFs1, $8D, nA1, $8B, nFs1, $88, nB1
	dc.b nB1, $87, nFs1, $89, nFs1
	gsPatch		$04
	dc.b $8B, nFs1, $8D, nA1, $8B, nFs1, $88, nB1
	dc.b nB1, $87, nFs1, $89, nFs1
	gsPatch		$04
	dc.b $8B, nFs1, $8D, nA1, $8B, nFs1, $88, nB1
	dc.b nB1, $87, nFs1, $89, nFs1
	gsPatch		$04
	dc.b $8B, nFs1, $8D, nA1, $8B, nFs1, $88, nB1
	dc.b nB1, $87, nFs1, $89, nFs1
	gsPatch		$04
	dc.b $8B, nFs1, $8D, nA1, $8B, nFs1, $88, nB1
	dc.b nB1, $87, nFs1, $89, nFs1
	gsPatch		$04
	dc.b $8B, nFs1, $8D, nA1, $8B, nFs1, $88, nB1
	dc.b nB1, $87, nFs1, $89, nFs1
	gsPatch		$04
	dc.b $8B, nFs1, $8D, nA1, $8B, nFs1, $88, nB1
	dc.b nB1, $87, nFs1, $89, nFs1
	gsPatch		$04
	dc.b $8B, nFs1, $8D, nA1, $8B, nFs1, $88, nB1
	dc.b nB1, $87, nFs1, $89, nFs1
	gsPatch		$04
	dc.b $8B, nFs1, $8D, nA1, $8B, nFs1, $88, nB1
	dc.b nB1, $87, nFs1, $89, $C6, $CC, nFs1, $CC
	gsPatch		$04
	dc.b $8B, nFs1, $8D, nA1, $8B, nFs1, $88, nB1
	dc.b nB1, $87, nFs1, $89, nFs1
	gsPatch		$04
	dc.b $8B, nFs1, $8D, nA1, $8B, nFs1, $88, nB1
	dc.b nB1, $87, nFs1, $89, nFs1
	gsPatch		$04
	dc.b $8B, nFs1, $8D, nA1, $8B, nFs1, $88, nB1
	dc.b nB1, $87, nFs1, $89, nFs1
	gsPatch		$04
	dc.b $8B, nFs1, $8D, nA1, $8B, nFs1, $88, nB1
	dc.b nB1, $87, nFs1, $89, nFs1
	gsPatch		$04
	dc.b $8B, nA1, $8D, nC2, $8B, nA1, $88, nD2
	dc.b nD2, $87, nA1, $89, nA1
	gsPatch		$04
	dc.b $8B, nA1, $8D, nC2, $8B, nA1, $88, nD2
	dc.b nD2, $87, nA1, $89, nA1
	gsPatch		$04
	dc.b $8B, nA1, $8D, nC2, $8B, nA1, $88, nD2
	dc.b nD2, $87, nA1, $89, $C1, $EC, nA1, $CC
	gsPatch		$04
	dc.b $8B, nFs1, $8D, nA1, $8B, nFs1, $88, nB1
	dc.b nB1, $87, nFs1, $89, nFs1
	gsPatch		$04
	dc.b $8B, nFs1, $8D, nA1, $8B, nFs1, $88, nB1
	dc.b nB1, $87, nFs1, $89, nFs1
	gsPatch		$04
	dc.b $8B, nFs1, $8D, nA1, $8B, nFs1, $88, nB1
	dc.b nB1, $87, nFs1, $89, nFs1
	gsPatch		$04
	dc.b $8B, nFs1, $8D, nA1, $8B, nFs1, $88, nB1
	dc.b nB1, $87, nFs1, $89, nFs1
	gsPatch		$04
	dc.b $8B, nFs1, $8D, nA1, $8B, nFs1, $88, nB1
	dc.b nB1, $87, nFs1, $89, nFs1
	gsPatch		$04
	dc.b $8B, nFs1, $8D, nA1, $8B, nFs1, $88, nB1
	dc.b nB1, $87, nFs1, $89, nFs1
	gsPatch		$04
	dc.b $8B, nFs1, $8D, nA1, $8B, nFs1, $88, nB1
	dc.b nB1, $87, nFs1, $89, nFs1
	gsPatch		$04
	dc.b $8B, nFs1, $8D, nA1, $8B, nFs1, $88, nB1
	dc.b nB1, $87, nFs1, $89, nFs1
	gsPatch		$04
	dc.b $8B, nFs1, $8D, nA1, $8B, nFs1, $88, nB1
	dc.b nB1, $87, nFs1, $89, nFs1
	gsPatch		$04
	dc.b $8B, nFs1, $8D, nA1, $8B, nFs1, $88, nB1
	dc.b nB1, $87, nFs1, $89, nFs1
	gsPatch		$04
	dc.b $8B, nFs1, $8D, nA1, $8B, nFs1, $88, nB1
	dc.b nB1, $87, nFs1, $89, nFs1
	gsPatch		$04
	dc.b $8B, nFs1, $8D, nA1, $8B, nFs1, $88, nB1
	dc.b nB1, $87, nFs1, $89, nFs1
	gsPatch		$04
	dc.b $8B, nFs1, $8D, nA1, $8B, nFs1, $88, nB1
	dc.b nB1, $87, nFs1, $89, nFs1
	gsPatch		$04
	dc.b $8B, nFs1, $8D, nA1, $8B, nFs1, $88, nB1
	dc.b nB1, $87, nFs1, $89, nFs1
	gsPatch		$04
	dc.b $8B, nFs1, $8D, nA1, $8B, nFs1, $88, nB1
	dc.b nB1, $87, nFs1, $89, nFs1
	gsPatch		$04
	dc.b $8B, nFs1, $8D, nA1, $8B, nFs1, $88, nB1
	dc.b nB1, $87, nFs1, $89, nFs1
	gsPatch		$04
	dc.b $8B, nFs1, $8D, nA1, $8B, nFs1, $88, nB1
	dc.b nB1, $87, nFs1, $89, nFs1
	gsPatch		$04
	dc.b $8B, nFs1, $8D, nA1, $8B, nFs1, $88, nB1
	dc.b nB1, $87, nFs1, $89, nFs1
	gsPatch		$04
	dc.b $8B, nFs1, $8D, nA1, $8B, nFs1, $88, nB1
	dc.b nB1, $87, nFs1, $89, nFs1
	gsPatch		$04
	dc.b $8B, nFs1, $8D, nA1, $8B, nFs1, $88, nB1
	dc.b nB1, $87, nFs1, $89, nFs1
	gsPatch		$04
	dc.b $8B, nFs1, $8D, nA1, $8B, nFs1, $88, nB1
	dc.b nB1, $87, nFs1, $89, nFs1
	gsPatch		$04
	dc.b $8B, nFs1, $8D, nA1, $8B, nFs1, $88, nB1
	dc.b nB1, $87, nFs1, $89, nFs1
	gsPatch		$04
	dc.b $8B, nFs1, $8D, nA1, $8B, nFs1, $88, nB1
	dc.b nB1, $87, nFs1, $89, nFs1
	gsPatch		$04
	dc.b $8B, nFs1, $8D, nA1, $8B, nFs1, $88, nB1
	dc.b nB1, $87, nFs1, $89, nFs1, $C0
	gLoopEnd
	gStop

.07_02	gLoopStart
	dc.b $C0
	gNop
	dc.b $CC, $C0
	gsPatch		$00
	dc.b $97, $D8, nB5, $81, $83, $FC, nFs5, $8D
	dc.b $CC, nB5, $81, $8B, $C1, $C8, nF5, $95
	dc.b $D8, nD5, $98, nB5, $BE, $FC, nFs5, $8D
	dc.b $CC, nB5, $B0, $F0, nF5, $8B, $CC, nB4
	dc.b nD5, $90, nB4, $8A, nD5, $97, $D8, nB5
	dc.b $81, $83, $FC, nFs5, $8D, $CC, nB5, $81
	dc.b $8B, $C1, $C8, nF5, $95, $D8, nD5, $98
	dc.b nB5, $BE, $FC, nFs5, $8D, $CC, nB5, $B0
	dc.b $F0, nF5, $8B, $CC, nB4, nD5, $90, nB4
	dc.b $8A, nD5, $C0
	gsPatch		$00
	dc.b $8B, $CC, nFs4, nF4, $81, $87, $C1, $C8
	dc.b nFs4, $8C, $CC, nF4, $8B, nFs4, nF4, $8A
	dc.b nFs4, $95, $D8, nA3, $98, nB3, $8B, $CC
	dc.b nFs4, nF4, $81, $93, $C1, $D4, nFs4, $8B
	dc.b $CC, nF4, nFs4, $8A, nF4, $96, $D8, nA3
	dc.b nB3, $8B, $CC, nFs4, nF4, $81, $93, $C1
	dc.b $D4, nFs4, $8A, $CC, nF4, $8B, nFs4, $8C
	dc.b nF4, $97, $D8, nA4, nB3, $8A, $CC, nFs4
	dc.b $8B, nF4, $97, $D8, nFs4, $BA, $FC, nD4
	dc.b $8B, $CC, nB3, nD4, nB3, $96, $D8, nD4
	dc.b $D8, $D8, nB3, $97, $D8, nB5, $81, $83
	dc.b $FC, nFs5, $8D, $CC, nB5, $81, $8B, $C1
	dc.b $C8, nF5, $95, $D8, nD5, $98, nB5, $BE
	dc.b $FC, nFs5, $8D, $CC, nB5, $B0, $F0, nF5
	dc.b $8B, $CC, nB4, nD5, $90, nB4, $8A, nD5
	dc.b $97, $D8, nB5, $81, $83, $FC, nFs5, $8D
	dc.b $CC, nB5, $81, $8B, $C1, $C8, nF5, $95
	dc.b $D8, nD5, $98, nB5, $BE, $FC, nFs5, $8D
	dc.b $CC, nB5, $B0, $F0, nF5, $8B, $CC, nB4
	dc.b nD5, $90, nB4, $8A, nD5, $C0
	gsPatch		$00
	dc.b $8B, $CC, nFs4, nF4, $81, $87, $C1, $C8
	dc.b nFs4, $8C, $CC, nF4, $8B, nFs4, nF4, $8A
	dc.b nFs4, $95, $D8, nA3, $98, nB3, $8B, $CC
	dc.b nFs4, nF4, $81, $93, $C1, $D4, nFs4, $8B
	dc.b $CC, nF4, nFs4, $8A, nF4, $96, $D8, nA3
	dc.b nB3, $8B, $CC, nFs4, nF4, $81, $93, $C1
	dc.b $D4, nFs4, $8A, $CC, nF4, $8B, nFs4, $8C
	dc.b nF4, $97, $D8, nA4, nB3, $8A, $CC, nFs4
	dc.b $8B, nF4, $97, $D8, nFs4, $BA, $FC, nD4
	dc.b $8B, $CC, nB3, nD4, nB3, $96, $D8, nD4
	dc.b $CC, $D8, nB3, $C0
	gLoopEnd
	gStop

.07_03	gLoopStart
	dc.b $C0
	gNop
	dc.b $D7, $F4
	gsPatch		$2A
	dc.b $86, $CC, nB2, $88, nB2, $89, $D8, nB2
	dc.b $8B, nB2, nB2, nB2, nB2, nB2, $8C, nB2
	dc.b $86, $CC, nB2, $88, nB2, $89, $D8, nB2
	dc.b $8B, nB2, nB2, nB2, nB2, nB2, $8C, nB2
	dc.b $86, $CC, nB2, $88, nB2, $89, $D8, nB2
	dc.b $8B, nB2, nB2, nB2, nB2, nB2, $8C, nB2
	dc.b $86, $CC, nB2, $88, nB2, $89, $D8, nB2
	dc.b $8B, nB2, nB2, nB2, nB2, nB2, $8C, nB2
	dc.b $86, $C6, $CC, nB2, $88, $CC, nB2, $89
	dc.b $D8, nB2, $8B, nB2, nB2, nB2, nB2, nB2
	dc.b $8C, nB2, $86, $CC, nB2, $88, nB2, $89
	dc.b $D8, nB2, $8B, nB2, nB2, nB2, nB2, nB2
	dc.b $8C, nB2, $86, $C6, $CC, nB2, $88, $CC
	dc.b nD3, $89, $D8, nD3, $8B, nD3, nD3, nD3
	dc.b nD3, nD3, $8C, nD3, $86, $CC, nD3, $88
	dc.b nD3, $89, $D8, nD3, $8B, nD3, nD3, $C1
	dc.b $EC, nD3, $88, $CC, nB2, $89, $D8, nB2
	dc.b $8B, nB2, nB2, nB2, nB2, nB2, $8C, nB2
	dc.b $86, $CC, nB2, $88, nB2, $89, $D8, nB2
	dc.b $8B, nB2, nB2, nB2, nB2, nB2, $8C, nB2
	dc.b $86, $CC, nB2, $88, nB2, $89, $D8, nB2
	dc.b $8B, nB2, nB2, nB2, nB2, nB2, $8C, nB2
	dc.b $86, $CC, nB2, $88, nB2, $89, $D8, nB2
	dc.b $8B, nB2, nB2, nB2, nB2, nB2, $8C, nB2
	dc.b $86, $CC, $CC, nB2, $C0
	gsPatch		$06
	dc.b $88, $CC, nB2, $89, $D8, nB2, $8B, nB2
	dc.b nB2, nB2, nB2, nB2, $8C, nB2, $86, $CC
	dc.b nB2, $88, nB2, $89, $D8, nB2, $8B, nB2
	dc.b nB2, nB2, nB2, nB2, $8C, nB2, $86, $CC
	dc.b nB2, $88, nB2, $89, $D8, nB2, $8B, nB2
	dc.b nB2, nB2, nB2, nB2, $8C, nB2, $86, $CC
	dc.b nB2, $88, nB2, $89, $D8, nB2, $8B, nB2
	dc.b nB2, nB2, nB2, nB2, $8C, nB2, $86, $CC
	dc.b nB2, $C0
	gLoopEnd
	gStop

.07_04	dc.b $C0
	gsPatch		$1C
	dc.b $85, $D2, nB3, $83, nD4, $84, $CC, nB3
	dc.b $D2, nD4, $83, nF4, $CC, nFs4, $85, $D2
	dc.b nB3, $83, nD4, $84, $CC, nB3, $D2, nFs4
	dc.b $83, nF4, $CC, nFs4, $85, $D2, nB3, $83
	dc.b nD4, $84, $CC, nB3, $D2, nD4, $83, nF4
	dc.b $CC, nFs4, $85, $D2, nB4, $83, nD4, $84
	dc.b $CC, nB3, $C6, nFs4, $CC, nFs4, $83, $D2
	dc.b nF4, $CC, nFs4, $C0
	gsPatch		$1C
	dc.b $85, $D2, nB3, $83, nD4, $84, $CC, nB3
	dc.b $D2, nD4, $83, nF4, $CC, nFs4, $85, $D2
	dc.b nB3, $83, nD4, $84, $CC, nB3, $D2, nFs4
	dc.b $83, nF4, $CC, nFs4, $85, $D2, nB3, $83
	dc.b nD4, $84, $CC, nB3, $D2, nD4, $83, nF4
	dc.b $CC, nFs4, $85, $D2, nB4, $83, nD4, $84
	dc.b $CC, nB3, $C6, nFs4, $CC, nFs4, $83, $D2
	dc.b nF4, $CC, nFs4, $C0
	gsPatch		$1C
	dc.b $85, $D2, nB3, $83, nD4, $84, $CC, nB3
	dc.b $D2, nD4, $83, nF4, $CC, nFs4, $85, $D2
	dc.b nB3, $83, nD4, $84, $CC, nB3, $D2, nFs4
	dc.b $83, nF4, $CC, nFs4, $85, $D2, nB3, $83
	dc.b nD4, $84, $CC, nB3, $D2, nD4, $83, nF4
	dc.b $CC, nFs4, $85, $D2, nB4, $83, nD4, $84
	dc.b $CC, nB3, $C6, nFs4, $CC, nFs4, $83, $D2
	dc.b nF4, $CC, nFs4, $C0
	gsPatch		$1C
	dc.b $85, $D2, nB3, $83, nD4, $84, $CC, nB3
	dc.b $D2, nD4, $83, nF4, $CC, nFs4, $85, $D2
	dc.b nB3, $83, nD4, $84, $CC, nB3, $D2, nFs4
	dc.b $83, nF4, $CC, nFs4, $85, $D2, nB3, $83
	dc.b nD4, $84, $CC, nB3, $D2, nD4, $83, nF4
	dc.b $CC, nFs4, $85, $D2, nB4, $83, nD4, $84
	dc.b $CC, nB3, $C6, nFs4, $CC, nFs4, $83, $D2
	dc.b nF4, $CC, nFs4, $C0
	gsPatch		$1C
	dc.b $85, $D2, nB3, $83, nD4, $84, $CC, nB3
	dc.b $D2, nD4, $83, nF4, $CC, nFs4, $85, $D2
	dc.b nB3, $83, nD4, $84, $CC, nB3, $D2, nFs4
	dc.b $83, nF4, $CC, nFs4, $85, $D2, nB3, $83
	dc.b nD4, $84, $CC, nB3, $D2, nD4, $83, nF4
	dc.b $CC, nFs4, $85, $D2, nB4, $83, nD4, $84
	dc.b $CC, nB3, $C6, nFs4, $CC, nFs4, $83, $D2
	dc.b nF4, $CC, nFs4, $C0
	gsPatch		$1C
	dc.b $85, $D2, nB3, $83, nD4, $84, $CC, nB3
	dc.b $D2, nD4, $83, nF4, $CC, nFs4, $85, $D2
	dc.b nB3, $83, nD4, $84, $CC, nB3, $D2, nFs4
	dc.b $83, nF4, $CC, nFs4, $85, $D2, nB3, $83
	dc.b nD4, $84, $CC, nB3, $D2, nD4, $83, nF4
	dc.b $CC, nFs4, $85, $D2, nB4, $83, nD4, $84
	dc.b $CC, nB3, $C6, nFs4, $CC, nFs4, $83, $D2
	dc.b nF4, $CC, $CC, nFs4, $C0
	gsPatch		$1C
	dc.b $85, $D2, nB3, $83, nD4, $84, $CC, nB3
	dc.b $D2, nD4, $83, nF4, $CC, nFs4, $85, $D2
	dc.b nB3, $83, nD4, $84, $CC, nB3, $D2, nFs4
	dc.b $83, nF4, $CC, nFs4, $85, $D2, nB3, $83
	dc.b nD4, $84, $CC, nB3, $D2, nD4, $83, nF4
	dc.b $CC, nFs4, $85, $D2, nB4, $83, nD4, $84
	dc.b $CC, nB3, $C6, nFs4, $CC, nFs4, $83, $D2
	dc.b nF4, $CC, nFs4, $C0
	gsPatch		$1C
	dc.b $85, $D2, nD4, $83, nF4, $84, $CC, nD4
	dc.b $D2, nF4, $83, nAb4, $CC, nA4, $85, $D2
	dc.b nD4, $83, nF4, $84, $CC, nD4, $D2, nA4
	dc.b $83, nAb4, $CC, nA4, $85, $D2, nD4, $83
	dc.b nF4, $84, $CC, nD4, $D2, nF4, $83, nAb4
	dc.b $C1, $EC, nA4, $C0
	gsPatch		$1C
	dc.b $85, $D2, nB3, $83, nD4, $84, $CC, nB3
	dc.b $D2, nD4, $83, nF4, $CC, nFs4, $85, $D2
	dc.b nB3, $83, nD4, $84, $CC, nB3, $D2, nFs4
	dc.b $83, nF4, $CC, nFs4, $85, $D2, nB3, $83
	dc.b nD4, $84, $CC, nB3, $D2, nD4, $83, nF4
	dc.b $CC, nFs4, $85, $D2, nB4, $83, nD4, $84
	dc.b $CC, nB3, $C6, nFs4, $CC, nFs4, $83, $D2
	dc.b nF4, $CC, nFs4, $C0
	gsPatch		$1C
	dc.b $85, $D2, nB3, $83, nD4, $84, $CC, nB3
	dc.b $D2, nD4, $83, nF4, $CC, nFs4, $85, $D2
	dc.b nB3, $83, nD4, $84, $CC, nB3, $D2, nFs4
	dc.b $83, nF4, $CC, nFs4, $85, $D2, nB3, $83
	dc.b nD4, $84, $CC, nB3, $D2, nD4, $83, nF4
	dc.b $CC, nFs4, $85, $D2, nB4, $83, nD4, $84
	dc.b $CC, nB3, $C6, nFs4, $CC, nFs4, $83, $D2
	dc.b nF4, $CC, nFs4, $C0
	gsPatch		$1C
	dc.b $85, $D2, nB3, $83, nD4, $84, $CC, nB3
	dc.b $D2, nD4, $83, nF4, $CC, nFs4, $85, $D2
	dc.b nB3, $83, nD4, $84, $CC, nB3, $D2, nFs4
	dc.b $83, nF4, $CC, nFs4, $85, $D2, nB3, $83
	dc.b nD4, $84, $CC, nB3, $D2, nD4, $83, nF4
	dc.b $CC, nFs4, $85, $D2, nB4, $83, nD4, $84
	dc.b $CC, nB3, $C6, nFs4, $CC, nFs4, $83, $D2
	dc.b nF4, $CC, nFs4, $C0
	gsPatch		$1C
	dc.b $85, $D2, nB3, $83, nD4, $84, $CC, nB3
	dc.b $D2, nD4, $83, nF4, $CC, nFs4, $85, $D2
	dc.b nB3, $83, nD4, $84, $CC, nB3, $D2, nFs4
	dc.b $83, nF4, $CC, nFs4, $85, $D2, nB3, $83
	dc.b nD4, $84, $CC, nB3, $D2, nD4, $83, nF4
	dc.b $CC, nFs4, $85, $D2, nB4, $83, nD4, $84
	dc.b $CC, nB3, $C6, nFs4, $CC, nFs4, $83, $D2
	dc.b nF4, $CC, nFs4, $C0
	gsPatch		$1C
	dc.b $85, $D2, nB3, $83, nD4, $84, $CC, nB3
	dc.b $D2, nD4, $83, nF4, $CC, nFs4, $85, $D2
	dc.b nB3, $83, nD4, $84, $CC, nB3, $D2, nFs4
	dc.b $83, nF4, $CC, nFs4, $85, $D2, nB3, $83
	dc.b nD4, $84, $CC, nB3, $D2, nD4, $83, nF4
	dc.b $CC, nFs4, $85, $D2, nB4, $83, nD4, $84
	dc.b $CC, nB3, $C6, nFs4, $CC, nFs4, $83, $D2
	dc.b nF4, $CC, nFs4, $C0
	gsPatch		$1C
	dc.b $85, $D2, nB3, $83, nD4, $84, $CC, nB3
	dc.b $D2, nD4, $83, nF4, $CC, nFs4, $85, $D2
	dc.b nB3, $83, nD4, $84, $CC, nB3, $D2, nFs4
	dc.b $83, nF4, $CC, nFs4, $85, $D2, nB3, $83
	dc.b nD4, $84, $CC, nB3, $D2, nD4, $83, nF4
	dc.b $CC, nFs4, $85, $D2, nB4, $83, nD4, $84
	dc.b $CC, nB3, $C6, nFs4, $CC, nFs4, $83, $D2
	dc.b nF4, $C3, nFs4
	gStop

.07_05	gLoopStart
	dc.b $C0
	gNop
	dc.b $E4, $C0
	gsPatch		$38
	dc.b $83, $C8, nB5, $C4, nB5, $C8, nB5, $C4
	dc.b nB5, $C8, nB5, $C4, nB5, $C8, nB5, $C4
	dc.b nB5, $C8, nB5, $C4, nB5, $C8, nB5, $C4
	dc.b nB5, $C8, nB5, $C4, nB5, $C8, nB5, $C4
	dc.b nB5, $C8, nB5, $C4, nB5, $C8, nB5, $C4
	dc.b nB5, $C8, nB5, $C4, nB5, $C8, nB5, $C4
	dc.b nB5, $C8, nB5, $C4, nB5, $C8, nB5, $C4
	dc.b nB5, $C8, nB5, $C4, nB5, $C8, nB5, $C4
	dc.b nB5, $C8, nB5, $C4, nB5, $C8, nB5, $C4
	dc.b nB5, $C8, nB5, $C4, nB5, $C8, nB5, $C4
	dc.b nB5, $C8, nB5, $C4, nB5, $C8, nB5, $C4
	dc.b nB5, $C8, nB5, $C4, nB5, $C8, nB5, $C4
	dc.b nB5, $C8, nB5, $C4, nB5, $C8, nB5, $C4
	dc.b nB5, $C8, nB5, $C4, nB5, $C8, nB5, $C4
	dc.b nB5, $C8, nB5, $C4, nB5, $C8, nB5, $C4
	dc.b nB5, $C8, nB5, $C4, nB5, $C8, nB5, $C4
	dc.b nB5, $C8, nB5, $C4, nB5, $C8, nB5, $C4
	dc.b nB5, $C8, nB5, $C4, nB5, $C8, nB5, $C4
	dc.b nB5, $C8, nB5, $C4, nB5, $C8, nB5, $C4
	dc.b nB5, $C8, nB5, $C4, nB5, $C8, nB5, $C4
	dc.b nB5, $C8, nB5, $C4, nB5, $C8, nB5, $C4
	dc.b nB5, $C8, nB5, $C4, nB5, $C8, nB5, $C4
	dc.b nB5, $C8, nB5, $C4, nB5, $C8, nB5, $C4
	dc.b nB5, $C8, nB5, $C4, nB5, $C8, nB5, $C4
	dc.b nB5, $C8, nB5, $C4, nB5, $C8, nB5, $C4
	dc.b nB5, $C8, nB5, $C4, nB5, $C8, nB5, $C4
	dc.b nB5, $C8, nB5, $C4, nB5, $C8, nB5, $C4
	dc.b nB5, $C8, nB5, $C4, nB5, $C8, nB5, $C4
	dc.b nB5, $C8, nB5, $C4, nB5, $C8, nB5, $C4
	dc.b nB5, $C8, nB5, $C4, nB5, $C8, nB5, $C4
	dc.b nB5, $C8, nB5, $C4, nB5, $C8, nB5, $C4
	dc.b nB5, $C8, nB5, $C4, nB5, $C8, nB5, $C6
	dc.b $C4, nB5, $C8, nB5, $C4, nB5, $C8, nB5
	dc.b $C4, nB5, $C8, nB5, $C4, nB5, $C8, nB5
	dc.b $C4, nB5, $C8, nB5, $C4, nB5, $C8, nB5
	dc.b $C4, nB5, $C8, nB5, $C4, nB5, $C8, nB5
	dc.b $C4, nB5, $C8, nB5, $C4, nB5, $C8, nB5
	dc.b $C4, nB5, $C8, nB5, $C4, nB5, $C8, nB5
	dc.b $C4, nB5, $C8, nB5, $C4, nB5, $C8, nB5
	dc.b $C4, nB5, $C8, nB5, $C4, nB5, $C8, nB5
	dc.b $C4, nB5, $C8, nB5, $C4, nB5, $C8, nB5
	dc.b $C4, nB5, $C8, nB5, $C4, nB5, $C8, nB5
	dc.b $C4, nB5, $C8, nB5, $C4, nB5, $C8, nB5
	dc.b $C4, nB5, $C8, nB5, $C4, nB5, $C8, nB5
	dc.b $CD, $E4, nB5, $C8, nB5, $C4, nB5, $C8
	dc.b nB5, $C4, nB5, $C8, nB5, $C4, nB5, $C8
	dc.b nB5, $C4, nB5, $C8, nB5, $C4, nB5, $C8
	dc.b nB5, $C4, nB5, $C8, nB5, $C4, nB5, $C8
	dc.b nB5, $C4, nB5, $C8, nB5, $C4, nB5, $C8
	dc.b nB5, $C4, nB5, $C8, nB5, $C4, nB5, $C8
	dc.b nB5, $C4, nB5, $C8, nB5, $C4, nB5, $C8
	dc.b nB5, $C4, nB5, $C8, nB5, $C4, nB5, $C8
	dc.b nB5, $C4, nB5, $C8, nB5, $C4, nB5, $C8
	dc.b nB5, $C4, nB5, $C8, nB5, $C4, nB5, $C8
	dc.b nB5, $C4, nB5, $C8, nB5, $C4, nB5, $C8
	dc.b nB5, $C4, nB5, $C8, nB5, $C4, nB5, $C8
	dc.b nB5, $C4, nB5, $C8, nB5, $C4, nB5, $C8
	dc.b nB5, $C4, nB5, $C8, nB5, $C4, nB5, $C8
	dc.b nB5, $C4, nB5, $C8, nB5, $C4, nB5, $C8
	dc.b nB5, $C4, nB5, $C8, nB5, $C4, nB5, $C8
	dc.b nB5, $C4, nB5, $C8, nB5, $C4, nB5, $C8
	dc.b nB5, $C4, nB5, $C8, nB5, $C4, nB5, $C8
	dc.b nB5, $C4, nB5, $C8, nB5, $C4, nB5, $C8
	dc.b nB5, $C4, nB5, $C8, nB5, $C4, nB5, $C8
	dc.b nB5, $C4, nB5, $C8, nB5, $C4, nB5, $C8
	dc.b nB5, $C4, nB5, $C8, nB5, $C4, nB5, $C8
	dc.b nB5, $C4, nB5, $C8, nB5, $C4, nB5, $C8
	dc.b nB5, $C4, nB5, $C8, nB5, $C4, nB5, $C8
	dc.b nB5, $C4, nB5, $C8, nB5, $C4, nB5, $C8
	dc.b nB5, $C4, nB5, $C8, nB5, $C4, nB5, $C8
	dc.b nB5, $C4, nB5, $C8, nB5, $C4, nB5, $C8
	dc.b nB5, $C4, nB5, $C8, nB5, $C4, nB5, $C8
	dc.b nB5, $C4, nB5, $C8, nB5, $C4, nB5, $C8
	dc.b nB5, $C4, nB5, $C8, nB5, $C4, nB5, $C8
	dc.b nB5, $C4, nB5, $C8, nB5, $C4, nB5, $C8
	dc.b nB5, $C4, nB5, $C8, nB5, $C4, nB5, $C8
	dc.b nB5, $CC, $C4, nB5, $C0
	gLoopEnd
	gStop

.07_06	dc.b $C0
	gsPrio		$7E
	gLoopStart
	dc.b $C0
	gNop
	gsPatch		$14
	dc.b $81, $86, $C1, $C8, nB3, $97, $D8, nA3
	dc.b $81, $87, $C1, $C8, nFs3, $97, $D8, nD3
	dc.b $A3, $E4, nF3, $8B, $CC, nD3, $97, $D8
	dc.b nB2, nD3, nF3, $81, $86, $C1, $C8, nFs3
	dc.b $81, $9E, $C1, $E0, nB3, $97, $D8, nA3
	dc.b $81, $86, $C1, $C8, nFs3, $91, $D8, nB2
	dc.b $92, nD3, $8F, nF3, $93, nFs3, $8A, $CC
	dc.b nB2, $97, $D8, nD3, $95, nF3, $9F, $E4
	dc.b nFs3, $81, $86, $C1, $C8, nB3, $97, $D8
	dc.b nA3, $81, $87, $C1, $C8, nFs3, $97, $D8
	dc.b nD3, $A3, $E4, nF3, $8B, $CC, nD3, $97
	dc.b $D8, nB2, nD3, nF3, $81, $86, $C1, $C8
	dc.b nFs3, $81, $9E, $C1, $E0, nB3, $97, $D8
	dc.b nA3, $81, $86, $C1, $C8, nFs3, $91, $D8
	dc.b nB2, $97, nD3, nF3, $95, nFs3, $8A, $CC
	dc.b nB2, $97, $D8, nD3, $95, nF3, $9F, $CC
	dc.b nFs3, $97, $D8, nFs1, $88, $CC, nF1, nFs1
	dc.b $87, nFs1, $88, nFs1, $8A, nF1, $87, nFs1
	dc.b nFs1, $88, nFs1, $8B, nF1, $87, nFs1, $8B
	dc.b nF1, $91, $D8, nFs1, $85, $CC, nFs1, $97
	dc.b $D8, nFs1, $88, $CC, nF1, nFs1, $87, nFs1
	dc.b $88, nFs1, $8B, nF1, $87, nFs1, nFs1, $88
	dc.b nFs1, $8B, nF1, $87, nFs1, $8B, nF1, $91
	dc.b $D8, nFs1, $85, $CC, nFs1, $97, $D8, nFs1
	dc.b $88, $CC, nF1, nFs1, $87, nFs1, $88, nFs1
	dc.b $8B, nF1, $87, nFs1, nFs1, $88, nFs1, $8B
	dc.b nF1, $87, nFs1, $8B, nF1, $91, $D8, nFs1
	dc.b $85, $CC, nFs1, $96, $D8, nFs1, $88, $CC
	dc.b nF1, nFs1, $87, nFs1, $88, nFs1, $8B, nF1
	dc.b $87, nFs1, nFs1, $88, nFs1, $8B, nF1, $87
	dc.b nFs1, $8B, nF1, $91, $D8, nFs1, $85, $CC
	dc.b nFs1, $97, $C6, $C0, nFs1, $D8, nFs1, $88
	dc.b $CC, nF1, nFs1, $87, nFs1, $88, nFs1, $8B
	dc.b nF1, $87, nFs1, nFs1, $88, nFs1, $8B, nF1
	dc.b $87, nFs1, $8A, nF1, $91, $D8, nFs1, $85
	dc.b $CC, nFs1, $97, $D8, nFs1, $88, $CC, nF1
	dc.b nFs1, $87, nFs1, $88, nFs1, $8A, nF1, $87
	dc.b nFs1, nFs1, $88, nFs1, $8B, nF1, $87, nFs1
	dc.b $8B, nF1, $91, $D8, nFs1, $85, $CC, nFs1
	dc.b $97, $CC, $D8, nFs1, $81, $86, $C1, $C8
	dc.b nB3, $97, $D8, nA3, $81, $87, $C1, $C8
	dc.b nFs3, $97, $D8, nD3, $A3, $E4, nF3, $8B
	dc.b $CC, nD3, $97, $D8, nB2, nD3, nF3, $81
	dc.b $86, $C1, $C8, nFs3, $81, $9E, $C1, $E0
	dc.b nB3, $97, $D8, nA3, $81, $86, $C1, $C8
	dc.b nFs3, $91, $D8, nB2, $97, nD3, nF3, $95
	dc.b nFs3, $8A, $CC, nB2, $97, $D8, nD3, $95
	dc.b nF3, $9F, $CC, nFs3, $97, $D8, nFs1, $88
	dc.b $CC, nF1, nFs1, $87, nFs1, $88, nFs1, $8A
	dc.b nF1, $87, nFs1, nFs1, $88, nFs1, $8B, nF1
	dc.b $87, nFs1, $8B, nF1, $91, $D8, nFs1, $85
	dc.b $CC, nFs1, $97, $D8, nFs1, $88, $CC, nF1
	dc.b nFs1, $87, nFs1, $88, nFs1, $8B, nF1, $87
	dc.b nFs1, nFs1, $88, nFs1, $8B, nF1, $87, nFs1
	dc.b $8B, nF1, $91, $D8, nFs1, $85, $CC, nFs1
	dc.b $97, $D8, nFs1, $88, $CC, nF1, nFs1, $87
	dc.b nFs1, $88, nFs1, $8B, nF1, $87, nFs1, nFs1
	dc.b $88, nFs1, $8B, nF1, $87, nFs1, $8B, nF1
	dc.b $91, $D8, nFs1, $85, $CC, nFs1, $96, $D8
	dc.b nFs1, $88, $CC, nF1, nFs1, $87, nFs1, $88
	dc.b nFs1, $8B, nF1, $87, nFs1, nFs1, $88, nFs1
	dc.b $8B, nF1, $87, nFs1, $8B, nF1, $91, $D8
	dc.b nFs1, $85, $CC, nFs1, $97, $C6, $C0, nFs1
	dc.b $D8, nFs1, $88, $CC, nF1, nFs1, $87, nFs1
	dc.b $88, nFs1, $8B, nF1, $87, nFs1, nFs1, $88
	dc.b nFs1, $8B, nF1, $87, nFs1, $8A, nF1, $91
	dc.b $D8, nFs1, $85, $CC, nFs1, $97, $D8, nFs1
	dc.b $88, $CC, nF1, nFs1, $87, nFs1, $88, nFs1
	dc.b $8A, nF1, $87, nFs1, nFs1, $88, nFs1, $8B
	dc.b nF1, $87, nFs1, $8B, nF1, $91, $D8, nFs1
	dc.b $85, $CC, nFs1, $97, $D8, nFs1, $C0
	gLoopEnd
	gStop

.07_07	gLoopStart
	dc.b $E4, $C0
	gNop
	dc.b $C0
	gsPatch		$20
	dc.b $86, $CC, nFs4, $84, $C8, nB3, $CC, nF4
	dc.b $85, $C4, nD4, $CC, nB3, nFs4, $C8, nB3
	dc.b $CC, nF4, $C4, nD4, $CC, nB3, nFs4, $C8
	dc.b nB3, $CC, nF4, $C4, nD4, $CC, nB3, $84
	dc.b $C8, nB3, $C4, nD4, $C8, nB3, $85, $CC
	dc.b nF4, $84, $C4, nD4, $85, $CC, nB3, $86
	dc.b nFs4, $84, $C8, nB3, $CC, nF4, $85, $C4
	dc.b nD4, $CC, nB3, nB4, $C8, nB3, $CC, nF4
	dc.b $C4, nD4, $CC, nB3, nD4, $C8, nB3, $CC
	dc.b nF4, $C4, nD4, $CC, nB3, $84, $C8, nA4
	dc.b $C4, nD4, $C8, nB3, $85, $CC, nF4, $84
	dc.b $C4, nD4, $85, $CC, nB3, $C0
	gsPatch		$20
	dc.b $86, $CC, nFs4, $84, $C8, nB3, $CC, nF4
	dc.b $85, $C4, nD4, $CC, nB3, nFs4, $C8, nB3
	dc.b $CC, nF4, $C4, nD4, $CC, nB3, nFs4, $C8
	dc.b nB3, $CC, nF4, $C4, nD4, $CC, nB3, $84
	dc.b $C8, nB3, $C4, nD4, $C8, nB3, $85, $CC
	dc.b nF4, $84, $C4, nD4, $85, $CC, nB3, $86
	dc.b nFs4, $84, $C8, nB3, $CC, nF4, $85, $C4
	dc.b nD4, $CC, nB3, nB4, $C8, nB3, $CC, nF4
	dc.b $C4, nD4, $CC, nB3, nD4, $C8, nB3, $CC
	dc.b nF4, $C4, nD4, $CC, nB3, $84, $C8, nA4
	dc.b $C4, nD4, $C8, nB3, $85, $CC, nF4, $84
	dc.b $C4, nD4, $85, $E4, $CC, nB3, $C0
	gsPatch		$20
	dc.b $86, $CC, nFs4, $84, $C8, nB3, $CC, nF4
	dc.b $85, $C4, nD4, $CC, nB3, nFs4, $C8, nB3
	dc.b $CC, nF4, $C4, nD4, $CC, nB3, nFs4, $C8
	dc.b nB3, $CC, nF4, $C4, nD4, $CC, nB3, $84
	dc.b $C8, nB3, $C4, nD4, $C8, nB3, $85, $CC
	dc.b nF4, $84, $C4, nD4, $85, $CC, nB3, $86
	dc.b nFs4, $84, $C8, nB3, $CC, nF4, $85, $C4
	dc.b nD4, $CC, nB3, nB4, $C8, nB3, $CC, nF4
	dc.b $C4, nD4, $CC, nB3, nD4, $C8, nB3, $CC
	dc.b nF4, $C4, nD4, $CC, nB3, $84, $C8, nA4
	dc.b $C4, nD4, $C8, nB3, $85, $CC, nF4, $84
	dc.b $C4, nD4, $85, $CC, nB3, $C0
	gsPatch		$20
	dc.b $86, $CC, nFs4, $84, $C8, nB3, $CC, nF4
	dc.b $85, $C4, nD4, $CC, nB3, nFs4, $C8, nB3
	dc.b $CC, nF4, $C4, nD4, $CC, nB3, nFs4, $C8
	dc.b nB3, $CC, nF4, $C4, nD4, $CC, nB3, $84
	dc.b $C8, nB3, $C4, nD4, $C8, nB3, $85, $CC
	dc.b nF4, $84, $C4, nD4, $85, $CC, nB3, $86
	dc.b nFs4, $84, $C8, nB3, $CC, nF4, $85, $C4
	dc.b nD4, $CC, nB3, nB4, $C8, nB3, $CC, nF4
	dc.b $C4, nD4, $CC, nB3, nD4, $C8, nB3, $CC
	dc.b nF4, $C4, nD4, $CC, nB3, $84, $C8, nA4
	dc.b $C4, nD4, $C8, nB3, $85, $CC, nF4, $84
	dc.b $C4, nD4, $85, $CC, nB3, $C0
	gLoopEnd
	gStop

.08_00	dc.b $C0
	gStore		$00, $00
	gLoopStart
	dc.b $C0
	gNop
	gsVolumeAll	$05
	gsTempo		132
	gsPatch		$14
	dc.b $82, $A7, $CC, nE3, $82, nE4, nE4, $81
	dc.b $C6, nE4, $82, nE4, nE4, nE4, nE4, $83
	dc.b $EA, nE4, $CC, nE4, $82, $C6, nE4, nE4
	dc.b nE4, nE4, nE4, $83, nE4, nE4, $91, $C5
	dc.b nF4, $83, $80, $CD, nF3, $83, $CC, nE4
	dc.b $82, $90, nE2, $82, $D8, nE4, $83, $CC
	dc.b nE4, $81, $C6, nE4, $82, nE4, nE4, $83
	dc.b $EA, nE4, $CC, nE4, $82, $C6, nE4, $83
	dc.b nE4, $82, nE4, nE4, $83, $C0, nD2, $82
	dc.b $C6, nE4, $83, $C0, nD2, $C6, nE4, $C0
	dc.b nD2, $C6, nE4, $C0, nD2, $91, $C5, nF4
	dc.b $99, $C1, nG3, $82, $C6, nD2, $83, nD2
	dc.b $C0, nE4, $CB, nD2, $84, $9F, $CD, nE3
	dc.b $82, $CC, nE4, nE4, $81, $C6, nE4, $82
	dc.b nE4, nE4, nE4, nE4, $83, $EA, nE4, $CC
	dc.b nE4, $82, $C6, nE4, nE4, nE4, nE4, nE4
	dc.b $83, nE4, nE4, $91, $D2, nF4, $83, $CC
	dc.b nE4, $82, $90, nE2, $82, $D8, nE4, $83
	dc.b $CC, nE4, $81, $C6, nE4, $82, nE4, nE4
	dc.b $83, $DE, nE4, $81, $87, $CC, nD3, $83
	dc.b nE4, $82, $C6, nE4, $83, nE4, $82, nE4
	dc.b nE4, $83, $C0, nD2, $82, $C6, nE4, $83
	dc.b $C0, nD2, $C6, nE4, $C0, nD2, $C6, nE4
	dc.b $C0, nD2, $91, $C6, nF4, $96, $C0, nG3
	dc.b $82, $C6, nD2, $83, nD2, $C0, nE4, $D8
	dc.b $CC, nD2, $C0
	gLoopEnd
	gStop

.08_01	gLoopStart
	dc.b $C0
	gNop
	gsPatch		$13
	dc.b $82, $D4, nE2, $D0, nE2, $83, $D8, nE2
	dc.b nE2, $82, $CC, nE2, $C8, nE2, $81, $CC
	dc.b nE2, $83, $D0, nE2, $D8, nE2, $CC, nE2
	dc.b $82, $C8, nE2, $C4, nE2, $C8, nE2, $81
	dc.b $C4, nE2, $C0
	gLoopEnd
	gStop

.08_02	gLoopStart
	dc.b $C0
	gNop
	dc.b $CC, $C0
	gsPatch		$7A
	dc.b $82, $C6, nF5, nC5, $83, nC5, $82, nC5
	dc.b $84, $CC, nD5, $D8, nF5, $CC, nEb5, nD5
	dc.b $85, nF5, $83, $C6, nF5, $82, nC5, $83
	dc.b nC5, $82, nC5, $84, $CC, nD5, $83, $D8
	dc.b nF5, $84, $CC, nEb5, nD5, nF5, $82, $C6
	dc.b nF5, $81, nC5, $82, nC5, $81, nC5, $83
	dc.b $CC, nD5, $82, $D8, nF5, $84, $CC, nEb5
	dc.b nD5, nF5, $83, $C6, nF5, $81, nC5, $83
	dc.b nC5, $81, nC5, $84, $CC, nD5, $83, $D8
	dc.b nF5, $84, $CC, nEb5, nD5, $83, nF5, $82
	dc.b $C6, nF5, nC5, $83, nC5, $82, nC5, $84
	dc.b $CC, nD5, $D8, nF5, $CC, nEb5, nD5, $85
	dc.b nF5, $83, $C6, nF5, $82, nC5, $83, nC5
	dc.b $82, nC5, $84, $CC, nD5, $83, $D8, nF5
	dc.b $84, $CC, nEb5, nD5, nF5, $82, $C6, nF5
	dc.b $81, nC5, $82, nC5, $81, nC5, $83, $CC
	dc.b nD5, $82, $D8, nF5, $84, $CC, nEb5, nD5
	dc.b nF5, $82, nEb5, $83, nD5, $C6, nD5, nD5
	dc.b nD5, nD5, $84, nD5, $83, nD5, $84, nD5
	dc.b $83, nD5, nD5, nD5, nD5, nD5, $82, nF5
	dc.b nC5, $83, nC5, $82, nC5, $84, $CC, nD5
	dc.b $D8, nF5, $CC, nEb5, nD5, $85, nF5, $83
	dc.b $C6, nF5, $82, nC5, $83, nC5, $82, nC5
	dc.b $84, $CC, nD5, $83, $D8, nF5, $84, $CC
	dc.b nEb5, nD5, nF5, $82, $C6, nF5, $81, nC5
	dc.b $82, nC5, $81, nC5, $83, $CC, nD5, $82
	dc.b $D8, nF5, $84, $CC, nEb5, nD5, nF5, $83
	dc.b $C6, nF5, $81, nC5, $83, nC5, $81, nC5
	dc.b $84, $CC, nD5, $83, $D8, nF5, $84, $CC
	dc.b nEb5, nD5, $83, nF5, $82, $C6, nF5, nC5
	dc.b $83, nC5, $82, nC5, $84, $CC, nD5, $D8
	dc.b nF5, $CC, nEb5, nD5, $85, nF5, $83, $C6
	dc.b nF5, $82, nC5, $83, nC5, $82, nC5, $84
	dc.b $CC, nD5, $83, $D8, nF5, $84, $CC, nEb5
	dc.b nD5, nF5, $82, $C6, nF5, $81, nC5, $82
	dc.b nC5, $81, nC5, $83, $CC, nD5, $82, $D8
	dc.b nF5, $84, $CC, nEb5, nD5, nF5, $82, nEb5
	dc.b $83, nD5, $C6, nD5, nD5, nD5, nD5, $84
	dc.b nD5, $83, nD5, $84, nD5, $83, nD5, nD5
	dc.b nD5, nD5, nD5, $C0
	gLoopEnd
	gStop

.08_03	gLoopStart
	dc.b $C0
	gNop
	dc.b $CC, $C0
	gsVolume	$05
	dc.b $C0
	gsPrio		$7F
	gsPatch		$18
	dc.b $B3, $F0, nE2, $83, $D2, nF3, $C1, $FE
	dc.b nF2, $B3, $F0, nE2, $85, $D2, nF3, $84
	dc.b $C1, $CE, nF2, $D2, nF3, $85, $DE, nF2
	dc.b $B2, $F0, nE2, $84, $D2, nF3, $83, $C1
	dc.b $C2, nF2, $D8, nF3, $E4, nF2, $C0, nEb2
	dc.b $82, $BA, $C3, $C0, nE2, $C0
	gsPatch		$18
	dc.b $B3, $F0, nE2, $83, $D2, nF3, $EA, nF2
	dc.b $85, $C6, nB4, nCs5, $84, nD5, $89, $C1
	dc.b $C2, nE5, $B3, $F0, nE2, $85, $D2, nF3
	dc.b $84, $EA, nF2, $85, $C6, nB4, nCs5, nD5
	dc.b $88, $D2, nE5, $84, nF3, $85, $DE, nF2
	dc.b $B2, $F0, nE2, $84, $D2, nF3, $83, $EA
	dc.b nF2, $C6, nE5, nE5, $81, nE5, $82, nE5
	dc.b $83, $C0, nF3, $82, $D8, nE5, $83, $E4
	dc.b nF2, $C0, nEb2, $82, $BA, $C1, $EC, nE2
	dc.b $82, $C6, nE5, nE5, nE5, nF5, nE5, nE5
	dc.b nE5, nF5, nE5, nE5, nE5, $83, nF5, $82
	dc.b nE5, nE5, $C0
	gLoopEnd
	gStop

.08_04	gLoopStart
	dc.b $C0
	gNop
	gsPatch		$0E
	dc.b $8A, $D4, nE2, $88, $D0, nE2, $85, $CC
	dc.b nE2, $8C, $D4, nF2, $89, $D0, nF2, $8A
	dc.b $CC, nF2, $8B, $D4, nE2, $8A, $D0, nE2
	dc.b $88, $CC, nE2, $89, $D4, nF2, $8A, $D0
	dc.b nF2, $89, $CC, nG2, $C0
	gLoopEnd
	gStop

.08_05	gLoopStart
	dc.b $C0
	gNop
	dc.b $D8
	gsPatch		$3C
	dc.b $86, $F0, nB3, $D8, nB3
	gsPatch		$3C
	dc.b $F0, nB3, $D8, nB3
	gsPatch		$3C
	dc.b $F0, nB3, $D8, nB3
	gsPatch		$3C
	dc.b $F0, nB3, $D8, nB3
	gsPatch		$3C
	dc.b $F0, nB3, $D8, nB3
	gsPatch		$3C
	dc.b $F0, nB3, $D8, nB3
	gsPatch		$3C
	dc.b $F0, nB3, $D8, nB3
	gsPatch		$3C
	dc.b $F0, nB3, $D8, nB3
	gsPatch		$3C
	dc.b $F0, nB3, $D8, nB3
	gsPatch		$3C
	dc.b $F0, nB3, $D8, nB3
	gsPatch		$3C
	dc.b $F0, nB3, $D8, nB3
	gsPatch		$3C
	dc.b $F0, nB3, $D8, nB3
	gsPatch		$3C
	dc.b $F0, nB3, $D8, nB3
	gsPatch		$3C
	dc.b $F0, nB3, $D8, nB3
	gsPatch		$3C
	dc.b $F0, nB3, $D8, nB3
	gsPatch		$3C
	dc.b $F0, nB3, $D8, nB3
	gsPatch		$3C
	dc.b $F0, nB3, $D8, nB3
	gsPatch		$3C
	dc.b $F0, nB3, $D8, nB3
	gsPatch		$3C
	dc.b $F0, nB3, $D8, nB3
	gsPatch		$3C
	dc.b $F0, nB3, $D8, nB3
	gsPatch		$3C
	dc.b $F0, nB3, $D8, nB3
	gsPatch		$3C
	dc.b $F0, nB3, $D8, nB3
	gsPatch		$3C
	dc.b $F0, nB3, $D8, nB3
	gsPatch		$3C
	dc.b $F0, nB3, $D8, nB3, $C0
	gLoopEnd
	gStop

.09_00	dc.b $C0
	gStore		$00, $00
	gLoopStart
	dc.b $C0
	gNop
	gLoopStart	$18
	dc.b $C0
	gNop
	gsTempo		137
	gsPatch		$1D
	dc.b $88, $CC, nB1, nEb1, nFs1, $85, $C8, nAb1
	dc.b $88, $CC, nEb1, $83, $C4, nFs1, $87, $CC
	dc.b nAb1, $86, nBb1, $88, nBb1, $8A, nB1, $87
	dc.b nEb1, $89, nFs1, $86, $C8, nAb1, $87, $CC
	dc.b nEb1, $83, $C4, nFs1, $86, $CC, nAb1, $88
	dc.b nAb1, nBb1, $C1, $C5, $C0
	gLoopEnd
	dc.b $C1, $E0
	gsPatch		$00
	dc.b $C0
	gLoopEnd
	gStop

.09_01	gLoopStart
	dc.b $C1, $C2, $C0
	gNop
	dc.b $C0
	gsPatch		$29
	dc.b $86, $C8, nE4, $85, $C4, nEb4, $83, $C8
	dc.b nCs4, $C4, nB3, $84, $C8, nCs4, $C4, nB3
	dc.b $C8, nCs4, $83, $C4, nB3, $85, $C8, nE4
	dc.b $82, $C4, nB3, $84, $C8, nEb4, $83, $C4
	dc.b nB3, $84, $C8, nCs4, $82, $C4, nB3, $85
	dc.b $C8, nCs4, $83, $C4, nB3, $85, $C8, nE4
	dc.b $84, $CA, nEb4, $83, $C6, nB3, $84, $C8
	dc.b nCs4, $82, $C4, nB3, $84, $C8, nCs4, $82
	dc.b $C4, nB3, $85, $C8, nE4, $82, $C4, nB3
	dc.b $84, $C8, nEb4, $83, $C4, nB3, $82, $C8
	dc.b nCs4, $C4, nB3, $84, $C8, nCs4, $82, $C4
	dc.b nB3, $C0
	gsPatch		$29
	dc.b $86, $C8, nE4, $85, $C4, nEb4, $83, $C8
	dc.b nCs4, $C4, nB3, $84, $C8, nCs4, $C4, nB3
	dc.b $C8, nCs4, $83, $C4, nB3, $85, $C8, nE4
	dc.b $82, $C4, nB3, $84, $C8, nEb4, $83, $C4
	dc.b nB3, $84, $C8, nCs4, $82, $C4, nB3, $85
	dc.b $C8, nCs4, $83, $C4, nB3, $85, $C8, nE4
	dc.b $84, $CA, nEb4, $83, $C6, nB3, $84, $C8
	dc.b nCs4, $82, $C4, nB3, $84, $C8, nCs4, $82
	dc.b $C4, nB3, $85, $C8, nE4, $82, $C4, nB3
	dc.b $84, $C8, nEb4, $83, $C4, nB3, $82, $C8
	dc.b nCs4, $C4, nB3, $84, $C8, nCs4, $82, $C1
	dc.b $E4, nB3, $C0
	gLoopEnd
	gStop

.09_02	gLoopStart
	dc.b $FC, $C0
	gNop
	dc.b $C0
	gsPatch		$0C
	dc.b $82, $C8, nB3, $CC, nB3, $D0, nB3, $CC
	dc.b nB3, $C6, nCs4, $CE, nCs4, $D0, nCs4, $D4
	dc.b nB3, $CC, nB3, $C4, nB3, $CC, nB3, nB3
	dc.b $C6, nE4, $CE, nE4, $84, $D0, nB3, $82
	dc.b $CC, nE4, $C8, nB3, $CC, nB3, $D0, nB3
	dc.b $CC, nB3, $C6, nCs4, $CE, nCs4, $D0, nCs4
	dc.b $D4, nB3, $CC, nB3, $C4, nB3, $CC, nB3
	dc.b $D2, nB3, $84, nE4, $82, $CC, nE4, $84
	dc.b $C6, $D8, nFs3, $82, $C4, nB2, nEb3, nFs3
	dc.b nB3, nEb4, nFs4, $FC, nB4, $C0
	gLoopEnd
	gStop

.09_03	gLoopStart
	dc.b $F6, $C0
	gNop
	dc.b $C0
	gsPatch		$12
	dc.b $83, nB3, $C6, nEb4, $C0, nB3, $84, $D2
	dc.b nEb4, $85, $C0, nB3, $84, $C1, $C8, nEb4
	dc.b $82, $C0, nB3, $C6, nEb4, $83, $C0, nEb4
	dc.b $84, $D2, nB3, $C0, nB3, $83, $E4, nEb4
	dc.b $85, $C8, nAb4, $83, $D0, nFs4, $85, $CC
	dc.b nAb4, $C0
	gsPatch		$12
	dc.b $83, nB3, $C6, nEb4, $C0, nB3, $84, $D2
	dc.b nEb4, $85, $C0, nB3, $84, $C1, $C8, nEb4
	dc.b $82, $C0, nB3, $C6, nEb4, $83, $C0, nEb4
	dc.b $84, $D2, nB3, $C0, nB3, $83, $E4, nEb4
	dc.b $85, $C8, nAb4, $83, $D0, nFs4, $85, $C6
	dc.b $CC, nAb4, $C0
	gsPatch		$12
	dc.b $83, nB3, $C6, nEb4, $C0, nB3, $84, $D2
	dc.b nEb4, $85, $C0, nB3, $84, $C1, $C8, nEb4
	dc.b $82, $C0, nB3, $C6, nEb4, $83, $C0, nEb4
	dc.b $84, $D2, nB3, $C0, nB3, $83, $E4, nEb4
	dc.b $85, $C8, nAb4, $83, $D0, nFs4, $85, $CC
	dc.b nAb4, $C0
	gsPatch		$12
	dc.b $83, nB3, $C6, nEb4, $C0, nB3, $84, $D2
	dc.b nEb4, $85, $C0, nB3, $84, $C1, $C8, nEb4
	dc.b $82, $C0, nB3, $C6, nEb4, $83, $C0, nEb4
	dc.b $84, $D2, nB3, $C0, nB3, $83, $E4, nEb4
	dc.b $85, $C8, nAb4, $83, $D0, nFs4, $85, $C1
	dc.b $EC, nAb4, $C0
	gLoopEnd
	gStop

.09_04	gLoopStart
	dc.b $C0
	gNop
	gsPatch		$28
	dc.b $84, $CC, nB3, $C2, $F4, nEb4, $CC, nB3
	dc.b nEb4, $87, $C2, $E8, nFs3, $84, $CC, nB3
	dc.b $C0, nFs3, $CC, nEb4, $85, nFs3, $84, nE3
	dc.b $87, $D2, nE3, $8B, nEb3, $89, $CC, nCs3
	dc.b $87, nB2, nB2, $84, nCs3, nCs3, $87, $D2
	dc.b nEb3, $88, $DE, nE3, $C0
	gsPatch		$28
	dc.b $84, $CC, nB3, $85, $C0, nFs3, $84, $CC
	dc.b nEb4, $86, nFs3, $84, nE3, $8A, $D2, nE3
	dc.b nEb3, $91, $D8, nCs3, $85, $C0, nB4, $86
	dc.b $CC, nB2, $C0, nB4, $85, $CC, nB2, $84
	dc.b $C0, nB4, $85, $C8, nCs3, $86, $C4, nAb4
	dc.b $83, $C6, nCs3, $87, $C2, nEb3, $85, $D0
	dc.b nEb5, $D8, nE3, $C0
	gsPatch		$28
	dc.b $84, $CC, nB3, $D8, nEb4, $82, $C8, nB4
	dc.b $83, $C2, $D4, nB4, $C0
	gsPatch		$28
	dc.b $84, $CC, nB3, nEb4, $87, nFs3, $82, $C6
	dc.b nFs5, $83, $C2, $D6, nFs5, $C0
	gsPatch		$28
	dc.b $84, $CC, nB3, $C0, nFs3, $CC, nEb4, $85
	dc.b nFs3, $84, nE3, $87, $D2, nE3, $8B, nEb3
	dc.b $89, $CC, nCs3, $87, nB2, $C8, nB2, $88
	dc.b $D0, nCs3, $CC, nCs3, $87, $D2, nEb3, $88
	dc.b $DE, nE3, $C0
	gsPatch		$28
	dc.b $84, $CC, nB3, $85, $C0, nFs3, $84, $CC
	dc.b nEb4, $8F, $D4, nFs3, $82, $C4, nE3, $8A
	dc.b $D2, nE3, nEb3, $91, $D8, nCs3, $86, $CC
	dc.b nB2, $85, nB2, nCs3, $8D, $C0, nFs5, $83
	dc.b $C6, nCs3, $87, $CE, nEb3, $85, $C4, nE5
	dc.b $CC, nE3, nEb5, $C0
	gsPatch		$28
	dc.b $84, nB4, $CC, nB3, $C8, nEb4, $82, $C2
	dc.b $E0, nAb4, $84, $CC, nE5, $C0
	gsPatch		$28
	dc.b $85, nB4, $84, $C8, nB3, $83, $C4, nAb4
	dc.b $84, $CC, nEb4, $87, $C2, $E8, nFs3, $C0
	gsPatch		$28
	dc.b $84, $C8, nB3, $C4, nB4, $85, $C0, nFs3
	dc.b $84, $D8, nEb4, $8C, nE3, $86, nEb3, $97
	dc.b nCs3, $87, $CC, nB2, $86, nCs3, nCs3, $94
	dc.b $D8, nEb3, $87, nE3, $C0
	gsPatch		$28
	dc.b $84, $C8, nB3, $87, $C4, nEb5, $85, $C0
	dc.b nFs3, $84, $CC, nEb4, $86, nFs3, $85, nE3
	dc.b $86, $D2, nE3, $8B, nEb3, $97, $D8, nCs3
	dc.b $85, $CC, nB2, $86, nB2, $85, nCs3, $84
	dc.b $C6, nCs3, $86, $D2, nEb3, $CC, nFs3, nG3
	dc.b $C0
	gsPatch		$28
	dc.b $84, nB4, $CC, nEb4, $C8, nG4, $82, $C2
	dc.b $C8, nAb4, $84, $CC, nEb5, $85, nEb5, nCs5
	dc.b $C0
	gsPatch		$28
	dc.b $84, nEb5, $CC, nEb4, $85, $C0, nEb5, $84
	dc.b $CC, nG4, $87, $C1, $D4, nBb3, $84, $CC
	dc.b nB4, $83, $C8, nB4, $CC, nAb4, $D0, nAb4
	dc.b $84, $CC, nB4, $83, $D8, nB4, $C0
	gsPatch		$28
	dc.b $84, $CC, nEb4, $85, $C0, nBb3, $84, $C2
	dc.b $C4, nG4, $8D, $D4, nFs5, $85, $D0, nE5
	dc.b $CC, nEb5, $C0
	gsPatch		$28
	dc.b $84, $CC, nEb4, nG4, $86, $C1, $D4, nBb3
	dc.b $85, $CC, nEb3, $86, nEb3, $85, nF3, $84
	dc.b $C6, nF3, $86, nG3, $83, $CC, nFs5, $86
	dc.b $C0, nG3, $83, $CC, nFs5, $86, $C0, nAb3
	dc.b $83, $C8, nFs5, $82, $C4, nB4, $C0
	gsPatch		$28
	dc.b nB4, $84, $C8, nB3, $82, $C4, nB4, $84
	dc.b $C0, nEb4, $82, $C1, $DC, nB4, $C4, nB4
	dc.b $CC, nB4, nB4, nB4, $84, $D4, nEb5, $83
	dc.b $D0, nAb4, $C5, $E8, nB4, $84, $C0, nB4
	dc.b $83, $C2, $D0, nEb5, $84, $C0, nFs5, $85
	dc.b $C1, $DC, nB4, $84, $C0, nB3, $D0, nFs4
	dc.b $85, $C0, nFs4, $84, $C1, $D4, nB3, $C0
	dc.b nFs4, $85, $D2, nB3, $84, $C0, nFs4, $85
	dc.b $C1, $C2, nB3, $C0, nB3, $D2, nFs4, $C0
	dc.b nB3, $83, $C1, $DA, nFs4, $84, $C0, nFs4
	dc.b $85, $D2, nB3, $C0, nB3, $86, $C2, $EE
	dc.b nFs4, $82, $C6, nB4, $C1, $DA, nB4, $C6
	dc.b nB4, $C1, $DA, nB4, $C6, nB4, $D2, nB4
	dc.b $CC, nEb5, $83, nEb5, $82, $D8, nFs5, $8C
	dc.b $CC, nFs1, $85, $C0, nFs2, nB1, $C6, nEb2
	dc.b $83, $C0, nFs5, nB4, $DA, nEb5, $84, $C0
	dc.b nFs5, nB4, $C4, nEb5, $88, $C0, nFs4, nB4
	dc.b $FC, nEb5, $C0
	gLoopEnd
	gStop

.09_05	gLoopStart
	dc.b $C0
	gNop
	dc.b $F0, $C0
	gsPatch		$37
	dc.b $82, $C8, nB6, $C4, nB6, $C8, nB6, $C4
	dc.b nB6, $83, $C8, nB6, $C4, nB6, $82, $C8
	dc.b nB6, $83, $C4, nB6, $82, $C8, nB6, $C4
	dc.b nB6, $C8, nB6, $C4, nB6, $83, $C8, nB6
	dc.b $C4, nB6, $82, $C8, nB6, $83, $C4, nB6
	dc.b $82, $C8, nB6, $C4, nB6, $C8, nB6, $C4
	dc.b nB6, $83, $C8, nB6, $C4, nB6, $82, $C8
	dc.b nB6, $83, $C4, nB6, $82, $C8, nB6, $C4
	dc.b nB6, $C8, nB6, $C4, nB6, $83, $C8, nB6
	dc.b $C4, nB6, $82, $C8, nB6, $83, $C4, nB6
	dc.b $82, $C8, nB6, $C4, nB6, $C8, nB6, $C4
	dc.b nB6, $83, $C8, nB6, $C4, nB6, $82, $C8
	dc.b nB6, $83, $C4, nB6, $82, $C8, nB6, $C4
	dc.b nB6, $C8, nB6, $C4, nB6, $83, $C8, nB6
	dc.b $C4, nB6, $82, $C8, nB6, $83, $C4, nB6
	dc.b $82, $C8, nB6, $C4, nB6, $C8, nB6, $C4
	dc.b nB6, $83, $C8, nB6, $C4, nB6, $82, $C8
	dc.b nB6, $83, $C4, nB6, $82, $C8, nB6, $C4
	dc.b nB6, $C8, nB6, $C4, nB6, $83, $C8, nB6
	dc.b $C4, nB6, $82, $C8, nB6, $83, $C4, nB6
	dc.b $82, $C8, nB6, $C4, nB6, $C8, nB6, $C4
	dc.b nB6, $83, $C8, nB6, $C4, nB6, $82, $C8
	dc.b nB6, $83, $C4, nB6, $82, $C8, nB6, $C4
	dc.b nB6, $C8, nB6, $C4, nB6, $83, $C8, nB6
	dc.b $C4, nB6, $82, $C8, nB6, $83, $C4, nB6
	dc.b $82, $C8, nB6, $C4, nB6, $C8, nB6, $C4
	dc.b nB6, $83, $C8, nB6, $C4, nB6, $82, $C8
	dc.b nB6, $83, $C4, nB6, $82, $C8, nB6, $C4
	dc.b nB6, $C8, nB6, $C4, nB6, $83, $C8, nB6
	dc.b $C4, nB6, $82, $C8, nB6, $83, $C4, nB6
	dc.b $82, $C8, nB6, $C4, nB6, $C8, nB6, $C4
	dc.b nB6, $83, $C8, nB6, $C4, nB6, $82, $C8
	dc.b nB6, $83, $C4, nB6, $82, $C8, nB6, $C4
	dc.b nB6, $C8, nB6, $C4, nB6, $83, $C8, nB6
	dc.b $C4, nB6, $82, $C8, nB6, $83, $C4, nB6
	dc.b $82, $C8, nB6, $C4, nB6, $C8, nB6, $C4
	dc.b nB6, $83, $C8, nB6, $C4, nB6, $82, $C8
	dc.b nB6, $83, $C4, nB6, $82, $C8, nB6, $C4
	dc.b nB6, $C8, nB6, $C4, nB6, $83, $C8, nB6
	dc.b $C4, nB6, $82, $C8, nB6, $83, $C4, nB6
	dc.b $82, $C8, nB6, $C4, nB6, $C8, nB6, $C4
	dc.b nB6, $83, $C8, nB6, $C4, nB6, $82, $C8
	dc.b nB6, $83, $C4, nB6, $82, $C8, nB6, $C4
	dc.b nB6, $C8, nB6, $C4, nB6, $83, $C8, nB6
	dc.b $C4, nB6, $82, $C8, nB6, $83, $C4, nB6
	dc.b $82, $C8, nB6, $C4, nB6, $C8, nB6, $C4
	dc.b nB6, $83, $C8, nB6, $C4, nB6, $82, $C8
	dc.b nB6, $83, $C4, nB6, $82, $C8, nB6, $C4
	dc.b nB6, $C8, nB6, $C4, nB6, $83, $C8, nB6
	dc.b $C4, nB6, $82, $C8, nB6, $83, $C4, nB6
	dc.b $82, $C8, nB6, $C4, nB6, $C8, nB6, $C4
	dc.b nB6, $83, $C8, nB6, $C4, nB6, $82, $C8
	dc.b nB6, $83, $C4, nB6, $82, $C8, nB6, $C4
	dc.b nB6, $C8, nB6, $C4, nB6, $83, $C8, nB6
	dc.b $C4, nB6, $82, $C8, nB6, $83, $C4, nB6
	dc.b $82, $C8, nB6, $C4, nB6, $C8, nB6, $C4
	dc.b nB6, $83, $C8, nB6, $C4, nB6, $82, $C8
	dc.b nB6, $83, $C4, nB6, $82, $C8, nB6, $C4
	dc.b nB6, $C8, nB6, $C4, nB6, $83, $C8, nB6
	dc.b $C4, nB6, $82, $C8, nB6, $83, $C4, nB6
	dc.b $82, $C8, nB6, $C4, nB6, $C8, nB6, $C4
	dc.b nB6, $83, $C8, nB6, $C4, nB6, $82, $C8
	dc.b nB6, $83, $C4, nB6, $82, $C8, nB6, $C4
	dc.b nB6, $C8, nB6, $C4, nB6, $83, $C8, nB6
	dc.b $C4, nB6, $82, $C8, nB6, $83, $C4, nB6
	dc.b $82, $C8, nB6, $C4, nB6, $C8, nB6, $C4
	dc.b nB6, $83, $C8, nB6, $C4, nB6, $82, $C8
	dc.b nB6, $83, $C4, nB6, $82, $C8, nB6, $C4
	dc.b nB6, $C8, nB6, $C4, nB6, $83, $C8, nB6
	dc.b $C4, nB6, $82, $C8, nB6, $83, $C4, nB6
	dc.b $82, $C8, nB6, $C4, nB6, $C8, nB6, $C4
	dc.b nB6, $83, $C8, nB6, $C4, nB6, $82, $C8
	dc.b nB6, $83, $C4, nB6, $82, $C8, nB6, $C4
	dc.b nB6, $C8, nB6, $C4, nB6, $83, $C8, nB6
	dc.b $C4, nB6, $82, $C8, nB6, $83, $C4, nB6
	dc.b $82, $C8, nB6, $C4, nB6, $C8, nB6, $C4
	dc.b nB6, $83, $C8, nB6, $C4, nB6, $82, $C8
	dc.b nB6, $83, $C4, nB6, $82, $C8, nB6, $C4
	dc.b nB6, $C8, nB6, $C4, nB6, $83, $C8, nB6
	dc.b $C4, nB6, $82, $C8, nB6, $83, $C1, $E4
	dc.b nB6, $C0
	gLoopEnd
	gStop

.09_06	gLoopStart
	dc.b $C0
	gNop
	gsPatch		$7A
	dc.b $87, $C8, nC4, $82, $C4, nD4, $84, $C8
	dc.b nD4, $82, $C4, nC4, $8C, $C8, nG5, $82
	dc.b $C4, nD4, $86, $C8, nB3, $83, $C4, nD4
	dc.b $C8, nD4, $C4, nD4, $84, $C8, nC4, $83
	dc.b $C4, nD4, $8C, $C8, nG5, $83, $C4, nD4
	dc.b $C8, nD4, $82, $C4, nD4, $87, $C8, nC4
	dc.b $82, $C4, nD4, $84, $C8, nD4, $82, $C4
	dc.b nC4, $8C, $C8, nG5, $82, $C4, nD4, $86
	dc.b $C8, nB3, $83, $C4, nD4, $C8, nD4, $C4
	dc.b nD4, $84, $C8, nC4, $83, $C4, nD4, $8C
	dc.b $C8, nG5, $83, $C4, nD4, $C8, nD4, $82
	dc.b $C4, nD4, $87, $C8, nC4, $82, $C4, nD4
	dc.b $84, $C8, nD4, $82, $C4, nC4, $8C, $C8
	dc.b nG5, $82, $C4, nD4, $86, $C8, nB3, $83
	dc.b $C4, nD4, $C8, nD4, $C4, nD4, $84, $C8
	dc.b nC4, $83, $C4, nD4, $8C, $C8, nG5, $83
	dc.b $C4, nD4, $C8, nD4, $82, $C4, nD4, $87
	dc.b $C8, nC4, $82, $C4, nD4, $84, $C8, nD4
	dc.b $82, $C4, nC4, $8C, $C8, nG5, $82, $C4
	dc.b nD4, $86, $C8, nB3, $83, $C4, nD4, $C8
	dc.b nD4, $C4, nD4, $84, $C8, nC4, $83, $C4
	dc.b nD4, $8C, $C8, nG5, $83, $C4, nD4, $C8
	dc.b nD4, $82, $C4, nD4, $87, $C8, nC4, $82
	dc.b $C4, nD4, $84, $C8, nD4, $82, $C4, nC4
	dc.b $8C, $C8, nG5, $82, $C4, nD4, $86, $C8
	dc.b nB3, $83, $C4, nD4, $C8, nD4, $C4, nD4
	dc.b $84, $C8, nC4, $83, $C4, nD4, $8C, $C8
	dc.b nG5, $83, $C4, nD4, $C8, nD4, $82, $C4
	dc.b nD4, $87, $C8, nC4, $82, $C4, nD4, $84
	dc.b $C8, nD4, $82, $C4, nC4, $8C, $C8, nG5
	dc.b $82, $C4, nD4, $86, $C8, nB3, $83, $C4
	dc.b nD4, $C8, nD4, $C4, nD4, $84, $C8, nC4
	dc.b $83, $C4, nD4, $8C, $C8, nG5, $83, $C4
	dc.b nD4, $C8, nD4, $82, $C4, nD4, $87, $C8
	dc.b nC4, $82, $C4, nD4, $84, $C8, nD4, $82
	dc.b $C4, nC4, $8C, $C8, nG5, $82, $C4, nD4
	dc.b $86, $C8, nB3, $83, $C4, nD4, $C8, nD4
	dc.b $C4, nD4, $84, $C8, nC4, $83, $C4, nD4
	dc.b $8C, $C8, nG5, $83, $C4, nD4, $C8, nD4
	dc.b $82, $C4, nD4, $87, $C8, nC4, $82, $C4
	dc.b nD4, $84, $C8, nD4, $82, $C4, nC4, $8C
	dc.b $C8, nG5, $82, $C4, nD4, $86, $C8, nB3
	dc.b $83, $C4, nD4, $C8, nD4, $C4, nD4, $84
	dc.b $C8, nC4, $83, $C4, nD4, $8C, $C8, nG5
	dc.b $83, $C4, nD4, $C8, nD4, $82, $C4, nD4
	dc.b $87, $C8, nC4, $82, $C4, nD4, $84, $C8
	dc.b nD4, $82, $C4, nC4, $8C, $C8, nG5, $82
	dc.b $C4, nD4, $86, $C8, nB3, $83, $C4, nD4
	dc.b $C8, nD4, $C4, nD4, $84, $C8, nC4, $83
	dc.b $C4, nD4, $8C, $C8, nG5, $83, $C4, nD4
	dc.b $C8, nD4, $82, $C4, nD4, $87, $C8, nC4
	dc.b $82, $C4, nD4, $84, $C8, nD4, $82, $C4
	dc.b nC4, $8C, $C8, nG5, $82, $C4, nD4, $86
	dc.b $C8, nB3, $83, $C4, nD4, $C8, nD4, $C4
	dc.b nD4, $84, $C8, nC4, $83, $C4, nD4, $8C
	dc.b $C8, nG5, $83, $C4, nD4, $C8, nD4, $82
	dc.b $C4, nD4, $87, $C8, nC4, $82, $C4, nD4
	dc.b $84, $C8, nD4, $82, $C4, nC4, $8C, $C8
	dc.b nG5, $82, $C4, nD4, $86, $C8, nB3, $83
	dc.b $C4, nD4, $C8, nD4, $C4, nD4, $84, $C8
	dc.b nC4, $83, $C4, nD4, $8C, $C8, nG5, $83
	dc.b $C4, nD4, $C8, nD4, $82, $C4, nD4, $87
	dc.b $C8, nC4, $82, $C4, nD4, $84, $C8, nD4
	dc.b $82, $C4, nC4, $8C, $C8, nG5, $82, $C4
	dc.b nD4, $86, $C8, nB3, $83, $C4, nD4, $C8
	dc.b nD4, $C4, nD4, $84, $C8, nC4, $83, $C4
	dc.b nD4, $8C, $C8, nG5, $83, $C4, nD4, $C8
	dc.b nD4, $82, $C4, nD4, $87, $C8, nC4, $82
	dc.b $C4, nD4, $84, $C8, nD4, $82, $C4, nC4
	dc.b $8C, $C8, nG5, $82, $C4, nD4, $86, $C8
	dc.b nB3, $83, $C4, nD4, $C8, nD4, $C4, nD4
	dc.b $84, $C8, nC4, $83, $C4, nD4, $8C, $C8
	dc.b nG5, $83, $C4, nD4, $C8, nD4, $82, $C4
	dc.b nD4, $87, $C8, nC4, $82, $C4, nD4, $84
	dc.b $C8, nD4, $82, $C4, nC4, $8C, $C8, nG5
	dc.b $82, $C4, nD4, $86, $C8, nB3, $83, $C4
	dc.b nD4, $C8, nD4, $C4, nD4, $84, $C8, nC4
	dc.b $83, $C4, nD4, $8C, $C8, nG5, $83, $C4
	dc.b nD4, $C8, nD4, $82, $C4, nD4, $87, $C8
	dc.b nC4, $82, $C4, nD4, $84, $C8, nD4, $82
	dc.b $C4, nC4, $8C, $C8, nG5, $82, $C4, nD4
	dc.b $86, $C8, nB3, $83, $C4, nD4, $C8, nD4
	dc.b $C4, nD4, $84, $C8, nC4, $83, $C4, nD4
	dc.b $8C, $C8, nG5, $83, $C4, nD4, $C8, nD4
	dc.b $82, $C4, nD4, $87, $C8, nC4, $82, $C4
	dc.b nD4, $84, $C8, nD4, $82, $C4, nC4, $8C
	dc.b $C8, nG5, $82, $C4, nD4, $86, $C8, nB3
	dc.b $83, $C4, nD4, $C8, nD4, $C4, nD4, $84
	dc.b $C8, nC4, $83, $C4, nD4, $8C, $C8, nG5
	dc.b $83, $C4, nD4, $C8, nD4, $82, $C4, nC4
	dc.b $87, $C8, nC4, $82, $C4, nD4, $84, $C8
	dc.b nD4, $82, $C4, nC4, $8C, $C8, nG5, $82
	dc.b $C4, nD4, $86, $C8, nB3, $83, $C4, nD4
	dc.b $C8, nD4, $C4, nD4, $84, $C8, nC4, $83
	dc.b $C4, nD4, $8C, $C8, nG5, $83, $C4, nD4
	dc.b $C8, nD4, $82, $C4, nD4, $87, $C8, nC4
	dc.b $82, $C4, nD4, $84, $C8, nD4, $82, $C4
	dc.b nC4, $8C, $C8, nG5, $82, $C4, nD4, $86
	dc.b $C8, nB3, $83, $C4, nD4, $C8, nD4, $C4
	dc.b nD4, $84, $C8, nC4, $83, $C4, nD4, $8C
	dc.b $C8, nG5, $83, $C4, nD4, $C8, nD4, $82
	dc.b $C4, nD4, $87, $C8, nC4, $82, $C4, nD4
	dc.b $84, $C8, nD4, $82, $C4, nC4, $8C, $C8
	dc.b nG5, $82, $C4, nD4, $86, $C8, nB3, $83
	dc.b $C4, nD4, $C8, nD4, $C4, nD4, $84, $C8
	dc.b nC4, $83, $C4, nD4, $8C, $C8, nG5, $83
	dc.b $C4, nD4, $C8, nD4, $82, $C4, nD4, $87
	dc.b $C8, nC4, $82, $C4, nD4, $84, $C8, nD4
	dc.b $82, $C4, nC4, $8C, $C8, nG5, $82, $C4
	dc.b nD4, $86, $C8, nB3, $83, $C4, nD4, $C8
	dc.b nD4, $C4, nD4, $84, $C8, nC4, $83, $C4
	dc.b nD4, $8C, $C8, nG5, $83, $C4, nD4, $C8
	dc.b nD4, $82, $C4, nD4, $87, $C8, nC4, $82
	dc.b $C4, nD4, $84, $C8, nD4, $82, $C4, nC4
	dc.b $8C, $C8, nG5, $82, $C4, nD4, $86, $C8
	dc.b nB3, $83, $C4, nD4, $C8, nD4, $C4, nD4
	dc.b $84, $C8, nC4, $83, $C4, nD4, $8C, $C8
	dc.b nG5, $83, $C4, nD4, $C8, nD4, $82, $C4
	dc.b nD4, $87, $C8, nC4, $82, $C4, nD4, $84
	dc.b $C8, nD4, $82, $C4, nC4, $8C, $C8, nG5
	dc.b $82, $C4, nD4, $86, $C8, nB3, $83, $C4
	dc.b nD4, $C8, nD4, $C4, nD4, $84, $C8, nC4
	dc.b $83, $C4, nD4, $8C, $C8, nG5, $83, $C4
	dc.b nD4, $C8, nD4, $82, $C4, nD4, $87, $C8
	dc.b nC4, $82, $C4, nD4, $84, $C8, nD4, $82
	dc.b $C4, nC4, $8C, $C8, nG5, $82, $C4, nD4
	dc.b $86, $C8, nB3, $83, $C4, nD4, $C8, nD4
	dc.b $C4, nD4, $84, $C8, nC4, $83, $C4, nD4
	dc.b $8C, $C8, nG5, $83, $C4, nD4, $C8, nD4
	dc.b $82, $C4, nD4, $87, $C8, nC4, $82, $C4
	dc.b nD4, $84, $C8, nD4, $82, $C4, nC4, $8C
	dc.b $C8, nG5, $82, $C4, nD4, $86, $C8, nB3
	dc.b $83, $C4, nD4, $C8, nD4, $C4, nD4, $84
	dc.b $C8, nC4, $83, $C4, nD4, $87, $C8, nG5
	dc.b $83, $C4, nC5, $86, $C8, nC5, $83, $C4
	dc.b nC5, $87, $C8, nC4, $82, $C4, nD4, $84
	dc.b $C8, nD4, $82, $C4, nC4, $8C, $C8, nG5
	dc.b $82, $C4, nD4, $86, $C8, nB3, $83, $C4
	dc.b nD4, $C8, nD4, $C4, nD4, $84, $C8, nC4
	dc.b $83, $C4, nD4, $8C, $C8, nG5, $83, $C4
	dc.b nD4, $C8, nD4, $82, $C4, nD4, $87, $C8
	dc.b nC4, $82, $C4, nD4, $84, $C8, nD4, $82
	dc.b $C4, nC4, $8C, $C8, nG5, $82, $C4, nD4
	dc.b $86, $C8, nB3, $83, $C4, nD4, $C8, nD4
	dc.b $C4, nD4, $84, $C8, nC4, $83, $C4, nD4
	dc.b $8C, $C8, nG5, $83, $C4, nD4, $C8, nD4
	dc.b $82, $C4, nD4, $87, $C8, nC4, $82, $C4
	dc.b nD4, $84, $C8, nD4, $82, $C4, nC4, $8C
	dc.b $C8, nG5, $82, $C4, nD4, $86, $C8, nB3
	dc.b $83, $C4, nD4, $C8, nD4, $C4, nD4, $84
	dc.b $C8, nC4, $83, $C4, nD4, $8C, $C8, nG5
	dc.b $83, $C4, nD4, $C8, nD4, $82, $C4, nD4
	dc.b $87, $C8, nC4, $82, $C4, nD4, $84, $C8
	dc.b nD4, $82, $C4, nC4, $8C, $C8, nG5, $82
	dc.b $C4, nD4, $86, $C8, nB3, $83, $C4, nD4
	dc.b $C8, nD4, $C4, nD4, $84, $C8, nC4, $83
	dc.b $C4, nD4, $8C, $C8, nG5, $83, $C4, nD4
	dc.b $C8, nD4, $82, $C4, nD4, $87, $C8, nC4
	dc.b $82, $C4, nD4, $84, $C8, nD4, $82, $C4
	dc.b nC4, $8C, $C8, nG5, $82, $C4, nD4, $86
	dc.b $C8, nB3, $83, $C4, nD4, $C8, nD4, $C4
	dc.b nD4, $84, $C8, nC4, $83, $C4, nD4, $8C
	dc.b $C8, nG5, $83, $C4, nD4, $C8, nD4, $82
	dc.b $C4, nD4, $87, $C8, nC4, $82, $C4, nD4
	dc.b $84, $C8, nD4, $82, $C4, nC4, $8C, $C8
	dc.b nG5, $82, $C4, nD4, $86, $C8, nB3, $83
	dc.b $C4, nD4, $C8, nD4, $C4, nD4, $84, $C8
	dc.b nC4, $83, $C4, nD4, $8C, $C8, nG5, $83
	dc.b $C4, nD4, $C8, nD4, $82, $C4, nD4, $87
	dc.b $C8, nC4, $82, $C4, nD4, $84, $C8, nD4
	dc.b $82, $C4, nC4, $8C, $C8, nG5, $82, $C4
	dc.b nD4, $86, $C8, nB3, $83, $C4, nD4, $C8
	dc.b nD4, $C4, nD4, $84, $C8, nC4, $83, $C4
	dc.b nD4, $8C, $C8, nG5, $83, $C4, nD4, $C8
	dc.b nD4, $82, $C4, nD4, $87, $C8, nC4, $82
	dc.b $C4, nD4, $84, $C8, nD4, $82, $C4, nC4
	dc.b $8C, $C8, nG5, $82, $C4, nD4, $86, $C8
	dc.b nB3, $83, $C4, nD4, $C8, nD4, $C4, nD4
	dc.b $84, $C8, nC4, $83, $C4, nD4, $8C, $C8
	dc.b nG5, $83, $C4, nD4, $C8, nD4, $82, $C2
	dc.b $F8, nD4, $81, $C2, nCs4, nCs4, nCs4, nCs4
	dc.b nCs4, nCs4, $87, $C8, nC4, $82, $C4, nD4
	dc.b $84, $C8, nD4, $82, $C4, nC4, $8C, $C8
	dc.b nG5, $82, $C4, nD4, $86, $C8, nB3, $83
	dc.b $C4, nD4, $C8, nD4, $C4, nD4, $84, $C8
	dc.b nC4, $83, $C4, nD4, $8C, $C8, nG5, $83
	dc.b $C4, nD4, $C8, nD4, $82, $C4, nD4, $87
	dc.b $C8, nC4, $82, $C4, nD4, $84, $C8, nD4
	dc.b $82, $C4, nC4, $8C, $C8, nG5, $82, $C4
	dc.b nD4, $86, $C8, nB3, $83, $C4, nD4, $C8
	dc.b nD4, $C4, nD4, $84, $C8, nC4, $83, $C4
	dc.b nD4, $8C, $C8, nG5, $83, $C4, nD4, $C8
	dc.b nD4, $82, $C4, nD4, $87, $C8, nC4, $82
	dc.b $C4, nD4, $84, $C8, nD4, $82, $C4, nC4
	dc.b $8C, $C8, nG5, $82, $C4, nD4, $86, $C8
	dc.b nB3, $83, $C4, nD4, $C8, nD4, $C4, nD4
	dc.b $84, $C8, nC4, $83, $C4, nD4, $8C, $C8
	dc.b nG5, $83, $C4, nD4, $C8, nD4, $82, $C4
	dc.b nD4, $87, $C8, nC4, $82, $C4, nD4, $84
	dc.b $C8, nD4, $82, $C4, nC4, $8C, $C8, nG5
	dc.b $82, $C4, nD4, $86, $C8, nB3, $83, $C4
	dc.b nD4, $C8, nD4, $C4, nD4, $84, $C8, nC4
	dc.b $83, $C4, nD4, $8C, $C8, nG5, $83, $C4
	dc.b nD4, $C8, nD4, $82, $C4, nD4, $87, $C8
	dc.b nC4, $82, $C4, nD4, $84, $C8, nD4, $82
	dc.b $C4, nC4, $8C, $C8, nG5, $82, $C4, nD4
	dc.b $86, $C8, nB3, $83, $C4, nD4, $C8, nD4
	dc.b $C4, nD4, $84, $C8, nC4, $83, $C4, nD4
	dc.b $8C, $C8, nG5, $83, $C4, nD4, $C8, nD4
	dc.b $82, $C4, nD4, $87, $C8, nC4, $82, $C4
	dc.b nD4, $84, $C8, nD4, $82, $C4, nC4, $8C
	dc.b $C8, nG5, $82, $C4, nD4, $86, $C8, nB3
	dc.b $83, $C4, nD4, $C8, nD4, $C4, nD4, $84
	dc.b $C8, nC4, $83, $C4, nD4, $8C, $C8, nG5
	dc.b $83, $C4, nD4, $C8, nD4, $82, $C4, nC4
	dc.b $87, $C8, nC4, $82, $C4, nD4, $84, $C8
	dc.b nD4, $82, $C4, nC4, $8C, $C8, nG5, $82
	dc.b $C4, nD4, $86, $C8, nB3, $83, $C4, nD4
	dc.b $C8, nD4, $C4, nD4, $84, $C8, nC4, $83
	dc.b $C4, nD4, $8C, $C8, nG5, $83, $C4, nD4
	dc.b $C8, nD4, $82, $C4, nD4, $87, $C8, nC4
	dc.b $82, $C4, nD4, $84, $C8, nD4, $82, $C4
	dc.b nC4, $8C, $C8, nG5, $82, $C4, nD4, $86
	dc.b $C8, nB3, $83, $C4, nD4, $C8, nD4, $C4
	dc.b nD4, $84, $C8, nC4, $83, $C4, nD4, $8C
	dc.b $C8, nG5, $83, $C4, nD4, $C8, nD4, $82
	dc.b $C4, nD4, $87, $C8, nC4, $82, $C4, nD4
	dc.b $84, $C8, nD4, $82, $C4, nC4, $8C, $C8
	dc.b nG5, $82, $C4, nD4, $86, $C8, nB3, $83
	dc.b $C4, nD4, $C8, nD4, $C4, nD4, $84, $C8
	dc.b nC4, $83, $C4, nD4, $8C, $C8, nG5, $83
	dc.b $C4, nD4, $C8, nD4, $82, $C4, nD4, $87
	dc.b $C8, nC4, $82, $C4, nD4, $84, $C8, nD4
	dc.b $82, $C4, nC4, $8C, $C8, nG5, $82, $C4
	dc.b nD4, $86, $C8, nB3, $83, $C4, nD4, $C8
	dc.b nD4, $C4, nD4, $84, $C8, nC4, $83, $C4
	dc.b nD4, $8C, $C8, nG5, $83, $C4, nD4, $C8
	dc.b nD4, $82, $C4, nD4, $87, $C8, nC4, $82
	dc.b $C4, nD4, $84, $C8, nD4, $82, $C4, nC4
	dc.b $8C, $C8, nG5, $82, $C4, nD4, $86, $C8
	dc.b nB3, $83, $C4, nD4, $C8, nD4, $C4, nD4
	dc.b $84, $C8, nC4, $83, $C4, nD4, $8C, $C8
	dc.b nG5, $83, $C4, nD4, $C8, nD4, $82, $C4
	dc.b nD4, $87, $C8, nC4, $82, $C4, nD4, $84
	dc.b $C8, nD4, $82, $C4, nC4, $8C, $C8, nG5
	dc.b $82, $C4, nD4, $86, $C8, nB3, $83, $C4
	dc.b nD4, $C8, nD4, $C4, nD4, $84, $C8, nC4
	dc.b $83, $C4, nD4, $8C, $C8, nG5, $83, $C4
	dc.b nD4, $C8, nD4, $82, $C4, nD4, $87, $C8
	dc.b nC4, $82, $C4, nD4, $84, $C8, nD4, $82
	dc.b $C4, nC4, $8C, $C8, nG5, $82, $C4, nD4
	dc.b $86, $C8, nB3, $83, $C4, nD4, $C8, nD4
	dc.b $C4, nD4, $84, $C8, nC4, $83, $C4, nD4
	dc.b $8C, $C8, nG5, $83, $C4, nD4, $C8, nD4
	dc.b $82, $C4, nD4, $87, $C8, nC4, $82, $C4
	dc.b nD4, $84, $C8, nD4, $82, $C4, nC4, $8C
	dc.b $C8, nG5, $82, $C4, nD4, $86, $C8, nB3
	dc.b $83, $C4, nD4, $C8, nD4, $C4, nD4, $84
	dc.b $C8, nC4, $83, $C4, nD4, $8C, $C8, nG5
	dc.b $83, $C4, nD4, $C8, nD4, $82, $C4, nD4
	dc.b $87, $F0, nC4, $CC, nC4, $86, nG5, nG5
	dc.b nG5, $C0
	gLoopEnd
	gStop

.09_07	gLoopStart
	dc.b $C0
	gNop
	gLoopStart	$30
	dc.b $C0
	gNop
	dc.b $D8
	gsPatch		$3C
	dc.b $86, $F0, nB3, $D8, nB3, $C1, $C8, $C0
	gLoopEnd
	dc.b $C0
	gLoopEnd
	gStop

.09_08	gLoopStart
	dc.b $C1, $C9, $E0
	gNop
	dc.b $CC, $C0
	gsPatch		$0C
	dc.b $83, $CC, nB2, $82, nB2, nFs3, $C8, nFs3
	dc.b $83, $CC, nEb3, $82, $C4, nEb3, $CC, nB3
	dc.b nB3, nB3, $84, $E4, nB2, $82, $C8, nB3
	dc.b $83, $D0, nEb3, $82, $D8, nFs3, $CC, nFs3
	dc.b $83, nB2, $82, nB2, nFs3, $C8, nFs3, $83
	dc.b $CC, nEb3, $82, $C4, nEb3, $CC, nB3, nB3
	dc.b $D4, nB3, $D0, nB2, $D4, nAb3, $83, $D0
	dc.b nEb3, $C6, $E4, nFs3, $85, $CC, nB3, $C3
	dc.b $E4, nEb4, $CC, nB2, nEb3, $CA, $D4, nFs2
	dc.b $84, $CC, nAb3, $83, nFs3, nFs3, $D4, nEb3
	dc.b $84, $D0, nB2, $83, $C1, $C4, nEb3, $C4
	dc.b nB2, $CC, nEb3, $84, nEb3, nAb3, $D4, nFs3
	dc.b $C1, $F8, nB2, $83, $C4, nB2, $CC, nEb3
	dc.b $82, nEb3, nEb3, $83, nB2, nAb3, $82, $C8
	dc.b nFs3, $83, $D0, nB2, $82, $C1, $E8, nEb3
	dc.b $83, $C4, nB2, $C8, nEb3, $C4, nB2, $84
	dc.b $CC, nEb3, $83, nEb3, $84, nB2, nAb3, $83
	dc.b nFs3, $82, nFs3, $83, $C1, $E0, nB2, $82
	dc.b $C8, nB3, $C4, nB3, $C8, nB3, $C4, nB3
	dc.b $CC, nB3, nB3, nBb3, $85, $D8, nAb3, $82
	dc.b $D6, $F8, nFs3, $C0
	gLoopEnd
	gStop

.0B_00	dc.b $C0
	gStore		$00, $00
	gsTempo		125
	gsPatch		$7A
	dc.b $8C, $CC, nAb5, nAb5, $A4, $E4, nG5, $8C
	dc.b $CC, nAb5, nG5, nAb5, nAb5, nAb5, $9E, $DE
	dc.b nG5, $86, $C6, nG5, $8C, $CC, nAb5, nG5
	dc.b nAb5, nAb5, nAb5, $A4, $E4, nG5, $8C, $CC
	dc.b nAb5, nG5, $C1, $DA, nAb5, $86, $C6, nCs4
	dc.b nG5, nG5
	gLoopStart
	dc.b $C0
	gNop
	dc.b $8C, $CC, nAb5, nAb5, $A4, $E4, nG5, $8C
	dc.b $CC, nAb5, nG5, nAb5, nAb5, nAb5, $9E, $DE
	dc.b nG5, $86, $C6, nG5, $8C, $CC, nAb5, nG5
	dc.b nAb5, nAb5, nAb5, $A4, $E4, nG5, $8C, $CC
	dc.b nAb5, nG5, nAb5, nAb5, nAb5, $9E, $DE, nG5
	dc.b $86, $C6, nG5, $8C, $CC, nAb5, nG5, nAb5
	dc.b $98, $D8, nAb5, $A4, $E4, nG5, $8C, $CC
	dc.b nAb5, nG5, nAb5, nAb5, nAb5, $9E, $DE, nG5
	dc.b $86, $C6, nG5, $8C, $CC, nAb5, nG5, nAb5
	dc.b $98, $D8, nAb5, $A4, $E4, nG5, $8C, $CC
	dc.b nAb5, nG5, nAb5, nAb5, nAb5, $9E, $DE, nG5
	dc.b $86, $C6, nG5, $8C, $CC, nAb5, nG5, nAb5
	dc.b nAb5, nAb5, $A4, $E4, nG5, $8C, $CC, nAb5
	dc.b nG5, nAb5, nAb5, nAb5, $9E, $DE, nG5, $86
	dc.b $C6, nG5, $8C, $CC, nAb5, nG5, nAb5, nAb5
	dc.b nAb5, $A4, $E4, nG5, $8C, $CC, nAb5, nG5
	dc.b $C1, $DA, nAb5, $86, $C6, nG5, nG5, nG5
	dc.b $8C, $CC, nAb5, nAb5, $A4, $E4, nG5, $8C
	dc.b $CC, nAb5, nG5, nAb5, nAb5, nAb5, $9E, $DE
	dc.b nG5, $86, $C6, nG5, $8C, $CC, nAb5, nG5
	dc.b nAb5, nAb5, nAb5, $A4, $E4, nG5, $8C, $CC
	dc.b nAb5, nG5, nAb5, nAb5, nAb5, $9E, $DE, nG5
	dc.b $86, $C6, nG5, $8C, $CC, nAb5, nG5, nAb5
	dc.b $98, $D8, nAb5, $A4, $E4, nG5, $8C, $CC
	dc.b nAb5, nG5, nAb5, nAb5, nAb5, $9E, $DE, nG5
	dc.b $86, $C6, nG5, $8C, $CC, nAb5, nG5, nAb5
	dc.b $98, $D8, nAb5, $A4, $E4, nG5, $8C, $CC
	dc.b nAb5, nG5, nAb5, nAb5, nAb5, $9E, $DE, nG5
	dc.b $86, $C6, nG5, $8C, $CC, nAb5, nG5, nAb5
	dc.b nAb5, nAb5, $A4, $E4, nG5, $8C, $CC, nAb5
	dc.b nG5, nAb5, nAb5, nAb5, $9E, $DE, nG5, $86
	dc.b $C6, nG5, $8C, $CC, nAb5, nG5, nAb5, nAb5
	dc.b nAb5, $A4, $E4, nG5, $8C, $CC, nAb5, nG5
	dc.b $98, $C1, $C2, nAb5, $86, $C6, nG5, $92
	dc.b $D2, nG5, $86, $C6, nG5, $8C, $CC, nG5
	dc.b nAb5, nAb5, $A4, $E4, nG5, $8C, $CC, nAb5
	dc.b nG5, nAb5, nAb5, nAb5, $9E, $DE, nG5, $86
	dc.b $C6, nG5, $8C, $CC, nAb5, nG5, nAb5, nAb5
	dc.b nAb5, $A4, $E4, nG5, $8C, $CC, nAb5, nG5
	dc.b nAb5, nAb5, nAb5, $9E, $DE, nG5, $86, $C6
	dc.b nG5, $8C, $CC, nAb5, nG5, nAb5, $98, $D8
	dc.b nAb5, $A4, $E4, nG5, $8C, $CC, nAb5, nG5
	dc.b nAb5, nAb5, nAb5, $9E, $DE, nG5, $86, $C6
	dc.b nG5, $8C, $CC, nAb5, nG5, nAb5, $98, $D8
	dc.b nAb5, $A4, $E4, nG5, $8C, $CC, nAb5, nG5
	dc.b nAb5, nAb5, nAb5, $9E, $DE, nG5, $86, $C6
	dc.b nG5, $8C, $CC, nAb5, nG5, nAb5, nAb5, nAb5
	dc.b $A4, $E4, nG5, $8C, $CC, nAb5, nG5, nAb5
	dc.b nAb5, nAb5, $9E, $DE, nG5, $86, $C6, nG5
	dc.b $8C, $CC, nAb5, nG5, nAb5, nAb5, nAb5, $A4
	dc.b $E4, nG5, $8C, $CC, nAb5, nG5, $C1, $DA
	dc.b nAb5, $86, $C6, nG5, nG5, $83, nG5, $C0
	gLoopEnd
	gStop

.0B_01	dc.b $C0
	gsVolume	$05
	gsPatch		$37
	dc.b $86, $C6, nA3, $83, nA3, $86, nA3, $83
	dc.b nA3, $86, nA3, $83, nA3, $86, nA3, $83
	dc.b nA3, $86, nA3, $83, nA3, $86, nA3, $83
	dc.b nA3, $86, nA3, $83, nA3, $86, nA3, $83
	dc.b nA3, $86, nA3, $83, nA3, $86, nA3, $83
	dc.b nA3, $86, nA3, $83, nA3, $86, nA3, $83
	dc.b nA3, $86, nA3, $83, nA3, $86, nA3, $83
	dc.b nA3, $86, nA3, $83, nA3, $86, nA3, $83
	dc.b nA3, $86, nA3, $83, nA3, $86, nA3, $83
	dc.b nA3, $86, nA3, $83, nA3, $86, nA3, $83
	dc.b nA3, $86, nA3, $83, nA3, $86, nA3, $83
	dc.b nA3, $86, nA3, $83, nA3, $86, nA3, $83
	dc.b nA3, $86, nA3, $83, nA3, $86, nA3, $83
	dc.b nA3, $86, nA3, $83, nA3, $86, nA3, $83
	dc.b nA3, $86, nA3, $83, nA3, $86, nA3, $83
	dc.b nA3, $86, nA3, $83, nA3, $86, nA3, $83
	dc.b nA3
	gLoopStart
	dc.b $CC, $C6
	gNop
	dc.b $83, $C6, nE3, $86, nFs3, $83, nE3, $86
	dc.b nFs3, $83, nE3, $86, nFs3, $83, nE3, $86
	dc.b nFs3, $83, nE3, $86, nAb3, $83, nE3, $86
	dc.b nFs3, $83, nE3, $86, nAb3, $83, nE3, $86
	dc.b nFs3, $83, nE3, $86, nFs3, $83, nE3, $86
	dc.b nFs3, $83, nE3, $86, nAb3, $83, nE3, $86
	dc.b nFs3, $83, nE3, $86, nAb3, $83, nE3, $86
	dc.b nFs3, $83, nE3, $86, nAb3, $83, nE3, $86
	dc.b nFs3, $83, nE3, $86, nFs3, $83, nE3, $86
	dc.b nFs3, $83, nE3, $86, nFs3, $83, nE3, $86
	dc.b nFs3, $83, nE3, $86, nAb3, $83, nE3, $86
	dc.b nFs3, $83, nE3, $86, nAb3, $83, nE3, $86
	dc.b nFs3, $83, nE3, $86, nFs3, $83, nE3, $86
	dc.b nFs3, $83, nE3, $86, nFs3, $83, nE3, $86
	dc.b nFs3, $83, nE3, $86, nAb3, $83, nE3, $86
	dc.b nFs3, $83, nE3, $86, nAb3, $83, $CC, $C6
	dc.b nE3, $86, $C6, nA3, $83, nA3, $86, nA3
	dc.b $83, nA3, $86, nA3, $83, nA3, $86, nA3
	dc.b $83, nA3, $86, nA3, $83, nA3, $86, nA3
	dc.b $83, nA3, $86, nA3, $83, nA3, $86, nA3
	dc.b $83, nA3, $86, nA3, $83, nA3, $86, nA3
	dc.b $83, nA3, $86, nA3, $83, nA3, $86, nA3
	dc.b $83, nA3, $86, nA3, $83, nA3, $86, nA3
	dc.b $83, nA3, $86, nA3, $83, nA3, $86, nA3
	dc.b $83, nA3, $86, nA3, $83, nA3, $86, nA3
	dc.b $83, nA3, $86, nA3, $83, nA3, $86, nA3
	dc.b $83, nA3, $86, nA3, $83, nA3, $86, nA3
	dc.b $83, nA3, $86, nA3, $83, nA3, $86, nA3
	dc.b $83, $CD, $EC, nA3, $C6, nE3, $86, nFs3
	dc.b $83, nE3, $86, nFs3, $83, nE3, $86, nFs3
	dc.b $83, nE3, $86, nFs3, $83, nE3, $86, nAb3
	dc.b $83, nE3, $86, nFs3, $83, nE3, $86, nAb3
	dc.b $83, nE3, $86, nFs3, $83, nE3, $86, nFs3
	dc.b $83, nE3, $86, nFs3, $83, nE3, $86, nAb3
	dc.b $83, nE3, $86, nFs3, $83, nE3, $86, nAb3
	dc.b $83, nE3, $86, nFs3, $83, nE3, $86, nAb3
	dc.b $83, nE3, $86, nFs3, $83, nE3, $86, nFs3
	dc.b $83, nE3, $86, nFs3, $83, nE3, $86, nFs3
	dc.b $83, nE3, $86, nFs3, $83, nE3, $86, nAb3
	dc.b $83, nE3, $86, nFs3, $83, nE3, $86, nAb3
	dc.b $83, nE3, $86, nFs3, $83, nE3, $86, nFs3
	dc.b $83, nE3, $86, nFs3, $83, nE3, $86, nFs3
	dc.b $83, nE3, $86, nFs3, $83, nE3, $86, nAb3
	dc.b $83, nE3, $86, nFs3, $83, nE3, $86, nAb3
	dc.b $83, nE3, $C0
	gLoopEnd
	gStop

.0B_02	dc.b $C0
	gsPatch		$2E
	gsVolume	$05
	gPitBend	$0000
	dc.b $84, $CC, nAb2, $B2, $D5, nAb2, $C2
	gPitBend	$FFD0
	dc.b $C3
	gPitBend	$FF84
	gPitBend	$FF2F
	dc.b $C2
	gPitBend	$FEE3
	gPitBend	$FEA1
	gPitBend	$FE25
	dc.b $C1
	gPitBend	$FDDA
	dc.b $C3
	gPitBend	$FD97
	dc.b $C2
	gPitBend	$FD42
	dc.b $C1
	gPitBend	$FCED
	dc.b $C2
	gPitBend	$FC84
	dc.b $C1
	gPitBend	$FC1C
	dc.b $DD
	gPitBend	$FC00
	dc.b $C1, $EA
	gPitBend	$0000
	dc.b $84, $CC, nAb2, $B2, $D5, nAb2, $C2
	gPitBend	$FFD0
	dc.b $C3
	gPitBend	$FF84
	gPitBend	$FF2F
	dc.b $C2
	gPitBend	$FEE3
	gPitBend	$FEA1
	gPitBend	$FE25
	dc.b $C1
	gPitBend	$FDDA
	dc.b $C3
	gPitBend	$FD97
	dc.b $C2
	gPitBend	$FD42
	dc.b $C1
	gPitBend	$FCED
	dc.b $C2
	gPitBend	$FC84
	dc.b $C1
	gPitBend	$FC1C
	dc.b $DD
	gPitBend	$FC00
	dc.b $CA
	gPitBend	$0000
	dc.b $EA
	gsVolume	$08
	dc.b $92, $C2, nAb3, $C1
	gPitBend	$0074
	dc.b $C0
	gPitBend	$01AF
	dc.b $C2
	gPitBend	$0248
	dc.b $C1
	gPitBend	$01EE
	gPitBend	$0116
	gPitBend	$0023
	dc.b $C4
	gPitBend	$0000
	dc.b $C0
	gPitBend	$00B3
	dc.b $C2
	gPitBend	$0143
	dc.b $C1
	gPitBend	$00B3
	dc.b $C3
	gPitBend	$0000
	dc.b $86, $C6, nFs3, nEb3, nD3, nCs3, nFs2, nG2
	gLoopStart
	dc.b $C0
	gNop
	dc.b $8C, $D2, nAb2, $84, $C6, nAb2, nAb3, $CC
	dc.b nFs3, $85, nEb3, nD3, nCs3, $C6, nB2, $87
	dc.b $CC, nAb2, $86, nCs3, $82, nCs3, $86, $C6
	dc.b nCs3, $85, nEb3, $84, nE3, $85, $CC, nFs2
	dc.b $82, $C6, nFs2, $8C, $D2, nFs2, $84, $C6
	dc.b nFs2, $88, $CC, nG2, $8F, $D2, nAb2, $85
	dc.b $C6, nAb2, nAb3, $84, $CC, nFs3, $85, nEb3
	dc.b $86, nD3, $85, nCs3, $C6, nB2, $8A, $CC
	dc.b nAb2, $8D, $D2, nCs3, $82, $C6, nCs3, $86
	dc.b nCs3, nEb3, $85, nE3, $CC, nFs2, $83, $C6
	dc.b nFs2, $8C, $D2, nFs2, $85, $C6, nFs2, $8B
	dc.b $CC, nG2, $8C, $D2, nAb2, $84, $C6, nAb2
	dc.b nAb3, $CC, nFs3, $85, nEb3, nD3, nCs3, $C6
	dc.b nB2, $87, $CC, nAb2, $86, nCs3, $82, nCs3
	dc.b $86, $C6, nCs3, $85, nEb3, $84, nE3, $85
	dc.b $CC, nFs2, $82, $C6, nFs2, $8C, $D2, nFs2
	dc.b $84, $C6, nFs2, $88, $CC, nG2, $8F, $D2
	dc.b nAb2, $85, $C6, nAb2, nAb3, $84, $CC, nFs3
	dc.b $85, nEb3, $86, nD3, $85, nCs3, $C6, nB2
	dc.b $8A, $CC, nAb2, $8D, $D2, nCs3, $82, $C6
	dc.b nCs3, $86, nCs3, nEb3, $85, nE3, $CC, nFs2
	dc.b $83, $C6, nFs2, $8C, $D2, nFs2, $85, $C6
	dc.b nFs2, $8B, $CC, nG2, $C0
	gsVolume	$05
	dc.b $84, $CC, nAb2, $B2, $D5, nAb2, $C2
	gPitBend	$FFD0
	dc.b $C3
	gPitBend	$FF84
	gPitBend	$FF2F
	dc.b $C2
	gPitBend	$FEE3
	gPitBend	$FEA1
	gPitBend	$FE25
	dc.b $C1
	gPitBend	$FDDA
	dc.b $C3
	gPitBend	$FD97
	dc.b $C2
	gPitBend	$FD42
	dc.b $C1
	gPitBend	$FCED
	dc.b $C2
	gPitBend	$FC84
	dc.b $C1
	gPitBend	$FC1C
	dc.b $DD
	gPitBend	$FC00
	dc.b $C1, $EA
	gPitBend	$0000
	dc.b $84, $CC, nAb2, $B2, $D5, nAb2, $C2
	gPitBend	$FFD0
	dc.b $C3
	gPitBend	$FF84
	gPitBend	$FF2F
	dc.b $C2
	gPitBend	$FEE3
	gPitBend	$FEA1
	gPitBend	$FE25
	dc.b $C1
	gPitBend	$FDDA
	dc.b $C3
	gPitBend	$FD97
	dc.b $C2
	gPitBend	$FD42
	dc.b $C1
	gPitBend	$FCED
	dc.b $C2
	gPitBend	$FC84
	dc.b $C1
	gPitBend	$FC1C
	dc.b $DD
	gPitBend	$FC00
	dc.b $C1, $EA
	gPitBend	$0000
	dc.b $C0
	gsVolume	$08
	dc.b $8C, $D2, nAb2, $84, $C6, nAb2, nAb3, $CC
	dc.b nFs3, $85, nEb3, nD3, nCs3, $C6, nB2, $87
	dc.b $CC, nAb2, $86, nCs3, $82, nCs3, $86, $C6
	dc.b nCs3, $85, nEb3, $84, nE3, $85, $CC, nFs2
	dc.b $82, $C6, nFs2, $8C, $D2, nFs2, $84, $C6
	dc.b nFs2, $88, $CC, nG2, $8F, $D2, nAb2, $85
	dc.b $C6, nAb2, nAb3, $84, $CC, nFs3, $85, nEb3
	dc.b $86, nD3, $85, nCs3, $C6, nB2, $8A, $CC
	dc.b nAb2, $8D, $D2, nCs3, $82, $C6, nCs3, $86
	dc.b nCs3, nEb3, $85, nE3, $CC, nFs2, $83, $C6
	dc.b nFs2, $8C, $D2, nFs2, $85, $C6, nFs2, $8B
	dc.b $CC, nG2, $8C, $D2, nAb2, $84, $C6, nAb2
	dc.b nAb3, $CC, nFs3, $85, nEb3, nD3, nCs3, $C6
	dc.b nB2, $87, $CC, nAb2, $86, nCs3, $82, nCs3
	dc.b $86, $C6, nCs3, $85, nEb3, $84, nE3, $85
	dc.b $CC, nFs2, $82, $C6, nFs2, $8C, $D2, nFs2
	dc.b $84, $C6, nFs2, $88, $CC, nG2, $8F, $D2
	dc.b nAb2, $85, $C6, nAb2, nAb3, $84, $CC, nFs3
	dc.b $85, nEb3, $86, nD3, $85, nCs3, $C6, nB2
	dc.b $8A, $CC, nAb2, $8D, $D2, nCs3, $82, $C6
	dc.b nCs3, $86, nCs3, nEb3, $85, nE3, $CC, nFs2
	dc.b $83, $C6, nFs2, $8C, $D2, nFs2, $85, $C6
	dc.b nFs2, $8B, $CC, nG2, $C0
	gsVolume	$05
	dc.b $84, $CC, nAb2, $B2, $D5, nAb2, $C2
	gPitBend	$FFD0
	dc.b $C3
	gPitBend	$FF84
	gPitBend	$FF2F
	dc.b $C2
	gPitBend	$FEE3
	gPitBend	$FEA1
	gPitBend	$FE25
	dc.b $C1
	gPitBend	$FDDA
	dc.b $C3
	gPitBend	$FD97
	dc.b $C2
	gPitBend	$FD42
	dc.b $C1
	gPitBend	$FCED
	dc.b $C2
	gPitBend	$FC84
	dc.b $C1
	gPitBend	$FC1C
	dc.b $DD
	gPitBend	$FC00
	dc.b $C1, $EA
	gPitBend	$0000
	dc.b $84, $CC, nAb2, $B2, $D5, nAb2, $C2
	gPitBend	$FFD0
	dc.b $C3
	gPitBend	$FF84
	gPitBend	$FF2F
	dc.b $C2
	gPitBend	$FEE3
	gPitBend	$FEA1
	gPitBend	$FE25
	dc.b $C1
	gPitBend	$FDDA
	dc.b $C3
	gPitBend	$FD97
	dc.b $C2
	gPitBend	$FD42
	dc.b $C1
	gPitBend	$FCED
	dc.b $C2
	gPitBend	$FC84
	dc.b $C1
	gPitBend	$FC1C
	dc.b $DD
	gPitBend	$FC00
	dc.b $FA
	gPitBend	$0000
	dc.b $C6
	gsVolume	$08
	dc.b $83, nFs2, $8C, $D2, nFs2, $85, $C6, nFs2
	dc.b $8B, $CC, nG2, $8C, $D2, nAb2, $84, $C6
	dc.b nAb2, nAb3, $CC, nFs3, $85, nEb3, nD3, nCs3
	dc.b $C6, nB2, $87, $CC, nAb2, $86, nCs3, $82
	dc.b nCs3, $86, $C6, nCs3, $85, nEb3, $84, nE3
	dc.b $85, $CC, nFs2, $82, $C6, nFs2, $8C, $D2
	dc.b nFs2, $84, $C6, nFs2, $88, $CC, nG2, $8F
	dc.b $D2, nAb2, $85, $C6, nAb2, nAb3, $84, $CC
	dc.b nFs3, $85, nEb3, $86, nD3, $85, nCs3, $C6
	dc.b nB2, $8A, $CC, nAb2, $8D, $D2, nCs3, $82
	dc.b $C6, nCs3, $86, nCs3, nEb3, $85, nE3, $CC
	dc.b nFs2, $83, $C6, nFs2, $8C, $D2, nFs2, $85
	dc.b $C6, nFs2, $8B, $CC, nG2, $8C, $D2, nAb2
	dc.b $84, $C6, nAb2, nAb3, $CC, nFs3, $85, nEb3
	dc.b nD3, nCs3, $C6, nB2, $87, $CC, nAb2, $86
	dc.b nCs3, $82, nCs3, $86, $C6, nCs3, $85, nEb3
	dc.b $84, nE3, $85, $CC, nFs2, $82, $C6, nFs2
	dc.b $8C, $D2, nFs2, $84, $C6, nFs2, $88, $CC
	dc.b nG2, $8F, $D2, nAb2, $85, $C6, nAb2, nAb3
	dc.b $84, $CC, nFs3, $85, nEb3, $86, nD3, $85
	dc.b nCs3, $C6, nB2, $8A, $CC, nAb2, $8D, $D2
	dc.b nCs3, $82, $C6, nCs3, $86, nCs3, nEb3, $85
	dc.b nE3, $CC, nFs2, $83, $C6, nFs2, $8C, $D2
	dc.b nFs2, $85, $C6, nFs2, $8B, $CC, nG2, $C0
	gsVolume	$05
	dc.b $84, $CC, nAb2, $B2, $D5, nAb2, $C2
	gPitBend	$FFD0
	dc.b $C3
	gPitBend	$FF84
	gPitBend	$FF2F
	dc.b $C2
	gPitBend	$FEE3
	gPitBend	$FEA1
	gPitBend	$FE25
	dc.b $C1
	gPitBend	$FDDA
	dc.b $C3
	gPitBend	$FD97
	dc.b $C2
	gPitBend	$FD42
	dc.b $C1
	gPitBend	$FCED
	dc.b $C2
	gPitBend	$FC84
	dc.b $C1
	gPitBend	$FC1C
	dc.b $DD
	gPitBend	$FC00
	dc.b $C1, $EA
	gPitBend	$0000
	dc.b $84, $CC, nAb2, $B2, $D5, nAb2, $C2
	gPitBend	$FFD0
	dc.b $C3
	gPitBend	$FF84
	gPitBend	$FF2F
	dc.b $C2
	gPitBend	$FEE3
	gPitBend	$FEA1
	gPitBend	$FE25
	dc.b $C1
	gPitBend	$FDDA
	dc.b $C3
	gPitBend	$FD97
	dc.b $C2
	gPitBend	$FD42
	dc.b $C1
	gPitBend	$FCED
	dc.b $C2
	gPitBend	$FC84
	dc.b $C1
	gPitBend	$FC1C
	dc.b $DD
	gPitBend	$FC00
	dc.b $CA
	gPitBend	$0000
	dc.b $EA
	gsVolume	$08
	dc.b $92, $C2, nAb3, $C1
	gPitBend	$0074
	dc.b $C0
	gPitBend	$01AF
	dc.b $C2
	gPitBend	$0248
	dc.b $C1
	gPitBend	$01EE
	gPitBend	$0116
	gPitBend	$0023
	dc.b $C4
	gPitBend	$0000
	dc.b $C0
	gPitBend	$00B3
	dc.b $C2
	gPitBend	$0143
	dc.b $C1
	gPitBend	$00B3
	dc.b $C3
	gPitBend	$0000
	dc.b $86, $C6, nFs3, nEb3, nD3, nCs3, nFs2, nG2
	dc.b $C0
	gLoopEnd
	gStop

.0B_03	dc.b $C0
	gsVolume	$00
	dc.b $C6, $C0
	gsPatch		$1A
	gLoopStart
	dc.b $D8, $C0
	gNop
	dc.b $8C, $CC, nAb2, $85, $C6, nAb3, $86, nAb2
	dc.b $85, nEb3, $8C, $CC, nAb2, $85, nAb3, $C6
	dc.b nAb3, $8C, $CC, nAb2, nEb3, $84, nAb2, $8C
	dc.b nCs3, $85, $C6, nCs4, $86, nCs3, $84, nAb3
	dc.b nCs3, nAb3, $CC, nFs2, $86, $C6, nFs2, $8C
	dc.b $CC, nFs3, $85, nFs2, $86, nG2, $8C, nAb2
	dc.b $85, $C6, nAb3, $86, nAb2, $84, nEb3, $86
	dc.b nAb2, $84, nAb3, $8C, $CC, nAb2, $85, $C6
	dc.b nEb3, $87, $CC, nAb2, $8A, nAb3, $83, nAb2
	dc.b $8C, nCs3, $85, $C6, nAb3, $86, nCs3, $84
	dc.b nCs4, $83, nCs3, $85, nAb3, $84, $CC, nFs2
	dc.b $82, $C6, nFs2, $8C, $D2, nFs2, $84, $C6
	dc.b nFs2, $87, $CC, nG2, $8C, nAb3, $85, $C6
	dc.b nAb4, $86, nAb3, $85, nEb4, $8C, $CC, nAb3
	dc.b $85, nAb4, $C6, nAb4, $8C, $CC, nAb3, nEb4
	dc.b $84, nAb3, $8C, nCs4, $85, $C6, nCs5, $86
	dc.b nCs4, $84, nAb4, nCs4, nAb4, $CC, nFs3, $86
	dc.b $C6, nFs3, $8C, $CC, nFs4, $85, nFs3, $86
	dc.b nG3, $8C, nAb3, $85, $C6, nAb4, $86, nAb3
	dc.b $84, nEb4, $86, nAb3, $84, nAb4, $8C, $CC
	dc.b nAb3, $85, $C6, nEb4, $87, $CC, nAb3, $8A
	dc.b nAb4, $83, $C1, $C2, nAb3, $C6, nFs2, $8C
	dc.b $D2, nFs2, $85, $C6, nFs2, $8B, $CC, nG2
	dc.b $8C, $CC, $CC, nAb2, $84, $C6, nAb4, $86
	dc.b nAb3, $85, nAb4, $86, nAb3, $83, $C1, $C8
	dc.b nAb4, $85, $C6, nAb4, nAb3, $84, nAb4, $86
	dc.b nAb3, $85, $C1, $C8, nAb4, $84, $C6, nAb4
	dc.b $85, nAb3, nAb4, $86, nAb3, $85, $C1, $C8
	dc.b nAb4, $84, $C6, nAb4, $85, nAb3, nAb4, $86
	dc.b nAb3, $85, $FC, nAb4, $C0
	gLoopEnd
	gStop

.0B_04	dc.b $C0
	gsVolume	$00
	dc.b $C6, $C0
	gsPatch		$02
	gLoopStart
	dc.b $CC, $EA
	gNop
	dc.b $83, $C0, nB4, $82, nAb4, $83, $CC, nEb5
	dc.b $C0, nAb4, nEb5, $C6, nB4, $C0, nAb4, $85
	dc.b $CC, nCs5, $83, $C0, nAb4, $84, $CC, nB4
	dc.b $86, $C0, nEb4, $87, $F6, nAb4, $83, $C0
	dc.b nB4, nAb4, $84, $CC, nEb5, $83, $C0, nAb4
	dc.b nB4, $81, $C6, nEb5, $86, $C0, nAb4, $85
	dc.b $CC, nD5, $C0, nCs5, $83, $CC, nAb4, $88
	dc.b $C0, nAb4, $F6, nB4, $83, $C0, nB4, nAb4
	dc.b $CC, nEb5, $C0, nAb4, nEb5, $C6, nB4, $84
	dc.b $C0, nAb4, $CC, nCs5, $C0, nB4, $CC, nAb4
	dc.b $87, $C0, nAb4, $86, $F6, nEb4, $83, $C0
	dc.b nAb4, $84, nB4, $CC, nEb5, $83, $C0, nAb4
	dc.b nB4, $81, $C6, nEb5, $85, $C0, nAb4, $CC
	dc.b nD5, $84, $C0, nAb4, $85, $CC, nCs5, $89
	dc.b $C0, nAb4, $C6, $D8, nB4, $84, $C6, nAb4
	dc.b $86, nAb3, $85, nAb4, $86, nAb3, $83, nAb4
	dc.b $84, $CC, nEb5, $86, $C6, nEb5, $87, $CC
	dc.b nCs5, $86, nB4, $8A, $D8, nAb4, $85, $C6
	dc.b nAb4, nAb3, $84, nAb4, $86, nAb3, $85, nAb4
	dc.b $86, $CC, nEb5, $88, $C6, nEb5, $86, $CC
	dc.b nD5, nCs5, $8C, $D8, nB4, $84, $C6, nAb4
	dc.b $85, nAb3, nAb4, $86, nAb3, $85, nAb4, $CC
	dc.b nEb5, $87, $C6, nEb5, $88, $CC, nCs5, $87
	dc.b nB4, $8B, $D8, nAb4, $84, $C6, nAb4, $85
	dc.b nAb3, nAb4, nAb3, nAb4, $CC, nEb5, $C6, nEb5
	dc.b $86, $CC, nD5, nCs5, $8C, $D2, $F6, nB4
	dc.b $83, $C0, nB4, $82, nAb4, $83, $CC, nEb5
	dc.b $C0, nAb4, nEb5, $C6, nB4, $85, $C0, nCs5
	dc.b $83, $CC, nEb4, $84, $C0, nB4, $83, $CC
	dc.b nEb4, $87, $C0, nAb4, $86, $F6, nEb4, $83
	dc.b $C0, nB4, nAb4, $84, $CC, nEb5, $83, $C0
	dc.b nAb4, nB4, $81, $C6, nEb5, $86, $C0, nAb4
	dc.b $85, nD5, $CC, nEb4, $C0, nCs5, $83, nAb4
	dc.b $CC, nEb4, $88, $C0, nAb4, nB4, $87, $F6
	dc.b nEb4, $83, $C0, nB4, nAb4, $CC, nEb5, $C0
	dc.b nAb4, nEb5, $C6, nB4, $84, $C0, nEb4, $CC
	dc.b nCs5, $C0, nB4, $CC, nEb4, $87, $C0, nAb4
	dc.b $86, $F6, nEb4, $83, $C0, nAb4, $84, nB4
	dc.b $CC, nEb5, $83, $C0, nAb4, nB4, $81, $C6
	dc.b nEb5, $85, $C0, nAb4, $CC, nD5, $84, $C0
	dc.b nAb4, $85, $CC, nCs5, $89, $C0, nAb4, $CC
	dc.b nB4, $C0
	gLoopEnd
	gStop

.0B_05	dc.b $C0
	gsPrio		$7F
	gPitBend	$0000
	gsVolume	$00
	dc.b $C6, $C0
	gsPatch		$28
	gLoopStart
	dc.b $C6, $CC
	gNop
	dc.b $86, $C6, nAb4, nFs4, nAb4, nFs4, nAb4, $92
	dc.b $C5, nBb4, $C1
	gPitBend	$001B
	gPitBend	$0071
	dc.b $C2
	gPitBend	$00A9
	dc.b $C1
	gPitBend	$00D7
	gPitBend	$0103
	gPitBend	$0128
	dc.b $C6
	gPitBend	$0133
	dc.b $C0
	gPitBend	$0000
	dc.b $85, $F0, nAb4, $86, $C6, nAb4, nFs4, nAb4
	dc.b nFs4, nAb4, $8C, $CC, nCs5, $86, $C6, nD5
	dc.b $92, $C1, nCs5, $C5
	gPitBend	$0000
	dc.b $C1
	gPitBend	$001D
	gPitBend	$0066
	dc.b $C0
	gPitBend	$00BA
	dc.b $C1
	gPitBend	$011E
	dc.b $C3
	gPitBend	$0142
	dc.b $C0
	gPitBend	$0137
	dc.b $C1
	gPitBend	$00F0
	gPitBend	$007C
	dc.b $C0
	gPitBend	$000A
	dc.b $C4
	gPitBend	$0000
	dc.b $CE, nB4, $C1
	gPitBend	$000A
	dc.b $C0
	gPitBend	$001D
	dc.b $C1
	gPitBend	$0030
	gPitBend	$004E
	dc.b $C0
	gPitBend	$008C
	gPitBend	$00E2
	gPitBend	$0133
	dc.b $CD
	gPitBend	$0000
	dc.b $86, $C6, nAb4, nFs4, nAb4, nFs4, nAb4, $92
	dc.b $C5, nBb4, $C1
	gPitBend	$001B
	gPitBend	$0071
	dc.b $C2
	gPitBend	$00A9
	dc.b $C1
	gPitBend	$00D7
	gPitBend	$0103
	gPitBend	$0128
	dc.b $C6
	gPitBend	$0133
	dc.b $C0
	gPitBend	$0000
	dc.b $85, $F0, nAb4, $C6, nAb4, $86, nFs4, nAb4
	dc.b nFs4, $84, nAb4, $8C, $CC, nCs5, $86, $C6
	dc.b nD5, $92, $C1, nCs5, $C5
	gPitBend	$0000
	dc.b $C1
	gPitBend	$001D
	gPitBend	$006B
	dc.b $C0
	gPitBend	$00C4
	dc.b $C1
	gPitBend	$012C
	dc.b $C3
	gPitBend	$0152
	dc.b $C0
	gPitBend	$0147
	dc.b $C1
	gPitBend	$00FC
	gPitBend	$0082
	dc.b $C0
	gPitBend	$000A
	dc.b $C4
	gPitBend	$0000
	dc.b $CE, nB4, $C1
	gPitBend	$000A
	dc.b $C0
	gPitBend	$001F
	dc.b $C1
	gPitBend	$0032
	gPitBend	$0052
	dc.b $C0
	gPitBend	$0093
	gPitBend	$00EE
	gPitBend	$0142
	dc.b $D6, $ED
	gPitBend	$0000
	dc.b $86, $C0, nAb5, $C6, nAb4, $C0, nFs5, $C6
	dc.b nFs4, $C0, nAb5, $C6, nAb4, $C0, nFs5, $C6
	dc.b nFs4, $C0, nAb5, $C6, nAb4, $8C, $C0, nCs5
	dc.b $CC, nCs6, $86, $C0, nD6, $C6, nD5, $92
	dc.b $C0, nCs6, $C1, nCs5, $C5
	gPitBend	$0000
	dc.b $C1
	gPitBend	$001D
	gPitBend	$006B
	dc.b $C0
	gPitBend	$00C4
	dc.b $C1
	gPitBend	$012C
	dc.b $C3
	gPitBend	$0152
	dc.b $C0
	gPitBend	$0147
	dc.b $C1
	gPitBend	$00FC
	gPitBend	$0082
	dc.b $C0
	gPitBend	$000A
	dc.b $C4
	gPitBend	$0000
	dc.b $C0, nB4, $CE, nB5, $C1
	gPitBend	$000A
	dc.b $C0
	gPitBend	$001D
	dc.b $C1
	gPitBend	$0030
	gPitBend	$004E
	dc.b $C0
	gPitBend	$008C
	gPitBend	$00E2
	gPitBend	$0133
	dc.b $D9
	gPitBend	$0000
	dc.b $84, $C0, nAb4, $85, $E4, nAb3, $86, $C0
	dc.b nAb3, $C6, nAb4, $C0, nFs4, $C6, nFs3, $C0
	dc.b nAb3, $F0, nAb4, $85, $C0, nAb4, $D2, nAb3
	dc.b $84, $C0, nAb4, $85, $D2, nAb3, $C0, nCs5
	dc.b $D2, nCs4, $8E, $C0, nB4, $90, $CB, nB3
	dc.b $C2
	gPitBend	$0014
	gPitBend	$0064
	dc.b $C1
	gPitBend	$00C9
	gPitBend	$0105
	dc.b $D9
	gPitBend	$0000
	dc.b $84, $C0, nAb4, $85, $E4, nAb3, $86, $C0
	dc.b nAb3, $C6, nAb4, $C0, nFs4, $C6, nFs3, $C0
	dc.b nAb3, $F0, nAb4, $85, $C0, nAb4, $D2, nAb3
	dc.b $84, $C0, nAb4, $85, $D2, nAb3, $C0, nCs5
	dc.b $D2, nCs4, $8E, $C0, nB4, $90, $CB, nB3
	dc.b $C2
	gPitBend	$0014
	gPitBend	$0064
	dc.b $C1
	gPitBend	$00C9
	gPitBend	$0105
	dc.b $D9
	gPitBend	$0000
	dc.b $84, $C0, nAb4, $85, $E4, nAb3, $86, $C0
	dc.b nAb3, $C6, nAb4, $C0, nFs4, $C6, nFs3, $C0
	dc.b nAb3, $F0, nAb4, $85, $C0, nAb4, $D2, nAb3
	dc.b $84, $C0, nAb4, $85, $D2, nAb3, $C0, nCs5
	dc.b $D2, nCs4, $8E, $C0, nB4, $90, $CB, nB3
	dc.b $C2
	gPitBend	$0014
	gPitBend	$0064
	dc.b $C1
	gPitBend	$00C9
	gPitBend	$0105
	dc.b $D9
	gPitBend	$0000
	dc.b $84, $C0, nAb4, $85, $E4, nAb3, $86, $C0
	dc.b nAb3, $C6, nAb4, $C0, nFs4, $C6, nFs3, $C0
	dc.b nAb3, $F0, nAb4, $85, $C0, nAb4, $D2, nAb3
	dc.b $84, $C0, nAb4, $85, $D2, nAb3, $C0, nCs5
	dc.b $D2, nCs4, $8E, $C0, nB4, $90, $CB, nB3
	dc.b $C2
	gPitBend	$0014
	gPitBend	$0064
	dc.b $C1
	gPitBend	$00C9
	gPitBend	$0105
	dc.b $C6, $C1
	gPitBend	$0000
	dc.b $C0
	gLoopEnd
	gStop

.0B_06	dc.b $C0
	gsVolume	$05
	dc.b $C6, $C0
	gsPatch		$20
	gLoopStart
	dc.b $F0, $CC
	gNop
	dc.b $84, $C6, nAb4, $86, nAb3, $85, nAb4, $86
	dc.b nAb3, $83, nAb4, $84, $CC, nEb5, $86, $C6
	dc.b nEb5, $87, $CC, nCs5, $86, nB4, $8A, $D8
	dc.b nAb4, $85, $C6, nAb4, nAb3, $84, nAb4, $86
	dc.b nAb3, $85, nAb4, $86, $CC, nEb5, $C6, nEb5
	dc.b $CC, nD5, nCs5, $8A, $F6, nB4, $85, $CC
	dc.b nEb5, $86, $C6, nEb5, $88, $CC, nCs5, $86
	dc.b nB4, $8B, nAb4, $8C, nAb3, $84, $C6, nAb4
	dc.b $85, nAb3, nAb4, nAb3, nAb4, $CC, nEb5, $C6
	dc.b nEb5, $86, $CC, nD5, nCs5, $8C, nB4, $C0
	gLoopEnd
	gStop

.0B_07	dc.b $C0
	gsPatch		$01
	dc.b $CC
	gsVolume	$02
	dc.b $83, $C6, nAb4, $85, nAb3, nAb4, nAb3, nAb4
	dc.b $CC, nEb5, $86, $C6, nEb5, $87, $CC, nCs5
	dc.b $86, nB4, $8D, nAb4, $8B, nAb3, $85, $C6
	dc.b nAb4, $86, nAb3, $85, nAb4, nAb3, nAb4, $CC
	dc.b nEb5, $87, $C6, nEb5, $CC, nD5, $86, nCs5
	dc.b $89, nB4, $8B, nAb3, $83, $C6, nAb4, $85
	dc.b nAb3, nAb4, nAb3, nAb4, $CC, nEb5, $86, $C6
	dc.b nEb5, $87, $CC, nCs5, $86, nB4, $8D, nAb4
	dc.b $8B, nAb3, $85, $C6, nAb4, $86, nAb3, $85
	dc.b nAb4, nAb3, nAb4, $CC, nEb5, $87, $C6, nEb5
	dc.b $CC, nD5, $86, nCs5, $89, nB4
	gLoopStart
	dc.b $C6, $C0
	gNop
	dc.b $8C, $CC, nAb3, $85, $C6, nAb4, $87, nAb3
	dc.b $85, nEb4, $8C, $CC, nAb3, $85, nAb4, $C6
	dc.b nAb4, $8C, $CC, nAb3, nEb4, $84, nAb3, $8C
	dc.b nCs4, $85, $C6, nCs5, $86, nCs4, $84, nAb4
	dc.b nCs4, nAb4, $CC, nFs3, $89, $C6, nFs3, $8C
	dc.b $CC, nFs4, $85, nFs3, $86, nG3, $8C, nAb3
	dc.b $85, $C6, nAb4, $87, nAb3, $84, nEb4, $86
	dc.b nAb3, $84, nAb4, $8C, $CC, nAb3, $85, $C6
	dc.b nEb4, $87, $CC, nAb3, $8A, nAb4, $83, nAb3
	dc.b $8C, nCs4, $85, $C6, nAb4, $87, nCs4, $84
	dc.b nCs5, $83, nCs4, $85, nAb4, $84, $CC, nFs3
	dc.b $82, $C6, nFs3, $8C, $D2, nFs3, $84, $C6
	dc.b nFs3, $87, $D8, nG3, $84, $C6, nAb4, $86
	dc.b nAb3, $85, nAb4, $86, nAb3, $83, nAb4, $84
	dc.b $CC, nEb5, $86, $C6, nEb5, $87, $CC, nCs5
	dc.b $86, nB4, $8A, $D8, nAb4, $85, $C6, nAb4
	dc.b nAb3, $84, nAb4, $86, nAb3, $85, nAb4, $86
	dc.b $CC, nEb5, $C6, nEb5, $CC, nD5, nCs5, $8C
	dc.b $D8, nB4, $84, $C6, nAb4, $85, nAb3, nAb4
	dc.b $86, nAb3, $85, nAb4, $CC, nEb5, $86, $C6
	dc.b nEb5, $88, $CC, nCs5, $87, nB4, $8B, nAb4
	dc.b $8C, nAb3, $84, $C6, nAb4, $85, nAb3, nAb4
	dc.b nAb3, nAb4, $CC, nEb5, $C6, nEb5, $86, $CC
	dc.b nD5, nCs5, $8C, $D8, $CC, nB4, $CC, nAb3
	dc.b $85, $C6, nAb4, $86, nAb3, $85, nEb4, $8C
	dc.b $CC, nAb3, $85, nAb4, $C6, nAb4, $8C, $CC
	dc.b nAb3, nEb4, $84, nAb3, $8C, nCs4, $85, $C6
	dc.b nCs5, $86, nCs4, $84, nAb4, nCs4, nAb4, $CC
	dc.b nFs3, $86, $C6, nFs3, $8C, $CC, nFs4, $85
	dc.b nFs3, $86, nG3, $8C, nAb3, $85, $C6, nAb4
	dc.b $87, nAb3, $84, nEb4, $86, nAb3, $84, nAb4
	dc.b $8C, $CC, nAb3, $85, $C6, nEb4, $87, $CC
	dc.b nAb3, $8A, nAb4, $83, nAb3, $8C, nCs4, $85
	dc.b $C6, nAb4, $86, nCs4, $84, nCs5, $83, nCs4
	dc.b $85, nAb4, $84, $CC, nFs3, $82, $C6, nFs3
	dc.b $8C, $D2, nFs3, $84, $C6, nFs3, $87, $C3
	dc.b $CC, nG3, $8C, $CC, nAb3, $85, $C6, nAb4
	dc.b $86, nAb3, $84, nEb4, $86, nAb3, $84, nAb4
	dc.b $8C, $CC, nAb3, $85, $C6, nEb4, $87, $CC
	dc.b nAb3, $8A, nAb4, $83, nAb3, $8C, nCs4, $85
	dc.b $C6, nAb4, $86, nCs4, $84, nCs5, $83, nCs4
	dc.b $85, nAb4, $84, $CC, nFs3, $82, $C6, nFs3
	dc.b $8C, $D2, nFs3, $84, $C6, nFs3, $87, $CC
	dc.b nG3, $C0
	gLoopEnd
	gStop

.0B_08	dc.b $C0
	gsPrio		$7E
	gPitBend	$0000
	gsVolume	$0A
	dc.b $C5, $CA
	gsPatch		$14
	dc.b $92, $D2, nAb3, $86, $C6, nFs3, nEb3, nD3
	dc.b nCs3, nFs2, nG2
	gLoopStart
	dc.b $C0
	gNop
	dc.b $AA, $D5, nAb2, $C2
	gPitBend	$FFD0
	dc.b $C3
	gPitBend	$FF84
	gPitBend	$FF2F
	dc.b $C2
	gPitBend	$FEE3
	gPitBend	$FEA1
	gPitBend	$FE25
	dc.b $C1
	gPitBend	$FDDA
	dc.b $C3
	gPitBend	$FD97
	dc.b $C2
	gPitBend	$FD42
	dc.b $C1
	gPitBend	$FCED
	dc.b $C2
	gPitBend	$FC84
	dc.b $C1
	gPitBend	$FC1C
	dc.b $DD
	gPitBend	$FC00
	dc.b $D6
	gPitBend	$0000
	dc.b $CF, $EA
	gsVolume	$02
	dc.b $92, $C2, nAb3, $C1
	gPitBend	$0074
	dc.b $C0
	gPitBend	$01AF
	dc.b $C2
	gPitBend	$0248
	dc.b $C1
	gPitBend	$01EE
	gPitBend	$0116
	gPitBend	$0023
	dc.b $C4
	gPitBend	$0000
	dc.b $C0
	gPitBend	$00B3
	dc.b $C2
	gPitBend	$0143
	dc.b $C1
	gPitBend	$00B3
	dc.b $C3
	gPitBend	$0000
	dc.b $86, $C6, nFs3, nEb3, nD3, nCs3, nFs2, nG2
	dc.b $AA, $D5, nAb2, $C2
	gPitBend	$FFD0
	dc.b $C3
	gPitBend	$FF84
	gPitBend	$FF2F
	dc.b $C2
	gPitBend	$FEE3
	gPitBend	$FEA1
	gPitBend	$FE25
	dc.b $C1
	gPitBend	$FDDA
	dc.b $C3
	gPitBend	$FD97
	dc.b $C2
	gPitBend	$FD42
	dc.b $C1
	gPitBend	$FCED
	dc.b $C2
	gPitBend	$FC84
	dc.b $C1
	gPitBend	$FC1C
	dc.b $DD
	gPitBend	$FC00
	dc.b $C3, $D6
	gPitBend	$0000
	dc.b $CC, $F6
	gsVolume	$0A
	dc.b $83, $C6, nFs2, $8C, $D2, nFs2, $85, $C6
	dc.b nFs2, $8B, $CC, nG2, $B2, $D5, nAb2, $C2
	gPitBend	$FFD0
	dc.b $C3
	gPitBend	$FF84
	gPitBend	$FF2F
	dc.b $C2
	gPitBend	$FEE3
	gPitBend	$FEA1
	gPitBend	$FE25
	dc.b $C1
	gPitBend	$FDDA
	dc.b $C3
	gPitBend	$FD97
	dc.b $C2
	gPitBend	$FD42
	dc.b $C1
	gPitBend	$FCED
	dc.b $C2
	gPitBend	$FC84
	dc.b $C1
	gPitBend	$FC1C
	dc.b $DD
	gPitBend	$FC00
	dc.b $D0, $C0
	gPitBend	$0000
	dc.b $92, $D2, nAb3, $85, $C6, nFs3, $86, nEb3
	dc.b nD3, $85, nCs3, $86, nFs2, nG2, $C0
	gLoopEnd
	gStop

.0E_00	dc.b $C0
	gPauseSeq2
	dc.b nRst
	gStopSeq	$7D
	gsPrio		$7F
	gSFX
	gsVolume	$00
	gsPatch		$12
	dc.b $87, $C7, nFs6, $88, $C8, nF6, $87, $C7
	dc.b nEb6, $88, $C8, nB5, $87, $C7, nEb6, $88
	dc.b $C8, nF6, $87, $C7, nFs6, $88, $C8, nF6
	dc.b $87, $C7, nEb6, $88, $C8, nB5, $87, $C7
	dc.b nEb6, $88, $C8, nF6, $87, $C7, nFs6, $88
	dc.b $C8, nF6, $87, $C7, nEb6, $88, $C8, nB5
	dc.b $87, $C7, nEb6, $88, $C8, nF6, $87, $C7
	dc.b nFs6, $88, $C8, nF6, $87, $C7, nEb6, $88
	dc.b $C8, nB5, $87, $C7, nEb6, $88, $C8, nF6
	dc.b $87, $C7, nFs6, $C0
	gUnpauseSeq	$00
	gStop

.0E_01	dc.b $C0
	gsPrio		$7F
	gSFX
	gsVolume	$00
	gsPatch		$17
	dc.b $82, $BB, $C2, $FB, nB2
	gStop

.0E_02	dc.b $C0
	gsPrio		$7F
	gSFX
	gsVolume	$00
	gsPatch		$2B
	dc.b $87, $C7, nFs6, $88, $C8, nF6, $87, $C7
	dc.b nEb6, $88, $C8, nB5, $87, $C7, nEb6, $88
	dc.b $C8, nF6, $87, $C7, nFs6, $88, $C8, nF6
	dc.b $87, $C7, nEb6, $88, $C8, nB5, $87, $C7
	dc.b nEb6, $88, $C8, nF6, $87, $C7, nFs6, $88
	dc.b $C8, nF6, $87, $C7, nEb6, $88, $C8, nB5
	dc.b $87, $C7, nEb6, $88, $C8, nF6, $87, $C7
	dc.b nFs6, $88, $C8, nF6, $87, $C7, nEb6, $88
	dc.b $C8, nB5, $87, $C7, nEb6, $88, $C8, nF6
	dc.b $87, $C7, nFs6
	gStop

.0E_03	dc.b $C0
	gsPrio		$7F
	gSFX
	gsVolume	$00
	gsPatch		$4F
	dc.b $82, $BB, $C2, $FB, nB3
	gStop

.0E_04	dc.b $C0
	gsPrio		$7F
	gSFX
	gsVolume	$00
	gsPatch		$32
	dc.b $82, $BB, $C2, $FB, nB1
	gStop

.10_00	dc.b $C0
	gsPrio		$7F
	gStopSeq	$09
	gStopSeq	$28
	gsTempo		150
	dc.b $C6
	gsPatch		$7A
	dc.b $8C, $CC, nCs4, nD5, $80, nCs4, $98, $D8
	dc.b nCs4, nD5, $8C, $CC, nCs4, nCs4, nD5, $98
	dc.b $D8, nCs4, $8C, $CC, nCs4, nD5, $98, $D8
	dc.b nCs4, $8C, $CC, nCs4, nD5, nCs4, $98, $D8
	dc.b nCs4, nD5, $8C, $CC, nCs4, nCs4, nD5, $98
	dc.b $D8, nCs4, $8C, $CC, nCs4, nD5, $98, $D8
	dc.b nCs4, $8C, $CC, nCs4, nD5, nCs4, nD5, $86
	dc.b $C6, nD5, nD5, nD5, nD5, nCs4, $84, $C4
	dc.b nD5
	gStop

.10_01	dc.b $C0
	gsPrio		$7F
	dc.b $DE
	gsPatch		$32
	dc.b $C0
	gsVolume	$07
	dc.b $A4, $E4, nCs2, $8F, $D8, nCs3, $88, $CC
	dc.b nCs3, $8A, nE2, $8B, nF2, $98, $D8, nFs2
	dc.b $8C, $CC, nFs3, $8B, nG2, $98, $D8, nAb2
	dc.b $8C, $CC, nAb3, $8B, nAb2, nAb3, $90, $D8
	dc.b nCs2, $8C, $CC, nCs2, $96, $D8, nCs3, $8B
	dc.b $CC, nE2, $89, nF2, $97, $D8, nFs2, $8A
	dc.b $CC, nFs3, nFs2, $98, $D8, nAb2, $8A, $CC
	dc.b nAb3, nAb2, $8B, nAb3, nCs3, $84, $C6, nB2
	dc.b nB2, nB2, nB2, $85, nC3, $86, nCs3
	gStop

.10_02	dc.b $C0
	gsPrio		$78
	gsPatch		$57
	dc.b $C1, $C3
	gsVolume	$00
	dc.b $8F, $C0, nCs5, $D6, nAb4, $85, $C0, nAb4
	dc.b $86, $CC, nCs5, $91, $C0, nCs5, $D8, nAb4
	dc.b $C0, nFs4, $D1, nBb4, $84, $C2, nAb4, $83
	dc.b nFs4, $82, $C1, nE4, $83, nEb4, $82, $C2
	dc.b nCs4, $81, $C1, nB3, $C1, $EC, nBb3, $8F
	dc.b $C0, nCs5, nAb4, $83, $D6, nG4, $C0, nG4
	dc.b $85, nAb4, $86, $CC, nCs5, $91, $C0, nCs5
	dc.b $C1, nAb4, $83, $D7, nG4, $91, $C0, nFs4
	dc.b $93, $D1, nBb4, $84, $C2, nAb4, $83, nFs4
	dc.b $82, $C1, nE4, $83, nEb4, $82, $C2, nCs4
	dc.b $81, $C1, nB3, nBb3
	gStop

.10_03	dc.b $C0
	gPitBend	$0000
	gsPrio		$7E
	gsPatch		$30
	dc.b $C6
	gsVolume	$07
	dc.b $83, $CC, nAb4, $81, nB4, $81, $88, $C1
	dc.b $E0, nCs5, $91, $D1, nBb4, $81, $C1, nAb4
	dc.b $82, $C2, nFs4, $81, $C1, nE4, nEb4, nCs4
	dc.b $E5, nB3, $8C, $C0, nBb4, $C1
	gPitBend	$FD07
	gPitBend	$FDD5
	dc.b $C0
	gPitBend	$FF4E
	dc.b $CA
	gPitBend	$0000
	dc.b $83, $CC, nAb4, $8B, nF4, $81, nAb4, $B0
	dc.b $C3, $CC, nCs4, $84, $C6, nB4, nB4, nB4
	dc.b nB4, $85, nC5, $86, nCs5
	gStop

.10_04	dc.b $C0
	gsPrio		$7E
	gsPatch		$28
	gsVolume	$00
	dc.b $C6
	gPitBend	$0000
	dc.b $83, $CC, nAb4, $81, nB4, $B0, $C2, $E8
	dc.b nCs5, $83, $CC, nAb4, $8B, nF4, $81, nAb4
	dc.b $B0, $C3, $CC, nCs4, $84, $C6, nB4, nB4
	dc.b nB4, nB4, $85, nC5, $86, nCs5
	gStop

.10_05	dc.b $C0
	gsPrio		$7D
	gsPatch		$37
	dc.b $EA
	gsVolume	$00
	dc.b $86, $CC, nFs4, $D8, nFs4, $CC, nFs4, nFs4
	dc.b $D8, nFs4, $CC, nFs4, nFs4, $D8, nFs4, $CC
	dc.b nFs4, nFs4, $D8, nFs4, $CC, nFs4, nFs4, $D8
	dc.b nFs4, $CC, nFs4, nFs4, $D8, nFs4, $CC, nFs4
	dc.b nFs4, $D8, nFs4, $CC, nFs4, nFs4, $D8, nFs4
	dc.b $C6, nFs4
	gStop

.10_06	dc.b $C0
	gsPrio		$7F
	gsPatch		$2B
	dc.b $C5, $D6
	gsVolume	$08
	dc.b $86, $C6, nBb4, nA4, $E4, nBb4, $C6, nC5
	dc.b nB4, nC5, nB4, nC5
	gStop

.10_07	dc.b $C0
	gsPrio		$7F
	gsPatch		$51
	dc.b $C5, $D6
	gsVolume	$06
	dc.b $86, $C6, nFs4, nF4, $E4, nFs4, $C6, nAb4
	dc.b nG4, nAb4, nG4, nAb4
	gStop

.11_00	dc.b $C0
	gPauseSeq2
	dc.b nRst
	gStopSeq	$79
	gStopSeq	$12
	gStopSeq	$35
	gStopSeq	$2C
	gStopSeq	$4C
	gsPrio		$7F
	gSFX
	gsVolume	$00
	gsPatch		$2B
	dc.b $85, $C5, nAb5, nB5, nCs6, nD6, nCs6, nD6
	dc.b nCs6, nD6, nCs6, nD6, nCs6, nD6, nCs6, $C0
	gUnpauseSeq	$00
	gStop

.11_01	dc.b $C0
	gsPrio		$7F
	gSFX
	gsVolume	$00
	gsPatch		$20
	dc.b $85, $C5, nAb4, nB4, nCs5, nD5, nCs5, nD5
	dc.b nCs5, nD5, nCs5, nD5, nCs5, nD5, nCs5
	gStop

.11_02	dc.b $C0
	gsPrio		$7F
	gSFX
	gsVolume	$00
	gsPatch		$14
	dc.b $81, $81, $C1, $C1, nD3
	gStop

.11_03	dc.b $C0
	gsPrio		$7F
	gSFX
	gsVolume	$00
	gsPatch		$27
	dc.b $85, $C5, nAb6, nB6, nCs7, nD7, nCs7, nD7
	dc.b nCs7, nD7, nCs7, nD7, nCs7, nD7, nCs7
	gStop

.11_04	dc.b $C0
	gsPrio		$7F
	gSFX
	gsVolume	$00
	gsPatch		$30
	dc.b $81, $C1, nAb4, $82, $C2, nA4, nBb4, nB4
	dc.b nC5, nCs5, nD5, $81, nEb5, $C1, nE5, $A1
	dc.b $E2, nF5, $8F, $CF, nD5
	gStop

.11_05	dc.b $C0
	gsPrio		$7F
	gSFX
	gsVolume	$00
	gsPatch		$28
	dc.b $81, $C1, nAb4, $82, $C2, nA4, nBb4, nB4
	dc.b nC5, nCs5, nD5, nEb5, $C1, nE5, $A1, $E2
	dc.b nF5, $8F, $CF, nD5
	gStop

.12_00	dc.b $C0
	gPauseSeq2
	dc.b nRst
	gsPrio		$7F
	gStopSeq	$7C
	gStopSeq	$75
	gStopSeq	$79
	gStopSeq	$4D
	gStopSeq	$4E
	gStopSeq	$25
	gSFX
	gsPatch		$12
	dc.b $E4
	gsVolume	$00
	dc.b $C0
	gHold
	dc.b nC0, $84, $C4, nFs5, $83, nB5, $C3, nEb6
	dc.b $84, $C4, nFs6, $87, $C7, nB6, $C0
	gHold
	dc.b nRst
	gUnpauseSeq	$00
	gStop

.12_01	dc.b $C0
	gsPrio		$7F
	gSFX
	gsVolume	$00
	gsPatch		$30
	dc.b $83, nD6, nB5, $C4, nG5, $84, $C0, nD6
	dc.b nB5, $C5, nG5, $C0, nD6, nB5, $C5, nG5
	dc.b $AA, $C0, nEb6, nB5, $EA, nFs5
	gStop

.12_02	dc.b $C0
	gsPrio		$7F
	gSFX
	gsPatch		$14
	gsVolume	$00
	dc.b $BA, $FA, nB2
	gStop

.12_03	dc.b $C0
	gsPrio		$7F
	gSFX
	gsPatch		$7F
	gsVolume	$00
	dc.b $83, $C3, nD5, $84, $C4, nB4, $83, nD5
	dc.b $C3, nG5, $84, $C4, nFs6, $83, nEb6, $C3
	dc.b nB5, $84, $C4, nFs5, $83, nEb5, $C3, nFs5
	dc.b $84, $C4, nB5, $83, nEb6, $C3, nFs6, $85
	dc.b $C5, nB6
	gStop

.13_00	dc.b $C0
	gPauseSeq2
	dc.b nRst
	gSFX
	gsPatch		$32
	gsVolume	$07
	dc.b $85, $C7, nBb2, $86, $C8, nCs3, $85, $C7
	dc.b nE3, $86, $C8, nG3, $85, $C7, nCs3, $86
	dc.b $C8, nE3, $85, $C7, nG3, $86, $C8, nBb3
	dc.b $85, $C7, nE3, $86, $C8, nG3, $85, $C7
	dc.b nBb3, $86, $C8, nCs4, $85, $C7, nG3, $86
	dc.b $C8, nBb3, $85, $C7, nCs4, $86, $C9, $C8
	dc.b nE4, $C0
	gUnpauseSeq	$00
	gStop

.13_01	dc.b $C0
	gSFX
	gsPatch		$2B
	gsVolume	$00
	dc.b $85, $C7, nBb4, $86, $C8, nCs5, $85, $C7
	dc.b nE5, $86, $C8, nG5, $85, $C7, nCs5, $86
	dc.b $C8, nE5, $85, $C7, nG5, $86, $C8, nBb5
	dc.b $85, $C7, nE5, $86, $C8, nG5, $85, $C7
	dc.b nBb5, $86, $C8, nCs6, $85, $C7, nG5, $86
	dc.b $C8, nBb5, $85, $CF, nCs6, $C0
	gsPatch		$7F
	dc.b $87, $C7, nB6, $88, $C8, nF6, $87, $C7
	dc.b nBb6, $88, $C8, nE6, $87, $C7, nA6, $88
	dc.b $C8, nEb6, $87, $C7, nAb6, $88, $C8, nD6
	dc.b $87, $C7, nG6, $88, $C8, nCs6, $87, $C7
	dc.b nFs6, $88, $C8, nC6, $87, $C7, nF6, $88
	dc.b $C8, nB5, $87, $C7, nE6, $88, $C8, nBb5
	dc.b $87, $C7, nEb6, $88, $C8, nA5, $87, $C7
	dc.b nD6, $88, $C8, nAb5, $87, $C7, nCs6, $88
	dc.b $C8, nG5, $87, $C7, nC6, $88, $C8, nFs5
	gStop

.13_02	dc.b $C0
	gSFX
	gsPatch		$14
	gsVolume	$00
	dc.b $85, $C7, nBb3, $86, $C8, nCs4, $85, $C7
	dc.b nE4, $86, $C8, nG4, $85, $C7, nCs4, $86
	dc.b $C8, nE4, $85, $C7, nG4, $86, $C8, nBb4
	dc.b $85, $C7, nE4, $86, $C8, nG4, $85, $C7
	dc.b nBb4, $86, $C8, nCs5, $85, $C7, nG4, $86
	dc.b $C8, nBb4, $85, $C7, nCs5, $86, $C8, nE4
	dc.b $82, $AC, $C2, $EC, nE2
	gStop

.13_03	dc.b $C0
	gSFX
	dc.b $C1, $FD
	gsPatch		$29
	dc.b $C0
	gsVolume	$00
	dc.b $88, $C8, nBb7, $87, $C7, nF7, $88, $C8
	dc.b nBb7, $87, $C7, nE7, $88, $C8, nA7, $87
	dc.b $C7, nEb7, $88, $C8, nAb7, $87, $C7, nD7
	dc.b $88, $C8, nG7, $87, $C7, nCs7, $88, $C8
	dc.b nFs7, $87, $C7, nC7, $88, $C8, nF7, $87
	dc.b $C7, nB6, $88, $C8, nE7, $87, $C7, nBb6
	dc.b $88, $C8, nEb7, $87, $C7, nA6, $88, $C8
	dc.b nD7, $87, $C7, nAb6, $88, $C8, nCs7, $87
	dc.b $C7, nG6
	gStop

.13_04	dc.b $C0
	gSFX
	gsPatch		$7A
	gsSampleRate	$05
	dc.b $87, $C7, nAb5, $8F, $CF, nG5, $88, $C8
	dc.b nAb5, $8F, $CF, nG5, $87, $C7, nAb5, $8F
	dc.b $CF, nG5, $88, $C8, nAb5, $87, $C7, nG5
	dc.b $88, $C8, nG5, $87, $C7, nG5, $88, $C8
	dc.b nG5, $87, $C7, nG5, $88, $C8, nG5, $9E
	dc.b $DE, nAb5
	gStop

.13_05	dc.b $C0
	gSFX
	gsPatch		$12
	dc.b $C1, $FB
	gsVolume	$00
	dc.b $88, $C8, nB6, $87, $C7, nF6, $88, $C8
	dc.b nBb6, $87, $C7, nE6, $88, $C8, nA6, $87
	dc.b $C7, nEb6, $88, $C8, nAb6, $87, $C7, nD6
	dc.b $88, $C8, nG6, $87, $C7, nCs6, $88, $C8
	dc.b nFs6, $87, $C7, nC6, $88, $C8, nF6, $87
	dc.b $C7, nB5, $88, $C8, nE6, $87, $C7, nBb5
	dc.b $88, $C8, nEb6, $87, $C7, nA5, $88, $C8
	dc.b nD6, $87, $C7, nAb5, $88, $C8, nCs6, $87
	dc.b $C7, nG5, $88, $C8, nC6
	gStop

.14_00	dc.b $C0
	gsTempo		120
	gsVolume	$00
	dc.b $C1
	gsPatch		$55
	dc.b $9D, $C0, nFs5, $DD, nA4, $B0, $C0, nEb5
	dc.b $F0, nFs4
	gStop

.14_01	dc.b $C0
	gsVolume	$04
	gsPatch		$57
	dc.b $9E, nFs5, nD5, $DE, nA4, $B0, $C0, nB4
	dc.b $F0, nEb5
	gStop

.14_02	dc.b $C0
	gsVolume	$00
	gsPatch		$12
	dc.b $9E, $DE, nFs4, nEb4
	gStop

.15_00	dc.b $C0
	gPauseSeq2
	dc.b nRst
	gStopSeq	$38
	gStopSeq	$25
	gStopSeq	$35
	gStopSeq	$79
	gStopSeq	$4E
	gStopSeq	$4C
	gsPrio		$7F
	gSFX
	gsVolume	$00
	gsPatch		$28
	dc.b $8F, $CF, nEb3, $82, $C5, nEb3, nEb3, nEb3
	dc.b $8F, $CF, nAb3, $82, $C5, nAb3, nAb3, nAb3
	dc.b $9E, $E6, nEb4, $C0
	gStopSeq	$15
	gUnpauseSeq	$00
	gStop

.15_01	dc.b $C0
	gsPrio		$7F
	gSFX
	gsVolume	$00
	gsPatch		$30
	dc.b $8F, $CF, nAb5, $82, $C5, nAb5, nAb5, nAb5
	dc.b $8E, $CF, nCs6, $82, $C5, nCs6, nCs6, nCs6
	dc.b $9E, $DE, nAb6
	gStop

.15_02	dc.b $C0
	gsPrio		$7F
	gSFX
	gsVolume	$00
	gsPatch		$64
	dc.b $83, $C3, nEb6, $84, $C4, nC6, nAb5, nC6
	dc.b $83, $C3, nEb6, $84, $C4, nC6, nAb5, nC6
	dc.b $83, $C3, nEb6, $84, $C4, nC6, nAb5, nC6
	dc.b $83, $C3, nEb6, $84, $C4, nC6, nAb5, nC6
	dc.b $83, $C3, nEb6, $84, $C4, nC6, nAb5, nC6
	dc.b $83, $C3, nEb6, $84, $C4, nC6, nAb5, nC6
	dc.b $83, $C3, nEb6, $84, $C4, nAb6
	gStop

.15_03	dc.b $C0
	gsPrio		$7F
	gSFX
	gsPatch		$29
	gsVolume	$00
	dc.b $83, $C7, nEb6, $84, $C8, nAb5, $83, $C7
	dc.b nEb6, $84, $C8, nAb5, $83, $C7, nEb6, $84
	dc.b $C8, nAb5, $83, $C7, nEb6, $84, $C8, nAb5
	dc.b $83, $C7, nEb6, $84, $C8, nAb5, $83, $C7
	dc.b nEb6, $84, $C8, nAb5, $83, $C3, nEb6, $84
	dc.b $C4, nAb6
	gStop

.15_04	dc.b $C0
	gsPrio		$7F
	gSFX
	gsPatch		$51
	dc.b $C1, $D2
	gsVolume	$07
	dc.b $84, $C4, nAb6, nC7, $83, $C3, nEb7, $84
	dc.b $C4, nAb7
	gStop

.15_05	dc.b $C0
	gsPrio		$7F
	gSFX
	gsVolume	$04
	gsPatch		$17
	dc.b $81, $9D, $C1, $DD, nAb2
	gStop

.16_00	dc.b $C0
	gsPrio		$7F
	gsTempo		121
	gsVolume	$07
	gPitBend	$0000
	dc.b $C6
	gsPatch		$32
	dc.b $84, nAb2, nAb2, nAb2, nAb2, nAb2, nAb2, nAb2
	dc.b nAb2, nAb2, nAb2, nAb2, nAb2, nAb2, nAb2, nAb2
	dc.b nAb2, nBb2, nBb2, nBb2, nBb2, nBb2, nBb2, nBb2
	dc.b nBb2, nBb2, nBb2, nBb2, nBb2, nBb2, nBb2, $86
	dc.b nAb3, nBb3, $84, nBb2, nBb2, nBb2, nBb2, nBb2
	dc.b nBb2, nBb2, nBb2, nBb2, nBb2, nBb2, nBb2, nBb2
	dc.b nBb2, nBb2, nBb2, nBb3, nBb2, nBb2, nBb2, nBb2
	dc.b nBb2, nBb2, nBb2, nBb2, nBb2, nBb2, nBb2, nBb2
	dc.b nBb2, nBb2, $86, nBb2
	gStop

.16_01	dc.b $C0
	gsPrio		$7F
	gsVolume	$07
	dc.b $C6
	gsPatch		$17
	dc.b $81, $A0, $C4, $E1, nAb2, $82, $BF, $C2
	dc.b $FF, nBb2
	gStop

.16_02	dc.b $C0
	gsPrio		$7F
	gsPatch		$2B
	dc.b $EA
	gsVolume	$04
	dc.b $84, $C4, nAb5, nB5, nCs6, nD6, nCs6, nD6
	dc.b nCs6, $C2, nD6
	gsVolume	$03
	dc.b $C4, nCs6, nD6, nCs6, nC6, nCs6, nD6, nEb6
	dc.b $86, $C1, $C8, nE6, $81, $C1, nD5, $82
	dc.b $C2, nEb5, $81, $C1, nE5, $82, $C2, nF5
	dc.b $81, $C1, nFs5, $82, $C2, nG5, $81, $C1
	dc.b nAb5, $82, $CE, nA5, $86, $C6, nBb5, nCs5
	dc.b nBb4, nF5, nBb4, nCs5, nBb4, nFs5, nBb4, nCs5
	dc.b nBb4, nF5, nBb4, nCs5, nBb4, nEb5, $C0
	gsVolume	$00
	dc.b $84, $C4, nEb5, nE5, nF5, nFs5, nG5, nAb5
	dc.b nA5, nBb5, nB5, nC6, nCs6, nD6, nEb6, nE6
	dc.b nF6, nFs6, nG6, nFs6, nG6, nFs6, nG6, nFs6
	dc.b nFs6, nF6, nFs6, nF6, nFs6, nF6, nE6, nF6
	dc.b nE6, nF6, nE6, nE6, nEb6, nE6, nEb6, nE6
	dc.b nEb6, nEb6, nD6, nEb6, nD6, nEb6, nD6, nD6
	dc.b nCs6, nD6, nCs6
	gStop

.16_03	dc.b $C0
	gsPatch		$20
	gStop

.16_04	dc.b $C0
	gsPrio		$7F
	gsVolume	$00
	dc.b $C1, $F2
	gsPatch		$14
	dc.b $86, $C6, nBb4, nF5, nBb4, nCs5, nBb4, nFs5
	dc.b nBb4, nCs5, nBb4, nF5, nBb4, nCs5, nBb4, nEb5
	dc.b nBb4, nCs5, nBb4, nF5, nBb4, nCs5, nBb4, nFs5
	dc.b nBb4, nCs5, nBb4, nF5, nBb4, nCs5, nBb4, $C1
	dc.b $E6, nEb5, $84, $C6, nBb2, nCs3, nE3, nG3
	dc.b nCs3, nE3, nG3, nBb3, nE3, nG3, nBb3, nCs4
	dc.b nG3, nBb3, nCs4, nE4, $81, $B8, $C1, $F8
	dc.b nE2
	gStop

.16_05	dc.b $C0
	gsPrio		$7F
	gsVolume	$00
	dc.b $EA
	gsPatch		$27
	dc.b $84, $C4, nAb6, nB6, nCs7, nD7, nCs7, nD7
	dc.b nCs7, nD7, nCs7, nD7, nCs7, nC7, nCs7, nD7
	dc.b nEb7, $86, $C1, $CE, nE7, $81, $C1, nD6
	dc.b $82, $C2, nEb6, $81, $C1, nE6, $82, $C2
	dc.b nF6, $81, $C1, nFs6, $82, $C2, nG6, $81
	dc.b $C1, nAb6, $82, $C8, nA6, $86, $C6, nBb6
	gStop

.16_06	dc.b $C0
	gsPrio		$7F
	gsVolume	$00
	dc.b $C6
	gsPatch		$30
	dc.b $81, $C4, nAb4, nAb4, $DC, nAb4, $82, $C4
	dc.b nAb5, nAb5, nAb5, nAb5, nAb5, $DC, nAb5, $C4
	dc.b nAb5, nAb5, nAb5, $85, $C1, $D4, nBb5, $82
	dc.b $C4, nBb5, nBb5, nBb5, $86, $C1, $E0, nBb5
	dc.b $85, $E4, nBb5, $82, $C4, nBb4, nBb4, nBb4
	dc.b $E4, nBb4, $C4, nBb5, nBb5, nBb5, $86, $C6
	dc.b nBb5
	gStop

.16_07	dc.b $C0
	gsPrio		$7F
	gsVolume	$00
	dc.b $C6
	gsPatch		$28
	dc.b $81, $C4, nAb4, nAb4, $C1, $FC, nAb4, $C1
	dc.b nBb3, $82, $C2, nB3, $81, $C1, nC4, $82
	dc.b $C2, nCs4, $81, $C1, nD4, $82, $C2, nEb4
	dc.b $81, $C1, nE4, $82, $C2, nF4, $98, $D8
	dc.b nFs4, $86, $CC, nF4, $82, $C4, nE5, nE5
	dc.b nE5, $86, $C2, $C4, nE5, $82, $C4, nE5
	dc.b nE5, nE5, $E4, nE5, $C4, nE5, nE5, $DC
	dc.b nE5, $86, $CC, nE5, $81, $C1, nF3, $82
	dc.b $C2, nFs3, $81, $C1, nG3, $82, $C2, nAb3
	dc.b $81, $C1, nA3, $82, $C2, nBb3, $81, $C1
	dc.b nB3, $82, $C2, nC4, $9E, $DE, nCs4
	gStop

.16_08	dc.b $C0
	gsPrio		$7F
	gsVolume	$00
	gsPatch		$14
	dc.b $C6
	gPitBend	$0000
	dc.b $C0
	gPitBend	$03FF
	dc.b $85, $A8, $D8, nAb3, $C1
	gPitBend	$03F3
	dc.b $C2
	gPitBend	$03E6
	dc.b $C1
	gPitBend	$03D9
	dc.b $C2
	gPitBend	$03CC
	dc.b $C1
	gPitBend	$03BF
	dc.b $C2
	gPitBend	$03B2
	dc.b $C1
	gPitBend	$03A6
	dc.b $C2
	gPitBend	$0399
	dc.b $C1
	gPitBend	$038C
	dc.b $C2
	gPitBend	$037F
	dc.b $C1
	gPitBend	$0372
	dc.b $C2
	gPitBend	$0365
	dc.b $C1
	gPitBend	$0358
	dc.b $C2
	gPitBend	$034C
	dc.b $C1
	gPitBend	$033F
	dc.b $C2
	gPitBend	$0332
	dc.b $C1
	gPitBend	$0325
	dc.b $C2
	gPitBend	$0318
	dc.b $C1
	gPitBend	$030B
	dc.b $C2
	gPitBend	$02FE
	dc.b $C1
	gPitBend	$02F2
	dc.b $C2
	gPitBend	$02E5
	dc.b $C1
	gPitBend	$02D8
	dc.b $C2
	gPitBend	$02CB
	dc.b $C1
	gPitBend	$02BE
	dc.b $C2
	gPitBend	$02B1
	dc.b $C1
	gPitBend	$02A4
	dc.b $C2
	gPitBend	$0298
	dc.b $C1
	gPitBend	$028B
	dc.b $C2
	gPitBend	$027E
	dc.b $C1
	gPitBend	$0271
	dc.b $C2
	gPitBend	$0264
	dc.b $C1
	gPitBend	$0257
	dc.b $C2
	gPitBend	$024B
	dc.b $C1
	gPitBend	$023E
	dc.b $C2
	gPitBend	$0231
	dc.b $C1
	gPitBend	$0224
	dc.b $C2
	gPitBend	$0217
	dc.b $C1
	gPitBend	$020A
	dc.b $C2
	gPitBend	$01FD
	dc.b $C1
	gPitBend	$01F1
	dc.b $C2
	gPitBend	$01E4
	dc.b $C1
	gPitBend	$01D7
	dc.b $C2
	gPitBend	$01CA
	dc.b $C1
	gPitBend	$01BD
	dc.b $C2
	gPitBend	$01B0
	dc.b $C1
	gPitBend	$01A3
	dc.b $C2
	gPitBend	$0197
	dc.b $C1
	gPitBend	$018A
	dc.b $C2
	gPitBend	$017D
	dc.b $C1
	gPitBend	$0170
	dc.b $C2
	gPitBend	$0163
	dc.b $C1
	gPitBend	$0156
	dc.b $C2
	gPitBend	$0149
	dc.b $C1
	gPitBend	$013D
	dc.b $C2
	gPitBend	$0130
	dc.b $C1
	gPitBend	$0123
	dc.b $C2
	gPitBend	$0116
	dc.b $C1
	gPitBend	$0109
	dc.b $C2
	gPitBend	$00FC
	dc.b $C1
	gPitBend	$00EF
	dc.b $C2
	gPitBend	$00E3
	dc.b $C1
	gPitBend	$00D6
	dc.b $C2
	gPitBend	$00C9
	dc.b $C1
	gPitBend	$00BC
	dc.b $C2
	gPitBend	$00AF
	dc.b $C1
	gPitBend	$00A2
	dc.b $C2
	gPitBend	$0096
	dc.b $C1
	gPitBend	$0089
	dc.b $C2
	gPitBend	$007C
	dc.b $C1
	gPitBend	$006F
	dc.b $C2
	gPitBend	$0062
	dc.b $C1
	gPitBend	$0055
	dc.b $C2
	gPitBend	$0048
	dc.b $C1
	gPitBend	$003C
	dc.b $C2
	gPitBend	$002F
	dc.b $C1
	gPitBend	$0022
	dc.b $C2
	gPitBend	$0015
	dc.b $C1
	gPitBend	$0008
	dc.b $C2
	gPitBend	$FFFB
	dc.b $C1
	gPitBend	$FFEE
	dc.b $C2
	gPitBend	$FFE2
	dc.b $C1
	gPitBend	$FFD5
	dc.b $C2
	gPitBend	$FFC8
	dc.b $C1
	gPitBend	$FFBB
	dc.b $C2
	gPitBend	$FFAE
	dc.b $C1
	gPitBend	$FFA1
	dc.b $C2
	gPitBend	$FF94
	dc.b $C1
	gPitBend	$FF88
	dc.b $C2
	gPitBend	$FF7B
	dc.b $C1
	gPitBend	$FF6E
	dc.b $C2
	gPitBend	$FF61
	dc.b $C1
	gPitBend	$FF54
	dc.b $C2
	gPitBend	$FF47
	dc.b $C1
	gPitBend	$FF3A
	dc.b $C2
	gPitBend	$FF2E
	dc.b $C1
	gPitBend	$FF21
	dc.b $C2
	gPitBend	$FF14
	dc.b $C1
	gPitBend	$FF07
	dc.b $C2
	gPitBend	$FEFA
	dc.b $C1
	gPitBend	$FEED
	dc.b $C2
	gPitBend	$FEE1
	dc.b $C1
	gPitBend	$FED4
	dc.b $C2
	gPitBend	$FEC7
	dc.b $C1
	gPitBend	$FEBA
	dc.b $C2
	gPitBend	$FEAD
	dc.b $C1
	gPitBend	$FEA0
	dc.b $C2
	gPitBend	$FE93
	dc.b $C1
	gPitBend	$FE87
	dc.b $C2
	gPitBend	$FE7A
	dc.b $C1
	gPitBend	$FE6D
	dc.b $C2
	gPitBend	$FE60
	dc.b $C1
	gPitBend	$FE53
	dc.b $C2
	gPitBend	$FE46
	dc.b $C1
	gPitBend	$FE39
	dc.b $C2
	gPitBend	$FE2D
	dc.b $C1
	gPitBend	$FE20
	dc.b $C2
	gPitBend	$FE13
	dc.b $C1
	gPitBend	$FE06
	dc.b $C2
	gPitBend	$FDF9
	dc.b $C1
	gPitBend	$FDEC
	dc.b $C2
	gPitBend	$FDDF
	dc.b $C1
	gPitBend	$FDD3
	dc.b $C2
	gPitBend	$FDC6
	dc.b $C1
	gPitBend	$FDB9
	dc.b $C2
	gPitBend	$FDAC
	dc.b $C1
	gPitBend	$FD9F
	dc.b $C2
	gPitBend	$FD92
	dc.b $C1
	gPitBend	$FD85
	dc.b $C2
	gPitBend	$FD79
	dc.b $C1
	gPitBend	$FD6C
	dc.b $C2
	gPitBend	$FD5F
	dc.b $C1
	gPitBend	$FD52
	dc.b $C2
	gPitBend	$FD45
	dc.b $C1
	gPitBend	$FD38
	dc.b $C2
	gPitBend	$FD2C
	dc.b $C1
	gPitBend	$FD1F
	dc.b $C2
	gPitBend	$FD12
	dc.b $C1
	gPitBend	$FD05
	dc.b $C2
	gPitBend	$FCF8
	dc.b $C1
	gPitBend	$FCEB
	dc.b $C2
	gPitBend	$FCDE
	dc.b $C1
	gPitBend	$FCD2
	dc.b $C2
	gPitBend	$FCC5
	dc.b $C1
	gPitBend	$FCB8
	dc.b $C2
	gPitBend	$FCAB
	dc.b $C1
	gPitBend	$FC9E
	dc.b $C2
	gPitBend	$FC91
	dc.b $C1
	gPitBend	$FC84
	dc.b $C2
	gPitBend	$FC78
	dc.b $C1
	gPitBend	$FC6B
	dc.b $C2
	gPitBend	$FC5E
	dc.b $C1
	gPitBend	$FC51
	dc.b $C2
	gPitBend	$FC44
	dc.b $C1
	gPitBend	$FC37
	dc.b $C2
	gPitBend	$FC2A
	dc.b $C1
	gPitBend	$FC1E
	dc.b $C2
	gPitBend	$FC11
	dc.b $FF
	gPitBend	$FC04
	dc.b $C1
	gPitBend	$FC00
	dc.b $C2
	gPitBend	$FC1F
	dc.b $C1
	gPitBend	$FC3E
	dc.b $C2
	gPitBend	$FC5E
	dc.b $C1
	gPitBend	$FC7D
	dc.b $C2
	gPitBend	$FC9C
	dc.b $C1
	gPitBend	$FCBC
	dc.b $DA
	gPitBend	$FCDB
	gStop

.16_09	dc.b $C0
	gsPrio		$7F
	gsVolume	$1A
	dc.b $C1, $E6
	gsPatch		$7A
	dc.b $8C, $CC, nAb5, $92, nG5, $86, $C6, nAb5
	dc.b nAb5, $8C, $CC, nG5, nAb5, nG5, $86, $C6
	dc.b nAb5, nAb5, $8C, $CC, nG5, nAb5, nG5, $86
	dc.b $C6, nAb5, nAb5, $8C, $CC, nG5, nAb5, nG5
	dc.b $85, $C6, nG5, nG5, $86, nG5, nG5, nG5
	dc.b nAb5, nAb5, nG5, nAb5, nAb5, nG5, nAb5, nG5
	dc.b nAb5, nAb5, nG5, nAb5, nAb5, $8C, $CC, nG5
	dc.b $86, $C6, nAb5, $8C, $CC, nG5, $86, $C6
	dc.b nAb5, $8C, $CC, nG5, $86, $C6, nAb5, $8C
	dc.b $CC, nG5, $86, $C6, nAb5, nG5, nG5, nG5
	dc.b nG5, nG5, nG5, $98, $D8, nAb5
	gStop

.16_0A	dc.b $C0
	gsPrio		$7F
	gsPatch		$4A
	dc.b $C1, $E7
	gsVolume	$00
	dc.b $B0, $C1, $E0, nB3, $C3, $C0, nB3, $F0
	dc.b nB3
	gStop

.16_0B	dc.b $C0
	gsPrio		$7F
	gsPatch		$11
	dc.b $C6
	gsVolume	$00
	dc.b $82, $C4, nAb4, nAb4, $DC, nAb4, $C4, nAb5
	dc.b nAb5, nAb5, nAb5, nAb5, $DC, nAb5, $C4, nAb5
	dc.b nAb5, $C2, nAb5
	gStop

.16_0C	dc.b $C0
	gsPrio		$7F
	gsPatch		$7F
	dc.b $C7, $E6
	gsVolume	$00
	dc.b $86, $C6, nB6, nF6, nBb6, nE6, nA6, nEb6
	dc.b nAb6, nD6, nG6, nCs6, nFs6, nC6, nF6, nB5
	dc.b nE6, nBb5, nEb6, nA5, nD6, nAb5
	gStop

.16_0D	dc.b $C4, $E6
	gsPatch		$3C
	dc.b $98, $D8, nAb1
	gStop

.17_00	dc.b $C0
	gPauseSeq2
	dc.b nRst
	gsPrio		$7F
	gStopSeq	$33
	gSFX
	dc.b $CA
	gsPatch		$7A
	dc.b $8D, $CD, nAb5, $87, $C7, nD5, $86, $C6
	dc.b nD5, $87, $C7, nD5, nD5, $86, $C6, nD5
	dc.b $90, $D6, nD5, $C0
	gUnpauseSeq	$00
	gStop

.17_01	dc.b $C0
	gSFX
	gsPatch		$32
	dc.b $CA
	gsVolume	$02
	dc.b $8C, $CD, nCs2, $85, $C7, nB2, $C6, nB2
	dc.b $C7, nB2, nB2, $C6, nC3, $89, $C9, nCs3
	gStop

.17_02	dc.b $C0
	gSFX
	gsPatch		$28
	dc.b $D7
	gsVolume	$02
	dc.b $85, $C7, nB5, $C6, nB5, $C7, nB5, nB5
	dc.b $C6, nC6, $89, $C9, nCs6
	gStop

.17_03	dc.b $C0
	gSFX
	gsPatch		$28
	dc.b $D7
	gsVolume	$00
	dc.b $85, $C7, nB4, $C6, nB4, $C7, nB4, nB4
	dc.b $C6, nC5, $88, $C8, nCs5
	gStop

.17_04	dc.b $C0
	gSFX
	gsPatch		$17
	dc.b $CA
	gsVolume	$11
	dc.b $8D, $CD, nCs3
	gStop

.17_05	dc.b $C0
	gSFX
	gsPatch		$4F
	dc.b $CA
	gsVolume	$00
	dc.b $B7, $F7, nCs4
	gStop

.21_00	dc.b $C0
	gsPrio		$7F
	gSFX
	gsVolume	$0A
	gsPatch		$71
	gLoopStart
	dc.b $C0
	gNop
	dc.b $81, $C8, nBb4, $C0
	gLoopEnd
	gStop

.21_01	dc.b $C0
	gsPrio		$7F
	gSFX
	gsVolume	$00
	gsPatch		$5A
	gLoopStart
	dc.b $C0
	gNop
	dc.b $88, $C8, nCs6, $C0
	gLoopEnd
	gStop

.21_02	dc.b $C0
	gsPrio		$7F
	gSFX
	gsVolume	$00
	gsPatch		$58
	gLoopStart
	dc.b $C0
	gNop
	gHold
	dc.b nC0, $88, $C8, nCs7, $C0
	gHold
	dc.b nRst
	gLoopEnd
	gStop

.22_00	dc.b $C1, $CE
	gStartSeq	$6B
	dc.b $C3, $C6
	gStartSeq	$6B
	dc.b $C1, $CE
	gStartSeq	$6B
	dc.b $C1, $E8
	gStartSeq	$6B
	dc.b $C3, $C0
	gStartSeq	$6B
	dc.b $C0
	gStopSeq	$6B
	gStop

.22_01	dc.b $C2, $D2
	gNop
	dc.b $E2
	gStartSeq	$6A
	dc.b $C1, $DA
	gStartSeq	$6B
	dc.b $E4
	gStartSeq	$6A
	dc.b $C0
	gStartSeq	$6A
	gStop

.25_00	dc.b $C8
	gStartSeq	$60
	dc.b $C1
	gStopSeq	$60
	dc.b $C3
	gStartSeq	$40
	dc.b $C1
	gStopSeq	$40
	dc.b $C3
	gStartSeq	$40
	dc.b $C1
	gStopSeq	$40
	dc.b $C6
	gStartSeq	$40
	dc.b $C1
	gStopSeq	$40
	dc.b $C0
	gPauseSeq2
	dc.b nRst, $F0
	gStartSeq	$30
	dc.b $C0
	gUnpauseSeq	$00
	gStop

.26_00	dc.b $C0
	gsPrio		$7F
	gStopSeq	$38
	gStopSeq	$6A
	gSFX
	gsPatch		$64
	dc.b $C6
	gsVolume	$00
	dc.b $83, $C3, nEb6, $84, $C4, nF6, nBb5, nF5
	dc.b $83, $C3, nEb6, $84, $C4, nC6, $C0
	gStopSeq	$26
	gStop

.26_01	dc.b $C0
	gsPrio		$7F
	gSFX
	gsVolume	$00
	dc.b $C6
	gsPatch		$1B
	dc.b $83, $C3, nEb6, $84, $C4, nF6, nBb5, nF5
	dc.b $83, $C3, nEb6, $84, $C4, nC6
	gStop

.26_02	dc.b $C0
	gsPrio		$7F
	gSFX
	gsVolume	$00
	dc.b $C6
	gsPatch		$01
	dc.b $83, $C3, nC4, nAb4, nF4, nC5, nAb4, nF5
	dc.b $C4, nC5, $C3, nAb5
	gStop

.27_00	dc.b $C0
	gsPrio		$7F
	gSFX
	gsPatch		$3B
	gsVolume	$00
	dc.b $84, $C4, nAb2, nBb3, nFs4, $83, $C3, nBb4
	dc.b nB4, $84, $C4, nEb5, $86, $CB, nAb5, $84
	dc.b $C4, nE4, nFs4, $86, $C6, nAb4, $C8, nBb4
	dc.b $83, $C3, nB4
	gStop

.28_00	dc.b $C0
	gsPrio		$7F
	gSFX
	gsPatch		$7A
	dc.b $82, $C2, nCs4
	gStop

.28_01	dc.b $C0
	gSFX
	gsPatch		$1B
	dc.b $8C, $CC, nAb4
	gStop

.28_02	dc.b $C0
	gsPrio		$7F
	gSFX
	gsPatch		$63
	dc.b $8C, $CC, nC4
	gStop

.28_03	dc.b $C0
	gSFX
	gsPatch		$7F
	dc.b $86, $C6, nAb5
	gStop

.28_04	dc.b $C0
	gSFX
	gsPatch		$3A
	dc.b $8C, $CC, nAb2
	gStop

.28_05	dc.b $C0
	gSFX
	gsPatch		$3C
	gsVolume	$1B
	dc.b $98, $D8, nB3
	gStop

.28_06	dc.b $C0
	gsPrio		$7F
	gSFX
	gsPatch		$3A
	dc.b $98, $D8, nAb2
	gStop

.28_07	dc.b $C0
	gsPrio		$7F
	gSFX
	gsPatch		$63
	dc.b $8C, $CC, nC4
	gStop

.28_08	dc.b $C0
	gSFX
	gsPatch		$7F
	dc.b $86, $C6, nAb5
	gStop

.28_09	dc.b $C0
	gSFX
	gsPatch		$1B
	dc.b $8C, $CC, nAb4
	gStop

.28_0A	dc.b $C0
	gSFX
	gsVolume	$07
	dc.b $D0
	gsPatch		$72
	dc.b $81, $C6, nB4, nB4, $C1, nB4
	gStop

.28_0B	dc.b $C0
	gSFX
	gsVolume	$0C
	dc.b $D0
	gsPatch		$5A
	dc.b $81, $C6, nB4, nB4, $C1, nB4
	gStop

.29_00	dc.b $C0
	gStopSeq	$4C
	gsPrio		$7F
	gSFX
	gsVolume	$00
	gsPatch		$7A
	dc.b $98, $D8, nF5
	gStop

.29_01	dc.b $C0
	gsPrio		$7F
	gSFX
	gsVolume	$00
	gsPatch		$1B
	dc.b $82, $C2, nAb4
	gStop

.29_02	dc.b $C0
	gsPrio		$7F
	gSFX
	gsVolume	$00
	gsPatch		$63
	dc.b $86, $C6, nC4
	gStop

.29_03	dc.b $C0
	gsPrio		$7F
	gSFX
	gsVolume	$00
	gsPatch		$7F
	dc.b $86, $C6, nAb5
	gStop

.2A_00	dc.b $C0
	gStopSeq	$4C
	gsPrio		$7F
	gSFX
	gsVolume	$00
	gsPatch		$74
	dc.b $84, $C4, nAb2, nFs2, nE2, nCs2, $C0
	gStopSeq	$2A
	gStop

.2A_01	dc.b $C0
	gsPrio		$7F
	gSFX
	gsVolume	$02
	gsPatch		$18
	dc.b $81, $C1, nAb1
	gStop

.2B_00	dc.b $C0
	gSFX
	gsPrio		$7F
	gsPatch		$44
	gsVolume	$07
	dc.b $81, $92, nCs4, $C1
	gPitBend	$0000
	gPitBend	$00BC
	dc.b $C2
	gPitBend	$01CA
	gPitBend	$0344
	dc.b $C3
	gPitBend	$03A7
	dc.b $E6
	gPitBend	$03F8
	dc.b $C5
	gPitBend	$03E6
	dc.b $C4
	gPitBend	$03C2
	gPitBend	$0395
	dc.b $C3
	gPitBend	$0356
	dc.b $C6
	gPitBend	$0305
	dc.b $C4
	gPitBend	$02BD
	gPitBend	$0275
	dc.b $C3
	gPitBend	$021B
	dc.b $C2
	gPitBend	$01CA
	gPitBend	$0155
	gPitBend	$00E0
	gPitBend	$00A1
	dc.b $C1
	gPitBend	$0050
	dc.b $C0
	gStopSeq	$2B
	gStop

.2C_00	dc.b $C0
	gsPrio		$7F
	gStopSeq	$79
	gStopSeq	$37
	gStopSeq	$4C
	gSFX
	gsPatch		$27
	gRetrig
	dc.b nC0
	gsEnv		$05
	dc.b $98, $D8, nBb5
	gStop

.2D_00	dc.b $C0
	gStopSeq	$4C
	gsPrio		$7F
	gSFX
	gsPatch		$74
	gLoopStart	$04
	dc.b $C0
	gNop
	dc.b $84, $C4, nAb2, nFs2, nE2, nEb2, $C0
	gLoopEnd
	gStop

.2E_00	dc.b $C0
	gsPrio		$7F
	gSFX
	gsVolume	$00
	gsPatch		$62
	gRetrig
	dc.b nC0
	gsEnv		$05
	dc.b $A0, $E0, nFs4
	gStop

.2F_00	dc.b $C0
	gsPrio		$7F
	gSFX
	gsVolume	$0A
	gsPatch		$71
	dc.b $81, $C1, nBb4
	gStop

.2F_01	dc.b $C0
	gsPrio		$7F
	gSFX
	gsVolume	$00
	gsPatch		$5A
	dc.b $88, $C8, nCs6
	gStop

.2F_02	dc.b $C0
	gsPrio		$7F
	gSFX
	gsVolume	$00
	gsPatch		$58
	dc.b $88, $C8, nCs7
	gStop

.30_00	dc.b $C0
	gsPrio		$7F
	gSFX
	gsPatch		$7A
	dc.b $95, $D5, nCs4
	gStop

.30_01	dc.b $C0
	gsPrio		$7F
	gSFX
	gsPatch		$74
	dc.b $95, $D5, nCs2
	gStop

.30_02	dc.b $C0
	gsPrio		$7F
	gSFX
	gsPatch		$5E
	dc.b $95, $D5, nAb3
	gStop

.30_03	dc.b $C0
	gsPrio		$7F
	gSFX
	gPitBend	$0000
	gsPatch		$57
	dc.b $B0, nAb6, nEb6, nAb5, $C3
	gPitBend	$FC0E
	dc.b $C2
	gPitBend	$FC7F
	dc.b $C3
	gPitBend	$FCF1
	gPitBend	$FD63
	dc.b $C2
	gPitBend	$FDD5
	dc.b $C3
	gPitBend	$FE47
	gPitBend	$FEB8
	dc.b $C2
	gPitBend	$FF2A
	dc.b $C3
	gPitBend	$FF9C
	gPitBend	$000E
	gPitBend	$007F
	dc.b $C2
	gPitBend	$00F1
	dc.b $C3
	gPitBend	$0163
	gPitBend	$01D5
	dc.b $C2
	gPitBend	$0247
	dc.b $C3
	gPitBend	$02B8
	gPitBend	$032A
	dc.b $C2
	gPitBend	$039C
	dc.b $C0
	gPitBend	$03F1
	gStop

.31_00	dc.b $C0
	gsPrio		$7F
	gSFX
	gsVolume	$00
	gsPatch		$5A
	dc.b $84, nE6, $C4, nE5
	gStop

.33_00	dc.b $C0
	gsPrio		$7F
	gSFX
	gsPatch		$4B
	gsVolume	$00
	gPitBend	$03FF
	dc.b $83, $BC, $C3, nAb5
	gPitBend	$03E7
	gPitBend	$03CE
	gPitBend	$03B5
	gPitBend	$039C
	gPitBend	$0384
	gPitBend	$036B
	gPitBend	$0352
	gPitBend	$0339
	gPitBend	$0321
	gPitBend	$0308
	gPitBend	$02EF
	gPitBend	$02D6
	gPitBend	$02BD
	gPitBend	$02A5
	gPitBend	$028C
	gPitBend	$0273
	gPitBend	$025A
	gPitBend	$0242
	gPitBend	$0229
	gPitBend	$0210
	gPitBend	$01F7
	gPitBend	$01DE
	gPitBend	$01C6
	gPitBend	$01AD
	gPitBend	$0194
	gPitBend	$017B
	gPitBend	$0163
	gPitBend	$014A
	gPitBend	$0131
	gPitBend	$0118
	gPitBend	$00FF
	gPitBend	$00E7
	gPitBend	$00CE
	gPitBend	$00B5
	gPitBend	$009C
	gPitBend	$0084
	gPitBend	$006B
	gPitBend	$0052
	gPitBend	$0039
	gPitBend	$0020
	gPitBend	$0008
	gPitBend	$FFEF
	gPitBend	$FFD6
	gPitBend	$FFBD
	gPitBend	$FFA5
	gPitBend	$FF8C
	gPitBend	$FF73
	gPitBend	$FF5A
	gPitBend	$FF41
	gPitBend	$FF29
	gPitBend	$FF10
	gPitBend	$FEF7
	gPitBend	$FEDE
	gPitBend	$FEC6
	gPitBend	$FEAD
	gPitBend	$FE94
	gPitBend	$FE7B
	gPitBend	$FE62
	gPitBend	$FE4A
	gPitBend	$FE31
	gPitBend	$FE18
	gPitBend	$FDFF
	gPitBend	$FDE7
	gPitBend	$FDCE
	gPitBend	$FDB5
	gPitBend	$FD9C
	gPitBend	$FD83
	gPitBend	$FD6B
	gPitBend	$FD52
	gPitBend	$FD39
	gPitBend	$FD20
	gPitBend	$FD08
	gPitBend	$FCEF
	gPitBend	$FCD6
	gPitBend	$FCBD
	gPitBend	$FCA4
	gPitBend	$FC8C
	gPitBend	$FC73
	gPitBend	$FC5A
	gPitBend	$FC41
	gPitBend	$FC29
	dc.b $C1
	gPitBend	$FC10
	dc.b $D1
	gPitBend	$FC00
	dc.b $C0
	gPitBend	$0000
	gStop

.34_00	dc.b $C0
	gStopSeq	$79
	gsPrio		$7F
	gSFX
	gsVolume	$00
	gsPatch		$50
	dc.b $86, $E6, nD5, $8C, $CC, nD5
	gStop

.34_01	dc.b $C0
	gsPrio		$7F
	gSFX
	gsVolume	$00
	gsPatch		$44
	dc.b $C1
	gPitBend	$0000
	dc.b $81, $C5, nG6, $98, $D8, nCs6, $C3
	gPitBend	$FFB7
	dc.b $C5
	gPitBend	$FE93
	dc.b $C1
	gPitBend	$FCDE
	dc.b $C0
	gStopSeq	$34
	gStop

.35_00	dc.b $C0
	gStopSeq	$79
	gStopSeq	$4C
	gsPrio		$7F
	gSFX
	gsVolume	$04
	gsPatch		$41
	dc.b $81, $C3, nAb1, $C2, nE1, $C1, nFs1
	gStop

.35_01	dc.b $C0
	gsPrio		$7F
	gSFX
	gsPatch		$5E
	dc.b $85, $C5, nC4
	gStop

.36_00	dc.b $C0
	gStopSeq	$4C
	gsPrio		$7F
	gSFX
	gsVolume	$00
	dc.b $DF
	gsPatch		$7C
	dc.b $98, $D8, nCs2
	gStop

.36_01	dc.b $C0
	gsPrio		$7F
	gSFX
	gsPatch		$61
	dc.b $D7
	gsVolume	$00
	dc.b $86, $C6, nCs3
	gStop

.36_02	dc.b $C0
	gsPrio		$7F
	gSFX
	gsPrio		$7E
	gsPatch		$39
	dc.b $E1
	gsVolume	$00
	dc.b $98, $D8, nA3
	gStop

.36_03	dc.b $C0
	gsPrio		$7F
	gSFX
	gsPatch		$4D
	gsVolume	$03
	dc.b $8C, $CC, nBb1
	gStop

.37_00	dc.b $C0
	gsPrio		$7F
	gSFX
	gsPatch		$62
	gsVolume	$00
	gRetrig
	dc.b nC0
	gsEnv		$01
	dc.b $A8, $DC, nAb2, $CC
	gStopSeq	$37
	gStop

.38_00	dc.b $C0
	gsPrio		$7F
	gSFX
	gsVolume	$00
	gsPatch		$4C
	gRetrig
	dc.b nC0
	gsEnv		$05
	dc.b $92, $D2, nFs2, $C0
	gStopSeq	$38
	gStop

.38_01	dc.b $C0
	gsPrio		$7F
	gSFX
	gsPatch		$74
	dc.b $86, $C6, nB2
	gStop

.39_00	dc.b $C0
	gStopSeq	$79
	gStopSeq	$78
	gStopSeq	$6A
	gStopSeq	$77
	gStopSeq	$4C
	gsPrio		$7F
	gSFX
	gsPatch		$2E
	dc.b $C4
	gsVolume	$00
	dc.b $C0
	gRetrig
	dc.b nC0
	gsEnv		$05
	dc.b $98, $D8, nEb4, $C0
	gStopSeq	$39
	gStop

.3A_00	dc.b $C0
	gsPrio		$7F
	gSFX
	gsPatch		$7A
	gsVolume	$00
	dc.b $98, $D8, nCs4
	gStop

.3A_01	dc.b $C0
	gsPrio		$7F
	gSFX
	gsPatch		$24
	gsVolume	$00
	dc.b $98, $D8, nCs4
	gStop

.3A_02	dc.b $C0
	gsPrio		$7F
	gSFX
	gsPatch		$5A
	gsVolume	$00
	dc.b $88, $C8, nC6, $81, $C1, nBb6, $86, $C6
	dc.b nD6, $83, $C3, nA6, $84, $C4, nF6, $82
	dc.b $C3, nEb6, $85, $C6, nB6, $84, $C5, nA6
	dc.b $82, $C2, nEb6, $84, $C7, nB6, $C6, nG6
	dc.b $C4, nBb6
	gStop

.3A_03	dc.b $C0
	gsPrio		$7F
	gSFX
	gsPatch		$5A
	dc.b $CB
	gsVolume	$00
	dc.b $89, $C9, nC7, $85, $C7, nD7, $83, $C3
	dc.b nA7, $C4, nF7, $82, $C2, nG7, $85, $C6
	dc.b nBb7, $81, $C1, nC7, $83, $C5, nA7, $81
	dc.b $C1, nEb7, $86, $C7, nBb7, $85, $C5, nG7
	gStop

.3B_00	dc.b $C0
	gsPrio		$7B
	gSFX
	gsPatch		$72
	gsVolume	$00
	dc.b $86, $C6, nFs2
	gStop

.3C_00	dc.b $C0
	gsPrio		$7E
	gSFX
	gsPatch		$6B
	gLoopStart
	dc.b $C0
	gNop
	gsVolume	$15
	dc.b $98, $D8, nB3, $C0
	gLoopEnd
	gStop

.3C_01	dc.b $C0
	gsPrio		$7F
	gsPatch		$6A
	gLoopStart
	dc.b $C0
	gNop
	gsVolume	$00
	dc.b $98, $D8, nB3, $C0
	gLoopEnd
	gStop

.3E_00	dc.b $C0
	gsPrio		$7F
	gSFX
	gsVolume	$00
	gsPatch		$49
	dc.b $AC, $C2, nAb4, $C1
	gPitBend	$00FB
	dc.b $C0
	gPitBend	$0263
	dc.b $DD
	gPitBend	$03E6
	dc.b $C2
	gPitBend	$03F8
	dc.b $C3
	gPitBend	$03B9
	dc.b $C1
	gPitBend	$0383
	dc.b $C2
	gPitBend	$033B
	dc.b $C0
	gPitBend	$02E1
	dc.b $C1
	gPitBend	$02A2
	gPitBend	$0248
	gPitBend	$01E5
	gPitBend	$0155
	dc.b $C0
	gPitBend	$0000
	gStop

.3E_01	dc.b $C0
	gsVolume	$00
	gsPatch		$14
	dc.b $81, $C1, nAb1, $82, $C2, nA1, $81, $C1
	dc.b nBb1, $82, $C2, nB1, $81, $C1, nC2, $82
	dc.b $C2, nCs2, $81, $C1, nD2, $82, $C2, nEb2
	dc.b $81, $C1, nE2, $82, $C2, nF2, $81, $C1
	dc.b nFs2, $82, $C2, nG2, $81, $C1, nAb2, $82
	dc.b $C2, nG2, $81, $C1, nFs2, $82, $C2, nF2
	dc.b $81, $C1, nE2, $82, $C2, nEb2, $81, $C1
	dc.b nD2, $82, $C2, nCs2, $81, $C1, nC2, $82
	dc.b $C2, nB1, $81, $C1, nBb1, $82, $C2, nA1
	gStop

.3F_00	dc.b $C0
	gsPrio		$7F
	gSFX
	gsPatch		$6C
	gsVolume	$00
	dc.b $81, $C2, nC5, nB3, nB3, nB3, nB3, $83
	dc.b $C3, nB3
	gStop

.40_00	dc.b $C0
	gsPrio		$7F
	gSFX
	gsPatch		$6D
	gsVolume	$03
	gRetrig
	dc.b nC0
	gsEnv		$01
	dc.b $98, $D8, nB3
	gStop

.41_00	dc.b $C0
	gsPrio		$7F
	gSFX
	gsPatch		$6E
	gsVolume	$00
	gRetrig
	dc.b nC0
	gsEnv		$05
	dc.b $81, $88, $C1, $C8, nG2
	gStop

.45_00	dc.b $C0
	gsPrio		$7F
	gSFX
	gsPatch		$25
	gsVolume	$00
	dc.b $B0, $C2, nAb4, $C1
	gPitBend	$0023
	gPitBend	$00A1
	gPitBend	$00F2
	gPitBend	$014C
	gPitBend	$018B
	gPitBend	$01AF
	gPitBend	$01CA
	gPitBend	$01EE
	gPitBend	$0212
	gPitBend	$0236
	dc.b $C2
	gPitBend	$0263
	dc.b $C1
	gPitBend	$027E
	dc.b $C2
	gPitBend	$02A2
	gPitBend	$02C6
	dc.b $C5
	gPitBend	$02E1
	dc.b $C7
	gPitBend	$02FC
	dc.b $C8
	gPitBend	$0317
	dc.b $C4
	gPitBend	$0332
	dc.b $C3
	gPitBend	$034D
	dc.b $CB
	gPitBend	$0368
	dc.b $8F, $C6, nFs4, $C1
	gPitBend	$0011
	gPitBend	$007D
	gPitBend	$0104
	gPitBend	$0194
	dc.b $C2
	gPitBend	$0209
	dc.b $C1
	gPitBend	$0251
	gPitBend	$0290
	gPitBend	$02B4
	gPitBend	$02D8
	gPitBend	$0317
	gPitBend	$034D
	gPitBend	$0368
	dc.b $CB
	gPitBend	$0383
	dc.b $C0, nE4, $C3
	gPitBend	$011F
	dc.b $C1
	gPitBend	$0179
	gPitBend	$01EE
	gPitBend	$0251
	gPitBend	$02B4
	gPitBend	$0305
	gPitBend	$0332
	dc.b $C2
	gPitBend	$035F
	gPitBend	$0383
	dc.b $C1
	gPitBend	$03B0
	gPitBend	$03CB
	dc.b $C2
	gPitBend	$03EF
	dc.b $CB
	gPitBend	$03FF
	dc.b $94, $C0, nEb4, $C2
	gPitBend	$00E9
	gPitBend	$00C5
	dc.b $C1
	gPitBend	$00FB
	gPitBend	$0170
	gPitBend	$01DC
	gPitBend	$0263
	gPitBend	$02EA
	gPitBend	$0356
	gPitBend	$039E
	gPitBend	$03D4
	dc.b $D3
	gPitBend	$03FF
	dc.b $BC, $C3, nCs4, $C1
	gPitBend	$00F2
	gPitBend	$0167
	gPitBend	$01D3
	gPitBend	$0248
	gPitBend	$02A2
	gPitBend	$02E1
	gPitBend	$0329
	gPitBend	$035F
	dc.b $C2
	gPitBend	$0383
	dc.b $D6
	gPitBend	$03A7
	dc.b $C2
	gPitBend	$038C
	dc.b $C3
	gPitBend	$0368
	dc.b $C2
	gPitBend	$034D
	gPitBend	$0329
	dc.b $C1
	gPitBend	$0305
	gPitBend	$02EA
	gPitBend	$02C6
	gPitBend	$02A2
	gPitBend	$0275
	gPitBend	$0236
	gPitBend	$01F7
	gPitBend	$01C1
	gPitBend	$0179
	dc.b $C2
	gPitBend	$0128
	dc.b $C1
	gPitBend	$00C5
	gPitBend	$0062
	gPitBend	$0011
	dc.b $C2
	gPitBend	$0000
	gStop

.49_00	dc.b $C0
	gsPrio		$7C
	gSFX
	gsPatch		$49
	gLoopStart
	dc.b $C0
	gNop
	dc.b $8E, $C7, nF4, $8F, $C8, nB3, $C7
	gLoopEnd
	gStop

.4A_00	dc.b $C0
	gsPrio		$7F
	gSFX
	gsPatch		$71
	gLoopStart
	dc.b $C0
	gNop
	gsVolume	$00
	dc.b $81, $C5, nB3, nF2, $C4, nEb4, $C0
	gLoopEnd
	gStop

.4B_00	dc.b $C0
	gsPrio		$7F
	gSFX
	gsPatch		$72
	gLoopStart
	dc.b $C0
	gNop
	gsVolume	$03
	dc.b $81, $C4, nAb1, nBb7, nEb1, $C0
	gLoopEnd
	gStop

.4C_00	dc.b $C0
	gsPrio		$7F
	gSFX
	gsPatch		$73
	gsVolume	$00
	dc.b $85, $C5, nAb3
	gStop

.4D_00	dc.b $C0
	gStartSeq	$26
	gStop

.4E_00	dc.b $C0
	gStartSeq	$26
	gStop

.50_00	dc.b $C0
	gsPrio		$7F
	gSFX
	gsPatch		$18
	gsVolume	$01
	dc.b $83, $C3, nRst, nCs0, nD0, nEb0, nE0, nF0
	dc.b nFs0, nG0, nAb0, nFs0, nF0, nE0, nEb0, nCs0
	dc.b nEb0, nE0, nF0, nFs0, nG0, nAb0, nFs0, nF0
	dc.b nE0, nEb0, nE0, nFs0, nG0, nAb0, nA0, nBb0
	dc.b nA0, nAb0, nG0, nFs0, nF0, nE0, nEb0, nF0
	dc.b nFs0, nG0, nAb0, nA0, nBb0, nA0, nAb0, nG0
	dc.b nFs0, nF0, nFs0, nEb0, nF0, nFs0, nG0, nAb0
	dc.b nBb0, nB0, nBb0, nA0, nAb0, nG0, nFs0, nF0
	dc.b nE0, nFs0, nG0, nAb0, nA0, nBb0, nB0, nBb0
	dc.b nA0, nAb0, nG0, nFs0, $C6, nG0, $C3, nFs0
	dc.b nG0, nAb0, nA0, nBb0, nB0, nBb0, nA0, nAb0
	dc.b nG0, nFs0, nG0, nFs0, nG0, nAb0, nA0, nBb0
	dc.b nB0, nBb0, nA0, nAb0, nG0, nFs0, nG0, nFs0
	dc.b nG0, nAb0, nA0, nBb0, nB0, nBb0, nA0, nAb0
	dc.b nG0, nFs0, nG0
	gStop

.50_01	dc.b $C0
	gsPrio		$7F
	gSFX
	gsPatch		$57
	dc.b $FC
	gsVolume	$00
	dc.b $84, $9A, $C0, nAb6, nEb6, nAb5, $CD
	gPitBend	$0000
	dc.b $C4
	gPitBend	$FC0E
	gPitBend	$FC2A
	gPitBend	$FC47
	dc.b $C3
	gPitBend	$FC63
	dc.b $C4
	gPitBend	$FC7F
	gPitBend	$FC9C
	gPitBend	$FCB8
	dc.b $C3
	gPitBend	$FCD5
	dc.b $C4
	gPitBend	$FCF1
	gPitBend	$FD0E
	gPitBend	$FD2A
	dc.b $C3
	gPitBend	$FD47
	dc.b $C4
	gPitBend	$FD63
	gPitBend	$FD7F
	gPitBend	$FD9C
	dc.b $C3
	gPitBend	$FDB8
	dc.b $C4
	gPitBend	$FDD5
	gPitBend	$FDF1
	gPitBend	$FE0E
	dc.b $C3
	gPitBend	$FE2A
	dc.b $C4
	gPitBend	$FE47
	gPitBend	$FE63
	gPitBend	$FE7F
	dc.b $C3
	gPitBend	$FE9C
	dc.b $C4
	gPitBend	$FEB8
	gPitBend	$FED5
	gPitBend	$FEF1
	dc.b $C3
	gPitBend	$FF0E
	dc.b $C4
	gPitBend	$FF2A
	gPitBend	$FF47
	gPitBend	$FF63
	dc.b $C3
	gPitBend	$FF7F
	dc.b $C4
	gPitBend	$FF9C
	gPitBend	$FFB8
	gPitBend	$FFD5
	dc.b $C3
	gPitBend	$FFF1
	dc.b $C4
	gPitBend	$000E
	gPitBend	$002A
	gPitBend	$0047
	dc.b $C3
	gPitBend	$0063
	dc.b $C4
	gPitBend	$007F
	gPitBend	$009C
	gPitBend	$00B8
	dc.b $C3
	gPitBend	$00D5
	dc.b $C4
	gPitBend	$00F1
	gPitBend	$010E
	gPitBend	$012A
	dc.b $C3
	gPitBend	$0147
	dc.b $C4
	gPitBend	$0163
	gPitBend	$017F
	gPitBend	$019C
	dc.b $C3
	gPitBend	$01B8
	dc.b $C4
	gPitBend	$01D5
	gPitBend	$01F1
	gPitBend	$020E
	dc.b $C3
	gPitBend	$022A
	dc.b $C4
	gPitBend	$0247
	gPitBend	$0263
	gPitBend	$027F
	dc.b $C3
	gPitBend	$029C
	dc.b $C4
	gPitBend	$02B8
	gPitBend	$02D5
	gPitBend	$02F1
	dc.b $C3
	gPitBend	$030E
	dc.b $C4
	gPitBend	$032A
	gPitBend	$0346
	gPitBend	$0363
	dc.b $C3
	gPitBend	$037F
	dc.b $C4
	gPitBend	$039C
	gPitBend	$03B8
	gPitBend	$03D5
	dc.b $C2
	gPitBend	$03F1
	gStop

.50_02	dc.b $E4
	gStartSeq	$6A
	dc.b $C0
	gStopSeq	$6A
	gStop

.53_00	dc.b $C0
	gsPrio		$7F
	gSFX
	gsPatch		$7B
	gsVolume	$00
	dc.b $98, $D8, nF4
	gStop

.54_00	dc.b $C0
	gsPrio		$7F
	gSFX
	gsPatch		$70
	gsVolume	$03
	gLoopStart	$08
	dc.b $C0
	gNop
	dc.b $98, $D8, nB3, $C0
	gLoopEnd
	gStop

.58_00	dc.b $C0
	gsPrio		$7F
	gSFX
	gsVolume	$00
	gsPatch		$55
	gRetrig
	dc.b nRst
	gsEnv		$01
	dc.b $98, nAb4, $D8, nAb3, $C0
	gStartSeq	$7D
	gStop

.5B_00	dc.b $C0
	gsPrio		$7F
	gsPatch		$7E
	gsVolume	$00
	gLoopStart	$08
	dc.b $C0
	gNop
	dc.b $8F, $CF, nD3, $C0
	gLoopEnd
	gStop

.5C_00	dc.b $C0
	gStopSeq	$4C
	gsPrio		$7F
	gSFX
	gsVolume	$05
	gsPatch		$76
	gRetrig
	dc.b nC0
	gsEnv		$01
	dc.b $A9, $E4, nB3, $C5
	gStopSeq	$5C
	gStop

.5D_00	dc.b $C0
	gsPrio		$7F
	gSFX
	gLoopStart
	dc.b $C0
	gNop
	gsPatch		$5E
	dc.b $98, $D3, nFs2, $C5
	gLoopEnd
	gStop

.5D_01	dc.b $C0
	gSFX
	gLoopStart
	dc.b $C0
	gNop
	gsPatch		$75
	dc.b $88, $D3, nD2, $C0
	gLoopEnd
	gStop

.5D_02	dc.b $C0
	gSFX
	gLoopStart
	dc.b $C0
	gNop
	gsPatch		$7E
	dc.b $85, $D3, nG2, $C0
	gLoopEnd
	gStop

.5E_00	dc.b $C0
	gsPrio		$7F
	gSFX
	gsPatch		$3B
	dc.b $83, $C3, nFs3, nAb3, $84, $C4, nBb3, nB3
	dc.b nCs4, nEb4, nE4, $C5, nFs4, $86, $C6, nAb4
	dc.b $C8, nBb4, $CA, nB4, $84, $C4, nCs5
	gStop

.5F_00	dc.b $C0
	gsPrio		$7F
	gsVolume	$03
	gSFX
	gPitBend	$0000
	gsPatch		$70
	dc.b $81, $9A, nB6
	gPitBend	$0167
	dc.b $C1
	gPitBend	$026C
	gPitBend	$034D
	gPitBend	$03B9
	gPitBend	$03F8
	dc.b $DA
	gPitBend	$03FF
	dc.b $C1
	gPitBend	$03F8
	gPitBend	$03B0
	gPitBend	$03F8
	dc.b $C3
	gPitBend	$03FF
	dc.b $C1
	gPitBend	$038C
	gPitBend	$02B4
	gPitBend	$0287
	gPitBend	$0305
	gPitBend	$03CB
	gPitBend	$03FF
	gPitBend	$0371
	gPitBend	$0299
	gPitBend	$0248
	gPitBend	$02D8
	gPitBend	$03A7
	gPitBend	$03FF
	dc.b $C0
	gPitBend	$03C2
	dc.b $C1
	gPitBend	$02B4
	gPitBend	$019D
	gPitBend	$0167
	gPitBend	$0200
	dc.b $C2
	gPitBend	$02C6
	dc.b $C0
	gPitBend	$0212
	dc.b $C1
	gPitBend	$010D
	gPitBend	$00AA
	gPitBend	$0143
	gPitBend	$0251
	gPitBend	$02CF
	gPitBend	$0224
	gPitBend	$00C5
	dc.b $C0
	gPitBend	$002C
	dc.b $C1
	gPitBend	$00AA
	gPitBend	$018B
	gPitBend	$01B8
	gPitBend	$00BC
	dc.b $C2
	gPitBend	$0000
	gPitBend	$0047
	dc.b $C1
	gPitBend	$0000
	gPitBend	$FF8E
	gPitBend	$FF5E
	dc.b $C2
	gPitBend	$0000
	dc.b $C1
	gPitBend	$FFB4
	gPitBend	$FE97
	gPitBend	$FF00
	dc.b $C2
	gPitBend	$0000
	dc.b $C1
	gPitBend	$FF84
	dc.b $C0
	gPitBend	$FDE3
	dc.b $C1
	gPitBend	$FD84
	gPitBend	$FEAA
	dc.b $C2
	gPitBend	$0000
	dc.b $C1
	gPitBend	$FF38
	dc.b $C0
	gPitBend	$FD68
	dc.b $C1
	gPitBend	$FCE3
	gPitBend	$FDAA
	gPitBend	$FEA1
	gPitBend	$FE7B
	gPitBend	$FD2F
	dc.b $C2
	gPitBend	$FC00
	dc.b $C0
	gPitBend	$FC1C
	dc.b $C1
	gPitBend	$FC55
	dc.b $C0
	gPitBend	$FC00
	gStop

.60_00	dc.b $C0
	gStopSeq	$4C
	gsPrio		$7F
	gSFX
	gsPatch		$60
	gsVolume	$03
	gRetrig
	dc.b nRst
	gsEnv		$01
	dc.b $8A, $CA, nB3, $C4
	gsPatch		$7A
	dc.b $84, nCs4
	gStop

.61_00	dc.b $C0
	gsPrio		$7F
	gSFX
	gsPatch		$50
	gsVolume	$00
	dc.b $82, $C2, nB5, $84, $C7, nB4, $82, $C2
	dc.b nB5, $84, $C7, nB4, $82, $C2, nB5, $84
	dc.b $C4, nB4
	gStop

.62_00	dc.b $C0
	gsPrio		$7F
	gSFX
	gsPatch		$5B
	dc.b $83, $C3, nCs5
	gStop

.63_00	dc.b $C0
	gsPrio		$7F
	gSFX
	gsPatch		$4A
	gsVolume	$00
	gStartSeq	$79
	dc.b $85, $C5, nB2
	gStop

.63_01	dc.b $C0
	gSFX
	gsPrio		$7F
	gsPatch		$24
	gsVolume	$00
	dc.b $84, $C4, nB3
	gStop

.65_00	dc.b $C0
	gsPrio		$7F
	gSFX
	gsPatch		$5A
	gsVolume	$00
	dc.b $86, $C6, nB3
	gStop

.66_00	dc.b $C0
	gsPrio		$7D
	gSFX
	gsPatch		$4A
	gsVolume	$00
	dc.b $98, $C4, nA5, $C2, nC5, $B0, $F0, nCs4
	gStop

.67_00	dc.b $C0
	gsPrio		$7F
	gSFX
	gsPatch		$59
	gsVolume	$09
	dc.b $9A, $C2, nAb2, $DA, nB3
	gStop

.68_00	dc.b $C0
	gsPrio		$7F
	gSFX
	gsPatch		$72
	gsVolume	$0C
	gLoopStart
	dc.b $C0
	gNop
	dc.b $81, $C3, nB0, nCs1, nD1, nEb1, nE1, nF1
	dc.b nFs1, nG1, nAb1, nFs1, nF1, nE1, nEb1, nCs1
	dc.b nEb1, nE1, nF1, nFs1, nG1, nAb1, nFs1, nF1
	dc.b nE1, nEb1, nF1, nFs1, nG1, nAb1, nA1, nBb1
	dc.b nA1, nAb1, nG1, nFs1, nF1, nE1, nEb1, nF1
	dc.b nFs1, nG1, nAb1, nA1, nAb1, nFs1, nF1, nE1
	dc.b nEb1, nCs1, nC1, $C0
	gLoopEnd
	gStop

.69_00	dc.b $C0
	gsPrio		$7F
	gSFX
	gLoopStart
	dc.b $C2
	gNop
	dc.b $C1
	gsPatch		$5E
	dc.b $C0
	gsVolume	$00
	dc.b $82, $C2, nB3, nF2, $C0
	gLoopEnd
	gStop

.6A_00	dc.b $C0
	gsPrio		$7E
	gStopSeq	$38
	gStopSeq	$79
	gSFX
	gsPatch		$5D
	dc.b $83, $CC, nE1, $98, $DB, nE1, $C0
	gStopSeq	$6A
	gStop

.6A_01	dc.b $C0
	gsPrio		$7F
	gSFX
	gsPatch		$5F
	dc.b $98, $CC, nCs2, $D8, nCs2
	gStop

.6B_00	dc.b $C0
	gsPrio		$7F
	gsPatch		$5F
	gSFX
	gLoopStart	$02
	dc.b $C0
	gNop
	dc.b $83, $C6, nFs1, $C5, nFs1, $C8, nFs1, $C9
	dc.b nFs1, $C4, nFs1, $C6
	gLoopEnd
	dc.b $CA, nFs1, $CD, nFs1, $CB, nFs1, $C3, nFs1
	gStop

.6B_01	dc.b $C0
	gUnmute	1
	gsPrio		$7E
	gsPatch		$61
	gLoopStart	$02
	dc.b $C0
	gNop
	dc.b $90, $CE, nB3, $8A, $CA, nEb4, $8B, $CB
	dc.b nAb4, $C1
	gLoopEnd
	dc.b $8E, $CC, nC4, $90, $CE, nD4, $8C, $C5
	dc.b nG4, $A2, $E2, nD4
	gStop

.6B_02	dc.b $E6
	gStartSeq	$6A
	dc.b $C8
	gStartSeq	$6A
	dc.b $C0
	gStopSeq	$6A
	gStop

.6D_00	dc.b $C0
	gsPrio		$7F
	gSFX
	gsVolume	$00
	gsPatch		$5E
	dc.b $88, $C8, nB3
	gStop

.6D_01	dc.b $C0
	gsPrio		$7F
	gsPatch		$61
	gsVolume	$05
	dc.b $98, $D8, nB3
	gStop

.6E_00	dc.b $C0
	gsPrio		$7F
	gSFX
	gsPatch		$72
	gsVolume	$0C
	gLoopStart
	dc.b $C0
	gNop
	dc.b $81, $C3, nB0, nCs1, nD1, nEb1, nE1, nF1
	dc.b nFs1, nG1, nAb1, nFs1, nF1, nE1, nEb1, nCs1
	dc.b nEb1, nE1, nF1, nFs1, nG1, nAb1, nFs1, nF1
	dc.b nE1, nEb1, nF1, nFs1, nG1, nAb1, nA1, nBb1
	dc.b nA1, nAb1, nG1, nFs1, nF1, nE1, nEb1, nF1
	dc.b nFs1, nG1, nAb1, nA1, nBb1, nA1, nAb1, nG1
	dc.b nFs1, nF1, nFs1, $C0
	gLoopEnd
	gStop

.6E_01	dc.b $C0
	gsPrio		$7E
	gSFX
	gsVolume	$11
	dc.b $C9
	gsPatch		$64
	dc.b $8C, $C2, nAb5, $C4, nCs6, $C3, nAb6, $98
	dc.b nF6, $8C, nAb5, $98, nCs6, nAb6, nEb6, $8C
	dc.b nF6, $98, $D8, nAb5
	gStop

.6F_00	dc.b $C0
	gsPrio		$7F
	gsPatch		$45
	gSFX
	gRetrig
	dc.b nC0
	gsEnv		$05
	dc.b $98, $D8, nB4
	gStop

.70_00	dc.b $C0
	gsPrio		$7F
	dc.b $C6
	gSFX
	dc.b $C0
	gsVolume	$00
	gsPatch		$7A
	dc.b $82, $C3, nF4, $C2, nF4, $98, $D8, nE4
	gStop

.70_01	dc.b $C0
	gsPrio		$7E
	gsPatch		$7A
	dc.b $98, $D8, nEb4
	gStop

.73_00	dc.b $C0
	gsPrio		$7F
	gSFX
	gsPatch		$7A
	gsVolume	$00
	dc.b $92, $D2, nEb4
	gStop

.75_00	dc.b $C0
	gStopSeq	$4C
	gsPrio		$7F
	gSFX
	gsPatch		$58
	gLoopStart	$02
	dc.b $C0
	gNop
	gsVolume	$00
	dc.b $81, $C1, nB3, nB3, nB3, $C0
	gLoopEnd
	dc.b $C1
	gsPatch		$4E
	dc.b $86, $C6, nB2
	gStop

.76_00	dc.b $C0
	gsPrio		$7F
	gSFX
	gsVolume	$00
	gsPatch		$52
	gRetrig
	dc.b nRst
	gsEnv		$00
	dc.b $98, $D8, nD4, $8A, $CA, nCs5, $C0
	gStopSeq	$76
	gStop

.77_00	dc.b $C0
	gsPrio		$7F
	gSFX
	gLoopStart	$04
	dc.b $C0
	gNop
	gsPatch		$54
	gsVolume	$11
	dc.b $98, $E4, nB3, $C0
	gLoopEnd
	gStop

.78_00	dc.b $C0
	gStopSeq	$77
	gStopSeq	$30
	gStopSeq	$4C
	gsPrio		$7F
	gSFX
	gsPatch		$4D
	gsVolume	$00
	dc.b $86, $CA, nE6, $C0
	gsPatch		$5D
	dc.b $8C, $E0, nFs1, $C0
	gStopSeq	$78
	gStop

.78_01	dc.b $CA
	gNop
	dc.b $C0
	gsPrio		$7F
	gsPatch		$5F
	dc.b $8A, $CA, nEb1
	gStop

.79_00	dc.b $C0
	gStopSeq	$4C
	gsPrio		$7F
	gSFX
	gsPatch		$4C
	gsVolume	$00
	dc.b $86, $C6, nB3
	gStop

.7A_00	dc.b $C0
	gsPrio		$7F
	gSFX
	gsPatch		$53
	gsVolume	$00
	dc.b $82, $C2, nB3, $84, $C4, nD4
	gStop

.7B_00	dc.b $C0
	gsPrio		$7F
	gSFX
	gsPatch		$60
	gLoopStart	$0E
	dc.b $C0
	gNop
	gsVolume	$00
	dc.b $81, $C1, nEb4, $C0
	gLoopEnd
	gStop

.7C_00	dc.b $C0
	gsPrio		$7F
	gStopSeq	$37
	gStopSeq	$39
	gStopSeq	$4C
	gStopSeq	$4D
	gStopSeq	$4E
	gStopSeq	$5C
	gStopSeq	$76
	gStopSeq	$78
	gStopSeq	$79
	gSFX
	gsPatch		$64
	gsVolume	$00
	dc.b $89, $C5, nEb5, nAb5, $8A, $CA, nC6
	gStop

.7D_00	dc.b $C0
	gsPrio		$7F
	gsPatch		$56
	gRetrig
	dc.b nRst
	gsEnv		$00
	gsVolume	$00
	dc.b $84, $CC, nB1, $C0
	gStopSeq	$7D
	gStop
